<svg width="248" height="96" viewBox="0 0 248 96" fill="none" xmlns="http://www.w3.org/2000/svg">
<g clip-path="url(#clip0)">
<path fill-rule="evenodd" clip-rule="evenodd" d="M1.24243 0.768481C1.24243 0.768481 86.4624 0 127.721 0C168.981 0 246 0.768481 246 0.768481V96H1.24243V0.768481Z" fill="white"/>
<path d="M0 1L2 96" stroke="#061621" stroke-width="2"/>
<path d="M0 1.25C51.3891 1.17933 170.58 0.161205 245 1.25" stroke="#061621" stroke-width="2"/>
<path d="M245.5 92V1" stroke="#061621" stroke-width="5"/>
<path d="M1 94.3774C81.8293 94.3774 172.957 94.2548 246 93" stroke="#061621" stroke-width="5"/>
</g>
<path d="M24.72 27L23.344 23.464H18.816L17.456 27H16L20.464 15.528H21.76L26.208 27H24.72ZM21.632 18.728C21.6 18.6427 21.5467 18.488 21.472 18.264C21.3973 18.04 21.3227 17.8107 21.248 17.576C21.184 17.3307 21.1307 17.144 21.088 17.016C21.0133 17.3467 20.928 17.672 20.832 17.992C20.736 18.3013 20.656 18.5467 20.592 18.728L19.296 22.184H22.912L21.632 18.728ZM28.9868 27H27.5788V14.84H28.9868V27ZM35.7838 18.264C36.8398 18.264 37.6878 18.632 38.3278 19.368C38.9784 20.104 39.3038 21.2133 39.3038 22.696C39.3038 24.1573 38.9784 25.2667 38.3278 26.024C37.6878 26.7813 36.8344 27.16 35.7678 27.16C35.1064 27.16 34.5571 27.0373 34.1198 26.792C33.6931 26.536 33.3571 26.2427 33.1118 25.912H33.0158C33.0371 26.0933 33.0584 26.3227 33.0798 26.6C33.1011 26.8773 33.1118 27.1173 33.1118 27.32V30.84H31.7038V18.424H32.8558L33.0478 19.592H33.1118C33.3678 19.2187 33.7038 18.904 34.1198 18.648C34.5358 18.392 35.0904 18.264 35.7838 18.264ZM35.5278 19.448C34.6531 19.448 34.0344 19.6933 33.6718 20.184C33.3198 20.6747 33.1331 21.4213 33.1118 22.424V22.696C33.1118 23.752 33.2824 24.568 33.6238 25.144C33.9758 25.7093 34.6211 25.992 35.5598 25.992C36.0824 25.992 36.5091 25.848 36.8398 25.56C37.1811 25.272 37.4318 24.8827 37.5918 24.392C37.7624 23.8907 37.8478 23.32 37.8478 22.68C37.8478 21.6987 37.6558 20.9147 37.2718 20.328C36.8984 19.7413 36.3171 19.448 35.5278 19.448ZM42.9555 18.408C42.9555 18.8347 42.9288 19.2347 42.8755 19.608H42.9715C43.2488 19.1707 43.6222 18.84 44.0915 18.616C44.5715 18.392 45.0888 18.28 45.6435 18.28C46.6888 18.28 47.4728 18.5307 47.9955 19.032C48.5182 19.5227 48.7795 20.3173 48.7795 21.416V27H47.3875V21.512C47.3875 20.136 46.7475 19.448 45.4675 19.448C44.5075 19.448 43.8462 19.72 43.4835 20.264C43.1315 20.7973 42.9555 21.5653 42.9555 22.568V27H41.5475V14.84H42.9555V18.408ZM54.6861 18.28C55.7315 18.28 56.5048 18.5093 57.0061 18.968C57.5075 19.4267 57.7581 20.1573 57.7581 21.16V27H56.7341L56.4621 25.784H56.3981C56.0248 26.2533 55.6301 26.6 55.2141 26.824C54.8088 27.048 54.2435 27.16 53.5181 27.16C52.7395 27.16 52.0941 26.9573 51.5821 26.552C51.0701 26.136 50.8141 25.4907 50.8141 24.616C50.8141 23.7627 51.1501 23.1067 51.8221 22.648C52.4941 22.1787 53.5288 21.9227 54.9261 21.88L56.3821 21.832V21.32C56.3821 20.6053 56.2275 20.1093 55.9181 19.832C55.6088 19.5547 55.1715 19.416 54.6061 19.416C54.1581 19.416 53.7315 19.4853 53.3261 19.624C52.9208 19.752 52.5421 19.9013 52.1901 20.072L51.7581 19.016C52.1315 18.8133 52.5741 18.6427 53.0861 18.504C53.5981 18.3547 54.1315 18.28 54.6861 18.28ZM55.1021 22.856C54.0355 22.8987 53.2941 23.0693 52.8781 23.368C52.4728 23.6667 52.2701 24.088 52.2701 24.632C52.2701 25.112 52.4141 25.464 52.7021 25.688C53.0008 25.912 53.3795 26.024 53.8381 26.024C54.5635 26.024 55.1661 25.8267 55.6461 25.432C56.1261 25.0267 56.3661 24.408 56.3661 23.576V22.808L55.1021 22.856ZM61.8149 17.8C61.8149 18.1627 61.8042 18.504 61.7829 18.824C61.7722 19.1333 61.7562 19.3787 61.7349 19.56H61.8149C62.0602 19.1973 62.3962 18.8933 62.8229 18.648C63.2495 18.4027 63.7989 18.28 64.4709 18.28C65.5375 18.28 66.3909 18.6533 67.0309 19.4C67.6815 20.136 68.0069 21.24 68.0069 22.712C68.0069 24.184 67.6815 25.2933 67.0309 26.04C66.3802 26.7867 65.5269 27.16 64.4709 27.16C63.7989 27.16 63.2495 27.0373 62.8229 26.792C62.3962 26.5467 62.0602 26.2533 61.8149 25.912H61.7029L61.4149 27H60.4069V14.84H61.8149V17.8ZM64.2309 19.448C63.3242 19.448 62.6949 19.7093 62.3429 20.232C61.9909 20.7547 61.8149 21.5653 61.8149 22.664V22.728C61.8149 23.784 61.9855 24.5947 62.3269 25.16C62.6789 25.7147 63.3242 25.992 64.2629 25.992C65.0309 25.992 65.6015 25.7093 65.9749 25.144C66.3589 24.5787 66.5509 23.7627 66.5509 22.696C66.5509 20.5307 65.7775 19.448 64.2309 19.448ZM73.5626 18.264C74.2986 18.264 74.928 18.424 75.4506 18.744C75.984 19.064 76.3893 19.5173 76.6666 20.104C76.9546 20.68 77.0986 21.3573 77.0986 22.136V22.984H71.2266C71.248 23.9547 71.4933 24.696 71.9626 25.208C72.4426 25.7093 73.1093 25.96 73.9626 25.96C74.5066 25.96 74.9866 25.912 75.4026 25.816C75.8293 25.7093 76.2666 25.56 76.7146 25.368V26.6C76.2773 26.792 75.8453 26.9307 75.4186 27.016C74.992 27.112 74.4853 27.16 73.8986 27.16C73.088 27.16 72.368 26.9947 71.7386 26.664C71.12 26.3333 70.6346 25.8427 70.2826 25.192C69.9413 24.5307 69.7706 23.7253 69.7706 22.776C69.7706 21.8373 69.9253 21.032 70.2346 20.36C70.5546 19.688 70.9973 19.1707 71.5626 18.808C72.1386 18.4453 72.8053 18.264 73.5626 18.264ZM73.5466 19.416C72.8746 19.416 72.3413 19.6347 71.9466 20.072C71.5626 20.4987 71.3333 21.096 71.2586 21.864H75.6266C75.616 21.1387 75.4453 20.552 75.1146 20.104C74.784 19.6453 74.2613 19.416 73.5466 19.416ZM82.1459 26.008C82.3592 26.008 82.5779 25.992 82.8019 25.96C83.0259 25.9173 83.2072 25.8747 83.3459 25.832V26.904C83.1965 26.9787 82.9832 27.0373 82.7059 27.08C82.4285 27.1333 82.1619 27.16 81.9059 27.16C81.4579 27.16 81.0419 27.0853 80.6579 26.936C80.2845 26.776 79.9805 26.504 79.7459 26.12C79.5112 25.736 79.3939 25.1973 79.3939 24.504V19.512H78.1779V18.84L79.4099 18.28L79.9699 16.456H80.8019V18.424H83.2819V19.512H80.8019V24.472C80.8019 24.9947 80.9245 25.384 81.1699 25.64C81.4259 25.8853 81.7512 26.008 82.1459 26.008ZM85.7831 15.208C85.9965 15.208 86.1831 15.2827 86.3431 15.432C86.5138 15.5707 86.5991 15.7947 86.5991 16.104C86.5991 16.4027 86.5138 16.6267 86.3431 16.776C86.1831 16.9253 85.9965 17 85.7831 17C85.5485 17 85.3511 16.9253 85.1911 16.776C85.0311 16.6267 84.9511 16.4027 84.9511 16.104C84.9511 15.7947 85.0311 15.5707 85.1911 15.432C85.3511 15.2827 85.5485 15.208 85.7831 15.208ZM86.4711 18.424V27H85.0631V18.424H86.4711ZM92.6281 27.16C91.8708 27.16 91.1935 27.0053 90.5961 26.696C90.0095 26.3867 89.5455 25.9067 89.2041 25.256C88.8735 24.6053 88.7081 23.7733 88.7081 22.76C88.7081 21.704 88.8841 20.8453 89.2361 20.184C89.5881 19.5227 90.0628 19.0373 90.6601 18.728C91.2681 18.4187 91.9561 18.264 92.7241 18.264C93.1615 18.264 93.5828 18.312 93.9881 18.408C94.3935 18.4933 94.7241 18.6 94.9801 18.728L94.5481 19.896C94.2921 19.8 93.9935 19.7093 93.6521 19.624C93.3108 19.5387 92.9908 19.496 92.6921 19.496C91.0068 19.496 90.1641 20.5787 90.1641 22.744C90.1641 23.7787 90.3668 24.5733 90.7721 25.128C91.1881 25.672 91.8015 25.944 92.6121 25.944C93.0815 25.944 93.4921 25.896 93.8441 25.8C94.2068 25.704 94.5375 25.5867 94.8361 25.448V26.696C94.5481 26.8453 94.2281 26.9573 93.8761 27.032C93.5348 27.1173 93.1188 27.16 92.6281 27.16ZM100.124 18.28C101.169 18.28 101.942 18.5093 102.444 18.968C102.945 19.4267 103.196 20.1573 103.196 21.16V27H102.172L101.9 25.784H101.836C101.462 26.2533 101.068 26.6 100.652 26.824C100.246 27.048 99.681 27.16 98.9556 27.16C98.177 27.16 97.5316 26.9573 97.0196 26.552C96.5076 26.136 96.2516 25.4907 96.2516 24.616C96.2516 23.7627 96.5876 23.1067 97.2596 22.648C97.9316 22.1787 98.9663 21.9227 100.364 21.88L101.82 21.832V21.32C101.82 20.6053 101.665 20.1093 101.356 19.832C101.046 19.5547 100.609 19.416 100.044 19.416C99.5956 19.416 99.169 19.4853 98.7636 19.624C98.3583 19.752 97.9796 19.9013 97.6276 20.072L97.1956 19.016C97.569 18.8133 98.0116 18.6427 98.5236 18.504C99.0356 18.3547 99.569 18.28 100.124 18.28ZM100.54 22.856C99.473 22.8987 98.7316 23.0693 98.3156 23.368C97.9103 23.6667 97.7076 24.088 97.7076 24.632C97.7076 25.112 97.8516 25.464 98.1396 25.688C98.4383 25.912 98.817 26.024 99.2756 26.024C100.001 26.024 100.604 25.8267 101.084 25.432C101.564 25.0267 101.804 24.408 101.804 23.576V22.808L100.54 22.856ZM107.252 27H105.844V14.84H107.252V27Z" fill="#061621"/>
<path d="M20.816 59.576C22.2453 59.576 23.3227 59.7893 24.048 60.216C24.784 60.632 25.152 61.3627 25.152 62.408C25.152 63.08 24.9653 63.64 24.592 64.088C24.2187 64.5253 23.68 64.808 22.976 64.936V65.016C23.456 65.0907 23.888 65.2293 24.272 65.432C24.6667 65.6347 24.976 65.9227 25.2 66.296C25.424 66.6693 25.536 67.1547 25.536 67.752C25.536 68.7867 25.1787 69.5867 24.464 70.152C23.76 70.7173 22.7947 71 21.568 71H17.552V59.576H20.816ZM21.104 64.44C22.0853 64.44 22.7573 64.2853 23.12 63.976C23.4827 63.656 23.664 63.1867 23.664 62.568C23.664 61.9387 23.44 61.4907 22.992 61.224C22.5547 60.9467 21.8507 60.808 20.88 60.808H18.992V64.44H21.104ZM18.992 65.64V69.784H21.296C22.3093 69.784 23.0133 69.5867 23.408 69.192C23.8027 68.7973 24 68.28 24 67.64C24 67.0427 23.792 66.5627 23.376 66.2C22.9707 65.8267 22.24 65.64 21.184 65.64H18.992ZM26.4223 62.424H27.9263L29.7823 67.304C29.9423 67.7307 30.0863 68.1413 30.2143 68.536C30.3423 68.92 30.4383 69.288 30.5023 69.64H30.5663C30.6303 69.3733 30.7316 69.0267 30.8703 68.6C31.0089 68.1627 31.1529 67.7253 31.3023 67.288L33.0463 62.424H34.5663L30.8703 72.184C30.5716 72.9947 30.1823 73.64 29.7023 74.12C29.2329 74.6 28.5823 74.84 27.7503 74.84C27.4943 74.84 27.2703 74.824 27.0783 74.792C26.8863 74.7707 26.7209 74.744 26.5823 74.712V73.592C26.6996 73.6133 26.8383 73.6347 26.9983 73.656C27.1689 73.6773 27.3449 73.688 27.5263 73.688C28.0169 73.688 28.4116 73.5493 28.7103 73.272C29.0196 72.9947 29.2596 72.6267 29.4303 72.168L29.8783 71.032L26.4223 62.424ZM43.2468 65.192L46.2228 59.576H47.7748L43.9668 66.568V71H42.5268V66.632L38.7188 59.576H40.2868L43.2468 65.192ZM51.6564 62.264C52.3924 62.264 53.0217 62.424 53.5444 62.744C54.0777 63.064 54.483 63.5173 54.7604 64.104C55.0484 64.68 55.1924 65.3573 55.1924 66.136V66.984H49.3204C49.3417 67.9547 49.587 68.696 50.0564 69.208C50.5364 69.7093 51.203 69.96 52.0564 69.96C52.6004 69.96 53.0804 69.912 53.4964 69.816C53.923 69.7093 54.3604 69.56 54.8084 69.368V70.6C54.371 70.792 53.939 70.9307 53.5124 71.016C53.0857 71.112 52.579 71.16 51.9924 71.16C51.1817 71.16 50.4617 70.9947 49.8324 70.664C49.2137 70.3333 48.7284 69.8427 48.3764 69.192C48.035 68.5307 47.8644 67.7253 47.8644 66.776C47.8644 65.8373 48.019 65.032 48.3284 64.36C48.6484 63.688 49.091 63.1707 49.6564 62.808C50.2324 62.4453 50.899 62.264 51.6564 62.264ZM51.6404 63.416C50.9684 63.416 50.435 63.6347 50.0404 64.072C49.6564 64.4987 49.427 65.096 49.3524 65.864H53.7204C53.7097 65.1387 53.539 64.552 53.2084 64.104C52.8777 63.6453 52.355 63.416 51.6404 63.416ZM60.6236 62.28C61.669 62.28 62.4423 62.5093 62.9436 62.968C63.445 63.4267 63.6956 64.1573 63.6956 65.16V71H62.6716L62.3996 69.784H62.3356C61.9623 70.2533 61.5676 70.6 61.1516 70.824C60.7463 71.048 60.181 71.16 59.4556 71.16C58.677 71.16 58.0316 70.9573 57.5196 70.552C57.0076 70.136 56.7516 69.4907 56.7516 68.616C56.7516 67.7627 57.0876 67.1067 57.7596 66.648C58.4316 66.1787 59.4663 65.9227 60.8636 65.88L62.3196 65.832V65.32C62.3196 64.6053 62.165 64.1093 61.8556 63.832C61.5463 63.5547 61.109 63.416 60.5436 63.416C60.0956 63.416 59.669 63.4853 59.2636 63.624C58.8583 63.752 58.4796 63.9013 58.1276 64.072L57.6956 63.016C58.069 62.8133 58.5116 62.6427 59.0236 62.504C59.5356 62.3547 60.069 62.28 60.6236 62.28ZM61.0396 66.856C59.973 66.8987 59.2316 67.0693 58.8156 67.368C58.4103 67.6667 58.2076 68.088 58.2076 68.632C58.2076 69.112 58.3516 69.464 58.6396 69.688C58.9383 69.912 59.317 70.024 59.7756 70.024C60.501 70.024 61.1036 69.8267 61.5836 69.432C62.0636 69.0267 62.3036 68.408 62.3036 67.576V66.808L61.0396 66.856ZM70.3444 62.264C70.5044 62.264 70.675 62.2747 70.8564 62.296C71.0484 62.3067 71.2137 62.328 71.3524 62.36L71.1764 63.656C71.0377 63.624 70.883 63.5973 70.7124 63.576C70.5524 63.5547 70.3977 63.544 70.2484 63.544C69.811 63.544 69.4004 63.6667 69.0164 63.912C68.6324 64.1467 68.323 64.4827 68.0884 64.92C67.8644 65.3467 67.7524 65.848 67.7524 66.424V71H66.3444V62.424H67.4964L67.6564 63.992H67.7204C67.9977 63.5227 68.355 63.1173 68.7924 62.776C69.2297 62.4347 69.747 62.264 70.3444 62.264Z" fill="#061621"/>
<defs>
<clipPath id="clip0">
<rect width="246" height="96" fill="white"/>
</clipPath>
</defs>
</svg>
