<svg width="90" height="32" viewBox="0 0 90 32" fill="none" xmlns="http://www.w3.org/2000/svg">
<path d="M18.3418 1.47717C22.8266 1.46996 29.0766 1.33054 36.0091 1.1759C36.3324 1.16868 36.6572 1.16144 36.9834 1.15417C44.3079 0.99099 52.3321 0.816918 59.8333 0.765266C67.338 0.71359 74.3021 0.784646 79.5106 1.10983C82.1183 1.27263 84.2606 1.49774 85.8022 1.79664C86.5755 1.94656 87.168 2.10958 87.5825 2.27931C87.9935 2.44757 88.106 2.57339 88.1205 2.58953C88.122 2.59123 88.1224 2.59171 88.122 2.59088C88.3219 2.97358 88.5116 3.61468 88.6726 4.51081C88.831 5.39174 88.9522 6.46292 89.0416 7.66849C89.2203 10.0788 89.2683 12.9783 89.2442 15.8733C89.196 21.663 88.8604 27.3779 88.7251 29.0059C88.5937 30.5862 88.2007 30.9698 87.955 31.1006C87.7992 31.1835 87.5877 31.2307 87.2675 31.2449C87.0575 31.2543 86.8652 31.2498 86.6443 31.2446C86.4939 31.241 86.3303 31.2371 86.1387 31.2371C85.9568 31.2371 84.7556 31.2365 82.7701 31.2354C67.4654 31.2271 5.56105 31.1936 4.74619 31.2383C4.34044 31.2605 3.45534 31.26 2.68305 30.7371C1.96214 30.249 1.15787 29.1766 1.15787 26.6617C1.15787 24.9975 1.07003 22.8922 0.976068 20.6401C0.917667 19.2403 0.8569 17.7838 0.813389 16.3414C0.698492 12.5323 0.702672 8.80549 1.14702 6.22134C1.22603 5.76189 1.28759 5.32953 1.34203 4.94715C1.36754 4.76795 1.3915 4.59973 1.41495 4.44484C1.49169 3.93795 1.56495 3.55922 1.67077 3.25403C1.77195 2.96222 1.8955 2.7609 2.06296 2.6009C2.23434 2.43714 2.49432 2.27613 2.92781 2.13261C3.82617 1.83518 5.2951 1.66534 7.78949 1.57749C10.2616 1.49042 13.6517 1.4847 18.3418 1.47717Z" fill="white" stroke="#333531" stroke-width="1.5"/>
</svg>
