<svg width="652" height="128" viewBox="0 0 652 128" fill="none" xmlns="http://www.w3.org/2000/svg">
<g opacity="0.85">
<g opacity="0.9">
<path opacity="0.9" d="M8.34912 31.3287C8.92135 29.2155 9.56511 27.4068 10.3281 25.9673V13.8326C10.3281 11.987 10.3281 10.2061 10.3281 8.39738C9.85123 16.1949 9.13594 23.8541 8.34912 31.3287Z" fill="#AAADB1"/>
<path opacity="0.9" d="M1.26904 111.353C3.39108 101.996 3.65335 82.3404 4.58323 63.8662C3.08112 80.1442 1.79359 96.0438 1.26904 111.353Z" fill="#AAADB1"/>
<path opacity="0.9" d="M136.793 117.489C132.477 117.379 128.281 117.25 124.204 117.111L57.4434 117.416L71.5346 117.665L136.793 117.489Z" fill="#AAADB1"/>
<path opacity="0.9" d="M12.2616 32.2699C12.5001 46.3425 11.8563 61.2086 11.0933 76.1301C10.7357 83.5862 10.378 91.0608 10.0204 98.4523C9.87733 102.143 9.74222 105.813 9.61506 109.461C9.61506 112.894 9.55148 116.278 9.42432 119.612H32.0275C40.015 119.612 47.8832 119.547 55.6322 119.492C71.1063 119.372 86.0797 119.16 100.338 118.846C86.032 118.412 70.2718 118.043 54.2493 117.702L14.1452 117.803C14.0499 106.379 13.9068 94.9642 13.7161 83.5585C13.7161 72.5958 13.7161 61.6146 13.7161 50.615C13.7161 41.1841 13.7876 31.7593 13.9307 22.3407C12.5001 22.7375 11.2841 23.9648 10.2588 25.9304C10.2588 33.4173 10.2191 40.8826 10.1396 48.3265C11.0456 43.2327 11.7848 37.8897 12.2616 32.2699Z" fill="#AAADB1"/>
<path opacity="0.9" d="M43.4961 117.48L25.6376 117.563H17.7456H14.5983V115.616L14.4791 111.002L14.2645 101.774C14.1532 95.6224 14.0419 89.5012 13.9307 83.4108C14.0578 94.8165 14.1691 106.234 14.2645 117.665L54.2493 117.711L43.4961 117.48Z" fill="#AAADB1"/>
<path opacity="0.9" d="M4.6311 88.6154C5.37023 73.9707 8.08834 61.5869 10.2104 48.3634C10.2104 40.9134 10.2501 33.448 10.3296 25.9673C9.56661 27.4068 8.92285 29.2155 8.35062 31.3287C6.3478 50.4119 3.96349 68.9692 4.6311 88.6154Z" fill="#AAADB1"/>
<path opacity="0.9" d="M4.58105 63.8662C5.51093 54.4999 6.46466 44.9859 7.41838 35.4074C5.91627 43.0758 5.12945 53.2818 4.58105 63.8662Z" fill="#AAADB1"/>
<path opacity="0.9" d="M205.199 117.286L185.385 117.056H147.69H137.938L124.204 117.12C128.281 117.259 132.478 117.388 136.793 117.499L205.199 117.286Z" fill="#AAADB1"/>
<path opacity="0.9" d="M296.877 120.295L288.222 119.99H246.306C263.123 120.119 279.98 120.221 296.877 120.295Z" fill="#AAADB1"/>
<path opacity="0.9" d="M14.5275 22.2392C14.3367 22.2392 14.1698 22.3222 14.0029 22.3776C13.9393 31.7901 13.844 41.2025 13.7168 50.6149C13.8599 41.1717 14.1301 31.7132 14.5275 22.2392Z" fill="#AAADB1"/>
<path opacity="0.9" d="M288.221 119.99C343.362 119.99 398.4 119.876 453.334 119.649C403.264 119.095 353.194 118.504 301.001 118.172C269.218 118.025 237.102 117.683 205.2 117.249L136.794 117.452C182.644 118.707 240.392 118.44 288.221 119.99Z" fill="#AAADB1"/>
<path opacity="0.9" d="M71.5826 117.665L54.2487 117.711C70.2712 118.052 85.9123 118.421 100.337 118.855C86.0315 119.169 71.1057 119.381 55.6316 119.501C47.8826 119.557 40.0144 119.603 32.027 119.621H9.42375C9.42375 116.268 9.48733 112.885 9.61449 109.47C9.75755 105.828 9.89266 102.159 10.0198 98.4616C10.3775 91.0793 10.7351 83.5955 11.0928 76.1393C11.8557 61.2178 12.4995 46.3517 12.2611 32.2792C11.7842 37.899 11.0451 43.1958 10.2106 48.3726C9.95624 72.3282 9.68602 96.09 9.3999 119.658L127.447 119.879L246.305 119.999C187.269 119.52 128.925 118.671 71.5826 117.665Z" fill="#AAADB1"/>
<path opacity="0.9" d="M136.794 117.489L71.5835 117.665C128.807 118.671 187.27 119.51 246.305 119.99H288.221C240.392 118.44 182.644 118.708 136.794 117.489Z" fill="#AAADB1"/>
<path opacity="0.9" d="M71.5822 117.665L57.491 117.416L43.4951 117.48L54.2483 117.711L71.5822 117.665Z" fill="#AAADB1"/>
<path opacity="0.9" d="M10.4726 5.51828L10.3057 8.39738C10.3057 10.243 10.3057 12.0055 10.3057 13.8326V25.9673C11.3309 24.0017 12.5469 22.7744 13.9775 22.3776C13.9775 18.991 13.9775 15.6044 14.1206 12.2269V7.1793C14.1206 6.35801 14.1206 5.5275 14.1206 4.69699L113.999 5.14916C120.961 5.05688 127.701 4.94 134.218 4.7985C113.157 4.6324 92.0476 4.42323 70.8909 4.17101L39.2035 3.76498L23.5624 3.55274C17.554 3.47891 14.9551 3.40509 10.7825 3.33127L10.4726 5.51828Z" fill="#AAADB1"/>
<path opacity="0.9" d="M57.4898 117.416L46.5935 117.222H30.9048L43.4939 117.48L57.4898 117.416Z" fill="#AAADB1"/>
<path opacity="0.9" d="M124.204 117.111H123.56L46.5947 117.25L57.491 117.443L124.204 117.111Z" fill="#AAADB1"/>
<path opacity="0.9" d="M14.5275 22.2392C14.1301 31.707 13.8599 41.1656 13.7168 50.6149C13.7168 61.5715 13.7168 72.5404 13.7168 83.5216C13.844 89.6366 13.9552 95.7577 14.0506 101.885L14.2652 111.113L14.3844 115.727V117.674H17.5317H25.4237L43.2822 117.591L30.6931 117.333H15.505C15.505 113.512 15.5766 109.633 15.7196 105.696C15.8627 100.725 16.0137 95.6685 16.1726 90.5255C16.0057 59.7874 15.2189 36.3302 16.3634 6.45027V5.71204H59.0424C77.3539 5.6659 96.2376 5.56439 113.881 5.32447L14.0029 4.8723C14.0029 5.70281 14.0029 6.53332 14.0029 7.3546V12.4023C14.0029 15.7704 14.0029 19.1571 13.8599 22.5529C14.1698 22.3222 14.3367 22.2484 14.5275 22.2392Z" fill="#AAADB1"/>
<path opacity="0.9" d="M325.416 1.8179C240.917 2.03937 156.512 2.62996 70.6772 2.97139L196.712 5.11226H226.897C234.188 4.7082 241.539 4.49241 248.904 4.46631L279.542 4.85388C322.317 4.48476 364.138 3.70962 404.313 2.37158L325.416 1.8179Z" fill="#AAADB1"/>
<path opacity="0.9" d="M180.736 5.06609C191.418 5.27833 202.624 5.50902 214.117 5.65667L218.361 5.4998L196.616 5.11222L180.736 5.06609Z" fill="#AAADB1"/>
<path opacity="0.9" d="M444.536 2.62994L404.313 2.36234C364.209 3.71883 322.316 4.47552 279.542 4.86309C313.351 5.27835 344.371 5.58287 382.306 5.64746C403.264 5.37985 412.062 3.32204 430.778 3.56196C461.774 3.95876 496.538 4.5678 531.682 4.9C549.255 5.06611 566.922 5.15838 584.137 5.1307C592.792 5.1307 601.376 5.07533 609.816 4.98305L622.381 4.82618H623.955H624.646L625.815 4.77081L628.414 4.65085L628.747 5.48136L628.938 5.94275V6.19191C628.938 6.19191 628.938 6.2565 628.938 6.33033V6.60716C630.893 42.882 632.395 89.6581 637.116 120.332C636.449 98.3416 635.805 77.6896 635.209 58.0988C634.613 38.508 634.207 20.1906 633.731 2.51921L537.285 2.72222C506.027 2.713 475.15 2.70377 444.536 2.62994Z" fill="#AAADB1"/>
<path opacity="0.9" d="M218.456 5.49985L226.896 5.12151H196.711L218.456 5.49985Z" fill="#AAADB1"/>
<path opacity="0.9" d="M205.197 117.286L246.16 117.157L185.384 117.056L205.197 117.286Z" fill="#AAADB1"/>
<path opacity="0.9" d="M10.2817 4.47553V7.04088L10.449 5.52751V3.52505L10.2817 4.47553Z" fill="#AAADB1"/>
<path opacity="0.9" d="M4.17725 46.1579C4.84485 38.2773 5.65552 30.9226 6.56155 23.9371C7.06226 20.4398 7.61065 17.0347 8.23057 13.7034C8.56437 12.0424 8.89817 10.3906 9.23197 8.75726L9.73268 6.32109L10.2811 4.47552V3.13747L70.6994 2.97137L7.44374 2.04858C6.85562 9.27094 6.22775 16.5671 5.56014 23.9371C4.89254 31.3071 4.43157 38.714 4.17725 46.1579Z" fill="#AAADB1"/>
<path opacity="0.9" d="M10.5921 3.55275V5.5552L10.9021 3.37742C15.0746 3.45124 17.6735 3.52506 23.6819 3.59889L39.5137 3.81113L71.2012 4.21715C92.342 4.46323 113.451 4.6724 134.528 4.84465L139.297 4.73392C151.6 4.57704 165.643 4.80774 180.832 5.10303H196.806L70.6766 2.97139L10.2583 3.13749V4.47554L10.5921 3.55275Z" fill="#AAADB1"/>
<path opacity="0.9" d="M7.42139 35.4074C7.7075 33.9586 8.01746 32.5837 8.35127 31.3287C9.13809 23.808 9.85338 16.195 10.3064 8.39739V7.03166C9.35268 16.5364 8.37511 26.0227 7.42139 35.4074Z" fill="#AAADB1"/>
<path opacity="0.9" d="M10.3057 8.3974L10.4729 5.5183L10.3057 7.03167V8.3974Z" fill="#AAADB1"/>
<path opacity="0.9" d="M288.22 119.99L296.875 120.295C279.947 120.233 263.09 120.132 246.304 119.99L127.446 119.87L9.39947 119.649C9.66969 96.093 9.93991 72.3312 10.2101 48.3633C8.0881 61.5869 5.44152 73.9707 4.63086 88.6154C3.96325 68.9692 6.34756 50.4119 8.35037 31.3287C8.01657 32.5837 7.70661 33.9586 7.42049 35.4074C6.46677 44.9859 5.51305 54.4999 4.58317 63.8662C3.62945 82.322 3.39102 101.996 1.26899 111.353C1.84122 96.0438 3.08106 80.1442 4.58317 63.8662C5.13156 53.2818 5.91838 43.0758 7.42049 35.4074C8.37422 26.0226 9.35178 16.5364 10.3055 7.03165V4.47552L9.75711 6.3211L9.23257 8.75726C8.89876 10.3906 8.56496 12.0424 8.23116 13.7034C7.61124 17.0347 7.06285 20.4398 6.56214 23.9371C5.56074 30.9226 4.75007 38.2773 4.17784 46.1579C4.68649 38.6648 5.18719 31.2579 5.67995 23.9371C6.17271 16.6163 6.79263 9.31709 7.53971 2.03936L70.7953 2.96215C156.63 2.6484 241.035 2.03936 325.535 1.80866L167.694 0.78437L88.32 0.30452L48.216 0.138418L2.15118 0C2.15118 10.2614 1.93659 20.7351 1.81738 31.3748C0.887498 42.2637 1.29283 54.0016 1.67432 65.721C3.1049 81.9436 -1.11532 98.3692 0.29142 114.629L0.482165 118.32C0.482165 119.907 0.60138 121.513 0.672909 123.118L68.5541 122.592C88.9478 122.476 109.421 122.386 129.974 122.325C171.079 122.214 212.542 122.214 254.077 122.325C337.122 122.565 420.549 123.248 502.402 124.309C530.537 124.669 565.229 123.488 599.92 122.306C607.152 122.098 614.329 121.663 621.379 121.005C563.703 120.848 508.554 120.276 453.453 119.667C398.423 119.876 343.345 119.984 288.22 119.99Z" fill="#AAADB1"/>
<path opacity="0.9" d="M301 118.172C353.073 118.504 403.191 119.095 453.333 119.649C512.575 119.409 571.809 119.012 631.035 118.458C630.272 117.868 627.03 117.388 621.808 117.139C602.447 114.721 549.611 117.849 509.889 117.877C423.338 117.951 334.141 117.416 246.161 117.157L205.198 117.286C237.1 117.683 269.217 118.025 301 118.172Z" fill="#AAADB1"/>
<path opacity="0.9" d="M621.261 120.987C629.105 120.175 632.133 119.233 631.036 118.458C571.778 119.03 512.544 119.427 453.334 119.649C508.435 120.258 563.584 120.83 621.261 120.987Z" fill="#AAADB1"/>
<path opacity="0.9" d="M189.248 117.056H146.569L143.517 117.213L152.839 117.333L137.246 117.462L205.199 117.259L189.248 117.056Z" fill="#53605F"/>
<path opacity="0.9" d="M105.772 5.16874L108.561 5.12151H105.581C105.581 5.12151 105.748 5.14985 105.772 5.16874Z" fill="#53605F"/>
<path opacity="0.9" d="M88.1068 5.33374H90.0142C89.6952 5.20313 89.304 5.10218 88.8698 5.03844L78.355 4.98308C81.55 5.04767 84.8165 5.18609 88.1068 5.33374Z" fill="#53605F"/>
<path opacity="0.9" d="M296.877 120.295L288.222 119.99H246.306C263.123 120.119 279.98 120.221 296.877 120.295Z" fill="#53605F"/>
<path opacity="0.9" d="M14.5275 22.2392C14.1301 31.707 13.8599 41.1656 13.7168 50.6149C13.7168 61.5715 13.7168 72.5404 13.7168 83.5216C13.844 89.6366 13.9552 95.7578 14.0506 101.885L14.2652 111.113L14.3844 115.727V117.674H17.5317H25.4237L43.2822 117.591L37.7268 117.48C31.4083 117.554 24.9469 117.609 18.4139 117.646L24.1839 117.453L18.6046 117.379H15.5766C15.5766 112.866 15.7673 108.234 15.8865 103.537C15.7196 99.7073 15.6958 96.2007 16.1965 93.6169V92.0297C16.1011 76.8314 16.1011 63.534 15.8627 50.3289C15.5527 50.3289 15.2428 50.1074 14.9566 49.9321C15.2428 46.7946 15.5527 43.6756 15.8388 40.6119C15.8388 33.2296 15.8388 25.6997 16.1249 17.8467C15.5766 16.7671 14.5751 20.8458 14.1221 18.7695V18.0405C14.1221 19.4893 14.1221 20.9196 14.1221 22.3776C14.1698 22.3222 14.3367 22.2484 14.5275 22.2392Z" fill="#53605F"/>
<path opacity="0.9" d="M57.4908 117.416L49.3364 117.268H45.2354L37.9395 117.369L43.4949 117.48L57.4908 117.416Z" fill="#53605F"/>
<path opacity="0.9" d="M88.8693 4.37401L48.3361 3.89416L28.0218 3.62655L18.0077 3.4789L10.8548 3.34048L10.5448 5.51827L10.3779 8.39737C10.3779 10.2429 10.3779 12.0055 10.3779 13.8326V25.9673C11.4032 24.0017 12.6192 22.7744 14.0498 22.3776C14.0498 20.9196 14.0498 19.4893 14.0498 18.0405C14.0498 16.5917 14.0498 15.4198 14.0498 14.4047C14.0498 10.6028 14.169 5.10301 14.2405 4.70621L70.9393 4.93691C73.401 4.88212 75.8689 4.88212 78.3306 4.93691L88.8454 4.99228C87.6294 4.78003 86.4611 4.52165 88.8693 4.37401Z" fill="#53605F"/>
<path opacity="0.9" d="M327.634 1.80865C242.371 2.03012 157.275 2.62994 70.6772 2.97137L165.549 4.56779H172.702L169.531 4.61393L178.353 4.7708C179.521 4.58625 180.022 4.37401 179.592 4.11563C187.89 4.49397 208.8 4.21713 205.486 4.98305C205.153 5.05226 204.789 5.09611 204.413 5.11224H221.818C229.497 4.6965 237.24 4.48376 244.994 4.47551L248.427 4.52165C252.361 4.52165 256.605 4.57702 261.255 4.67853C264.545 3.90338 246.949 3.40508 252.671 3.21129C279.399 2.71299 286.195 3.73728 284.001 4.86308C325.393 4.47551 365.807 3.70037 404.742 2.39924L327.634 1.80865Z" fill="#7F8887"/>
<path opacity="0.9" d="M528.559 2.35311H529.751H527.128C498.135 2.54689 469.285 2.6484 440.673 2.59303L404.909 2.35311C365.973 3.65424 325.559 4.42938 284.167 4.81695C284.11 4.84686 284.047 4.87466 283.977 4.9C314.615 5.26912 343.584 5.5275 378.467 5.59209C399.425 5.31526 429.348 4.75236 448.088 4.99228C480.92 5.41676 508.435 5.4629 536.141 5.17684C549.994 5.02919 563.894 4.7985 578.534 4.49398L601.137 3.97721L624.98 3.34049H631.751C631.751 12.3654 631.894 21.1319 631.966 29.7046C632.109 38.6648 632.324 47.4406 632.657 56.1148C633.349 73.4632 634.565 90.4425 636.758 107.791C636.115 91.716 635.876 74.2383 635.757 56.327C635.638 38.4157 635.519 19.8861 635.399 1.93785L580.56 2.09473L528.559 2.35311Z" fill="#7F8887"/>
<path opacity="0.9" d="M202.457 5.2138L214.879 5.43527L221.77 5.13075H204.46L202.457 5.2138Z" fill="#53605F"/>
<path opacity="0.9" d="M16.4342 7.50226V5.72128C16.3162 5.63537 16.2433 5.54129 16.2196 5.44444C16.7843 5.43361 17.3494 5.46173 17.8886 5.52749H45.0936L45.6181 5.3983L48.3124 5.51826H64.8118C65.416 5.4238 65.9982 5.30957 66.5523 5.17683C68.0034 5.06857 69.4676 4.98849 70.9394 4.9369L14.2645 4.70621C14.2645 5.10301 14.1214 10.6028 14.0737 14.4047C14.4991 12.0875 15.2874 9.78248 16.4342 7.50226V7.50226Z" fill="#53605F"/>
<path opacity="0.9" d="M99.2871 4.47551C101.481 4.49693 103.634 4.71153 105.582 5.10301H108.562C115.906 5.01073 123.035 4.89076 129.854 4.75235L99.2871 4.47551Z" fill="#53605F"/>
<path opacity="0.9" d="M196.184 5.39833L210.299 5.6198L214.877 5.39833L202.454 5.17686C200.738 5.2876 198.544 5.33374 196.184 5.39833Z" fill="#53605F"/>
<path opacity="0.9" d="M14.5275 22.2392C14.3367 22.2392 14.1698 22.3222 14.0029 22.3776C13.9393 31.7901 13.844 41.2025 13.7168 50.6149C13.8599 41.1717 14.1301 31.7132 14.5275 22.2392Z" fill="#53605F"/>
<path opacity="0.9" d="M246.307 119.99H288.223C240.537 118.449 183.313 118.707 137.582 117.517C134.03 117.563 130.072 117.692 126.138 117.831C129.296 117.646 132.481 117.538 135.675 117.508H133.624L71.6323 117.674C128.927 118.671 187.271 119.52 246.307 119.99Z" fill="#53605F"/>
<path opacity="0.9" d="M288.219 119.99L296.874 120.295C279.946 120.233 263.089 120.132 246.303 119.99L127.446 119.87L9.39874 119.649C9.66896 96.0931 9.93918 72.3313 10.2094 48.3634C8.08737 61.5869 5.44079 73.9708 4.63013 88.6154C3.96252 68.9692 6.34683 50.412 8.34965 31.3287C8.01584 32.5837 7.70588 33.9587 7.41977 35.4074C6.46604 44.986 5.51232 54.4999 4.58244 63.8662C3.79562 79.1568 3.48566 95.241 2.19814 105.622C2.19814 108.049 2.03124 110.476 1.93586 112.922C1.93586 116.133 1.81665 119.381 1.74512 122.611H35.2923C44.5752 122.611 54.0012 122.559 63.5702 122.454C69.9363 122.371 78.5198 122.214 86.8648 122.26C93.7793 122.177 101.028 122.14 108.657 122.122C117.599 121.771 132.62 121.91 140.464 121.808C158.108 121.577 175.489 121.808 192.347 122.057L197.306 122.002C205.602 121.873 213.912 121.969 222.174 122.288L249.117 122.334H255.006L278.563 122.417C281.883 122.275 285.233 122.275 288.553 122.417C361.465 122.722 434.449 123.34 506.24 124.263C534.375 124.623 569.067 123.441 603.758 122.26C611.108 122.056 618.399 121.609 625.551 120.922C566.301 120.784 509.817 120.202 453.333 119.575C398.382 119.846 343.345 119.984 288.219 119.99Z" fill="#7F8887"/>
<path opacity="0.9" d="M3.67628 73.9892L3.104 73.6201C3.104 76.3146 3.104 79.0184 3.104 81.6853C3.26297 79.1322 3.45373 76.5669 3.67628 73.9892Z" fill="#53605F"/>
<path opacity="0.9" d="M71.583 117.665L133.575 117.499C124.586 117.499 114.954 117.37 106.418 117.185L57.5156 117.416L71.583 117.665Z" fill="#53605F"/>
<path opacity="0.9" d="M7.41977 35.4074C8.37349 26.0226 9.35105 16.5364 10.3048 7.03165V4.47553L9.75639 6.32111L9.23184 8.75727C8.89804 10.3906 8.56423 12.0424 8.23043 13.7034C7.61051 17.0347 7.06212 20.4398 6.56142 23.9371C5.56001 30.9226 4.74934 38.2773 4.17711 46.1579C4.68576 38.6648 5.18647 31.2579 5.67922 23.9371C6.17198 16.6163 6.7919 9.31709 7.53898 2.03937L70.7946 2.96215C157.393 2.64841 242.465 2.03937 327.751 1.79944C253.766 1.28268 180.95 0.784375 106.941 0.36912C103.398 0.375825 99.8915 0.64847 96.6166 1.17195C82.3108 0.747463 67.6235 0.507538 52.7931 0.36912C45.3779 0.304525 37.915 0.267613 30.4045 0.239929H2.74653C2.88958 8.54503 3.0088 16.8501 3.15186 25.2014C3.15186 32.9251 3.15186 40.6488 2.46041 48.3357C1.88818 49.3323 1.9597 46.8407 1.74512 45.8441C1.74512 49.1016 1.74512 52.3037 1.74512 55.5703C2.53194 60.8579 3.74794 66.3669 3.72409 73.011C3.98637 69.9843 4.27248 66.9483 4.53476 63.8754C5.13083 53.2818 5.91765 43.0758 7.41977 35.4074Z" fill="#AAADB1"/>
<path opacity="0.9" d="M4.17725 46.1579C4.84485 38.2773 5.65552 30.9226 6.56155 23.9371C7.06226 20.4398 7.61065 17.0347 8.23057 13.7034C8.56437 12.0424 8.89817 10.3906 9.23197 8.75726L9.73268 6.32109L10.2811 4.47552V3.13747L70.6994 2.97137L7.44374 2.04858C6.85562 9.27094 6.22775 16.5671 5.56014 23.9371C4.89254 31.3071 4.43157 38.714 4.17725 46.1579Z" fill="#53605F"/>
<path opacity="0.9" d="M4.58288 63.8662C4.32061 66.9391 4.03449 69.975 3.77221 73.0018V74.0261C3.56558 76.6037 3.35893 79.1691 3.15229 81.7221C3.00924 89.7873 2.62775 97.6956 2.29395 105.659C3.4861 95.2318 3.79606 79.1568 4.58288 63.8662Z" fill="#53605F"/>
<path opacity="0.9" d="M189.246 117.056L205.197 117.268L236.336 117.167H235.859L189.246 117.056Z" fill="#53605F"/>
<path opacity="0.9" d="M453.334 119.649C513.832 119.409 574.33 119 634.828 118.421C633.803 117.868 630.679 117.425 625.696 117.194C617.565 116.179 603.498 116.142 586.975 116.437C586.975 116.668 606.55 116.437 595.225 116.797C582.897 117.389 570.466 117.593 558.053 117.406L551.139 117.314L548.23 117.388C547.45 117.537 546.602 117.625 545.734 117.645C544.866 117.666 543.996 117.619 543.175 117.508C533.066 117.739 478.608 117.102 469.262 117.111L513.204 117.923L505.622 118.089L506.361 117.923H498.112C494.961 118.385 491.632 118.638 488.265 118.671L497.635 118.791C490.768 119.252 476.701 119.067 467.33 118.947C469.5 118.44 478.894 118.551 483.567 118.615L478.799 118.551C483.567 118.615 493.963 118.477 490.339 118.163C485.285 118.002 480.205 118.002 475.151 118.163C474.03 118.163 472.767 118.163 471.551 118.163H475.151C477.058 118.163 478.441 118.034 478.441 117.923H464.469C463.754 117.969 462.943 118.015 462.085 118.043L465.804 118.145L461.036 118.089H462.013C452.023 117.914 448.423 118.541 439.029 118.661C444.441 118.477 437.479 118.135 441.413 117.923H438.194C433.425 118.052 428.323 118.089 423.03 118.08C416.378 118.274 410.035 118.551 403.955 118.754C403.121 118.283 407.27 118.135 412.277 118.015L396.397 117.803C392.702 118.154 393.298 118.394 380.494 118.449C381.424 118.237 381.734 117.96 383.093 117.757L354.481 117.646L348.878 117.775C347.023 118.003 345.061 118.069 343.132 117.969C344.992 117.895 346.947 117.831 348.878 117.775L336.027 117.582L287.911 117.333C288.219 117.381 288.539 117.418 288.865 117.443L290.582 117.499C290.007 117.495 289.433 117.477 288.865 117.443C281.712 117.231 278.398 117.868 270.744 117.517L275.513 117.582C264.89 117.367 254.242 117.416 243.635 117.729C262.805 117.926 281.927 118.074 301.001 118.172C353.074 118.504 403.193 119.095 453.334 119.649Z" fill="#7F8887"/>
<path opacity="0.9" d="M235.05 117.637L241.607 117.416L236.337 117.185L205.198 117.286L235.05 117.637Z" fill="#53605F"/>
<path opacity="0.9" d="M137.246 117.489H137.866C139.44 117.489 140.966 117.489 142.372 117.489H137.699C183.43 118.68 240.749 118.412 288.34 119.962C343.481 119.962 398.518 119.849 453.453 119.621C403.382 119.067 353.312 118.477 301.119 118.145C282.045 118.052 262.923 117.905 243.753 117.702C239.199 117.785 234.669 117.84 230.162 117.785L235.17 117.609L205.318 117.259L137.246 117.489Z" fill="#53605F"/>
<path opacity="0.9" d="M625.552 120.996C633.421 120.166 636.234 119.15 634.827 118.421C574.266 119.037 513.768 119.446 453.334 119.649C509.818 120.276 566.302 120.858 625.552 120.996Z" fill="#7F8887"/>
<path opacity="0.9" d="M10.5921 3.55275V5.5552L10.9021 3.37742L18.055 3.51584L28.0214 3.66348L48.3118 3.93109L88.845 4.41094L89.6557 4.3648C92.8401 4.34133 96.0252 4.39372 99.1929 4.52168L129.76 4.80774L135.315 4.65086C139.392 4.5955 143.708 4.58627 148.167 4.65086C153.603 4.61395 159.397 4.61395 165.548 4.65086L70.6766 2.97139L10.2583 3.13749V4.47554L10.5921 3.55275Z" fill="#AAADB1"/>
<path opacity="0.9" d="M10.3057 8.3974L10.4729 5.5183L10.3057 7.03167V8.3974Z" fill="#53605F"/>
<path opacity="0.9" d="M4.6311 88.6154C5.37023 73.9707 8.08834 61.5869 10.2104 48.3634C10.2104 40.9134 10.2501 33.448 10.3296 25.9673C9.56661 27.4068 8.92285 29.2155 8.35062 31.3287C6.3478 50.4119 3.96349 68.9692 4.6311 88.6154Z" fill="#53605F"/>
<path opacity="0.9" d="M12.2616 32.2699C12.5001 46.3425 11.8563 61.2086 11.0933 76.1301C10.7357 83.5862 10.378 91.0608 10.0204 98.4523C9.87733 102.143 9.74222 105.813 9.61506 109.461C9.61506 112.894 9.55148 116.278 9.42432 119.612H32.0275C40.015 119.612 47.8832 119.547 55.6322 119.492C71.1063 119.372 86.0797 119.16 100.338 118.846C86.032 118.412 70.2718 118.043 54.2493 117.702L14.1452 117.803C14.0499 106.379 13.9068 94.9642 13.7161 83.5585C13.7161 72.5958 13.7161 61.6146 13.7161 50.615C13.7161 41.1841 13.7876 31.7593 13.9307 22.3407C12.5001 22.7375 11.2841 23.9648 10.2588 25.9304C10.2588 33.4173 10.2191 40.8826 10.1396 48.3265C11.0456 43.2327 11.7848 37.8897 12.2616 32.2699Z" fill="#7F8887"/>
<path opacity="0.9" d="M43.4961 117.48L25.6376 117.563H17.7456H14.5983V115.616L14.4791 111.002L14.2645 101.774C14.1532 95.6224 14.0419 89.5012 13.9307 83.4108C14.0578 94.8165 14.1691 106.234 14.2645 117.665L54.2493 117.711L43.4961 117.48Z" fill="#AAADB1"/>
<path opacity="0.9" d="M106.393 117.185L49.4561 117.268L57.6104 117.416L106.393 117.185Z" fill="#53605F"/>
<path opacity="0.9" d="M4.58105 63.8662C5.51093 54.4999 6.46466 44.9859 7.41838 35.4074C5.91627 43.0758 5.12945 53.2818 4.58105 63.8662Z" fill="#7F8887"/>
<path opacity="0.9" d="M71.5822 117.665L57.491 117.416L43.4951 117.48L54.2483 117.711L71.5822 117.665Z" fill="#53605F"/>
<path opacity="0.9" d="M164.404 4.78924L176.326 5.01071C176.978 4.95968 177.616 4.88554 178.233 4.78924L169.411 4.63237C167.289 4.67851 165.692 4.73388 164.404 4.78924Z" fill="#53605F"/>
<path opacity="0.9" d="M10.2817 4.47553V7.04088L10.449 5.52751V3.52505L10.2817 4.47553Z" fill="#53605F"/>
<path opacity="0.9" d="M7.42139 35.4074C7.7075 33.9586 8.01746 32.5837 8.35127 31.3287C9.13809 23.808 9.85338 16.195 10.3064 8.39739V7.03166C9.35268 16.5364 8.37511 26.0227 7.42139 35.4074Z" fill="#53605F"/>
<path opacity="0.9" d="M8.34912 31.3287C8.92135 29.2155 9.56511 27.4068 10.3281 25.9673V13.8326C10.3281 11.987 10.3281 10.2061 10.3281 8.39738C9.85123 16.1949 9.13594 23.8541 8.34912 31.3287Z" fill="#AAADB1"/>
<path opacity="0.9" d="M100.337 118.901C86.0315 119.215 71.1057 119.427 55.6316 119.547C47.8826 119.603 40.0144 119.649 32.027 119.667H9.42375C9.42375 116.314 9.48733 112.931 9.61449 109.517C9.75755 105.875 9.89266 102.205 10.0198 98.5077C10.3775 91.1254 10.7351 83.6415 11.0928 76.1854C11.8557 61.2639 12.4995 46.3978 12.2611 32.3253C11.7842 37.9451 11.0451 43.2419 10.2106 48.4187C9.95624 72.3743 9.68602 96.1361 9.3999 119.704L127.447 119.926L246.305 120.046C187.269 119.575 128.925 118.726 71.5826 117.72L54.2487 117.766C70.2712 118.052 85.9123 118.421 100.337 118.901Z" fill="#53605F"/>
</g>
</g>
<path d="M644.364 7.70529H17.292V125.822H644.364V7.70529Z" fill="white"/>
<g opacity="0.85">
<g opacity="0.9">
<path opacity="0.9" d="M643.766 96.6621C643.194 98.7753 642.55 100.584 641.787 102.023V114.158C641.787 116.004 641.787 117.785 641.787 119.593C642.264 111.796 642.979 104.183 643.766 96.6621Z" fill="#AAADB1"/>
<path opacity="0.9" d="M650.849 16.6378C648.727 25.9949 648.465 45.6503 647.535 64.1245C649.037 47.8466 650.325 31.9469 650.849 16.6378Z" fill="#AAADB1"/>
<path opacity="0.9" d="M515.325 10.5014C519.641 10.6121 523.837 10.7413 527.914 10.8797L594.675 10.5752L580.584 10.326L515.325 10.5014Z" fill="#AAADB1"/>
<path opacity="0.9" d="M639.857 95.7208C639.619 81.6483 640.263 66.7822 641.026 51.8607C641.383 44.4046 641.741 36.93 642.099 29.5385C642.242 25.8473 642.377 22.1777 642.504 18.5296C642.504 15.0968 642.568 11.7133 642.695 8.37892H620.092C612.104 8.37892 604.236 8.44352 596.487 8.49888C581.013 8.61885 566.039 8.83109 551.781 9.14484C566.206 9.57855 581.847 9.94766 597.87 10.2891L637.974 10.1876C638.069 21.624 638.181 33.042 638.308 44.4415C638.371 55.3981 638.403 66.3762 638.403 77.3758C638.403 86.8067 638.332 96.2315 638.189 105.65C639.619 105.253 640.835 104.026 641.86 102.06C641.86 94.5735 641.9 87.1082 641.98 79.6643C641.074 84.8043 640.334 90.1011 639.857 95.7208Z" fill="#AAADB1"/>
<path opacity="0.9" d="M608.622 10.5106L626.481 10.4275H634.373H637.52L637.639 12.3746L637.759 16.9885L637.973 26.2164C638.084 32.3684 638.196 38.4895 638.307 44.5799C638.196 33.1743 638.084 21.7563 637.973 10.326L597.869 10.2799L608.622 10.5106Z" fill="#AAADB1"/>
<path opacity="0.9" d="M647.486 39.3754C646.746 54.02 644.028 66.4039 641.906 79.6274C641.906 87.0774 641.867 94.5428 641.787 102.024C642.55 100.584 643.194 98.7753 643.766 96.6621C645.769 77.5788 648.153 59.0216 647.486 39.3754Z" fill="#AAADB1"/>
<path opacity="0.9" d="M647.537 64.1245C646.608 73.4908 645.654 83.0048 644.7 92.5833C646.202 84.915 646.989 74.7089 647.537 64.1245Z" fill="#AAADB1"/>
<path opacity="0.9" d="M638.402 77.3758C638.515 66.4131 638.515 55.4442 638.402 44.4692C638.402 55.4134 638.402 66.3823 638.402 77.3758Z" fill="#AAADB1"/>
<path opacity="0.9" d="M446.919 10.7044L466.733 10.935H504.5H514.252L527.985 10.8705C523.908 10.732 519.712 10.6028 515.396 10.4921L446.919 10.7044Z" fill="#AAADB1"/>
<path opacity="0.9" d="M355.244 7.69603L363.899 8.00055H405.815C389.014 7.87136 372.157 7.76985 355.244 7.69603Z" fill="#AAADB1"/>
<path opacity="0.9" d="M637.593 105.752C637.784 105.752 637.95 105.669 638.117 105.613C638.117 96.2007 638.189 86.7759 638.332 77.3389C638.237 86.8067 637.99 96.2776 637.593 105.752Z" fill="#AAADB1"/>
<path opacity="0.9" d="M363.898 8.0006C308.757 8.0006 253.72 8.11441 198.785 8.34203C248.856 8.8957 298.926 9.48629 351.118 9.81849C382.901 9.96614 415.018 10.3076 446.92 10.7413L515.326 10.5383C469.475 9.28327 411.728 9.55088 363.898 8.0006Z" fill="#AAADB1"/>
<path opacity="0.9" d="M580.535 10.326L597.869 10.2799C581.847 9.93842 566.206 9.56931 551.781 9.1356C566.087 8.82185 581.012 8.60961 596.486 8.48965C604.235 8.43428 612.104 8.38814 620.091 8.36968H642.694C642.694 11.7163 642.631 15.0999 642.504 18.5204C642.36 22.1684 642.225 25.8381 642.098 29.5292C641.741 36.9115 641.383 44.3953 641.025 51.8515C640.262 66.773 639.618 81.6391 639.857 95.7116C640.334 90.0918 641.073 84.795 641.907 79.6182C642.162 55.6626 642.432 31.9008 642.718 8.33277L524.671 8.16667L405.813 8.04671C464.849 8.47119 523.193 9.32016 580.535 10.326Z" fill="#AAADB1"/>
<path opacity="0.9" d="M515.328 10.5014L580.538 10.326C523.315 9.32018 464.852 8.48045 405.816 8.0006H363.9C411.73 9.55088 469.477 9.28327 515.328 10.5014Z" fill="#AAADB1"/>
<path opacity="0.9" d="M580.537 10.326L594.628 10.5752L608.624 10.5106L597.871 10.2799L580.537 10.326Z" fill="#AAADB1"/>
<path opacity="0.9" d="M641.645 122.472L641.812 119.593C641.812 117.748 641.812 115.985 641.812 114.158V102.023C640.787 103.989 639.571 105.216 638.14 105.613C638.14 109 638.14 112.386 637.997 115.764V120.811V123.294L538.118 122.842C531.156 122.934 524.417 123.051 517.899 123.192C538.961 123.358 560.07 123.568 581.227 123.82L612.914 124.226L628.746 124.438C634.754 124.512 637.353 124.586 641.526 124.66L641.645 122.472Z" fill="#AAADB1"/>
<path opacity="0.9" d="M594.627 10.5752L605.523 10.7689H621.212L608.623 10.5106L594.627 10.5752Z" fill="#AAADB1"/>
<path opacity="0.9" d="M527.914 10.8797H528.558L605.523 10.7413L594.627 10.5475L527.914 10.8797Z" fill="#AAADB1"/>
<path opacity="0.9" d="M637.593 105.752C637.99 96.2838 638.236 86.8129 638.332 77.3389C638.332 66.3885 638.332 55.4196 638.332 44.4323C638.22 38.3173 638.109 32.1961 637.998 26.0688L637.783 16.8871L637.664 12.2731L637.545 10.326H634.398H626.506L608.647 10.4091L621.236 10.6675H636.424C636.424 14.4878 636.353 18.3666 636.21 22.3038C636.067 27.2808 635.916 32.3376 635.757 37.4745C635.924 68.2126 636.71 91.6699 635.566 121.55V122.288H592.887C574.575 122.288 555.692 122.436 538.048 122.676L637.926 123.128V120.645V115.598C637.926 112.23 637.926 108.843 638.069 105.447C637.95 105.669 637.783 105.742 637.593 105.752Z" fill="#AAADB1"/>
<path opacity="0.9" d="M326.702 126.173C411.202 125.951 495.607 125.333 581.442 125.019L455.407 122.878H425.222C417.931 123.283 410.579 123.498 403.215 123.524L372.576 123.137C329.802 123.506 287.981 124.281 247.806 125.619L326.702 126.173Z" fill="#AAADB1"/>
<path opacity="0.9" d="M471.501 122.925C460.82 122.712 449.613 122.482 438.121 122.334L433.877 122.491L455.622 122.879L471.501 122.925Z" fill="#AAADB1"/>
<path opacity="0.9" d="M207.583 125.361L247.806 125.628C287.982 124.29 329.802 123.515 372.577 123.146C338.767 122.731 307.747 122.426 269.813 122.362C248.855 122.629 240.057 124.687 221.34 124.447C190.344 124.05 155.581 123.441 120.436 123.109C102.864 122.943 85.1963 122.851 67.9816 122.879C59.3266 122.879 50.7431 122.934 42.3026 123.026L29.7374 123.183H28.1637H27.4723L26.304 123.238L23.7051 123.358L23.252 122.592L23.0613 122.131V121.882C23.0613 121.836 23.0613 121.817 23.0613 121.743V121.467C20.8677 85.1549 19.4133 38.3419 14.6924 7.70528C15.36 29.6953 16.0037 50.3473 16.5998 69.9381C17.1959 89.5289 17.6012 107.846 18.0781 125.518L114.523 125.361C146.091 125.278 176.968 125.287 207.583 125.361Z" fill="#AAADB1"/>
<path opacity="0.9" d="M433.661 122.491L425.221 122.869H455.406L433.661 122.491Z" fill="#AAADB1"/>
<path opacity="0.9" d="M446.919 10.7043L405.957 10.8335L466.733 10.935L446.919 10.7043Z" fill="#AAADB1"/>
<path opacity="0.9" d="M641.837 123.515V120.95L641.67 122.463L641.551 124.466L641.837 123.515Z" fill="#AAADB1"/>
<path opacity="0.9" d="M648.061 81.8328C647.393 89.7134 646.582 97.0681 645.676 104.054C645.176 107.551 644.627 110.956 644.007 114.287C643.674 115.948 643.34 117.6 643.006 119.233L642.481 121.67C642.314 122.288 642.124 122.906 641.933 123.515C641.933 123.958 641.933 124.438 641.933 124.844L581.515 125.01L644.77 125.933C645.39 118.711 646.01 111.411 646.63 104.035C647.25 96.659 647.727 89.2582 648.061 81.8328Z" fill="#AAADB1"/>
<path opacity="0.9" d="M641.526 124.438L641.645 122.436L641.335 124.613C637.163 124.54 634.564 124.466 628.555 124.392L612.723 124.18L581.036 123.774C559.879 123.528 538.77 123.318 517.709 123.146L512.94 123.257C500.637 123.414 486.594 123.183 471.406 122.888L455.431 122.842L581.465 124.982L641.883 124.816C641.883 124.373 641.883 123.894 641.883 123.488L641.526 124.438Z" fill="#AAADB1"/>
<path opacity="0.9" d="M644.698 92.5834C644.411 94.0322 644.101 95.4071 643.768 96.6621C642.981 104.183 642.266 111.796 641.812 119.593V120.959C642.766 111.454 643.744 101.968 644.698 92.5834Z" fill="#AAADB1"/>
<path opacity="0.9" d="M641.813 119.593L641.646 122.472L641.813 120.959V119.593Z" fill="#AAADB1"/>
<path opacity="0.9" d="M363.899 8.00058L355.244 7.69606C372.173 7.76373 389.03 7.86523 405.815 8.00058L524.673 8.16668L642.72 8.38815C642.45 31.95 642.18 55.7118 641.909 79.6736C644.031 66.45 646.678 54.0662 647.489 39.4215C648.156 59.0677 645.772 77.625 643.769 96.7082C644.103 95.4532 644.413 94.0783 644.699 92.6295C645.653 83.051 646.606 73.537 647.536 64.1707C648.49 45.7149 648.728 26.0411 650.851 16.684C650.278 31.9931 649.038 47.8927 647.536 64.1707C646.988 74.7551 646.201 84.9611 644.699 92.6295C643.745 102.014 642.768 111.501 641.814 121.005V123.515C642.005 122.897 642.195 122.279 642.362 121.67L642.887 119.234C643.221 117.6 643.554 115.948 643.888 114.287C644.508 110.956 645.057 107.551 645.557 104.054C646.559 97.0681 647.369 89.7135 647.942 81.8329C647.433 89.3259 646.932 96.7329 646.439 104.054C645.947 111.374 645.327 118.674 644.58 125.951L581.324 125.029C495.489 125.342 411.085 125.951 326.585 126.182L484.307 127.262L563.68 127.695L603.784 127.862L649.849 128C649.849 117.739 650.064 107.265 650.183 96.6252C651.113 85.7363 650.707 73.9984 650.326 62.279C648.895 46.0564 653.116 29.6307 651.709 13.4173C651.709 12.19 651.566 10.9627 651.518 9.72619C651.518 8.139 651.399 6.53334 651.327 4.92769L583.565 5.39831C563.172 5.52135 542.698 5.61055 522.146 5.66592C481.04 5.77666 439.577 5.77666 398.043 5.66592C314.997 5.426 231.57 4.74313 149.717 3.68193C121.582 3.32204 86.8906 4.50321 52.199 5.68438C44.967 5.89296 37.7906 6.32809 30.7402 6.98551C88.4166 7.14238 143.566 7.71451 198.667 8.32355C253.713 8.11439 308.79 8.00673 363.899 8.00058Z" fill="#AAADB1"/>
<path opacity="0.9" d="M351.119 9.81846C299.045 9.48625 248.927 8.89567 198.785 8.342C139.527 8.58192 80.2933 8.97872 21.083 9.53239C21.846 10.123 25.0886 10.6028 30.3103 10.852C49.6708 13.2697 102.507 10.1414 142.23 10.1138C228.78 10.0399 317.977 10.5751 405.958 10.8335L446.92 10.7043C415.018 10.3075 382.901 10.0122 351.119 9.81846Z" fill="#AAADB1"/>
<path opacity="0.9" d="M30.8585 7.00395C23.0141 7.81601 19.9861 8.75725 21.0828 9.53239C80.3249 8.96026 139.559 8.56346 198.785 8.342C143.684 7.73295 88.5349 7.16083 30.8585 7.00395Z" fill="#AAADB1"/>
<path opacity="0.9" d="M638.402 77.3758C638.515 66.4131 638.515 55.4442 638.402 44.4692C638.402 55.4134 638.402 66.3823 638.402 77.3758Z" fill="#53605F"/>
<path opacity="0.9" d="M462.87 10.935H505.549L508.601 10.7782L499.278 10.6582L514.872 10.529L446.919 10.732L462.87 10.935Z" fill="#53605F"/>
<path opacity="0.9" d="M546.343 122.823L543.554 122.87H546.534C546.534 122.87 546.367 122.842 546.343 122.823Z" fill="#53605F"/>
<path opacity="0.9" d="M564.013 122.657H562.105C562.424 122.788 562.816 122.889 563.25 122.952L573.765 123.008C570.57 122.943 567.303 122.805 564.013 122.657Z" fill="#53605F"/>
<path opacity="0.9" d="M355.244 7.69603L363.899 8.00055H405.815C389.014 7.87136 372.157 7.76985 355.244 7.69603Z" fill="#53605F"/>
<path opacity="0.9" d="M637.592 105.752C637.989 96.2838 638.236 86.8129 638.331 77.3389C638.331 66.3885 638.331 55.4196 638.331 44.4323C638.22 38.3173 638.109 32.1961 637.997 26.0688L637.783 16.8871L637.664 12.2731L637.544 10.326H634.397H626.505L608.646 10.4091L614.202 10.5198C620.52 10.446 626.982 10.3906 633.515 10.3537L627.745 10.5475L633.324 10.6213H636.567C636.567 15.1338 636.376 19.7662 636.257 24.4632C636.424 28.2927 636.448 31.8455 635.947 34.3831C635.947 34.9184 635.947 35.4444 635.947 35.9703C636.09 51.0395 636.209 64.3553 636.328 77.542C636.638 77.542 636.948 77.7634 637.234 77.9388C636.948 81.0762 636.638 84.1953 636.352 87.2589C636.352 94.6412 636.352 102.171 636.066 110.024C636.614 111.104 637.616 107.025 638.069 109.101V109.83C638.069 108.382 638.069 106.951 638.069 105.493C637.95 105.669 637.783 105.742 637.592 105.752Z" fill="#53605F"/>
<path opacity="0.9" d="M594.627 10.5752L602.781 10.7228H606.882L614.178 10.6213L608.623 10.5106L594.627 10.5752Z" fill="#53605F"/>
<path opacity="0.9" d="M563.249 123.617L603.782 124.097L624.073 124.364L634.039 124.512L641.192 124.65C641.192 123.921 641.407 123.192 641.502 122.472L641.669 119.593C641.669 117.748 641.669 115.985 641.669 114.158V102.023C640.644 103.989 639.428 105.216 637.997 105.613C637.997 107.071 637.997 108.501 637.997 109.95C637.997 111.399 637.997 112.571 637.997 113.586C637.997 117.388 637.878 122.888 637.806 123.285L581.179 123.054C578.717 123.109 576.249 123.109 573.788 123.054L563.273 122.998C564.489 123.211 565.657 123.515 563.249 123.617Z" fill="#53605F"/>
<path opacity="0.9" d="M324.486 126.182C409.748 125.961 494.844 125.333 581.442 125.019L486.571 123.423H479.418H482.589L473.767 123.266C472.599 123.451 472.098 123.663 472.527 123.921C464.23 123.543 443.319 123.82 446.634 123.054C446.967 122.985 447.331 122.941 447.707 122.925H430.301C422.603 123.363 414.835 123.598 407.054 123.626L403.621 123.58C399.687 123.58 395.443 123.524 390.793 123.423C387.503 124.198 405.099 124.696 399.377 124.89C372.649 125.389 365.853 124.364 368.047 123.238C326.655 123.626 286.241 124.401 247.306 125.702L324.486 126.182Z" fill="#7F8887"/>
<path opacity="0.9" d="M123.559 125.638H122.367H124.99C153.983 125.444 182.833 125.342 211.444 125.398L247.209 125.638C286.145 124.336 326.559 123.561 367.95 123.174C368.007 123.144 368.071 123.116 368.141 123.091C337.503 122.722 308.533 122.463 273.651 122.399C252.693 122.675 222.77 123.238 204.029 122.998C171.197 122.574 143.683 122.528 115.977 122.814C102.124 122.962 88.2236 123.192 73.584 123.497L50.9807 124.013L27.1377 124.65H20.3186C20.3186 115.625 20.1755 106.859 20.104 98.2861C19.9609 89.3259 19.7463 80.5502 19.4125 71.8759C18.7211 54.5275 17.5051 37.5482 15.3115 20.1998C15.9553 36.2748 16.1937 53.7524 16.3129 71.6637C16.4321 89.575 16.5514 108.105 16.6706 126.053L71.5096 125.896L123.559 125.638Z" fill="#7F8887"/>
<path opacity="0.9" d="M449.661 122.777L437.239 122.555L430.349 122.86H447.659L449.661 122.777Z" fill="#53605F"/>
<path opacity="0.9" d="M635.685 120.489V122.27C635.803 122.355 635.876 122.45 635.899 122.546C635.335 122.557 634.77 122.529 634.23 122.463H607.025L606.501 122.592L603.807 122.473L587.307 122.519C586.703 122.613 586.121 122.727 585.567 122.86C584.097 122.95 582.617 123.012 581.132 123.045L637.807 123.275C637.807 122.879 637.95 117.379 637.998 113.577C637.589 115.897 636.817 118.205 635.685 120.489V120.489Z" fill="#53605F"/>
<path opacity="0.9" d="M552.831 123.515C550.637 123.494 548.485 123.279 546.537 122.888H543.557C536.213 122.98 529.084 123.1 522.265 123.238L552.831 123.515Z" fill="#53605F"/>
<path opacity="0.9" d="M455.93 122.592L441.815 122.371L437.237 122.546L449.659 122.768C451.376 122.703 453.57 122.657 455.93 122.592Z" fill="#53605F"/>
<path opacity="0.9" d="M637.593 105.752C637.784 105.752 637.95 105.669 638.117 105.613C638.117 96.2007 638.189 86.7759 638.332 77.3389C638.237 86.8067 637.99 96.2776 637.593 105.752Z" fill="#53605F"/>
<path opacity="0.9" d="M405.816 8.0006H363.9C411.587 9.54165 468.81 9.28327 514.541 10.4737C518.093 10.4275 522.051 10.2983 525.986 10.1599C522.827 10.3447 519.642 10.4526 516.448 10.4829H518.499L580.491 10.3168C523.196 9.32018 464.852 8.47122 405.816 8.0006Z" fill="#53605F"/>
<path opacity="0.9" d="M363.898 7.99993L355.243 7.69541C372.171 7.76308 389.029 7.86459 405.814 7.99993L524.672 8.16603L642.719 8.3875C642.448 31.9494 642.178 55.7112 641.908 79.6729C644.03 66.4493 646.677 54.0655 647.487 39.4209C648.155 59.067 645.771 77.6243 643.768 96.7076C644.102 95.4526 644.412 94.0776 644.698 92.6289C645.651 83.0503 646.605 73.5364 647.535 64.1701C648.322 48.8795 648.632 32.7953 649.919 22.4139C649.919 19.987 650.086 17.56 650.182 15.1146C650.182 11.9033 650.301 8.65511 650.372 5.42535H616.944C607.677 5.42535 598.251 5.47764 588.666 5.58222C582.3 5.66527 573.717 5.82215 565.372 5.77601C558.457 5.85906 551.209 5.89597 543.579 5.91443C534.638 6.26509 519.617 6.12667 511.773 6.22817C494.129 6.45887 476.747 6.22817 459.89 5.97902L454.931 6.03439C446.634 6.1629 438.325 6.06731 430.062 5.74832L403.12 5.70218H397.231L373.674 5.61913C370.354 5.7613 367.003 5.7613 363.683 5.61913C290.771 5.31461 217.788 4.69634 145.996 3.77356C117.861 3.41367 83.1698 4.59484 48.4781 5.77601C41.1284 5.97985 33.8374 6.42751 26.6855 7.11405C85.9356 7.25247 142.42 7.83383 198.904 8.46132C253.791 8.15988 308.789 8.00608 363.898 7.99993Z" fill="#7F8887"/>
<path opacity="0.9" d="M648.44 54.0016L649.013 54.3707C649.013 51.6762 649.013 48.9724 649.013 46.3055C648.854 48.8647 648.663 51.4301 648.44 54.0016Z" fill="#53605F"/>
<path opacity="0.9" d="M580.535 10.326L518.543 10.4922C527.532 10.4922 537.164 10.6213 545.7 10.8059L594.602 10.5752L580.535 10.326Z" fill="#53605F"/>
<path opacity="0.9" d="M644.698 92.5833C643.744 101.968 642.766 111.454 641.813 120.959V123.515C642.003 122.897 642.194 122.279 642.361 121.67L642.886 119.233C643.219 117.6 643.553 115.948 643.887 114.287C644.507 110.956 645.055 107.551 645.556 104.054C646.557 97.0681 647.368 89.7135 647.94 81.8328C647.432 89.3259 646.931 96.7328 646.438 104.054C645.945 111.374 645.325 118.674 644.578 125.951L581.323 125.029C494.725 125.342 409.653 125.951 324.366 126.191C398.28 126.717 471.049 127.252 545.058 127.631C548.601 127.624 552.107 127.351 555.382 126.828C569.687 127.252 584.375 127.492 599.205 127.631C606.62 127.695 614.083 127.732 621.594 127.76H649.252C649.109 119.501 648.989 111.15 648.846 102.845C648.846 95.121 648.846 87.3973 649.538 79.7104C650.11 78.7138 650.038 81.2053 650.253 82.202C650.253 78.9445 650.253 75.7424 650.253 72.4758C649.466 67.1882 648.25 61.6791 648.274 55.0351C648.012 58.0618 647.726 61.0978 647.463 64.1707C646.987 74.7089 646.2 84.915 644.698 92.5833Z" fill="#AAADB1"/>
<path opacity="0.9" d="M648.061 81.8328C647.393 89.7134 646.582 97.0681 645.676 104.054C645.176 107.551 644.627 110.956 644.007 114.287C643.674 115.948 643.34 117.6 643.006 119.233L642.481 121.67C642.314 122.288 642.124 122.906 641.933 123.515C641.933 123.958 641.933 124.438 641.933 124.844L581.515 125.01L644.77 125.933C645.39 118.711 646.01 111.411 646.63 104.035C647.25 96.659 647.727 89.2582 648.061 81.8328Z" fill="#53605F"/>
<path opacity="0.9" d="M647.535 64.1245C647.797 61.0517 648.084 58.0157 648.346 54.9889V53.9646C648.568 51.387 648.775 48.8216 648.966 46.2686C649.109 38.2034 649.49 30.2951 649.824 22.3315C648.632 32.759 648.322 48.8339 647.535 64.1245Z" fill="#53605F"/>
<path opacity="0.9" d="M462.869 10.9351L446.918 10.7228L415.779 10.8243H416.256L462.869 10.9351Z" fill="#53605F"/>
<path opacity="0.9" d="M198.785 8.342C138.287 8.58192 77.7893 8.99102 17.2915 9.5693C18.3168 10.123 21.4402 10.5659 26.4234 10.7966C34.5539 11.8117 48.6213 11.8486 65.1445 11.5533C65.1445 11.3226 45.5694 11.5533 56.8948 11.1934C69.2223 10.6017 81.6535 10.398 94.0661 10.5844L100.981 10.6767L103.889 10.6028C104.669 10.4536 105.518 10.3662 106.386 10.3456C107.254 10.325 108.123 10.3717 108.944 10.4829C119.054 10.2522 173.511 10.8889 182.858 10.8797L138.915 10.0676L146.497 9.90151L145.758 10.0676H154.008C157.158 9.60587 160.487 9.35317 163.855 9.32015L154.389 9.19096C161.256 8.72957 175.323 8.91412 184.694 9.03409C182.524 9.54162 173.13 9.43089 168.456 9.36629L173.225 9.43089C168.456 9.36629 158.061 9.50471 161.685 9.81846C166.739 9.97903 171.819 9.97903 176.873 9.81846C177.994 9.81846 179.257 9.81846 180.473 9.81846H176.873C174.966 9.81846 173.583 9.94765 173.583 10.0584H187.555C188.27 10.0584 189.081 9.9661 189.939 9.93842L186.22 9.83691L190.988 9.89228L190.011 9.93842C200.001 10.1137 203.601 9.48625 212.995 9.36629C207.583 9.55085 214.545 9.89228 210.611 10.1045H213.83C218.598 9.97533 223.701 9.93842 228.994 9.94765C235.646 9.75386 241.988 9.47703 248.068 9.27401C248.903 9.74463 244.754 9.89228 239.747 10.0122L255.627 10.2245C259.322 9.87382 258.726 9.6339 271.53 9.57853C270.6 9.79077 270.29 10.0676 268.931 10.2706L297.543 10.3814L303.146 10.2522C305.001 10.0245 306.963 9.95836 308.892 10.0584C307.032 10.1322 305.077 10.1968 303.146 10.2522L315.997 10.446L364.256 10.6305C363.948 10.582 363.628 10.5449 363.302 10.5198L361.585 10.4644C362.16 10.468 362.733 10.4865 363.302 10.5198C370.455 10.732 373.769 10.0953 381.423 10.446L376.654 10.3814C387.277 10.5965 397.925 10.5471 408.532 10.2337C389.362 10.0369 370.24 9.8892 351.166 9.79077C299.045 9.48625 248.927 8.89567 198.785 8.342Z" fill="#7F8887"/>
<path opacity="0.9" d="M417.067 10.3537L410.51 10.5751L415.779 10.8058L446.918 10.7043L417.067 10.3537Z" fill="#53605F"/>
<path opacity="0.9" d="M514.871 10.5013H514.251C512.677 10.5013 511.151 10.5013 509.745 10.5013H514.513C468.782 9.31092 411.464 9.57853 363.873 8.02824C308.732 8.02824 253.694 8.14205 198.76 8.36968C248.83 8.92335 298.901 9.51393 351.093 9.84614C370.167 9.93842 389.29 10.0861 408.459 10.2891C413.013 10.206 417.544 10.1507 422.05 10.206L417.043 10.3814L446.894 10.732L514.871 10.5013Z" fill="#53605F"/>
<path opacity="0.9" d="M26.5662 6.99472C18.698 7.82523 15.8845 8.79416 17.2913 9.5693C77.8526 8.95411 138.35 8.545 198.785 8.34199C142.3 7.7145 85.8162 7.13314 26.5662 6.99472Z" fill="#7F8887"/>
<path opacity="0.9" d="M641.528 124.438L641.647 122.436C641.647 123.155 641.432 123.884 641.337 124.613L634.184 124.475L624.217 124.327L603.927 124.06L563.394 123.58H562.583C559.399 123.603 556.214 123.551 553.046 123.423L522.479 123.137L517.019 123.257C512.942 123.312 508.626 123.321 504.168 123.303C498.731 123.34 492.938 123.34 486.786 123.303L581.658 124.899L642.076 124.733C642.076 124.29 642.076 123.811 642.076 123.405L641.528 124.438Z" fill="#AAADB1"/>
<path opacity="0.9" d="M641.813 119.593L641.646 122.472L641.813 120.959V119.593Z" fill="#53605F"/>
<path opacity="0.9" d="M647.486 39.3754C646.746 54.02 644.028 66.4039 641.906 79.6274C641.906 87.0774 641.867 94.5428 641.787 102.024C642.55 100.584 643.194 98.7753 643.766 96.6621C645.769 77.5788 648.153 59.0216 647.486 39.3754Z" fill="#53605F"/>
<path opacity="0.9" d="M639.857 95.7208C639.619 81.6483 640.263 66.7822 641.026 51.8607C641.383 44.4046 641.741 36.93 642.099 29.5385C642.242 25.8473 642.377 22.1777 642.504 18.5296C642.504 15.0968 642.568 11.7133 642.695 8.37892H620.092C612.104 8.37892 604.236 8.44352 596.487 8.49888C581.013 8.61885 566.039 8.83109 551.781 9.14484C566.206 9.57855 581.847 9.94766 597.87 10.2891L637.974 10.1876C638.069 21.624 638.181 33.042 638.308 44.4415C638.371 55.3981 638.403 66.3762 638.403 77.3758C638.403 86.8067 638.332 96.2315 638.189 105.65C639.619 105.253 640.835 104.026 641.86 102.06C641.86 94.5735 641.9 87.1082 641.98 79.6643C641.074 84.8043 640.334 90.1011 639.857 95.7208Z" fill="#7F8887"/>
<path opacity="0.9" d="M608.622 10.5106L626.481 10.4275H634.373H637.52L637.639 12.3746L637.759 16.9885L637.973 26.2164C638.084 32.3684 638.196 38.4895 638.307 44.5799C638.196 33.1743 638.084 21.7563 637.973 10.326L597.869 10.2799L608.622 10.5106Z" fill="#AAADB1"/>
<path opacity="0.9" d="M545.725 10.8058H545.844L602.781 10.7228L594.627 10.5751L545.725 10.8058Z" fill="#53605F"/>
<path opacity="0.9" d="M647.537 64.1245C646.608 73.4908 645.654 83.0048 644.7 92.5833C646.202 84.915 646.989 74.7089 647.537 64.1245Z" fill="#7F8887"/>
<path opacity="0.9" d="M580.537 10.326L594.628 10.5752L608.624 10.5106L597.871 10.2799L580.537 10.326Z" fill="#53605F"/>
<path opacity="0.9" d="M487.716 123.201L475.794 122.98C475.142 123.031 474.504 123.105 473.887 123.201L482.709 123.358C484.831 123.312 486.428 123.257 487.716 123.201Z" fill="#53605F"/>
<path opacity="0.9" d="M641.837 123.515V120.95L641.67 122.463L641.551 124.466L641.837 123.515Z" fill="#53605F"/>
<path opacity="0.9" d="M644.698 92.5834C644.411 94.0322 644.101 95.4071 643.768 96.6621C642.981 104.183 642.266 111.796 641.812 119.593V120.959C642.766 111.454 643.744 101.968 644.698 92.5834Z" fill="#53605F"/>
<path opacity="0.9" d="M643.766 96.6621C643.194 98.7753 642.55 100.584 641.787 102.023V114.158C641.787 116.004 641.787 117.785 641.787 119.593C642.264 111.796 642.979 104.183 643.766 96.6621Z" fill="#AAADB1"/>
<path opacity="0.9" d="M551.781 9.1356C566.087 8.82185 581.012 8.60961 596.486 8.48965C604.235 8.43428 612.104 8.38814 620.091 8.36968H642.694C642.694 11.7163 642.631 15.0999 642.504 18.5204C642.36 22.1684 642.225 25.8381 642.098 29.5292C641.741 36.9115 641.383 44.3953 641.025 51.8515C640.262 66.773 639.618 81.6391 639.857 95.7116C640.334 90.0918 641.073 84.795 641.907 79.6182C642.162 55.6626 642.432 31.9008 642.718 8.33277L524.671 8.16667L405.813 8.04671C464.849 8.51733 523.193 9.36629 580.535 10.3721L597.869 10.326C581.847 9.93842 566.206 9.56931 551.781 9.1356Z" fill="#53605F"/>
</g>
</g>
</svg>
