<svg width="311" height="40" viewBox="0 0 311 40" fill="none" xmlns="http://www.w3.org/2000/svg">
<g clip-path="url(#clip0)">
<path d="M63.3774 1.65847C78.8402 1.64949 100.421 1.47538 124.4 1.28192C150.6 1.07054 179.664 0.83606 206.741 0.768615C232.684 0.703995 256.815 0.792545 274.898 1.20092C283.94 1.40515 291.461 1.68916 296.935 2.07311C299.674 2.2652 301.888 2.48143 303.518 2.72295C304.335 2.84383 304.991 2.9691 305.489 3.09707C306.009 3.2311 306.278 3.34956 306.381 3.42067C307.885 4.46296 308.921 6.65707 309.538 9.6664C310.147 12.6373 310.313 16.2272 310.23 19.8317C310.064 27.0407 308.908 34.1571 308.446 36.1666C308.246 37.0374 307.846 37.6262 307.301 38.0491C306.74 38.4849 305.978 38.7798 305.009 38.9664C303.412 39.2737 301.452 39.2586 299.252 39.2416C298.733 39.2375 298.201 39.2334 297.657 39.2334C297.008 39.2334 292.724 39.2326 285.657 39.2312C232.169 39.2208 19.2628 39.1794 16.5276 39.2336C14.9912 39.264 11.2923 39.2759 7.99683 38.4687C6.34687 38.0646 4.86475 37.4704 3.80892 36.6243C2.77909 35.7989 2.15942 34.7428 2.15942 33.3267C2.15942 31.5998 1.95624 29.5312 1.70878 27.3298C1.65145 26.8199 1.5917 26.3024 1.53128 25.7791C1.32907 24.0279 1.11931 22.2111 0.967628 20.3922C0.57053 15.6301 0.597634 11.072 2.08678 7.9393C2.36437 7.35534 2.58549 6.79377 2.77563 6.3109C2.86233 6.09072 2.94258 5.88691 3.01881 5.70479C3.27496 5.09281 3.51281 4.6476 3.86623 4.27891C4.56797 3.54683 5.90134 2.93799 9.39185 2.51996C16.3364 1.68827 30.9681 1.67729 63.3774 1.65847Z" fill="white" stroke="#0D3FD2" stroke-width="1.5"/>
</g>
<path d="M47.33 28.6475C47.218 28.7595 46.874 28.8155 46.298 28.8155C45.898 28.8955 45.426 28.8315 44.882 28.6235L44.378 28.4555L43.634 28.0955C43.57 28.0955 43.53 28.0955 43.514 28.0955C43.498 28.1115 43.458 28.0955 43.394 28.0475C43.298 27.9675 43.186 27.9035 43.058 27.8555C42.738 27.6315 42.514 27.4315 42.386 27.2555C41.874 26.4395 41.618 25.7595 41.618 25.2155C41.618 25.1515 41.698 25.0315 41.858 24.8555C42.178 24.4715 42.578 24.2795 43.058 24.2795C43.25 24.2955 43.402 24.3595 43.514 24.4715L44.306 25.5035C44.434 25.6315 44.578 25.7595 44.738 25.8875L45.05 26.2235L45.53 26.6315C45.594 26.6635 45.658 26.6795 45.722 26.6795C45.786 26.7115 45.962 26.7515 46.25 26.7995C46.57 26.7195 46.842 26.6315 47.066 26.5355C47.21 26.3915 47.338 26.2795 47.45 26.1995L47.786 25.8155C47.818 25.7835 47.874 25.6555 47.954 25.4315C47.954 25.2235 47.954 25.0875 47.954 25.0235C47.97 24.9435 47.946 24.7435 47.882 24.4235C47.866 24.3755 47.754 24.2475 47.546 24.0395C47.45 23.8475 47.314 23.6395 47.138 23.4155C47.042 23.3195 46.578 23.0635 45.746 22.6475L45.29 22.3835L44.858 21.9995C44.65 21.9355 44.354 21.7195 43.97 21.3515C43.81 21.2395 43.69 21.1515 43.61 21.0875C43.514 21.0555 43.25 20.7835 42.818 20.2715C42.818 20.2395 42.682 19.9355 42.41 19.3595L42.194 18.4235L42.29 17.7995C42.194 17.3835 42.162 17.0715 42.194 16.8635C42.258 16.7675 42.338 16.5755 42.434 16.2875C42.386 16.0475 42.602 15.5755 43.082 14.8715C43.082 14.7755 43.434 14.3915 44.138 13.7195L44.954 13.2875L45.338 13.1195C45.482 13.1035 45.674 13.0795 45.914 13.0475C46.17 13.0155 46.546 13.0155 47.042 13.0475C47.538 13.0795 47.85 13.1435 47.978 13.2395C48.09 13.2875 48.41 13.5035 48.938 13.8875C49.642 14.5115 50.026 15.0715 50.09 15.5675C50.362 16.3835 50.378 17.2555 50.138 18.1835C50.138 18.2475 49.914 18.3755 49.466 18.5675L48.866 18.5435C48.354 18.4795 47.866 18.2155 47.402 17.7515C47.274 17.6715 47.178 17.4475 47.114 17.0795C47.098 16.6955 47.018 16.4635 46.874 16.3835C46.858 16.3675 46.794 16.2235 46.682 15.9515C46.41 15.5995 46.226 15.4235 46.13 15.4235C46.05 15.4235 45.954 15.4475 45.842 15.4955C45.266 15.9595 44.962 16.4795 44.93 17.0555C44.818 17.5195 44.962 18.0875 45.362 18.7595C45.538 19.0155 45.65 19.1435 45.698 19.1435C45.794 19.3035 45.978 19.5035 46.25 19.7435L46.586 20.1035L47.594 20.8475L48.002 21.2555L48.458 21.5435C48.714 21.6555 48.962 21.8075 49.202 21.9995C49.522 22.2395 49.914 22.6875 50.378 23.3435C50.474 23.4875 50.602 23.9195 50.762 24.6395V25.5755L50.642 26.1275C50.562 26.2075 50.474 26.3675 50.378 26.6075C50.378 26.6235 50.29 26.8395 50.114 27.2555C50.066 27.3355 49.874 27.5035 49.538 27.7595C49.058 28.1435 48.522 28.4315 47.93 28.6235C47.802 28.6555 47.602 28.6635 47.33 28.6475ZM57.3774 20.3195C57.4414 20.0795 57.4334 19.7755 57.3534 19.4075C57.2414 19.3115 57.0894 19.2635 56.8974 19.2635C56.6574 19.2635 56.4414 19.4875 56.2494 19.9355C55.9934 20.3195 55.8014 20.7435 55.6734 21.2075H55.6494C55.4734 21.8795 55.3854 22.2395 55.3854 22.2875C55.6414 22.3515 55.8494 22.3835 56.0094 22.3835C56.1694 22.3675 56.3534 22.2795 56.5614 22.1195C56.9294 21.7675 57.2014 21.1675 57.3774 20.3195ZM57.3054 23.7755L56.4174 23.8475C55.9214 23.8475 55.5294 23.7995 55.2414 23.7035L55.3134 24.1595C55.3614 25.4875 55.7294 26.3595 56.4174 26.7755C56.6094 26.8555 56.7694 26.8955 56.8974 26.8955C57.0254 26.8955 57.1934 26.8315 57.4014 26.7035C57.4654 26.6395 57.5214 26.5515 57.5694 26.4395C57.5854 26.2955 57.6654 26.2315 57.8094 26.2475C58.4654 25.4155 58.9614 25.0875 59.2974 25.2635C59.6334 25.4875 59.8014 25.6635 59.8014 25.7915C59.8014 25.8555 59.7614 25.9275 59.6814 26.0075V26.1515C59.6814 26.3115 59.5774 26.5995 59.3694 27.0155C59.1774 27.4315 58.9694 27.7835 58.7454 28.0715C58.6334 28.3115 58.4894 28.4795 58.3134 28.5755C57.8014 28.8955 57.2574 29.0235 56.6814 28.9595C56.5534 28.9435 56.4654 28.9115 56.4174 28.8635C56.2894 28.8315 56.1934 28.8235 56.1294 28.8395L55.9374 28.8155C55.7934 28.8155 55.6734 28.7835 55.5774 28.7195C55.4174 28.6235 55.3054 28.5755 55.2414 28.5755C54.8254 28.4155 54.5694 28.2955 54.4734 28.2155C54.3934 28.1355 54.3214 28.0795 54.2574 28.0475C54.1934 28.0155 54.0414 27.8475 53.8014 27.5435C53.5934 27.3675 53.4734 27.2555 53.4414 27.2075C53.3454 27.0635 53.2574 26.9595 53.1774 26.8955C53.1134 26.8315 53.0734 26.6875 53.0574 26.4635C52.9934 26.3835 52.9614 26.2795 52.9614 26.1515L52.8654 25.9595C52.8654 25.8475 52.8174 25.7595 52.7214 25.6955C52.6254 25.5995 52.5774 25.4795 52.5774 25.3355V25.1435C52.5134 25.1115 52.4974 25.0155 52.5294 24.8555V24.2315L52.5054 24.0155V23.8475C52.4894 23.7835 52.5054 23.6475 52.5534 23.4395L52.5294 23.2235C52.5454 23.2075 52.5694 23.0795 52.6014 22.8395C52.6654 22.5035 52.7374 22.2955 52.8174 22.2155V21.9995C52.8334 21.9515 52.8414 21.8875 52.8414 21.8075C52.8414 21.7275 52.8574 21.6395 52.8894 21.5435C52.9374 21.4475 53.0654 21.0875 53.2734 20.4635L53.6574 19.6235C53.7694 19.3835 53.9454 19.1195 54.1854 18.8315C54.2014 18.7515 54.2654 18.6075 54.3774 18.3995L54.6894 18.1115C54.7854 17.9675 54.9294 17.8635 55.1214 17.7995C55.3454 17.6875 55.5134 17.6315 55.6254 17.6315L56.2974 17.5355C56.3774 17.5515 56.4334 17.5595 56.4654 17.5595H56.7774C57.1294 17.5915 57.4174 17.6635 57.6414 17.7755C58.1214 17.9195 58.4734 18.1035 58.6974 18.3275C59.1934 18.8875 59.4414 19.4235 59.4414 19.9355C59.4414 20.4475 59.3614 20.8875 59.2014 21.2555C58.8014 22.1675 58.5134 22.7435 58.3374 22.9835C58.0494 23.5115 57.7054 23.7755 57.3054 23.7755ZM66.4946 20.3195C66.5586 20.0795 66.5506 19.7755 66.4706 19.4075C66.3586 19.3115 66.2066 19.2635 66.0146 19.2635C65.7746 19.2635 65.5586 19.4875 65.3666 19.9355C65.1106 20.3195 64.9186 20.7435 64.7906 21.2075H64.7666C64.5906 21.8795 64.5026 22.2395 64.5026 22.2875C64.7586 22.3515 64.9666 22.3835 65.1266 22.3835C65.2866 22.3675 65.4706 22.2795 65.6786 22.1195C66.0466 21.7675 66.3186 21.1675 66.4946 20.3195ZM66.4226 23.7755L65.5346 23.8475C65.0386 23.8475 64.6466 23.7995 64.3586 23.7035L64.4306 24.1595C64.4786 25.4875 64.8466 26.3595 65.5346 26.7755C65.7266 26.8555 65.8866 26.8955 66.0146 26.8955C66.1426 26.8955 66.3106 26.8315 66.5186 26.7035C66.5826 26.6395 66.6386 26.5515 66.6866 26.4395C66.7026 26.2955 66.7826 26.2315 66.9266 26.2475C67.5826 25.4155 68.0786 25.0875 68.4146 25.2635C68.7506 25.4875 68.9186 25.6635 68.9186 25.7915C68.9186 25.8555 68.8786 25.9275 68.7986 26.0075V26.1515C68.7986 26.3115 68.6946 26.5995 68.4866 27.0155C68.2946 27.4315 68.0866 27.7835 67.8626 28.0715C67.7506 28.3115 67.6066 28.4795 67.4306 28.5755C66.9186 28.8955 66.3746 29.0235 65.7986 28.9595C65.6706 28.9435 65.5826 28.9115 65.5346 28.8635C65.4066 28.8315 65.3106 28.8235 65.2466 28.8395L65.0546 28.8155C64.9106 28.8155 64.7906 28.7835 64.6946 28.7195C64.5346 28.6235 64.4226 28.5755 64.3586 28.5755C63.9426 28.4155 63.6866 28.2955 63.5906 28.2155C63.5106 28.1355 63.4386 28.0795 63.3746 28.0475C63.3106 28.0155 63.1586 27.8475 62.9186 27.5435C62.7106 27.3675 62.5906 27.2555 62.5586 27.2075C62.4626 27.0635 62.3746 26.9595 62.2946 26.8955C62.2306 26.8315 62.1906 26.6875 62.1746 26.4635C62.1106 26.3835 62.0786 26.2795 62.0786 26.1515L61.9826 25.9595C61.9826 25.8475 61.9346 25.7595 61.8386 25.6955C61.7426 25.5995 61.6946 25.4795 61.6946 25.3355V25.1435C61.6306 25.1115 61.6146 25.0155 61.6466 24.8555V24.2315L61.6226 24.0155V23.8475C61.6066 23.7835 61.6226 23.6475 61.6706 23.4395L61.6466 23.2235C61.6626 23.2075 61.6866 23.0795 61.7186 22.8395C61.7826 22.5035 61.8546 22.2955 61.9346 22.2155V21.9995C61.9506 21.9515 61.9586 21.8875 61.9586 21.8075C61.9586 21.7275 61.9746 21.6395 62.0066 21.5435C62.0546 21.4475 62.1826 21.0875 62.3906 20.4635L62.7746 19.6235C62.8866 19.3835 63.0626 19.1195 63.3026 18.8315C63.3186 18.7515 63.3826 18.6075 63.4946 18.3995L63.8066 18.1115C63.9026 17.9675 64.0466 17.8635 64.2386 17.7995C64.4626 17.6875 64.6306 17.6315 64.7426 17.6315L65.4146 17.5355C65.4946 17.5515 65.5506 17.5595 65.5826 17.5595H65.8946C66.2466 17.5915 66.5346 17.6635 66.7586 17.7755C67.2386 17.9195 67.5906 18.1035 67.8146 18.3275C68.3106 18.8875 68.5586 19.4235 68.5586 19.9355C68.5586 20.4475 68.4786 20.8875 68.3186 21.2555C67.9186 22.1675 67.6306 22.7435 67.4546 22.9835C67.1666 23.5115 66.8226 23.7755 66.4226 23.7755ZM78.7537 18.6635L78.4897 21.9275L78.6337 21.5915C78.6977 21.4475 78.9297 21.1115 79.3297 20.5835C79.3297 20.5355 79.5777 20.1115 80.0737 19.3115L80.4817 18.8315L80.6977 18.4955C81.0017 18.2555 81.2577 18.1355 81.4657 18.1355C81.8977 18.0715 82.3617 18.1995 82.8577 18.5195C82.9697 18.5355 83.1137 18.6555 83.2897 18.8795C83.5617 19.0875 83.6817 19.3835 83.6497 19.7675C83.6497 19.7995 83.6417 19.8475 83.6257 19.9115C83.3217 22.4075 83.1617 24.1595 83.1457 25.1675C83.1297 26.1595 83.2097 26.9915 83.3857 27.6635C83.5137 28.2235 83.3057 28.6155 82.7617 28.8395C82.6177 28.9355 82.3937 28.9515 82.0897 28.8875C81.8177 28.8875 81.6097 28.8475 81.4657 28.7675C81.3377 28.7035 81.2017 28.5435 81.0577 28.2875L80.9377 27.8075C80.8737 27.6795 80.8417 27.5035 80.8417 27.2795L80.7457 26.5835C80.7617 26.5515 80.7697 26.3435 80.7697 25.9595L80.7937 25.3355C80.7457 25.1115 80.7537 24.6715 80.8177 24.0155L80.8657 22.9835V22.3835C80.8817 22.3355 80.8337 22.2235 80.7217 22.0475C80.3057 22.3675 79.8417 23.4395 79.3297 25.2635L78.7057 27.1835C78.4177 28.2075 78.1057 28.7595 77.7697 28.8395L77.5057 28.8875C77.2817 28.8875 76.9777 28.8235 76.5937 28.6955C76.2897 28.3595 76.1377 28.0235 76.1377 27.6875C76.1697 27.6235 76.1777 27.5515 76.1617 27.4715C76.1137 27.2635 76.1297 26.9755 76.2097 26.6075C76.1937 26.5595 76.1857 26.4955 76.1857 26.4155L76.2097 26.0555C76.1777 25.9755 76.1457 25.7515 76.1137 25.3835C76.0817 24.9995 76.0817 24.7115 76.1137 24.5195C76.0817 24.4555 76.1297 24.2395 76.2577 23.8715C76.1297 23.6795 76.0577 23.4635 76.0417 23.2235C75.9777 22.5675 75.9537 22.0795 75.9697 21.7595C76.0017 21.4235 76.0177 21.1115 76.0177 20.8235C75.9857 20.5355 75.9777 20.1915 75.9937 19.7915L76.1617 17.8475L76.3297 16.4555C76.3297 16.3435 76.2897 16.1755 76.2097 15.9515C76.1457 15.7115 76.1297 15.4315 76.1617 15.1115C76.1937 14.7915 76.2257 14.5915 76.2577 14.5115C76.3057 14.4155 76.3697 14.1755 76.4497 13.7915C76.4497 13.4715 76.4817 13.2315 76.5457 13.0715L76.6897 12.6395C76.7057 12.5275 76.9137 12.3435 77.3137 12.0875H77.5777C78.2017 12.1355 78.6577 12.2395 78.9457 12.3995C79.0737 12.4795 79.1057 12.7595 79.0417 13.2395C79.0097 13.9115 78.9857 14.3275 78.9697 14.4875C78.9537 14.6475 78.9137 15.3435 78.8497 16.5755C78.7857 17.8075 78.7537 18.5035 78.7537 18.6635ZM90.4605 20.9195C90.3485 20.2795 90.0365 19.9835 89.5245 20.0315C89.2365 20.0475 88.9885 20.2395 88.7805 20.6075C88.4925 21.1675 88.3645 21.8955 88.3965 22.7915C88.4445 23.6715 88.5085 24.3115 88.5885 24.7115C88.6845 25.0955 88.8445 25.4315 89.0685 25.7195C89.1965 25.9435 89.3885 26.0475 89.6445 26.0315C90.0925 26.0315 90.4205 25.6555 90.6285 24.9035L90.8205 24.3275C90.9005 24.2475 90.9165 24.1675 90.8685 24.0875C91.0285 23.6875 91.1165 23.2155 91.1325 22.6715C90.9725 22.5595 90.8765 22.4555 90.8445 22.3595C90.7485 22.0875 90.7005 21.9035 90.7005 21.8075C90.5885 21.7275 90.5245 21.5755 90.5085 21.3515C90.4925 21.1275 90.4765 20.9835 90.4605 20.9195ZM86.0685 23.1755L86.1645 21.9515C86.2765 20.8475 86.6125 19.9035 87.1725 19.1195C87.7165 18.4635 88.4845 18.1275 89.4765 18.1115H89.6205C90.5485 18.1115 91.2205 18.3115 91.6365 18.7115C92.0845 19.0635 92.4125 19.4475 92.6205 19.8635C92.8445 20.2795 92.9885 20.5835 93.0525 20.7755C93.1165 20.9675 93.1565 21.2475 93.1725 21.6155C93.2045 22.3035 93.0685 22.6955 92.7645 22.7915C92.9885 24.3115 92.8525 25.5195 92.3565 26.4155C92.1965 26.7835 91.9645 27.1835 91.6605 27.6155C91.4365 27.9035 91.0365 28.0635 90.4605 28.0955C89.8845 28.0955 89.3805 28.0635 88.9485 27.9995C88.5325 27.9355 88.0685 27.7355 87.5565 27.3995C87.0445 27.0475 86.6845 26.4795 86.4765 25.6955C86.2525 24.9435 86.1165 24.1035 86.0685 23.1755ZM98.088 21.1835L98.064 22.1915V22.9595L98.112 23.8715C98.112 24.5435 98.192 25.2795 98.352 26.0795L98.472 26.2955C98.472 26.1195 98.496 25.9675 98.544 25.8395C98.608 25.7115 98.64 25.5595 98.64 25.3835L98.976 24.1355C98.976 24.0875 99.016 23.9835 99.096 23.8235C99.16 23.6635 99.256 23.3675 99.384 22.9355C99.528 22.4875 99.616 22.1035 99.648 21.7835C99.68 21.4475 99.712 21.2155 99.744 21.0875C99.776 20.9595 99.768 20.7835 99.72 20.5595L99.84 19.5755C99.84 19.3515 99.872 19.1915 99.936 19.0955C100.608 18.9995 101.048 18.9435 101.256 18.9275C101.256 19.0235 101.312 19.1515 101.424 19.3115C101.424 19.3755 101.48 19.5195 101.592 19.7435L101.688 20.1755C101.784 20.3995 101.904 21.3835 102.048 23.1275C102.064 23.6875 102.216 24.4635 102.504 25.4555C102.584 25.3275 102.616 25.1755 102.6 24.9995C102.696 24.9035 102.744 24.6475 102.744 24.2315L102.984 23.5835L103.44 21.1115L103.536 20.0555L103.728 19.3115C103.76 19.1035 103.824 18.9595 103.92 18.8795C104.032 18.7835 104.208 18.7435 104.448 18.7595H105.048C105.16 18.8395 105.312 18.8795 105.504 18.8795L105.792 18.9515C105.776 19.1435 105.76 19.3595 105.744 19.5995C105.728 19.7915 105.664 20.2315 105.552 20.9195C105.36 23.2075 105.216 24.5835 105.12 25.0475C105.12 25.1595 105.096 25.2475 105.048 25.3115C105.032 25.5355 104.92 26.0795 104.712 26.9435C104.712 27.0715 104.544 27.3035 104.208 27.6395C104.096 27.8315 103.928 27.9515 103.704 27.9995C103.624 28.0795 103.472 28.1275 103.248 28.1435C103.024 28.1755 102.792 28.1435 102.552 28.0475C102.312 27.9675 102.176 27.9035 102.144 27.8555C101.984 27.7115 101.784 27.6075 101.544 27.5435L101.184 27.3995C100.992 27.1915 100.88 27.0715 100.848 27.0395C100.784 26.9435 100.728 26.7115 100.68 26.3435C100.648 26.3275 100.608 26.1115 100.56 25.6955C100.368 26.3995 100.272 26.7915 100.272 26.8715C100.192 27.1435 100.136 27.3035 100.104 27.3515C100.088 27.3835 100.072 27.4395 100.056 27.5195C100.056 27.5835 100.04 27.6475 100.008 27.7115C100.008 27.8075 99.952 27.9115 99.84 28.0235C99.744 28.1355 99.552 28.2235 99.264 28.2875C98.976 28.3675 98.6 28.3755 98.136 28.3115L97.848 28.3355C97.736 28.3355 97.616 28.3195 97.488 28.2875C97.296 28.1595 97.16 27.9995 97.08 27.8075C96.888 27.5355 96.72 27.2395 96.576 26.9195C96.48 26.8235 96.352 26.5035 96.192 25.9595C96.048 25.6235 95.976 25.4315 95.976 25.3835V25.1675C95.912 25.1035 95.84 24.9115 95.76 24.5915C95.696 24.2715 95.68 24.0315 95.712 23.8715C95.664 23.8075 95.64 23.6395 95.64 23.3675C95.608 23.2075 95.592 22.9515 95.592 22.5995C95.544 22.0075 95.488 21.6235 95.424 21.4475C95.44 21.2395 95.376 20.9515 95.232 20.5835C95.104 19.8635 95.064 19.4475 95.112 19.3355C95.064 19.2075 95.104 19.0075 95.232 18.7355C95.232 18.6555 95.432 18.4315 95.832 18.0635C96.04 17.9995 96.208 18.0075 96.336 18.0875C96.464 18.1515 96.608 18.1915 96.768 18.2075L97.608 18.4475C98.072 18.5755 98.264 19.1115 98.184 20.0555L98.088 20.9915C98.088 21.0075 98.088 21.0395 98.088 21.0875V21.1835ZM114.654 19.5275L114.678 19.3115C114.342 19.2795 114.102 19.2555 113.958 19.2395C113.83 19.2075 113.614 19.1755 113.31 19.1435C113.006 19.1115 112.766 19.0635 112.59 18.9995C112.254 18.8875 112.062 18.5995 112.014 18.1355C111.966 17.6555 112.118 17.3595 112.47 17.2475C112.79 17.1675 113.014 17.1275 113.142 17.1275C113.27 17.1275 113.51 17.1115 113.862 17.0795C114.038 16.9835 114.278 16.9275 114.582 16.9115L114.942 16.8155C114.942 16.8315 115.006 16.8155 115.134 16.7675L115.254 16.2635C115.254 16.0075 115.326 15.7515 115.47 15.4955C115.47 15.3835 115.574 15.0715 115.782 14.5595C115.782 14.4955 115.926 14.0315 116.214 13.1675C116.278 13.0875 116.518 12.9035 116.934 12.6155C117.19 12.4875 117.55 12.5755 118.014 12.8795C118.27 12.9915 118.446 13.1435 118.542 13.3355C118.446 13.4315 118.398 13.6555 118.398 14.0075C118.382 14.1195 118.27 14.7115 118.062 15.7835V16.4555C118.19 16.4715 118.398 16.5115 118.686 16.5755C118.99 16.6395 119.35 16.7115 119.766 16.7915C120.566 16.9515 121.07 17.2715 121.278 17.7515C121.358 18.1035 121.342 18.3515 121.23 18.4955C121.118 18.6395 120.846 18.7435 120.414 18.8075C120.062 18.8235 119.598 18.8315 119.022 18.8315C118.462 18.8315 118.046 18.8715 117.774 18.9515C117.742 19.2395 117.726 19.4635 117.726 19.6235L117.702 19.9835C117.702 20.0955 117.63 20.6875 117.486 21.7595C117.39 21.9035 117.31 22.6475 117.246 23.9915V25.7435C117.246 26.0315 117.27 26.3035 117.318 26.5595C117.334 26.9115 117.374 27.1595 117.438 27.3035C117.438 27.4475 117.478 27.7515 117.558 28.2155C117.366 28.6795 117.046 28.9115 116.598 28.9115C116.166 28.9115 115.782 28.7515 115.446 28.4315L115.182 28.0475C115.134 27.9195 115.094 27.8315 115.062 27.7835C115.046 27.7355 115.03 27.6795 115.014 27.6155C114.902 27.2955 114.814 27.0955 114.75 27.0155C114.654 26.8875 114.606 26.7915 114.606 26.7275C114.606 26.6635 114.606 26.5835 114.606 26.4875C114.574 26.2155 114.534 25.9835 114.486 25.7915C114.406 25.7115 114.366 25.4395 114.366 24.9755C114.398 24.1275 114.398 23.6395 114.366 23.5115C114.414 23.4635 114.422 23.1595 114.39 22.5995L114.462 22.0715C114.462 22.0075 114.494 21.7675 114.558 21.3515C114.526 21.2875 114.518 21.1195 114.534 20.8475C114.55 20.5595 114.574 20.3595 114.606 20.2475C114.638 20.0555 114.654 19.8155 114.654 19.5275ZM124.269 18.6635L124.005 21.9275L124.149 21.5915C124.213 21.4475 124.445 21.1115 124.845 20.5835C124.845 20.5355 125.093 20.1115 125.589 19.3115L125.997 18.8315L126.213 18.4955C126.517 18.2555 126.773 18.1355 126.981 18.1355C127.413 18.0715 127.877 18.1995 128.373 18.5195C128.485 18.5355 128.629 18.6555 128.805 18.8795C129.077 19.0875 129.197 19.3835 129.165 19.7675C129.165 19.7995 129.157 19.8475 129.141 19.9115C128.837 22.4075 128.677 24.1595 128.661 25.1675C128.645 26.1595 128.725 26.9915 128.901 27.6635C129.029 28.2235 128.821 28.6155 128.277 28.8395C128.133 28.9355 127.909 28.9515 127.605 28.8875C127.333 28.8875 127.125 28.8475 126.981 28.7675C126.853 28.7035 126.717 28.5435 126.573 28.2875L126.453 27.8075C126.389 27.6795 126.357 27.5035 126.357 27.2795L126.261 26.5835C126.277 26.5515 126.285 26.3435 126.285 25.9595L126.309 25.3355C126.261 25.1115 126.269 24.6715 126.333 24.0155L126.381 22.9835V22.3835C126.397 22.3355 126.349 22.2235 126.237 22.0475C125.821 22.3675 125.357 23.4395 124.845 25.2635L124.221 27.1835C123.933 28.2075 123.621 28.7595 123.285 28.8395L123.021 28.8875C122.797 28.8875 122.493 28.8235 122.109 28.6955C121.805 28.3595 121.653 28.0235 121.653 27.6875C121.685 27.6235 121.693 27.5515 121.677 27.4715C121.629 27.2635 121.645 26.9755 121.725 26.6075C121.709 26.5595 121.701 26.4955 121.701 26.4155L121.725 26.0555C121.693 25.9755 121.661 25.7515 121.629 25.3835C121.597 24.9995 121.597 24.7115 121.629 24.5195C121.597 24.4555 121.645 24.2395 121.773 23.8715C121.645 23.6795 121.573 23.4635 121.557 23.2235C121.493 22.5675 121.469 22.0795 121.485 21.7595C121.517 21.4235 121.533 21.1115 121.533 20.8235C121.501 20.5355 121.493 20.1915 121.509 19.7915L121.677 17.8475L121.845 16.4555C121.845 16.3435 121.805 16.1755 121.725 15.9515C121.661 15.7115 121.645 15.4315 121.677 15.1115C121.709 14.7915 121.741 14.5915 121.773 14.5115C121.821 14.4155 121.885 14.1755 121.965 13.7915C121.965 13.4715 121.997 13.2315 122.061 13.0715L122.205 12.6395C122.221 12.5275 122.429 12.3435 122.829 12.0875H123.093C123.717 12.1355 124.173 12.2395 124.461 12.3995C124.589 12.4795 124.621 12.7595 124.557 13.2395C124.525 13.9115 124.501 14.3275 124.485 14.4875C124.469 14.6475 124.429 15.3435 124.365 16.5755C124.301 17.8075 124.269 18.5035 124.269 18.6635ZM136.432 20.3195C136.496 20.0795 136.488 19.7755 136.408 19.4075C136.296 19.3115 136.144 19.2635 135.952 19.2635C135.712 19.2635 135.496 19.4875 135.304 19.9355C135.048 20.3195 134.856 20.7435 134.728 21.2075H134.704C134.528 21.8795 134.44 22.2395 134.44 22.2875C134.696 22.3515 134.904 22.3835 135.064 22.3835C135.224 22.3675 135.408 22.2795 135.616 22.1195C135.984 21.7675 136.256 21.1675 136.432 20.3195ZM136.36 23.7755L135.472 23.8475C134.976 23.8475 134.584 23.7995 134.296 23.7035L134.368 24.1595C134.416 25.4875 134.784 26.3595 135.472 26.7755C135.664 26.8555 135.824 26.8955 135.952 26.8955C136.08 26.8955 136.248 26.8315 136.456 26.7035C136.52 26.6395 136.576 26.5515 136.624 26.4395C136.64 26.2955 136.72 26.2315 136.864 26.2475C137.52 25.4155 138.016 25.0875 138.352 25.2635C138.688 25.4875 138.856 25.6635 138.856 25.7915C138.856 25.8555 138.816 25.9275 138.736 26.0075V26.1515C138.736 26.3115 138.632 26.5995 138.424 27.0155C138.232 27.4315 138.024 27.7835 137.8 28.0715C137.688 28.3115 137.544 28.4795 137.368 28.5755C136.856 28.8955 136.312 29.0235 135.736 28.9595C135.608 28.9435 135.52 28.9115 135.472 28.8635C135.344 28.8315 135.248 28.8235 135.184 28.8395L134.992 28.8155C134.848 28.8155 134.728 28.7835 134.632 28.7195C134.472 28.6235 134.36 28.5755 134.296 28.5755C133.88 28.4155 133.624 28.2955 133.528 28.2155C133.448 28.1355 133.376 28.0795 133.312 28.0475C133.248 28.0155 133.096 27.8475 132.856 27.5435C132.648 27.3675 132.528 27.2555 132.496 27.2075C132.4 27.0635 132.312 26.9595 132.232 26.8955C132.168 26.8315 132.128 26.6875 132.112 26.4635C132.048 26.3835 132.016 26.2795 132.016 26.1515L131.92 25.9595C131.92 25.8475 131.872 25.7595 131.776 25.6955C131.68 25.5995 131.632 25.4795 131.632 25.3355V25.1435C131.568 25.1115 131.552 25.0155 131.584 24.8555V24.2315L131.56 24.0155V23.8475C131.544 23.7835 131.56 23.6475 131.608 23.4395L131.584 23.2235C131.6 23.2075 131.624 23.0795 131.656 22.8395C131.72 22.5035 131.792 22.2955 131.872 22.2155V21.9995C131.888 21.9515 131.896 21.8875 131.896 21.8075C131.896 21.7275 131.912 21.6395 131.944 21.5435C131.992 21.4475 132.12 21.0875 132.328 20.4635L132.712 19.6235C132.824 19.3835 133 19.1195 133.24 18.8315C133.256 18.7515 133.32 18.6075 133.432 18.3995L133.744 18.1115C133.84 17.9675 133.984 17.8635 134.176 17.7995C134.4 17.6875 134.568 17.6315 134.68 17.6315L135.352 17.5355C135.432 17.5515 135.488 17.5595 135.52 17.5595H135.832C136.184 17.5915 136.472 17.6635 136.696 17.7755C137.176 17.9195 137.528 18.1035 137.752 18.3275C138.248 18.8875 138.496 19.4235 138.496 19.9355C138.496 20.4475 138.416 20.8875 138.256 21.2555C137.856 22.1675 137.568 22.7435 137.392 22.9835C137.104 23.5115 136.76 23.7755 136.36 23.7755ZM149.195 13.3115C149.419 13.2155 149.883 13.1835 150.587 13.2155C151.291 13.2315 151.795 13.2955 152.099 13.4075L152.699 13.5995C153.195 13.9355 153.475 14.1035 153.539 14.1035C154.195 14.6155 154.571 15.2875 154.667 16.1195C154.763 16.4715 154.779 16.7915 154.715 17.0795C154.715 17.1755 154.683 17.3835 154.619 17.7035L154.379 18.2555L154.091 18.6635C153.995 18.6795 153.939 18.6875 153.923 18.6875C153.331 18.7835 152.875 18.7995 152.555 18.7355C152.235 18.6555 151.955 18.4795 151.715 18.2075C151.667 18.1115 151.643 18.0235 151.643 17.9435C151.659 17.8635 151.683 17.7915 151.715 17.7275L151.835 17.3435C152.043 16.8315 152.027 16.3995 151.787 16.0475C151.787 15.9995 151.707 15.9115 151.547 15.7835C151.387 15.6555 151.259 15.5595 151.163 15.4955C151.083 15.4315 150.931 15.4235 150.707 15.4715C150.323 15.6315 149.995 16.1195 149.723 16.9355C149.403 17.3515 149.179 17.8955 149.051 18.5675C148.859 19.7675 148.763 20.4475 148.763 20.6075L148.739 21.1355V21.3515C148.707 21.3835 148.723 22.0795 148.787 23.4395C148.803 23.5195 148.835 23.6315 148.883 23.7755C148.931 23.9515 149.003 24.2395 149.099 24.6395L149.411 25.1675C149.491 25.2155 149.595 25.3595 149.723 25.5995C149.803 25.5995 149.867 25.6555 149.915 25.7675C150.027 25.8795 150.075 25.9435 150.059 25.9595C150.139 25.9755 150.259 26.0235 150.419 26.1035C150.851 26.3275 151.227 26.2795 151.547 25.9595C151.659 25.8475 151.795 25.6955 151.955 25.5035C152.131 25.2955 152.259 25.1355 152.339 25.0235C152.435 24.8955 152.579 24.7755 152.771 24.6635C153.299 24.2635 153.755 24.2795 154.139 24.7115C154.219 24.8395 154.227 25.1515 154.163 25.6475C154.115 26.1275 153.891 26.6315 153.491 27.1595C153.459 27.2555 153.355 27.4155 153.179 27.6395C153.003 27.8475 152.819 28.0155 152.627 28.1435C152.595 28.2555 151.987 28.3355 150.803 28.3835C150.739 28.3835 150.611 28.3675 150.419 28.3355C150.243 28.3835 150.003 28.3595 149.699 28.2635C149.411 28.1675 149.251 28.1195 149.219 28.1195L148.907 28.0475C148.779 28.0475 148.651 28.0075 148.523 27.9275C148.395 27.8475 148.179 27.7115 147.875 27.5195C147.587 27.3115 147.363 27.1435 147.203 27.0155C146.723 26.6315 146.379 26.1915 146.171 25.6955C146.107 25.5835 146.067 25.4315 146.051 25.2395C146.035 25.0315 146.003 24.8795 145.955 24.7835C145.827 24.6555 145.763 24.4475 145.763 24.1595C145.779 23.8715 145.763 23.5195 145.715 23.1035C145.715 22.9115 145.723 22.7995 145.739 22.7675C145.659 22.6875 145.627 22.5515 145.643 22.3595C145.659 22.1515 145.667 21.8715 145.667 21.5195C145.715 21.4235 145.731 21.1435 145.715 20.6795C145.715 20.1995 145.731 19.8395 145.763 19.5995C145.699 19.4555 145.691 19.2475 145.739 18.9755L145.763 18.2555C145.779 17.9675 145.851 17.6635 145.979 17.3435C145.995 17.1995 146.027 17.0315 146.075 16.8395C146.123 16.6315 146.331 16.2235 146.699 15.6155C146.699 15.4875 146.819 15.3275 147.059 15.1355C147.059 15.0715 147.123 14.9755 147.251 14.8475C147.379 14.7195 147.523 14.5595 147.683 14.3675C147.907 14.0955 148.155 13.8955 148.427 13.7675C148.699 13.6395 148.955 13.4875 149.195 13.3115ZM160.82 20.9195C160.708 20.2795 160.396 19.9835 159.884 20.0315C159.596 20.0475 159.348 20.2395 159.14 20.6075C158.852 21.1675 158.724 21.8955 158.756 22.7915C158.804 23.6715 158.868 24.3115 158.948 24.7115C159.044 25.0955 159.204 25.4315 159.428 25.7195C159.556 25.9435 159.748 26.0475 160.004 26.0315C160.452 26.0315 160.78 25.6555 160.988 24.9035L161.18 24.3275C161.26 24.2475 161.276 24.1675 161.228 24.0875C161.388 23.6875 161.476 23.2155 161.492 22.6715C161.332 22.5595 161.236 22.4555 161.204 22.3595C161.108 22.0875 161.06 21.9035 161.06 21.8075C160.948 21.7275 160.884 21.5755 160.868 21.3515C160.852 21.1275 160.836 20.9835 160.82 20.9195ZM156.428 23.1755L156.524 21.9515C156.636 20.8475 156.972 19.9035 157.532 19.1195C158.076 18.4635 158.844 18.1275 159.836 18.1115H159.98C160.908 18.1115 161.58 18.3115 161.996 18.7115C162.444 19.0635 162.772 19.4475 162.98 19.8635C163.204 20.2795 163.348 20.5835 163.412 20.7755C163.476 20.9675 163.516 21.2475 163.532 21.6155C163.564 22.3035 163.428 22.6955 163.124 22.7915C163.348 24.3115 163.212 25.5195 162.716 26.4155C162.556 26.7835 162.324 27.1835 162.02 27.6155C161.796 27.9035 161.396 28.0635 160.82 28.0955C160.244 28.0955 159.74 28.0635 159.308 27.9995C158.892 27.9355 158.428 27.7355 157.916 27.3995C157.404 27.0475 157.044 26.4795 156.836 25.6955C156.612 24.9435 156.476 24.1035 156.428 23.1755ZM173.319 21.3515L173.343 21.8075C173.343 21.8555 173.391 22.3595 173.487 23.3195V23.6075C173.487 23.9915 173.551 24.5675 173.679 25.3355C173.679 25.6715 173.847 26.2555 174.183 27.0875C174.263 27.1355 174.319 27.2475 174.351 27.4235L174.327 27.6635C174.359 27.7435 174.319 27.8315 174.207 27.9275C174.207 28.0395 174.055 28.0955 173.751 28.0955C173.447 28.0955 173.255 28.1115 173.175 28.1435C173.095 28.1755 172.967 28.1595 172.791 28.0955C172.727 28.1275 172.535 28.0635 172.215 27.9035C172.071 27.8715 171.959 27.7275 171.879 27.4715L171.687 27.0155C171.687 26.7275 171.607 26.4715 171.447 26.2475C171.447 26.1675 171.407 26.0235 171.327 25.8155C171.263 25.6075 171.215 25.4955 171.183 25.4795C171.023 26.1195 170.823 26.6155 170.583 26.9675C170.583 27.0475 170.535 27.1435 170.439 27.2555L170.199 27.7115C170.199 27.7435 170.127 27.8315 169.983 27.9755C169.887 28.1835 169.671 28.2875 169.335 28.2875C169.031 28.2875 168.663 28.2075 168.231 28.0475C168.119 28.0315 167.895 27.9595 167.559 27.8315C167.463 27.8475 167.311 27.8235 167.103 27.7595C166.911 27.6795 166.799 27.6395 166.767 27.6395C166.719 27.5915 166.607 27.5115 166.431 27.3995L166.023 26.9675C166.007 26.9515 165.975 26.8795 165.927 26.7515C165.895 26.6075 165.887 26.5115 165.903 26.4635C165.919 26.3995 165.919 26.3115 165.903 26.1995C165.887 26.0875 165.895 25.9755 165.927 25.8635C165.927 25.5435 165.959 25.1915 166.023 24.8075C166.007 24.7595 165.999 24.7035 165.999 24.6395C165.999 24.5755 166.031 24.4555 166.095 24.2795C166.079 24.1995 166.071 24.1435 166.071 24.1115L166.191 23.1755C166.191 22.9515 166.199 22.7915 166.215 22.6955V22.3355C166.231 22.2715 166.239 22.1835 166.239 22.0715L166.359 20.9195C166.359 20.7435 166.367 20.6315 166.383 20.5835V20.3435C166.415 20.3115 166.431 20.1835 166.431 19.9595L166.647 19.2875L166.815 18.9995C166.831 18.9355 166.919 18.8635 167.079 18.7835C167.335 18.6235 167.703 18.5435 168.183 18.5435C168.375 18.5755 168.583 18.6555 168.807 18.7835C168.855 18.7675 168.967 18.7995 169.143 18.8795C169.463 19.0235 169.479 19.4315 169.191 20.1035C169.127 20.5355 169.095 20.7595 169.095 20.7755C169.031 20.9035 168.999 21.0075 168.999 21.0875C168.903 21.5995 168.855 21.8715 168.855 21.9035C168.919 21.8395 168.895 21.9355 168.783 22.1915L168.687 23.0795C168.575 23.4635 168.527 23.8875 168.543 24.3515L168.447 24.6635C168.463 24.7435 168.455 24.9915 168.423 25.4075C168.455 25.4555 168.471 25.5115 168.471 25.5755L168.495 25.7675C168.479 25.8155 168.487 25.8635 168.519 25.9115C168.551 25.9435 168.639 25.9595 168.783 25.9595C168.943 25.9435 169.079 25.9035 169.191 25.8395C169.415 25.5675 169.567 25.2875 169.647 24.9995C169.727 24.6955 169.767 24.5195 169.767 24.4715C170.039 23.7835 170.207 23.3835 170.271 23.2715C170.351 22.8395 170.487 22.3435 170.679 21.7835C170.647 21.7035 170.647 21.5435 170.679 21.3035L170.991 20.0315C171.135 19.7915 171.207 19.6475 171.207 19.5995C171.207 19.5355 171.303 19.3115 171.495 18.9275C171.495 18.8635 171.543 18.7355 171.639 18.5435C171.751 18.3675 171.951 18.1995 172.239 18.0395H172.311C172.663 18.0075 172.967 18.0555 173.223 18.1835C173.255 18.2475 173.271 18.3595 173.271 18.5195C173.303 18.6795 173.335 18.9675 173.367 19.3835V19.6235L173.271 20.1515C173.399 20.5515 173.415 20.9515 173.319 21.3515ZM176.33 20.9195C176.33 20.7755 176.314 20.6075 176.282 20.4155V20.2475C176.298 20.1355 176.29 20.0155 176.258 19.8875C176.258 19.7275 176.274 19.5835 176.306 19.4555C176.306 19.1355 176.346 18.9275 176.426 18.8315C176.426 18.7515 176.538 18.5675 176.762 18.2795C176.826 18.2155 176.946 18.1115 177.122 17.9675C177.378 17.8875 177.554 17.8395 177.65 17.8235C177.714 17.7595 177.93 17.7835 178.298 17.8955C178.458 17.9115 178.706 17.9675 179.042 18.0635C179.154 18.0955 179.298 18.2235 179.474 18.4475C179.442 18.5115 179.386 18.7515 179.306 19.1675C179.242 19.5675 179.218 19.8955 179.234 20.1515C179.33 20.0715 179.498 19.9035 179.738 19.6475C179.978 19.3915 180.106 19.2555 180.122 19.2395C180.538 19.0475 180.946 18.9115 181.346 18.8315C181.922 18.7835 182.298 18.8235 182.474 18.9515C182.618 18.9995 182.73 19.0715 182.81 19.1675C182.954 19.2955 183.074 19.5195 183.17 19.8395C183.266 20.1435 183.258 20.3355 183.146 20.4155C183.05 20.4955 182.73 20.5595 182.186 20.6075C182.154 20.6075 182.042 20.6715 181.85 20.7995L180.602 21.7835C180.346 21.9115 180.17 22.0235 180.074 22.1195L179.618 22.9595C179.602 22.9915 179.586 23.1995 179.57 23.5835C179.554 23.9675 179.554 24.2475 179.57 24.4235C179.586 24.5835 179.586 25.1195 179.57 26.0315V27.0635C179.57 27.6235 179.562 27.9435 179.546 28.0235C179.53 28.1195 179.466 28.2795 179.354 28.5035C179.306 28.5835 179.154 28.6235 178.898 28.6235C178.274 29.0875 177.874 29.0635 177.698 28.5515L177.386 28.3595C177.258 28.2955 177.178 28.2155 177.146 28.1195C177.018 27.9435 176.954 27.8395 176.954 27.8075L176.858 27.4715L176.714 27.1835C176.666 27.1675 176.626 26.8635 176.594 26.2715C176.562 25.6635 176.546 25.2955 176.546 25.1675C176.546 25.0235 176.53 24.8715 176.498 24.7115C176.61 24.5995 176.658 24.4075 176.642 24.1355C176.642 23.8635 176.626 23.6555 176.594 23.5115C176.562 23.3515 176.562 23.2555 176.594 23.2235C176.626 23.1755 176.618 22.9515 176.57 22.5515C176.522 22.4875 176.514 22.3675 176.546 22.1915L176.33 20.9195ZM185.974 19.5275L185.998 19.3115C185.662 19.2795 185.422 19.2555 185.278 19.2395C185.15 19.2075 184.934 19.1755 184.63 19.1435C184.326 19.1115 184.086 19.0635 183.91 18.9995C183.574 18.8875 183.382 18.5995 183.334 18.1355C183.286 17.6555 183.438 17.3595 183.79 17.2475C184.11 17.1675 184.334 17.1275 184.462 17.1275C184.59 17.1275 184.83 17.1115 185.182 17.0795C185.358 16.9835 185.598 16.9275 185.902 16.9115L186.262 16.8155C186.262 16.8315 186.326 16.8155 186.454 16.7675L186.574 16.2635C186.574 16.0075 186.646 15.7515 186.79 15.4955C186.79 15.3835 186.894 15.0715 187.102 14.5595C187.102 14.4955 187.246 14.0315 187.534 13.1675C187.598 13.0875 187.838 12.9035 188.254 12.6155C188.51 12.4875 188.87 12.5755 189.334 12.8795C189.59 12.9915 189.766 13.1435 189.862 13.3355C189.766 13.4315 189.718 13.6555 189.718 14.0075C189.702 14.1195 189.59 14.7115 189.382 15.7835V16.4555C189.51 16.4715 189.718 16.5115 190.006 16.5755C190.31 16.6395 190.67 16.7115 191.086 16.7915C191.886 16.9515 192.39 17.2715 192.598 17.7515C192.678 18.1035 192.662 18.3515 192.55 18.4955C192.438 18.6395 192.166 18.7435 191.734 18.8075C191.382 18.8235 190.918 18.8315 190.342 18.8315C189.782 18.8315 189.366 18.8715 189.094 18.9515C189.062 19.2395 189.046 19.4635 189.046 19.6235L189.022 19.9835C189.022 20.0955 188.95 20.6875 188.806 21.7595C188.71 21.9035 188.63 22.6475 188.566 23.9915V25.7435C188.566 26.0315 188.59 26.3035 188.638 26.5595C188.654 26.9115 188.694 27.1595 188.758 27.3035C188.758 27.4475 188.798 27.7515 188.878 28.2155C188.686 28.6795 188.366 28.9115 187.918 28.9115C187.486 28.9115 187.102 28.7515 186.766 28.4315L186.502 28.0475C186.454 27.9195 186.414 27.8315 186.382 27.7835C186.366 27.7355 186.35 27.6795 186.334 27.6155C186.222 27.2955 186.134 27.0955 186.07 27.0155C185.974 26.8875 185.926 26.7915 185.926 26.7275C185.926 26.6635 185.926 26.5835 185.926 26.4875C185.894 26.2155 185.854 25.9835 185.806 25.7915C185.726 25.7115 185.686 25.4395 185.686 24.9755C185.718 24.1275 185.718 23.6395 185.686 23.5115C185.734 23.4635 185.742 23.1595 185.71 22.5995L185.782 22.0715C185.782 22.0075 185.814 21.7675 185.878 21.3515C185.846 21.2875 185.838 21.1195 185.854 20.8475C185.87 20.5595 185.894 20.3595 185.926 20.2475C185.958 20.0555 185.974 19.8155 185.974 19.5275ZM197.94 20.9195C197.94 20.7755 197.924 20.6075 197.892 20.4155V20.2475C197.908 20.1355 197.9 20.0155 197.868 19.8875C197.868 19.7275 197.884 19.5835 197.916 19.4555C197.916 19.1355 197.956 18.9275 198.036 18.8315C198.036 18.7515 198.148 18.5675 198.372 18.2795C198.436 18.2155 198.556 18.1115 198.732 17.9675C198.988 17.8875 199.164 17.8395 199.26 17.8235C199.324 17.7595 199.54 17.7835 199.908 17.8955C200.068 17.9115 200.316 17.9675 200.652 18.0635C200.764 18.0955 200.908 18.2235 201.084 18.4475C201.052 18.5115 200.996 18.7515 200.916 19.1675C200.852 19.5675 200.828 19.8955 200.844 20.1515C200.94 20.0715 201.108 19.9035 201.348 19.6475C201.588 19.3915 201.716 19.2555 201.732 19.2395C202.148 19.0475 202.556 18.9115 202.956 18.8315C203.532 18.7835 203.908 18.8235 204.084 18.9515C204.228 18.9995 204.34 19.0715 204.42 19.1675C204.564 19.2955 204.684 19.5195 204.78 19.8395C204.876 20.1435 204.868 20.3355 204.756 20.4155C204.66 20.4955 204.34 20.5595 203.796 20.6075C203.764 20.6075 203.652 20.6715 203.46 20.7995L202.212 21.7835C201.956 21.9115 201.78 22.0235 201.684 22.1195L201.228 22.9595C201.212 22.9915 201.196 23.1995 201.18 23.5835C201.164 23.9675 201.164 24.2475 201.18 24.4235C201.196 24.5835 201.196 25.1195 201.18 26.0315V27.0635C201.18 27.6235 201.172 27.9435 201.156 28.0235C201.14 28.1195 201.076 28.2795 200.964 28.5035C200.916 28.5835 200.764 28.6235 200.508 28.6235C199.884 29.0875 199.484 29.0635 199.308 28.5515L198.996 28.3595C198.868 28.2955 198.788 28.2155 198.756 28.1195C198.628 27.9435 198.564 27.8395 198.564 27.8075L198.468 27.4715L198.324 27.1835C198.276 27.1675 198.236 26.8635 198.204 26.2715C198.172 25.6635 198.156 25.2955 198.156 25.1675C198.156 25.0235 198.14 24.8715 198.108 24.7115C198.22 24.5995 198.268 24.4075 198.252 24.1355C198.252 23.8635 198.236 23.6555 198.204 23.5115C198.172 23.3515 198.172 23.2555 198.204 23.2235C198.236 23.1755 198.228 22.9515 198.18 22.5515C198.132 22.4875 198.124 22.3675 198.156 22.1915L197.94 20.9195ZM213.515 21.3515L213.539 21.8075C213.539 21.8555 213.587 22.3595 213.683 23.3195V23.6075C213.683 23.9915 213.747 24.5675 213.875 25.3355C213.875 25.6715 214.043 26.2555 214.379 27.0875C214.459 27.1355 214.515 27.2475 214.547 27.4235L214.523 27.6635C214.555 27.7435 214.515 27.8315 214.403 27.9275C214.403 28.0395 214.251 28.0955 213.947 28.0955C213.643 28.0955 213.451 28.1115 213.371 28.1435C213.291 28.1755 213.163 28.1595 212.987 28.0955C212.923 28.1275 212.731 28.0635 212.411 27.9035C212.267 27.8715 212.155 27.7275 212.075 27.4715L211.883 27.0155C211.883 26.7275 211.803 26.4715 211.643 26.2475C211.643 26.1675 211.603 26.0235 211.523 25.8155C211.459 25.6075 211.411 25.4955 211.379 25.4795C211.219 26.1195 211.019 26.6155 210.779 26.9675C210.779 27.0475 210.731 27.1435 210.635 27.2555L210.395 27.7115C210.395 27.7435 210.323 27.8315 210.179 27.9755C210.083 28.1835 209.867 28.2875 209.531 28.2875C209.227 28.2875 208.859 28.2075 208.427 28.0475C208.315 28.0315 208.091 27.9595 207.755 27.8315C207.659 27.8475 207.507 27.8235 207.299 27.7595C207.107 27.6795 206.995 27.6395 206.963 27.6395C206.915 27.5915 206.803 27.5115 206.627 27.3995L206.219 26.9675C206.203 26.9515 206.171 26.8795 206.123 26.7515C206.091 26.6075 206.083 26.5115 206.099 26.4635C206.115 26.3995 206.115 26.3115 206.099 26.1995C206.083 26.0875 206.091 25.9755 206.123 25.8635C206.123 25.5435 206.155 25.1915 206.219 24.8075C206.203 24.7595 206.195 24.7035 206.195 24.6395C206.195 24.5755 206.227 24.4555 206.291 24.2795C206.275 24.1995 206.267 24.1435 206.267 24.1115L206.387 23.1755C206.387 22.9515 206.395 22.7915 206.411 22.6955V22.3355C206.427 22.2715 206.435 22.1835 206.435 22.0715L206.555 20.9195C206.555 20.7435 206.563 20.6315 206.579 20.5835V20.3435C206.611 20.3115 206.627 20.1835 206.627 19.9595L206.843 19.2875L207.011 18.9995C207.027 18.9355 207.115 18.8635 207.275 18.7835C207.531 18.6235 207.899 18.5435 208.379 18.5435C208.571 18.5755 208.779 18.6555 209.003 18.7835C209.051 18.7675 209.163 18.7995 209.339 18.8795C209.659 19.0235 209.675 19.4315 209.387 20.1035C209.323 20.5355 209.291 20.7595 209.291 20.7755C209.227 20.9035 209.195 21.0075 209.195 21.0875C209.099 21.5995 209.051 21.8715 209.051 21.9035C209.115 21.8395 209.091 21.9355 208.979 22.1915L208.883 23.0795C208.771 23.4635 208.723 23.8875 208.739 24.3515L208.643 24.6635C208.659 24.7435 208.651 24.9915 208.619 25.4075C208.651 25.4555 208.667 25.5115 208.667 25.5755L208.691 25.7675C208.675 25.8155 208.683 25.8635 208.715 25.9115C208.747 25.9435 208.835 25.9595 208.979 25.9595C209.139 25.9435 209.275 25.9035 209.387 25.8395C209.611 25.5675 209.763 25.2875 209.843 24.9995C209.923 24.6955 209.963 24.5195 209.963 24.4715C210.235 23.7835 210.403 23.3835 210.467 23.2715C210.547 22.8395 210.683 22.3435 210.875 21.7835C210.843 21.7035 210.843 21.5435 210.875 21.3035L211.187 20.0315C211.331 19.7915 211.403 19.6475 211.403 19.5995C211.403 19.5355 211.499 19.3115 211.691 18.9275C211.691 18.8635 211.739 18.7355 211.835 18.5435C211.947 18.3675 212.147 18.1995 212.435 18.0395H212.507C212.859 18.0075 213.163 18.0555 213.419 18.1835C213.451 18.2475 213.467 18.3595 213.467 18.5195C213.499 18.6795 213.531 18.9675 213.563 19.3835V19.6235L213.467 20.1515C213.595 20.5515 213.611 20.9515 213.515 21.3515ZM217.15 15.1595L217.318 13.7435L217.342 12.9995C217.342 12.7915 217.382 12.6315 217.462 12.5195L217.702 12.1835C218.134 11.8475 218.414 11.6555 218.542 11.6075C218.67 11.5595 218.854 11.5675 219.094 11.6315C219.35 11.6795 219.502 11.7275 219.55 11.7755L219.814 11.9915C219.958 12.0715 220.03 12.1995 220.03 12.3755C220.11 12.4715 220.134 12.5435 220.102 12.5915C220.006 12.7035 219.846 13.6475 219.622 15.4235L219.43 18.6875L219.31 19.3355C219.31 19.5435 219.318 19.6635 219.334 19.6955V20.1275C219.302 20.4475 219.27 20.6475 219.238 20.7275C219.238 20.8075 219.222 20.8955 219.19 20.9915C219.222 21.0235 219.238 21.1515 219.238 21.3755C219.238 21.5835 219.214 21.7115 219.166 21.7595C219.134 22.0155 219.118 22.2635 219.118 22.5035C219.118 22.7275 219.134 22.9675 219.166 23.2235C219.214 23.4635 219.23 23.7035 219.214 23.9435L219.31 24.8555V25.2155C219.342 25.5035 219.358 25.7355 219.358 25.9115L219.478 27.1595L219.574 27.8075C219.622 28.0795 219.598 28.3435 219.502 28.5995C219.422 28.8555 219.294 29.0155 219.118 29.0795C218.622 29.2875 218.078 29.1515 217.486 28.6715H217.294C217.182 28.5435 217.094 28.3675 217.03 28.1435C216.902 28.0795 216.846 27.9675 216.862 27.8075C216.878 27.6475 216.846 27.5035 216.766 27.3755C216.686 27.2475 216.646 27.1355 216.646 27.0395C216.646 26.8315 216.63 26.6475 216.598 26.4875L216.622 26.2955C216.574 26.2475 216.55 26.1755 216.55 26.0795L216.502 25.6475V25.4555C216.502 25.3275 216.494 25.2395 216.478 25.1915C216.478 25.1435 216.502 25.0635 216.55 24.9515C216.502 24.8875 216.494 24.6555 216.526 24.2555C216.622 23.0235 216.67 22.1755 216.67 21.7115L216.694 21.1355V20.4395C216.71 20.0555 216.718 19.5675 216.718 18.9755C216.734 18.3835 216.766 18.0635 216.814 18.0155L216.79 17.7995C216.79 17.4155 216.846 16.8955 216.958 16.2395C217.086 15.5675 217.15 15.2075 217.15 15.1595ZM226.971 20.3195C227.035 20.0795 227.027 19.7755 226.947 19.4075C226.835 19.3115 226.683 19.2635 226.491 19.2635C226.251 19.2635 226.035 19.4875 225.843 19.9355C225.587 20.3195 225.395 20.7435 225.267 21.2075H225.243C225.067 21.8795 224.979 22.2395 224.979 22.2875C225.235 22.3515 225.443 22.3835 225.603 22.3835C225.763 22.3675 225.947 22.2795 226.155 22.1195C226.523 21.7675 226.795 21.1675 226.971 20.3195ZM226.899 23.7755L226.011 23.8475C225.515 23.8475 225.123 23.7995 224.835 23.7035L224.907 24.1595C224.955 25.4875 225.323 26.3595 226.011 26.7755C226.203 26.8555 226.363 26.8955 226.491 26.8955C226.619 26.8955 226.787 26.8315 226.995 26.7035C227.059 26.6395 227.115 26.5515 227.163 26.4395C227.179 26.2955 227.259 26.2315 227.403 26.2475C228.059 25.4155 228.555 25.0875 228.891 25.2635C229.227 25.4875 229.395 25.6635 229.395 25.7915C229.395 25.8555 229.355 25.9275 229.275 26.0075V26.1515C229.275 26.3115 229.171 26.5995 228.963 27.0155C228.771 27.4315 228.563 27.7835 228.339 28.0715C228.227 28.3115 228.083 28.4795 227.907 28.5755C227.395 28.8955 226.851 29.0235 226.275 28.9595C226.147 28.9435 226.059 28.9115 226.011 28.8635C225.883 28.8315 225.787 28.8235 225.723 28.8395L225.531 28.8155C225.387 28.8155 225.267 28.7835 225.171 28.7195C225.011 28.6235 224.899 28.5755 224.835 28.5755C224.419 28.4155 224.163 28.2955 224.067 28.2155C223.987 28.1355 223.915 28.0795 223.851 28.0475C223.787 28.0155 223.635 27.8475 223.395 27.5435C223.187 27.3675 223.067 27.2555 223.035 27.2075C222.939 27.0635 222.851 26.9595 222.771 26.8955C222.707 26.8315 222.667 26.6875 222.651 26.4635C222.587 26.3835 222.555 26.2795 222.555 26.1515L222.459 25.9595C222.459 25.8475 222.411 25.7595 222.315 25.6955C222.219 25.5995 222.171 25.4795 222.171 25.3355V25.1435C222.107 25.1115 222.091 25.0155 222.123 24.8555V24.2315L222.099 24.0155V23.8475C222.083 23.7835 222.099 23.6475 222.147 23.4395L222.123 23.2235C222.139 23.2075 222.163 23.0795 222.195 22.8395C222.259 22.5035 222.331 22.2955 222.411 22.2155V21.9995C222.427 21.9515 222.435 21.8875 222.435 21.8075C222.435 21.7275 222.451 21.6395 222.483 21.5435C222.531 21.4475 222.659 21.0875 222.867 20.4635L223.251 19.6235C223.363 19.3835 223.539 19.1195 223.779 18.8315C223.795 18.7515 223.859 18.6075 223.971 18.3995L224.283 18.1115C224.379 17.9675 224.523 17.8635 224.715 17.7995C224.939 17.6875 225.107 17.6315 225.219 17.6315L225.891 17.5355C225.971 17.5515 226.027 17.5595 226.059 17.5595H226.371C226.723 17.5915 227.011 17.6635 227.235 17.7755C227.715 17.9195 228.067 18.1035 228.291 18.3275C228.787 18.8875 229.035 19.4235 229.035 19.9355C229.035 20.4475 228.955 20.8875 228.795 21.2555C228.395 22.1675 228.107 22.7435 227.931 22.9835C227.643 23.5115 227.299 23.7755 226.899 23.7755ZM236.112 21.9035L236.064 21.5435C236.016 21.4795 235.984 21.3995 235.968 21.3035C235.968 21.1915 235.944 21.0235 235.896 20.7995C235.896 20.5115 235.824 20.2555 235.68 20.0315C235.632 19.9035 235.44 19.8635 235.104 19.9115C234.88 20.1355 234.616 20.7675 234.312 21.8075C234.312 21.8235 234.288 21.8875 234.24 21.9995C234.176 22.1435 234.112 22.3835 234.048 22.7195C233.984 23.0395 233.944 23.2235 233.928 23.2715C233.896 23.3675 233.88 23.4555 233.88 23.5355C233.848 23.5995 233.832 23.7035 233.832 23.8475L233.736 24.3035C233.672 24.3995 233.656 24.5195 233.688 24.6635V24.9995C233.704 25.0475 233.696 25.1835 233.664 25.4075V25.7435L233.712 26.5595C233.712 26.7515 233.872 27.0635 234.192 27.4955C234.32 27.5275 234.4 27.5195 234.432 27.4715C234.752 27.1515 234.928 26.8235 234.96 26.4875L235.032 26.1755C235.112 26.0955 235.176 25.8555 235.224 25.4555L235.344 25.0475C235.344 24.9035 235.376 24.7515 235.44 24.5915C235.504 24.4315 235.544 24.3115 235.56 24.2315C235.56 24.1035 235.664 23.7835 235.872 23.2715C235.856 23.2235 235.848 23.1755 235.848 23.1275V22.9595C236.024 22.2715 236.112 21.9195 236.112 21.9035ZM239.16 14.1515C239.16 14.7115 239.128 15.0555 239.064 15.1835L238.896 16.7435V17.5595C238.88 17.8315 238.872 18.2395 238.872 18.7835C238.872 19.3275 238.88 19.7835 238.896 20.1515C238.928 20.5035 238.912 20.7995 238.848 21.0395C238.88 21.0715 238.896 21.1275 238.896 21.2075L238.92 21.3995L238.896 21.9515V22.9595C238.912 23.1355 238.92 23.4395 238.92 23.8715C238.952 24.2395 238.968 24.5355 238.968 24.7595C238.968 24.9835 238.992 25.2075 239.04 25.4315V25.7435L239.136 26.7275V27.5435C239.168 27.6555 239.184 27.7675 239.184 27.8795C239.184 27.9755 239.216 28.1435 239.28 28.3835C239.36 28.6395 239.392 28.8715 239.376 29.0795C238.928 29.6075 238.36 29.7355 237.672 29.4635C237.528 29.4475 237.376 29.3675 237.216 29.2235C237.072 29.0795 236.984 28.9355 236.952 28.7915L236.928 28.3115C236.848 28.2955 236.8 28.1595 236.784 27.9035C236.72 27.8075 236.696 27.7275 236.712 27.6635C236.76 27.5835 236.72 27.4475 236.592 27.2555L236.328 27.7115C236.248 27.8395 236.16 27.9195 236.064 27.9515L235.968 28.2395C235.744 28.4795 235.576 28.6795 235.464 28.8395L235.176 29.1275C234.792 29.2075 234.264 29.1755 233.592 29.0315C233.432 29.0315 233.304 29.0155 233.208 28.9835H233.04C233.008 29.0155 232.832 28.9435 232.512 28.7675C232.24 28.6555 232.096 28.5515 232.08 28.4555L232.224 28.4795C232 28.3835 231.92 28.2315 231.984 28.0235C231.792 27.9435 231.672 27.7675 231.624 27.4955L231.408 26.6795C231.376 26.4715 231.384 26.2475 231.432 26.0075C231.4 25.9435 231.44 25.7275 231.552 25.3595L231.48 25.1435L231.432 24.7115C231.384 24.6475 231.392 24.5035 231.456 24.2795L231.312 24.0395C231.312 23.3995 231.336 23.0075 231.384 22.8635L231.408 22.5515C231.328 22.4235 231.352 22.1515 231.48 21.7355L231.816 20.6315C231.816 20.5995 231.84 20.4555 231.888 20.1995C231.968 19.7995 232.064 19.5435 232.176 19.4315L232.608 18.7115C232.688 18.6315 232.776 18.5115 232.872 18.3515C233.032 18.0635 233.368 17.9195 233.88 17.9195C234.408 17.8395 235.256 17.9035 236.424 18.1115V17.2715L236.352 16.2635C236.352 15.7835 236.336 15.3435 236.304 14.9435C236.288 14.5435 236.296 14.2235 236.328 13.9835C236.344 13.9675 236.424 13.6395 236.568 12.9995C236.712 12.3595 236.952 11.8795 237.288 11.5595C237.4 11.4955 237.6 11.4555 237.888 11.4395C238.192 11.4235 238.376 11.4395 238.44 11.4875C238.504 11.5355 238.592 11.5755 238.704 11.6075C239.152 11.7355 239.376 12.1435 239.376 12.8315L239.16 14.1515ZM259.451 28.8395C259.083 28.8395 258.731 28.7275 258.395 28.5035C258.059 28.2955 257.779 28.0235 257.555 27.6875C257.347 27.3515 257.243 27.0155 257.243 26.6795C257.243 26.2955 257.403 25.8875 257.723 25.4555C258.043 25.0235 258.419 24.5995 258.851 24.1835C259.299 23.7515 259.691 23.3835 260.027 23.0795H250.115C249.203 23.0795 248.555 23.0075 248.171 22.8635C247.787 22.7195 247.483 22.4795 247.259 22.1435C247.035 21.8235 246.923 21.3755 246.923 20.7995C246.923 20.2235 247.027 19.7755 247.235 19.4555C247.459 19.1355 247.763 18.8955 248.147 18.7355C248.531 18.5915 249.187 18.5195 250.115 18.5195H260.027L258.851 17.3915C258.195 16.7515 257.763 16.2635 257.555 15.9275C257.347 15.5755 257.243 15.2395 257.243 14.9195C257.243 14.5835 257.347 14.2475 257.555 13.9115C257.763 13.5755 258.035 13.3035 258.371 13.0955C258.723 12.8715 259.083 12.7595 259.451 12.7595C259.771 12.7595 260.115 12.8635 260.483 13.0715C260.851 13.2635 261.283 13.5995 261.779 14.0795L268.691 20.7995L261.923 27.3755C261.347 27.9195 260.875 28.2955 260.507 28.5035C260.139 28.7275 259.787 28.8395 259.451 28.8395Z" fill="#0D3FD2"/>
<defs>
<clipPath id="clip0">
<rect width="311" height="40" fill="white" transform="translate(0 -0.000488281)"/>
</clipPath>
</defs>
</svg>
