<svg width="133" height="122" viewBox="0 0 133 122" fill="none" xmlns="http://www.w3.org/2000/svg">
<path d="M0.00817871 112.816C0.00817871 110.054 2.24676 107.816 5.00818 107.816H127.008C129.77 107.816 132.008 110.054 132.008 112.816V121.816H0.00817871V112.816Z" fill="#DA9459"/>
<rect x="5.00818" y="104.816" width="122" height="7" rx="1" fill="#DA9459"/>
<path fill-rule="evenodd" clip-rule="evenodd" d="M8.0352 53.4115C6.25488 52.6462 5.00818 50.8766 5.00818 48.8159V46.8159H25.0082V48.8159C25.0082 50.8766 23.7615 52.6462 21.9812 53.4115C21.999 53.5438 22.0082 53.6787 22.0082 53.8159V92.2319C23.7741 93.0035 25.0082 94.7655 25.0082 96.8159V98.8159H5.00818V96.8159C5.00818 94.7655 6.24228 93.0035 8.00818 92.2319V53.8159C8.00818 53.6787 8.01738 53.5438 8.0352 53.4115Z" fill="#DA9459"/>
<path fill-rule="evenodd" clip-rule="evenodd" d="M42.0352 53.4115C40.2549 52.6462 39.0082 50.8766 39.0082 48.8159V46.8159H59.0082V48.8159C59.0082 50.8766 57.7615 52.6462 55.9812 53.4115C55.999 53.5438 56.0082 53.6787 56.0082 53.8159V92.2319C57.7741 93.0035 59.0082 94.7655 59.0082 96.8159V98.8159H39.0082V96.8159C39.0082 94.7655 40.2423 93.0035 42.0082 92.2319V53.8159C42.0082 53.6787 42.0174 53.5438 42.0352 53.4115Z" fill="#DA9459"/>
<path fill-rule="evenodd" clip-rule="evenodd" d="M76.0352 53.4115C74.2549 52.6462 73.0082 50.8766 73.0082 48.8159V46.8159H93.0082V48.8159C93.0082 50.8766 91.7615 52.6462 89.9812 53.4115C89.999 53.5438 90.0082 53.6787 90.0082 53.8159V92.2319C91.7741 93.0035 93.0082 94.7655 93.0082 96.8159V98.8159H73.0082V96.8159C73.0082 94.7655 74.2423 93.0035 76.0082 92.2319V53.8159C76.0082 53.6787 76.0174 53.5438 76.0352 53.4115Z" fill="#DA9459"/>
<path fill-rule="evenodd" clip-rule="evenodd" d="M110.035 53.4115C108.255 52.6462 107.008 50.8766 107.008 48.8159V46.8159H127.008V48.8159C127.008 50.8766 125.761 52.6462 123.981 53.4115C123.999 53.5438 124.008 53.6787 124.008 53.8159V92.2319C125.774 93.0035 127.008 94.7655 127.008 96.8159V98.8159H107.008V96.8159C107.008 94.7655 108.242 93.0035 110.008 92.2319V53.8159C110.008 53.6787 110.017 53.5438 110.035 53.4115Z" fill="#DA9459"/>
<path fill-rule="evenodd" clip-rule="evenodd" d="M2.1551 32.8666C-1.55312 34.8025 -0.176894 40.4125 4.00623 40.4125H66.0935H128.181C132.364 40.4125 133.74 34.8025 130.032 32.8666L67.9446 0.454108C66.7848 -0.151369 65.4022 -0.151369 64.2424 0.454108L2.1551 32.8666Z" fill="#DA9459"/>
<circle cx="66.0082" cy="22.8159" r="7" fill="white"/>
</svg>
