<svg width="6" height="78" viewBox="0 0 6 78" fill="none" xmlns="http://www.w3.org/2000/svg">
<path d="M3.89739 44.0772C3.89739 44.1168 3.91876 44.1573 3.92945 44.1995L3.8867 44.1362C3.8867 44.2426 3.8582 44.3481 3.84039 44.4544C3.84039 44.4924 3.86176 44.5346 3.86533 44.5852C3.86354 44.5693 3.85029 44.5536 3.82614 44.5388C3.82614 44.5734 3.82614 44.6072 3.80833 44.6409C3.96863 44.8941 4.08263 45.5254 4.16456 45.7077C4.23224 45.9482 4.27143 46.2427 4.25718 46.4275C4.25718 46.2587 4.22868 46.0292 4.14319 46.0975C4.05056 46.4453 3.78695 46.614 4.01494 47.2149L4.01494 46.8622L4.35336 47.6546C4.21443 47.9314 4.18593 47.2588 4.06125 47.1483C4.22868 47.7643 3.78339 48.2758 4.06125 48.5618C3.89026 48.6015 3.59815 48.669 3.61596 49.0733C3.81545 48.7821 3.74421 49.3155 3.97219 49.0733C4.07194 49.2125 3.91163 49.5239 4.03988 49.5476L3.96863 49.5096C3.69433 50.1991 4.12537 50.4253 4.26787 50.7206C4.33911 51.546 4.22512 51.9258 4.26787 52.5992C4.15387 52.6262 3.83326 52.8094 3.84395 53.0794C4.00069 53.2052 4.0755 53.8154 4.27499 53.877C4.36049 53.3942 4.10756 53.482 4.06125 53.1925C4.27143 52.952 4.26787 53.1706 4.39611 52.8423C4.31418 53.1073 4.50654 54.0415 4.30705 54.3318L4.27855 54.2297C4.15743 54.6931 3.65871 54.7817 3.96151 55.5556L4.08619 55.9244C4.07241 55.9137 4.0507 55.9037 4.02207 55.8948C4.00425 56.4991 3.7727 56.3337 3.95438 57.0004C3.95438 56.9489 3.91876 56.981 3.90451 56.9286C3.79052 57.3093 4.0185 57.6924 4.06481 57.9793C3.89738 58.1549 3.90095 57.938 3.77983 57.8291C3.75556 58.4324 3.89836 59.0354 4.20731 59.6343L4.10756 60.0656C4.03988 59.8124 3.86176 59.4976 3.75133 59.5752C3.8175 59.7503 3.84366 59.9261 3.8297 60.1019C3.67764 59.9854 3.55863 59.8667 3.47347 59.7466C3.29179 60.4394 3.85464 59.901 3.52334 60.3863C3.52334 60.604 3.68008 60.7306 3.80833 60.7542L3.63734 61.1492C3.80476 61.1931 3.81545 61.68 3.84039 61.999C3.91163 62.0378 4.01494 61.7458 3.95082 61.6209C4.08263 61.6446 4.14318 61.9847 4.13962 62.2033C3.78339 62.2826 4.18949 63.6329 3.78339 63.3746C3.89738 64.3553 3.93301 65.7334 4.07906 66.3816C3.98288 66.5951 3.97576 67.0297 3.81545 66.769C3.81545 67.5589 4.17168 67.9665 4.0755 68.7497C4.03275 68.8147 4.0755 68.3952 3.95438 68.4231C4.09331 68.9353 3.80833 69.3556 3.90095 70.1506C3.9224 70.0856 3.88349 70.0202 3.78695 69.959C3.84395 69.9455 3.90807 70.2848 3.96151 70.4907C3.93301 70.6063 3.92232 70.3363 3.87601 70.4013C3.70858 71.9372 4.17881 73.1069 4.16456 74.6345C4.16456 74.1981 3.94013 74.0327 3.84395 74.0285L3.84395 74.4598C3.95794 74.6286 3.95794 74.945 4.04344 75.2134C4.00069 75.2463 3.95438 75.3771 3.90095 75.2438C3.6694 76.0877 4.3213 76.562 4.20018 77.5967L3.73708 76.3443L3.57678 76.654L3.36304 76.1038C3.23835 76.432 3.53046 76.7181 3.36304 76.7578C3.31316 76.6886 3.33098 76.5207 3.23479 76.5156C3.16711 76.8312 3.29891 76.8532 3.33098 77.0937C2.97474 76.4683 2.97474 75.2421 2.89637 74.5821C2.86787 74.4783 2.98187 74.6665 3.01749 74.6893C3.01749 74.4201 3.11724 74.2581 3.05311 73.9196C2.9035 73.7087 2.94268 74.08 2.92843 74.2471C2.79663 74.2243 2.80732 74.1399 2.78594 73.9542C2.96049 73.9137 2.8465 72.9322 3.06024 72.6883C3.00681 71.6942 2.61139 72.847 2.6862 71.8773L2.88569 71.587C2.72894 71.0232 2.59358 70.2949 2.63632 69.6578L2.63632 69.7919C2.72182 69.8814 2.77525 69.7337 2.818 69.6679C2.9035 69.186 2.66126 68.7531 2.86075 68.4611C2.64701 67.9117 2.50452 66.9951 2.3834 66.3672C2.64345 66.1985 2.60426 67.1867 2.76813 67.4483L2.76813 66.8787C2.75235 67.1153 2.83708 67.3516 3.02105 67.5842C3.07093 67.0829 2.83938 66.9175 2.77169 66.4424C2.84294 66.4795 2.88925 66.4162 2.88925 66.1968L2.7147 66.1352C2.74674 66.1037 2.75993 66.0713 2.75388 66.039L2.64701 65.195C2.5722 65.3748 2.42259 65.3832 2.41902 65.6018C2.52233 65.5233 2.54014 65.709 2.54014 65.9276C2.42615 65.736 2.44396 66.1402 2.34778 66.136C2.34778 65.698 2.32997 65.1596 2.28366 64.8701L2.44396 64.7773C2.48314 64.3553 2.39409 63.9181 2.44396 63.6354L2.52946 63.7249C2.57933 63.2236 2.47602 62.7299 2.63276 62.2851C2.44752 61.8387 2.29434 61.2724 2.10554 60.9103C1.89893 60.7154 2.36559 59.5997 2.07348 59.0959C2.09485 59.0613 2.23022 59.4419 2.30859 59.6132C2.34065 59.2756 2.0806 59.0115 2.30859 58.9068C2.23735 59.6588 2.48315 58.8663 2.54727 59.2056C2.54727 58.8528 2.50096 58.4815 2.42615 58.3093C2.42615 58.879 2.12335 58.1068 2.21953 58.6832C2.02444 58.1548 1.96258 57.6242 2.03429 57.0941C2.12691 57.0991 2.16966 57.0333 2.20885 56.835L2.07348 56.6746C2.09842 56.4257 2.23378 57.1565 2.28366 56.6544C2.04854 56.1387 2.41546 55.0998 1.98442 54.8737C2.15541 54.4804 2.15541 55.6222 2.36559 55.0298C2.52233 55.3741 2.34422 55.8501 2.55795 55.964C2.49739 55.6265 2.73963 55.8408 2.74319 55.6222L2.61139 55.2458L2.61139 55.3302C2.40834 54.6973 2.50808 53.6947 2.47246 52.8828C2.25516 52.1984 1.94167 51.7275 1.96661 50.9063C2.09129 51.1485 2.08773 50.2244 2.32284 50.7375C2.43684 50.3577 2.32284 49.9822 2.20885 49.978C2.17679 50.3155 2.18035 50.0961 2.13404 50.3772C2.02801 50.1086 2.01609 49.8385 2.09842 49.5695C2.09842 49.6539 2.09842 49.621 2.14829 49.6396C2.2231 49.2404 2.03429 49.448 1.98798 49.1594C2.14829 49.0682 2.03073 48.5222 2.11267 48.2589L1.88468 47.8774C2.03429 48.0867 1.93811 47.5111 2.07704 47.4512C1.89907 47.1462 1.81572 46.8384 1.82768 46.5305C1.90605 46.6993 1.93811 46.149 2.09129 46.1423C2.23735 45.4275 1.67806 44.9608 1.89536 44.2856C1.93099 44.3067 2.03073 44.4434 2.06635 44.2459C2.02717 44.0898 2.04498 43.8172 2.02717 43.651L2.02717 43.656C2.02717 43.656 2.02717 43.651 2.02717 43.6468C2.02717 43.5624 1.99867 43.5143 1.96305 43.5126C1.74829 43.1832 1.60561 42.8513 1.53557 42.5184C1.36102 42.5598 1.4287 43.0341 1.4857 43.2391L1.62463 43.4172C1.36458 43.586 1.67094 43.9236 1.58188 44.0527C1.27552 43.7151 1.35033 42.7454 1.16153 42.164C0.91929 42.5184 0.880104 43.2906 0.912164 43.9641L1.01547 43.667L1.01547 44.0198L1.20071 43.6822C1.16865 44.0198 1.20071 44.3042 1.20071 44.6055C1.20071 44.2527 1.43583 44.1151 1.4002 44.3152C1.22921 44.7084 1.51063 44.7253 1.49995 45.0257C1.51776 44.857 1.51776 44.6401 1.6175 44.781C1.41089 45.3718 1.54626 45.5338 1.32183 46.0739C1.61394 46.0064 1.35033 46.7491 1.589 46.8284L1.61394 46.5752L1.78849 47.1061C1.55338 47.5964 1.54626 46.6723 1.38239 47.4183C1.35033 48.1061 1.65669 48.0884 1.67806 48.6294C1.4442 48.2842 1.3393 47.9349 1.36458 47.5854L1.28265 47.8496C1.1829 47.7103 1.20427 47.1061 1.21496 46.8056C1.41089 47.3027 1.27552 46.5727 1.4287 46.3457C1.26127 46.3043 1.28621 46.6242 1.1544 46.2461C1.1544 46.5997 1.17221 46.652 1.10809 47.101C1.1829 46.1296 0.530997 46.2275 0.67349 45.3785C0.748299 45.7701 0.912164 45.2426 0.994098 45.1954C0.972724 45.0114 0.933538 44.6375 0.89079 44.4848L0.652115 44.6232C0.548809 44.1286 1.05466 43.9573 0.808857 43.3868C0.666364 43.3126 0.758986 43.889 0.730487 43.786C0.58087 43.0054 0.969162 42.7243 1.14728 42.0315C1.07603 41.9918 0.922852 42.0002 0.791046 41.7572C0.933539 41.834 1.00835 41.6542 1.11522 41.926C1.14153 41.6888 1.10703 41.4515 1.01191 41.2154C0.926413 41.6981 0.805295 41.0179 0.719799 40.9293C0.744736 40.6761 0.862292 41.0052 0.90504 41.1588C0.944226 40.9588 1.1544 40.72 0.940664 40.606C1.09028 40.5984 1.33964 41.1673 1.37883 41.5386L1.40376 41.2854C1.46599 41.4363 1.47671 41.5881 1.43583 41.7395C1.55338 41.4964 1.68162 41.52 1.79206 41.5766C1.77068 41.6086 1.75643 41.5589 1.73506 41.5892C1.69587 41.7901 1.73506 41.9437 1.82055 41.8973C2.02361 42.077 1.94524 41.6196 2.04854 41.4837C2.04854 41.3808 2.02005 41.2778 2.0058 41.1774L1.35389 40.1368C1.31339 39.8099 1.37291 39.4827 1.53201 39.1578L1.35745 39.0659C1.37527 38.6785 1.43226 38.3131 1.65313 38.5595C1.59257 38.5738 1.60682 38.6245 1.59969 38.7089C1.62906 38.7264 1.64708 38.7449 1.65313 38.7637C1.65313 38.7722 1.6745 38.7764 1.68519 38.7831C1.62819 38.3688 1.59257 38.108 1.58544 38.086C1.83837 38.7899 1.90249 38.1207 2.21241 38.2388L2.11267 37.5282C2.01292 37.9586 1.95949 37.5358 1.91674 37.383C2.09129 37.3409 1.91674 36.81 1.94167 36.5611L1.98086 36.5813C2.04142 36.3509 2.02361 35.9458 1.98086 35.658C1.9203 35.6715 1.62463 35.3019 1.46432 35.1247C1.4002 35.6184 1.32896 35.3255 1.22209 35.3652C1.23838 35.3141 1.23838 35.2627 1.22209 35.2116C1.17221 35.1407 1.1544 35.3078 1.09741 35.3213C1.17934 35.8462 1.20071 36.3864 1.45364 36.6007C1.56051 36.4395 1.34677 36.3256 1.42158 36.1458C1.58544 36.4058 1.55338 36.7417 1.54626 37.1771L1.4002 37.3206L1.47857 37.7594C1.40376 37.5763 1.25058 37.6869 1.22209 37.2261C1.08316 37.2843 1.25058 37.6826 1.22209 37.9645L1.41801 38.1088C1.31114 38.0531 1.28977 38.6574 1.14015 38.2278L0.983411 37.5307L0.851606 37.724L0.81242 37.1332L0.912165 37.2725C0.780359 36.3247 1.30046 36.9932 1.06891 36.0395C0.833794 35.7407 0.808858 35.42 0.865854 34.8352C0.919289 35.2572 1.03328 34.8791 1.16865 35.0377C1.23084 34.77 1.16752 34.5013 0.979849 34.2368C1.10453 34.1271 1.20784 34.0486 1.19003 34.4343C1.45007 34.4824 1.14372 33.928 1.41089 33.8917C1.41089 32.6148 0.548809 32.8688 0.880104 31.3759L0.990537 31.4316C0.855169 30.4839 0.990536 29.937 0.897916 29.0593L1.17221 28.3681C1.21496 28.5225 1.42158 28.9386 1.55338 28.7445C1.27552 29.0821 1.3717 29.4374 1.22209 29.7994C1.2969 29.8366 1.34677 29.6889 1.39308 29.6247C1.39308 29.8433 1.26483 29.953 1.31471 30.2416C1.3717 30.2281 1.43939 29.9134 1.47501 30.1505L1.30402 30.5429C1.38595 31.0687 1.71012 30.802 1.63175 31.4189C1.39656 31.2266 1.25904 31.0283 1.22209 30.8282C1.19003 31.1101 1.13303 30.4526 1.04041 30.71C1.26483 31.116 1.08672 31.3126 1.22921 31.8527C1.17483 31.7822 1.14505 31.7108 1.14015 31.6392L1.04397 32.4232C1.17578 32.2291 1.19003 33.0705 1.4002 32.9979C1.48214 32.1624 1.36102 32.4072 1.47501 31.4561C1.51756 31.7185 1.66064 31.9795 1.90249 32.2359C1.89063 32.2529 1.88467 32.2701 1.88468 32.2874C2.07704 32.4325 2.13048 32.2874 2.4689 32.2874C2.22666 31.8527 2.42615 31.5624 2.28722 31.0493C2.10198 30.9531 2.05211 31.3472 2.09842 31.6012L1.9773 31.1497L2.06279 31.2392L2.12335 30.0931C2.12732 30.2292 2.19422 30.3647 2.32284 30.4974C2.32284 30.3497 2.37984 30.2028 2.43327 30.0467C2.25516 30.0796 2.13048 30.0594 2.13404 29.915C2.17679 29.1774 2.33353 28.7673 2.53658 28.4955C2.53658 28.4677 2.53658 28.4356 2.53658 28.4111C2.3549 28.5352 2.20885 27.8879 2.02361 27.6592C2.21241 27.6702 2.1376 27.2794 2.23378 27.0684C2.01648 26.9554 1.71725 27.1064 1.5427 27.3647C1.73862 27.8634 1.74219 27.644 2.02005 27.8803L2.20885 28.6795L2.03429 28.5006C1.95949 28.8998 2.18748 29.2838 1.96305 29.2542C1.81343 29.0433 1.90605 28.6947 1.75643 28.4854L1.6745 28.7496C1.45364 28.2837 1.88468 28.5107 1.7315 27.947C1.5427 28.1546 1.7315 27.8955 1.58901 27.6541C1.4572 27.8482 1.646 28.6474 1.32183 28.4778C1.17934 28.185 1.69944 27.4913 1.37883 27.103L1.41445 27.1216C1.46462 26.7912 1.37752 26.4605 1.1544 26.1342C1.26127 25.8903 1.11166 25.5536 1.10097 25.2903L1.19715 25.2962L1.1544 24.924C1.32896 25.1012 1.1544 25.3603 1.17578 25.6835L1.35033 25.6439C1.14372 26.0127 1.46076 26.2591 1.61038 26.5452C1.4572 26.1283 1.65313 25.3696 1.31115 25.2717L1.48926 25.0135L1.42514 24.8902C1.55695 24.6987 1.78137 24.8902 1.80274 25.2666C1.76 25.3316 1.73862 25.3637 1.69944 25.3443C1.85024 25.5924 1.90865 25.8432 1.87399 26.0937L1.78137 25.8701C1.78137 26.3908 1.83837 26.8642 2.00936 27.0423C2.08061 26.2912 2.09842 25.5519 2.08773 24.848C1.69588 24.6404 1.47145 24.3932 1.10453 24.2868C1.03685 23.8142 0.986975 23.1711 1.12234 22.7601L1.19359 22.7981C1.22749 22.6181 1.21916 22.4378 1.16865 22.258C1.26484 22.0462 1.36458 22.4032 1.41445 22.258L1.29333 21.5828C1.46076 21.625 1.46076 22.1955 1.47145 22.4664C1.47145 22.415 1.4287 22.312 1.40733 22.3449C1.33964 22.6597 1.62107 23.2471 1.38239 23.3847C1.42514 23.5382 1.20428 23.0732 1.19359 23.5931C1.10097 23.9408 1.31827 24.0539 1.38952 24.0902C1.48214 24.0961 1.51776 23.5442 1.63175 23.7357C1.56512 23.4944 1.55085 23.2525 1.58901 23.0108C1.58901 23.2792 1.79206 23.6437 1.646 23.7864C1.82056 24.3172 2.26228 24.2413 2.28722 23.9914C2.14829 24.0505 2.11623 23.0226 1.93099 23.7189C1.75287 23.4058 1.75287 22.8344 1.64244 22.4259L1.67806 22.4445L1.63175 21.9381C1.68163 22.0099 1.72437 22.1635 1.81699 22.1685L1.56763 21.4647C1.73506 21.8605 1.68519 21.2191 1.76 21.0427C1.61394 20.9668 1.50707 20.6925 1.42514 20.9583C1.32183 21.2546 1.50351 21.1313 1.5142 21.4006L1.28977 21.0191L1.2684 20.9685L1.08316 20.7389C1.08316 20.219 1.5142 20.9659 1.33252 20.3001L1.0796 20.3845C1.11522 19.6139 1.4002 18.6232 1.28265 18.0788C1.4287 18.229 1.66025 18.2949 1.79562 18.0881C1.75287 18.3236 1.76356 18.7953 1.79562 19.132C1.75287 19.197 1.49639 18.7101 1.55338 18.3455C1.13659 18.5227 1.80275 19.2662 1.38239 19.3093C1.23634 20.2376 1.7885 20.0047 1.53913 20.7963C1.72794 20.8073 1.63175 21.0216 1.79918 21.063C2.10554 20.8292 1.79918 20.0047 1.89537 19.4916C1.90355 19.5482 1.92855 19.6046 1.97017 19.6604C2.01931 19.4018 2.00146 19.1428 1.91674 18.8848L1.8918 18.9168C1.71013 18.4687 2.0343 18.6392 2.11623 18.3759C2.08773 18.2729 2.14117 17.9067 2.0058 17.9657L2.18391 17.4881L1.97374 17.5108C1.97374 17.2416 2.09842 17.1826 1.97374 16.9378L1.7885 16.9268L1.72437 17.5961C1.66025 17.2585 1.5427 17.5016 1.50351 17.1285C1.71012 17.5454 1.60682 16.834 1.78137 16.791L1.6745 16.5167L1.72794 16.5867C1.82412 16.3715 1.65669 16.3336 1.68163 16.0804C1.52085 16.3679 1.48623 16.6587 1.57832 16.9479C1.47145 16.6728 1.35389 16.1276 1.35033 15.9943C1.27196 15.7057 1.41445 15.5048 1.43583 15.2347C1.51064 15.7521 2.00224 15.0533 1.87043 16.0913C1.83945 16.0464 1.83945 16.0005 1.87043 15.9555C1.63175 16.0939 1.87043 16.5774 1.9773 16.7994C2.11623 16.7412 2.14829 16.9766 2.22666 16.5774C2.1376 16.7083 1.91674 16.2399 2.03073 15.8618L2.32641 15.9285L2.36203 15.3757L2.36203 15.428C2.55083 15.2196 2.32284 14.8372 2.43684 14.4575C2.32997 14.1824 2.41546 13.1283 2.10554 13.5823C2.29078 13.2405 2.05567 12.9409 2.01648 12.5696L1.89537 13.0346C1.68163 12.4852 1.82056 12.643 1.48214 12.2033C1.56407 12.1594 1.63175 12.0615 1.71725 12.1502C1.71725 11.4126 1.81343 10.3585 1.5712 9.92554C1.5712 9.40567 1.92743 9.32381 1.79562 8.5938C1.75644 8.44021 1.52132 8.71364 1.60682 8.23006C1.62819 8.198 1.82412 8.69592 1.80275 8.15749C1.57476 7.77434 1.92743 7.257 1.7315 6.75908C1.81343 6.49577 1.78137 6.03835 1.95949 6.13372C1.90708 6.49953 1.93561 6.86574 2.04498 7.23084C1.93455 7.17345 1.93811 7.52707 1.85618 7.21987C1.71725 7.8503 1.96661 7.62918 1.87399 8.19462C1.94524 8.23344 2.07348 7.9043 2.00936 7.78278C2.25516 7.78278 2.12692 8.89762 2.42259 8.39548C2.44396 7.79122 1.93099 7.61146 2.18748 7.08737C2.33709 7.29752 2.21241 7.62581 2.4689 7.89249L2.56864 7.46208L2.39053 7.14983L2.42615 7.16839C2.65058 6.40884 2.17323 6.46539 2.05211 5.78518C1.88112 6.1793 1.62463 5.69488 1.52132 5.9911C1.48926 5.53622 1.52132 5.20202 1.76712 5.19949C1.96661 6.05018 2.02717 5.24759 2.27297 6.03413C2.36203 5.90501 2.6292 6.2215 2.6577 5.75227C2.48315 5.2248 2.45465 5.91008 2.37272 5.38346C2.39409 5.35308 2.41903 5.32017 2.45465 5.33873C2.32641 5.09652 2.50096 5.05601 2.35847 4.76317L2.40834 4.83237C2.55796 4.47117 2.23735 4.43741 2.40834 4.12599C2.22666 4.25005 2.25872 3.91754 2.14473 3.72428C2.07704 4.03991 1.81343 4.21039 1.82768 4.83237C1.97374 4.90748 2.05211 4.86191 2.12335 5.11762L2.10554 4.71338C2.13048 4.79777 2.1661 4.86697 2.1946 4.94714L2.11979 5.33536C2.01648 4.84335 1.86331 5.06867 1.71369 4.85937C1.77781 4.40871 1.6745 4.48804 1.71369 4.20448C1.92386 4.23233 2.06992 3.33522 2.21241 2.8162C2.21241 2.9006 2.21241 3.00103 2.21241 3.05672C2.34778 3.43397 2.39053 2.79764 2.44753 2.78329L2.34066 2.50901C2.35847 2.56049 2.40478 2.63222 2.43684 2.51492C2.39765 2.14275 2.18748 2.16468 2.14829 1.79335C2.26228 1.7655 2.4404 2.07944 2.50452 1.84821C2.60783 1.76887 2.87857 1.5157 2.77526 1.022C2.71279 0.918861 2.68302 0.814765 2.6862 0.710578C2.6862 0.731681 2.6862 0.756996 2.6862 0.766281L2.81444 0.438827C3.01393 0.718177 2.72182 1.00343 2.92131 1.28277L3.11012 1.3064C3.10989 1.52426 3.16939 1.74189 3.28823 1.95792C3.32029 1.62035 3.27042 1.55452 3.23124 1.18234C3.35235 1.13001 3.44141 1.39248 3.4521 1.43046L3.34523 1.37476C3.18849 1.81867 3.52691 2.03894 3.49128 2.59087C3.49128 2.67526 3.46991 2.62379 3.43429 2.60522C3.61597 3.05251 3.3666 3.49136 3.60884 3.92683L3.5091 3.78505C3.58747 4.08127 3.77271 4.66021 3.95439 5.2383L4.02919 5.24337C4.07194 5.17923 4.06838 5.39612 4.02919 5.51258C4.11825 5.8029 4.20018 6.0814 4.26074 6.3101C4.31655 6.21952 4.34867 6.1282 4.35693 6.03667C4.26787 5.94553 4.33912 5.41384 4.14319 5.48727C4.26431 5.24168 4.09332 4.84588 4.16812 4.66528C4.03988 4.99356 3.98288 4.43656 3.87245 4.37833C3.99713 4.26862 3.87245 3.89138 4.03276 3.93442C3.9895 4.03458 3.9895 4.13554 4.03276 4.2357C4.18594 4.58003 4.16812 3.60529 4.31418 4.03485C4.19662 3.48882 4.25006 2.76894 4.09688 2.20773L4.02919 2.52251C4.05057 2.26933 4.02919 1.67857 4.09688 1.63638C4.11469 1.82204 4.09688 2.03978 4.14675 2.27693C4.33199 2.28874 4.14675 1.70558 4.26074 1.67942L3.95082 0.989082L3.95082 1.29121C3.83683 1.10048 3.9722 0.468368 4.0007 -1.55434e-05C4.25718 0.268356 4.0007 0.707206 4.11113 1.20007C4.20731 1.55789 4.35693 0.97895 4.42105 1.31737C4.48255 1.17709 4.48255 1.03568 4.42105 0.895401L4.46736 0.761215C4.70247 1.06419 4.64904 1.74187 4.85209 2.19591C4.83759 2.16724 4.81134 2.13898 4.77372 2.11152C4.67611 2.46098 4.65827 2.81145 4.72028 3.16138C4.77011 3.04408 4.77011 2.9259 4.72028 2.80861C4.77728 2.79595 4.80222 3.11581 4.86634 3.23649C4.93402 2.9217 5.00527 3.17741 5.04089 2.97824C5.09789 3.18332 5.08008 3.34957 5.0587 3.60023C4.96965 3.72935 4.93402 3.49304 4.82003 3.51583C4.89127 3.76901 4.61341 3.89138 4.74522 4.26778C4.79509 3.76648 4.99814 4.40028 5.07651 4.57328L5.07651 4.48888C5.21233 4.62156 5.21842 4.75983 5.09433 4.89313C5.03733 4.68722 5.07651 4.48888 4.93758 4.54712C4.93758 4.68299 4.93758 4.81802 4.99102 4.96909L4.89127 4.82984L4.92334 5.50499C5.04645 5.63323 5.2035 5.75951 5.39356 5.88307C5.32508 6.06285 5.33344 6.24381 5.4185 6.42319L5.36862 6.35146C5.26532 6.64852 5.35081 7.31017 5.45768 7.36418C5.3615 7.57686 4.77372 5.86366 4.87346 7.36418C4.87346 7.93468 5.22969 7.71948 5.33656 8.04524C5.33656 8.04524 5.30094 8.02668 5.27957 8.05875C5.25107 8.31193 5.38287 8.33387 5.43987 8.53894C5.49035 8.39375 5.49035 8.24783 5.43987 8.10263C5.58236 8.17774 5.43987 8.6225 5.53962 8.81407C5.31875 8.56595 5.45768 9.2968 5.34369 9.10354C5.23476 9.53503 5.30156 9.96799 5.54318 10.3965C5.26532 10.734 5.5788 10.9872 5.45056 11.5341C5.45056 11.4497 5.4185 11.2978 5.45056 11.1796C5.27244 10.8682 5.35794 11.7468 5.19763 11.264C5.22257 11.367 5.29025 11.2716 5.26175 11.1661C5.24394 10.9821 5.16557 10.8091 5.08364 10.8547L4.93046 11.3012L4.88771 11.145L4.67041 11.8202C4.70603 11.8379 4.74878 11.7746 4.77015 11.7425C4.67753 12.5266 4.79865 13.4237 4.77015 14.1106C5.26888 14.2397 4.98389 15.8027 5.29025 16.358C5.14776 16.2095 4.89484 16.1276 4.79153 16.2205C4.67755 16.0021 4.61807 15.7823 4.61341 15.5622C4.69178 15.5175 4.78084 15.1698 4.87346 15.3934C4.81647 14.617 4.65616 15.4981 4.47092 15.2693C4.51723 16.1293 4.80934 16.634 4.9269 17.1766L4.8699 17.1902L4.98033 17.6003C5.01239 17.2627 5.29382 17.2821 5.19763 17.7134L5.19763 17.6611C5.08008 17.9075 5.21901 18.4206 5.19763 18.8046L5.35794 19.0654C5.34013 19.4502 5.03733 19.4671 4.85565 19.592C4.83428 20.1963 5.08364 20.5448 5.21188 20.9735C5.08008 21.1676 5.04802 22.0706 4.88771 21.593C5.00527 22.1373 5.71417 22.0276 5.32231 22.9618L5.19407 22.7188C5.21901 23.6125 5.47549 24.886 5.34012 25.2979C4.88059 24.9679 4.87346 26.4135 4.42105 26.5722C4.52435 26.5275 4.55998 26.8634 4.61341 26.9098C4.54002 27.0177 4.54002 27.1277 4.61341 27.2355C4.70603 26.887 5.08008 27.4803 4.8984 26.8136C5.20832 27.1511 5.45056 27.5849 5.43275 28.3225L5.2475 28.3116L5.3045 27.7276C5.16557 27.7866 5.17626 27.4862 5.11214 27.363C5.00527 28.4491 4.67041 27.2203 4.69535 28.331C4.81646 28.439 4.76659 28.3689 4.81646 28.6576C4.81646 28.5217 4.6811 28.4981 4.67753 28.7167L4.83071 28.9344C4.51723 29.3218 4.62766 28.2922 4.4068 28.623C4.26074 28.1943 4.18237 27.4516 3.94013 27.59C3.85464 28.2905 4.38899 28.2196 4.29637 28.9521L4.19306 29.0298C4.24527 29.1788 4.35739 29.3263 4.52792 29.4703C4.47092 29.4829 4.42817 29.5488 4.41036 29.7142C4.6526 30.1488 4.69891 30.4374 4.96252 30.8392C4.76303 29.7707 5.1442 29.926 4.96252 28.8238C5.04089 28.9926 5.09789 29.7724 5.35794 29.8197L5.16913 29.8096C5.29683 30.1978 5.34083 30.5874 5.30094 30.9767L5.19407 30.7016C5.32588 31.2983 4.90908 31.6932 5.22257 32.1641C5.24038 31.9953 5.22257 31.8629 5.20476 31.7599C5.29025 32.0671 5.26888 32.4528 5.23682 32.7861L5.54318 33.4765C5.44699 33.4706 5.44343 33.9086 5.29381 33.6976C5.15132 34.1947 5.43274 34.4284 5.47905 34.7162C5.27956 35.2226 5.39 34.2748 5.12282 34.225C5.03072 34.8388 5.08424 35.4533 5.28313 36.0657C5.32231 35.9222 5.35437 35.853 5.39712 35.8606C5.34632 36.0139 5.33205 36.1677 5.35437 36.3214L5.47549 36.4302C5.39356 36.6927 5.32231 36.6556 5.22969 36.4302C5.20476 36.6834 5.43987 36.9805 5.26532 37.2387C5.1157 36.8109 5.24394 36.2648 5.15488 36.0412C5.27244 36.9366 4.79865 36.9425 4.93758 38.0768C4.87702 38.0911 4.76303 37.8987 4.76303 38.1173C4.80934 38.6236 5.01595 38.2498 5.15132 38.4076C5.06709 38.1413 5.11732 37.8736 5.30094 37.6101L5.40068 37.7147C5.35081 37.7299 5.34725 37.9746 5.29738 38.0472L5.50043 38.1105C5.276 38.081 5.10501 38.4726 5.19051 38.7806C5.35081 38.4692 5.34369 38.5536 5.59661 38.4692C5.83885 38.9021 5.3615 38.9578 5.61442 39.4423C5.54318 39.406 5.48974 38.9823 5.43631 39.3486C5.43631 39.6516 5.60017 39.611 5.65717 39.8144C5.46837 39.5857 5.333 39.6456 5.11214 39.3967C5.0872 38.8582 5.11214 39.1789 5.0302 38.6532L4.87346 39.0988C4.84496 38.6422 4.65972 38.7671 4.58848 38.7291C4.39967 39.5081 4.87346 39.3199 4.82359 39.8178C4.95183 40.0592 4.85209 39.3477 4.98389 39.7258C4.95539 40.1942 5.10501 39.833 5.18694 40.3588L5.10145 40.2744C4.99102 40.4347 5.12638 40.5942 5.1442 40.7807C5.18694 40.9833 5.78898 40.5478 5.80322 41.3918C5.74979 41.3504 5.71773 41.3352 5.69636 41.3352L4.11825 40.5107C4.11825 41.3631 4.07906 42.3454 3.97219 43.3328C3.66584 43.5657 3.71927 42.6281 3.5839 42.6889L3.65871 42.2357C3.79052 42.261 3.6979 43.1792 3.92945 42.7724C3.83683 41.9774 3.98288 41.6171 3.71571 40.8626C3.40935 41.0964 3.7727 41.8559 3.53403 42.3462C3.5554 42.1403 3.53403 41.9665 3.47703 41.7977C3.43903 42.2585 3.39629 42.7513 3.34879 43.2763L3.40579 43.3961C3.43785 43.0433 3.46635 42.7986 3.47703 42.7674C3.44853 43.2358 3.61953 43.6307 3.83326 43.6619L3.83326 43.5775L3.90451 43.7463L3.89739 44.0772ZM3.84395 74.4471C3.82942 74.4239 3.8031 74.4013 3.76558 74.3796C3.79764 74.3965 3.81901 74.3779 3.84395 74.4471ZM3.13149 34.9019C3.09586 35.5264 3.03531 36.1568 3.01037 36.7585C3.4521 35.6741 3.78695 34.9128 3.77983 36.7214L3.81189 36.8396C3.86533 36.6032 3.87245 36.1956 3.84039 35.8125C3.68365 35.5019 3.10655 34.5002 3.05312 34.5111C2.932 34.6217 3.05312 34.7812 3.02818 34.9812L3.13149 34.9019ZM3.87245 34.458C3.92232 34.1035 3.82258 34.1845 3.73352 34.1297C3.73352 34.2537 3.75846 34.3786 3.76914 34.501C3.80477 34.4546 3.83683 34.431 3.8867 34.458L3.87245 34.458ZM3.64802 34.1508C3.64802 34.1904 3.64802 34.2242 3.64802 34.2419L3.64802 34.1508ZM3.53403 41.0381C3.53403 41.0221 3.53403 41.017 3.53403 41.0019C3.53403 41.0862 3.53403 41.1706 3.51266 41.255C3.53759 41.223 3.54828 41.158 3.54828 41.0381L3.53403 41.0381ZM3.76202 40.3191L3.59815 40.2347C3.59815 40.3124 3.59815 40.3925 3.58034 40.4735C3.70001 40.427 3.7629 40.3736 3.76202 40.3191ZM4.29637 38.0093C4.104 37.8632 4.09331 37.3755 3.86889 37.3459C3.81189 37.3147 3.79052 37.4177 3.77271 37.5324C3.77271 37.6607 3.7727 37.7983 3.75489 37.9434C3.78695 37.9485 3.81545 37.9772 3.84751 38.0278C3.87245 37.8835 3.92945 37.7881 4.06838 37.8464C3.76558 38.2152 4.28212 38.1772 4.20375 38.5764C4.36049 38.7013 4.36049 38.1299 4.29637 38.0093ZM3.71215 7.32368C3.73352 7.31271 3.78339 7.27389 3.84752 7.21903L3.95795 7.50005C3.90807 8.00136 3.60172 8.40392 3.86176 8.85542C3.81021 9.00211 3.69075 9.14702 3.50553 9.28752C3.50553 9.18372 3.52691 9.08751 3.54472 9.00648C3.15999 7.74058 3.99357 8.34653 3.71215 7.32368ZM3.32029 13.0911C3.31971 13.0672 3.30163 13.0435 3.26686 13.0211C3.68009 14.1418 3.79764 15.0609 3.78339 15.6685C3.94726 15.5512 4.07194 15.0094 4.13962 14.752L4.32487 14.9799L4.17881 15.1225L4.3498 15.5183C4.47448 15.4078 4.44598 15.0879 4.54217 14.8744C4.50654 14.8558 4.28924 14.1714 4.18594 13.9798L4.05769 14.5267C4.11113 14.379 4.05769 13.6541 4.01851 13.3663C3.92589 13.3604 3.78339 13.8566 3.98645 13.919C3.84751 13.9773 3.84751 13.4059 3.6979 13.7671C3.60323 13.2922 3.6175 12.8163 3.74065 12.3417L3.97576 12.2886C4.06482 11.9417 3.69434 12.0539 3.8297 11.6413C3.87245 12.1476 4.08263 11.5569 4.10044 11.9594C4.1895 11.8303 4.34624 11.9594 4.32843 11.5527C4.02207 11.2151 4.52079 11.1307 4.25006 10.8091C4.34624 10.5965 4.4353 11.0378 4.47805 10.6201C4.31418 10.1407 4.20018 10.1686 3.97576 10.1391C3.91164 10.5863 4.26787 10.6454 4.21087 11.0083L3.8297 10.28C3.77664 10.385 3.75403 10.4907 3.76202 10.5965C3.74643 10.47 3.69406 10.344 3.60528 10.2192C3.56253 10.1585 3.52334 10.1028 3.49128 10.0504C3.49128 10.4631 3.49128 10.8302 3.38798 10.8944L3.28111 10.837C3.20862 11.0017 3.22778 11.168 3.3381 11.3315C3.3381 11.702 3.50197 12.0717 3.35948 12.1518L3.2633 12.0117C3.30248 12.4683 3.31673 12.519 3.32029 13.0911ZM3.07093 28.0001C3.46991 27.725 3.82258 27.4212 3.75133 26.135L3.77983 26.2363C4.02919 25.5882 3.44853 24.9704 3.7264 24.1839C3.80274 24.4477 3.9623 24.7097 4.20375 24.9679L4.09331 24.5577C4.31062 24.6717 4.19662 24.2624 4.20731 23.9611L4.47448 24.2269C4.3982 24.4382 4.38511 24.6506 4.4353 24.8624C4.4068 24.7594 4.10756 25.481 4.18237 25.8751C4.35693 25.8346 4.28568 25.0067 4.57423 25.3763C4.45311 25.0506 4.62766 25.0101 4.57423 24.67C4.69178 24.9966 4.80934 24.7544 4.93046 24.994L4.8699 24.4354C4.93046 24.421 5.00171 25.2489 5.22613 24.7915C5.13351 24.5679 5.2475 23.9703 5.06226 23.9594L5.11926 23.9459C5.15845 23.5239 4.85209 23.7619 4.95896 23.2479C4.86634 23.242 4.79865 23.3399 4.82003 23.5239C4.92848 23.6893 4.99392 23.8562 5.01595 24.0235C4.8699 24.1678 5.03733 23.6378 4.78797 23.8598C4.66328 23.9703 4.89484 24.7037 4.61341 24.4716L4.65616 24.0497C4.46736 24.0387 4.47804 23.7366 4.32486 23.745C4.25718 23.4918 4.46736 23.2488 4.30349 22.9855C4.18237 22.8766 3.94726 23.0656 4.05413 22.6344C4.33555 22.2968 4.27855 21.3035 4.23937 20.9322L4.11825 20.6064C4.00426 20.6334 4.11825 21.2284 3.98644 21.0191L3.94013 20.5127L4.01138 20.5524C4.02919 20.3836 3.95082 20.2148 3.90807 20.0587C4.047 20.2165 3.99001 20.5828 4.18593 20.5094C4.24684 20.3452 4.27181 20.1804 4.26074 20.0157C4.26074 20.0638 4.2928 20.1051 4.3213 20.1001C4.4068 19.6173 4.10044 19.6342 4.03988 19.5093C3.78339 19.024 3.8012 19.9979 3.59815 19.9363L3.49128 18.5194C3.5554 18.64 3.61953 18.7624 3.6979 18.7168C3.79052 18.3691 3.85108 18.7084 3.84039 18.2206C3.57322 18.2552 3.67652 17.6062 3.51978 17.2619C3.63021 17.1007 3.65159 17.0678 3.65515 17.4197C3.8297 17.3792 3.76202 16.9066 3.77983 16.7386C3.73352 16.6416 3.70858 16.4753 3.6694 16.3698C3.5839 16.5108 3.47703 16.4542 3.40223 16.1454L3.36304 16.1276C3.31673 16.6281 3.12793 17.4062 3.30604 17.7193L3.22055 17.6307C3.06737 18.2105 3.53047 18.8915 3.20274 19.1582C3.07449 19.1337 3.17424 19.2747 2.98543 19.2645L3.13149 19.6865L3.04599 19.6021L3.08874 20.3279L3.05312 20.3085C3.22411 20.6537 3.36304 20.9237 3.47703 21.1389C3.55897 21.1389 3.5839 21.1178 3.64446 21.2326C3.67911 21.326 3.69101 21.4199 3.68009 21.5136C3.65515 21.6909 3.53759 21.8099 3.49128 22.0293L3.46991 21.3541C3.33098 21.2993 3.18492 21.3541 3.08874 21.6917C3.08874 21.5567 2.97475 21.5001 2.9605 21.6672C2.99612 21.6858 3.04956 22.1095 3.15999 21.9474C3.20986 22.5888 2.84294 23.626 3.11011 24.5991C2.94981 23.9003 2.92131 25.1595 2.86431 24.383C2.64345 24.9248 3.08518 24.8489 3.04956 25.4017C2.97118 25.4481 3.04956 25.1004 2.9035 24.9738C2.81444 25.892 3.25973 26.5224 3.19561 27.4111L3.02106 27.4491C3.02106 27.6195 3.04956 27.8044 3.07093 28.0001ZM3.28823 29.7572C3.28823 29.926 3.32742 30.1016 3.34879 30.2771C3.34879 30.2602 3.34879 30.2442 3.34879 30.2265L3.48772 30.7396C3.5554 30.4239 3.74777 30.2163 3.84395 30.6552C3.77271 30.618 3.68365 30.7472 3.6409 30.5936C3.53759 30.8898 3.43785 31.5388 3.6979 31.37C3.4521 30.8012 4.03275 31.2375 3.85108 30.7902C4.02207 31.0299 3.9437 31.2679 4.0185 31.494C3.87601 31.2586 3.69433 31.5489 3.62665 31.9034C3.6694 32.0578 3.62665 32.4747 3.6979 32.7304C3.8582 32.6393 3.95082 32.8629 3.99001 32.4452C4.05278 32.6635 4.05278 32.8826 3.99001 33.1009C3.96507 32.9954 3.9437 32.8114 3.8867 32.8241C3.73708 32.9929 3.74421 33.1963 3.68365 33.3068C3.68365 33.3912 3.68365 33.4841 3.70858 33.571C3.71878 33.5493 3.73666 33.5278 3.76202 33.5068L3.90451 33.7997C3.8297 33.4089 3.97932 33.6191 4.07194 33.6242C3.88314 33.614 4.047 33.8773 4.05413 34.0098L4.25362 33.7187C4.35336 33.8596 4.10756 34.2149 4.30705 34.1406C4.38542 33.5246 4.3498 33.2874 4.30705 32.7296L4.15031 32.9557C4.04344 32.327 4.41748 32.5684 4.41036 31.8586C4.26787 31.5649 4.41036 30.797 4.11825 30.7826C4.20375 30.867 4.36761 30.3429 4.23937 30.1016C3.98288 29.834 3.94726 29.0255 3.8297 29.2711C3.8297 29.4889 3.96863 29.7834 3.8012 29.9589L3.74777 29.537L3.60528 29.8146C3.63021 29.6771 3.49484 29.6906 3.28823 29.7572ZM1.70656 39.2397C1.70656 39.2439 1.70656 39.2507 1.70656 39.2557L1.70656 39.2397Z" fill="#333531"/>
</svg>
