<svg width="10" height="46" viewBox="0 0 10 46" fill="none" xmlns="http://www.w3.org/2000/svg">
<path d="M6.39461 27.5664C6.3648 27.602 6.42081 27.6379 6.55875 27.6714L6.55875 26.8475C6.44077 26.8731 6.29715 27.1105 6.23047 26.9521C6.12315 27.0579 6.16971 27.1647 6.36896 27.2694L6.19456 27.21C6.41513 27.3996 5.97399 27.5292 5.84063 27.4056L5.84063 27.4214L6.70237 27.9456C6.75367 27.7546 6.40487 27.7987 6.39461 27.5664Z" fill="#E5AB7E"/>
<path d="M6.90832 28.0705L7.18018 28.235C7.1207 28.1798 7.02996 28.1249 6.90832 28.0705Z" fill="#E5AB7E"/>
<path d="M7.92388 31.8096C7.92388 31.8273 7.92388 31.8426 7.92388 31.8635C7.93927 31.844 7.93414 31.8264 7.92388 31.8096Z" fill="#E5AB7E"/>
<path d="M6.67738 28.0098C6.80128 28.0284 6.87997 28.0491 6.9082 28.0707L6.70303 27.9475C6.70303 27.9652 6.68764 27.988 6.67738 28.0098Z" fill="#E5AB7E"/>
<path d="M5.8916 27.7303L5.84031 27.4213L5.65565 27.3075C5.72233 27.426 5.77362 27.564 5.8916 27.7303Z" fill="#E5AB7E"/>
<path d="M8.13368 31.3224C8.19011 31.9618 7.71307 31.1654 7.62074 31.459C7.67203 31.6366 7.87208 31.6993 7.93363 31.8099C7.76436 31.3029 8.59533 31.8787 8.48761 31.367C8.8518 31.44 8.88258 31.736 8.78512 31.9093C8.43632 32.1059 8.52865 31.7379 8.18498 31.6932C8.2414 31.8986 8.30808 31.8624 8.503 31.9498C8.42093 32.2718 8.92874 32.6161 8.44658 32.809C8.52352 33.0413 8.69279 33.0269 8.87745 33.1607C9.24677 33.1877 9.07237 32.8141 9.36475 32.7276C9.33397 32.7453 9.27242 32.7801 9.21599 32.7699L9.29806 32.5687C9.1647 32.7597 8.92362 32.5418 8.89284 32.4395C8.89284 32.3652 8.89284 32.2174 8.97491 32.2374L9.05185 32.3503C9.16983 32.2053 8.77999 32.0301 8.98517 31.8773C9.06724 31.8689 9.10827 31.927 9.15957 31.9358C8.9031 31.7643 8.91849 31.5984 8.73896 31.3447L9.10827 31.492C8.69792 31.2885 8.8159 30.8285 9.03133 30.5097C8.96978 30.545 8.92362 30.6087 8.8518 30.5706C8.7646 30.3847 9.02107 30.2416 9.21599 30.3285C8.90823 30.1454 9.47246 29.6314 9.07237 29.3819L7.18987 28.2351C7.23603 28.2778 7.27194 28.3238 7.28733 28.3712C6.96417 28.4758 7.00521 28.532 6.69744 28.3489C6.86671 28.5283 7.12831 28.46 7.1437 28.7295C6.97956 28.6235 6.60511 28.597 6.56921 28.8549C6.89236 29.5004 7.82079 29.9279 8.2927 30.5301C8.04135 30.5524 8.11316 31.0255 8.05161 31.2555C7.78488 31.1677 7.70794 30.9971 7.65152 30.8201C7.65152 30.9312 7.62587 31.1226 7.61561 31.2643L8.13368 31.3224Z" fill="#E5AB7E"/>
<path d="M7.29199 29.8243C7.26635 29.8406 7.25609 29.8568 7.24583 29.874C7.27513 29.8576 7.29056 29.841 7.29199 29.8243Z" fill="#E5AB7E"/>
<path d="M7.65186 30.7659C7.65186 30.7636 7.65185 30.7659 7.62108 30.7636C7.62108 30.7822 7.62108 30.8008 7.62108 30.8198C7.6416 30.8008 7.64673 30.7799 7.65186 30.7659Z" fill="#E5AB7E"/>
<path d="M6.10742 28.161C6.03561 28.1224 6.01509 28.0941 5.94328 28.056C5.94328 28.0797 5.98944 28.1089 6.00996 28.1378C6.03048 28.1666 6.07665 28.1777 6.10742 28.161Z" fill="#E5AB7E"/>
<path d="M6.54901 28.0314L6.6516 28.0521C6.6516 28.0357 6.6516 28.0239 6.67725 28.0089C6.62082 28.0046 6.57466 28.0093 6.54901 28.0314Z" fill="#E5AB7E"/>
<path d="M5.86683 33.7656L5.91812 33.8269C5.92922 33.8063 5.91199 33.7857 5.86683 33.7656Z" fill="#E5AB7E"/>
<path d="M7.70752 32.0345C7.70752 31.8124 7.33307 32.008 7.33307 31.6935L7.33307 31.7864C7.17406 31.5606 7.24587 31.1642 7.23561 30.8961C7.38437 30.9263 7.41514 30.7334 7.64597 30.7645C7.66175 30.6109 7.54686 30.4575 7.3023 30.3054C7.37924 30.1916 7.16893 30.0192 7.27152 29.8747C7.12789 29.936 6.79448 29.6693 6.96888 30.0206C6.96888 29.9922 6.91759 30.0099 6.89707 29.982C6.70215 30.2083 7.03044 30.2994 7.03556 30.4932C6.89707 30.6098 6.815 30.3027 6.75858 30.4128C6.88681 30.6563 6.5893 31.1767 7.11251 31.1605C7.18 31.2457 7.12134 31.3313 6.93811 31.4151C7.49208 31.6939 6.70215 32.4555 7.41001 32.4528C7.37924 32.3505 7.41001 32.1837 7.24587 32.0345L7.70752 32.0345Z" fill="#E5AB7E"/>
<path d="M8.2006 25.7284L8.66225 25.8213C8.7751 26.3506 8.66225 26.5421 8.66225 27.0054C8.59557 27.0407 8.55966 26.9845 8.53914 26.9556C8.59044 27.2809 8.49298 27.7684 8.70841 28.0054C8.70841 28.109 8.55453 28.3808 8.42116 28.2777C8.4622 28.3283 8.49811 28.3859 8.48785 28.4436C8.31858 28.4589 8.43655 28.3139 8.30319 28.3107C8.26347 28.3353 8.26347 28.3604 8.30319 28.385C8.15956 28.3079 7.73895 28.4654 7.74921 28.1062C8.13905 27.9668 7.79537 28.3562 8.22625 28.274C8.22625 28.1541 8.0621 28.168 8.01081 28.1578C8.01081 28.0054 8.12879 28.0096 8.22625 28.0184C8.09288 27.9603 8.27754 27.7684 8.07236 27.688C8.04159 27.3915 8.39552 27.7043 8.39039 27.5105L7.95952 27.399L8.04159 27.0769C7.8877 26.6122 7.28756 27.1438 7.04135 26.6122C7.26704 26.6819 7.65175 26.4687 7.73895 26.221C7.73895 26.3692 8.04159 26.6429 7.91335 26.8344C8.25189 26.5648 7.95439 27.2061 8.34422 27.0667C8.16094 26.8909 8.12322 26.7142 8.23138 26.5379L8.27241 26.5946C8.31858 26.4087 7.86206 26.2693 8.03646 26.0161C8.03646 25.8897 8.14418 25.9134 8.24676 25.9357C8.19034 25.8241 8.10314 25.7284 8.2006 25.7284ZM8.2878 26.004L8.24676 26.1731C8.31547 26.117 8.3292 26.0603 8.2878 26.004Z" fill="#E5AB7E"/>
<path d="M5.61025 27.2399C5.61025 27.2618 5.64103 27.2841 5.65641 27.3073L5.59486 27.2724C5.59486 27.331 5.55382 27.3891 5.52818 27.4476C5.52818 27.4685 5.55896 27.4918 5.56408 27.5197C5.56152 27.5109 5.54243 27.5023 5.50766 27.4941C5.50766 27.5132 5.50766 27.5317 5.48201 27.5503C5.71284 27.6897 5.87698 28.0373 5.99496 28.1377C6.09241 28.2701 6.14884 28.4323 6.12832 28.5341C6.12832 28.4411 6.08729 28.3147 5.96418 28.3524C5.83081 28.5438 5.45124 28.6368 5.77952 28.9676L5.77952 28.7734L6.26682 29.2097C6.06677 29.3621 6.02573 28.9918 5.8462 28.9309C6.08729 29.2701 5.44611 29.5517 5.8462 29.7093C5.59999 29.7311 5.17938 29.7683 5.20502 29.9909C5.49227 29.8305 5.38968 30.1242 5.71797 29.9909C5.86159 30.0675 5.63077 30.239 5.81543 30.252L5.71284 30.2311C5.31787 30.6107 5.93853 30.7353 6.14371 30.8979C6.2463 31.3524 6.08216 31.5615 6.14371 31.9323C5.97957 31.9472 5.51792 32.048 5.53331 32.1967C5.759 32.266 5.86672 32.6019 6.15397 32.6358C6.27707 32.37 5.91288 32.4184 5.8462 32.259C6.14884 32.1265 6.14371 32.2469 6.32837 32.0661C6.21039 32.2121 6.48738 32.7265 6.20013 32.8863L6.1591 32.8301C5.9847 33.0852 5.26658 33.134 5.70258 33.5601L5.88211 33.7632C5.86227 33.7573 5.831 33.7518 5.78978 33.7469C5.76413 34.0796 5.43072 33.9885 5.69232 34.3556C5.69232 34.3273 5.64102 34.345 5.62051 34.3161C5.45636 34.5257 5.78465 34.7367 5.85133 34.8947C5.61025 34.9913 5.61538 34.8719 5.44098 34.812C5.40604 35.1441 5.61166 35.4762 6.05651 35.8059L5.91288 36.0434C5.81542 35.904 5.55895 35.7306 5.39994 35.7734C5.49522 35.8698 5.53289 35.9666 5.51279 36.0634C5.29383 35.9993 5.12247 35.9339 4.99985 35.8677C4.73824 36.2492 5.54869 35.9528 5.07166 36.22C5.07166 36.3399 5.29735 36.4096 5.48201 36.4226L5.2358 36.64C5.47688 36.6642 5.49227 36.9323 5.52818 37.108C5.63077 37.1294 5.77952 36.9686 5.68719 36.8998C5.87698 36.9128 5.96418 37.1001 5.95905 37.2204C5.44611 37.2641 6.03086 38.0076 5.44611 37.8654C5.61025 38.4054 5.66154 39.1642 5.87185 39.5211C5.73335 39.6387 5.72309 39.878 5.49227 39.7344C5.49227 40.1693 6.00521 40.3938 5.86672 40.825C5.80517 40.8608 5.86672 40.6298 5.69232 40.6452C5.89237 40.9272 5.48201 41.1586 5.61538 41.5964C5.64626 41.5605 5.59024 41.5245 5.45123 41.4909C5.53331 41.4835 5.62564 41.6703 5.70258 41.7836C5.66154 41.8473 5.64615 41.6986 5.57947 41.7344C5.33839 42.5801 6.01547 43.2242 5.99495 44.0652C5.99495 43.825 5.6718 43.7339 5.53331 43.7316L5.53331 43.9691C5.69745 44.062 5.69745 44.2362 5.82055 44.384C5.759 44.4021 5.69232 44.4742 5.61538 44.4007C5.28196 44.8654 6.22065 45.1266 6.04625 45.6963L5.37942 45.0067L5.1486 45.1772L4.84083 44.8743C4.6613 45.055 5.08191 45.2126 4.84083 45.2344C4.76902 45.1963 4.79467 45.1038 4.65617 45.101C4.55871 45.2748 4.7485 45.2869 4.79467 45.4193C4.28172 45.075 4.28172 44.3998 4.16888 44.0364C4.12784 43.9793 4.29198 44.0829 4.34328 44.0954C4.34328 43.9472 4.4869 43.858 4.39457 43.6717C4.17914 43.5555 4.23556 43.7599 4.21504 43.852C4.02525 43.8394 4.04064 43.7929 4.00986 43.6907C4.26121 43.6684 4.09706 43.128 4.40483 42.9937C4.32789 42.4463 3.75852 43.081 3.86624 42.5471L4.15349 42.3873C3.92779 42.0769 3.73288 41.6758 3.79443 41.325L3.79443 41.3989C3.91753 41.4481 3.99448 41.3668 4.05603 41.3306C4.17914 41.0652 3.83033 40.8269 4.11758 40.6661C3.80982 40.3636 3.60464 39.8589 3.43024 39.5132C3.80469 39.4202 3.74826 39.9644 3.98422 40.1084L3.98422 39.7948C3.96149 39.9251 4.0835 40.0552 4.34841 40.1833C4.42022 39.9072 4.08681 39.8162 3.98935 39.5545C4.09194 39.575 4.15862 39.5401 4.15862 39.4193L3.90728 39.3854C3.95342 39.3681 3.97241 39.3502 3.9637 39.3324L3.80982 38.8677C3.7021 38.9667 3.48666 38.9714 3.48153 39.0917C3.63029 39.0485 3.65593 39.1507 3.65593 39.2711C3.49179 39.1656 3.51744 39.3882 3.37895 39.3859C3.37895 39.1447 3.3533 38.8482 3.28662 38.6888L3.51744 38.6377C3.57386 38.4054 3.44563 38.1647 3.51744 38.009L3.64055 38.0583C3.71236 37.7822 3.5636 37.5104 3.7893 37.2655C3.52257 37.0197 3.302 36.7079 3.03014 36.5085C2.73264 36.4012 3.40459 35.7869 2.98398 35.5095C3.01476 35.4904 3.20967 35.7 3.32252 35.7943C3.36869 35.6084 2.99424 35.463 3.32252 35.4054C3.21993 35.8194 3.57386 35.3831 3.66619 35.5699C3.66619 35.3756 3.59951 35.1712 3.49179 35.0764C3.49179 35.39 3.05579 34.9648 3.19429 35.2822C2.91336 34.9913 2.82429 34.6991 2.92756 34.4072C3.06092 34.41 3.12247 34.3738 3.1789 34.2646L2.98398 34.1763C3.01989 34.0392 3.2148 34.4416 3.28662 34.1651C2.94807 33.8812 3.4764 33.3092 2.85574 33.1846C3.10196 32.9681 3.10196 33.5968 3.40459 33.2706C3.63029 33.4602 3.37382 33.7223 3.68158 33.785C3.59438 33.5991 3.94318 33.7172 3.94831 33.5968L3.75852 33.3896L3.75852 33.436C3.46615 33.0875 3.60977 32.5355 3.55848 32.0884C3.24558 31.7116 2.79419 31.4523 2.8301 31.0002C3.00963 31.1335 3.0045 30.6247 3.34304 30.9072C3.50718 30.6981 3.34304 30.4913 3.1789 30.489C3.13273 30.6749 3.13786 30.5541 3.07118 30.7088C2.9185 30.5609 2.90135 30.4122 3.01989 30.2641C3.01989 30.3106 3.01989 30.2924 3.0917 30.3027C3.19942 30.0829 2.92756 30.1972 2.86087 30.0383C3.0917 29.9881 2.92243 29.6874 3.0404 29.5424L2.71212 29.3324C2.92756 29.4476 2.78906 29.1307 2.98911 29.0977C2.73284 28.9298 2.61283 28.7603 2.63005 28.5908C2.7429 28.6837 2.78906 28.3807 3.00963 28.377C3.21993 27.9834 2.41461 27.7264 2.72751 27.3547C2.7788 27.3663 2.92243 27.4416 2.97372 27.3329C2.9173 27.2469 2.94294 27.0968 2.9173 27.0053L2.9173 27.008C2.9173 27.008 2.9173 27.0053 2.9173 27.0029C2.9173 26.9565 2.87626 26.93 2.82497 26.929C2.51574 26.7477 2.31029 26.565 2.20944 26.3816C1.95809 26.4044 2.05555 26.6656 2.13762 26.7785L2.33767 26.8765C1.96322 26.9695 2.40435 27.1553 2.27612 27.2264C1.83499 27.0406 1.94271 26.5066 1.67085 26.1865C1.32204 26.3816 1.26562 26.8068 1.31179 27.1777L1.46054 27.0141L1.46054 27.2083L1.72727 27.0224C1.68111 27.2083 1.72727 27.3649 1.72727 27.5308C1.72727 27.3366 2.06581 27.2608 2.01452 27.371C1.76831 27.5875 2.17353 27.5968 2.15814 27.7622C2.18379 27.6693 2.18379 27.5499 2.32741 27.6275C2.02991 27.9527 2.22482 28.042 1.90167 28.3394C2.32228 28.3022 1.9427 28.7111 2.28638 28.7548L2.32228 28.6154L2.57362 28.9077C2.23508 29.1777 2.22482 28.6688 1.98887 29.0796C1.9427 29.4583 2.38384 29.4486 2.41461 29.7464C2.07787 29.5564 1.92682 29.364 1.96322 29.1716L1.84525 29.3171C1.70162 29.2404 1.7324 28.9077 1.74779 28.7422C2.0299 29.0159 1.83499 28.614 2.05555 28.489C1.81447 28.4662 1.85038 28.6423 1.66059 28.4342C1.66059 28.6289 1.68623 28.6577 1.5939 28.9049C1.70162 28.37 0.762937 28.4239 0.968114 27.9565C1.07583 28.1721 1.31179 27.8816 1.42976 27.8556C1.39899 27.7543 1.34256 27.5485 1.28101 27.4644L0.937337 27.5406C0.788584 27.2683 1.51696 27.1739 1.16303 26.8598C0.957854 26.8189 1.09122 27.1363 1.05019 27.0796C0.834749 26.6498 1.39386 26.495 1.65033 26.1135C1.54774 26.0917 1.32717 26.0963 1.13738 25.9625C1.34256 26.0048 1.45028 25.9058 1.60416 26.0554C1.64205 25.9249 1.59238 25.7942 1.45541 25.6642C1.3323 25.93 1.1579 25.5554 1.0348 25.5066C1.0707 25.3672 1.23997 25.5485 1.30153 25.633C1.35795 25.5229 1.66059 25.3914 1.35282 25.3287C1.56826 25.3245 1.92732 25.6377 1.98374 25.8421L2.01965 25.7027C2.10925 25.7858 2.12469 25.8694 2.06581 25.9527C2.23508 25.8189 2.41974 25.8319 2.57875 25.8631C2.54798 25.8807 2.52746 25.8533 2.49668 25.87C2.44026 25.9806 2.49668 26.0652 2.61979 26.0396C2.91217 26.1386 2.79932 25.8868 2.94807 25.8119C2.94807 25.7552 2.90704 25.6986 2.88652 25.6433L1.94784 25.0703C1.88951 24.8903 1.97522 24.7101 2.20431 24.5313L1.95296 24.4806C1.97861 24.2673 2.06068 24.0661 2.37871 24.2018C2.29151 24.2097 2.31203 24.2376 2.30177 24.2841C2.34406 24.2937 2.37 24.3039 2.37871 24.3143C2.37871 24.3189 2.40948 24.3212 2.42487 24.3249C2.3428 24.0968 2.29151 23.9532 2.28125 23.9411C2.64544 24.3287 2.73777 23.9602 3.18403 24.0252L3.0404 23.634C2.89678 23.8709 2.81984 23.6381 2.75829 23.554C3.00963 23.5308 2.75829 23.2385 2.79419 23.1014L2.85062 23.1126C2.93782 22.9857 2.91217 22.7627 2.85062 22.6042C2.76342 22.6117 2.33767 22.4081 2.10685 22.3105C2.01452 22.5824 1.91193 22.4211 1.75805 22.443C1.7815 22.4148 1.7815 22.3866 1.75805 22.3584C1.68623 22.3194 1.66059 22.4114 1.57852 22.4188C1.69649 22.7078 1.72727 23.0052 2.09146 23.1233C2.24534 23.0345 1.93758 22.9718 2.04529 22.8728C2.28125 23.0159 2.23508 23.2009 2.22482 23.4407L2.01452 23.5196L2.12737 23.7613C2.01965 23.6604 1.79908 23.7213 1.75805 23.4676C1.558 23.4997 1.79908 23.719 1.75805 23.8742L2.04016 23.9537C1.88628 23.923 1.85551 24.2557 1.64007 24.0192L1.41437 23.6354L1.22459 23.7418L1.16816 23.4165L1.31179 23.4932C1.122 22.9713 1.87089 23.3394 1.53748 22.8143C1.19894 22.6498 1.16303 22.4732 1.2451 22.1511C1.32204 22.3835 1.48619 22.1753 1.68111 22.2627C1.77065 22.1152 1.67947 21.9673 1.40924 21.8217C1.58877 21.7613 1.73753 21.7181 1.71188 21.9304C2.08633 21.9569 1.6452 21.6516 2.02991 21.6316C2.02991 20.9286 0.788584 21.0684 1.26562 20.2464L1.42463 20.2771C1.22972 19.7552 1.42463 19.4541 1.29127 18.9708L1.68623 18.5903C1.74779 18.6753 2.04529 18.9044 2.23508 18.7975C1.83499 18.9834 1.97348 19.179 1.75805 19.3784C1.86576 19.3988 1.93758 19.3175 2.00426 19.2822C2.00426 19.4025 1.8196 19.4629 1.89141 19.6219C1.97348 19.6144 2.07094 19.4411 2.12224 19.5717L1.87602 19.7878C1.994 20.0773 2.46078 19.9304 2.34793 20.2701C2.00928 20.1642 1.81125 20.055 1.75805 19.9448C1.71188 20.1 1.62981 19.738 1.49645 19.8798C1.8196 20.1033 1.56313 20.2116 1.76831 20.509C1.69 20.4701 1.64711 20.4308 1.64007 20.3914L1.50157 20.8231C1.69136 20.7162 1.71188 21.1795 2.01452 21.1395C2.1325 20.6795 1.95809 20.8143 2.12224 20.2905C2.1835 20.4351 2.38952 20.5788 2.73777 20.7199C2.72069 20.7293 2.71211 20.7388 2.71212 20.7483C2.98911 20.8282 3.06605 20.7483 3.55335 20.7483C3.20455 20.509 3.4918 20.3491 3.29175 20.0666C3.02502 20.0136 2.9532 20.2306 3.01989 20.3705L2.84549 20.1219L2.96859 20.1711L3.05579 19.5401C3.0615 19.615 3.15783 19.6896 3.34304 19.7627C3.34304 19.6813 3.42511 19.6005 3.50205 19.5145C3.24558 19.5326 3.06605 19.5215 3.07118 19.442C3.13273 19.0359 3.35843 18.8101 3.65081 18.6604C3.65081 18.6451 3.65081 18.6274 3.65081 18.614C3.38921 18.6823 3.1789 18.3259 2.91217 18.1999C3.18403 18.206 3.07631 17.9908 3.21481 17.8747C2.90191 17.8124 2.47104 17.8956 2.2197 18.0378C2.50182 18.3124 2.50694 18.1916 2.90704 18.3217L3.1789 18.7617L2.92756 18.6632C2.81984 18.883 3.14812 19.0944 2.82497 19.0782C2.60953 18.962 2.7429 18.7701 2.52746 18.6549L2.40948 18.8003C2.09146 18.5438 2.71212 18.6688 2.49156 18.3584C2.2197 18.4727 2.49156 18.33 2.28638 18.1971C2.09659 18.304 2.36845 18.7441 1.90167 18.6507C1.69649 18.4894 2.44539 18.1075 1.98374 17.8937L2.03504 17.9039C2.10727 17.722 1.98185 17.5399 1.66059 17.3602C1.81447 17.226 1.59903 17.0405 1.58365 16.8956L1.72214 16.8988L1.66059 16.6939C1.91193 16.7915 1.66059 16.9341 1.69137 17.1121L1.94271 17.0903C1.6452 17.2933 2.10172 17.429 2.31715 17.5865C2.09659 17.357 2.37871 16.9392 1.88628 16.8853L2.14275 16.7431L2.05043 16.6753C2.24021 16.5698 2.56337 16.6753 2.59414 16.8825C2.53259 16.9183 2.50181 16.936 2.44539 16.9253C2.66254 17.0619 2.74664 17.2 2.69673 17.3379L2.56337 17.2148C2.56337 17.5015 2.64544 17.7622 2.89165 17.8602C2.99424 17.4467 3.01989 17.0396 3.0045 16.6521C2.44026 16.5377 2.11711 16.4016 1.58878 16.343C1.49132 16.0828 1.41951 15.7287 1.61442 15.5024L1.71701 15.5233C1.76582 15.4242 1.75384 15.3249 1.68111 15.2259C1.8196 15.1093 1.96322 15.3059 2.03504 15.2259L1.86064 14.8542C2.10172 14.8774 2.10172 15.1916 2.11711 15.3407C2.11711 15.3124 2.05555 15.2557 2.02478 15.2738C1.92732 15.4471 2.33254 15.7706 1.98887 15.8463C2.05042 15.9309 1.7324 15.6748 1.71701 15.9611C1.58365 16.1525 1.89654 16.2148 1.99913 16.2348C2.1325 16.238 2.18379 15.9341 2.34793 16.0396C2.25199 15.9067 2.23144 15.7735 2.28638 15.6404C2.28638 15.7882 2.57876 15.989 2.36845 16.0675C2.61979 16.3598 3.25584 16.318 3.29175 16.1804C3.0917 16.2129 3.04554 15.647 2.7788 16.0303C2.52233 15.8579 2.52233 15.5433 2.36332 15.3184L2.41461 15.3286L2.34793 15.0498C2.41974 15.0893 2.4813 15.1739 2.61466 15.1767L2.2556 14.7891C2.49669 15.0071 2.42487 14.6539 2.53259 14.5568C2.32228 14.515 2.1684 14.364 2.05043 14.5103C1.90167 14.6734 2.16327 14.6056 2.17866 14.7538L1.85551 14.5438L1.82473 14.5159L1.558 14.3895C1.558 14.1033 2.17866 14.5145 1.91706 14.1479L1.55287 14.1943C1.60417 13.7701 2.01452 13.2245 1.84525 12.9248C2.05556 13.0075 2.38897 13.0438 2.58389 12.9299C2.52233 13.0596 2.53772 13.3193 2.58389 13.5047C2.52233 13.5405 2.15301 13.2724 2.23508 13.0717C1.63494 13.1692 2.59414 13.5786 1.98887 13.6023C1.77857 14.1135 2.57363 13.9852 2.21457 14.4211C2.48643 14.4272 2.34793 14.5452 2.58902 14.5679C3.03015 14.4392 2.58902 13.9852 2.72751 13.7027C2.7393 13.7339 2.77529 13.7649 2.83523 13.7956C2.90598 13.6533 2.88028 13.5107 2.75829 13.3686L2.72238 13.3863C2.46078 13.1395 2.92756 13.2334 3.04553 13.0884C3.0045 13.0317 3.08144 12.83 2.88652 12.8626L3.14299 12.5995L2.84036 12.6121C2.84036 12.4639 3.01989 12.4313 2.84036 12.2966L2.57363 12.2905L2.4813 12.659C2.38897 12.4731 2.2197 12.607 2.16327 12.4016C2.46078 12.6311 2.31203 12.2394 2.56337 12.2157L2.40949 12.0647L2.48643 12.1033C2.62492 11.9848 2.38384 11.9639 2.41974 11.8244C2.18825 11.9828 2.1384 12.1429 2.27099 12.3021C2.11711 12.1507 1.94784 11.8505 1.94271 11.777C1.82986 11.6181 2.03504 11.5075 2.06581 11.3588C2.17353 11.6437 2.88139 11.2589 2.6916 11.8305C2.64699 11.8057 2.64699 11.7804 2.6916 11.7557C2.34793 11.8319 2.6916 12.0981 2.84549 12.2204C3.04554 12.1883 3.0917 12.3179 3.20455 12.0981C3.07631 12.1702 2.75829 11.9123 2.92243 11.7041L3.34817 11.7408L3.39947 11.4364L3.39947 11.4652C3.67133 11.3505 3.34304 11.14 3.50718 10.9309C3.3533 10.7794 3.47641 10.199 3.03015 10.449C3.29688 10.2608 2.95834 10.0958 2.90191 9.89136L2.72751 10.1474C2.41974 9.84489 2.61979 9.93179 2.1325 9.68969C2.25047 9.66552 2.34793 9.61162 2.47104 9.66041C2.47104 9.25427 2.60953 8.67388 2.26073 8.4355C2.26073 8.14925 2.77368 8.10418 2.58389 7.70222C2.52746 7.61765 2.18892 7.76821 2.31203 7.50195C2.3428 7.48429 2.62492 7.75845 2.59415 7.46198C2.26586 7.25101 2.77368 6.96616 2.49156 6.692C2.60953 6.54702 2.56337 6.29516 2.81984 6.34767C2.74437 6.54909 2.78547 6.75072 2.94295 6.95176C2.78393 6.92016 2.78906 7.11486 2.67109 6.94572C2.47104 7.29284 2.8301 7.17109 2.69673 7.48243C2.79932 7.5038 2.98398 7.32258 2.89165 7.25566C3.24558 7.25566 3.06092 7.86951 3.48667 7.59302C3.51744 7.26031 2.77881 7.16133 3.14812 6.87276C3.36356 6.98847 3.18403 7.16923 3.55335 7.31607L3.69697 7.07908L3.4405 6.90715L3.4918 6.91737C3.81495 6.49915 3.12761 6.53029 2.95321 6.15575C2.70699 6.37276 2.33767 6.10603 2.18892 6.26914C2.14276 6.01867 2.18892 5.83466 2.54285 5.83326C2.8301 6.30167 2.9173 5.85974 3.27123 6.29283C3.39947 6.22174 3.78417 6.396 3.82521 6.13763C3.57387 5.8472 3.53283 6.22453 3.41486 5.93456C3.44563 5.91783 3.48154 5.89971 3.53283 5.90993C3.34817 5.77657 3.59951 5.75426 3.39434 5.59302L3.46615 5.63112C3.68159 5.43224 3.21994 5.41365 3.46615 5.24218C3.20455 5.31049 3.25071 5.1274 3.08657 5.02099C2.98911 5.19478 2.60953 5.28865 2.63005 5.63112C2.84036 5.67248 2.95321 5.64738 3.05579 5.78818L3.03015 5.5656C3.06605 5.61207 3.11735 5.65017 3.15838 5.69432L3.05067 5.90808C2.90191 5.63716 2.68135 5.76123 2.46591 5.64599C2.55824 5.39785 2.40949 5.44153 2.46591 5.2854C2.76855 5.30073 2.97885 4.80677 3.18403 4.52099C3.18403 4.56745 3.18403 4.62276 3.18403 4.65342C3.37895 4.86114 3.4405 4.51077 3.52257 4.50287L3.36869 4.35184C3.39434 4.38019 3.46102 4.41969 3.50719 4.3551C3.45076 4.15017 3.14812 4.16225 3.0917 3.95779C3.25584 3.94245 3.51231 4.11532 3.60464 3.98799C3.7534 3.94432 4.14323 3.80491 3.99448 3.53307C3.90453 3.47628 3.86167 3.41897 3.86625 3.3616C3.86625 3.37322 3.86625 3.38716 3.86625 3.39227L4.05091 3.21197C4.33815 3.36578 3.91754 3.52285 4.20479 3.67665L4.47665 3.68967C4.47632 3.80962 4.56199 3.92945 4.73312 4.0484C4.77928 3.86253 4.70747 3.82628 4.65105 3.62136C4.82545 3.59255 4.95368 3.73706 4.96907 3.75798L4.81519 3.72731C4.5895 3.97173 5.07679 4.09301 5.0255 4.39692C5.0255 4.44339 4.99472 4.41504 4.94343 4.40482C5.20503 4.6511 4.84597 4.89274 5.19477 5.13251L5.05114 5.05445C5.16399 5.21755 5.43072 5.53633 5.69232 5.85464L5.80004 5.85742C5.86159 5.82211 5.85646 5.94153 5.80004 6.00566C5.92828 6.16551 6.04625 6.31886 6.13345 6.44479C6.21381 6.3949 6.26006 6.34462 6.27195 6.29423C6.14371 6.24404 6.2463 5.95129 5.96418 5.99172C6.13858 5.85649 5.89237 5.63856 6.00009 5.53912C5.81543 5.71988 5.73336 5.41318 5.57435 5.38112C5.75388 5.32071 5.57435 5.113 5.80517 5.1367C5.74289 5.19185 5.74289 5.24744 5.80517 5.30259C6.02574 5.49218 6.00009 4.95547 6.21039 5.19199C6.04112 4.89134 6.11807 4.49497 5.8975 4.18595L5.80004 4.35928C5.83082 4.21987 5.80004 3.89459 5.8975 3.87136C5.92315 3.97359 5.8975 4.09348 5.96931 4.22406C6.23604 4.23056 5.96931 3.90946 6.13345 3.89506L5.68719 3.51495L5.68719 3.6813C5.52305 3.57629 5.71797 3.22823 5.75901 2.97033C6.12832 3.1181 5.75901 3.35974 5.91802 3.63112C6.05651 3.82814 6.27195 3.50937 6.36428 3.69571C6.45283 3.61847 6.45283 3.54061 6.36428 3.46337L6.43096 3.38948C6.7695 3.5563 6.69256 3.92944 6.98494 4.17945C6.96406 4.16366 6.92627 4.1481 6.87209 4.13298C6.73155 4.3254 6.70586 4.51837 6.79515 4.71104C6.8669 4.64646 6.8669 4.58139 6.79515 4.51681C6.87722 4.50984 6.91313 4.68595 7.00546 4.7524C7.10292 4.57907 7.20551 4.71988 7.2568 4.61021C7.33887 4.72313 7.31322 4.81467 7.28245 4.95268C7.15421 5.02378 7.10292 4.89367 6.93877 4.90622C7.04136 5.04562 6.64127 5.113 6.83106 5.32025C6.90287 5.04422 7.19525 5.3932 7.30809 5.48846L7.30809 5.44199C7.50365 5.51505 7.51242 5.59118 7.33374 5.66458C7.25167 5.5512 7.30809 5.44199 7.10805 5.47406C7.10805 5.54887 7.10805 5.62322 7.18499 5.7064L7.04136 5.62973L7.08753 6.00148C7.2648 6.07209 7.49094 6.14162 7.76461 6.20966C7.66601 6.30865 7.67804 6.40828 7.80052 6.50706L7.72871 6.46756C7.57995 6.63113 7.70306 6.99544 7.85694 7.02518C7.71845 7.14228 6.87209 6.19897 7.01572 7.02518C7.01572 7.33931 7.52866 7.22081 7.68254 7.40018C7.68254 7.40018 7.63125 7.38996 7.60047 7.40762C7.55944 7.54702 7.74922 7.5591 7.83129 7.67202C7.90398 7.59208 7.90398 7.51172 7.83129 7.43178C8.03647 7.47313 7.8313 7.71803 7.97492 7.82351C7.65689 7.68689 7.85694 8.08931 7.6928 7.98289C7.53595 8.22048 7.63214 8.45888 7.98005 8.69479C7.57995 8.88066 8.03134 9.02007 7.84668 9.32119C7.84668 9.27472 7.80052 9.19108 7.84668 9.12602C7.59021 8.95455 7.71332 9.43829 7.48249 9.17249C7.5184 9.22918 7.61586 9.17667 7.57482 9.11858C7.54918 9.01728 7.43633 8.92202 7.31835 8.94712L7.09779 9.19294L7.03623 9.10697L6.72334 9.47871C6.77463 9.48848 6.83619 9.45362 6.86696 9.43597C6.7336 9.86766 6.908 10.3616 6.86696 10.7399C7.58508 10.811 7.17473 11.6716 7.61586 11.9773C7.41068 11.8955 7.04649 11.8505 6.89774 11.9016C6.73362 11.7813 6.64798 11.6603 6.64127 11.5391C6.75411 11.5145 6.88235 11.3231 7.01572 11.4462C6.93364 11.0187 6.70282 11.5038 6.43609 11.3779C6.50277 11.8514 6.92339 12.1293 7.09266 12.4281L7.01059 12.4355L7.1696 12.6613C7.21576 12.4755 7.62099 12.4862 7.48249 12.7236L7.48249 12.6948C7.31322 12.8305 7.51327 13.113 7.48249 13.3245L7.71332 13.468C7.68767 13.6799 7.25167 13.6892 6.99007 13.758C6.95929 14.0907 7.31835 14.2826 7.50301 14.5187C7.31322 14.6256 7.26706 15.1228 7.03623 14.8598C7.2055 15.1595 8.22626 15.0991 7.66202 15.6135L7.47736 15.4797C7.51327 15.9718 7.88259 16.673 7.68767 16.8997C7.02597 16.718 7.01571 17.5141 6.36428 17.6014C6.51303 17.5768 6.56432 17.7617 6.64127 17.7873C6.53558 17.8467 6.53558 17.9073 6.64127 17.9667C6.77463 17.7747 7.31322 18.1014 7.05162 17.7343C7.49788 17.9202 7.84668 18.159 7.82104 18.5652L7.5543 18.5591L7.63638 18.2376C7.43633 18.2701 7.45172 18.1047 7.35939 18.0368C7.2055 18.6349 6.72334 17.9583 6.75924 18.5698C6.93364 18.6293 6.86183 18.5907 6.93364 18.7497C6.93364 18.6748 6.73872 18.6618 6.7336 18.7822L6.95416 18.9021C6.50277 19.1154 6.66178 18.5484 6.34376 18.7306C6.13345 18.4945 6.0206 18.0856 5.6718 18.1618C5.5487 18.5475 6.31811 18.5085 6.18475 18.9118L6.03599 18.9546C6.11117 19.0366 6.27262 19.1179 6.51816 19.1971C6.43609 19.2041 6.37454 19.2404 6.34889 19.3314C6.69769 19.5708 6.76437 19.7297 7.14395 19.9509C6.8567 19.3626 7.40555 19.4481 7.14395 18.8412C7.2568 18.9341 7.33887 19.3635 7.71332 19.3895L7.44146 19.3839C7.62534 19.5977 7.68868 19.8122 7.63125 20.0266L7.47736 19.8751C7.66715 20.2037 7.06701 20.4211 7.5184 20.6804C7.54405 20.5875 7.5184 20.5145 7.49275 20.4578C7.61586 20.627 7.58508 20.8393 7.53892 21.0229L7.98005 21.403C7.84155 21.3998 7.83642 21.6409 7.62099 21.5248C7.41581 21.7985 7.82103 21.9272 7.88772 22.0856C7.60047 22.3644 7.75948 21.8426 7.37477 21.8152C7.24215 22.1531 7.31921 22.4915 7.6056 22.8287C7.66202 22.7497 7.70819 22.7116 7.76974 22.7157C7.69659 22.8001 7.67604 22.8848 7.70819 22.9695L7.88259 23.0294C7.76461 23.1739 7.66202 23.1535 7.52866 23.0294C7.49275 23.1688 7.83129 23.3324 7.57995 23.4746C7.36451 23.239 7.54917 22.9383 7.42094 22.8152C7.59021 23.3082 6.908 23.3115 7.10804 23.936C7.02084 23.9439 6.8567 23.838 6.8567 23.9583C6.92338 24.2371 7.22089 24.0313 7.41581 24.1182C7.29452 23.9715 7.36685 23.8241 7.63125 23.679L7.77487 23.7367C7.70306 23.745 7.69793 23.8798 7.62612 23.9197L7.91849 23.9546C7.59534 23.9383 7.34913 24.1539 7.47223 24.3236C7.70306 24.1521 7.6928 24.1986 8.05699 24.1521C8.40579 24.3905 7.71845 24.4211 8.08264 24.6879C7.98005 24.6679 7.90311 24.4346 7.82616 24.6363C7.82616 24.8031 8.06212 24.7808 8.14419 24.8928C7.87233 24.7669 7.67741 24.7999 7.35939 24.6628C7.32348 24.3663 7.35939 24.5429 7.24141 24.2534L7.01571 24.4987C6.97468 24.2473 6.70795 24.3161 6.60536 24.2952C6.3335 24.7241 7.01571 24.6205 6.9439 24.8947C7.12856 25.0276 6.98494 24.6358 7.17473 24.844C7.13369 25.1019 7.34913 24.903 7.4671 25.1925L7.344 25.146C7.18498 25.2343 7.3799 25.3222 7.40555 25.4249C7.4671 25.5364 8.33398 25.2966 8.35449 25.7613C8.27755 25.7385 8.23139 25.7302 8.20061 25.7302L5.92827 25.2762C5.92827 25.7455 5.87185 26.2864 5.71797 26.8301C5.27684 26.9583 5.35378 26.4421 5.15886 26.4755L5.26658 26.226C5.45637 26.2399 5.323 26.7455 5.65641 26.5215C5.52305 26.0838 5.73336 25.8854 5.34865 25.4699C4.90752 25.5986 5.43072 26.0169 5.08705 26.2868C5.11782 26.1735 5.08705 26.0777 5.00498 25.9848C4.95026 26.2385 4.88871 26.5099 4.82032 26.7989L4.90239 26.8649C4.94855 26.6707 4.98959 26.5359 5.00498 26.5187C4.96394 26.7766 5.21015 26.9941 5.51792 27.0113L5.51792 26.9648L5.62051 27.0578L5.61025 27.2399ZM5.53331 43.9621C5.51238 43.9493 5.47449 43.9368 5.42046 43.9249C5.46662 43.9342 5.4974 43.924 5.53331 43.9621ZM4.50742 22.1879C4.45613 22.5317 4.36893 22.8788 4.33302 23.2102C4.96907 22.613 5.45124 22.1939 5.44098 23.1897L5.48714 23.2548C5.56408 23.1247 5.57434 22.9002 5.52818 22.6893C5.30248 22.5183 4.47152 21.9667 4.39457 21.9727C4.22017 22.0336 4.39457 22.1214 4.35867 22.2315L4.50742 22.1879ZM5.57434 21.9434C5.64616 21.7483 5.50253 21.7929 5.3743 21.7627C5.3743 21.831 5.4102 21.8998 5.42559 21.9671C5.47688 21.9416 5.52305 21.9286 5.59486 21.9434L5.57434 21.9434ZM5.25119 21.7743C5.25119 21.7961 5.25119 21.8147 5.25119 21.8245L5.25119 21.7743ZM5.08705 25.5666C5.08705 25.5578 5.08705 25.555 5.08705 25.5466C5.08705 25.5931 5.08705 25.6395 5.05627 25.686C5.09218 25.6684 5.10756 25.6326 5.10756 25.5666L5.08705 25.5666ZM5.41533 25.1707L5.17938 25.1242C5.17938 25.167 5.17938 25.2111 5.15373 25.2557C5.32605 25.2301 5.41661 25.2007 5.41533 25.1707ZM6.18475 23.8988C5.90776 23.8184 5.89237 23.5499 5.56921 23.5336C5.48714 23.5164 5.45637 23.5731 5.43072 23.6363C5.43072 23.7069 5.43072 23.7827 5.40507 23.8626C5.45124 23.8654 5.49227 23.8812 5.53844 23.9091C5.57434 23.8296 5.65641 23.7771 5.85646 23.8091C5.42046 24.0122 6.16423 23.9913 6.05138 24.2111C6.27708 24.2799 6.27708 23.9653 6.18475 23.8988ZM5.34352 7.00287C5.3743 6.99683 5.44611 6.97546 5.53844 6.94526L5.69745 7.09999C5.62564 7.37601 5.18451 7.59767 5.55896 7.84628C5.48473 7.92704 5.31271 8.00683 5.04601 8.0842C5.04601 8.02704 5.07679 7.97407 5.10244 7.92945C4.54846 7.23243 5.74875 7.56607 5.34352 7.00287ZM4.77928 10.1785C4.77844 10.1654 4.75241 10.1523 4.70234 10.14C5.29736 10.7571 5.46663 11.2631 5.44611 11.5977C5.68206 11.5331 5.86159 11.2348 5.95905 11.093L6.22578 11.2185L6.01548 11.297L6.26169 11.515C6.44122 11.4541 6.40018 11.278 6.53868 11.1604C6.48738 11.1502 6.17449 10.7733 6.02574 10.6678L5.84108 10.969C5.91802 10.8876 5.84108 10.4885 5.78465 10.33C5.65129 10.3268 5.44611 10.6 5.73849 10.6344C5.53844 10.6665 5.53844 10.3519 5.323 10.5507C5.18669 10.2892 5.20724 10.0272 5.38456 9.76589L5.7231 9.73662C5.85133 9.54563 5.31787 9.60743 5.51279 9.3802C5.57435 9.65902 5.87698 9.33374 5.90263 9.55539C6.03087 9.48429 6.25656 9.55539 6.23091 9.33141C5.78978 9.14554 6.5079 9.09907 6.11807 8.92202C6.25656 8.80492 6.3848 9.04795 6.44635 8.81794C6.21039 8.55399 6.04625 8.56933 5.7231 8.55306C5.63077 8.79935 6.14371 8.83187 6.06164 9.03169L5.51279 8.63066C5.43639 8.68848 5.40383 8.7467 5.41533 8.80492C5.39289 8.7353 5.31748 8.66589 5.18964 8.59721C5.12808 8.56375 5.07166 8.53308 5.0255 8.50427C5.0255 8.7315 5.0255 8.93364 4.87674 8.96896L4.72286 8.93736C4.61848 9.02806 4.64608 9.11961 4.80493 9.20966C4.80493 9.41366 5.04088 9.61719 4.83571 9.66134L4.69721 9.5842C4.75364 9.83559 4.77415 9.86348 4.77928 10.1785ZM4.42022 18.3877C4.99472 18.2362 5.50253 18.0689 5.39994 17.3607L5.44098 17.4165C5.80004 17.0596 4.96394 16.7194 5.36404 16.2864C5.47396 16.4316 5.70372 16.5759 6.05138 16.718L5.89237 16.4922C6.20526 16.5549 6.04112 16.3296 6.05651 16.1637L6.44122 16.3101C6.33138 16.4264 6.31253 16.5434 6.38479 16.66C6.34376 16.6033 5.91289 17.0006 6.0206 17.2176C6.27195 17.1953 6.16936 16.7394 6.58484 16.943C6.41044 16.7636 6.66178 16.7413 6.58484 16.554C6.75411 16.7338 6.92339 16.6005 7.09779 16.7325L7.01059 16.4248C7.09779 16.4169 7.20037 16.8728 7.52353 16.6209C7.39016 16.4978 7.5543 16.1688 7.28757 16.1628L7.36965 16.1553C7.42607 15.923 6.98494 16.054 7.13882 15.771C7.00546 15.7678 6.908 15.8217 6.93877 15.923C7.09494 16.0141 7.18916 16.1059 7.22089 16.1981C7.01059 16.2775 7.25167 15.9857 6.89261 16.1079C6.71308 16.1688 7.04649 16.5726 6.64127 16.4448L6.70282 16.2125C6.43096 16.2064 6.44635 16.0401 6.22578 16.0447C6.12832 15.9053 6.43096 15.7715 6.19501 15.6265C6.02061 15.5666 5.68206 15.6706 5.83595 15.4332C6.24117 15.2473 6.1591 14.7004 6.10268 14.4959L5.92828 14.3166C5.76413 14.3314 5.92827 14.659 5.73849 14.5438L5.6718 14.265L5.77439 14.2868C5.80004 14.1939 5.68719 14.1009 5.62564 14.015C5.82569 14.1019 5.74362 14.3035 6.02573 14.2631C6.11343 14.1727 6.14938 14.082 6.13345 13.9913C6.13345 14.0178 6.17962 14.0405 6.22065 14.0377C6.34376 13.7719 5.90263 13.7812 5.81543 13.7125C5.44611 13.4453 5.47176 13.9815 5.17938 13.9476L5.0255 13.1674C5.11783 13.2338 5.21015 13.3012 5.323 13.2761C5.45637 13.0847 5.54357 13.2715 5.52818 13.0029C5.14347 13.0219 5.29223 12.6646 5.06653 12.475C5.22554 12.3863 5.25632 12.3681 5.26145 12.5619C5.51279 12.5396 5.41533 12.2794 5.44098 12.1869C5.3743 12.1335 5.33839 12.0419 5.28197 11.9838C5.15886 12.0614 5.00498 12.0303 4.89726 11.8602L4.84084 11.8505C4.77415 12.126 4.50229 12.5545 4.75876 12.7269L4.63566 12.6781C4.41509 12.9973 5.08192 13.3723 4.61001 13.5192C4.42535 13.5057 4.56898 13.5833 4.29712 13.5777L4.50742 13.81L4.38432 13.7636L4.44587 14.1632L4.39458 14.1525C4.64079 14.3426 4.84084 14.4913 5.00498 14.6098C5.12296 14.6098 5.15886 14.5982 5.24606 14.6614C5.29596 14.7128 5.31308 14.7645 5.29736 14.8161C5.26145 14.9137 5.09218 14.9792 5.0255 15.1L4.99472 14.7283C4.79467 14.6981 4.58436 14.7283 4.44587 14.9141C4.44587 14.8398 4.28173 14.8087 4.26121 14.9007C4.3125 14.9109 4.38945 15.1442 4.54846 15.0549C4.62027 15.4081 4.09194 15.9792 4.47665 16.515C4.24582 16.1302 4.20479 16.8235 4.12272 16.396C3.80469 16.6944 4.44074 16.6525 4.38945 16.9569C4.2766 16.9825 4.38945 16.791 4.17914 16.7213C4.0509 17.2269 4.69208 17.574 4.59975 18.0633L4.34841 18.0842C4.34841 18.1781 4.38945 18.2799 4.42022 18.3877ZM4.73312 19.3551C4.73312 19.4481 4.78954 19.5447 4.82032 19.6414C4.82032 19.6321 4.82032 19.6233 4.82032 19.6135L5.02037 19.896C5.11782 19.7222 5.39481 19.6079 5.53331 19.8496C5.43072 19.8291 5.30248 19.9002 5.24093 19.8156C5.09218 19.9787 4.94855 20.3361 5.323 20.2432C4.96907 19.93 5.80517 20.1702 5.54357 19.9239C5.78978 20.0559 5.67693 20.1869 5.78465 20.3115C5.57947 20.1818 5.31787 20.3417 5.22041 20.5368C5.28197 20.6219 5.22041 20.8514 5.323 20.9922C5.55383 20.942 5.68719 21.0652 5.74361 20.8352C5.834 20.9554 5.834 21.076 5.74361 21.1962C5.70771 21.1381 5.67693 21.0368 5.59486 21.0438C5.37943 21.1367 5.38968 21.2487 5.30248 21.3096C5.30248 21.3561 5.30248 21.4072 5.33839 21.4551C5.35308 21.4431 5.37882 21.4313 5.41533 21.4197L5.62051 21.581C5.51279 21.3658 5.72823 21.4815 5.86159 21.4843C5.58973 21.4788 5.82569 21.6237 5.83594 21.6967L6.12319 21.5364C6.26682 21.614 5.91289 21.8096 6.20013 21.7687C6.31298 21.4295 6.26169 21.2989 6.20013 20.9918L5.97444 21.1163C5.82056 20.7701 6.35915 20.903 6.34889 20.5122C6.14371 20.3505 6.34889 19.9276 5.92827 19.9197C6.05138 19.9662 6.28733 19.6776 6.10268 19.5447C5.73336 19.3974 5.68206 18.9523 5.51279 19.0875C5.51279 19.2074 5.71284 19.3695 5.47176 19.4662L5.39481 19.2339L5.18964 19.3867C5.22554 19.311 5.03062 19.3184 4.73312 19.3551ZM2.45565 24.5763C2.45565 24.5787 2.45565 24.5824 2.45565 24.5852L2.45565 24.5763Z" fill="#E5AB7E"/>
<path d="M1.82459 30.8501C1.65019 30.7902 1.75278 30.4974 1.92205 30.4821C1.99386 30.5211 2.06054 30.6801 2.16826 30.5806L1.73739 30.3483C2.00412 30.0397 2.30162 30.5806 2.45551 30.7349C2.51193 30.4208 2.22981 30.3274 2.22981 29.9914C2.20226 30.0629 2.12172 30.1342 1.98873 30.2047C1.68609 30.2158 1.81946 29.9045 1.79894 29.6819C1.66558 29.8236 1.55273 29.7414 1.43475 29.6382C1.43045 29.625 1.41502 29.6118 1.38859 29.5987C1.38859 29.5867 1.38859 29.5755 1.34755 29.5639L1.34755 29.5904C1.31164 29.5904 1.27061 29.5946 1.21419 29.6136C1.30139 29.7995 1.05004 29.9431 1.04491 30.0634C1.55786 29.9445 1.16289 30.4728 1.31164 30.6243L1.36294 30.7986L1.36294 30.8641C1.30651 30.8771 1.23983 30.8585 1.14237 30.7591C1.23983 30.8418 1.20392 31.1192 1.36294 31.0936L1.36294 31.7261C1.34667 31.7442 1.31927 31.7622 1.28087 31.78C1.31164 31.8018 1.33729 31.8055 1.36294 31.8023L1.39371 34.5579C1.43475 34.4217 1.54247 34.3041 1.59889 34.1638C1.92718 34.3743 1.66045 33.9343 1.96821 33.9961C2.06318 34.1009 2.06318 34.2063 1.96821 34.3111C2.12722 34.3418 2.26572 34.2247 2.45038 34.2382C2.6453 33.8906 1.90153 33.8376 2.01438 33.4979C2.19904 33.5109 2.36318 33.6159 2.33753 33.3938L2.37857 33.4505C2.16826 33.0941 2.80431 33.1717 2.29137 32.9487L2.5581 32.9547C2.35805 32.793 2.35292 32.4789 2.31701 32.3018L2.33753 32.3134C2.02976 31.8167 2.27085 32.0346 2.14261 31.477L2.46064 31.734C2.58887 31.5411 2.2452 31.4979 2.28111 31.3599C2.3324 31.3697 2.53245 31.3376 2.57861 31.4682L2.10158 30.7911C1.91692 30.6308 1.92205 30.8264 1.82459 30.8501Z" fill="#E5AB7E"/>
<path d="M1.61986 29.0239C1.47624 29.141 1.42495 28.9357 1.31723 28.9152L1.31723 29.3357C1.42495 29.3357 1.53779 29.3752 1.63525 29.3669L1.61986 29.0239Z" fill="#E5AB7E"/>
<path d="M1.12661 29.4577C1.23278 29.4932 1.29979 29.5297 1.32666 29.5664L1.32666 29.3341C1.24459 29.3373 1.17278 29.3633 1.12661 29.4577Z" fill="#E5AB7E"/>
<path d="M6.69258 29.4127L6.69771 29.487L6.77979 29.5995L6.69258 29.4127Z" fill="#E5AB7E"/>
<path d="M6.23096 30.577C6.33187 30.4725 6.33187 30.3674 6.23096 30.2629C6.23096 30.4548 6.17454 30.373 6.23096 30.577Z" fill="#E5AB7E"/>
<path d="M7.92377 30.3369L8.0161 30.5237L8.04688 30.5065L7.92377 30.3369Z" fill="#E5AB7E"/>
<path d="M7.60539 31.6988L7.72337 31.8679L7.75928 31.8503L7.63617 31.6811L7.60539 31.6988Z" fill="#E5AB7E"/>
<path d="M7.41059 32.6755C7.4465 32.7173 7.48753 32.7489 7.52344 32.7777C7.51576 32.7434 7.47802 32.7092 7.41059 32.6755Z" fill="#E5AB7E"/>
<path d="M8.85738 33.4009C8.64195 33.5998 8.57527 33.1262 8.48294 33.4938C8.28289 33.5259 8.02642 33.3544 8.12388 33.1797C8.31367 33.1936 8.24698 33.3488 8.43677 33.2424C8.22133 33.1272 8.36496 33.083 8.08284 33.1235C7.90844 32.9292 7.70839 32.9078 7.52373 32.7763C7.65197 33.0087 7.35959 33.5026 7.72378 33.7986C8.06232 33.9627 8.52397 33.8632 9.01127 33.8642C9.12924 33.8419 9.18054 33.4171 8.85738 33.4009Z" fill="#E5AB7E"/>
<path d="M9.34469 33.0875C9.3705 33.0287 9.35851 32.9697 9.30879 32.9109C9.14464 32.9263 9.33956 33.0132 9.34469 33.0875Z" fill="#E5AB7E"/>
</svg>
