<svg width="277" height="215" viewBox="0 0 277 215" fill="none" xmlns="http://www.w3.org/2000/svg">
<path d="M0.843512 107.581C0.843518 166.586 62.4467 214.417 138.431 214.417C214.416 214.417 276.019 166.586 276.019 107.581C276.019 48.576 214.416 0.744782 138.431 0.744788C115.696 0.639178 93.1834 5.11027 72.2987 13.8788V13.8788L45.0323 0.744797L45.0323 29.1691C17.8662 48.6544 0.84351 76.569 0.843512 107.581Z" fill="white"/>
<path d="M0.341034 107.581C0.4115 107.993 0.542367 107.758 0.5625 106.601L0.341034 105.778L0.341034 107.581Z" fill="#202020"/>
<path d="M1.19531 99.9064C1.19531 98.5636 1.19531 96.9659 0.843792 97.8284C0.944225 99.1909 0.843778 99.5045 0.954254 100.955C0.833735 102.092 0.763454 102.915 0.663022 102.749C0.618551 103.549 0.618551 104.35 0.663022 105.15C0.875048 103.377 0.995704 101.594 1.02456 99.8083C1.13504 99.3967 1.16518 99.8083 1.19531 99.9064Z" fill="#202020"/>
<path d="M45.3838 2.73468L45.3838 3.4502C45.3637 3.25416 45.3737 3.00913 45.3838 2.73468Z" fill="#202020"/>
<path d="M109.116 3.66541C108.851 3.69387 108.591 3.75664 108.343 3.85205C108.805 3.75382 109.237 3.67523 109.116 3.66541Z" fill="#202020"/>
<path d="M121.087 2.33267L120.384 2.3916C120.62 2.38652 120.855 2.36684 121.087 2.33267Z" fill="#202020"/>
<path d="M45.3838 2.73462L45.4644 1.50943C45.3738 1.3036 45.404 2.05831 45.3838 2.73462Z" fill="#202020"/>
<path d="M3.35439 84.6063C3.26951 84.9287 3.20563 85.2561 3.16312 85.5864C3.23358 85.2728 3.28391 84.9591 3.37451 84.6063C3.3678 84.6064 3.3611 84.6064 3.35439 84.6063V84.6063Z" fill="#202020"/>
<path d="M42.0698 32.0607L41.6179 32.4037C41.4974 32.5213 41.3969 32.6487 41.2965 32.7664L42.0698 32.0607Z" fill="#202020"/>
<path d="M24.8962 48.1742C25.1112 47.9242 25.2442 47.6168 25.2778 47.2921C25.0994 47.6444 24.8768 47.9736 24.615 48.2722C24.615 48.2722 24.7255 48.282 24.8962 48.1742Z" fill="#202020"/>
<path d="M5.7749 79.8233L5.60376 80.4604L5.7749 79.8233Z" fill="#202020"/>
<path d="M45.464 16.3586C45.4891 16.2847 45.5093 16.2092 45.5244 16.1327C45.5244 16.1327 45.4841 16.2211 45.464 16.3586Z" fill="#202020"/>
<path d="M4.22803 134.535C4.22803 134.535 4.17735 134.397 4.22803 134.535V134.535Z" fill="#202020"/>
<path d="M0.893341 107.581L0.893341 107.954C0.893341 107.954 0.973896 108.042 1.01416 108.042L0.893341 107.581Z" fill="#202020"/>
<path d="M274.101 120.441C274.653 118.265 273.759 124.057 274.513 120.774C274.382 121.068 274.673 117.716 274.101 120.441Z" fill="#202020"/>
<path d="M3.58459 84.0281L3.87646 83.1067C3.73555 83.5674 3.64499 83.8124 3.58459 84.0281Z" fill="#202020"/>
<path d="M274.513 120.813L274.583 120.47L274.513 120.813Z" fill="#202020"/>
<path d="M192.874 10.3896C192.731 10.2919 192.58 10.2064 192.422 10.1343C192.422 10.1343 192.533 10.2227 192.874 10.3896Z" fill="#202020"/>
<path d="M156.006 2.21481L156.94 2.34253L156.006 2.21481Z" fill="#202020"/>
<path d="M211.092 17.5349C211.489 17.7612 211.898 17.9673 212.317 18.1523L212.136 18.0445C211.774 17.9036 211.424 17.7331 211.092 17.5349V17.5349Z" fill="#202020"/>
<path d="M228.677 27.699L228.396 27.4637L227.853 27.1109L228.677 27.699Z" fill="#202020"/>
<path d="M40.5132 183.758C40.2874 183.527 40.0824 183.278 39.9006 183.013C40.0612 183.327 37.6911 181.465 40.5132 183.758Z" fill="#202020"/>
<path d="M3.49486 84.6259C3.48645 84.4229 3.51717 84.2201 3.58545 84.028L3.3942 84.6749C3.35394 84.7436 3.43447 84.7632 3.49486 84.6259Z" fill="#202020"/>
<path d="M212.588 16.4469L215.5 17.8975L212.588 16.4469Z" fill="#202020"/>
<path d="M181.114 210.006L180.391 210.222C180.637 210.169 180.879 210.096 181.114 210.006V210.006Z" fill="#202020"/>
<path d="M223.947 22.6903C224.409 23.0628 224.951 23.4156 225.443 23.7783L225.794 23.9253L223.947 22.6903Z" fill="#202020"/>
<path d="M23.9825 168.683C26.0714 170.977 25.1776 169.585 25.74 169.967C28.2909 172.633 26.7443 171.369 27.4874 172.379C29.1947 173.947 30.6208 175.025 31.8461 176.231C31.9164 176.348 32.1473 176.583 31.8461 176.358C32.8503 177.093 34.1861 178.318 35.572 179.534C36.8846 180.667 38.2592 181.731 39.6896 182.719C39.7826 182.803 39.8637 182.898 39.9306 183.003C39.6695 182.611 39.6996 182.454 39.8402 182.445C40.6907 183.028 41.5056 183.66 42.2806 184.336C41.93 184.062 41.5453 183.831 41.1357 183.65L42.3509 184.454C43.2548 185.434 40.7039 183.356 40.5934 183.474L47.4628 188.169C47.5732 188.404 46.5087 187.708 45.6952 187.189C44.8817 186.669 44.3695 186.208 45.4642 187.189L42.823 185.111C44.6407 186.953 41.196 183.876 42.823 185.611C44.0448 186.593 45.3259 187.503 46.6593 188.335C47.7138 189.002 48.7483 189.678 50.5761 190.923C51.5101 191.325 50.4154 190.58 51.3393 190.982C52.948 191.808 54.4657 192.794 55.8687 193.922C56.9671 194.778 58.1759 195.49 59.464 196.039C61.0592 196.511 62.5901 197.169 64.0235 198L62.8887 197.755C63.8765 198.333 64.915 198.825 65.9919 199.225C67.1133 199.633 68.2039 200.118 69.2559 200.675C68.4725 200.44 66.1225 199.372 66.705 199.695C69.276 201.097 68.6633 200.401 70.7221 201.313L71.0335 201.734C72.088 202.204 73.1826 202.636 74.3074 203.047L77.6718 204.282C80.0118 205.106 82.4322 205.86 84.8425 206.674C84.5412 206.674 83.6976 206.449 84.8425 206.899C90.9887 208.771 98.0087 210.712 104.055 212.104L106.435 212.31C106.977 212.408 107.439 212.584 106.826 212.525C109.196 213.025 106.977 212.408 108.132 212.525C109.488 212.761 109.899 212.976 109.036 212.878C110.04 213.045 111.376 213.182 112.772 213.329L117.211 213.839C120.224 214.084 123.337 214.456 125.576 214.692L124.693 214.692C128.188 214.966 128.66 214.496 131.883 214.848L131.261 214.848C138.853 215.25 147.229 214.741 153.024 214.613C154.088 214.182 160.526 214.054 160.948 213.476C163.107 213.29 163.88 213.251 164.884 213.182C165.889 213.114 167.084 212.966 170.107 212.496C171.714 212.212 172.457 211.839 174.405 211.339L174.505 211.555L177.117 210.732L178.603 210.732C179.216 210.585 179.828 210.418 180.431 210.232C179.954 210.396 179.448 210.463 178.944 210.428C181.276 209.75 183.651 209.226 186.055 208.86C188.264 208.115 190.474 207.399 192.663 206.615C191.999 206.963 191.303 207.249 190.584 207.468C192.332 206.821 192.502 206.811 192.653 206.821C192.804 206.831 192.904 206.821 194.481 206.203C194.029 206.311 194.662 205.998 194.722 205.929C195.545 205.713 196.871 205.282 198.327 204.782C199.783 204.282 201.34 203.586 202.646 203.028L202.194 203.381C204.634 202.489 207.085 201.283 209.646 200.136C210.921 199.548 212.166 198.872 213.452 198.235C214.737 197.598 216.043 196.941 217.268 196.216C215.41 197.196 215.701 196.686 217.178 195.843L217.891 195.726C218.775 195.069 216.294 196.5 218.172 195.255C220.07 194.275 219.578 194.795 218.534 195.461L220.793 194.118C220.964 194.118 220.442 194.432 220.351 194.589C221.235 193.981 224.368 192.452 225.574 191.433L225.744 191.433C228.195 189.894 229.892 188.649 231.529 187.512L236.44 183.807C236.38 183.582 237.836 182.464 238.81 181.445L240.939 179.818L243.068 178.005L245.288 176.044L247.477 173.908C249.486 171.781 247.949 173.182 248.793 172.173C249.114 172.173 251.876 169.085 250.53 170.771C252.207 168.919 253.292 167.762 254.367 166.37C255.441 164.978 256.697 163.577 258.444 160.999C257.972 161.499 257.49 162.097 257.671 161.744C258.324 160.764 259.278 159.705 259.258 159.891L259.097 160.137C261.055 157.196 263.365 153.873 265.384 150.541C265.916 149.727 266.388 148.875 266.81 148.051C267.232 147.228 267.684 146.414 268.105 145.64C268.823 144.21 269.447 142.737 269.973 141.229L269.863 141.524C270.626 139.74 271.168 137.877 271.771 136.044C272.775 133.545 271.359 137.593 272.153 135.78C272.655 134.29 272.936 132.918 273.318 131.673C273.699 130.428 274.051 129.281 274.322 128.135L275.115 124.734C275.396 123.606 275.507 122.411 275.688 121.136C276.451 118.144 276.862 115.075 276.913 111.992L276.973 109.198C276.973 108.218 277.033 107.356 276.973 106.464C276.913 104.699 276.913 103.053 276.923 101.7L276.813 102.014C276.676 101.119 276.626 100.213 276.662 99.3085C276.571 99.4654 276.662 100.828 276.531 99.975C275.379 87.8644 271.864 76.0806 266.177 65.2582C265.607 64.1821 264.91 63.1754 264.098 62.2589C263.773 61.8797 263.477 61.4767 263.214 61.0534C262.843 60.4849 262.331 59.7106 261.638 58.505L262.722 59.7008C257.651 52.3006 251.786 44.9005 245.187 39.0295C245.585 39.2867 245.952 39.5858 246.282 39.9214C245.357 38.8907 244.35 37.9337 243.269 37.0594C242.591 36.427 241.854 35.8561 241.07 35.3539C240.066 34.4522 240.919 35.0501 240.317 34.4522C238.921 33.1976 236.551 31.6391 235.858 30.9138C235.737 30.7962 236.32 31.1785 236.591 31.3843C235.586 30.708 232.041 27.9832 232.855 28.8359C231.61 27.864 230.312 26.9577 228.968 26.1209L225.443 23.7784C223.836 23.0727 220.663 20.7007 219.98 20.7595C220.361 20.5929 215.039 17.672 213.05 16.9467C213.723 17.1722 211.463 16.0352 212.257 16.2802C210.128 15.1825 208.059 14.3885 208.38 14.7022C204.534 12.4773 200.065 11.5461 197.936 10.1739C191.569 8.02374 185.088 6.20787 178.523 4.7341C178.854 4.40085 185.402 6.48855 185.231 6.06708C182.218 5.38098 179.929 4.7831 177.559 4.39104C175.188 3.99898 172.868 3.41089 169.896 2.92082C168.359 2.59737 170.8 2.92082 171.332 2.96983L166.893 2.23472C165.437 1.98968 163.991 1.82305 162.585 1.61722C159.752 1.17615 156.981 0.940923 154.279 0.764497C154.663 0.736179 155.05 0.736179 155.434 0.764497C154.369 0.676284 152.963 0.48025 153.064 0.637073L154.068 0.69588C154.912 0.891909 153.837 0.901718 152.542 0.872314C151.246 0.84291 149.71 0.872316 149.609 0.950728C151.447 0.627279 144.276 0.529258 147.179 0.147C146.476 0.147 145.592 0.146995 145.753 0.264613C144.748 0.196003 144.377 0.146994 145.441 0.0489792C141.615 0.0489795 142.971 0.245019 139.506 0.166608C139.86 0.0879788 140.219 0.0323171 140.581 -1.57846e-05C138.823 0.0881977 137.055 0.254813 134.133 0.235211C134.304 0.186203 133.962 0.137195 134.836 0.127394C129.815 0.284218 126.3 0.803698 120.776 1.18596C122.353 0.715485 118.898 1.27417 118.577 1.04874C117.572 1.19576 116.568 1.31338 115.634 1.48L116.839 1.48C114.258 1.81325 112.019 2.31313 109.809 2.59737L111.697 2.17592C110.1 2.46996 108.493 2.71499 106.907 3.02864C107.811 2.89142 108.724 2.7836 109.638 2.67579C107.077 3.24427 109.97 2.94042 106.565 3.4795C107.248 3.33248 104.014 3.93037 102.669 4.07739C101.443 4.44985 100.168 4.7733 98.2899 5.16536C97.7877 5.16536 98.6012 4.7831 98.2899 4.80271C97.6973 5.06735 96.221 5.4104 94.7246 5.83186C93.4388 6.15099 92.1744 6.54706 90.9385 7.01784C91.4406 6.812 91.4205 6.66499 91.2498 6.68459L90.2455 7.16487C89.0705 7.44911 88.8998 7.47851 89.0504 7.31188C85.5756 8.29203 90.2455 7.31189 86.1078 8.41945C86.4292 8.30184 86.2685 8.32144 86.9213 8.08621C82.7836 9.29179 79.0879 10.8502 75.382 12.2028C74.1869 12.3695 78.5757 10.8894 77.24 11.1639C76.4164 11.4873 75.5829 11.8108 74.7493 12.144L72.3792 13.183C72.2185 13.3202 72.098 13.183 71.9172 13.1046L71.4251 12.8987C68.2214 11.4481 65.0579 9.95829 62.1857 8.58608L63.0895 9.05655C62.0852 8.98794 59.5444 7.09625 56.8428 6.03769C57.4856 6.31213 57.8471 6.27293 57.6262 6.22392C55.9289 5.37119 54.1413 4.53807 52.1327 3.62654L44.8717 0.333239L45.645 0.588072L44.4901 -7.38409e-06C44.4901 2.35235 44.4398 5.66525 44.4198 7.94899C44.5202 8.6449 44.5001 9.9975 44.6507 9.14477C44.4354 12.3716 44.3885 15.607 44.5101 18.8384C44.5804 21.9161 44.701 24.8467 44.5804 27.9048C44.5804 28.2675 44.5804 28.6007 44.4901 28.8849L44.3796 28.9536L44.48 28.8751C44.48 28.3949 44.3896 27.9636 44.3896 28.2772L44.3896 28.8457L44.249 28.9536L41.0453 31.4627C41.6346 31.1995 42.1907 30.8706 42.7024 30.4826C41.8196 31.3161 40.8873 32.0983 39.9105 32.8251C41.8387 31.2471 39.6896 32.5997 38.8259 33.2466C38.9966 33.178 38.7455 33.4524 38.8259 33.4328C36.3955 35.0697 38.6752 34.0111 35.5017 36.3733L35.6021 36.1674C34.4974 37.1476 33.5935 38.2061 32.4185 39.2549C31.7858 39.5685 33.5031 38.1277 33.4228 37.9317C31.7657 39.4705 30.4099 41.1858 28.8934 42.5286C29.5261 41.8229 30.44 40.8035 31.1229 40.1468C30.0428 40.9861 29.0351 41.9106 28.1101 42.9109L28.2306 42.7932C27.3368 43.695 26.3726 44.5281 25.529 45.4788L26.222 44.7927C24.7758 47.2529 22.4459 49.0858 20.4473 52.3007C22.4559 49.2328 20.6683 51.7126 20.6583 51.3205C20.0155 52.036 19.0514 53.1534 19.2522 52.7908C18.1351 54.2446 17.0992 55.7562 16.149 57.319C16.0184 57.3778 15.0443 58.8873 15.1447 58.456C13.9496 60.4163 15.5364 58.0541 15.5263 58.2796C14.6426 59.838 13.5177 61.6023 12.2523 63.5136C11.6598 64.4937 11.0874 65.5523 10.4948 66.6304C9.87816 67.7279 9.34447 68.8679 8.89802 70.0413C8.05442 72.0899 7.55227 73.2954 7.17064 74.501C6.78901 75.7066 6.44757 76.8926 5.77469 78.8137C5.17212 80.0585 5.92533 77.6767 5.92533 77.6767C5.1214 79.5097 4.48621 81.4089 4.02724 83.3518C4.08749 82.9303 3.90671 83.3518 3.63555 83.9202C3.14345 85.5277 3.63555 85.067 2.94259 87.1939C2.94135 86.6237 2.97827 86.054 3.05307 85.4885C2.8723 86.4686 2.68149 87.4488 2.49067 88.4289C2.29986 89.4091 2.09899 90.3892 1.97848 91.3694C1.76758 91.8791 1.97847 90.105 2.09899 89.4091C1.81779 90.5362 1.67719 92.0261 1.47633 93.3297C1.32039 94.2335 1.23644 95.1478 1.22526 96.0643L1.54664 94.6137C1.40604 95.4468 1.29554 95.0155 1.36584 94.398C1.37224 93.3853 1.59099 92.3847 2.0086 91.4576L1.80773 92.9082C2.01329 92.4129 2.16151 91.8968 2.24962 91.3694C2.29984 91.0361 2.37013 90.6833 2.43039 90.3108C2.49065 89.9384 2.5911 89.5463 2.67144 89.1444C3.00285 87.5468 3.27401 85.7237 3.67573 84.3221C3.67573 84.7338 3.67573 85.1552 3.67573 85.5767C3.79624 84.5965 4.08749 83.6164 4.27831 82.6363C4.54947 82.0482 4.85075 81.6561 4.45907 83.0773C5.23238 81.117 4.911 81.264 5.614 79.5978C5.69434 79.4116 5.6843 79.5096 5.614 79.686C5.80482 79.0293 6.03581 78.3922 6.24671 77.7257C6.16637 78.1276 6.57812 77.4807 6.08602 78.647C6.82919 76.9612 7.31126 75.5596 7.69289 74.4226C7.99061 73.5379 8.38451 72.6869 8.86789 71.884L8.75743 72.1683C10.766 67.493 8.69717 71.5998 10.1634 68.0419L11.8908 66.0228L11.8908 65.4641C12.1419 65.0034 12.6541 64.0919 12.644 64.3075C13.5077 62.5432 12.3729 64.5427 12.8348 63.494C13.5981 62.455 14.4919 60.9554 15.2753 59.6616C15.7645 58.7562 16.4023 57.9351 17.1633 57.2308C17.5349 56.3879 15.6469 59.1911 17.1131 56.8584C17.8864 56.4467 18.8103 54.2022 20.4473 52.5065C20.1661 53.1926 18.72 54.8589 20.2967 53.1338C20.8993 51.8302 23.1288 49.5857 24.4143 48.1154C24.828 47.3541 25.3599 46.6598 25.991 46.0571C26.9451 44.93 28.321 43.6558 29.4257 42.4208C29.2951 42.5874 33.9751 38.1571 36.4557 36.2557L36.4557 36.3439C37.8316 34.8525 39.348 33.4906 40.9851 32.2763C40.9851 32.4625 40.7039 32.7369 39.79 33.5896C40.3323 33.1192 40.9248 32.6977 41.5073 32.2566C42.135 31.6458 42.8062 31.0792 43.5159 30.561L43.2046 31.0511L45.2232 29.6593L45.0926 29.1594L45.3839 29.0418C45.4843 29.0418 45.6048 28.9732 45.5546 28.8653C45.5643 28.6972 45.5474 28.5286 45.5044 28.3655L45.2734 27.4735C45.2734 25.8661 45.2734 24.141 45.2734 22.1513C45.1428 21.9945 44.9822 25.229 44.8014 21.426C44.8516 21.328 44.9319 21.2104 44.9822 21.2594C45.0624 21.5028 45.0931 21.7592 45.0725 22.0141C45.0725 21.6907 45.0223 20.8477 45.0725 20.1714L45.173 21.6711C45.2332 19.9852 45.0826 20.8379 45.1027 19.4951C45.1931 19.4951 45.173 18.515 45.2533 18.6424C45.2533 18.9854 45.2031 19.8284 45.2533 20.3185C45.2533 18.809 45.3537 16.9663 45.4441 16.3979C45.3839 16.5449 45.3035 16.3979 45.2935 15.3393C45.2935 12.4969 45.4341 14.3592 45.5144 12.6635C45.4441 11.997 45.5144 10.1641 45.3638 10.1445C45.3611 9.69923 45.4116 9.25517 45.5144 8.82132C45.4542 7.3609 45.5646 1.96028 45.3236 3.61673L45.3236 3.98919L45.3236 3.75396C45.3236 2.7052 45.2634 1.97989 45.2634 1.12716C46.6191 1.76425 48.6579 2.7836 50.4355 3.66574C52.2131 4.54787 54.071 5.45941 55.8486 6.27293L55.8486 6.32194C58.53 7.51772 61.7337 9.06635 63.7222 9.88968C64.4955 10.2621 65.4797 10.8698 65.088 10.7032C67.0966 11.6343 67.418 11.6833 70.2501 13.134C69.5188 12.854 68.8075 12.5265 68.121 12.1538L70.5614 13.3594L71.4854 14.0553C71.5647 14.1263 71.6566 14.1828 71.7565 14.2219C71.867 14.2219 71.9674 14.3984 72.0779 14.2219L72.2486 14.0553L72.339 13.9769L72.6704 14.3199L73.6245 13.8887L74.6288 13.4084C73.7249 13.9769 76.7378 12.7713 78.0233 12.2616L76.0649 12.8595C77.5111 12.2812 78.7866 11.8108 80.0821 11.3403L79.4695 11.8304C85.1437 10.0465 89.5124 7.90978 94.0116 7.21388C95.4879 6.63559 90.8581 7.92938 92.1637 7.3805C93.4894 7.03745 94.8653 6.75319 96.0202 6.55716C97.1751 6.36113 98.0991 6.24352 98.5209 6.1455C99.7185 5.91784 100.899 5.61334 102.056 5.23397C103.247 4.81614 104.479 4.5173 105.732 4.34203C105.219 4.34203 104.727 4.20482 107.59 3.57752C110.311 3.14626 110.984 3.3913 109.287 3.73435C108.98 3.81881 108.661 3.8552 108.343 3.84216C107.469 4.01859 106.334 4.28323 107.419 4.16562L107.76 4.01858C109.116 3.87156 112.842 3.26387 111.988 3.54812C113.997 3.17566 112.842 3.25407 111.316 3.4697C114.82 3.05804 116.769 2.68558 120.354 2.38174C119.772 2.38174 119.239 2.38174 119.812 2.29353C125.114 1.89167 122.122 1.89166 125.717 1.56821C127.726 1.56821 125.004 1.92107 128.629 1.56821C130.849 1.56821 129.102 1.77404 128.238 1.90146C130.909 1.67399 133.594 1.62814 136.272 1.76424L134.545 1.85246C135.549 1.85246 136.433 1.79365 137.297 1.78385L136.292 1.61722C136.916 1.58718 137.541 1.61343 138.16 1.69564C139.215 1.58782 137.357 1.39178 139.446 1.27416C140.812 1.39178 143.603 1.27417 144.065 1.49961C139.777 1.33298 144.527 1.74464 140.902 1.70543C141.605 1.70543 142.459 1.70543 143.483 1.76424C143.634 1.76424 143.332 1.76424 143.061 1.81325C147.139 2.09749 144.949 1.59762 149.197 1.81325C148.645 1.91126 150.202 2.1269 150.854 2.1367C149.147 2.02888 150.051 1.87206 151.628 1.86226C154.339 2.17591 154.58 2.05828 156.006 2.1955L154.39 1.98968C155.665 1.99153 156.939 2.0668 158.206 2.21511C158.356 2.33273 156.478 2.1171 157.202 2.21511C159.341 2.1465 161.902 3.03844 164.844 3.27367C166.18 3.54811 164.935 3.52851 166.11 3.76375C169.374 4.18521 169.584 4.54786 173.009 5.05753C172.065 4.68508 171.894 4.66547 174.305 5.05753C172.447 4.65567 170.559 4.42044 168.691 4.07739L172.336 4.47925C170.649 4.1656 168.741 3.94017 167.737 3.73434C169.474 3.90097 169.293 3.91077 168.51 3.62653C170.78 4.29303 173.14 4.27342 175.761 5.06734L175.58 5.479C177.589 6.00828 179.336 6.32193 181.244 6.7924C183.445 7.23895 185.618 7.80837 187.752 8.49786L186.155 7.92937C186.878 7.97838 189.289 8.90951 190.956 9.30157C190.755 9.39959 191.769 9.74264 192.422 10.0857C192.372 9.95827 196.068 11.3795 196.63 11.2619C197.353 11.5853 198.066 11.9088 198.779 12.242C202.706 13.8985 203.489 13.624 207.215 15.3687C206.02 15.0158 207.677 15.8686 205.116 14.8492C205.891 15.2542 206.705 15.5826 207.547 15.8294C207.888 16.0352 208.782 16.3684 209.716 16.8095C210.547 17.1595 211.355 17.5588 212.136 18.0053C212.875 18.2143 213.586 18.5071 214.255 18.8776C214.396 18.9756 214.255 18.9364 214.255 18.9364C214.599 19.0404 214.935 19.1682 215.26 19.3187C215.661 19.4951 215.912 19.5833 215.36 19.1913C218.855 21.5828 225.684 24.9447 228.416 27.4441L230.324 28.6791C230.987 29.1202 231.64 29.6592 232.333 30.0807C233.628 31.0608 234.924 31.9234 235.978 32.7663C235.817 32.6879 235.978 32.7663 235.536 32.4821C238.328 34.952 237.615 33.5798 240.758 36.4027C242.215 38.0101 238.981 35.001 239.935 35.9616C239.995 36.334 240.939 37.177 242.144 38.1865L244.012 39.7842C244.59 40.3232 245.133 40.896 245.639 41.4994L245.127 41.029C246.007 41.9915 246.943 42.9045 247.929 43.7636C249.014 44.7927 250.179 45.9885 251.364 47.3019C251.364 47.3019 251.223 47.2039 251.294 47.3019C253.786 49.7345 256.076 52.3565 258.143 55.1431C257.349 54.3982 257.138 53.9571 257.359 54.5942C258.293 55.7998 257.359 54.0551 259.207 56.4761C259.829 57.4678 260.359 58.5107 260.794 59.5929L259.207 57.2014C260.064 58.7138 261.01 60.1766 262.039 61.5827L261.849 61.4846C264.058 65.2582 264.46 65.121 266.539 69.3258L266.398 68.8455C267.844 71.0215 267.232 70.8058 268.457 73.1092L268.457 73.9423C268.828 74.697 269.461 76.03 270.104 77.5787C270.747 79.1273 271.47 80.7838 271.891 82.254C271.711 81.8521 271.51 81.3424 271.289 80.7739L270.506 78.9509C269.943 77.6865 269.441 76.3437 268.939 75.3537C269.29 76.1182 269.742 77.4708 270.234 78.7058C270.727 79.9408 271.188 81.0778 271.349 81.4796C271.158 80.8327 270.757 80.0682 270.586 79.4213C270.807 79.882 271.058 80.4015 271.289 80.9406C271.52 81.4797 271.721 82.0971 271.942 82.744L272.615 84.7926L272.966 85.9099L273.247 87.1057C272.886 86.8803 273.368 89.0072 273.89 91.5066C274.262 94.0255 274.794 96.917 274.623 98.152C275.517 104.033 275.276 109.826 274.563 116.628C275.246 114.256 274.382 118.588 274.884 118.265C274.653 119.852 274.543 120.45 274.493 120.588C274.141 122.175 273.82 123.763 273.328 125.312C272.936 126.41 273.569 123.812 273.428 123.93C272.615 127.331 272.906 125.322 272.273 127.547C272.544 127.125 272.273 128.791 271.6 130.673C271.912 129.791 272.313 128.929 272.605 128.027C272.324 129.587 271.869 131.112 271.249 132.575C271.048 133.065 270.877 133.555 270.616 134.231C270.355 134.908 270.064 135.721 269.692 136.897L270.094 135.388C269.381 137.819 266.709 144.072 265.775 146.395C265.524 146.767 265.143 147.248 265.615 146.238C262.873 151.629 259.157 158.147 256.024 161.754L256.204 161.313C255.637 162.292 254.964 163.209 254.196 164.047C254.196 163.959 254.397 163.626 254.055 164.047C253.196 165.292 252.25 166.478 251.223 167.595C251.484 167.243 251.755 166.909 251.997 166.547C250.992 167.644 250.078 168.605 249.275 169.487L248.11 170.801L246.985 172.016C245.509 173.708 243.943 175.324 242.295 176.858C242.185 176.73 241.241 177.436 240.096 178.367L236.601 181.063L236.601 180.974C235.265 182.092 233.97 183.052 232.744 183.984C231.519 184.915 230.384 185.846 229.189 186.669L225.644 189.227C224.419 190.051 223.133 190.864 221.767 191.746L213.653 195.981C211.966 196.784 210.258 197.686 208.541 198.45C206.824 199.215 205.146 199.921 203.65 200.538C204.574 200.185 203.65 200.842 202.535 201.283C201.099 201.793 198.709 203.057 198.819 202.695L199.321 202.499C197.154 203.084 195.019 203.777 192.924 204.576L192.673 205.076C189.53 205.802 185.553 207.125 181.837 208.105L179.145 208.85L176.685 209.409C175.467 209.693 174.233 209.902 172.989 210.036C171.493 210.438 169.595 210.751 168.098 211.124L168.148 210.908C166.039 211.29 164.432 211.457 162.715 211.692C160.998 211.928 159.16 212.212 156.519 212.467L157.583 212.212C154.57 212.467 153.887 213.192 151.116 213.417L150.262 213.153C147.661 213.31 145.03 213.427 142.408 213.398C141.103 213.398 139.797 213.398 138.492 213.466C137.186 213.535 135.891 213.466 134.595 213.466C134.685 213.466 134.836 213.339 135.69 213.339C134.454 213.29 132.084 213.261 130.126 213.123C128.168 212.986 126.631 212.976 127.113 213.221C126.127 212.991 125.114 212.889 124.1 212.917C122.413 212.8 120.374 212.692 118.958 212.614L119.42 212.447C117.482 212.527 115.541 212.418 113.625 212.124C112.842 211.996 112.963 211.869 113.997 212.065C111.416 211.575 111.928 212.065 108.805 211.349L110 211.428C108.699 211.145 107.375 210.978 106.043 210.928C104.208 210.685 102.408 210.235 100.68 209.585C99.5261 209.536 98.3826 209.348 97.2756 209.026C97.0848 208.899 97.6572 209.026 97.9484 209.026C93.6099 207.752 91.3603 207.605 88.4579 206.458C88.3313 206.331 88.1716 206.239 87.9959 206.194C91.4105 207.291 94.2225 207.978 93.9514 207.929C93.9514 207.752 91.2097 206.948 93.5095 207.321L91.5009 206.929L89.2011 206.38C87.6243 205.968 85.9673 205.557 84.6416 205.057C84.5294 205.003 84.4219 204.941 84.3202 204.87L84.6014 204.949C84.0456 204.735 83.4792 204.549 82.9042 204.39C82.0706 204.057 81.5383 203.851 80.7249 203.557C80.1453 203.256 79.5405 203.004 78.9171 202.802L76.316 201.822C76.316 202.057 74.6087 201.332 76.1855 202.146C76.584 202.248 76.9709 202.389 77.3404 202.567C77.5513 202.646 77.7823 202.734 77.9229 202.773L77.8225 202.773C78.6962 203.136 79.831 203.547 81.1969 203.998C79.9093 203.719 78.6614 203.288 77.481 202.714L75.4724 202.273C73.725 201.293 70.3305 199.617 69.9287 199.235C65.8413 197.598 60.5989 194.775 57.9978 193.746C57.4181 193.472 56.886 193.112 56.421 192.677C57.0738 192.991 57.817 193.413 58.1886 193.55C57.6362 193.266 56.9433 192.913 56.18 192.511L54.0308 191.246C53.1106 190.647 52.1316 190.138 51.1083 189.727C48.5675 187.865 52.7152 190.502 49.0998 188.13L49.632 188.384C46.2175 185.875 43.3552 183.964 40.4528 181.886C39.0368 180.808 37.5404 179.769 36.0641 178.485C35.3309 177.838 34.5878 177.162 33.8145 176.436C32.9863 175.706 32.2049 174.927 31.4745 174.104C31.7338 174.367 31.9721 174.648 32.1875 174.947C28.3131 171.117 24.6457 167.093 21.2006 162.891C17.83 158.677 14.8806 154.157 12.393 149.394C11.649 147.858 10.7966 146.375 9.84206 144.954L9.76173 144.278C9.24954 143.386 8.75743 142.464 8.27537 141.543C7.79993 140.611 7.39056 139.648 7.05013 138.661L6.16635 135.77L5.70439 134.27L5.27255 132.673C4.96122 131.565 4.57958 130.379 4.09752 129.076L4.15777 129.801C3.64558 127.841 2.62122 123.665 2.85221 123.92C2.65443 123.481 2.54531 123.008 2.53083 122.528L2.64131 122.44C2.32998 120.842 1.92827 119.255 1.69728 117.637C1.41608 113.844 2.19942 118.167 1.69728 112.678C1.58681 110.639 1.16501 106.846 1.10475 107.61C1.16228 108.344 1.12177 109.082 0.984241 109.806L0.8637 107.914C0.502156 107.581 0.0904112 106.101 2.55287e-05 110.796C0.12054 111.874 0.17076 112.962 0.381661 114.04L0.311353 115.099C0.241053 114.187 0.0903984 113.276 0.0803554 112.354C0.0441197 113.578 0.175861 114.801 0.472044 115.991C0.401038 116.448 0.384171 116.912 0.421811 117.373C0.602583 118.431 0.90388 119.46 1.18508 120.499C1.11478 120.901 0.692978 119.117 0.964136 121.254C1.35581 122.714 1.03444 119.794 1.53659 122.234C1.45885 123.231 1.59568 124.233 1.9383 125.175C1.9383 125.449 1.75752 125.077 1.55666 124.381C2.02868 125.949 2.56096 128.586 2.94259 129.36C3.22379 130.967 4.5595 134.623 4.19795 134.564C4.44903 135.025 5.43324 137.191 5.96551 138.593C5.32277 137.368 5.75462 138.711 6.37728 140.24C6.99994 141.769 7.78328 143.523 7.44182 143.278C7.74311 143.709 8.0444 144.356 8.44611 145.091C8.84783 145.826 9.30979 146.679 9.78181 147.581C10.6763 149.39 11.6824 151.144 12.7947 152.834C12.5999 152.594 12.4252 152.338 12.2725 152.07C13.2767 153.844 13.4575 154.412 14.1404 155.53C14.5522 155.589 16.2896 158.225 17.4546 159.45C18.6999 161.617 16.2695 158.47 16.5106 159.215C16.6311 158.98 19.2824 162.557 18.9409 161.764C19.4355 162.495 19.8784 163.258 20.2666 164.047C20.7687 164.047 21.4517 165.38 22.6267 166.458C24.2536 168.693 22.7974 167.252 24.9165 169.399C25.9107 170.595 23.9825 168.683 23.9825 168.683ZM84.9228 206.615C84.3202 206.429 83.8181 206.243 83.4967 206.135C83.788 206.233 84.1997 206.39 84.9228 206.615V206.615ZM90.7276 208.399L88.1968 207.615C88.006 207.487 88.257 207.478 88.8395 207.615C89.4465 207.925 90.0779 208.187 90.7276 208.399V208.399ZM78.9774 203.018C79.4329 203.138 79.8714 203.312 80.283 203.537C79.8612 203.39 79.349 203.243 78.6962 202.998L78.5857 202.998C78.7299 202.986 78.8752 202.992 79.0176 203.018L78.9774 203.018Z" fill="#202020"/>
<path d="M77.3104 202.635L76.9388 202.508L77.451 202.763L77.7925 202.822L77.3104 202.635Z" fill="#202020"/>
<path d="M45.3437 3.57732L45.3437 3.44962C45.3503 3.53791 45.3503 3.62655 45.3437 3.71484C45.3395 3.6691 45.3395 3.62307 45.3437 3.57732V3.57732Z" fill="#202020"/>
<path d="M174.536 211.643L174.516 211.594L174.003 211.751L174.536 211.643Z" fill="#202020"/>
<path d="M38.9365 33.305C38.8063 33.3772 38.6821 33.4593 38.5649 33.5505C38.6954 33.4786 38.8196 33.3965 38.9365 33.305V33.305Z" fill="#202020"/>
<path d="M28.2607 42.9893L26.7844 44.3909L28.2607 42.9893Z" fill="#202020"/>
<path d="M20.8691 51.2221C20.8354 51.2933 20.8149 51.3698 20.8087 51.448V51.448L20.8691 51.2221Z" fill="#202020"/>
<path d="M155.434 0.783875L155.866 0.783875C156.88 0.882085 156.187 0.83298 155.434 0.783875Z" fill="#202020"/>
<path d="M102.729 4.06763C103.271 3.91081 103.804 3.76378 104.376 3.63637C103.802 3.66836 103.242 3.81515 102.729 4.06763V4.06763Z" fill="#202020"/>
<path d="M212.247 16.2798L212.578 16.4468L212.247 16.2798Z" fill="#202020"/>
<path d="M106.796 3.19534C105.862 3.32277 105.089 3.47961 104.376 3.64624C105.139 3.50901 106.043 3.36198 106.796 3.19534Z" fill="#202020"/>
<path d="M1.29541 94.1727L1.19473 94.7019C1.19473 94.7019 1.19473 94.7019 1.19473 94.7607L1.29541 94.1727Z" fill="#202020"/>
<path d="M1.21533 94.7608L1.14487 95.3489C1.18354 95.1549 1.2071 94.9583 1.21533 94.7608V94.7608Z" fill="#202020"/>
<path d="M1.02419 96.574C1.039 96.1636 1.07935 95.7544 1.14502 95.3488C1.04128 95.7489 1.00055 96.162 1.02419 96.574V96.574Z" fill="#202020"/>
<path d="M4.87061 80.0977L4.87061 79.911C4.85633 79.9401 4.84891 79.972 4.84891 80.0043C4.84891 80.0366 4.85633 80.0685 4.87061 80.0977V80.0977Z" fill="#202020"/>
<path d="M6.36719 75.9418C5.98556 76.9219 5.23235 78.3529 4.80051 79.7643L4.80051 79.9114C4.92102 79.2057 6.17637 76.9219 6.36719 75.9418Z" fill="#202020"/>
<path d="M15.6567 60.0438L13.6482 63.1509C14.0499 62.6412 14.5922 61.9747 13.7285 63.4155C16.4099 59.5538 13.0958 64.1114 15.6567 60.0438Z" fill="#202020"/>
<path d="M22.4358 50.8402C21.2407 52.4182 22.5463 50.8402 22.5162 51.0068C23.2794 49.9678 23.4401 49.7228 22.4358 50.8402Z" fill="#202020"/>
<path d="M65.7507 11.0358L65.4494 11.0358C66.8655 11.6842 65.5096 11.0358 65.7507 11.0358Z" fill="#202020"/>
<path d="M80.5942 10.0563C80.1021 10.1935 79.5899 10.3112 79.128 10.468L78.5154 10.8796C79.1983 10.6183 79.8912 10.3438 80.5942 10.0563Z" fill="#202020"/>
<path d="M90.0548 8.42914L89.4121 8.64478L91.8726 7.85086L90.0548 8.42914Z" fill="#202020"/>
<path d="M225.583 25.8269L225.312 25.3956C224.398 24.886 224.077 24.984 225.583 25.8269Z" fill="#202020"/>
<path d="M266.157 69.0809C266.544 70.1278 267.007 71.1465 267.543 72.1292C267.138 71.0891 266.676 70.0715 266.157 69.0809V69.0809Z" fill="#202020"/>
<path d="M189.71 205.762L190.845 205.331L188.666 206.066L189.71 205.762Z" fill="#202020"/>
</svg>
