<svg width="48" height="68" viewBox="0 0 48 68" fill="none" xmlns="http://www.w3.org/2000/svg">
<rect x="9.59961" y="3.23804" width="28.8" height="19.4286" rx="3" fill="#DA9459"/>
<rect x="39.4668" width="8.53333" height="25.3651" rx="4.26667" fill="#DA9459"/>
<rect x="19.7334" y="24.2856" width="8.53333" height="43.7143" rx="4.26667" fill="#DA9459"/>
<rect width="8.53333" height="25.3651" rx="4.26667" fill="#DA9459"/>
<ellipse cx="15.7331" cy="9.75121" rx="2.93333" ry="2.96825" fill="#8F2D06"/>
<ellipse cx="15.1995" cy="9.21151" rx="1.33333" ry="1.34921" fill="white"/>
<ellipse cx="32.2663" cy="9.75121" rx="2.93333" ry="2.96825" fill="#8F2D06"/>
<ellipse cx="31.7337" cy="9.21151" rx="1.33333" ry="1.34921" fill="white"/>
<path d="M24.0002 19.9682C25.9675 19.9682 27.6583 18.7707 28.3996 17.0567C28.8381 16.0429 27.9048 15.1111 26.8002 15.1111H21.2002C20.0956 15.1111 19.1623 16.0429 19.6008 17.0567C20.3421 18.7707 22.0329 19.9682 24.0002 19.9682Z" fill="#8F2D06"/>
</svg>
