<svg width="311" height="40" viewBox="0 0 311 40" fill="none" xmlns="http://www.w3.org/2000/svg">
<path d="M63.3774 1.65896C78.8402 1.64998 100.421 1.47587 124.4 1.28241C150.6 1.07103 179.664 0.836548 206.741 0.769103C232.684 0.704483 256.815 0.793033 274.898 1.20141C283.94 1.40563 291.461 1.68965 296.935 2.0736C299.674 2.26569 301.888 2.48192 303.518 2.72344C304.335 2.84432 304.991 2.96959 305.489 3.09756C306.009 3.23159 306.278 3.35005 306.381 3.42116C307.885 4.46345 308.921 6.65756 309.538 9.66689C310.147 12.6378 310.313 16.2277 310.23 19.8322C310.064 27.0412 308.908 34.1576 308.446 36.1671C308.246 37.0379 307.846 37.6267 307.301 38.0496C306.74 38.4854 305.978 38.7803 305.009 38.9669C303.412 39.2742 301.452 39.259 299.252 39.242C298.733 39.238 298.201 39.2339 297.657 39.2339C297.008 39.2339 292.724 39.2331 285.657 39.2317C232.169 39.2213 19.2628 39.1799 16.5276 39.2341C14.9912 39.2645 11.2923 39.2763 7.99683 38.4692C6.34687 38.0651 4.86475 37.4709 3.80892 36.6248C2.77909 35.7994 2.15942 34.7433 2.15942 33.3272C2.15942 31.6003 1.95624 29.5317 1.70878 27.3303C1.65145 26.8204 1.5917 26.3029 1.53128 25.7796C1.32907 24.0283 1.11931 22.2116 0.967628 20.3926C0.57053 15.6306 0.597634 11.0725 2.08678 7.93979C2.36437 7.35583 2.58549 6.79426 2.77563 6.31138C2.86233 6.09121 2.94258 5.88739 3.01881 5.70528C3.27496 5.0933 3.51281 4.64809 3.86623 4.2794C4.56797 3.54732 5.90134 2.93848 9.39185 2.52045C16.3364 1.68875 30.9681 1.67778 63.3774 1.65896Z" fill="white" stroke="#333531" stroke-width="1.5"/>
<path d="M47.33 28.648C47.218 28.76 46.874 28.816 46.298 28.816C45.898 28.896 45.426 28.832 44.882 28.624L44.378 28.456L43.634 28.096C43.57 28.096 43.53 28.096 43.514 28.096C43.498 28.112 43.458 28.096 43.394 28.048C43.298 27.968 43.186 27.904 43.058 27.856C42.738 27.632 42.514 27.432 42.386 27.256C41.874 26.44 41.618 25.76 41.618 25.216C41.618 25.152 41.698 25.032 41.858 24.856C42.178 24.472 42.578 24.28 43.058 24.28C43.25 24.296 43.402 24.36 43.514 24.472L44.306 25.504C44.434 25.632 44.578 25.76 44.738 25.888L45.05 26.224L45.53 26.632C45.594 26.664 45.658 26.68 45.722 26.68C45.786 26.712 45.962 26.752 46.25 26.8C46.57 26.72 46.842 26.632 47.066 26.536C47.21 26.392 47.338 26.28 47.45 26.2L47.786 25.816C47.818 25.784 47.874 25.656 47.954 25.432C47.954 25.224 47.954 25.088 47.954 25.024C47.97 24.944 47.946 24.744 47.882 24.424C47.866 24.376 47.754 24.248 47.546 24.04C47.45 23.848 47.314 23.64 47.138 23.416C47.042 23.32 46.578 23.064 45.746 22.648L45.29 22.384L44.858 22C44.65 21.936 44.354 21.72 43.97 21.352C43.81 21.24 43.69 21.152 43.61 21.088C43.514 21.056 43.25 20.784 42.818 20.272C42.818 20.24 42.682 19.936 42.41 19.36L42.194 18.424L42.29 17.8C42.194 17.384 42.162 17.072 42.194 16.864C42.258 16.768 42.338 16.576 42.434 16.288C42.386 16.048 42.602 15.576 43.082 14.872C43.082 14.776 43.434 14.392 44.138 13.72L44.954 13.288L45.338 13.12C45.482 13.104 45.674 13.08 45.914 13.048C46.17 13.016 46.546 13.016 47.042 13.048C47.538 13.08 47.85 13.144 47.978 13.24C48.09 13.288 48.41 13.504 48.938 13.888C49.642 14.512 50.026 15.072 50.09 15.568C50.362 16.384 50.378 17.256 50.138 18.184C50.138 18.248 49.914 18.376 49.466 18.568L48.866 18.544C48.354 18.48 47.866 18.216 47.402 17.752C47.274 17.672 47.178 17.448 47.114 17.08C47.098 16.696 47.018 16.464 46.874 16.384C46.858 16.368 46.794 16.224 46.682 15.952C46.41 15.6 46.226 15.424 46.13 15.424C46.05 15.424 45.954 15.448 45.842 15.496C45.266 15.96 44.962 16.48 44.93 17.056C44.818 17.52 44.962 18.088 45.362 18.76C45.538 19.016 45.65 19.144 45.698 19.144C45.794 19.304 45.978 19.504 46.25 19.744L46.586 20.104L47.594 20.848L48.002 21.256L48.458 21.544C48.714 21.656 48.962 21.808 49.202 22C49.522 22.24 49.914 22.688 50.378 23.344C50.474 23.488 50.602 23.92 50.762 24.64V25.576L50.642 26.128C50.562 26.208 50.474 26.368 50.378 26.608C50.378 26.624 50.29 26.84 50.114 27.256C50.066 27.336 49.874 27.504 49.538 27.76C49.058 28.144 48.522 28.432 47.93 28.624C47.802 28.656 47.602 28.664 47.33 28.648ZM57.3774 20.32C57.4414 20.08 57.4334 19.776 57.3534 19.408C57.2414 19.312 57.0894 19.264 56.8974 19.264C56.6574 19.264 56.4414 19.488 56.2494 19.936C55.9934 20.32 55.8014 20.744 55.6734 21.208H55.6494C55.4734 21.88 55.3854 22.24 55.3854 22.288C55.6414 22.352 55.8494 22.384 56.0094 22.384C56.1694 22.368 56.3534 22.28 56.5614 22.12C56.9294 21.768 57.2014 21.168 57.3774 20.32ZM57.3054 23.776L56.4174 23.848C55.9214 23.848 55.5294 23.8 55.2414 23.704L55.3134 24.16C55.3614 25.488 55.7294 26.36 56.4174 26.776C56.6094 26.856 56.7694 26.896 56.8974 26.896C57.0254 26.896 57.1934 26.832 57.4014 26.704C57.4654 26.64 57.5214 26.552 57.5694 26.44C57.5854 26.296 57.6654 26.232 57.8094 26.248C58.4654 25.416 58.9614 25.088 59.2974 25.264C59.6334 25.488 59.8014 25.664 59.8014 25.792C59.8014 25.856 59.7614 25.928 59.6814 26.008V26.152C59.6814 26.312 59.5774 26.6 59.3694 27.016C59.1774 27.432 58.9694 27.784 58.7454 28.072C58.6334 28.312 58.4894 28.48 58.3134 28.576C57.8014 28.896 57.2574 29.024 56.6814 28.96C56.5534 28.944 56.4654 28.912 56.4174 28.864C56.2894 28.832 56.1934 28.824 56.1294 28.84L55.9374 28.816C55.7934 28.816 55.6734 28.784 55.5774 28.72C55.4174 28.624 55.3054 28.576 55.2414 28.576C54.8254 28.416 54.5694 28.296 54.4734 28.216C54.3934 28.136 54.3214 28.08 54.2574 28.048C54.1934 28.016 54.0414 27.848 53.8014 27.544C53.5934 27.368 53.4734 27.256 53.4414 27.208C53.3454 27.064 53.2574 26.96 53.1774 26.896C53.1134 26.832 53.0734 26.688 53.0574 26.464C52.9934 26.384 52.9614 26.28 52.9614 26.152L52.8654 25.96C52.8654 25.848 52.8174 25.76 52.7214 25.696C52.6254 25.6 52.5774 25.48 52.5774 25.336V25.144C52.5134 25.112 52.4974 25.016 52.5294 24.856V24.232L52.5054 24.016V23.848C52.4894 23.784 52.5054 23.648 52.5534 23.44L52.5294 23.224C52.5454 23.208 52.5694 23.08 52.6014 22.84C52.6654 22.504 52.7374 22.296 52.8174 22.216V22C52.8334 21.952 52.8414 21.888 52.8414 21.808C52.8414 21.728 52.8574 21.64 52.8894 21.544C52.9374 21.448 53.0654 21.088 53.2734 20.464L53.6574 19.624C53.7694 19.384 53.9454 19.12 54.1854 18.832C54.2014 18.752 54.2654 18.608 54.3774 18.4L54.6894 18.112C54.7854 17.968 54.9294 17.864 55.1214 17.8C55.3454 17.688 55.5134 17.632 55.6254 17.632L56.2974 17.536C56.3774 17.552 56.4334 17.56 56.4654 17.56H56.7774C57.1294 17.592 57.4174 17.664 57.6414 17.776C58.1214 17.92 58.4734 18.104 58.6974 18.328C59.1934 18.888 59.4414 19.424 59.4414 19.936C59.4414 20.448 59.3614 20.888 59.2014 21.256C58.8014 22.168 58.5134 22.744 58.3374 22.984C58.0494 23.512 57.7054 23.776 57.3054 23.776ZM66.4946 20.32C66.5586 20.08 66.5506 19.776 66.4706 19.408C66.3586 19.312 66.2066 19.264 66.0146 19.264C65.7746 19.264 65.5586 19.488 65.3666 19.936C65.1106 20.32 64.9186 20.744 64.7906 21.208H64.7666C64.5906 21.88 64.5026 22.24 64.5026 22.288C64.7586 22.352 64.9666 22.384 65.1266 22.384C65.2866 22.368 65.4706 22.28 65.6786 22.12C66.0466 21.768 66.3186 21.168 66.4946 20.32ZM66.4226 23.776L65.5346 23.848C65.0386 23.848 64.6466 23.8 64.3586 23.704L64.4306 24.16C64.4786 25.488 64.8466 26.36 65.5346 26.776C65.7266 26.856 65.8866 26.896 66.0146 26.896C66.1426 26.896 66.3106 26.832 66.5186 26.704C66.5826 26.64 66.6386 26.552 66.6866 26.44C66.7026 26.296 66.7826 26.232 66.9266 26.248C67.5826 25.416 68.0786 25.088 68.4146 25.264C68.7506 25.488 68.9186 25.664 68.9186 25.792C68.9186 25.856 68.8786 25.928 68.7986 26.008V26.152C68.7986 26.312 68.6946 26.6 68.4866 27.016C68.2946 27.432 68.0866 27.784 67.8626 28.072C67.7506 28.312 67.6066 28.48 67.4306 28.576C66.9186 28.896 66.3746 29.024 65.7986 28.96C65.6706 28.944 65.5826 28.912 65.5346 28.864C65.4066 28.832 65.3106 28.824 65.2466 28.84L65.0546 28.816C64.9106 28.816 64.7906 28.784 64.6946 28.72C64.5346 28.624 64.4226 28.576 64.3586 28.576C63.9426 28.416 63.6866 28.296 63.5906 28.216C63.5106 28.136 63.4386 28.08 63.3746 28.048C63.3106 28.016 63.1586 27.848 62.9186 27.544C62.7106 27.368 62.5906 27.256 62.5586 27.208C62.4626 27.064 62.3746 26.96 62.2946 26.896C62.2306 26.832 62.1906 26.688 62.1746 26.464C62.1106 26.384 62.0786 26.28 62.0786 26.152L61.9826 25.96C61.9826 25.848 61.9346 25.76 61.8386 25.696C61.7426 25.6 61.6946 25.48 61.6946 25.336V25.144C61.6306 25.112 61.6146 25.016 61.6466 24.856V24.232L61.6226 24.016V23.848C61.6066 23.784 61.6226 23.648 61.6706 23.44L61.6466 23.224C61.6626 23.208 61.6866 23.08 61.7186 22.84C61.7826 22.504 61.8546 22.296 61.9346 22.216V22C61.9506 21.952 61.9586 21.888 61.9586 21.808C61.9586 21.728 61.9746 21.64 62.0066 21.544C62.0546 21.448 62.1826 21.088 62.3906 20.464L62.7746 19.624C62.8866 19.384 63.0626 19.12 63.3026 18.832C63.3186 18.752 63.3826 18.608 63.4946 18.4L63.8066 18.112C63.9026 17.968 64.0466 17.864 64.2386 17.8C64.4626 17.688 64.6306 17.632 64.7426 17.632L65.4146 17.536C65.4946 17.552 65.5506 17.56 65.5826 17.56H65.8946C66.2466 17.592 66.5346 17.664 66.7586 17.776C67.2386 17.92 67.5906 18.104 67.8146 18.328C68.3106 18.888 68.5586 19.424 68.5586 19.936C68.5586 20.448 68.4786 20.888 68.3186 21.256C67.9186 22.168 67.6306 22.744 67.4546 22.984C67.1666 23.512 66.8226 23.776 66.4226 23.776ZM78.7537 18.664L78.4897 21.928L78.6337 21.592C78.6977 21.448 78.9297 21.112 79.3297 20.584C79.3297 20.536 79.5777 20.112 80.0737 19.312L80.4817 18.832L80.6977 18.496C81.0017 18.256 81.2577 18.136 81.4657 18.136C81.8977 18.072 82.3617 18.2 82.8577 18.52C82.9697 18.536 83.1137 18.656 83.2897 18.88C83.5617 19.088 83.6817 19.384 83.6497 19.768C83.6497 19.8 83.6417 19.848 83.6257 19.912C83.3217 22.408 83.1617 24.16 83.1457 25.168C83.1297 26.16 83.2097 26.992 83.3857 27.664C83.5137 28.224 83.3057 28.616 82.7617 28.84C82.6177 28.936 82.3937 28.952 82.0897 28.888C81.8177 28.888 81.6097 28.848 81.4657 28.768C81.3377 28.704 81.2017 28.544 81.0577 28.288L80.9377 27.808C80.8737 27.68 80.8417 27.504 80.8417 27.28L80.7457 26.584C80.7617 26.552 80.7697 26.344 80.7697 25.96L80.7937 25.336C80.7457 25.112 80.7537 24.672 80.8177 24.016L80.8657 22.984V22.384C80.8817 22.336 80.8337 22.224 80.7217 22.048C80.3057 22.368 79.8417 23.44 79.3297 25.264L78.7057 27.184C78.4177 28.208 78.1057 28.76 77.7697 28.84L77.5057 28.888C77.2817 28.888 76.9777 28.824 76.5937 28.696C76.2897 28.36 76.1377 28.024 76.1377 27.688C76.1697 27.624 76.1777 27.552 76.1617 27.472C76.1137 27.264 76.1297 26.976 76.2097 26.608C76.1937 26.56 76.1857 26.496 76.1857 26.416L76.2097 26.056C76.1777 25.976 76.1457 25.752 76.1137 25.384C76.0817 25 76.0817 24.712 76.1137 24.52C76.0817 24.456 76.1297 24.24 76.2577 23.872C76.1297 23.68 76.0577 23.464 76.0417 23.224C75.9777 22.568 75.9537 22.08 75.9697 21.76C76.0017 21.424 76.0177 21.112 76.0177 20.824C75.9857 20.536 75.9777 20.192 75.9937 19.792L76.1617 17.848L76.3297 16.456C76.3297 16.344 76.2897 16.176 76.2097 15.952C76.1457 15.712 76.1297 15.432 76.1617 15.112C76.1937 14.792 76.2257 14.592 76.2577 14.512C76.3057 14.416 76.3697 14.176 76.4497 13.792C76.4497 13.472 76.4817 13.232 76.5457 13.072L76.6897 12.64C76.7057 12.528 76.9137 12.344 77.3137 12.088H77.5777C78.2017 12.136 78.6577 12.24 78.9457 12.4C79.0737 12.48 79.1057 12.76 79.0417 13.24C79.0097 13.912 78.9857 14.328 78.9697 14.488C78.9537 14.648 78.9137 15.344 78.8497 16.576C78.7857 17.808 78.7537 18.504 78.7537 18.664ZM90.4605 20.92C90.3485 20.28 90.0365 19.984 89.5245 20.032C89.2365 20.048 88.9885 20.24 88.7805 20.608C88.4925 21.168 88.3645 21.896 88.3965 22.792C88.4445 23.672 88.5085 24.312 88.5885 24.712C88.6845 25.096 88.8445 25.432 89.0685 25.72C89.1965 25.944 89.3885 26.048 89.6445 26.032C90.0925 26.032 90.4205 25.656 90.6285 24.904L90.8205 24.328C90.9005 24.248 90.9165 24.168 90.8685 24.088C91.0285 23.688 91.1165 23.216 91.1325 22.672C90.9725 22.56 90.8765 22.456 90.8445 22.36C90.7485 22.088 90.7005 21.904 90.7005 21.808C90.5885 21.728 90.5245 21.576 90.5085 21.352C90.4925 21.128 90.4765 20.984 90.4605 20.92ZM86.0685 23.176L86.1645 21.952C86.2765 20.848 86.6125 19.904 87.1725 19.12C87.7165 18.464 88.4845 18.128 89.4765 18.112H89.6205C90.5485 18.112 91.2205 18.312 91.6365 18.712C92.0845 19.064 92.4125 19.448 92.6205 19.864C92.8445 20.28 92.9885 20.584 93.0525 20.776C93.1165 20.968 93.1565 21.248 93.1725 21.616C93.2045 22.304 93.0685 22.696 92.7645 22.792C92.9885 24.312 92.8525 25.52 92.3565 26.416C92.1965 26.784 91.9645 27.184 91.6605 27.616C91.4365 27.904 91.0365 28.064 90.4605 28.096C89.8845 28.096 89.3805 28.064 88.9485 28C88.5325 27.936 88.0685 27.736 87.5565 27.4C87.0445 27.048 86.6845 26.48 86.4765 25.696C86.2525 24.944 86.1165 24.104 86.0685 23.176ZM98.088 21.184L98.064 22.192V22.96L98.112 23.872C98.112 24.544 98.192 25.28 98.352 26.08L98.472 26.296C98.472 26.12 98.496 25.968 98.544 25.84C98.608 25.712 98.64 25.56 98.64 25.384L98.976 24.136C98.976 24.088 99.016 23.984 99.096 23.824C99.16 23.664 99.256 23.368 99.384 22.936C99.528 22.488 99.616 22.104 99.648 21.784C99.68 21.448 99.712 21.216 99.744 21.088C99.776 20.96 99.768 20.784 99.72 20.56L99.84 19.576C99.84 19.352 99.872 19.192 99.936 19.096C100.608 19 101.048 18.944 101.256 18.928C101.256 19.024 101.312 19.152 101.424 19.312C101.424 19.376 101.48 19.52 101.592 19.744L101.688 20.176C101.784 20.4 101.904 21.384 102.048 23.128C102.064 23.688 102.216 24.464 102.504 25.456C102.584 25.328 102.616 25.176 102.6 25C102.696 24.904 102.744 24.648 102.744 24.232L102.984 23.584L103.44 21.112L103.536 20.056L103.728 19.312C103.76 19.104 103.824 18.96 103.92 18.88C104.032 18.784 104.208 18.744 104.448 18.76H105.048C105.16 18.84 105.312 18.88 105.504 18.88L105.792 18.952C105.776 19.144 105.76 19.36 105.744 19.6C105.728 19.792 105.664 20.232 105.552 20.92C105.36 23.208 105.216 24.584 105.12 25.048C105.12 25.16 105.096 25.248 105.048 25.312C105.032 25.536 104.92 26.08 104.712 26.944C104.712 27.072 104.544 27.304 104.208 27.64C104.096 27.832 103.928 27.952 103.704 28C103.624 28.08 103.472 28.128 103.248 28.144C103.024 28.176 102.792 28.144 102.552 28.048C102.312 27.968 102.176 27.904 102.144 27.856C101.984 27.712 101.784 27.608 101.544 27.544L101.184 27.4C100.992 27.192 100.88 27.072 100.848 27.04C100.784 26.944 100.728 26.712 100.68 26.344C100.648 26.328 100.608 26.112 100.56 25.696C100.368 26.4 100.272 26.792 100.272 26.872C100.192 27.144 100.136 27.304 100.104 27.352C100.088 27.384 100.072 27.44 100.056 27.52C100.056 27.584 100.04 27.648 100.008 27.712C100.008 27.808 99.952 27.912 99.84 28.024C99.744 28.136 99.552 28.224 99.264 28.288C98.976 28.368 98.6 28.376 98.136 28.312L97.848 28.336C97.736 28.336 97.616 28.32 97.488 28.288C97.296 28.16 97.16 28 97.08 27.808C96.888 27.536 96.72 27.24 96.576 26.92C96.48 26.824 96.352 26.504 96.192 25.96C96.048 25.624 95.976 25.432 95.976 25.384V25.168C95.912 25.104 95.84 24.912 95.76 24.592C95.696 24.272 95.68 24.032 95.712 23.872C95.664 23.808 95.64 23.64 95.64 23.368C95.608 23.208 95.592 22.952 95.592 22.6C95.544 22.008 95.488 21.624 95.424 21.448C95.44 21.24 95.376 20.952 95.232 20.584C95.104 19.864 95.064 19.448 95.112 19.336C95.064 19.208 95.104 19.008 95.232 18.736C95.232 18.656 95.432 18.432 95.832 18.064C96.04 18 96.208 18.008 96.336 18.088C96.464 18.152 96.608 18.192 96.768 18.208L97.608 18.448C98.072 18.576 98.264 19.112 98.184 20.056L98.088 20.992C98.088 21.008 98.088 21.04 98.088 21.088V21.184ZM114.654 19.528L114.678 19.312C114.342 19.28 114.102 19.256 113.958 19.24C113.83 19.208 113.614 19.176 113.31 19.144C113.006 19.112 112.766 19.064 112.59 19C112.254 18.888 112.062 18.6 112.014 18.136C111.966 17.656 112.118 17.36 112.47 17.248C112.79 17.168 113.014 17.128 113.142 17.128C113.27 17.128 113.51 17.112 113.862 17.08C114.038 16.984 114.278 16.928 114.582 16.912L114.942 16.816C114.942 16.832 115.006 16.816 115.134 16.768L115.254 16.264C115.254 16.008 115.326 15.752 115.47 15.496C115.47 15.384 115.574 15.072 115.782 14.56C115.782 14.496 115.926 14.032 116.214 13.168C116.278 13.088 116.518 12.904 116.934 12.616C117.19 12.488 117.55 12.576 118.014 12.88C118.27 12.992 118.446 13.144 118.542 13.336C118.446 13.432 118.398 13.656 118.398 14.008C118.382 14.12 118.27 14.712 118.062 15.784V16.456C118.19 16.472 118.398 16.512 118.686 16.576C118.99 16.64 119.35 16.712 119.766 16.792C120.566 16.952 121.07 17.272 121.278 17.752C121.358 18.104 121.342 18.352 121.23 18.496C121.118 18.64 120.846 18.744 120.414 18.808C120.062 18.824 119.598 18.832 119.022 18.832C118.462 18.832 118.046 18.872 117.774 18.952C117.742 19.24 117.726 19.464 117.726 19.624L117.702 19.984C117.702 20.096 117.63 20.688 117.486 21.76C117.39 21.904 117.31 22.648 117.246 23.992V25.744C117.246 26.032 117.27 26.304 117.318 26.56C117.334 26.912 117.374 27.16 117.438 27.304C117.438 27.448 117.478 27.752 117.558 28.216C117.366 28.68 117.046 28.912 116.598 28.912C116.166 28.912 115.782 28.752 115.446 28.432L115.182 28.048C115.134 27.92 115.094 27.832 115.062 27.784C115.046 27.736 115.03 27.68 115.014 27.616C114.902 27.296 114.814 27.096 114.75 27.016C114.654 26.888 114.606 26.792 114.606 26.728C114.606 26.664 114.606 26.584 114.606 26.488C114.574 26.216 114.534 25.984 114.486 25.792C114.406 25.712 114.366 25.44 114.366 24.976C114.398 24.128 114.398 23.64 114.366 23.512C114.414 23.464 114.422 23.16 114.39 22.6L114.462 22.072C114.462 22.008 114.494 21.768 114.558 21.352C114.526 21.288 114.518 21.12 114.534 20.848C114.55 20.56 114.574 20.36 114.606 20.248C114.638 20.056 114.654 19.816 114.654 19.528ZM124.269 18.664L124.005 21.928L124.149 21.592C124.213 21.448 124.445 21.112 124.845 20.584C124.845 20.536 125.093 20.112 125.589 19.312L125.997 18.832L126.213 18.496C126.517 18.256 126.773 18.136 126.981 18.136C127.413 18.072 127.877 18.2 128.373 18.52C128.485 18.536 128.629 18.656 128.805 18.88C129.077 19.088 129.197 19.384 129.165 19.768C129.165 19.8 129.157 19.848 129.141 19.912C128.837 22.408 128.677 24.16 128.661 25.168C128.645 26.16 128.725 26.992 128.901 27.664C129.029 28.224 128.821 28.616 128.277 28.84C128.133 28.936 127.909 28.952 127.605 28.888C127.333 28.888 127.125 28.848 126.981 28.768C126.853 28.704 126.717 28.544 126.573 28.288L126.453 27.808C126.389 27.68 126.357 27.504 126.357 27.28L126.261 26.584C126.277 26.552 126.285 26.344 126.285 25.96L126.309 25.336C126.261 25.112 126.269 24.672 126.333 24.016L126.381 22.984V22.384C126.397 22.336 126.349 22.224 126.237 22.048C125.821 22.368 125.357 23.44 124.845 25.264L124.221 27.184C123.933 28.208 123.621 28.76 123.285 28.84L123.021 28.888C122.797 28.888 122.493 28.824 122.109 28.696C121.805 28.36 121.653 28.024 121.653 27.688C121.685 27.624 121.693 27.552 121.677 27.472C121.629 27.264 121.645 26.976 121.725 26.608C121.709 26.56 121.701 26.496 121.701 26.416L121.725 26.056C121.693 25.976 121.661 25.752 121.629 25.384C121.597 25 121.597 24.712 121.629 24.52C121.597 24.456 121.645 24.24 121.773 23.872C121.645 23.68 121.573 23.464 121.557 23.224C121.493 22.568 121.469 22.08 121.485 21.76C121.517 21.424 121.533 21.112 121.533 20.824C121.501 20.536 121.493 20.192 121.509 19.792L121.677 17.848L121.845 16.456C121.845 16.344 121.805 16.176 121.725 15.952C121.661 15.712 121.645 15.432 121.677 15.112C121.709 14.792 121.741 14.592 121.773 14.512C121.821 14.416 121.885 14.176 121.965 13.792C121.965 13.472 121.997 13.232 122.061 13.072L122.205 12.64C122.221 12.528 122.429 12.344 122.829 12.088H123.093C123.717 12.136 124.173 12.24 124.461 12.4C124.589 12.48 124.621 12.76 124.557 13.24C124.525 13.912 124.501 14.328 124.485 14.488C124.469 14.648 124.429 15.344 124.365 16.576C124.301 17.808 124.269 18.504 124.269 18.664ZM136.432 20.32C136.496 20.08 136.488 19.776 136.408 19.408C136.296 19.312 136.144 19.264 135.952 19.264C135.712 19.264 135.496 19.488 135.304 19.936C135.048 20.32 134.856 20.744 134.728 21.208H134.704C134.528 21.88 134.44 22.24 134.44 22.288C134.696 22.352 134.904 22.384 135.064 22.384C135.224 22.368 135.408 22.28 135.616 22.12C135.984 21.768 136.256 21.168 136.432 20.32ZM136.36 23.776L135.472 23.848C134.976 23.848 134.584 23.8 134.296 23.704L134.368 24.16C134.416 25.488 134.784 26.36 135.472 26.776C135.664 26.856 135.824 26.896 135.952 26.896C136.08 26.896 136.248 26.832 136.456 26.704C136.52 26.64 136.576 26.552 136.624 26.44C136.64 26.296 136.72 26.232 136.864 26.248C137.52 25.416 138.016 25.088 138.352 25.264C138.688 25.488 138.856 25.664 138.856 25.792C138.856 25.856 138.816 25.928 138.736 26.008V26.152C138.736 26.312 138.632 26.6 138.424 27.016C138.232 27.432 138.024 27.784 137.8 28.072C137.688 28.312 137.544 28.48 137.368 28.576C136.856 28.896 136.312 29.024 135.736 28.96C135.608 28.944 135.52 28.912 135.472 28.864C135.344 28.832 135.248 28.824 135.184 28.84L134.992 28.816C134.848 28.816 134.728 28.784 134.632 28.72C134.472 28.624 134.36 28.576 134.296 28.576C133.88 28.416 133.624 28.296 133.528 28.216C133.448 28.136 133.376 28.08 133.312 28.048C133.248 28.016 133.096 27.848 132.856 27.544C132.648 27.368 132.528 27.256 132.496 27.208C132.4 27.064 132.312 26.96 132.232 26.896C132.168 26.832 132.128 26.688 132.112 26.464C132.048 26.384 132.016 26.28 132.016 26.152L131.92 25.96C131.92 25.848 131.872 25.76 131.776 25.696C131.68 25.6 131.632 25.48 131.632 25.336V25.144C131.568 25.112 131.552 25.016 131.584 24.856V24.232L131.56 24.016V23.848C131.544 23.784 131.56 23.648 131.608 23.44L131.584 23.224C131.6 23.208 131.624 23.08 131.656 22.84C131.72 22.504 131.792 22.296 131.872 22.216V22C131.888 21.952 131.896 21.888 131.896 21.808C131.896 21.728 131.912 21.64 131.944 21.544C131.992 21.448 132.12 21.088 132.328 20.464L132.712 19.624C132.824 19.384 133 19.12 133.24 18.832C133.256 18.752 133.32 18.608 133.432 18.4L133.744 18.112C133.84 17.968 133.984 17.864 134.176 17.8C134.4 17.688 134.568 17.632 134.68 17.632L135.352 17.536C135.432 17.552 135.488 17.56 135.52 17.56H135.832C136.184 17.592 136.472 17.664 136.696 17.776C137.176 17.92 137.528 18.104 137.752 18.328C138.248 18.888 138.496 19.424 138.496 19.936C138.496 20.448 138.416 20.888 138.256 21.256C137.856 22.168 137.568 22.744 137.392 22.984C137.104 23.512 136.76 23.776 136.36 23.776ZM149.195 13.312C149.419 13.216 149.883 13.184 150.587 13.216C151.291 13.232 151.795 13.296 152.099 13.408L152.699 13.6C153.195 13.936 153.475 14.104 153.539 14.104C154.195 14.616 154.571 15.288 154.667 16.12C154.763 16.472 154.779 16.792 154.715 17.08C154.715 17.176 154.683 17.384 154.619 17.704L154.379 18.256L154.091 18.664C153.995 18.68 153.939 18.688 153.923 18.688C153.331 18.784 152.875 18.8 152.555 18.736C152.235 18.656 151.955 18.48 151.715 18.208C151.667 18.112 151.643 18.024 151.643 17.944C151.659 17.864 151.683 17.792 151.715 17.728L151.835 17.344C152.043 16.832 152.027 16.4 151.787 16.048C151.787 16 151.707 15.912 151.547 15.784C151.387 15.656 151.259 15.56 151.163 15.496C151.083 15.432 150.931 15.424 150.707 15.472C150.323 15.632 149.995 16.12 149.723 16.936C149.403 17.352 149.179 17.896 149.051 18.568C148.859 19.768 148.763 20.448 148.763 20.608L148.739 21.136V21.352C148.707 21.384 148.723 22.08 148.787 23.44C148.803 23.52 148.835 23.632 148.883 23.776C148.931 23.952 149.003 24.24 149.099 24.64L149.411 25.168C149.491 25.216 149.595 25.36 149.723 25.6C149.803 25.6 149.867 25.656 149.915 25.768C150.027 25.88 150.075 25.944 150.059 25.96C150.139 25.976 150.259 26.024 150.419 26.104C150.851 26.328 151.227 26.28 151.547 25.96C151.659 25.848 151.795 25.696 151.955 25.504C152.131 25.296 152.259 25.136 152.339 25.024C152.435 24.896 152.579 24.776 152.771 24.664C153.299 24.264 153.755 24.28 154.139 24.712C154.219 24.84 154.227 25.152 154.163 25.648C154.115 26.128 153.891 26.632 153.491 27.16C153.459 27.256 153.355 27.416 153.179 27.64C153.003 27.848 152.819 28.016 152.627 28.144C152.595 28.256 151.987 28.336 150.803 28.384C150.739 28.384 150.611 28.368 150.419 28.336C150.243 28.384 150.003 28.36 149.699 28.264C149.411 28.168 149.251 28.12 149.219 28.12L148.907 28.048C148.779 28.048 148.651 28.008 148.523 27.928C148.395 27.848 148.179 27.712 147.875 27.52C147.587 27.312 147.363 27.144 147.203 27.016C146.723 26.632 146.379 26.192 146.171 25.696C146.107 25.584 146.067 25.432 146.051 25.24C146.035 25.032 146.003 24.88 145.955 24.784C145.827 24.656 145.763 24.448 145.763 24.16C145.779 23.872 145.763 23.52 145.715 23.104C145.715 22.912 145.723 22.8 145.739 22.768C145.659 22.688 145.627 22.552 145.643 22.36C145.659 22.152 145.667 21.872 145.667 21.52C145.715 21.424 145.731 21.144 145.715 20.68C145.715 20.2 145.731 19.84 145.763 19.6C145.699 19.456 145.691 19.248 145.739 18.976L145.763 18.256C145.779 17.968 145.851 17.664 145.979 17.344C145.995 17.2 146.027 17.032 146.075 16.84C146.123 16.632 146.331 16.224 146.699 15.616C146.699 15.488 146.819 15.328 147.059 15.136C147.059 15.072 147.123 14.976 147.251 14.848C147.379 14.72 147.523 14.56 147.683 14.368C147.907 14.096 148.155 13.896 148.427 13.768C148.699 13.64 148.955 13.488 149.195 13.312ZM160.82 20.92C160.708 20.28 160.396 19.984 159.884 20.032C159.596 20.048 159.348 20.24 159.14 20.608C158.852 21.168 158.724 21.896 158.756 22.792C158.804 23.672 158.868 24.312 158.948 24.712C159.044 25.096 159.204 25.432 159.428 25.72C159.556 25.944 159.748 26.048 160.004 26.032C160.452 26.032 160.78 25.656 160.988 24.904L161.18 24.328C161.26 24.248 161.276 24.168 161.228 24.088C161.388 23.688 161.476 23.216 161.492 22.672C161.332 22.56 161.236 22.456 161.204 22.36C161.108 22.088 161.06 21.904 161.06 21.808C160.948 21.728 160.884 21.576 160.868 21.352C160.852 21.128 160.836 20.984 160.82 20.92ZM156.428 23.176L156.524 21.952C156.636 20.848 156.972 19.904 157.532 19.12C158.076 18.464 158.844 18.128 159.836 18.112H159.98C160.908 18.112 161.58 18.312 161.996 18.712C162.444 19.064 162.772 19.448 162.98 19.864C163.204 20.28 163.348 20.584 163.412 20.776C163.476 20.968 163.516 21.248 163.532 21.616C163.564 22.304 163.428 22.696 163.124 22.792C163.348 24.312 163.212 25.52 162.716 26.416C162.556 26.784 162.324 27.184 162.02 27.616C161.796 27.904 161.396 28.064 160.82 28.096C160.244 28.096 159.74 28.064 159.308 28C158.892 27.936 158.428 27.736 157.916 27.4C157.404 27.048 157.044 26.48 156.836 25.696C156.612 24.944 156.476 24.104 156.428 23.176ZM173.319 21.352L173.343 21.808C173.343 21.856 173.391 22.36 173.487 23.32V23.608C173.487 23.992 173.551 24.568 173.679 25.336C173.679 25.672 173.847 26.256 174.183 27.088C174.263 27.136 174.319 27.248 174.351 27.424L174.327 27.664C174.359 27.744 174.319 27.832 174.207 27.928C174.207 28.04 174.055 28.096 173.751 28.096C173.447 28.096 173.255 28.112 173.175 28.144C173.095 28.176 172.967 28.16 172.791 28.096C172.727 28.128 172.535 28.064 172.215 27.904C172.071 27.872 171.959 27.728 171.879 27.472L171.687 27.016C171.687 26.728 171.607 26.472 171.447 26.248C171.447 26.168 171.407 26.024 171.327 25.816C171.263 25.608 171.215 25.496 171.183 25.48C171.023 26.12 170.823 26.616 170.583 26.968C170.583 27.048 170.535 27.144 170.439 27.256L170.199 27.712C170.199 27.744 170.127 27.832 169.983 27.976C169.887 28.184 169.671 28.288 169.335 28.288C169.031 28.288 168.663 28.208 168.231 28.048C168.119 28.032 167.895 27.96 167.559 27.832C167.463 27.848 167.311 27.824 167.103 27.76C166.911 27.68 166.799 27.64 166.767 27.64C166.719 27.592 166.607 27.512 166.431 27.4L166.023 26.968C166.007 26.952 165.975 26.88 165.927 26.752C165.895 26.608 165.887 26.512 165.903 26.464C165.919 26.4 165.919 26.312 165.903 26.2C165.887 26.088 165.895 25.976 165.927 25.864C165.927 25.544 165.959 25.192 166.023 24.808C166.007 24.76 165.999 24.704 165.999 24.64C165.999 24.576 166.031 24.456 166.095 24.28C166.079 24.2 166.071 24.144 166.071 24.112L166.191 23.176C166.191 22.952 166.199 22.792 166.215 22.696V22.336C166.231 22.272 166.239 22.184 166.239 22.072L166.359 20.92C166.359 20.744 166.367 20.632 166.383 20.584V20.344C166.415 20.312 166.431 20.184 166.431 19.96L166.647 19.288L166.815 19C166.831 18.936 166.919 18.864 167.079 18.784C167.335 18.624 167.703 18.544 168.183 18.544C168.375 18.576 168.583 18.656 168.807 18.784C168.855 18.768 168.967 18.8 169.143 18.88C169.463 19.024 169.479 19.432 169.191 20.104C169.127 20.536 169.095 20.76 169.095 20.776C169.031 20.904 168.999 21.008 168.999 21.088C168.903 21.6 168.855 21.872 168.855 21.904C168.919 21.84 168.895 21.936 168.783 22.192L168.687 23.08C168.575 23.464 168.527 23.888 168.543 24.352L168.447 24.664C168.463 24.744 168.455 24.992 168.423 25.408C168.455 25.456 168.471 25.512 168.471 25.576L168.495 25.768C168.479 25.816 168.487 25.864 168.519 25.912C168.551 25.944 168.639 25.96 168.783 25.96C168.943 25.944 169.079 25.904 169.191 25.84C169.415 25.568 169.567 25.288 169.647 25C169.727 24.696 169.767 24.52 169.767 24.472C170.039 23.784 170.207 23.384 170.271 23.272C170.351 22.84 170.487 22.344 170.679 21.784C170.647 21.704 170.647 21.544 170.679 21.304L170.991 20.032C171.135 19.792 171.207 19.648 171.207 19.6C171.207 19.536 171.303 19.312 171.495 18.928C171.495 18.864 171.543 18.736 171.639 18.544C171.751 18.368 171.951 18.2 172.239 18.04H172.311C172.663 18.008 172.967 18.056 173.223 18.184C173.255 18.248 173.271 18.36 173.271 18.52C173.303 18.68 173.335 18.968 173.367 19.384V19.624L173.271 20.152C173.399 20.552 173.415 20.952 173.319 21.352ZM176.33 20.92C176.33 20.776 176.314 20.608 176.282 20.416V20.248C176.298 20.136 176.29 20.016 176.258 19.888C176.258 19.728 176.274 19.584 176.306 19.456C176.306 19.136 176.346 18.928 176.426 18.832C176.426 18.752 176.538 18.568 176.762 18.28C176.826 18.216 176.946 18.112 177.122 17.968C177.378 17.888 177.554 17.84 177.65 17.824C177.714 17.76 177.93 17.784 178.298 17.896C178.458 17.912 178.706 17.968 179.042 18.064C179.154 18.096 179.298 18.224 179.474 18.448C179.442 18.512 179.386 18.752 179.306 19.168C179.242 19.568 179.218 19.896 179.234 20.152C179.33 20.072 179.498 19.904 179.738 19.648C179.978 19.392 180.106 19.256 180.122 19.24C180.538 19.048 180.946 18.912 181.346 18.832C181.922 18.784 182.298 18.824 182.474 18.952C182.618 19 182.73 19.072 182.81 19.168C182.954 19.296 183.074 19.52 183.17 19.84C183.266 20.144 183.258 20.336 183.146 20.416C183.05 20.496 182.73 20.56 182.186 20.608C182.154 20.608 182.042 20.672 181.85 20.8L180.602 21.784C180.346 21.912 180.17 22.024 180.074 22.12L179.618 22.96C179.602 22.992 179.586 23.2 179.57 23.584C179.554 23.968 179.554 24.248 179.57 24.424C179.586 24.584 179.586 25.12 179.57 26.032V27.064C179.57 27.624 179.562 27.944 179.546 28.024C179.53 28.12 179.466 28.28 179.354 28.504C179.306 28.584 179.154 28.624 178.898 28.624C178.274 29.088 177.874 29.064 177.698 28.552L177.386 28.36C177.258 28.296 177.178 28.216 177.146 28.12C177.018 27.944 176.954 27.84 176.954 27.808L176.858 27.472L176.714 27.184C176.666 27.168 176.626 26.864 176.594 26.272C176.562 25.664 176.546 25.296 176.546 25.168C176.546 25.024 176.53 24.872 176.498 24.712C176.61 24.6 176.658 24.408 176.642 24.136C176.642 23.864 176.626 23.656 176.594 23.512C176.562 23.352 176.562 23.256 176.594 23.224C176.626 23.176 176.618 22.952 176.57 22.552C176.522 22.488 176.514 22.368 176.546 22.192L176.33 20.92ZM185.974 19.528L185.998 19.312C185.662 19.28 185.422 19.256 185.278 19.24C185.15 19.208 184.934 19.176 184.63 19.144C184.326 19.112 184.086 19.064 183.91 19C183.574 18.888 183.382 18.6 183.334 18.136C183.286 17.656 183.438 17.36 183.79 17.248C184.11 17.168 184.334 17.128 184.462 17.128C184.59 17.128 184.83 17.112 185.182 17.08C185.358 16.984 185.598 16.928 185.902 16.912L186.262 16.816C186.262 16.832 186.326 16.816 186.454 16.768L186.574 16.264C186.574 16.008 186.646 15.752 186.79 15.496C186.79 15.384 186.894 15.072 187.102 14.56C187.102 14.496 187.246 14.032 187.534 13.168C187.598 13.088 187.838 12.904 188.254 12.616C188.51 12.488 188.87 12.576 189.334 12.88C189.59 12.992 189.766 13.144 189.862 13.336C189.766 13.432 189.718 13.656 189.718 14.008C189.702 14.12 189.59 14.712 189.382 15.784V16.456C189.51 16.472 189.718 16.512 190.006 16.576C190.31 16.64 190.67 16.712 191.086 16.792C191.886 16.952 192.39 17.272 192.598 17.752C192.678 18.104 192.662 18.352 192.55 18.496C192.438 18.64 192.166 18.744 191.734 18.808C191.382 18.824 190.918 18.832 190.342 18.832C189.782 18.832 189.366 18.872 189.094 18.952C189.062 19.24 189.046 19.464 189.046 19.624L189.022 19.984C189.022 20.096 188.95 20.688 188.806 21.76C188.71 21.904 188.63 22.648 188.566 23.992V25.744C188.566 26.032 188.59 26.304 188.638 26.56C188.654 26.912 188.694 27.16 188.758 27.304C188.758 27.448 188.798 27.752 188.878 28.216C188.686 28.68 188.366 28.912 187.918 28.912C187.486 28.912 187.102 28.752 186.766 28.432L186.502 28.048C186.454 27.92 186.414 27.832 186.382 27.784C186.366 27.736 186.35 27.68 186.334 27.616C186.222 27.296 186.134 27.096 186.07 27.016C185.974 26.888 185.926 26.792 185.926 26.728C185.926 26.664 185.926 26.584 185.926 26.488C185.894 26.216 185.854 25.984 185.806 25.792C185.726 25.712 185.686 25.44 185.686 24.976C185.718 24.128 185.718 23.64 185.686 23.512C185.734 23.464 185.742 23.16 185.71 22.6L185.782 22.072C185.782 22.008 185.814 21.768 185.878 21.352C185.846 21.288 185.838 21.12 185.854 20.848C185.87 20.56 185.894 20.36 185.926 20.248C185.958 20.056 185.974 19.816 185.974 19.528ZM197.94 20.92C197.94 20.776 197.924 20.608 197.892 20.416V20.248C197.908 20.136 197.9 20.016 197.868 19.888C197.868 19.728 197.884 19.584 197.916 19.456C197.916 19.136 197.956 18.928 198.036 18.832C198.036 18.752 198.148 18.568 198.372 18.28C198.436 18.216 198.556 18.112 198.732 17.968C198.988 17.888 199.164 17.84 199.26 17.824C199.324 17.76 199.54 17.784 199.908 17.896C200.068 17.912 200.316 17.968 200.652 18.064C200.764 18.096 200.908 18.224 201.084 18.448C201.052 18.512 200.996 18.752 200.916 19.168C200.852 19.568 200.828 19.896 200.844 20.152C200.94 20.072 201.108 19.904 201.348 19.648C201.588 19.392 201.716 19.256 201.732 19.24C202.148 19.048 202.556 18.912 202.956 18.832C203.532 18.784 203.908 18.824 204.084 18.952C204.228 19 204.34 19.072 204.42 19.168C204.564 19.296 204.684 19.52 204.78 19.84C204.876 20.144 204.868 20.336 204.756 20.416C204.66 20.496 204.34 20.56 203.796 20.608C203.764 20.608 203.652 20.672 203.46 20.8L202.212 21.784C201.956 21.912 201.78 22.024 201.684 22.12L201.228 22.96C201.212 22.992 201.196 23.2 201.18 23.584C201.164 23.968 201.164 24.248 201.18 24.424C201.196 24.584 201.196 25.12 201.18 26.032V27.064C201.18 27.624 201.172 27.944 201.156 28.024C201.14 28.12 201.076 28.28 200.964 28.504C200.916 28.584 200.764 28.624 200.508 28.624C199.884 29.088 199.484 29.064 199.308 28.552L198.996 28.36C198.868 28.296 198.788 28.216 198.756 28.12C198.628 27.944 198.564 27.84 198.564 27.808L198.468 27.472L198.324 27.184C198.276 27.168 198.236 26.864 198.204 26.272C198.172 25.664 198.156 25.296 198.156 25.168C198.156 25.024 198.14 24.872 198.108 24.712C198.22 24.6 198.268 24.408 198.252 24.136C198.252 23.864 198.236 23.656 198.204 23.512C198.172 23.352 198.172 23.256 198.204 23.224C198.236 23.176 198.228 22.952 198.18 22.552C198.132 22.488 198.124 22.368 198.156 22.192L197.94 20.92ZM213.515 21.352L213.539 21.808C213.539 21.856 213.587 22.36 213.683 23.32V23.608C213.683 23.992 213.747 24.568 213.875 25.336C213.875 25.672 214.043 26.256 214.379 27.088C214.459 27.136 214.515 27.248 214.547 27.424L214.523 27.664C214.555 27.744 214.515 27.832 214.403 27.928C214.403 28.04 214.251 28.096 213.947 28.096C213.643 28.096 213.451 28.112 213.371 28.144C213.291 28.176 213.163 28.16 212.987 28.096C212.923 28.128 212.731 28.064 212.411 27.904C212.267 27.872 212.155 27.728 212.075 27.472L211.883 27.016C211.883 26.728 211.803 26.472 211.643 26.248C211.643 26.168 211.603 26.024 211.523 25.816C211.459 25.608 211.411 25.496 211.379 25.48C211.219 26.12 211.019 26.616 210.779 26.968C210.779 27.048 210.731 27.144 210.635 27.256L210.395 27.712C210.395 27.744 210.323 27.832 210.179 27.976C210.083 28.184 209.867 28.288 209.531 28.288C209.227 28.288 208.859 28.208 208.427 28.048C208.315 28.032 208.091 27.96 207.755 27.832C207.659 27.848 207.507 27.824 207.299 27.76C207.107 27.68 206.995 27.64 206.963 27.64C206.915 27.592 206.803 27.512 206.627 27.4L206.219 26.968C206.203 26.952 206.171 26.88 206.123 26.752C206.091 26.608 206.083 26.512 206.099 26.464C206.115 26.4 206.115 26.312 206.099 26.2C206.083 26.088 206.091 25.976 206.123 25.864C206.123 25.544 206.155 25.192 206.219 24.808C206.203 24.76 206.195 24.704 206.195 24.64C206.195 24.576 206.227 24.456 206.291 24.28C206.275 24.2 206.267 24.144 206.267 24.112L206.387 23.176C206.387 22.952 206.395 22.792 206.411 22.696V22.336C206.427 22.272 206.435 22.184 206.435 22.072L206.555 20.92C206.555 20.744 206.563 20.632 206.579 20.584V20.344C206.611 20.312 206.627 20.184 206.627 19.96L206.843 19.288L207.011 19C207.027 18.936 207.115 18.864 207.275 18.784C207.531 18.624 207.899 18.544 208.379 18.544C208.571 18.576 208.779 18.656 209.003 18.784C209.051 18.768 209.163 18.8 209.339 18.88C209.659 19.024 209.675 19.432 209.387 20.104C209.323 20.536 209.291 20.76 209.291 20.776C209.227 20.904 209.195 21.008 209.195 21.088C209.099 21.6 209.051 21.872 209.051 21.904C209.115 21.84 209.091 21.936 208.979 22.192L208.883 23.08C208.771 23.464 208.723 23.888 208.739 24.352L208.643 24.664C208.659 24.744 208.651 24.992 208.619 25.408C208.651 25.456 208.667 25.512 208.667 25.576L208.691 25.768C208.675 25.816 208.683 25.864 208.715 25.912C208.747 25.944 208.835 25.96 208.979 25.96C209.139 25.944 209.275 25.904 209.387 25.84C209.611 25.568 209.763 25.288 209.843 25C209.923 24.696 209.963 24.52 209.963 24.472C210.235 23.784 210.403 23.384 210.467 23.272C210.547 22.84 210.683 22.344 210.875 21.784C210.843 21.704 210.843 21.544 210.875 21.304L211.187 20.032C211.331 19.792 211.403 19.648 211.403 19.6C211.403 19.536 211.499 19.312 211.691 18.928C211.691 18.864 211.739 18.736 211.835 18.544C211.947 18.368 212.147 18.2 212.435 18.04H212.507C212.859 18.008 213.163 18.056 213.419 18.184C213.451 18.248 213.467 18.36 213.467 18.52C213.499 18.68 213.531 18.968 213.563 19.384V19.624L213.467 20.152C213.595 20.552 213.611 20.952 213.515 21.352ZM217.15 15.16L217.318 13.744L217.342 13C217.342 12.792 217.382 12.632 217.462 12.52L217.702 12.184C218.134 11.848 218.414 11.656 218.542 11.608C218.67 11.56 218.854 11.568 219.094 11.632C219.35 11.68 219.502 11.728 219.55 11.776L219.814 11.992C219.958 12.072 220.03 12.2 220.03 12.376C220.11 12.472 220.134 12.544 220.102 12.592C220.006 12.704 219.846 13.648 219.622 15.424L219.43 18.688L219.31 19.336C219.31 19.544 219.318 19.664 219.334 19.696V20.128C219.302 20.448 219.27 20.648 219.238 20.728C219.238 20.808 219.222 20.896 219.19 20.992C219.222 21.024 219.238 21.152 219.238 21.376C219.238 21.584 219.214 21.712 219.166 21.76C219.134 22.016 219.118 22.264 219.118 22.504C219.118 22.728 219.134 22.968 219.166 23.224C219.214 23.464 219.23 23.704 219.214 23.944L219.31 24.856V25.216C219.342 25.504 219.358 25.736 219.358 25.912L219.478 27.16L219.574 27.808C219.622 28.08 219.598 28.344 219.502 28.6C219.422 28.856 219.294 29.016 219.118 29.08C218.622 29.288 218.078 29.152 217.486 28.672H217.294C217.182 28.544 217.094 28.368 217.03 28.144C216.902 28.08 216.846 27.968 216.862 27.808C216.878 27.648 216.846 27.504 216.766 27.376C216.686 27.248 216.646 27.136 216.646 27.04C216.646 26.832 216.63 26.648 216.598 26.488L216.622 26.296C216.574 26.248 216.55 26.176 216.55 26.08L216.502 25.648V25.456C216.502 25.328 216.494 25.24 216.478 25.192C216.478 25.144 216.502 25.064 216.55 24.952C216.502 24.888 216.494 24.656 216.526 24.256C216.622 23.024 216.67 22.176 216.67 21.712L216.694 21.136V20.44C216.71 20.056 216.718 19.568 216.718 18.976C216.734 18.384 216.766 18.064 216.814 18.016L216.79 17.8C216.79 17.416 216.846 16.896 216.958 16.24C217.086 15.568 217.15 15.208 217.15 15.16ZM226.971 20.32C227.035 20.08 227.027 19.776 226.947 19.408C226.835 19.312 226.683 19.264 226.491 19.264C226.251 19.264 226.035 19.488 225.843 19.936C225.587 20.32 225.395 20.744 225.267 21.208H225.243C225.067 21.88 224.979 22.24 224.979 22.288C225.235 22.352 225.443 22.384 225.603 22.384C225.763 22.368 225.947 22.28 226.155 22.12C226.523 21.768 226.795 21.168 226.971 20.32ZM226.899 23.776L226.011 23.848C225.515 23.848 225.123 23.8 224.835 23.704L224.907 24.16C224.955 25.488 225.323 26.36 226.011 26.776C226.203 26.856 226.363 26.896 226.491 26.896C226.619 26.896 226.787 26.832 226.995 26.704C227.059 26.64 227.115 26.552 227.163 26.44C227.179 26.296 227.259 26.232 227.403 26.248C228.059 25.416 228.555 25.088 228.891 25.264C229.227 25.488 229.395 25.664 229.395 25.792C229.395 25.856 229.355 25.928 229.275 26.008V26.152C229.275 26.312 229.171 26.6 228.963 27.016C228.771 27.432 228.563 27.784 228.339 28.072C228.227 28.312 228.083 28.48 227.907 28.576C227.395 28.896 226.851 29.024 226.275 28.96C226.147 28.944 226.059 28.912 226.011 28.864C225.883 28.832 225.787 28.824 225.723 28.84L225.531 28.816C225.387 28.816 225.267 28.784 225.171 28.72C225.011 28.624 224.899 28.576 224.835 28.576C224.419 28.416 224.163 28.296 224.067 28.216C223.987 28.136 223.915 28.08 223.851 28.048C223.787 28.016 223.635 27.848 223.395 27.544C223.187 27.368 223.067 27.256 223.035 27.208C222.939 27.064 222.851 26.96 222.771 26.896C222.707 26.832 222.667 26.688 222.651 26.464C222.587 26.384 222.555 26.28 222.555 26.152L222.459 25.96C222.459 25.848 222.411 25.76 222.315 25.696C222.219 25.6 222.171 25.48 222.171 25.336V25.144C222.107 25.112 222.091 25.016 222.123 24.856V24.232L222.099 24.016V23.848C222.083 23.784 222.099 23.648 222.147 23.44L222.123 23.224C222.139 23.208 222.163 23.08 222.195 22.84C222.259 22.504 222.331 22.296 222.411 22.216V22C222.427 21.952 222.435 21.888 222.435 21.808C222.435 21.728 222.451 21.64 222.483 21.544C222.531 21.448 222.659 21.088 222.867 20.464L223.251 19.624C223.363 19.384 223.539 19.12 223.779 18.832C223.795 18.752 223.859 18.608 223.971 18.4L224.283 18.112C224.379 17.968 224.523 17.864 224.715 17.8C224.939 17.688 225.107 17.632 225.219 17.632L225.891 17.536C225.971 17.552 226.027 17.56 226.059 17.56H226.371C226.723 17.592 227.011 17.664 227.235 17.776C227.715 17.92 228.067 18.104 228.291 18.328C228.787 18.888 229.035 19.424 229.035 19.936C229.035 20.448 228.955 20.888 228.795 21.256C228.395 22.168 228.107 22.744 227.931 22.984C227.643 23.512 227.299 23.776 226.899 23.776ZM236.112 21.904L236.064 21.544C236.016 21.48 235.984 21.4 235.968 21.304C235.968 21.192 235.944 21.024 235.896 20.8C235.896 20.512 235.824 20.256 235.68 20.032C235.632 19.904 235.44 19.864 235.104 19.912C234.88 20.136 234.616 20.768 234.312 21.808C234.312 21.824 234.288 21.888 234.24 22C234.176 22.144 234.112 22.384 234.048 22.72C233.984 23.04 233.944 23.224 233.928 23.272C233.896 23.368 233.88 23.456 233.88 23.536C233.848 23.6 233.832 23.704 233.832 23.848L233.736 24.304C233.672 24.4 233.656 24.52 233.688 24.664V25C233.704 25.048 233.696 25.184 233.664 25.408V25.744L233.712 26.56C233.712 26.752 233.872 27.064 234.192 27.496C234.32 27.528 234.4 27.52 234.432 27.472C234.752 27.152 234.928 26.824 234.96 26.488L235.032 26.176C235.112 26.096 235.176 25.856 235.224 25.456L235.344 25.048C235.344 24.904 235.376 24.752 235.44 24.592C235.504 24.432 235.544 24.312 235.56 24.232C235.56 24.104 235.664 23.784 235.872 23.272C235.856 23.224 235.848 23.176 235.848 23.128V22.96C236.024 22.272 236.112 21.92 236.112 21.904ZM239.16 14.152C239.16 14.712 239.128 15.056 239.064 15.184L238.896 16.744V17.56C238.88 17.832 238.872 18.24 238.872 18.784C238.872 19.328 238.88 19.784 238.896 20.152C238.928 20.504 238.912 20.8 238.848 21.04C238.88 21.072 238.896 21.128 238.896 21.208L238.92 21.4L238.896 21.952V22.96C238.912 23.136 238.92 23.44 238.92 23.872C238.952 24.24 238.968 24.536 238.968 24.76C238.968 24.984 238.992 25.208 239.04 25.432V25.744L239.136 26.728V27.544C239.168 27.656 239.184 27.768 239.184 27.88C239.184 27.976 239.216 28.144 239.28 28.384C239.36 28.64 239.392 28.872 239.376 29.08C238.928 29.608 238.36 29.736 237.672 29.464C237.528 29.448 237.376 29.368 237.216 29.224C237.072 29.08 236.984 28.936 236.952 28.792L236.928 28.312C236.848 28.296 236.8 28.16 236.784 27.904C236.72 27.808 236.696 27.728 236.712 27.664C236.76 27.584 236.72 27.448 236.592 27.256L236.328 27.712C236.248 27.84 236.16 27.92 236.064 27.952L235.968 28.24C235.744 28.48 235.576 28.68 235.464 28.84L235.176 29.128C234.792 29.208 234.264 29.176 233.592 29.032C233.432 29.032 233.304 29.016 233.208 28.984H233.04C233.008 29.016 232.832 28.944 232.512 28.768C232.24 28.656 232.096 28.552 232.08 28.456L232.224 28.48C232 28.384 231.92 28.232 231.984 28.024C231.792 27.944 231.672 27.768 231.624 27.496L231.408 26.68C231.376 26.472 231.384 26.248 231.432 26.008C231.4 25.944 231.44 25.728 231.552 25.36L231.48 25.144L231.432 24.712C231.384 24.648 231.392 24.504 231.456 24.28L231.312 24.04C231.312 23.4 231.336 23.008 231.384 22.864L231.408 22.552C231.328 22.424 231.352 22.152 231.48 21.736L231.816 20.632C231.816 20.6 231.84 20.456 231.888 20.2C231.968 19.8 232.064 19.544 232.176 19.432L232.608 18.712C232.688 18.632 232.776 18.512 232.872 18.352C233.032 18.064 233.368 17.92 233.88 17.92C234.408 17.84 235.256 17.904 236.424 18.112V17.272L236.352 16.264C236.352 15.784 236.336 15.344 236.304 14.944C236.288 14.544 236.296 14.224 236.328 13.984C236.344 13.968 236.424 13.64 236.568 13C236.712 12.36 236.952 11.88 237.288 11.56C237.4 11.496 237.6 11.456 237.888 11.44C238.192 11.424 238.376 11.44 238.44 11.488C238.504 11.536 238.592 11.576 238.704 11.608C239.152 11.736 239.376 12.144 239.376 12.832L239.16 14.152ZM259.451 28.84C259.083 28.84 258.731 28.728 258.395 28.504C258.059 28.296 257.779 28.024 257.555 27.688C257.347 27.352 257.243 27.016 257.243 26.68C257.243 26.296 257.403 25.888 257.723 25.456C258.043 25.024 258.419 24.6 258.851 24.184C259.299 23.752 259.691 23.384 260.027 23.08H250.115C249.203 23.08 248.555 23.008 248.171 22.864C247.787 22.72 247.483 22.48 247.259 22.144C247.035 21.824 246.923 21.376 246.923 20.8C246.923 20.224 247.027 19.776 247.235 19.456C247.459 19.136 247.763 18.896 248.147 18.736C248.531 18.592 249.187 18.52 250.115 18.52H260.027L258.851 17.392C258.195 16.752 257.763 16.264 257.555 15.928C257.347 15.576 257.243 15.24 257.243 14.92C257.243 14.584 257.347 14.248 257.555 13.912C257.763 13.576 258.035 13.304 258.371 13.096C258.723 12.872 259.083 12.76 259.451 12.76C259.771 12.76 260.115 12.864 260.483 13.072C260.851 13.264 261.283 13.6 261.779 14.08L268.691 20.8L261.923 27.376C261.347 27.92 260.875 28.296 260.507 28.504C260.139 28.728 259.787 28.84 259.451 28.84Z" fill="#333531"/>
</svg>
