<svg width="211" height="40" viewBox="0 0 211 40" fill="none" xmlns="http://www.w3.org/2000/svg">
<path fill-rule="evenodd" clip-rule="evenodd" d="M1.05469 0.3202C1.05469 0.3202 73.4189 0 108.454 0C143.489 0 208.89 0.3202 208.89 0.3202V40H1.05469V0.3202Z" fill="white"/>
<g clip-path="url(#clip0)">
<path fill-rule="evenodd" clip-rule="evenodd" d="M1 38.9178C45.0535 38.8793 146.437 37.0572 210 38.9178H1Z" stroke="black" stroke-width="1.5"/>
<path d="M0.252392 1L0 40" stroke="black" stroke-width="1.5"/>
<path d="M0 0.476498C44.2526 0.43806 147.15 -0.860572 211 1" stroke="black" stroke-width="1.5"/>
<path d="M210 39.4905V1" stroke="black" stroke-width="1.5"/>
</g>
<path d="M20.032 20.944C20.032 21.9573 19.664 22.7467 18.928 23.312C18.192 23.8773 17.2 24.16 15.952 24.16C15.312 24.16 14.72 24.112 14.176 24.016C13.632 23.92 13.1787 23.7867 12.816 23.616V22.24C13.2 22.4107 13.6747 22.5653 14.24 22.704C14.816 22.8427 15.408 22.912 16.016 22.912C16.8693 22.912 17.5093 22.7467 17.936 22.416C18.3733 22.0853 18.592 21.6373 18.592 21.072C18.592 20.6987 18.512 20.384 18.352 20.128C18.192 19.872 17.9147 19.6373 17.52 19.424C17.136 19.2 16.5973 18.9653 15.904 18.72C14.9333 18.368 14.1973 17.936 13.696 17.424C13.2053 16.912 12.96 16.2133 12.96 15.328C12.96 14.72 13.1147 14.2027 13.424 13.776C13.7333 13.3387 14.16 13.0027 14.704 12.768C15.2587 12.5333 15.8933 12.416 16.608 12.416C17.2373 12.416 17.8133 12.4747 18.336 12.592C18.8587 12.7093 19.3333 12.864 19.76 13.056L19.312 14.288C18.9173 14.1173 18.4853 13.9733 18.016 13.856C17.5573 13.7387 17.0773 13.68 16.576 13.68C15.8613 13.68 15.3227 13.8347 14.96 14.144C14.5973 14.4427 14.416 14.8427 14.416 15.344C14.416 15.728 14.496 16.048 14.656 16.304C14.816 16.56 15.0773 16.7893 15.44 16.992C15.8027 17.1947 16.2933 17.4133 16.912 17.648C17.584 17.8933 18.1493 18.16 18.608 18.448C19.0773 18.7253 19.4293 19.0613 19.664 19.456C19.9093 19.8507 20.032 20.3467 20.032 20.944ZM29.5972 19.696C29.5972 21.1147 29.2346 22.2133 28.5093 22.992C27.7946 23.7707 26.8239 24.16 25.5973 24.16C24.8399 24.16 24.1626 23.9893 23.5653 23.648C22.9786 23.296 22.5146 22.7893 22.1733 22.128C21.8319 21.456 21.6613 20.6453 21.6613 19.696C21.6613 18.2773 22.0186 17.184 22.7333 16.416C23.4479 15.648 24.4186 15.264 25.6453 15.264C26.4239 15.264 27.1066 15.44 27.6933 15.792C28.2906 16.1333 28.7546 16.6347 29.0853 17.296C29.4266 17.9467 29.5972 18.7467 29.5972 19.696ZM23.1173 19.696C23.1173 20.7093 23.3146 21.5147 23.7093 22.112C24.1146 22.6987 24.7546 22.992 25.6293 22.992C26.4933 22.992 27.1279 22.6987 27.5333 22.112C27.9386 21.5147 28.1413 20.7093 28.1413 19.696C28.1413 18.6827 27.9386 17.888 27.5333 17.312C27.1279 16.736 26.4879 16.448 25.6133 16.448C24.7386 16.448 24.1039 16.736 23.7093 17.312C23.3146 17.888 23.1173 18.6827 23.1173 19.696ZM35.8288 15.264C35.9888 15.264 36.1594 15.2747 36.3408 15.296C36.5328 15.3067 36.6981 15.328 36.8368 15.36L36.6608 16.656C36.5221 16.624 36.3674 16.5973 36.1968 16.576C36.0368 16.5547 35.8821 16.544 35.7328 16.544C35.2954 16.544 34.8848 16.6667 34.5008 16.912C34.1168 17.1467 33.8074 17.4827 33.5728 17.92C33.3488 18.3467 33.2368 18.848 33.2368 19.424V24H31.8288V15.424H32.9808L33.1408 16.992H33.2048C33.4821 16.5227 33.8394 16.1173 34.2768 15.776C34.7141 15.4347 35.2314 15.264 35.8288 15.264ZM41.3021 23.008C41.5155 23.008 41.7341 22.992 41.9581 22.96C42.1821 22.9173 42.3635 22.8747 42.5021 22.832V23.904C42.3528 23.9787 42.1395 24.0373 41.8621 24.08C41.5848 24.1333 41.3181 24.16 41.0621 24.16C40.6141 24.16 40.1981 24.0853 39.8141 23.936C39.4408 23.776 39.1368 23.504 38.9021 23.12C38.6675 22.736 38.5501 22.1973 38.5501 21.504V16.512H37.3341V15.84L38.5661 15.28L39.1261 13.456H39.9581V15.424H42.4381V16.512H39.9581V21.472C39.9581 21.9947 40.0808 22.384 40.3261 22.64C40.5821 22.8853 40.9075 23.008 41.3021 23.008ZM49.7836 14.8C49.7836 15.1627 49.773 15.504 49.7516 15.824C49.741 16.1333 49.725 16.3787 49.7036 16.56H49.7836C50.029 16.1973 50.365 15.8933 50.7916 15.648C51.2183 15.4027 51.7676 15.28 52.4396 15.28C53.5063 15.28 54.3596 15.6533 54.9996 16.4C55.6503 17.136 55.9756 18.24 55.9756 19.712C55.9756 21.184 55.6503 22.2933 54.9996 23.04C54.349 23.7867 53.4956 24.16 52.4396 24.16C51.7676 24.16 51.2183 24.0373 50.7916 23.792C50.365 23.5467 50.029 23.2533 49.7836 22.912H49.6716L49.3836 24H48.3756V11.84H49.7836V14.8ZM52.1996 16.448C51.293 16.448 50.6636 16.7093 50.3116 17.232C49.9596 17.7547 49.7836 18.5653 49.7836 19.664V19.728C49.7836 20.784 49.9543 21.5947 50.2956 22.16C50.6476 22.7147 51.293 22.992 52.2316 22.992C52.9996 22.992 53.5703 22.7093 53.9436 22.144C54.3276 21.5787 54.5196 20.7627 54.5196 19.696C54.5196 17.5307 53.7463 16.448 52.1996 16.448ZM56.5629 15.424H58.0669L59.9229 20.304C60.0829 20.7307 60.2269 21.1413 60.3549 21.536C60.4829 21.92 60.5789 22.288 60.6429 22.64H60.7069C60.7709 22.3733 60.8722 22.0267 61.0109 21.6C61.1495 21.1627 61.2935 20.7253 61.4429 20.288L63.1869 15.424H64.7069L61.0109 25.184C60.7122 25.9947 60.3229 26.64 59.8429 27.12C59.3735 27.6 58.7229 27.84 57.8909 27.84C57.6349 27.84 57.4109 27.824 57.2189 27.792C57.0269 27.7707 56.8615 27.744 56.7229 27.712V26.592C56.8402 26.6133 56.9789 26.6347 57.1389 26.656C57.3095 26.6773 57.4855 26.688 57.6669 26.688C58.1575 26.688 58.5522 26.5493 58.8509 26.272C59.1602 25.9947 59.4002 25.6267 59.5709 25.168L60.0189 24.032L56.5629 15.424ZM65.8551 16.288C65.8551 15.8827 65.9511 15.6 66.1431 15.44C66.3351 15.28 66.5645 15.2 66.8311 15.2C67.1085 15.2 67.3431 15.28 67.5351 15.44C67.7378 15.6 67.8391 15.8827 67.8391 16.288C67.8391 16.672 67.7378 16.9493 67.5351 17.12C67.3431 17.2907 67.1085 17.376 66.8311 17.376C66.5645 17.376 66.3351 17.2907 66.1431 17.12C65.9511 16.9493 65.8551 16.672 65.8551 16.288ZM65.8551 23.136C65.8551 22.7413 65.9511 22.464 66.1431 22.304C66.3351 22.144 66.5645 22.064 66.8311 22.064C67.1085 22.064 67.3431 22.144 67.5351 22.304C67.7378 22.464 67.8391 22.7413 67.8391 23.136C67.8391 23.52 67.7378 23.7973 67.5351 23.968C67.3431 24.1387 67.1085 24.224 66.8311 24.224C66.5645 24.224 66.3351 24.1387 66.1431 23.968C65.9511 23.7973 65.8551 23.52 65.8551 23.136ZM81.8606 24L80.4846 20.464H75.9566L74.5966 24H73.1406L77.6046 12.528H78.9006L83.3486 24H81.8606ZM78.7726 15.728C78.7406 15.6427 78.6873 15.488 78.6126 15.264C78.538 15.04 78.4633 14.8107 78.3886 14.576C78.3246 14.3307 78.2713 14.144 78.2286 14.016C78.154 14.3467 78.0686 14.672 77.9726 14.992C77.8766 15.3013 77.7966 15.5467 77.7326 15.728L76.4366 19.184H80.0526L78.7726 15.728ZM86.1274 24H84.7194V11.84H86.1274V24ZM92.9244 15.264C93.9804 15.264 94.8284 15.632 95.4684 16.368C96.119 17.104 96.4444 18.2133 96.4444 19.696C96.4444 21.1573 96.119 22.2667 95.4684 23.024C94.8284 23.7813 93.975 24.16 92.9084 24.16C92.247 24.16 91.6977 24.0373 91.2604 23.792C90.8337 23.536 90.4977 23.2427 90.2524 22.912H90.1564C90.1777 23.0933 90.199 23.3227 90.2204 23.6C90.2417 23.8773 90.2524 24.1173 90.2524 24.32V27.84H88.8444V15.424H89.9964L90.1884 16.592H90.2524C90.5084 16.2187 90.8444 15.904 91.2604 15.648C91.6764 15.392 92.231 15.264 92.9244 15.264ZM92.6684 16.448C91.7937 16.448 91.175 16.6933 90.8124 17.184C90.4604 17.6747 90.2737 18.4213 90.2524 19.424V19.696C90.2524 20.752 90.423 21.568 90.7644 22.144C91.1164 22.7093 91.7617 22.992 92.7004 22.992C93.223 22.992 93.6497 22.848 93.9804 22.56C94.3217 22.272 94.5724 21.8827 94.7324 21.392C94.903 20.8907 94.9884 20.32 94.9884 19.68C94.9884 18.6987 94.7964 17.9147 94.4124 17.328C94.039 16.7413 93.4577 16.448 92.6684 16.448ZM100.096 15.408C100.096 15.8347 100.069 16.2347 100.016 16.608H100.112C100.389 16.1707 100.763 15.84 101.232 15.616C101.712 15.392 102.229 15.28 102.784 15.28C103.829 15.28 104.613 15.5307 105.136 16.032C105.659 16.5227 105.92 17.3173 105.92 18.416V24H104.528V18.512C104.528 17.136 103.888 16.448 102.608 16.448C101.648 16.448 100.987 16.72 100.624 17.264C100.272 17.7973 100.096 18.5653 100.096 19.568V24H98.6881V11.84H100.096V15.408ZM111.827 15.28C112.872 15.28 113.645 15.5093 114.147 15.968C114.648 16.4267 114.899 17.1573 114.899 18.16V24H113.875L113.603 22.784H113.539C113.165 23.2533 112.771 23.6 112.355 23.824C111.949 24.048 111.384 24.16 110.659 24.16C109.88 24.16 109.235 23.9573 108.723 23.552C108.211 23.136 107.955 22.4907 107.955 21.616C107.955 20.7627 108.291 20.1067 108.963 19.648C109.635 19.1787 110.669 18.9227 112.067 18.88L113.523 18.832V18.32C113.523 17.6053 113.368 17.1093 113.059 16.832C112.749 16.5547 112.312 16.416 111.747 16.416C111.299 16.416 110.872 16.4853 110.467 16.624C110.061 16.752 109.683 16.9013 109.331 17.072L108.899 16.016C109.272 15.8133 109.715 15.6427 110.227 15.504C110.739 15.3547 111.272 15.28 111.827 15.28ZM112.243 19.856C111.176 19.8987 110.435 20.0693 110.019 20.368C109.613 20.6667 109.411 21.088 109.411 21.632C109.411 22.112 109.555 22.464 109.843 22.688C110.141 22.912 110.52 23.024 110.979 23.024C111.704 23.024 112.307 22.8267 112.787 22.432C113.267 22.0267 113.507 21.408 113.507 20.576V19.808L112.243 19.856ZM118.956 14.8C118.956 15.1627 118.945 15.504 118.924 15.824C118.913 16.1333 118.897 16.3787 118.876 16.56H118.956C119.201 16.1973 119.537 15.8933 119.964 15.648C120.39 15.4027 120.94 15.28 121.612 15.28C122.678 15.28 123.532 15.6533 124.172 16.4C124.822 17.136 125.148 18.24 125.148 19.712C125.148 21.184 124.822 22.2933 124.172 23.04C123.521 23.7867 122.668 24.16 121.612 24.16C120.94 24.16 120.39 24.0373 119.964 23.792C119.537 23.5467 119.201 23.2533 118.956 22.912H118.844L118.556 24H117.548V11.84H118.956V14.8ZM121.372 16.448C120.465 16.448 119.836 16.7093 119.484 17.232C119.132 17.7547 118.956 18.5653 118.956 19.664V19.728C118.956 20.784 119.126 21.5947 119.468 22.16C119.82 22.7147 120.465 22.992 121.404 22.992C122.172 22.992 122.742 22.7093 123.116 22.144C123.5 21.5787 123.692 20.7627 123.692 19.696C123.692 17.5307 122.918 16.448 121.372 16.448ZM130.703 15.264C131.439 15.264 132.069 15.424 132.591 15.744C133.125 16.064 133.53 16.5173 133.807 17.104C134.095 17.68 134.239 18.3573 134.239 19.136V19.984H128.367C128.389 20.9547 128.634 21.696 129.103 22.208C129.583 22.7093 130.25 22.96 131.103 22.96C131.647 22.96 132.127 22.912 132.543 22.816C132.97 22.7093 133.407 22.56 133.855 22.368V23.6C133.418 23.792 132.986 23.9307 132.559 24.016C132.133 24.112 131.626 24.16 131.039 24.16C130.229 24.16 129.509 23.9947 128.879 23.664C128.261 23.3333 127.775 22.8427 127.423 22.192C127.082 21.5307 126.911 20.7253 126.911 19.776C126.911 18.8373 127.066 18.032 127.375 17.36C127.695 16.688 128.138 16.1707 128.703 15.808C129.279 15.4453 129.946 15.264 130.703 15.264ZM130.687 16.416C130.015 16.416 129.482 16.6347 129.087 17.072C128.703 17.4987 128.474 18.096 128.399 18.864H132.767C132.757 18.1387 132.586 17.552 132.255 17.104C131.925 16.6453 131.402 16.416 130.687 16.416ZM139.286 23.008C139.5 23.008 139.719 22.992 139.943 22.96C140.167 22.9173 140.348 22.8747 140.487 22.832V23.904C140.337 23.9787 140.124 24.0373 139.847 24.08C139.569 24.1333 139.303 24.16 139.047 24.16C138.599 24.16 138.183 24.0853 137.799 23.936C137.425 23.776 137.121 23.504 136.887 23.12C136.652 22.736 136.535 22.1973 136.535 21.504V16.512H135.319V15.84L136.551 15.28L137.111 13.456H137.943V15.424H140.423V16.512H137.943V21.472C137.943 21.9947 138.065 22.384 138.311 22.64C138.567 22.8853 138.892 23.008 139.286 23.008ZM142.924 12.208C143.137 12.208 143.324 12.2827 143.484 12.432C143.654 12.5707 143.74 12.7947 143.74 13.104C143.74 13.4027 143.654 13.6267 143.484 13.776C143.324 13.9253 143.137 14 142.924 14C142.689 14 142.492 13.9253 142.332 13.776C142.172 13.6267 142.092 13.4027 142.092 13.104C142.092 12.7947 142.172 12.5707 142.332 12.432C142.492 12.2827 142.689 12.208 142.924 12.208ZM143.612 15.424V24H142.204V15.424H143.612ZM149.769 24.16C149.011 24.16 148.334 24.0053 147.737 23.696C147.15 23.3867 146.686 22.9067 146.345 22.256C146.014 21.6053 145.849 20.7733 145.849 19.76C145.849 18.704 146.025 17.8453 146.377 17.184C146.729 16.5227 147.203 16.0373 147.801 15.728C148.409 15.4187 149.097 15.264 149.865 15.264C150.302 15.264 150.723 15.312 151.129 15.408C151.534 15.4933 151.865 15.6 152.121 15.728L151.689 16.896C151.433 16.8 151.134 16.7093 150.793 16.624C150.451 16.5387 150.131 16.496 149.833 16.496C148.147 16.496 147.305 17.5787 147.305 19.744C147.305 20.7787 147.507 21.5733 147.913 22.128C148.329 22.672 148.942 22.944 149.753 22.944C150.222 22.944 150.633 22.896 150.985 22.8C151.347 22.704 151.678 22.5867 151.977 22.448V23.696C151.689 23.8453 151.369 23.9573 151.017 24.032C150.675 24.1173 150.259 24.16 149.769 24.16ZM157.264 15.28C158.31 15.28 159.083 15.5093 159.584 15.968C160.086 16.4267 160.336 17.1573 160.336 18.16V24H159.312L159.04 22.784H158.976C158.603 23.2533 158.208 23.6 157.792 23.824C157.387 24.048 156.822 24.16 156.096 24.16C155.318 24.16 154.672 23.9573 154.16 23.552C153.648 23.136 153.392 22.4907 153.392 21.616C153.392 20.7627 153.728 20.1067 154.4 19.648C155.072 19.1787 156.107 18.9227 157.504 18.88L158.96 18.832V18.32C158.96 17.6053 158.806 17.1093 158.496 16.832C158.187 16.5547 157.75 16.416 157.184 16.416C156.736 16.416 156.31 16.4853 155.904 16.624C155.499 16.752 155.12 16.9013 154.768 17.072L154.336 16.016C154.71 15.8133 155.152 15.6427 155.664 15.504C156.176 15.3547 156.71 15.28 157.264 15.28ZM157.68 19.856C156.614 19.8987 155.872 20.0693 155.456 20.368C155.051 20.6667 154.848 21.088 154.848 21.632C154.848 22.112 154.992 22.464 155.28 22.688C155.579 22.912 155.958 23.024 156.416 23.024C157.142 23.024 157.744 22.8267 158.224 22.432C158.704 22.0267 158.944 21.408 158.944 20.576V19.808L157.68 19.856ZM164.393 24H162.985V11.84H164.393V24Z" fill="black"/>
<path d="M181 16L187 22L193 16" stroke="#333531" stroke-width="2" stroke-linejoin="round"/>
<defs>
<clipPath id="clip0">
<rect width="211" height="40" fill="white"/>
</clipPath>
</defs>
</svg>
