<svg width="378" height="169" viewBox="0 0 378 169" fill="none" xmlns="http://www.w3.org/2000/svg">
<path d="M33.8254 7.36957V55.3189C33.8287 57.462 33.3206 59.5749 32.3432 61.4822C31.3658 63.3896 29.9475 65.0363 28.2058 66.2857L2.47961 84.7837L28.2058 103.282C29.9475 104.531 31.3658 106.178 32.3432 108.085C33.3206 109.993 33.8287 112.105 33.8254 114.249V154.074C33.8254 157.647 35.2453 161.074 37.7725 163.601C40.2998 166.127 43.7276 167.547 47.3017 167.547H362.161C365.736 167.547 369.163 166.127 371.691 163.601C374.218 161.074 375.638 157.647 375.638 154.074V14.7257C375.638 11.1525 374.218 7.72565 371.691 5.19902C369.163 2.6724 365.736 1.25296 362.161 1.25296H39.9437C38.321 1.25296 36.7648 1.89739 35.6174 3.04447C34.47 4.19156 33.8254 5.74734 33.8254 7.36957Z" fill="white"/>
<path d="M33.1516 7.36955C33.2729 7.90846 33.3403 7.62553 33.529 6.02228C33.4955 5.62329 33.4955 5.2222 33.529 4.82321C33.2432 5.64049 33.1152 6.50455 33.1516 7.36955Z" fill="#202020"/>
<path d="M40.348 1.25298C42.0999 1.0913 44.1214 0.808377 43.0433 0.498505C42.1673 0.660177 41.6956 0.700596 41.0757 0.76796C40.3657 0.809509 39.6639 0.940789 38.9869 1.15867C37.4641 1.4416 36.4399 2.06134 36.5881 1.79188C36.1652 2.09124 35.7602 2.41514 35.3752 2.76192C34.9385 3.17436 34.6019 3.68131 34.3915 4.24392C35.061 3.33962 35.9097 2.58289 36.8846 2.02092C37.9938 1.4003 39.2389 1.06251 40.5097 1.03741C41.0622 1.05089 40.4693 1.13172 40.348 1.25298Z" fill="#202020"/>
<path d="M276.088 1.89966C275.754 1.87384 275.417 1.90112 275.091 1.9805C275.725 1.95355 276.25 1.94008 276.088 1.89966Z" fill="#202020"/>
<path d="M291.492 2.27689H290.589C290.889 2.30213 291.191 2.30213 291.492 2.27689Z" fill="#202020"/>
<path d="M185.905 1.72451L188.317 1.83229C187.52 1.70396 186.711 1.6678 185.905 1.72451Z" fill="#202020"/>
<path d="M60.4276 0.390717C59.9155 0.390717 59.4977 0.390717 59.08 0.485027H60.3198L60.4276 0.390717Z" fill="#202020"/>
<path d="M146.177 1.99396H145.449L144.843 2.12868L146.177 1.99396Z" fill="#202020"/>
<path d="M115.64 2.04786C116.074 2.05197 116.496 1.90956 116.839 1.64368C116.346 1.77187 115.839 1.83973 115.33 1.84577C115.33 1.84577 115.411 1.96702 115.64 2.04786Z" fill="#202020"/>
<path d="M167.995 2.04785C168.073 2.10902 168.166 2.14645 168.265 2.15563C168.265 2.15563 168.157 2.08827 167.995 2.04785Z" fill="#202020"/>
<path d="M33.8928 7.36957V7.86806C33.8928 7.86806 34.0006 7.97584 34.0545 7.97584L33.8928 7.36957Z" fill="#202020"/>
<path d="M319.671 2.60022H319.549C318.808 2.66758 319.226 2.60022 319.671 2.60022Z" fill="#202020"/>
<path d="M327.73 166.401C330.667 166.657 322.959 166.738 327.379 167.021C326.961 166.967 331.382 166.577 327.73 166.401Z" fill="#202020"/>
<path d="M374.452 15.9921C374.517 15.7719 374.562 15.5465 374.587 15.3185C374.587 15.3185 374.519 15.4936 374.452 15.9921Z" fill="#202020"/>
<path d="M374.856 41.0917C374.856 41.7519 374.856 41.9675 374.856 42.8567V42.5872C374.812 42.0897 374.812 41.5892 374.856 41.0917Z" fill="#202020"/>
<path d="M19.9449 98.8223C19.6434 98.5388 19.364 98.2325 19.1094 97.9062C19.325 98.2564 16.1581 96.1277 19.9449 98.8223Z" fill="#202020"/>
<path d="M60.4411 0.552376C60.6872 0.463613 60.9479 0.422465 61.2093 0.431123H60.3468C60.2659 0.485014 60.2525 0.52543 60.4411 0.552376Z" fill="#202020"/>
<path d="M377.093 42.1561V46.3057C377.066 45.147 377.08 43.6381 377.093 42.1561Z" fill="#202020"/>
<path d="M151.716 168.746H150.759C151.078 168.767 151.397 168.767 151.716 168.746Z" fill="#202020"/>
<path d="M377.093 58.6332C376.999 59.3742 376.945 60.1556 376.904 60.964C376.916 61.127 376.938 61.2891 376.972 61.449L377.093 58.6332Z" fill="#202020"/>
<path d="M6.57642 79.8527C3.35559 82.1566 5.2288 81.2 4.7167 81.9006L3.57121 82.7494L2.3853 83.5847C2.01262 83.8552 1.62078 84.0984 1.21286 84.3122C0.768147 84.5143 0.875958 84.3122 0 84.7837C0.111282 84.9023 0.233065 85.0105 0.363859 85.1071L2.08882 86.2927L3.61164 87.3031L5.2288 88.2866C6.26647 88.9199 7.22328 89.4992 8.11272 90.1459C8.20705 90.2941 8.54396 90.5635 8.11272 90.3345C10.808 91.9108 15.6325 95.7236 18.7994 97.5424C18.9209 97.65 19.0335 97.7671 19.1363 97.8927C18.759 97.4077 18.7994 97.1921 18.9746 97.1517C20.1198 97.8195 21.1983 98.5955 22.1954 99.469C21.7402 99.1304 21.2472 98.8456 20.7265 98.6202L22.2898 99.6307C23.4487 100.884 20.1605 98.2834 20.0123 98.4585C22.9905 100.479 26.683 102.689 28.7449 104.427C29.0953 105.006 23.4757 100.722 26.3057 103.08L22.8692 100.506C25.2141 102.864 20.7669 98.957 22.8692 101.18C25.1198 102.864 26.4809 103.78 27.7072 104.629C29.1716 105.669 30.3529 107.058 31.1437 108.671C31.8175 109.641 31.238 108.186 31.9118 109.183C32.5459 110.438 32.8912 111.819 32.9225 113.225C32.9195 114.02 32.8473 114.813 32.7069 115.596C32.4 117.348 32.3455 119.136 32.5452 120.904C33.0488 122.97 33.1947 125.107 32.9765 127.223L32.5991 125.781C32.5991 131.265 33.1516 128.907 32.8956 134.646C32.7339 133.622 32.7608 130.348 32.7204 131.17C32.4104 134.889 32.936 133.865 32.936 136.654L32.5991 137.246C32.5991 140.157 32.7069 143.228 32.7743 146.367L32.8821 151.123C32.868 152.774 32.9445 154.425 33.1112 156.068C32.9495 155.704 32.7069 154.518 32.8147 156.149C33.1753 158.395 34.0365 160.531 35.3348 162.4C36.6665 164.321 38.4311 165.902 40.4864 167.016C42.5416 168.13 44.83 168.746 47.167 168.813L53.2987 168.975L56.2904 168.678C56.9912 168.678 57.638 168.8 56.8295 168.867C59.8886 168.975 56.9912 168.678 58.4601 168.557C60.1985 168.557 60.7645 168.732 59.6595 168.813C65.05 168.57 75.0494 168.274 80.7364 168.597L79.6313 168.678C84.065 168.8 84.631 168.072 88.7413 168.355H87.9597C97.5683 168.476 108.174 168.207 115.546 168.651C116.893 168.22 125.06 168.84 125.68 168.247C131.178 168.544 129.601 168.651 137.337 168.853C139.399 168.853 140.423 168.476 142.97 168.409L143.037 168.732L146.501 168.395L148.347 168.773L150.746 168.692C149.789 168.692 148.711 168.557 148.859 168.463C151.937 168.344 155.019 168.471 158.077 168.84L166.931 168.57C165.986 168.73 165.031 168.816 164.074 168.826C168.804 168.503 164.936 169.15 169.262 168.826C168.683 168.746 169.585 168.638 169.68 168.57C171.836 168.759 176.755 168.759 180.461 168.678L179.76 168.894C186.323 168.894 193.6 168.8 200.972 168.8C198.276 168.692 198.937 168.328 201.093 168.288L201.955 168.624C203.303 168.422 199.705 168.49 202.562 168.247C205.257 168.247 204.422 168.624 202.845 168.732L206.187 168.611C206.376 168.705 205.594 168.759 205.392 168.894C206.74 168.678 211.173 169.217 213.154 168.894L213.343 168.988L230.054 168.867C230.175 168.584 232.52 168.638 234.299 168.409C238.719 168.503 243.611 168.719 248.92 168.705C252.653 168.557 250.012 168.463 251.696 168.288C251.966 168.544 257.276 168.53 254.526 168.705C260.901 168.705 262.612 168.705 270.698 168.449C269.822 168.341 268.838 168.301 269.35 168.207C270.394 168.107 271.448 168.189 272.463 168.449H272.073C281.129 168.059 292.974 169.19 300.184 168.651H299.78L307.259 168.382C310.696 168.382 305.197 168.57 307.744 168.732C315.83 168.301 320.479 168.8 327.123 168.503C332.271 169.271 345.37 168.503 352.31 168.934L351.906 168.759C353.072 168.69 354.241 168.739 355.396 168.907C355.208 168.759 353.456 168.746 354.561 168.638H360.302C362.356 168.743 364.415 168.534 366.407 168.018C368.458 167.396 370.354 166.343 371.967 164.931C373.579 163.518 374.872 161.778 375.759 159.827C376.649 157.853 377.109 155.713 377.107 153.548L377.201 147.62C377.268 143.686 377.322 139.752 377.376 135.859C377.376 130.16 376.446 132.625 376.878 125.444L377.201 127.479C376.81 115.987 377.201 103.982 376.878 92.7326C376.999 93.3221 377.057 93.9227 377.053 94.5245C377.247 91.5786 377.184 88.6213 376.864 85.6864C376.864 83.935 377.053 85.2822 377.147 84.2044C377.295 81.8197 376.837 78.2225 377.147 76.9561C377.147 76.7405 377.228 77.6297 377.241 78.0609C377.134 76.5115 377.241 70.826 376.999 72.308C377.134 68.0911 376.878 64.2244 376.999 60.8562C376.689 58.6602 377.147 53.6348 376.702 52.9343C377.161 53.2441 377.08 45.5378 376.864 42.8567C376.999 43.7593 376.999 40.5394 377.188 41.5902C377.188 38.5454 377.107 35.7431 376.864 36.282C377.417 30.6639 376.433 24.9919 377.134 21.8393C377.066 19.5758 377.012 17.3528 376.958 15.1703C376.945 14.0066 376.819 12.847 376.581 11.7078C375.949 8.96818 374.543 6.46743 372.532 4.50212C370.521 2.53681 367.988 1.18941 365.234 0.619745C365.784 0.56611 366.338 0.644639 366.851 0.848781C367.904 1.16186 368.911 1.61501 369.843 2.19605C371.891 3.36818 373.36 5.14657 373.414 4.89059C370.934 2.20554 367.531 0.555208 363.886 0.269455C362.215 0.175146 360.76 0.269455 359.129 0.269455C357.499 0.269455 355.801 0.269455 353.887 0.269455C351.973 0.269455 355.006 0.0808362 355.679 0C347.957 0.188618 340.748 7.62884e-07 333.888 0.202091C334.37 0.129276 334.856 0.0887669 335.344 0.0808368C333.996 0.0808368 332.204 0.080836 332.352 0.215563H333.7C335.856 0.525435 328.309 0.848781 328.08 1.01045C330.371 0.417654 321.342 0.862253 324.94 0.107782C324.051 0.107782 322.932 0.24251 323.134 0.377237C321.787 0.377237 321.396 0.255981 322.743 0.107782C317.892 0.215563 319.617 0.431127 315.224 0.431127C315.667 0.317812 316.117 0.232317 316.571 0.175145C313.858 0.444298 311.131 0.547781 308.405 0.485018C308.634 0.485018 308.202 0.336818 309.308 0.350291C302.933 0.350291 298.432 0.862253 291.438 0.673635C293.513 0.242509 289.066 0.525435 288.743 0.161672L284.983 0.269455L286.492 0.444599C283.204 0.444599 280.293 0.714054 277.463 0.5928L279.902 0.444599L273.73 0.511963L277.221 0.660164C273.892 0.848781 277.584 1.13171 273.178 1.02393C274.067 1.02393 269.876 1.02393 268.164 0.79489C266.256 0.969135 264.339 1.02313 262.424 0.956562C261.79 0.835308 262.936 0.538908 262.518 0.458072C260.914 0.767944 254.809 0.538909 252.775 0.875727C253.448 0.79489 253.489 0.606272 253.26 0.565854L251.912 0.821836C250.389 0.741 250.16 0.700581 250.416 0.538909C245.821 0.538909 251.872 1.01045 246.373 0.808363C246.791 0.808363 246.589 0.808363 247.478 0.714054C242.007 0.606273 236.913 0.875727 231.886 0.714054C230.39 0.323346 236.28 0.619745 234.582 0.2964C227.331 0.363763 219.569 0.754472 212.548 0.660164H213.895C212.925 1.19907 208.667 0.390709 205.122 0.660164C205.985 0.660164 206.268 0.363764 206.025 0.431127C201.228 0.336819 196.201 0.552381 188.924 0.727526L189.827 0.5928C186.997 0.458073 182.374 0.511963 179.315 0.458072C178.399 0.592799 176.62 0.565855 177.712 0.767945C168.278 -0.0134718 159.721 1.1856 151.352 0.538909C152.363 0.538909 153.737 0.417654 152.942 0.417654L145.813 0.538909C146.61 0.747764 147.429 0.856386 148.253 0.862254C146.672 1.09461 145.079 1.22511 143.482 1.25296C146.676 1.10476 143.482 0.889199 142.134 0.754472C142.363 0.821836 141.892 0.902672 142.013 0.983508C138.28 0.565854 141.38 1.44158 136.299 1.17213L136.569 1.05087C134.668 1.05087 132.917 1.26643 130.868 1.23949C130.006 0.970035 132.89 1.10476 133.024 0.889198C130.14 0.889198 127.337 1.40116 124.723 1.13171L128.928 0.983508C127.18 0.769621 125.419 0.670608 123.658 0.687108H123.86L118.982 0.538909L120.222 0.633218C116.624 1.3338 112.877 0.754472 108.093 1.21254C112.81 0.781418 108.875 0.970036 109.239 0.660164C107.999 0.579327 106.112 0.471545 106.638 0.390708C104.347 0.633217 102.811 0.20209 99.5762 0.552381C99.428 0.458072 97.1101 0.552381 97.6356 0.2964C94.6439 0.377236 98.3364 0.471545 98.0938 0.5928C93.4849 0.929617 87.3128 0.188619 80.6555 0.5928C74.9416 0.781418 73.9174 1.11824 68.5269 1.27991C66.7345 1.13171 69.9958 0.929617 69.9958 0.929617C67.1119 0.781418 64.9422 0.808363 62.22 0.929617C62.7725 0.848781 62.22 0.767945 61.371 0.660164C59.9363 0.838234 58.4904 0.910283 57.0451 0.875727C57.7582 0.694474 58.4832 0.563911 59.2148 0.485018L51.4524 0.848781C50.7517 0.673635 53.0561 0.579327 53.9994 0.471545C51.101 0.465295 48.2042 0.609196 45.3207 0.902671L47.2478 0.996981C46.1563 0.996981 46.6818 0.767945 47.4904 0.714054C48.7695 0.503834 50.0788 0.56813 51.3311 0.902671H49.431C51.385 1.482 57.0451 0.808362 60.8589 0.902671L59.2687 1.32033L63.1768 0.970035C64.0123 1.07782 64.5244 1.30685 62.6916 1.37422C65.3869 1.58978 65.1174 1.22602 67.4622 1.45505C67.7183 1.45505 67.6105 1.45505 67.3679 1.53589L70.0632 1.40116C69.5376 1.49547 70.5079 1.69756 68.8638 1.64367C73.6613 1.88618 76.5992 1.32033 78.405 1.64367H78.0007C84.658 1.49547 78.6476 1.3338 83.6338 0.970035L87.0028 1.73798L87.6497 1.42811C88.337 1.42811 89.6981 1.42811 89.4421 1.58978C92.0025 1.37422 89.0108 1.45505 90.4932 1.25296C93.7949 1.53589 99.6032 1.11824 100.344 1.60325C101.53 1.37422 97.1909 1.42811 100.708 1.26644C101.719 1.79187 104.751 1.17213 107.81 1.41463C106.88 1.68409 104.023 1.54936 107.042 1.79187C108.861 1.3338 112.918 1.88618 115.465 1.79187C115.586 1.42811 121.003 1.6302 125.275 1.50894C125.006 1.64367 133.361 1.71103 137.283 1.84576H137.162C137.93 1.46852 142.04 1.53589 145.018 1.46853C144.897 1.68409 144.358 1.7784 142.754 1.87271H145.557C146.668 1.71126 147.79 1.63469 148.913 1.64367L148.199 1.9266C151.945 1.9266 155.718 1.60325 160.529 1.7784C160.799 1.52242 156.702 1.06434 161.783 0.889198C161.971 1.02393 162.16 1.26644 160.839 1.32033C161.271 1.32033 162.389 1.21254 163.265 1.32033L161.23 1.56283C163.427 1.65714 162.376 1.36074 164.128 1.38769C164.128 1.58978 165.475 1.52242 165.179 1.68409C164.734 1.68409 163.642 1.60325 162.982 1.68409C164.702 1.68597 166.421 1.78493 168.13 1.98049C167.955 1.87271 168.13 1.72451 169.572 1.69756C173.305 1.69756 170.92 1.9266 173.022 2.03438C173.925 1.89965 176.31 2.03438 176.378 1.73798C176.957 1.72189 177.535 1.79922 178.089 1.96702C180.03 1.83229 187.118 1.96702 184.935 1.60325H184.76C191.094 1.30685 197.926 1.76493 204.206 1.60325V1.69756C207.966 1.58978 212.561 1.6302 215.243 1.41463C216.348 1.41463 217.857 1.60325 217.386 1.72451C219.828 1.59883 222.275 1.59883 224.717 1.72451C223.743 1.89674 222.751 1.94203 221.766 1.85923C224.62 2.03407 227.482 2.03407 230.337 1.85923C228.989 2.10174 233.14 2.16911 234.905 2.10174L232.304 1.91312C234.285 1.91312 236.037 1.91312 237.802 1.91312L236.846 2.24994C244.473 2.65412 250.605 1.54936 256.4 2.24994C258.421 2.00743 252.262 2.08827 254.068 1.80534C257.572 1.80534 261.224 2.33078 262.329 2.33078C267.14 2.5194 266.817 1.84576 271.843 1.96702C271.197 1.84576 270.59 1.53589 274.35 1.41463C277.854 1.41463 278.662 1.9266 276.452 2.02091C276.047 2.0718 275.636 2.04898 275.24 1.95354C274.094 1.95354 272.612 2.04785 274 2.16911L274.458 2.06133C276.196 2.18258 281.034 2.16911 279.848 2.35772C282.544 2.24994 280.994 2.16911 279.026 2.10174C283.527 2.27689 286.061 2.10174 290.697 2.223C289.956 2.15563 289.349 2.02091 290.009 2.02091C296.748 2.16911 293.001 1.79187 297.61 1.73798C300.225 1.9266 296.667 2.16911 301.303 2.02091C304.146 2.14216 301.909 2.34425 300.777 2.43856C305.009 2.20952 308.674 2.58676 311.086 2.62718L308.863 2.73496C310.21 2.73496 311.289 2.73496 312.394 2.73496L311.127 2.50592C311.924 2.47277 312.723 2.51789 313.512 2.64065C314.86 2.49245 312.474 2.24994 315.156 2.03438C316.895 2.15563 320.452 1.89965 321.059 2.223C315.574 2.11522 321.665 2.53287 317.016 2.58676C317.905 2.58676 318.997 2.58676 320.304 2.58676C320.506 2.58676 320.129 2.58676 319.765 2.6676C325.007 2.95052 322.177 2.30383 327.608 2.31731C326.921 2.49245 328.862 2.65412 329.751 2.61371C327.568 2.61371 328.713 2.31731 330.721 2.18258C334.198 2.31731 334.495 2.0748 336.327 2.08827H334.239C335.859 1.91821 337.488 1.84623 339.117 1.87271C339.333 2.02091 336.907 1.98049 337.769 2.03438C340.465 1.72451 343.861 2.35772 347.621 2.15563C349.359 2.27689 347.782 2.49245 349.319 2.57329C353.523 2.33078 353.874 2.8158 358.307 2.57329C356.96 2.33078 356.811 2.38467 359.924 2.15563L352.647 2.31731L357.323 1.96702C355.127 1.96702 352.688 2.12869 351.367 2.08827C353.591 1.88618 353.361 1.94007 352.31 1.75145C355.316 2.10174 358.267 1.53589 361.744 1.75145L361.636 2.34425C363.94 2.3658 366.212 2.88996 368.293 3.88014C370.704 5.08809 372.612 7.1056 373.684 9.57909C373.426 8.95048 373.128 8.33854 372.794 7.74681C373.374 8.39511 373.831 9.14391 374.142 9.95633C374.544 11.042 374.833 12.1662 375.004 13.311C374.816 13.1628 374.829 14.3889 374.708 15.3319C374.856 15.2242 374.708 20.3034 375.085 20.9231L374.829 23.941C374.721 29.4244 375.395 30.1923 375.328 35.4602C375.112 33.8704 374.964 36.2685 374.816 32.7656C374.739 33.8888 374.771 35.0167 374.91 36.1338C374.789 37.1577 375.18 41.0109 374.991 42.6276C375.201 43.5966 375.296 44.587 375.274 45.5782C375.274 45.7937 375.166 45.5782 375.166 45.5782C375.166 45.5782 375.301 48.6634 375.53 46.9254C374.91 52.3145 375.53 62.0553 375.031 66.7707C375.031 70.6105 375.139 75.2316 375.18 78.721C375.18 78.492 375.085 78.721 375.099 78.0474C374.924 82.8437 375.678 80.9979 375.476 86.4678C375.153 89.2567 375.301 83.5577 375.18 85.3092C374.519 86.0636 375.26 91.8973 374.883 95.5754V94.6862C374.654 97.502 375.126 101.544 375.085 106.138C375.085 106.138 375.085 105.922 374.991 106.138C375.314 109.291 375.436 115.232 375.516 119.611C375.26 118.263 375.382 117.603 375.126 118.439C375.126 120.419 375.543 117.859 375.624 121.82C375.564 123.337 375.379 124.847 375.072 126.334V122.602C374.926 124.845 374.926 127.095 375.072 129.338L374.923 129.082C374.923 134.794 375.368 134.875 375.341 141.019L375.463 140.386C375.853 143.74 375.233 143.201 375.463 146.556L375.058 147.567C375.058 148.671 375.207 150.611 375.301 152.767C375.402 153.851 375.402 154.943 375.301 156.027C375.186 157.06 374.942 158.074 374.573 159.045C374.973 157.602 375.177 156.111 375.18 154.613C375.18 152.875 375.018 150.948 374.937 149.52C374.937 150.611 374.937 152.471 374.937 154.209C374.909 155.434 374.778 156.656 374.546 157.86L374.802 156.512C374.802 156.054 374.924 155.583 374.991 155.165C375.021 156.667 374.736 158.158 374.155 159.544C373.404 161.33 372.234 162.91 370.746 164.151C370.746 163.586 368.724 165.499 365.625 166.28C364.056 166.66 362.437 166.792 360.827 166.671C359.583 166.665 358.34 166.575 357.108 166.401C349.359 166.684 341.745 166.28 332.716 166.321C335.923 166.927 330.021 166.321 330.64 166.967C329.608 167.024 328.573 167.024 327.541 166.967L321.18 166.59C319.671 166.415 323.175 166.455 322.986 166.321C318.391 166.321 321.059 166.065 318.013 165.889C318.633 166.118 316.41 166.213 313.782 166.132L317.474 166.415C311.046 166.738 311.922 165.889 305.44 166.213L307.488 166.024C304.16 166.145 295.225 166.024 291.964 166.523C291.371 166.442 290.616 166.28 292.058 166.226C284.12 166.159 274.364 166.765 268.191 166.455L268.798 166.307C267.325 166.454 265.843 166.494 264.364 166.428C264.458 166.428 264.957 166.28 264.27 166.28C263.583 166.28 260.335 166.536 258.367 166.455L260.038 166.28C252.289 166.078 248.152 166.698 241.643 166.806C241.643 166.361 235.565 166.213 232.52 166.132H232.628C223.598 166.132 217.292 166.496 208.923 166.671C203.734 166.186 191.404 166.469 183.008 166.199C184.288 166.28 182.806 166.55 181.323 166.59C179.369 166.496 175.933 166.9 176.216 166.496H176.917C174.05 166.169 171.161 166.069 168.278 166.199L167.766 166.725C159.546 165.957 146.204 167.008 141.757 166.321C139.776 166.455 137.323 166.455 135.356 166.577L135.464 166.294C129.965 166.226 127.23 166.186 120.438 166.294L121.785 166.092C117.944 166.092 116.947 166.913 113.416 166.94L112.352 166.509C105.614 166.509 98.8754 166.132 92.299 166.509C92.4068 166.509 92.609 166.321 93.6467 166.307C90.5067 166.307 81.518 166.024 82.6231 166.603C82.6231 166.226 75.7367 166.603 72.125 166.738L72.691 166.455C70.2418 166.821 67.7689 167.005 65.2926 167.008C64.2818 167.008 64.4031 166.792 65.7508 166.859C62.3952 166.711 63.1364 167.129 59.0126 166.981L60.522 166.792C58.8233 166.728 57.1224 166.822 55.4414 167.075C53.0826 167.201 50.7172 167.092 48.3798 166.752C46.9864 167.071 45.5345 167.029 44.1618 166.63C43.9327 166.455 44.62 166.63 44.9703 166.63C42.8343 166.172 40.8243 165.252 39.0812 163.936C37.649 162.858 36.5321 161.416 35.8469 159.759C35.8729 159.541 35.8306 159.32 35.7256 159.126C36.4569 160.796 37.526 162.296 38.8656 163.532C39.356 163.977 39.8736 164.39 40.4154 164.771C40.4154 164.69 39.8359 164.098 39.472 163.72C39.1082 163.343 39.0677 163.181 40.2267 163.828C38.7738 162.899 37.5338 161.673 36.5881 160.231C35.537 158.668 34.9399 156.845 34.8631 154.963C34.8693 154.813 34.8919 154.664 34.9305 154.518V154.855C34.9305 154.114 34.9305 153.346 34.8497 152.646C34.8497 151.487 34.9305 150.76 34.9305 149.655C35.0895 147.625 35.13 145.587 35.0518 143.552C34.7688 143.7 34.8092 141.288 34.5801 143.552C34.5801 143.255 34.5801 143.902 34.5801 145.128C34.5801 145.411 34.5801 145.734 34.5801 145.923V145.788V150.382C34.3951 148.714 34.3591 147.032 34.4723 145.357C34.2971 144.414 34.1085 143.363 34.0141 142.784C34.4184 140.251 34.6206 135.374 34.8766 134.7C34.7149 129.055 34.7688 121.403 34.2297 117.846C34.1757 117.025 34.2576 116.201 34.4723 115.407C34.4723 116.337 34.4723 117.442 34.5936 117.94C34.5936 117.132 34.5936 116.135 34.5262 115.084C34.5742 113.962 34.5064 112.837 34.3241 111.729C34.1004 110.26 33.5119 108.87 32.6126 107.687C31.6288 105.842 31.9657 106.34 32.2353 106.61C32.5048 106.879 32.4644 106.879 32.3296 106.61C31.919 105.914 31.4307 105.268 30.8742 104.683C31.0898 104.858 31.2784 105.033 31.4806 105.222C30.672 104.094 29.6842 103.107 28.5562 102.298C27.5455 101.544 26.5617 100.843 25.578 100.183C23.6374 98.8358 21.7372 97.6097 19.8101 96.3568C15.4697 93.6403 11.2896 90.6759 7.29067 87.4783C7.68537 87.7551 8.05109 88.071 8.38224 88.4214L3.54426 84.7837L10.0668 80.1087L17.2496 74.8678L24.419 69.7213L27.9498 67.2692C29.208 66.4621 30.3505 65.4876 31.3458 64.3726C32.263 63.3438 32.9682 62.1443 33.4212 60.8427C33.7044 59.9203 33.8984 58.9729 34.0006 58.0135C34.1624 57.7575 34.2971 57.4746 34.4454 57.2051C34.453 55.823 34.3765 54.4418 34.2163 53.069C33.9602 47.3296 34.9575 43.1396 34.4723 35.8778L34.2702 36.8209C34.2702 34.2072 34.1489 28.5621 34.378 28.9933C34.2593 28.3624 34.2411 27.7167 34.3241 27.0801L34.4858 26.9993L34.2163 20.5998C34.3376 15.6283 34.8497 21.3677 34.8766 14.1194C34.8766 11.4249 34.4184 6.45343 34.3106 7.46388C34.3529 8.4231 34.2668 9.38367 34.0546 10.3201L33.9602 7.86806C33.502 7.40999 33.0169 5.52381 32.6126 11.5731L32.9765 15.7765L32.7474 17.1238V13.594C32.5999 15.1646 32.6361 16.7471 32.8552 18.3094C32.6655 18.8936 32.5567 19.501 32.5317 20.1147L32.9765 24.1566C32.8013 24.6551 32.6126 22.2973 32.5183 25.0727C32.7204 27.0128 32.9225 23.2135 33.0573 26.42C32.7921 27.6681 32.7239 28.9501 32.8552 30.2193C32.7339 30.5561 32.653 30.0441 32.6126 29.1145C32.7474 31.2163 32.6126 34.6922 32.9225 35.77C32.653 37.8718 32.9899 42.8836 32.5452 42.6815C32.653 43.3417 32.8956 46.3865 32.9091 48.3131C32.37 44.7833 32.9091 55.5614 32.3026 54.6184C32.4534 55.4311 32.4897 56.261 32.4104 57.0839C32.3091 58.194 32.0458 59.2834 31.6288 60.3173C31.1398 61.438 30.4906 62.4818 29.7017 63.416C28.9326 64.301 28.0746 65.1046 27.1412 65.8142C27.4072 65.5483 27.6908 65.3008 27.9902 65.0732C25.9418 66.5282 25.1737 66.8785 23.7856 67.7677C23.7856 68.2797 20.4974 70.7317 18.8668 72.2002C16.0502 73.7631 20.2144 70.6913 19.1498 70.9742C19.4597 71.1494 14.8239 74.4771 15.8616 74.0595C14.8954 74.7217 13.8552 75.2688 12.762 75.6897C12.762 76.3363 10.9562 77.0369 9.50078 78.5055C6.48209 80.3782 8.49005 78.6671 5.45789 81.0518C3.86769 82.0084 6.57642 79.8527 6.57642 79.8527ZM33.219 156.081C33.1228 155.421 33.0643 154.755 33.0438 154.087C33.066 154.755 33.1245 155.42 33.219 156.081ZM36.5881 163.437C35.8189 162.534 35.1586 161.544 34.6206 160.487C34.6206 160.177 34.7688 160.487 35.1866 161.134C35.0518 160.958 35.1866 161.295 35.483 161.807C35.8203 162.371 36.1892 162.915 36.5881 163.437ZM35.0383 147.27C35.0983 147.877 35.0756 148.489 34.9709 149.089C34.9709 148.51 34.9709 147.823 34.9709 146.933V146.785C35.018 146.961 35.0407 147.142 35.0383 147.324V147.27Z" fill="#202020"/>
<path d="M34.6609 145.115V144.616L34.5936 145.344L34.6879 145.775L34.6609 145.115Z" fill="#202020"/>
<path d="M143.064 168.88L143.051 168.813L142.363 168.867L143.064 168.88Z" fill="#202020"/>
<path d="M142.026 0.700563C141.841 0.655048 141.651 0.632424 141.46 0.633198L142.026 0.700563Z" fill="#202020"/>
<path d="M123.55 0.633219L120.936 0.53891L123.55 0.633219Z" fill="#202020"/>
<path d="M109.333 0.498505C109.235 0.516607 109.142 0.558207 109.064 0.619759L109.333 0.498505Z" fill="#202020"/>
<path d="M335.249 0.161666H335.802C337.082 0.0943046 336.193 0.121249 335.249 0.161666Z" fill="#202020"/>
<path d="M268.016 0.821827L270.186 0.6871C268.986 0.673627 268.057 0.660155 268.016 0.821827Z" fill="#202020"/>
<path d="M273.312 0.700583C272.271 0.647047 271.227 0.647047 270.186 0.700583C271.17 0.714056 272.315 0.741001 273.312 0.700583Z" fill="#202020"/>
<path d="M46.9918 0.404175H46.2236C46.4793 0.422908 46.7361 0.422908 46.9918 0.404175Z" fill="#202020"/>
<path d="M44.6199 0.511942L46.2236 0.431106C45.6877 0.412436 45.1512 0.439479 44.6199 0.511942Z" fill="#202020"/>
<path d="M66.5593 0.498499L66.775 0.390717C66.6671 0.417662 66.5863 0.444608 66.5593 0.498499Z" fill="#202020"/>
<path d="M72.2733 0.471559C70.9256 0.471559 68.8503 0.242523 66.9501 0.309886L66.7749 0.390722C67.6778 0.242522 70.9795 0.646704 72.2733 0.471559Z" fill="#202020"/>
<path d="M96.1397 1.73797L91.3422 1.65714C92.1777 1.76492 93.2828 1.91312 91.0996 1.94006C97.1505 2.27688 89.8598 1.69755 96.1397 1.73797Z" fill="#202020"/>
<path d="M110.991 1.89966C108.417 1.89966 110.991 2.06133 110.883 2.12869C112.486 2.02091 112.904 1.99397 110.991 1.89966Z" fill="#202020"/>
<path d="M218.316 1.89966L218.06 2.15564C220.041 2.1287 218.073 2.06133 218.316 1.89966Z" fill="#202020"/>
<path d="M238.827 0.565847L236.899 0.404175L235.983 0.646684L238.827 0.565847Z" fill="#202020"/>
<path d="M250.955 2.4116L250.079 2.43855L253.394 2.34424L250.955 2.4116Z" fill="#202020"/>
<path d="M374.614 62.5807L374.923 61.9744C374.87 60.6406 374.506 60.3577 374.614 62.5807Z" fill="#202020"/>
<path d="M374.937 140.372C374.732 141.827 374.696 143.301 374.829 144.764C374.843 143.013 374.977 141.275 374.937 140.372Z" fill="#202020"/>
<path d="M163.696 166.321L165.26 166.213L162.308 166.307L163.696 166.321Z" fill="#202020"/>
</svg>
