<svg width="90" height="32" viewBox="0 0 90 32" fill="none" xmlns="http://www.w3.org/2000/svg">
<path d="M18.3418 1.47717C22.8266 1.46996 29.0766 1.33054 36.0091 1.1759C36.3324 1.16868 36.6572 1.16144 36.9834 1.15417C44.3079 0.99099 52.3321 0.816918 59.8333 0.765266C67.338 0.71359 74.3021 0.784646 79.5106 1.10983C82.1183 1.27263 84.2606 1.49774 85.8022 1.79664C86.5755 1.94656 87.168 2.10958 87.5825 2.27931C87.9936 2.4476 88.1061 2.57343 88.1205 2.58953C88.122 2.59123 88.1224 2.59171 88.122 2.59088C88.3219 2.97358 88.5116 3.61468 88.6726 4.51081C88.831 5.39174 88.9522 6.46292 89.0416 7.66849C89.2203 10.0788 89.2683 12.9783 89.2442 15.8733C89.196 21.663 88.8604 27.3779 88.7251 29.0059C88.5937 30.5862 88.2007 30.9698 87.955 31.1006C87.7992 31.1835 87.5877 31.2307 87.2675 31.2449C87.0575 31.2543 86.8652 31.2498 86.6444 31.2446C86.4939 31.241 86.3303 31.2371 86.1387 31.2371C85.9568 31.2371 84.7556 31.2365 82.7701 31.2354C67.4654 31.2271 5.56105 31.1936 4.74619 31.2383C4.34044 31.2605 3.45534 31.26 2.68305 30.7371C1.96214 30.249 1.15787 29.1766 1.15787 26.6617C1.15787 24.9975 1.07003 22.8922 0.976068 20.6401C0.917667 19.2403 0.8569 17.7838 0.813389 16.3414C0.698492 12.5323 0.702672 8.80549 1.14702 6.22134C1.22603 5.76189 1.28759 5.32953 1.34203 4.94715C1.36754 4.76795 1.3915 4.59973 1.41495 4.44484C1.49169 3.93795 1.56495 3.55922 1.67077 3.25403C1.77195 2.96222 1.8955 2.7609 2.06296 2.6009C2.23434 2.43714 2.49432 2.27613 2.92781 2.13261C3.82617 1.83518 5.2951 1.66534 7.78949 1.57749C10.2616 1.49042 13.6517 1.4847 18.3418 1.47717Z" fill="white" stroke="#333531" stroke-width="1.5"/>
<path d="M33.1514 13.426C33.1327 13.594 33.1234 13.7667 33.1234 13.944C33.1234 14.28 33.1047 14.5833 33.0674 14.854C33.03 15.1247 33.0067 15.3113 32.9974 15.414C32.988 15.5073 32.974 15.6007 32.9554 15.694V15.792C32.9554 15.96 32.918 16.128 32.8434 16.296L32.8014 16.926L32.7454 18.256V18.956C32.7454 19.3107 32.7267 19.502 32.6894 19.53L32.7034 19.894V20.048L32.6894 20.216C32.6894 20.2533 32.68 20.272 32.6614 20.272C32.68 20.384 32.6334 20.5053 32.5214 20.636C32.4187 20.7573 32.288 20.8367 32.1294 20.874L31.8774 20.916C31.84 20.916 31.7887 20.9207 31.7234 20.93C31.658 20.93 31.602 20.9207 31.5554 20.902C31.5087 20.8833 31.462 20.86 31.4154 20.832C31.322 20.776 31.2567 20.6687 31.2194 20.51C31.1914 20.4633 31.1354 20.1787 31.0514 19.656C31.0514 19.544 31.042 19.404 31.0234 19.236L31.0654 18.9V18.634C31.0654 18.466 31.084 18.3493 31.1214 18.284C31.084 18.228 31.1074 18.1067 31.1914 17.92C31.126 17.836 31.1307 17.6493 31.2054 17.36C31.168 17.2387 31.168 17.1593 31.2054 17.122C31.224 17.066 31.2334 16.9353 31.2334 16.73L31.2474 16.59C31.2474 16.3193 31.2754 16.072 31.3314 15.848C31.3127 15.82 31.3127 15.7453 31.3314 15.624C31.35 15.5027 31.364 15.358 31.3734 15.19V15.092C31.3827 14.952 31.3874 14.8027 31.3874 14.644L31.4014 14.518C31.4014 14.462 31.4107 14.35 31.4294 14.182C31.4574 14.014 31.4807 13.8367 31.4994 13.65H31.4714C30.482 13.9207 29.8754 14.056 29.6514 14.056L29.4134 14.07C29.2734 14.07 29.1287 14.0467 28.9794 14C28.9047 13.9627 28.8487 13.8647 28.8114 13.706C28.8114 13.398 28.8767 13.174 29.0074 13.034C29.1474 12.894 29.404 12.7633 29.7774 12.642C29.8707 12.6327 30.4494 12.4367 31.5134 12.054L32.1154 11.914C32.2274 11.8767 32.4047 11.858 32.6474 11.858C32.89 11.858 33.0907 11.83 33.2494 11.774C33.4174 11.7087 33.5994 11.662 33.7954 11.634C33.9914 11.5967 34.1967 11.5593 34.4114 11.522C34.514 11.4847 34.7007 11.494 34.9714 11.55C35.074 11.55 35.2374 11.6573 35.4614 11.872L35.5454 12.068C35.5454 12.124 35.5594 12.166 35.5874 12.194C35.6247 12.446 35.5687 12.6093 35.4194 12.684C35.3634 12.712 35.2654 12.7493 35.1254 12.796C34.9387 12.796 34.472 12.8893 33.7254 13.076C33.688 13.076 33.5014 13.104 33.1654 13.16L33.1514 13.342V13.426ZM37.6258 17.822L37.6678 19.082C37.8171 19.614 38.0365 19.9873 38.3258 20.202C38.3725 20.2487 38.4798 20.3 38.6478 20.356L38.9978 20.44C39.0445 20.44 39.0958 20.4213 39.1518 20.384C39.2171 20.3653 39.2638 20.342 39.2918 20.314C39.3571 20.23 39.4225 20.1553 39.4878 20.09C39.5531 20.0247 39.5811 19.992 39.5718 19.992C39.6091 19.9547 39.6231 19.894 39.6138 19.81C39.6418 19.782 39.6791 19.7213 39.7258 19.628C39.8285 19.1053 39.9311 18.7693 40.0338 18.62C40.0711 18.2093 40.0898 17.948 40.0898 17.836C40.0898 17.444 39.9871 16.9633 39.7818 16.394C39.6698 16.2633 39.6138 15.848 39.6138 15.148C39.5578 15.008 39.5251 14.882 39.5158 14.77C39.5065 14.6487 39.4738 14.5227 39.4178 14.392C39.3711 14.252 39.3338 14.1587 39.3058 14.112C39.2778 14.0653 39.2591 14.0233 39.2498 13.986C39.2498 13.9393 39.2311 13.8833 39.1938 13.818C39.0445 13.594 38.8158 13.7153 38.5078 14.182L38.2698 14.602C38.2698 14.6207 38.2231 14.7933 38.1298 15.12C37.9805 15.6427 37.9058 15.9367 37.9058 16.002C37.9151 16.058 37.8638 16.2493 37.7518 16.576C37.7425 16.604 37.7378 16.6693 37.7378 16.772C37.7471 16.8747 37.7285 17.0193 37.6818 17.206C37.6445 17.3833 37.6258 17.5887 37.6258 17.822ZM36.0298 16.8L36.1278 15.764C36.1278 15.708 36.1465 15.624 36.1838 15.512C36.2305 15.4 36.2585 15.33 36.2678 15.302C36.2678 15.2833 36.2771 15.2507 36.2958 15.204C36.2958 14.952 36.3658 14.7327 36.5058 14.546C36.7205 14.0513 36.8838 13.6827 36.9958 13.44C37.1078 13.1973 37.2291 12.9967 37.3598 12.838C37.3691 12.7913 37.4671 12.7167 37.6538 12.614C38.0365 12.4087 38.3958 12.306 38.7318 12.306C39.0678 12.306 39.3898 12.3573 39.6978 12.46C39.8005 12.4787 39.9358 12.5487 40.1038 12.67C40.2811 12.7913 40.3838 12.8567 40.4118 12.866C40.5705 12.9593 40.7338 13.16 40.9018 13.468C41.0791 13.7667 41.1725 13.986 41.1818 14.126C41.2005 14.266 41.2565 14.49 41.3498 14.798C41.4525 15.0967 41.5038 15.3207 41.5038 15.47C41.5038 15.61 41.5271 15.8247 41.5738 16.114C41.6298 16.4033 41.6531 16.6367 41.6438 16.814C41.5878 18.13 41.4198 19.082 41.1398 19.67C41.0838 20.0807 40.9765 20.342 40.8178 20.454L40.7898 20.65C40.7805 20.762 40.7245 20.888 40.6218 21.028C40.5285 21.168 40.4071 21.2753 40.2578 21.35C40.2298 21.378 40.0431 21.42 39.6978 21.476C39.2031 21.5693 38.8765 21.616 38.7178 21.616C38.5125 21.6813 38.2511 21.6673 37.9338 21.574C37.6258 21.49 37.4485 21.4433 37.4018 21.434C37.3551 21.434 37.2525 21.3827 37.0938 21.28C36.9445 21.1867 36.8465 21.112 36.7998 21.056C36.6505 20.944 36.5618 20.8553 36.5338 20.79L36.3378 20.398C36.2165 20.2767 36.1325 20.104 36.0858 19.88C36.0391 19.6467 35.9925 19.4973 35.9458 19.432C35.8991 19.3293 35.8571 19.222 35.8198 19.11C35.8291 19.0447 35.8338 18.928 35.8338 18.76V18.62C35.7965 18.48 35.8058 18.3447 35.8618 18.214C35.8711 18.1487 35.8758 18.0693 35.8758 17.976C35.8851 17.8733 35.8991 17.7287 35.9178 17.542V17.36C36.0018 17.08 36.0391 16.8933 36.0298 16.8ZM46.9058 13.454C46.6631 13.314 46.1918 13.244 45.4918 13.244L45.5758 14.112C45.6504 14.616 45.7158 15.5587 45.7718 16.94C45.8558 16.9213 45.9118 16.898 45.9398 16.87C46.0144 16.814 46.0938 16.786 46.1778 16.786C46.2991 16.758 46.4158 16.674 46.5278 16.534C46.8078 16.3007 47.0224 16.1047 47.1718 15.946L47.6338 15.414C47.6618 15.4047 47.7084 15.302 47.7738 15.106C47.8391 14.9007 47.8811 14.7327 47.8998 14.602C47.8998 14.3313 47.8718 14.1773 47.8158 14.14C47.8158 14.1213 47.7598 14.0047 47.6478 13.79C47.6104 13.762 47.4984 13.692 47.3118 13.58L46.9058 13.454ZM44.0078 11.844L44.7918 11.732L45.7998 11.662L46.3318 11.732C46.3691 11.7693 46.4578 11.7927 46.5978 11.802C46.8684 11.7927 47.2324 11.9467 47.6898 12.264C47.8018 12.3013 47.8951 12.3667 47.9698 12.46L48.5018 13.104C48.5204 13.1227 48.5484 13.174 48.5858 13.258C48.6231 13.3327 48.6744 13.4213 48.7398 13.524C48.7211 13.524 48.7351 13.5613 48.7818 13.636C48.9031 13.8413 48.9591 13.9627 48.9498 14C48.9964 14.0373 49.0431 14.1587 49.0898 14.364C49.1364 14.5693 49.1504 14.7093 49.1318 14.784C49.1411 14.7933 49.1318 14.9007 49.1038 15.106C49.0384 15.554 48.9218 15.8853 48.7538 16.1L48.5718 16.436L48.2638 16.884L48.0818 17.052C47.7458 17.4253 47.3351 17.7147 46.8498 17.92C46.8311 17.9293 46.8031 17.9387 46.7658 17.948L46.4298 18.06L45.8838 18.2C45.8838 18.4707 45.9164 19.096 45.9818 20.076C46.0191 20.412 46.0471 20.5987 46.0658 20.636C46.0658 20.944 46.0471 21.1493 46.0098 21.252C45.9724 21.364 45.9118 21.4433 45.8278 21.49C45.7438 21.546 45.5991 21.5787 45.3938 21.588C45.3378 21.6067 45.2398 21.588 45.0998 21.532C44.9598 21.4853 44.8478 21.4107 44.7638 21.308L44.6798 20.86C44.6984 20.8413 44.6704 20.7527 44.5958 20.594C44.5304 20.5193 44.4791 20.3887 44.4417 20.202L44.3438 18.872L44.3298 18.424C43.7884 18.4613 43.4618 18.312 43.3498 17.976C43.2564 17.7987 43.2378 17.682 43.2938 17.626L43.3638 17.444C43.4758 17.2667 43.6904 17.178 44.0078 17.178H44.3018C44.2831 17.1593 44.2738 17.094 44.2738 16.982L44.2178 16.394V16.142L44.2038 15.96C44.2131 15.876 44.2084 15.7827 44.1898 15.68V15.596L44.1618 15.246V14.98L44.1478 14.84C44.1478 14.1773 44.1104 13.7573 44.0358 13.58C43.7278 13.7573 43.5224 13.8553 43.4198 13.874C43.3171 13.8833 43.1444 13.8133 42.9018 13.664C42.7991 13.58 42.7431 13.4867 42.7338 13.384C42.5657 13.1507 42.5097 12.9593 42.5657 12.81C42.5844 12.7353 42.6591 12.6187 42.7898 12.46C42.7991 12.4227 42.9111 12.3387 43.1258 12.208C43.2938 12.04 43.5878 11.9187 44.0078 11.844ZM54.7932 13.3C54.8212 13.4213 54.7979 13.5053 54.7232 13.552C54.6486 13.5893 54.5692 13.608 54.4852 13.608C54.4106 13.608 54.2052 13.6173 53.8692 13.636C53.6546 13.6827 53.4399 13.7433 53.2252 13.818H53.2112C53.2112 13.986 53.1646 14.2333 53.0712 14.56C53.0712 14.672 53.0479 14.854 53.0012 15.106C53.0012 15.1807 52.9872 15.2553 52.9592 15.33C52.9312 15.4047 52.9172 15.5213 52.9172 15.68C52.8519 16.0627 52.8239 16.2727 52.8332 16.31C52.8426 16.3473 52.8426 16.3987 52.8332 16.464C52.8239 16.5293 52.8052 16.6273 52.7772 16.758C52.7492 16.8887 52.7352 17.0427 52.7352 17.22C52.7352 17.3973 52.7119 17.556 52.6652 17.696V17.85C52.6839 18.186 52.6699 18.424 52.6232 18.564C52.5859 18.704 52.5672 18.8253 52.5672 18.928C52.5672 19.0213 52.5439 19.1707 52.4972 19.376C52.4506 19.5813 52.4366 19.824 52.4552 20.104H52.5392C52.7726 20.0853 52.8939 20.0807 52.9032 20.09C52.9219 20.09 52.9872 20.076 53.0992 20.048L53.3232 20.062H53.4632C53.4912 20.062 53.5519 20.0993 53.6452 20.174C53.7386 20.2393 53.8039 20.3047 53.8412 20.37C53.9066 20.4353 53.9252 20.5007 53.8972 20.566C53.8786 20.622 53.7759 20.72 53.5892 20.86L53.3232 20.944C53.2952 20.972 53.2299 21.0047 53.1272 21.042C53.0246 21.0793 52.9359 21.098 52.8612 21.098C52.6466 21.1447 52.5206 21.224 52.4832 21.336C52.4459 21.4107 52.2219 21.4387 51.8112 21.42H51.3352L51.0692 21.504C50.8359 21.5973 50.6306 21.6207 50.4532 21.574C50.2759 21.5273 50.1546 21.49 50.0892 21.462C50.0332 21.4433 49.9632 21.3967 49.8792 21.322C49.7952 21.2567 49.7579 21.1773 49.7672 21.084C49.7859 21 49.8186 20.874 49.8652 20.706C50.0239 20.5753 50.1359 20.4913 50.2012 20.454C50.6492 20.314 50.9339 20.2207 51.0552 20.174C51.0552 19.866 51.0459 19.684 51.0272 19.628C51.0552 19.6187 51.0879 19.418 51.1252 19.026C51.1346 18.9887 51.1112 18.9 51.0552 18.76V18.676C51.0832 18.4147 51.0786 18.1767 51.0412 17.962C51.0412 17.9527 51.0599 17.7893 51.0972 17.472C51.1439 17.416 51.1439 17.2667 51.0972 17.024C51.1346 16.8467 51.1672 16.7067 51.1952 16.604L51.2092 16.408C51.2092 16.352 51.2372 16.184 51.2932 15.904V15.764L51.3212 15.652C51.4892 14.9613 51.6012 14.4573 51.6572 14.14C51.5826 14.1587 51.5359 14.168 51.5172 14.168L51.0552 14.238C50.7006 14.3313 50.3879 14.252 50.1172 14C49.8839 13.6827 49.8792 13.412 50.1032 13.188C50.2432 13.0667 50.4579 12.9827 50.7472 12.936C50.9992 12.852 51.1626 12.7913 51.2372 12.754C51.3306 12.754 51.5499 12.6513 51.8952 12.446C52.2406 12.3993 52.4412 12.376 52.4972 12.376L53.1552 12.292C53.2392 12.2827 53.3512 12.292 53.4912 12.32C53.6312 12.3387 53.7152 12.3667 53.7432 12.404C53.8646 12.432 54.0139 12.488 54.1912 12.572L54.5272 12.88C54.6579 13.0667 54.7466 13.2067 54.7932 13.3ZM57.8516 12.432C57.9823 12.376 58.2529 12.3573 58.6636 12.376C59.0743 12.3853 59.3683 12.4227 59.5456 12.488L59.8956 12.6C60.1849 12.796 60.3483 12.894 60.3856 12.894C60.7683 13.1927 60.9876 13.5847 61.0436 14.07C61.0996 14.2753 61.1089 14.462 61.0716 14.63C61.0716 14.686 61.0529 14.8073 61.0156 14.994L60.8756 15.316L60.7076 15.554C60.6516 15.5633 60.6189 15.568 60.6096 15.568C60.2643 15.624 59.9983 15.6333 59.8116 15.596C59.6249 15.5493 59.4616 15.4467 59.3216 15.288C59.2936 15.232 59.2796 15.1807 59.2796 15.134C59.2889 15.0873 59.3029 15.0453 59.3216 15.008L59.3916 14.784C59.5129 14.4853 59.5036 14.2333 59.3636 14.028C59.3636 14 59.3169 13.9487 59.2236 13.874C59.1303 13.7993 59.0556 13.7433 58.9996 13.706C58.9529 13.6687 58.8643 13.664 58.7336 13.692C58.5096 13.7853 58.3183 14.07 58.1596 14.546C57.9729 14.7887 57.8423 15.106 57.7676 15.498C57.6556 16.198 57.5996 16.5947 57.5996 16.688L57.5856 16.996V17.122C57.5669 17.1407 57.5763 17.5467 57.6136 18.34C57.6229 18.3867 57.6416 18.452 57.6696 18.536C57.6976 18.6387 57.7396 18.8067 57.7956 19.04L57.9776 19.348C58.0243 19.376 58.0849 19.46 58.1596 19.6C58.2063 19.6 58.2436 19.6327 58.2716 19.698C58.3369 19.7633 58.3649 19.8007 58.3556 19.81C58.4023 19.8193 58.4723 19.8473 58.5656 19.894C58.8176 20.0247 59.0369 19.9967 59.2236 19.81C59.2889 19.7447 59.3683 19.656 59.4616 19.544C59.5643 19.4227 59.6389 19.3293 59.6856 19.264C59.7416 19.1893 59.8256 19.1193 59.9376 19.054C60.2456 18.8207 60.5116 18.83 60.7356 19.082C60.7823 19.1567 60.7869 19.3387 60.7496 19.628C60.7216 19.908 60.5909 20.202 60.3576 20.51C60.3389 20.566 60.2783 20.6593 60.1756 20.79C60.0729 20.9113 59.9656 21.0093 59.8536 21.084C59.8349 21.1493 59.4803 21.196 58.7896 21.224C58.7523 21.224 58.6776 21.2147 58.5656 21.196C58.4629 21.224 58.3229 21.21 58.1456 21.154C57.9776 21.098 57.8843 21.07 57.8656 21.07L57.6836 21.028C57.6089 21.028 57.5343 21.0047 57.4596 20.958C57.3849 20.9113 57.2589 20.832 57.0816 20.72C56.9136 20.5987 56.7829 20.5007 56.6896 20.426C56.4096 20.202 56.2089 19.9453 56.0876 19.656C56.0503 19.5907 56.0269 19.502 56.0176 19.39C56.0083 19.2687 55.9896 19.18 55.9616 19.124C55.8869 19.0493 55.8496 18.928 55.8496 18.76C55.8589 18.592 55.8496 18.3867 55.8216 18.144C55.8216 18.032 55.8263 17.9667 55.8356 17.948C55.7889 17.9013 55.7703 17.822 55.7796 17.71C55.7889 17.5887 55.7936 17.4253 55.7936 17.22C55.8216 17.164 55.8309 17.0007 55.8216 16.73C55.8216 16.45 55.8309 16.24 55.8496 16.1C55.8123 16.016 55.8076 15.8947 55.8356 15.736L55.8496 15.316C55.8589 15.148 55.9009 14.9707 55.9756 14.784C55.9849 14.7 56.0036 14.602 56.0316 14.49C56.0596 14.3687 56.1809 14.1307 56.3956 13.776C56.3956 13.7013 56.4656 13.608 56.6056 13.496C56.6056 13.4587 56.6429 13.4027 56.7176 13.328C56.7923 13.2533 56.8763 13.16 56.9696 13.048C57.1003 12.8893 57.2449 12.7727 57.4036 12.698C57.5623 12.6233 57.7116 12.5347 57.8516 12.432Z" fill="#333531"/>
</svg>
