<svg width="652" height="280" viewBox="0 0 652 280" fill="none" xmlns="http://www.w3.org/2000/svg">
<g opacity="0.85">
<g opacity="0.9">
<path opacity="0.9" d="M8.34961 68.5315C8.92184 63.9089 9.5656 59.9524 10.3286 56.8034V30.2588C10.3286 26.2216 10.3286 22.3257 10.3286 18.3693C9.85172 35.4264 9.13643 52.1808 8.34961 68.5315Z" fill="#7BA6F1"/>
<path opacity="0.9" d="M1.26953 243.584C3.39156 223.116 3.65384 180.12 4.58372 139.707C3.0816 175.315 1.79408 210.096 1.26953 243.584Z" fill="#7BA6F1"/>
<path opacity="0.9" d="M136.793 257.008C132.478 256.766 128.282 256.483 124.204 256.18L57.4438 256.847L71.5351 257.392L136.793 257.008Z" fill="#7BA6F1"/>
<path opacity="0.9" d="M12.2616 70.5906C12.5001 101.374 11.8563 133.894 11.0933 166.535C10.7357 182.845 10.378 199.196 10.0204 215.365C9.87733 223.439 9.74222 231.466 9.61506 239.446C9.61506 246.956 9.55148 254.357 9.42432 261.651H32.0275C40.0149 261.651 47.8831 261.51 55.6321 261.389C71.1063 261.126 86.0797 260.662 100.338 259.976C86.032 259.027 70.2717 258.219 54.2492 257.473L14.1452 257.695C14.0499 232.704 13.9068 207.734 13.7161 182.784C13.7161 158.803 13.7161 134.782 13.7161 110.72C13.7161 90.0902 13.7876 69.4736 13.9307 48.8704C12.5001 49.7384 11.2841 52.4232 10.2588 56.7228C10.2588 73.1004 10.2191 89.4308 10.1396 105.714C11.0456 94.5715 11.7848 82.8838 12.2616 70.5906Z" fill="#7BA6F1"/>
<path opacity="0.9" d="M43.496 256.988L25.6376 257.17H17.7456H14.5983V252.91L14.4791 242.817L14.2645 222.631C14.1532 209.174 14.0419 195.784 13.9307 182.461C14.0578 207.411 14.1691 232.388 14.2645 257.392L54.2492 257.493L43.496 256.988Z" fill="#7BA6F1"/>
<path opacity="0.9" d="M4.6311 193.846C5.37023 161.811 8.08834 134.721 10.2104 105.795C10.2104 89.4979 10.2501 73.1675 10.3296 56.8033C9.56661 59.9524 8.92285 63.9088 8.35061 68.5314C6.3478 110.276 3.96349 150.87 4.6311 193.846Z" fill="#7BA6F1"/>
<path opacity="0.9" d="M4.58154 139.707C5.51142 119.219 6.46514 98.4068 7.41886 77.4537C5.91675 94.2283 5.12993 116.554 4.58154 139.707Z" fill="#7BA6F1"/>
<path opacity="0.9" d="M205.199 256.564L185.385 256.059H147.69H137.938L124.204 256.201C128.281 256.504 132.478 256.786 136.793 257.028L205.199 256.564Z" fill="#7BA6F1"/>
<path opacity="0.9" d="M296.877 263.145L288.222 262.479H246.306C263.123 262.761 279.98 262.983 296.877 263.145Z" fill="#7BA6F1"/>
<path opacity="0.9" d="M14.5275 48.6483C14.3367 48.6483 14.1698 48.8299 14.0029 48.951C13.9393 69.5408 13.844 90.1305 13.7168 110.72C13.8599 90.0632 14.1301 69.3725 14.5275 48.6483Z" fill="#7BA6F1"/>
<path opacity="0.9" d="M288.22 262.478C343.361 262.478 398.399 262.23 453.333 261.732C403.263 260.52 353.192 259.229 301 258.502C269.217 258.179 237.101 257.432 205.199 256.483L136.793 256.927C182.643 259.673 240.391 259.087 288.22 262.478Z" fill="#7BA6F1"/>
<path opacity="0.9" d="M71.5826 257.392L54.2487 257.493C70.2712 258.239 85.9122 259.047 100.337 259.996C86.0315 260.682 71.1057 261.146 55.6316 261.409C47.8826 261.53 40.0144 261.631 32.027 261.671H9.42375C9.42375 254.337 9.48733 246.935 9.61449 239.466C9.75755 231.5 9.89266 223.472 10.0198 215.385C10.3775 199.236 10.7351 182.865 11.0928 166.555C11.8557 133.914 12.4995 101.394 12.2611 70.6107C11.7842 82.9039 11.0451 94.4907 10.2106 105.815C9.95624 158.218 9.68602 210.197 9.3999 261.752L127.447 262.236L246.304 262.499C187.269 261.449 128.925 259.592 71.5826 257.392Z" fill="#7BA6F1"/>
<path opacity="0.9" d="M136.794 257.008L71.5835 257.392C128.807 259.592 187.27 261.429 246.305 262.479H288.221C240.392 259.087 182.644 259.673 136.794 257.008Z" fill="#7BA6F1"/>
<path opacity="0.9" d="M71.5827 257.392L57.4915 256.847L43.4956 256.988L54.2488 257.493L71.5827 257.392Z" fill="#7BA6F1"/>
<path opacity="0.9" d="M10.4726 12.0713L10.3057 18.3693C10.3057 22.4065 10.3057 26.262 10.3057 30.2588V56.8034C11.3309 52.5038 12.5469 49.8191 13.9775 48.9511C13.9775 41.5428 13.9775 34.1346 14.1206 26.7465V15.7047C14.1206 13.9082 14.1206 12.0914 14.1206 10.2747L113.999 11.2638C120.961 11.062 127.701 10.8063 134.218 10.4967C113.157 10.1334 92.0476 9.67585 70.8908 9.1241L39.2034 8.23591L23.5624 7.77163C17.5539 7.61015 14.9551 7.44866 10.7825 7.28717L10.4726 12.0713Z" fill="#7BA6F1"/>
<path opacity="0.9" d="M57.4898 256.847L46.5935 256.423H30.9048L43.4939 256.988L57.4898 256.847Z" fill="#7BA6F1"/>
<path opacity="0.9" d="M124.203 256.18H123.56L46.5942 256.483L57.4905 256.907L124.203 256.18Z" fill="#7BA6F1"/>
<path opacity="0.9" d="M14.5275 48.6483C14.1301 69.3591 13.8599 90.0497 13.7168 110.72C13.7168 134.688 13.7168 158.682 13.7168 182.703C13.844 196.08 13.9552 209.47 14.0506 222.874L14.2652 243.06L14.3844 253.153V257.412H17.5317H25.4237L43.2822 257.23L30.693 256.665H15.505C15.505 248.308 15.5766 239.823 15.7196 231.21C15.8627 220.337 16.0137 209.275 16.1726 198.025C16.0057 130.785 15.2189 79.4723 16.3634 14.11V12.4951H59.0424C77.3539 12.3942 96.2376 12.1722 113.881 11.6473L14.0029 10.6582C14.0029 12.4749 14.0029 14.2917 14.0029 16.0882V27.13C14.0029 34.4979 14.0029 41.9061 13.8599 49.3346C14.1698 48.8299 14.3367 48.6684 14.5275 48.6483Z" fill="#7BA6F1"/>
<path opacity="0.9" d="M325.416 3.97668C240.917 4.46115 156.512 5.75305 70.6772 6.49993L196.712 11.1831H226.897C234.187 10.2992 241.539 9.82716 248.904 9.77007L279.542 10.6179C322.317 9.81044 364.137 8.11482 404.313 5.18785L325.416 3.97668Z" fill="#7BA6F1"/>
<path opacity="0.9" d="M180.736 11.082C191.418 11.5463 202.624 12.051 214.117 12.3739L218.361 12.0308L196.616 11.183L180.736 11.082Z" fill="#7BA6F1"/>
<path opacity="0.9" d="M444.536 5.753L404.313 5.1676C364.209 8.13494 322.316 9.7902 279.542 10.638C313.351 11.5464 344.371 12.2125 382.306 12.3538C403.264 11.7684 412.062 7.26695 430.778 7.79178C461.774 8.65978 496.538 9.99206 531.682 10.7188C549.255 11.0821 566.922 11.284 584.137 11.2234C592.792 11.2234 601.375 11.1023 609.816 10.9004L622.381 10.5573H623.955H624.646L625.815 10.4361L628.413 10.1737L628.747 11.9905L628.938 12.9998V13.5448C628.938 13.5448 628.938 13.6861 628.938 13.8476V14.4532C630.893 93.8043 632.395 196.127 637.116 263.225C636.449 215.122 635.805 169.946 635.209 127.091C634.613 84.2362 634.207 44.167 633.73 5.51076L537.285 5.95486C506.027 5.93467 475.15 5.91448 444.536 5.753Z" fill="#7BA6F1"/>
<path opacity="0.9" d="M218.456 12.0309L226.896 11.2033H196.711L218.456 12.0309Z" fill="#7BA6F1"/>
<path opacity="0.9" d="M205.198 256.564L246.161 256.281L185.385 256.059L205.198 256.564Z" fill="#7BA6F1"/>
<path opacity="0.9" d="M10.2822 9.79022V15.4019L10.45 12.0914V7.71106L10.2822 9.79022Z" fill="#7BA6F1"/>
<path opacity="0.9" d="M4.17725 100.97C4.84485 83.7315 5.65551 67.6433 6.56155 52.3625C7.06225 44.712 7.61064 37.2634 8.23056 29.9762C8.56437 26.3428 8.89817 22.7295 9.23197 19.1565L9.73268 13.8274L10.2811 9.79024V6.86327L70.6993 6.49992L7.44374 4.48132C6.85561 20.2802 6.22775 36.2406 5.56014 52.3625C4.89254 68.4844 4.43157 84.687 4.17725 100.97Z" fill="#7BA6F1"/>
<path opacity="0.9" d="M10.5921 7.7716V12.152L10.9021 7.38806C15.0746 7.54955 17.6735 7.71104 23.6819 7.87253L39.5137 8.3368L71.2011 9.22499C92.342 9.76328 113.451 10.2208 134.528 10.5976L139.297 10.3554C151.6 10.0122 165.643 10.5169 180.831 11.1628H196.806L70.6766 6.49988L10.2583 6.86323V9.7902L10.5921 7.7716Z" fill="#7BA6F1"/>
<path opacity="0.9" d="M7.42139 77.4537C7.7075 74.2845 8.01746 71.2768 8.35127 68.5315C9.13809 52.0799 9.85338 35.4265 10.3064 18.3693V15.3818C9.35267 36.1734 8.37511 56.9246 7.42139 77.4537Z" fill="#7BA6F1"/>
<path opacity="0.9" d="M10.3057 18.3693L10.4734 12.0712L10.3057 15.3817V18.3693Z" fill="#7BA6F1"/>
<path opacity="0.9" d="M288.22 262.479L296.875 263.145C279.946 263.01 263.089 262.788 246.304 262.479L127.446 262.216L9.39946 261.732C9.66968 210.204 9.9399 158.225 10.2101 105.795C8.08809 134.721 5.44152 161.811 4.63085 193.846C3.96325 150.87 6.34755 110.276 8.35037 68.5315C8.01657 71.2767 7.70661 74.2845 7.42049 77.4537C6.46677 98.4067 5.51305 119.218 4.58317 139.707C3.62945 180.079 3.39102 223.116 1.26898 243.584C1.84122 210.096 3.08106 175.315 4.58317 139.707C5.13156 116.554 5.91838 94.2282 7.42049 77.4537C8.37421 56.9245 9.35178 36.1733 10.3055 15.3817V9.79021L9.75711 13.8274L9.23256 19.1565C8.89876 22.7294 8.56496 26.3427 8.23115 29.9762C7.61123 37.2634 7.06284 44.712 6.56214 52.3625C5.56073 67.6433 4.75007 83.7315 4.17784 100.97C4.68649 84.5793 5.18719 68.3767 5.67995 52.3625C6.1727 36.3483 6.79262 20.3811 7.5397 4.4611L70.7953 6.4797C156.63 5.79338 241.035 4.4611 325.534 3.95645L167.693 1.71581L88.3199 0.666138L48.2159 0.30279L2.15118 0C2.15118 22.4468 1.93659 45.3579 1.81738 68.6324C0.887497 92.4519 1.29283 118.128 1.67432 143.765C3.1049 179.252 -1.11532 215.183 0.29142 250.75L0.482164 258.825C0.482164 262.297 0.601379 265.809 0.672909 269.322L68.5541 268.171C88.9478 267.915 109.421 267.72 129.974 267.586C171.079 267.343 212.542 267.343 254.077 267.586C337.122 268.11 420.549 269.604 502.402 271.926C530.537 272.713 565.228 270.129 599.92 267.545C607.152 267.089 614.328 266.137 621.379 264.699C563.703 264.356 508.554 263.104 453.452 261.772C398.423 262.23 343.345 262.465 288.22 262.479Z" fill="#7BA6F1"/>
<path opacity="0.9" d="M301 258.502C353.073 259.229 403.191 260.52 453.333 261.732C512.575 261.207 571.809 260.339 631.035 259.128C630.272 257.836 627.029 256.786 621.808 256.241C602.447 250.952 549.611 257.795 509.889 257.856C423.338 258.017 334.141 256.847 246.161 256.281L205.198 256.564C237.1 257.432 269.217 258.179 301 258.502Z" fill="#7BA6F1"/>
<path opacity="0.9" d="M621.26 264.659C629.105 262.882 632.133 260.823 631.036 259.128C571.778 260.379 512.544 261.247 453.334 261.732C508.435 263.064 563.584 264.315 621.26 264.659Z" fill="#7BA6F1"/>
<path opacity="0.9" d="M189.248 256.059H146.569L143.517 256.403L152.839 256.665L137.246 256.948L205.199 256.504L189.248 256.059Z" fill="#0D3FD2"/>
<path opacity="0.9" d="M105.772 11.3079L108.561 11.2033H105.581C105.581 11.2033 105.748 11.2661 105.772 11.3079Z" fill="#0D3FD2"/>
<path opacity="0.9" d="M88.1073 11.6675H90.0147C89.6957 11.3818 89.3045 11.161 88.8703 11.0216L78.3555 10.9005C81.5504 11.0418 84.8169 11.3445 88.1073 11.6675Z" fill="#0D3FD2"/>
<path opacity="0.9" d="M296.877 263.145L288.222 262.479H246.306C263.123 262.761 279.98 262.983 296.877 263.145Z" fill="#0D3FD2"/>
<path opacity="0.9" d="M14.5275 48.6483C14.1301 69.3591 13.8599 90.0498 13.7168 110.72C13.7168 134.688 13.7168 158.682 13.7168 182.704C13.844 196.08 13.9552 209.47 14.0506 222.874L14.2652 243.06L14.3844 253.153V257.412H17.5317H25.4237L43.2822 257.23L37.7267 256.988C31.4083 257.149 24.9469 257.271 18.4139 257.351L24.1839 256.927L18.6046 256.766H15.5766C15.5766 246.895 15.7673 236.762 15.8865 226.487C15.7196 218.11 15.6958 210.439 16.1965 204.787V201.315C16.1011 168.069 16.1011 138.981 15.8627 110.094C15.5527 110.094 15.2428 109.61 14.9566 109.226C15.2428 102.363 15.5527 95.5404 15.8388 88.8386C15.8388 72.6898 15.8388 56.218 16.1249 39.0398C15.5766 36.678 14.5751 45.6002 14.1221 41.0584V39.4637C14.1221 42.6329 14.1221 45.7617 14.1221 48.9511C14.1698 48.83 14.3367 48.6685 14.5275 48.6483Z" fill="#0D3FD2"/>
<path opacity="0.9" d="M57.4917 256.847L49.3374 256.524H45.2364L37.9404 256.746L43.4959 256.988L57.4917 256.847Z" fill="#0D3FD2"/>
<path opacity="0.9" d="M88.8692 9.56814L48.3361 8.51847L28.0218 7.93308L18.0077 7.6101L10.8548 7.30731L10.5448 12.0712L10.3779 18.3692C10.3779 22.4064 10.3779 26.262 10.3779 30.2588V56.8034C11.4032 52.5038 12.6192 49.819 14.0498 48.951C14.0498 45.7616 14.0498 42.6328 14.0498 39.4636C14.0498 36.2944 14.0498 33.7308 14.0498 31.5103C14.0498 23.1937 14.169 11.1628 14.2405 10.2948L70.9393 10.7995C73.401 10.6796 75.8689 10.6796 78.3306 10.7995L88.8454 10.9206C87.6294 10.4563 86.4611 9.89112 88.8692 9.56814Z" fill="#0D3FD2"/>
<path opacity="0.9" d="M327.634 3.95648C242.371 4.44095 157.275 5.75304 70.6772 6.49992L165.549 9.99209H172.702L169.531 10.093L178.352 10.4362C179.521 10.0325 180.021 9.56819 179.592 9.00298C187.89 9.83061 208.8 9.22503 205.486 10.9005C205.153 11.0519 204.789 11.1478 204.413 11.1831H221.818C229.497 10.2736 237.24 9.80828 244.994 9.79023L248.427 9.89116C252.361 9.89116 256.605 10.0123 261.255 10.2343C264.545 8.5387 246.949 7.44866 252.671 7.02475C279.399 5.93471 286.195 8.17536 284.001 10.638C325.392 9.79023 365.806 8.09461 404.742 5.24839L327.634 3.95648Z" fill="#3D6FEE"/>
<path opacity="0.9" d="M528.558 5.14744H529.751H527.128C498.135 5.57135 469.285 5.7934 440.673 5.67228L404.908 5.14744C365.973 7.99367 325.559 9.68929 284.167 10.5371C284.11 10.6025 284.047 10.6633 283.977 10.7188C314.615 11.5262 343.584 12.0914 378.467 12.2327C399.425 11.6272 429.348 10.3958 448.088 10.9206C480.92 11.8492 508.435 11.9501 536.141 11.3244C549.993 11.0014 563.894 10.4967 578.534 9.8306L601.137 8.70018L624.98 7.30735H631.751C631.751 27.0493 631.894 46.2259 631.966 64.9787C632.109 84.5793 632.323 103.776 632.657 122.751C633.349 160.701 634.565 197.843 636.758 235.793C636.114 200.629 635.876 162.396 635.757 123.215C635.638 84.0343 635.518 43.5008 635.399 4.23907L580.56 4.58224L528.558 5.14744Z" fill="#3D6FEE"/>
<path opacity="0.9" d="M202.457 11.4052L214.879 11.8896L221.77 11.2235H204.46L202.457 11.4052Z" fill="#0D3FD2"/>
<path opacity="0.9" d="M16.4347 16.4112V12.5153C16.3167 12.3274 16.2438 12.1216 16.2201 11.9097C16.7848 11.8861 17.3499 11.9476 17.8891 12.0914H45.094L45.6186 11.8088L48.3128 12.0712H64.8122C65.4164 11.8646 65.9987 11.6147 66.5528 11.3243C68.0039 11.0875 69.4681 10.9124 70.9399 10.7995L14.265 10.2949C14.265 11.1629 14.1219 23.1937 14.0742 31.5103C14.4996 26.4415 15.2879 21.3992 16.4347 16.4112Z" fill="#0D3FD2"/>
<path opacity="0.9" d="M99.2876 9.79016C101.482 9.83702 103.634 10.3065 105.582 11.1628H108.563C115.906 10.9609 123.035 10.6985 129.854 10.3957L99.2876 9.79016Z" fill="#0D3FD2"/>
<path opacity="0.9" d="M196.184 11.8089L210.299 12.2933L214.877 11.8089L202.454 11.3244C200.738 11.5666 198.544 11.6676 196.184 11.8089Z" fill="#0D3FD2"/>
<path opacity="0.9" d="M14.5275 48.6483C14.3367 48.6483 14.1698 48.8299 14.0029 48.951C13.9393 69.5408 13.844 90.1305 13.7168 110.72C13.8599 90.0632 14.1301 69.3725 14.5275 48.6483Z" fill="#0D3FD2"/>
<path opacity="0.9" d="M246.306 262.479H288.223C240.536 259.107 183.313 259.673 137.582 257.069C134.03 257.17 130.072 257.452 126.138 257.755C129.296 257.351 132.481 257.115 135.675 257.049H133.624L71.6323 257.412C128.927 259.592 187.271 261.449 246.306 262.479Z" fill="#0D3FD2"/>
<path opacity="0.9" d="M288.22 262.479L296.875 263.145C279.946 263.01 263.089 262.788 246.304 262.479L127.446 262.216L9.39922 261.732C9.66944 210.204 9.93966 158.225 10.2099 105.795C8.08786 134.721 5.44128 161.811 4.63061 193.846C3.96301 150.87 6.34731 110.276 8.35013 68.5316C8.01633 71.2769 7.70637 74.2846 7.42025 77.4538C6.46653 98.4068 5.51281 119.219 4.58293 139.707C3.79611 173.156 3.48615 208.34 2.19862 231.049C2.19862 236.358 2.03172 241.667 1.93635 247.016C1.93635 254.041 1.81713 261.146 1.74561 268.211H35.2928C44.5757 268.211 54.0016 268.097 63.5706 267.868C69.9367 267.687 78.5202 267.343 86.8653 267.444C93.7798 267.263 101.028 267.182 108.658 267.142C117.599 266.375 132.62 266.677 140.464 266.455C158.108 265.951 175.49 266.455 192.347 267L197.306 266.879C205.603 266.598 213.912 266.807 222.175 267.505L249.117 267.606H255.006L278.563 267.788C281.883 267.477 285.234 267.477 288.554 267.788C361.466 268.454 434.449 269.806 506.241 271.825C534.375 272.612 569.067 270.028 603.759 267.444C611.108 266.998 618.399 266.019 625.551 264.517C566.301 264.215 509.817 262.943 453.333 261.57C398.383 262.162 343.345 262.465 288.22 262.479Z" fill="#3D6FEE"/>
<path opacity="0.9" d="M3.67628 161.851L3.104 161.044C3.104 166.938 3.104 172.853 3.104 178.686C3.26297 173.102 3.45373 167.49 3.67628 161.851Z" fill="#0D3FD2"/>
<path opacity="0.9" d="M71.584 257.392L133.576 257.028C124.587 257.028 114.955 256.746 106.419 256.342L57.5166 256.847L71.584 257.392Z" fill="#0D3FD2"/>
<path opacity="0.9" d="M7.42025 77.4537C8.37397 56.9246 9.35154 36.1734 10.3053 15.3818V9.79028L9.75687 13.8275L9.23232 19.1566C8.89852 22.7295 8.56472 26.3428 8.23091 29.9763C7.61099 37.2634 7.0626 44.7121 6.5619 52.3625C5.56049 67.6433 4.74983 83.7316 4.1776 100.97C4.68625 84.5794 5.18695 68.3768 5.67971 52.3625C6.17247 36.3483 6.79238 20.3812 7.53947 4.46117L70.7951 6.47977C157.393 5.79345 242.465 4.46117 327.752 3.93634C253.767 2.80592 180.95 1.71588 106.941 0.807507C103.398 0.822175 99.8919 1.41858 96.6171 2.56369C82.3112 1.63513 67.6239 1.1103 52.7936 0.807507C45.3784 0.666205 37.9155 0.58546 30.4049 0.524902H2.74701C2.89007 18.6923 3.00929 36.8597 3.15235 55.128C3.15235 72.0237 3.15235 88.9194 2.4609 105.734C1.88866 107.914 1.96019 102.464 1.74561 100.284C1.74561 107.41 1.74561 114.414 1.74561 121.56C2.53243 133.127 3.74842 145.178 3.72458 159.712C3.98685 153.091 4.27297 146.449 4.53524 139.728C5.13132 116.554 5.91814 94.2283 7.42025 77.4537Z" fill="#7BA6F1"/>
<path opacity="0.9" d="M4.17725 100.97C4.84485 83.7315 5.65551 67.6433 6.56155 52.3625C7.06225 44.712 7.61064 37.2634 8.23056 29.9762C8.56437 26.3428 8.89817 22.7295 9.23197 19.1565L9.73268 13.8274L10.2811 9.79024V6.86327L70.6993 6.49992L7.44374 4.48132C6.85561 20.2802 6.22775 36.2406 5.56014 52.3625C4.89254 68.4844 4.43157 84.687 4.17725 100.97Z" fill="#0D3FD2"/>
<path opacity="0.9" d="M4.58288 139.707C4.3206 146.429 4.03449 153.07 3.77221 159.691V161.932C3.56557 167.571 3.35893 173.182 3.15229 178.767C3.00924 196.41 2.62775 213.709 2.29395 231.13C3.4861 208.32 3.79606 173.156 4.58288 139.707Z" fill="#0D3FD2"/>
<path opacity="0.9" d="M189.247 256.059L205.198 256.524L236.337 256.302H235.86L189.247 256.059Z" fill="#0D3FD2"/>
<path opacity="0.9" d="M453.334 261.732C513.832 261.207 574.33 260.312 634.828 259.047C633.802 257.836 630.679 256.867 625.696 256.362C617.565 254.142 603.498 254.061 586.975 254.707C586.975 255.212 606.55 254.707 595.224 255.494C582.897 256.789 570.466 257.234 558.053 256.826L551.138 256.625L548.23 256.786C547.45 257.112 546.602 257.304 545.734 257.349C544.866 257.394 543.996 257.292 543.175 257.049C533.065 257.553 478.608 256.16 469.261 256.181L513.204 257.957L505.622 258.32L506.361 257.957H498.112C494.961 258.967 491.632 259.52 488.264 259.592L497.635 259.854C490.768 260.864 476.701 260.46 467.33 260.198C469.5 259.087 478.894 259.33 483.567 259.471L478.799 259.33C483.567 259.471 493.963 259.168 490.339 258.482C485.285 258.13 480.205 258.13 475.151 258.482C474.03 258.482 472.766 258.482 471.55 258.482H475.151C477.058 258.482 478.441 258.199 478.441 257.957H464.469C463.754 258.058 462.943 258.159 462.085 258.219L465.804 258.441L461.036 258.32H462.013C452.023 257.937 448.423 259.309 439.029 259.572C444.441 259.168 437.479 258.421 441.413 257.957H438.194C433.425 258.239 428.323 258.32 423.03 258.3C416.378 258.724 410.035 259.33 403.955 259.774C403.121 258.744 407.27 258.421 412.277 258.159L396.397 257.694C392.701 258.462 393.298 258.986 380.494 259.107C381.424 258.643 381.734 258.038 383.093 257.594L354.481 257.351L348.878 257.634C347.023 258.132 345.061 258.277 343.132 258.058C344.992 257.896 346.947 257.755 348.878 257.634L336.027 257.21L287.911 256.665C288.219 256.771 288.539 256.852 288.865 256.907L290.582 257.028C290.007 257.02 289.433 256.98 288.865 256.907C281.712 256.443 278.398 257.836 270.744 257.069L275.513 257.21C264.89 256.739 254.242 256.847 243.635 257.533C262.805 257.964 281.927 258.287 301.001 258.502C353.074 259.229 403.192 260.52 453.334 261.732Z" fill="#3D6FEE"/>
<path opacity="0.9" d="M235.05 257.331L241.607 256.847L236.337 256.342L205.198 256.564L235.05 257.331Z" fill="#0D3FD2"/>
<path opacity="0.9" d="M137.246 257.008H137.866C139.44 257.008 140.966 257.008 142.372 257.008H137.699C183.43 259.612 240.749 259.027 288.339 262.418C343.48 262.418 398.518 262.169 453.452 261.671C403.382 260.46 353.312 259.168 301.119 258.441C282.045 258.239 262.923 257.916 243.753 257.472C239.199 257.654 234.669 257.775 230.162 257.654L235.169 257.27L205.318 256.503L137.246 257.008Z" fill="#0D3FD2"/>
<path opacity="0.9" d="M625.552 264.679C633.42 262.862 636.234 260.642 634.827 259.047C574.266 260.393 513.768 261.288 453.334 261.732C509.818 263.104 566.302 264.376 625.552 264.679Z" fill="#3D6FEE"/>
<path opacity="0.9" d="M10.5921 7.7716V12.152L10.9021 7.38806L18.055 7.69085L28.0214 8.01383L48.3118 8.59922L88.845 9.6489L89.6556 9.54796C92.84 9.49661 96.0251 9.61122 99.1929 9.89113L129.76 10.5169L135.315 10.1737C139.392 10.0526 143.708 10.0324 148.166 10.1737C153.603 10.093 159.397 10.093 165.548 10.1737L70.6766 6.49988L10.2583 6.86323V9.7902L10.5921 7.7716Z" fill="#7BA6F1"/>
<path opacity="0.9" d="M10.3057 18.3693L10.4734 12.0712L10.3057 15.3817V18.3693Z" fill="#0D3FD2"/>
<path opacity="0.9" d="M4.6311 193.846C5.37023 161.811 8.08834 134.721 10.2104 105.795C10.2104 89.4979 10.2501 73.1675 10.3296 56.8033C9.56661 59.9524 8.92285 63.9088 8.35061 68.5314C6.3478 110.276 3.96349 150.87 4.6311 193.846Z" fill="#0D3FD2"/>
<path opacity="0.9" d="M12.2616 70.5906C12.5001 101.374 11.8563 133.894 11.0933 166.535C10.7357 182.845 10.378 199.196 10.0204 215.365C9.87733 223.439 9.74222 231.466 9.61506 239.446C9.61506 246.956 9.55148 254.357 9.42432 261.651H32.0275C40.0149 261.651 47.8831 261.51 55.6321 261.389C71.1063 261.126 86.0797 260.662 100.338 259.976C86.032 259.027 70.2717 258.219 54.2492 257.473L14.1452 257.695C14.0499 232.704 13.9068 207.734 13.7161 182.784C13.7161 158.803 13.7161 134.782 13.7161 110.72C13.7161 90.0902 13.7876 69.4736 13.9307 48.8704C12.5001 49.7384 11.2841 52.4232 10.2588 56.7228C10.2588 73.1004 10.2191 89.4308 10.1396 105.714C11.0456 94.5715 11.7848 82.8838 12.2616 70.5906Z" fill="#3D6FEE"/>
<path opacity="0.9" d="M43.496 256.988L25.6376 257.17H17.7456H14.5983V252.91L14.4791 242.817L14.2645 222.631C14.1532 209.174 14.0419 195.784 13.9307 182.461C14.0578 207.411 14.1691 232.388 14.2645 257.392L54.2492 257.493L43.496 256.988Z" fill="#7BA6F1"/>
<path opacity="0.9" d="M106.393 256.342L49.4561 256.524L57.6104 256.847L106.393 256.342Z" fill="#0D3FD2"/>
<path opacity="0.9" d="M4.58154 139.707C5.51142 119.219 6.46514 98.4068 7.41886 77.4537C5.91675 94.2283 5.12993 116.554 4.58154 139.707Z" fill="#3D6FEE"/>
<path opacity="0.9" d="M71.5827 257.392L57.4915 256.847L43.4956 256.988L54.2488 257.493L71.5827 257.392Z" fill="#0D3FD2"/>
<path opacity="0.9" d="M164.404 10.4765L176.326 10.9609C176.978 10.8493 177.616 10.6871 178.233 10.4765L169.411 10.1333C167.289 10.2342 165.692 10.3553 164.404 10.4765Z" fill="#0D3FD2"/>
<path opacity="0.9" d="M10.2822 9.79022V15.4019L10.45 12.0914V7.71106L10.2822 9.79022Z" fill="#0D3FD2"/>
<path opacity="0.9" d="M7.42139 77.4537C7.7075 74.2845 8.01746 71.2768 8.35127 68.5315C9.13809 52.0799 9.85338 35.4265 10.3064 18.3693V15.3818C9.35267 36.1734 8.37511 56.9246 7.42139 77.4537Z" fill="#0D3FD2"/>
<path opacity="0.9" d="M8.34961 68.5315C8.92184 63.9089 9.5656 59.9524 10.3286 56.8034V30.2588C10.3286 26.2216 10.3286 22.3257 10.3286 18.3693C9.85172 35.4264 9.13643 52.1808 8.34961 68.5315Z" fill="#7BA6F1"/>
<path opacity="0.9" d="M100.337 260.097C86.0315 260.783 71.1057 261.247 55.6316 261.51C47.8826 261.631 40.0144 261.732 32.027 261.772H9.42375C9.42375 254.438 9.48733 247.036 9.61449 239.567C9.75755 231.601 9.89266 223.573 10.0198 215.486C10.3775 199.337 10.7351 182.966 11.0928 166.656C11.8557 134.015 12.4995 101.495 12.2611 70.7115C11.7842 83.0048 11.0451 94.5916 10.2106 105.916C9.95624 158.319 9.68602 210.298 9.3999 261.853L127.447 262.337L246.304 262.6C187.269 261.57 128.925 259.713 71.5826 257.513L54.2487 257.614C70.2712 258.239 85.9122 259.047 100.337 260.097Z" fill="#0D3FD2"/>
</g>
</g>
<path d="M644.365 16.8553H17.2925V275.236H644.365V16.8553Z" fill="white"/>
<g opacity="0.85">
<g opacity="0.9">
<path opacity="0.9" d="M643.766 211.448C643.194 216.071 642.55 220.027 641.787 223.176V249.721C641.787 253.758 641.787 257.654 641.787 261.611C642.264 244.553 642.979 227.9 643.766 211.448Z" fill="#7BA6F1"/>
<path opacity="0.9" d="M650.849 36.3953C648.727 56.8639 648.465 99.8601 647.535 140.272C649.037 104.664 650.325 69.8839 650.849 36.3953Z" fill="#7BA6F1"/>
<path opacity="0.9" d="M515.326 22.9717C519.642 23.214 523.838 23.4966 527.915 23.7994L594.676 23.1332L580.585 22.5882L515.326 22.9717Z" fill="#7BA6F1"/>
<path opacity="0.9" d="M639.857 209.389C639.619 178.606 640.263 146.086 641.026 113.445C641.383 97.1351 641.741 80.7844 642.099 64.6154C642.242 56.541 642.377 48.5137 642.504 40.5335C642.504 33.0243 642.568 25.6228 642.695 18.3289H620.092C612.104 18.3289 604.236 18.4702 596.487 18.5913C581.013 18.8538 566.039 19.318 551.781 20.0044C566.206 20.9531 581.847 21.7605 597.87 22.5074L637.974 22.2854C638.069 47.3026 638.18 72.2794 638.308 97.2158C638.371 121.183 638.403 145.198 638.403 169.26C638.403 189.89 638.332 210.506 638.188 231.11C639.619 230.242 640.835 227.557 641.86 223.257C641.86 206.88 641.9 190.549 641.979 174.266C641.073 185.509 640.334 197.096 639.857 209.389Z" fill="#7BA6F1"/>
<path opacity="0.9" d="M608.622 22.9918L626.481 22.8102H634.373H637.52L637.639 27.0694L637.759 37.1624L637.973 57.3484C638.084 70.8057 638.196 84.1958 638.307 97.5185C638.196 72.5687 638.084 47.5918 637.973 22.5881L597.869 22.4872L608.622 22.9918Z" fill="#7BA6F1"/>
<path opacity="0.9" d="M647.486 86.1337C646.746 118.169 644.028 145.258 641.906 174.185C641.906 190.482 641.867 206.812 641.787 223.176C642.55 220.027 643.194 216.071 643.766 211.448C645.769 169.704 648.153 129.11 647.486 86.1337Z" fill="#7BA6F1"/>
<path opacity="0.9" d="M647.536 140.272C646.607 160.761 645.653 181.573 644.699 202.526C646.201 185.752 646.988 163.426 647.536 140.272Z" fill="#7BA6F1"/>
<path opacity="0.9" d="M638.402 169.26C638.516 145.279 638.516 121.284 638.402 97.2764C638.402 121.217 638.402 145.211 638.402 169.26Z" fill="#7BA6F1"/>
<path opacity="0.9" d="M446.919 23.4158L466.733 23.9205H504.5H514.252L527.985 23.7792C523.908 23.4764 519.712 23.1938 515.396 22.9515L446.919 23.4158Z" fill="#7BA6F1"/>
<path opacity="0.9" d="M355.244 16.8351L363.899 17.5012H405.815C389.014 17.2186 372.157 16.9966 355.244 16.8351Z" fill="#7BA6F1"/>
<path opacity="0.9" d="M637.593 231.332C637.784 231.332 637.95 231.15 638.117 231.029C638.117 210.439 638.189 189.822 638.332 169.179C638.237 189.89 637.99 210.607 637.593 231.332Z" fill="#7BA6F1"/>
<path opacity="0.9" d="M363.899 17.5013C308.758 17.5013 253.721 17.7502 198.786 18.2482C248.857 19.4593 298.927 20.7512 351.119 21.4779C382.902 21.8009 415.019 22.5478 446.921 23.4965L515.326 23.0524C469.476 20.3071 411.728 20.8925 363.899 17.5013Z" fill="#7BA6F1"/>
<path opacity="0.9" d="M580.535 22.5881L597.869 22.4871C581.847 21.7402 566.206 20.9328 551.781 19.9841C566.086 19.2977 581.012 18.8335 596.486 18.571C604.235 18.4499 612.104 18.349 620.091 18.3086H642.694C642.694 25.6294 642.631 33.0309 642.503 40.5132C642.36 48.4934 642.225 56.5207 642.098 64.5951C641.74 80.7439 641.383 97.1148 641.025 113.425C640.262 146.066 639.618 178.585 639.857 209.369C640.334 197.076 641.073 185.489 641.907 174.165C642.162 121.762 642.432 69.7829 642.718 18.2279L524.671 17.8645L405.813 17.6021C464.849 18.5307 523.193 20.3878 580.535 22.5881Z" fill="#7BA6F1"/>
<path opacity="0.9" d="M515.328 22.9717L580.538 22.5882C523.315 20.3879 464.852 18.551 405.816 17.5013H363.9C411.73 20.8925 469.477 20.3071 515.328 22.9717Z" fill="#7BA6F1"/>
<path opacity="0.9" d="M580.536 22.5881L594.627 23.1331L608.623 22.9918L597.87 22.4872L580.536 22.5881Z" fill="#7BA6F1"/>
<path opacity="0.9" d="M641.644 267.909L641.811 261.611C641.811 257.573 641.811 253.718 641.811 249.721V223.176C640.785 227.476 639.57 230.161 638.139 231.029C638.139 238.437 638.139 245.845 637.996 253.233V264.275V269.705L538.117 268.716C531.155 268.918 524.416 269.174 517.898 269.483C538.96 269.846 560.069 270.304 581.226 270.856L612.913 271.744L628.745 272.208C634.753 272.37 637.352 272.531 641.525 272.693L641.644 267.909Z" fill="#7BA6F1"/>
<path opacity="0.9" d="M594.627 23.1331L605.523 23.557H621.212L608.623 22.9918L594.627 23.1331Z" fill="#7BA6F1"/>
<path opacity="0.9" d="M527.914 23.7993H528.558L605.523 23.4965L594.627 23.0726L527.914 23.7993Z" fill="#7BA6F1"/>
<path opacity="0.9" d="M637.594 231.332C637.991 210.621 638.237 189.903 638.333 169.179C638.333 145.225 638.333 121.23 638.333 97.1956C638.221 83.8191 638.11 70.429 637.999 57.0255L637.784 36.9404L637.665 26.8474L637.546 22.5882H634.399H626.507L608.648 22.7699L621.237 23.3351H636.425C636.425 31.6921 636.354 40.1769 636.211 48.7896C636.068 59.6766 635.917 70.7385 635.758 81.9754C635.925 149.215 636.711 200.528 635.567 265.89V267.505H592.888C574.576 267.505 555.693 267.828 538.049 268.353L637.927 269.342V263.912V252.87C637.927 245.502 637.927 238.094 638.07 230.665C637.951 231.15 637.784 231.311 637.594 231.332Z" fill="#7BA6F1"/>
<path opacity="0.9" d="M326.703 276.003C411.203 275.519 495.607 274.166 581.442 273.48L455.408 268.797H425.223C417.932 269.681 410.58 270.153 403.216 270.21L372.577 269.362C329.803 270.169 287.982 271.865 247.807 274.792L326.703 276.003Z" fill="#7BA6F1"/>
<path opacity="0.9" d="M471.501 268.898C460.82 268.433 449.613 267.929 438.121 267.606L433.877 267.949L455.622 268.797L471.501 268.898Z" fill="#7BA6F1"/>
<path opacity="0.9" d="M207.583 274.227L247.806 274.812C287.982 271.885 329.802 270.19 372.577 269.382C338.767 268.474 307.748 267.808 269.813 267.666C248.855 268.252 240.057 272.753 221.341 272.228C190.345 271.36 155.581 270.028 120.437 269.301C102.864 268.938 85.1967 268.736 67.9821 268.797C59.327 268.797 50.7436 268.918 42.3031 269.12L29.7378 269.463H28.1642H27.4727L26.3044 269.584L23.7055 269.846L23.2525 268.171L23.0618 267.162V266.617C23.0618 266.516 23.0618 266.475 23.0618 266.314V265.708C20.8682 186.276 19.4138 83.8728 14.6929 16.8553C15.3605 64.9585 16.0042 110.135 16.6003 152.99C17.1964 195.845 17.6017 235.914 18.0786 274.57L114.524 274.227C146.092 274.045 176.969 274.065 207.583 274.227Z" fill="#7BA6F1"/>
<path opacity="0.9" d="M433.661 267.949L425.221 268.776H455.406L433.661 267.949Z" fill="#7BA6F1"/>
<path opacity="0.9" d="M446.919 23.4158L405.957 23.6984L466.733 23.9204L446.919 23.4158Z" fill="#7BA6F1"/>
<path opacity="0.9" d="M641.838 270.19V264.578L641.671 267.888L641.551 272.269L641.838 270.19Z" fill="#7BA6F1"/>
<path opacity="0.9" d="M648.06 179.009C647.392 196.248 646.581 212.336 645.675 227.617C645.175 235.268 644.626 242.716 644.006 250.004C643.673 253.637 643.339 257.25 643.005 260.823L642.48 266.152C642.313 267.505 642.123 268.857 641.932 270.19C641.932 271.158 641.932 272.208 641.932 273.096L581.514 273.46L644.769 275.478C645.389 259.679 646.009 243.712 646.629 227.577C647.249 211.442 647.726 195.252 648.06 179.009Z" fill="#7BA6F1"/>
<path opacity="0.9" d="M641.526 272.208L641.645 267.828L641.335 272.592C637.162 272.43 634.563 272.269 628.555 272.107L612.723 271.643L581.036 270.755C559.879 270.217 538.77 269.759 517.709 269.382L512.94 269.624C500.637 269.968 486.594 269.463 471.406 268.817L455.431 268.716L581.465 273.399L641.883 273.036C641.883 272.067 641.883 271.017 641.883 270.129L641.526 272.208Z" fill="#7BA6F1"/>
<path opacity="0.9" d="M644.698 202.526C644.411 205.695 644.101 208.703 643.768 211.448C642.981 227.9 642.266 244.553 641.812 261.611V264.598C642.766 243.806 643.744 223.055 644.698 202.526Z" fill="#7BA6F1"/>
<path opacity="0.9" d="M641.812 261.61L641.645 267.908L641.812 264.598V261.61Z" fill="#7BA6F1"/>
<path opacity="0.9" d="M363.899 17.5012L355.244 16.8351C372.173 16.9831 389.03 17.2052 405.815 17.5012L524.673 17.8646L642.72 18.349C642.449 69.8906 642.179 121.87 641.909 174.286C644.031 145.359 646.678 118.27 647.488 86.2346C648.156 129.211 645.772 169.805 643.769 211.549C644.103 208.804 644.413 205.796 644.699 202.627C645.652 181.674 646.606 160.862 647.536 140.373C648.49 100.001 648.728 56.9649 650.85 36.4963C650.278 69.9848 649.038 104.765 647.536 140.373C646.988 163.527 646.201 185.852 644.699 202.627C643.745 223.156 642.767 243.907 641.814 264.699V270.19C642.004 268.837 642.195 267.485 642.362 266.152L642.887 260.823C643.22 257.25 643.554 253.637 643.888 250.004C644.508 242.716 645.056 235.268 645.557 227.617C646.558 212.337 647.369 196.248 647.941 179.009C647.433 195.4 646.932 211.603 646.439 227.617C645.946 243.632 645.327 259.599 644.58 275.519L581.324 273.5C495.489 274.186 411.085 275.519 326.585 276.023L484.307 278.385L563.68 279.334L603.784 279.697L649.849 280C649.849 257.553 650.063 234.642 650.183 211.368C651.112 187.548 650.707 161.872 650.326 136.235C648.895 100.748 653.115 64.8172 651.709 29.3504C651.709 26.6657 651.565 23.9809 651.518 21.276C651.518 17.804 651.399 14.2917 651.327 10.7793L583.565 11.8088C563.171 12.0779 542.698 12.2731 522.145 12.3942C481.04 12.6364 439.577 12.6364 398.042 12.3942C314.997 11.8693 231.57 10.3756 149.717 8.05419C121.582 7.26693 86.8907 9.85074 52.1991 12.4346C44.9671 12.8908 37.7907 13.8427 30.7403 15.2808C88.4167 15.6239 143.566 16.8755 198.667 18.2077C253.713 17.7502 308.79 17.5147 363.899 17.5012Z" fill="#7BA6F1"/>
<path opacity="0.9" d="M351.118 21.4778C299.045 20.7511 248.927 19.4592 198.785 18.248C139.527 18.7729 80.2932 19.6409 21.083 20.852C21.846 22.1439 25.0886 23.1936 30.3103 23.7386C49.6708 29.0274 102.507 22.1843 142.23 22.1238C228.78 21.9623 317.977 23.1331 405.957 23.6983L446.92 23.4157C415.018 22.5477 382.901 21.9017 351.118 21.4778Z" fill="#7BA6F1"/>
<path opacity="0.9" d="M30.8585 15.3212C23.0141 17.0975 19.9861 19.1565 21.0828 20.8521C80.3249 19.6006 139.559 18.7326 198.785 18.2481C143.684 16.9159 88.5348 15.6643 30.8585 15.3212Z" fill="#7BA6F1"/>
<path opacity="0.9" d="M638.402 169.26C638.516 145.279 638.516 121.284 638.402 97.2764C638.402 121.217 638.402 145.211 638.402 169.26Z" fill="#0D3FD2"/>
<path opacity="0.9" d="M462.87 23.9204H505.549L508.601 23.5773L499.278 23.3148L514.872 23.0322L446.919 23.4763L462.87 23.9204Z" fill="#0D3FD2"/>
<path opacity="0.9" d="M546.343 268.676L543.554 268.78H546.534C546.534 268.78 546.367 268.718 546.343 268.676Z" fill="#0D3FD2"/>
<path opacity="0.9" d="M564.013 268.312H562.105C562.424 268.598 562.816 268.819 563.25 268.958L573.765 269.079C570.57 268.938 567.303 268.635 564.013 268.312Z" fill="#0D3FD2"/>
<path opacity="0.9" d="M355.244 16.8351L363.899 17.5012H405.815C389.014 17.2186 372.157 16.9966 355.244 16.8351Z" fill="#0D3FD2"/>
<path opacity="0.9" d="M637.592 231.332C637.989 210.621 638.236 189.903 638.331 169.179C638.331 145.225 638.331 121.23 638.331 97.1956C638.22 83.8191 638.109 70.429 637.997 57.0255L637.783 36.9404L637.663 26.8474L637.544 22.5882H634.397H626.505L608.646 22.7699L614.202 23.0121C620.52 22.8506 626.982 22.7295 633.515 22.6488L627.745 23.0727L633.324 23.2341H636.567C636.567 33.1051 636.376 43.2385 636.257 53.5131C636.424 61.8903 636.448 69.6619 635.947 75.2131C635.947 76.3839 635.947 77.5345 635.947 78.6851C636.09 111.649 636.209 140.777 636.328 169.623C636.638 169.623 636.948 170.107 637.234 170.491C636.948 177.354 636.638 184.177 636.352 190.879C636.352 207.028 636.352 223.499 636.066 240.678C636.614 243.039 637.616 234.117 638.069 238.659V240.254C638.069 237.085 638.069 233.956 638.069 230.766C637.95 231.15 637.783 231.311 637.592 231.332Z" fill="#0D3FD2"/>
<path opacity="0.9" d="M594.627 23.1331L602.781 23.4561H606.882L614.178 23.2341L608.623 22.9918L594.627 23.1331Z" fill="#0D3FD2"/>
<path opacity="0.9" d="M563.25 270.412L603.783 271.461L624.074 272.047L634.04 272.37L641.193 272.672C641.193 271.078 641.407 269.483 641.503 267.909L641.67 261.611C641.67 257.573 641.67 253.718 641.67 249.721V223.176C640.645 227.476 639.428 230.161 637.998 231.029C637.998 234.218 637.998 237.347 637.998 240.516C637.998 243.685 637.998 246.249 637.998 248.469C637.998 256.786 637.879 268.817 637.807 269.685L581.18 269.18C578.718 269.3 576.25 269.3 573.789 269.18L563.274 269.059C564.49 269.523 565.658 270.19 563.25 270.412Z" fill="#0D3FD2"/>
<path opacity="0.9" d="M324.487 276.023C409.749 275.539 494.845 274.166 581.443 273.48L486.572 269.988H479.419H482.59L473.768 269.645C472.6 270.048 472.099 270.513 472.528 271.078C464.231 270.25 443.32 270.856 446.635 269.18C446.968 269.029 447.332 268.933 447.707 268.898H430.302C422.603 269.857 414.836 270.37 407.055 270.432L403.622 270.331C399.688 270.331 395.443 270.21 390.794 269.988C387.504 271.683 405.1 272.773 399.378 273.197C372.65 274.287 365.854 272.047 368.048 269.584C326.656 270.432 286.242 272.127 247.307 274.974L324.487 276.023Z" fill="#3D6FEE"/>
<path opacity="0.9" d="M123.559 274.832H122.367H124.99C153.983 274.408 182.833 274.186 211.444 274.307L247.209 274.832C286.145 271.986 326.559 270.29 367.95 269.443C368.007 269.377 368.071 269.316 368.141 269.261C337.503 268.453 308.533 267.888 273.651 267.747C252.693 268.353 222.77 269.584 204.029 269.059C171.197 268.131 143.682 268.03 115.977 268.655C102.124 268.978 88.2235 269.483 73.5839 270.149L50.9807 271.28L27.1377 272.672H20.3186C20.3186 252.93 20.1755 233.754 20.104 215.001C19.9609 195.4 19.7463 176.204 19.4125 157.229C18.7211 119.279 17.5051 82.1368 15.3115 44.1871C15.9553 79.3511 16.1937 117.583 16.3129 156.764C16.4321 195.945 16.5514 236.479 16.6706 275.741L71.5096 275.397L123.559 274.832Z" fill="#3D6FEE"/>
<path opacity="0.9" d="M449.662 268.575L437.24 268.09L430.35 268.756H447.66L449.662 268.575Z" fill="#0D3FD2"/>
<path opacity="0.9" d="M635.685 263.569V267.464C635.803 267.652 635.876 267.858 635.899 268.07C635.335 268.094 634.77 268.032 634.23 267.888H607.025L606.501 268.171L603.807 267.909L587.307 268.009C586.703 268.216 586.121 268.466 585.567 268.756C584.097 268.954 582.617 269.089 581.132 269.16L637.807 269.665C637.807 268.797 637.95 256.766 637.997 248.449C637.589 253.524 636.816 258.573 635.685 263.569Z" fill="#0D3FD2"/>
<path opacity="0.9" d="M552.83 270.19C550.636 270.143 548.484 269.673 546.536 268.817H543.556C536.212 269.019 529.083 269.281 522.264 269.584L552.83 270.19Z" fill="#0D3FD2"/>
<path opacity="0.9" d="M455.931 268.171L441.816 267.687L437.238 268.07L449.66 268.555C451.377 268.413 453.571 268.312 455.931 268.171Z" fill="#0D3FD2"/>
<path opacity="0.9" d="M637.593 231.332C637.784 231.332 637.95 231.15 638.117 231.029C638.117 210.439 638.189 189.822 638.332 169.179C638.237 189.89 637.99 210.607 637.593 231.332Z" fill="#0D3FD2"/>
<path opacity="0.9" d="M405.816 17.5013H363.9C411.586 20.8723 468.81 20.3071 514.541 22.9111C518.093 22.8102 522.051 22.5276 525.985 22.2248C522.827 22.6291 519.642 22.8651 516.448 22.9313H518.499L580.491 22.568C523.196 20.3879 464.852 18.5308 405.816 17.5013Z" fill="#0D3FD2"/>
<path opacity="0.9" d="M363.898 17.5014L355.243 16.8353C372.171 16.9833 389.028 17.2053 405.814 17.5014L524.671 17.8647L642.718 18.3492C642.448 69.8908 642.178 121.87 641.908 174.286C644.03 145.359 646.676 118.27 647.487 86.2347C648.154 129.211 645.77 169.805 643.767 211.549C644.101 208.804 644.411 205.796 644.697 202.627C645.651 181.674 646.605 160.862 647.535 140.374C648.321 106.925 648.631 71.7412 649.919 49.0319C649.919 43.723 650.086 38.4141 650.181 33.0648C650.181 26.0401 650.3 18.9346 650.372 11.8695H616.944C607.677 11.8695 598.251 11.9839 588.666 12.2127C582.3 12.3943 573.716 12.7375 565.371 12.6366C558.457 12.8183 551.209 12.899 543.579 12.9394C534.638 13.7064 519.617 13.4036 511.772 13.6257C494.128 14.1303 476.747 13.6257 459.89 13.0807L454.93 13.2018C446.634 13.4829 438.324 13.2738 430.062 12.576L403.12 12.4751H397.23L373.673 12.2934C370.353 12.6044 367.003 12.6044 363.683 12.2934C290.771 11.6273 217.788 10.2748 145.996 8.25621C117.861 7.46896 83.1697 10.0528 48.4781 12.6366C41.1284 13.0825 33.8374 14.0617 26.6855 15.5635C85.9355 15.8663 142.42 17.1381 198.904 18.5107C253.791 17.8513 308.788 17.5149 363.898 17.5014Z" fill="#3D6FEE"/>
<path opacity="0.9" d="M648.44 118.129L649.013 118.936C649.013 113.042 649.013 107.127 649.013 101.293C648.854 106.892 648.663 112.503 648.44 118.129Z" fill="#0D3FD2"/>
<path opacity="0.9" d="M580.535 22.5882L518.543 22.9515C527.532 22.9515 537.164 23.2341 545.7 23.6379L594.602 23.1332L580.535 22.5882Z" fill="#0D3FD2"/>
<path opacity="0.9" d="M644.698 202.526C643.744 223.055 642.766 243.806 641.812 264.598V270.19C642.003 268.837 642.194 267.485 642.361 266.152L642.885 260.823C643.219 257.25 643.553 253.637 643.887 250.004C644.507 242.716 645.055 235.268 645.556 227.617C646.557 212.337 647.368 196.248 647.94 179.009C647.431 195.4 646.931 211.603 646.438 227.617C645.945 243.632 645.325 259.599 644.578 275.519L581.323 273.5C494.725 274.186 409.653 275.519 324.366 276.043C398.28 277.194 471.049 278.365 545.057 279.193C548.601 279.178 552.107 278.581 555.381 277.436C569.687 278.365 584.375 278.89 599.205 279.193C606.62 279.334 614.083 279.415 621.594 279.475H649.251C649.108 261.409 648.989 243.14 648.846 224.973C648.846 208.077 648.846 191.182 649.538 174.367C650.11 172.187 650.038 177.637 650.253 179.817C650.253 172.691 650.253 165.687 650.253 158.541C649.466 146.974 648.25 134.923 648.274 120.389C648.012 127.01 647.726 133.651 647.463 140.373C646.986 163.426 646.2 185.752 644.698 202.526Z" fill="#7BA6F1"/>
<path opacity="0.9" d="M648.06 179.009C647.392 196.248 646.581 212.336 645.675 227.617C645.175 235.268 644.626 242.716 644.006 250.004C643.673 253.637 643.339 257.25 643.005 260.823L642.48 266.152C642.313 267.505 642.123 268.857 641.932 270.19C641.932 271.158 641.932 272.208 641.932 273.096L581.514 273.46L644.769 275.478C645.389 259.679 646.009 243.712 646.629 227.577C647.249 211.442 647.726 195.252 648.06 179.009Z" fill="#0D3FD2"/>
<path opacity="0.9" d="M647.535 140.272C647.797 133.55 648.084 126.909 648.346 120.288V118.048C648.568 112.409 648.775 106.797 648.966 101.213C649.109 83.57 649.49 66.2706 649.824 48.85C648.632 71.6602 648.322 106.824 647.535 140.272Z" fill="#0D3FD2"/>
<path opacity="0.9" d="M462.869 23.9205L446.918 23.4562L415.779 23.6782H416.256L462.869 23.9205Z" fill="#0D3FD2"/>
<path opacity="0.9" d="M198.785 18.248C138.287 18.7729 77.7897 19.6678 17.292 20.9328C18.3172 22.1439 21.4407 23.1129 26.4239 23.6175C34.5544 25.838 48.6217 25.9187 65.145 25.2728C65.145 24.7681 45.5698 25.2728 56.8953 24.4855C69.2228 23.1912 81.654 22.7456 94.0666 23.1532L100.981 23.3551L103.89 23.1936C104.669 22.8673 105.518 22.6759 106.386 22.6309C107.254 22.5858 108.124 22.6879 108.945 22.9312C119.054 22.4265 173.512 23.8194 182.858 23.7992L138.915 22.0228L146.497 21.6595L145.758 22.0228H154.008C157.158 21.0128 160.488 20.46 163.855 20.3878L154.389 20.1052C161.256 19.0959 175.324 19.4996 184.694 19.762C182.524 20.8722 173.13 20.63 168.457 20.4887L173.225 20.63C168.457 20.4887 158.061 20.7915 161.685 21.4778C166.74 21.8291 171.819 21.8291 176.873 21.4778C177.994 21.4778 179.258 21.4778 180.474 21.4778H176.873C174.966 21.4778 173.583 21.7604 173.583 22.0026H187.555C188.27 22.0026 189.081 21.8008 189.939 21.7402L186.22 21.5182L190.989 21.6393L190.011 21.7402C200.001 22.1238 203.602 20.7511 212.996 20.4887C207.583 20.8924 214.545 21.6393 210.611 22.1036H213.83C218.599 21.821 223.701 21.7402 228.994 21.7604C235.647 21.3365 241.989 20.7309 248.069 20.2868C248.903 21.3163 244.755 21.6393 239.748 21.9017L255.627 22.366C259.323 21.5989 258.727 21.0741 271.53 20.953C270.6 21.4173 270.291 22.0228 268.931 22.4669L297.543 22.7092L303.146 22.4265C305.001 21.9286 306.964 21.7838 308.892 22.0026C307.033 22.1641 305.078 22.3054 303.146 22.4265L315.998 22.8505L364.256 23.2542C363.948 23.148 363.628 23.0669 363.302 23.0119L361.586 22.8908C362.16 22.8988 362.734 22.9392 363.302 23.0119C370.455 23.4762 373.769 22.0834 381.423 22.8505L376.654 22.7092C387.278 23.1797 397.926 23.0718 408.532 22.3862C389.363 21.9555 370.241 21.6326 351.166 21.4172C299.045 20.7511 248.927 19.4592 198.785 18.248Z" fill="#3D6FEE"/>
<path opacity="0.9" d="M417.067 22.6486L410.51 23.1331L415.779 23.6377L446.918 23.4157L417.067 22.6486Z" fill="#0D3FD2"/>
<path opacity="0.9" d="M514.871 22.9717H514.251C512.677 22.9717 511.151 22.9717 509.745 22.9717H514.513C468.782 20.3677 411.464 20.9531 363.873 17.5618C308.732 17.5618 253.694 17.8108 198.76 18.3087C248.83 19.5199 298.901 20.8118 351.093 21.5385C370.167 21.7403 389.289 22.0633 408.459 22.5074C413.013 22.3257 417.543 22.2046 422.05 22.3257L417.043 22.7093L446.894 23.4763L514.871 22.9717Z" fill="#0D3FD2"/>
<path opacity="0.9" d="M26.5662 15.301C18.698 17.1177 15.8845 19.2372 17.2913 20.9329C77.8526 19.5871 138.35 18.6922 198.785 18.2481C142.3 16.8755 85.8162 15.6038 26.5662 15.301Z" fill="#3D6FEE"/>
<path opacity="0.9" d="M641.527 272.208L641.647 267.828C641.647 269.402 641.432 270.997 641.337 272.592L634.184 272.289L624.217 271.966L603.927 271.381L563.394 270.331H562.583C559.399 270.382 556.214 270.268 553.046 269.988L522.479 269.362L517.019 269.624C512.942 269.746 508.626 269.766 504.168 269.725C498.731 269.806 492.938 269.806 486.786 269.725L581.658 273.218L642.076 272.854C642.076 271.885 642.076 270.836 642.076 269.947L641.527 272.208Z" fill="#7BA6F1"/>
<path opacity="0.9" d="M641.812 261.61L641.645 267.908L641.812 264.598V261.61Z" fill="#0D3FD2"/>
<path opacity="0.9" d="M647.486 86.1337C646.746 118.169 644.028 145.258 641.906 174.185C641.906 190.482 641.867 206.812 641.787 223.176C642.55 220.027 643.194 216.071 643.766 211.448C645.769 169.704 648.153 129.11 647.486 86.1337Z" fill="#0D3FD2"/>
<path opacity="0.9" d="M639.857 209.389C639.619 178.606 640.263 146.086 641.026 113.445C641.383 97.1351 641.741 80.7844 642.099 64.6154C642.242 56.541 642.377 48.5137 642.504 40.5335C642.504 33.0243 642.568 25.6228 642.695 18.3289H620.092C612.104 18.3289 604.236 18.4702 596.487 18.5913C581.013 18.8538 566.039 19.318 551.781 20.0044C566.206 20.9531 581.847 21.7605 597.87 22.5074L637.974 22.2854C638.069 47.3026 638.18 72.2794 638.308 97.2158C638.371 121.183 638.403 145.198 638.403 169.26C638.403 189.89 638.332 210.506 638.188 231.11C639.619 230.242 640.835 227.557 641.86 223.257C641.86 206.88 641.9 190.549 641.979 174.266C641.073 185.509 640.334 197.096 639.857 209.389Z" fill="#3D6FEE"/>
<path opacity="0.9" d="M608.622 22.9918L626.481 22.8102H634.373H637.52L637.639 27.0694L637.759 37.1624L637.973 57.3484C638.084 70.8057 638.196 84.1958 638.307 97.5185C638.196 72.5687 638.084 47.5918 637.973 22.5881L597.869 22.4872L608.622 22.9918Z" fill="#7BA6F1"/>
<path opacity="0.9" d="M545.725 23.6378H545.844L602.781 23.4562L594.627 23.1332L545.725 23.6378Z" fill="#0D3FD2"/>
<path opacity="0.9" d="M647.536 140.272C646.607 160.761 645.653 181.573 644.699 202.526C646.201 185.752 646.988 163.426 647.536 140.272Z" fill="#3D6FEE"/>
<path opacity="0.9" d="M580.536 22.5881L594.627 23.1331L608.623 22.9918L597.87 22.4872L580.536 22.5881Z" fill="#0D3FD2"/>
<path opacity="0.9" d="M487.715 269.503L475.793 269.019C475.141 269.13 474.503 269.293 473.886 269.503L482.708 269.846C484.83 269.746 486.427 269.624 487.715 269.503Z" fill="#0D3FD2"/>
<path opacity="0.9" d="M641.838 270.19V264.578L641.671 267.888L641.551 272.269L641.838 270.19Z" fill="#0D3FD2"/>
<path opacity="0.9" d="M644.698 202.526C644.411 205.695 644.101 208.703 643.768 211.448C642.981 227.9 642.266 244.553 641.812 261.611V264.598C642.766 243.806 643.744 223.055 644.698 202.526Z" fill="#0D3FD2"/>
<path opacity="0.9" d="M643.766 211.448C643.194 216.071 642.55 220.027 641.787 223.176V249.721C641.787 253.758 641.787 257.654 641.787 261.611C642.264 244.553 642.979 227.9 643.766 211.448Z" fill="#7BA6F1"/>
<path opacity="0.9" d="M551.781 19.9841C566.086 19.2977 581.012 18.8335 596.486 18.571C604.235 18.4499 612.104 18.349 620.091 18.3086H642.694C642.694 25.6294 642.631 33.0309 642.503 40.5132C642.36 48.4934 642.225 56.5207 642.098 64.5951C641.74 80.7439 641.383 97.1148 641.025 113.425C640.262 146.066 639.618 178.585 639.857 209.369C640.334 197.076 641.073 185.489 641.907 174.165C642.162 121.762 642.432 69.7829 642.718 18.2279L524.671 17.8645L405.813 17.6021C464.849 18.6316 523.193 20.4887 580.535 22.689L597.869 22.5881C581.847 21.7402 566.206 20.9328 551.781 19.9841Z" fill="#0D3FD2"/>
</g>
</g>
</svg>
