<svg width="133" height="114" viewBox="0 0 133 114" fill="none" xmlns="http://www.w3.org/2000/svg">
<path d="M106.882 75.3426L83.7906 69.7106L76.469 33.1025L20.1488 12.264L26.344 8.32162L42.6769 2.68961L55.0673 1L69.7106 1.5632L85.4802 4.94241L89.4226 7.19522L93.365 8.88482L97.8706 11.7008L105.755 19.5857L109.698 27.4705L110.824 35.3553L111.951 50.5618L110.824 65.7682L109.698 70.2738V75.3426L117.02 77.5954L124.341 80.9746L127.157 83.7907L131.1 89.9859L131.663 95.0547L130.536 101.813L125.468 109.135L120.399 112.514V93.9283L116.456 100.687L110.261 105.756L112.514 91.1123L106.882 75.3426Z" fill="#F5F5F5"/>
<circle cx="13" cy="68" r="8.5" fill="#F5F5F5" stroke="#888888"/>
<circle cx="76.1542" cy="71.1877" r="8.1243" fill="#F5F5F5" stroke="#888888"/>
<circle cx="11" cy="53" r="9.5" fill="#F5F5F5" stroke="#888888"/>
<circle cx="78.6184" cy="56.4032" r="9.35634" fill="#F5F5F5" stroke="#888888"/>
<circle cx="11" cy="35" r="10.5" fill="#F5F5F5" stroke="#888888"/>
<circle cx="79.8504" cy="41.6187" r="10.5884" fill="#F5F5F5" stroke="#888888"/>
<rect x="8.89209" y="12.5497" width="71.6905" height="21.1768" rx="9.5" fill="#F5F5F5" stroke="#888888"/>
<circle cx="69.9941" cy="23.138" r="10.5884" fill="#F5F5F5" stroke="#888888"/>
<path d="M18.8643 12.6658C25.0245 7.73767 43.3819 -1.37944 67.5299 1.57746C97.715 5.27359 104.491 16.3619 108.803 24.9862C113.115 33.6105 112.499 67.4917 108.803 73.0359C105.107 78.5801 112.499 87.2044 112.499 92.1325C112.499 96.0751 110.857 102.81 110.035 105.685C113.526 103.221 120.508 97.0607 120.508 92.1325C120.508 87.2044 120.508 103.632 120.508 112.461C125.641 109.176 134.923 100.018 130.98 89.6684C126.052 76.732 113.115 76.116 84.1625 69.9558" stroke="#888888"/>
<path d="M15.3683 13.6241C15.3683 21.9976 27.5105 22.819 33.4695 22.819C34.5522 22.819 35.701 22.9276 36.7677 22.708C38.3382 22.3846 39.8018 21.7491 41.3763 21.4087C42.9757 21.0629 44.5258 20.4896 46.1403 20.2205C47.2121 20.0418 48.2805 20.0877 49.3497 19.9206C50.8065 19.693 53.6625 19.3796 55.0576 20.0206C56.2911 20.5873 57.8157 21.0877 59.1443 21.4198" stroke="#888888" stroke-width="0.5" stroke-linecap="round" stroke-linejoin="round"/>
<path d="M11.1707 29.2155C14.9932 27.6305 18.654 27.4164 22.7643 27.4164C27.7159 27.4164 32.4821 29.0156 37.4341 29.0156C39.6826 29.0156 42.1633 29.3092 44.3525 28.6935C46.8115 28.0019 49.2072 26.9154 51.704 26.3726C54.1425 25.8425 56.4448 25.8173 58.9444 25.8173" stroke="#888888" stroke-width="0.5" stroke-linecap="round" stroke-linejoin="round"/>
<path d="M14.5687 14.4237C14.5687 16.422 15.2163 17.7854 16.2677 19.4209C16.961 20.4994 18.2287 21.2753 19.0884 22.2305C20.1741 23.4368 21.5409 24.5234 22.9529 25.3177C25.1579 26.558 28.3002 27.3258 30.7709 27.6164C32.2548 27.791 33.6831 28.0787 35.1684 28.2272C36.5243 28.3628 37.8895 28.531 39.2551 28.6048C42.0133 28.7539 44.628 28.8062 47.3506 29.26C48.929 29.523 50.57 29.9149 52.1258 30.3038C53.8183 30.727 55.34 31.4782 57.0564 31.7697C58.0519 31.9387 59.1378 32.1492 60.0992 32.4582C60.5475 32.6023 61.1319 32.4754 61.5428 32.6581C62.4797 33.0745 63.9164 32.8136 64.941 32.8136" stroke="#888888" stroke-width="0.5" stroke-linecap="round" stroke-linejoin="round"/>
<path d="M74.3358 33.0134C74.3358 34.0511 74.1157 35.4563 75.1354 36.0561C76.9521 37.1248 79.0077 37.8048 80.9766 38.6103C82.9916 39.4346 84.8575 39.4098 87.0844 39.4098C87.8854 39.4098 88.836 39.5556 89.5275 39.2099" stroke="#888888" stroke-width="0.5" stroke-linecap="round" stroke-linejoin="round"/>
<path d="M69.9384 39.4099C71.8897 39.4099 73.5836 39.6996 75.4909 39.9652C76.32 40.0806 77.097 40.2095 77.934 40.2095C79.1666 40.2095 80.3993 40.2095 81.632 40.2095C82.4108 40.2095 83.1969 40.2394 83.9751 40.2095C84.5736 40.1865 87.1411 40.1852 87.3288 39.8097" stroke="#888888" stroke-width="0.5" stroke-linecap="round" stroke-linejoin="round"/>
<path d="M69.1385 44.0074C70.4962 44.4418 71.5056 45.0798 72.7365 45.6953C73.8994 46.2768 75.1897 46.4353 76.4345 46.7059C78.9141 47.2449 81.9132 46.8705 84.1303 45.7619C84.9971 45.3285 86.0901 44.7982 86.8288 44.2072C87.7598 43.4624 88.8868 42.3287 89.9271 41.8086" stroke="#888888" stroke-width="0.5" stroke-linecap="round" stroke-linejoin="round"/>
<path d="M69.3387 56.0007C71.6513 56.0007 74.1179 55.7086 76.3348 56.5004C77.9187 57.0661 79.1343 58.0002 80.5325 58.8991C81.5997 59.5851 82.3742 60.3284 83.5308 60.8424C84.2767 61.1739 85.3032 61.1978 86.1294 61.1978" stroke="#888888" stroke-width="0.5" stroke-linecap="round" stroke-linejoin="round"/>
<path d="M69.7385 56.2007C71.3476 56.7261 73.0146 57.278 74.2361 58.4995C75.2177 59.4811 76.546 60.0648 77.5342 60.9981C78.0438 61.4794 78.8116 61.6979 79.4221 62.0864C79.7357 62.286 80.5598 62.2815 80.7325 62.4973C80.9604 62.7822 82.7471 63.1969 83.1312 63.1969" stroke="#888888" stroke-width="0.5" stroke-linecap="round" stroke-linejoin="round"/>
<path d="M71.1376 51.4032C72.8926 51.4431 73.9483 52.343 75.4463 53.1134C75.9857 53.3908 76.6108 53.4513 77.1343 53.7131C78.1977 54.2447 79.4768 54.4114 80.6324 54.6903C81.4927 54.898 82.7441 54.4961 83.5308 54.8458C84.315 55.1943 85.7618 54.6337 86.3292 55.2011" stroke="#888888" stroke-width="0.5" stroke-linecap="round" stroke-linejoin="round"/>
<path d="M68.5389 68.9937C71.1132 68.9937 73.2489 69.1806 75.735 69.7489C76.806 69.9937 77.914 69.9932 79.0221 69.9932C80.4212 69.9932 81.7967 68.394 83.1309 68.394" stroke="#888888" stroke-width="0.5" stroke-linecap="round" stroke-linejoin="round"/>
<path d="M69.3385 75.3902C70.6045 75.3902 71.8705 75.3902 73.1364 75.3902C73.9436 75.3902 74.2636 75.0829 74.9799 74.8349C76.2052 74.4108 77.733 73.7735 78.8222 73.0804C79.7285 72.5036 80.5876 71.8628 81.232 71.0037C81.6151 70.4929 83.1115 69.1936 83.7306 69.1936" stroke="#888888" stroke-width="0.5" stroke-linecap="round" stroke-linejoin="round"/>
<path d="M5 26C5.56709 28.4909 8.31282 31.7721 10.7456 32.6968C12.8285 33.4885 14.7544 34.9496 16.8776 35.6759C18.2541 36.1468 19.6313 36.5491 21 37" stroke="#888888" stroke-width="0.5" stroke-linecap="round" stroke-linejoin="round"/>
<path d="M6 26C6 27.1333 6 28.2667 6 29.4C6 30.4468 6.52907 31.2392 6.67901 32.2333C6.86879 33.4916 7.93132 35.0525 8.49383 36.2C8.94305 37.1164 9.57392 37.841 10.1111 38.6933C11.2738 40.5382 14.1789 42.0712 16 43" stroke="#888888" stroke-width="0.5" stroke-linecap="round" stroke-linejoin="round"/>
<path d="M2 51C5.55951 51 8.6726 53.9975 12.2662 53.9975C13.5511 53.9975 14.7914 54.0467 16.0195 53.7098C17.034 53.4316 17.9204 52.9075 19 52.9075" stroke="#888888" stroke-width="0.5" stroke-linecap="round" stroke-linejoin="round"/>
<path d="M2 52C3.23074 52.9309 4.77542 54.0864 5.57439 55.3939C6.30096 56.583 7.49038 56.6649 8.5 57.4209C9.33534 58.0464 10.8973 58.3987 11.9275 58.564C12.5525 58.6642 14.7258 58.472 15 59" stroke="#888888" stroke-width="0.5" stroke-linecap="round" stroke-linejoin="round"/>
<path d="M5 65C8.05382 66.2274 10.949 67.4547 14.1429 67.9218C16.4766 68.2632 18.6989 67.398 21 67.0326" stroke="#888888" stroke-width="0.5" stroke-linecap="round" stroke-linejoin="round"/>
<path d="M5 66C7.59369 67.5926 9.91218 69.2785 11.544 71.9487C12.3379 73.2478 14.3581 75 16 75" stroke="#888888" stroke-width="0.5" stroke-linecap="round" stroke-linejoin="round"/>
<path d="M88.5281 47.6053C93.6084 49.5878 98.5289 53.5314 100.877 58.4882C101.808 60.4537 102.412 62.6098 103.165 64.6403C103.943 66.741 105.336 68.5646 106.363 70.5038C106.682 71.1074 107.131 71.7051 107.362 72.3472C107.567 72.9165 107.79 73.8818 108.162 74.3461C109.005 75.4004 109.823 77.2389 110.161 78.5882C110.751 80.9494 111.857 83.0623 112.271 85.4955C112.517 86.9479 112.715 88.7678 112.715 90.1819" stroke="#888888" stroke-width="0.5" stroke-linecap="round" stroke-linejoin="round"/>
<path d="M85.3297 62.5972C88.0145 62.6509 90.3421 65.0766 92.6257 66.3062C95.3708 67.7843 97.6928 69.9311 100.433 71.3923C102.726 72.6156 104.389 74.5043 106.896 75.479C108.53 76.1145 109.857 77.3347 111.315 78.2885C113.193 79.5162 115.169 80.6103 117.012 81.8866C118.232 82.7312 119.507 83.5562 120.799 84.2741C122.471 85.2032 123.372 86.878 124.508 88.3386C125.548 89.6756 126.07 90.5571 126.263 92.2697C126.474 94.1445 126.441 96.2869 126.063 98.1332C125.507 100.851 124.201 103.29 123.109 105.818C122.462 107.316 121.793 109.246 120.91 110.571" stroke="#888888" stroke-width="0.5" stroke-linecap="round" stroke-linejoin="round"/>
<path d="M39.1551 11.8252C41.189 10.6476 43.2959 9.05215 45.5516 8.32712C46.6485 7.97452 47.6351 7.27389 48.7054 6.82794C50.1971 6.20639 51.7251 5.77999 53.2362 5.21772C58.3901 3.29999 63.5929 3.22992 69.0387 3.22992C71.2055 3.22992 73.2525 3.40269 75.2908 3.98506C76.1895 4.24183 77.2917 4.01062 78.1337 4.38484C78.6567 4.61732 79.5534 4.62915 80.1326 4.62915" stroke="#888888" stroke-width="0.5" stroke-linecap="round" stroke-linejoin="round"/>
<path d="M50.7488 12.2248C55.4287 12.2248 59.426 8.92346 63.9526 8.22705C65.9853 7.91433 67.9507 7.12206 69.9826 6.7834C71.4509 6.53869 73.9274 6.45503 75.2353 5.72842C75.6538 5.49594 76.935 5.42859 77.4341 5.42859C78.212 5.42859 78.9256 5.2287 79.7328 5.2287C81.1321 5.2287 82.5313 5.2287 83.9305 5.2287" stroke="#888888" stroke-width="0.5" stroke-linecap="round" stroke-linejoin="round"/>
<path d="M74.3358 13.4244C77.1612 13.6638 79.6395 14.6113 82.1315 15.8675C84.4492 17.0357 86.9086 18.2946 89.0388 19.7764C92.7107 22.3308 96.2241 25.4547 99.2332 28.7715C102.071 31.899 103.407 35.9787 105.319 39.6544C107.258 43.3842 107.549 47.7419 108.417 51.7922C109.353 56.1591 108.917 60.9192 108.917 65.3847C108.917 67.039 108.691 68.5536 108.528 70.182C108.435 71.1143 107.997 71.9644 107.928 72.8917C107.898 73.3001 108.115 74.1923 107.717 74.3908" stroke="#888888" stroke-width="0.5" stroke-linecap="round" stroke-linejoin="round"/>
<path d="M88.5277 35.2124C90.3616 36.7406 91.7994 38.8505 93.9247 40.0097C94.9942 40.5931 96.0823 41.2397 97.123 41.9087C99.6345 43.5232 102.733 45.8444 103.719 48.8049C104.611 51.481 105.685 54.2004 106.074 57.0004C106.284 58.5133 106.694 60.0169 106.718 61.5534C106.743 63.1563 106.664 65.0378 107.018 66.5951C107.578 69.0633 107.517 72.0577 107.517 74.5907" stroke="#888888" stroke-width="0.5" stroke-linecap="round" stroke-linejoin="round"/>
<path d="M78.3337 5.82825C79.8157 5.82825 81.2557 5.58001 82.6425 6.22803C83.8563 6.79525 85.0075 7.49976 86.1294 8.22694C87.4881 9.10753 88.9095 9.79815 90.1716 10.8255C92.1268 12.4169 93.8412 14.2611 95.7686 15.8672C98.3309 18.0024 101.208 20.0383 103.12 22.8189C104.836 25.3153 106.703 27.8657 107.817 30.7146C108.616 32.7547 109.331 34.7191 109.961 36.7668C110.319 37.9298 110.671 39.5507 110.716 40.7646C110.742 41.4685 110.759 42.3743 110.96 43.0522C111.165 43.7425 110.975 44.4244 111.127 45.1067C111.646 47.4424 111.715 49.9745 111.715 52.4026" stroke="#888888" stroke-width="0.5" stroke-linecap="round" stroke-linejoin="round"/>
<path d="M98.8187 79.3673L107.874 74.7025C108.312 74.4771 108.777 74.953 108.542 75.3855L103.627 84.4408C103.464 84.7399 103.057 84.7929 102.823 84.5452L98.6839 80.1548C98.4557 79.9128 98.523 79.5196 98.8187 79.3673Z" fill="#373737"/>
<path d="M118.558 70.9382L108.386 75.6544C107.938 75.8619 107.493 75.3649 107.747 74.9426L113.269 65.7875C113.435 65.5135 113.811 65.4631 114.043 65.6841L118.693 70.1229C118.948 70.3662 118.878 70.7899 118.558 70.9382Z" fill="#373737"/>
<rect x="108.194" y="72.9373" width="2.92208" height="2.92208" rx="0.5" transform="rotate(50.4079 108.194 72.9373)" fill="#373737"/>
</svg>
