<svg id="Layer_2" data-name="Layer 2" xmlns="http://www.w3.org/2000/svg" viewBox="0 0 1280 809"><defs><style>.cls-1{fill:#fff;}.cls-2{fill:#202020;}</style></defs><path class="cls-1" d="M125.8,7s369.35,90.63,539,66.6h0s.53-7.93,8.53-6.89S679.6,86.5,679.6,86.5l16,3.71S717,86.61,723.2,92.6s13.32,11.69,18,10.61,8.43-5.69,13.39-5.64,3.68,2.23,7.77,2.15,15.86.22,15.86.22,13.71-.77,0,8.5-42.64,35.22-42.64,35.22,10.53-5.71,18.64-5.87,5.33,6.65,8.27,6.8,5.68-.56,17.41-7.26,22.45-14.22,27.55-20.24c0,0,10.32-1.61,11.74.62s-8.34,11.59-8.19,13.75,9.89,4.48,9.89,4.48,13.42,6.23,15,7.26,9.27-.15,9.27-.15,6.43-6.47,14.84-8.19,20.54-3.56,20.54-3.56l2.78,8.5s26.42,1.24,27,7.73-24,11.87-24,11.87-6.24-6.43-13.52-3.35a102.39,102.39,0,0,0-14.94,8.25L840,166.1l-14.93,30.4s13.07-18.08,16.4-15.84-8.2,43.23-8.2,43.23-5.92,40.53,3.39,52.9,21.28,4.73,21.28,4.73a43.35,43.35,0,0,0,5.54-32.68c-4.34-18.74-11.06-40.78-3.58-53.54s13-7.72,13-7.72,6.46-30,21.19-25.51,20.55,3.63,25.23,19-5.66,35.5-5.66,35.5-2.45,12,6.88,1.88,11.92-10.82,14.74-9.45,17.86,20,6.15,43.84-7.81,24.3-7.81,24.3l17.64,6.68s72.43-35.24,71.26-50.75-6.14-24,12.2-23.85,34.46-.48,36.33-10-2.73-14.75,7.57-29.11a160,160,0,0,1,22.26-24.73L1162,133.24s2.11-11.9,9.8-15.72l7.68-3.82L1181.89,76s5.19-29.75,10.48-30.09,8,6.93,8,6.93,3.76-8.38,12.79-6.41,12.12,2.57,14.75,5.88,8,35.72,14,39.46S1266,106,1263.7,111.29s-52,44.38-55.7,50.38-5.25,45-5.25,45l12,9.11s.53-11.28,5.88-10.57,5.46,17.13,5.46,17.13L1181.3,249.7s-5.35,8.58-17.33,18S1130.91,398.89,1125.5,383s-3.63-37.35-15-32.58,7.55,42.08,7.55,42.08,11.7-6.16,14.9,18.72,6.8,35.58-18,54.45S1079.37,516,1064.6,528.6s-53.2,53.8-30.5,90.2,21.55,28.53,25.3,36.5,3.53,21.58,3.53,21.58,24.48,23.29,22.61,48.46-10.64,43.26-21,35.26-20.12-16.75-26.08-19.73-40.85-45.89-38.33-54.28,7.35-25.62-10-34.55-31.75-22.53-31.75-22.53-17.49,22.49-29,13-35.72-23.45-48-15.6-51.8,13.6-51.8,13.6,10.28-2.8-5.2,16.3l14.42,11.67L827,673.66l-17-10.2s1.14,6.35-5.44,7.46S785,662.33,757.3,653.7l-2.47,8.87L726,657.3l-39.34,8.56s-9.58,12.78-36.37,27.39-39,35.66-37.21,45.16,12,31.07,11,33.58-3.23,5-16.71.63S567.5,757.4,567.5,757.4,557,736,556.51,731.91s1-10.91-3.26-12.3-17.93-23.83-25-39.21S503.8,656,503.8,656l-23.72-.1s-9.44,19.19-17.58,19.8-37.09-27.54-37.09-27.54l.42-13.67s-14.42-20.63-20.62-23.18-21.21-25-21.21-25l-38-4.8-3.18,11.93-76.9-10.57S183,531,178.5,525.1l-53.78-5.4-3.28-24.62s-5.32-15.17-19-19.13l-3.07-7.39-12.22-6.39s-1.07-9.95-20-15.56-14.4-14.48-14.4-14.48L51.9,411.4s-4-17.89-15.79-29.31c0,0-2.92-10.19,5.79-14.49L31.79,351.1s1.26-28.17-6-40.52-8.28-17.18-8.45-28.83A200.37,200.37,0,0,1,18.5,258.7s-6.07-14.31,6.25-29.39,7.72-57.46,7.72-57.46S68.08,112.2,73.6,77l7.6-7.6s-4.81-55.41-1.72-57,21.86,16,37.26,18.27c0,0,6.43-4.05,1.06,14.64l8.14-8.44Z"/><polygon class="cls-2" points="126.55 7 126.03 20.83 127.69 25.13 126.55 7"/><path class="cls-2" d="M112.41,24.22a61.93,61.93,0,0,1-10-4.36q-2.49-1.32-5-2.78L95,15.6l-3.55-2.21c.91.93,1.62,1.7,2.18,2.35l.4.47a4.38,4.38,0,0,1,.26.37l.4.64a12.64,12.64,0,0,1,1,1.84,8.74,8.74,0,0,0,.83,2.05,17.48,17.48,0,0,0,3.82,3.38c1.22.88,2.79,2,4.94,3.26,1.07.65,2.3,1.32,3.71,2,.71.34,1.45.71,2.27,1,.4.18.83.35,1.25.51s.69.28,1,.4a3.43,3.43,0,0,0,1.11.53l.48.16.13,0a.56.56,0,0,0,.12,0,1,1,0,0,1,.25-.08,1.08,1.08,0,0,1,1.09.26,3.08,3.08,0,0,1,1,2.13,17.24,17.24,0,0,1,0,2.79l-.15,1.55-.28,1.81c-.19,1.33-.51,2.68-.76,4l-1,5.25,3.26-3.92,3.89-4.68L126.36,37c-.18-2-.38-3.73-.57-5.22s-.4-2.77-.6-3.77c-.41-2-.83-2.85-1.26-2,0,1.57.13,3.27.24,5.08l.09,1.38.1,1.29.22,2.5-1.49,1.83-1.8,2.14c-1.26,1.5-2.58,3-3.94,4.58l1.05.6.77-3.41.35-1.73c.13-.6.24-1.21.33-1.82a35,35,0,0,0,.47-3.7,9.34,9.34,0,0,0-.39-3.71c.95,1.26,1.2,3.52,1,6.29l-.21,2.17-.33,2.13c-.21,1.37-.53,2.74-.8,4.14L116.42,44c2.65-3.17,5.89-7,6.36-8.37a8.75,8.75,0,0,0-.38-1.21l-.11,1-.92.79-.41.36c-.14.13-.22.19-.47.43-.84.81-1.6,1.54-2.28,2.21-1.35,1.33-2.39,2.43-3.24,3.38l6.61,3.82c.35-1.55.63-2.8.8-4.07l.27-2c.12-.84.15-1.7.24-2.62a19.5,19.5,0,0,0,.09-2.9,8.86,8.86,0,0,0-.12-1.61l-.09-.85c0-.28-.14-.56-.21-.86a7,7,0,0,0-.67-1.79,3.26,3.26,0,0,0-1.52-1.46,2.4,2.4,0,0,0-1-.18c-.32,0-.51.15-1-.05l-1.33-.37c-.49-.07-1-.09-1.58-.14a27.66,27.66,0,0,1-4.91-1.6C111.22,25.31,111.82,24.77,112.41,24.22Z"/><path class="cls-2" d="M86.36,15l2.84.38c.86.08,1.49.05,1.39-.42-.67-.19-1.94-.75-3.23-1.28a25.29,25.29,0,0,0-3.44-1.18c-.87-.2-1.34-.22-1,.08S84.22,13.49,86.36,15Z"/><path class="cls-2" d="M78.53,18.84A50,50,0,0,1,78.19,25c-.17.7-.4.24-.64-.78s-.48-2.56-.64-3.81-.25-2.14-.34-1.75a85,85,0,0,0,1.59,9.88c.6,2.81,1.24,5.61,1.9,8.41-.34-3-.65-6.05-.92-9.07l-.36-4.42C78.68,22,78.59,20.43,78.53,18.84Z"/><path class="cls-2" d="M73.36,77.44c-.43,2.5-.73,4.71-1.13,7a10.24,10.24,0,0,0,.88-3.31C73.25,80,73.28,78.83,73.36,77.44Z"/><path class="cls-2" d="M65,106.8a39.38,39.38,0,0,0,2.17-4.41,43.3,43.3,0,0,0,1.89-5.21c.56-1.87,1.12-3.87,1.68-6l1.45-6.79c-.13.26-.23.49-.43.86-1.55,4-2.32,3.9-2.21,1.21.06-1.34.39-3.32.69-5.79l.14-1,.19-1.13.53-2.83c.6-.75,1.41-1.44,2.14-2.19l1-.93.93-.86,2-2.08c.48-.5.93-.93,1.33-1.32,0-.72,0-1.37,0-2v-2l.07-4A54.82,54.82,0,0,0,77.4,49.92l-.28,8.62L77,62.86,77,65l0,.54c0,.2,0,.22,0,.34l-.07.58L77,67.86l-1.39,1.56c-.81.9-1.61,1.77-2.39,2.62l-1.5,1.65-.81.89-.4.44-.2.22c0,.09,0,.19,0,.29l-.34,2.33L69.78,79l-.09.76-.31,3c-.1,1-.29,1.92-.42,2.84-.26,1.86-.52,3.61-.75,5.26-.63,3.3-1,6.28-1.58,8.91S65.59,104.73,65,106.8Z"/><path class="cls-2" d="M73.36,77.44l.09-.48a2.17,2.17,0,0,1,.31-.37l.68-.72,1.39-1.45,2.89-3a34.44,34.44,0,0,0-3.36,3.12c-.45.48-.88,1-1.25,1.42S73.28,76.83,73.36,77.44Z"/><polygon class="cls-2" points="79.81 49.61 78.87 41.96 78.05 43.86 79.81 49.61"/><path class="cls-2" d="M43.57,152.79c-.47-2.24,3.84-10.2,8-18.34,2.1-4,4.1-8.17,5.6-11.55s2.34-6.05,2.21-7.18a139.2,139.2,0,0,1-11.62,22.07c-3.33,5-5.52,7.09-5.25,4.8q-4.64,10-9.64,19.82C30.21,169.3,36.84,162.38,43.57,152.79Z"/><path class="cls-2" d="M26.11,193.1a30,30,0,0,1,.33,4.92A21.52,21.52,0,0,0,26.11,193.1Z"/><path class="cls-2" d="M19,302.13a39.18,39.18,0,0,1-3.72-10.52,86.15,86.15,0,0,1-1.22-10.86c-.23-3.59-.33-7.18-.35-10.76,0-1.79,0-3.58,0-5.37l.07-2.69.05-1.35,0-.34v-.57a1.69,1.69,0,0,0-.05-.55c-.09-.17-.16-.34-.24-.51a1.23,1.23,0,0,1,0-.13l-.08-.26-.16-.51c-.12-.34-.21-.69-.3-1-.2-.7-.35-1.41-.49-2.11a34.29,34.29,0,0,1-.54-4.28,16.78,16.78,0,0,0,1.22,3.89c.24.51.44,1.05.71,1.72.14.33.28.7.43,1.11l.27.65.13.35.07.18.06.1c.09.12.21.38.37.67.12.1.05.4.08.73v.64l-.05,1.16-.14,3c.18-1.79.35-3.45.49-4.83,0-.29.12-.58,0-.79s-.19-.54-.26-.75l0-.13-.06-.2-.1-.41c-.08-.26-.15-.53-.21-.8-.11-.53-.25-1.05-.33-1.56-.2-1-.31-2-.42-3a36.91,36.91,0,0,1-.11-5.31c.07-.82.08-1.62.19-2.4l.33-2.27a37.92,37.92,0,0,1,1.09-4.26,33.51,33.51,0,0,1,3.88-8.24c.9-1.3,2.11-3,2.8-3.93a29,29,0,0,0,2.3-4.29c1.13-.92,1.06.39.12,2.67a17.26,17.26,0,0,1-2.19,3.72c-.57.79-1.17,1.6-1.78,2.43s-1.1,1.75-1.66,2.62a31,31,0,0,0-3.75,9.58c-.28,2.22-.07,2.62,1.12,0a34.27,34.27,0,0,1,4.53-10.47c.5-.89,1.16-1.67,1.74-2.53L24.56,227A27.66,27.66,0,0,0,27,221.86a46,46,0,0,0,2-20.22,165.48,165.48,0,0,0,2.14-20.77c-.91,2.43-1.85,4.83-2.85,7.18-.41,4.15.09,8.34.25,12.15s0,7.24-1.42,9.54c-.86,1.13-1-.3-.91-2.72s.26-5.88.26-8.77a56.92,56.92,0,0,1-1.22,10.81,52.93,52.93,0,0,1-1.6,6.07,32.81,32.81,0,0,1-2.5,5.84c-.24.46-.52.85-.77,1.29s-.56.76-.83,1.15l-.87,1-1.62,2A44.43,44.43,0,0,0,14,230.72c-.47.77-.89,1.6-1.34,2.41-.21.42-.44.83-.65,1.25l-.56,1.31a36.14,36.14,0,0,0-2.9,11.52,35.4,35.4,0,0,0,0,6.26c.08,1.06.26,2.12.44,3.19l.35,1.62.36,1.33v0l0,0v.07l-.18,2.34-.14,2.54c-.07,1.63-.1,3.13-.09,4.51a63.83,63.83,0,0,0,.36,7.06,37.21,37.21,0,0,0,2,8.8c.8,2.26,1.63,4.21,2.67,6.83A92.24,92.24,0,0,0,19,302.13Z"/><path class="cls-2" d="M16.91,305.57c.16,1.25.37,2.47.57,3.71.08-1,.15-2,.25-3Z"/><path class="cls-2" d="M34.12,357.59l-2-2.76-1.08-1.55c-.39-.56-.8-1.12-1.17-1.7,0-1-.06-2-.1-3L29.63,346q-.18-2.49-.45-5c-.33-3.31-.8-6.6-1.38-9.84a27.46,27.46,0,0,1,.18-3.53c.12-1,.31-1.91.4-2.87-.25.59-1-.82-1.7-2.17s-1.54-2.61-1.7-2c.05,3.93.55,8.66,1.13,13.89l.87,8.1.39,4.17.08,1,.05.53,0,.75c0,1,.07,2.05.09,3.09l1.75,2.52.44.61.31.43.62.83,2.39,3.26L35.39,363c.51.69,1,1.33,1.43,2l.84,1.56.17.31.07.14c0,.05-.08.06-.11.09l-.48.24a7.56,7.56,0,0,0-1.43.95l-.54.5c-.09.08-.15.18-.23.26l0,.07,0,0-.06.07-.21.27a8.51,8.51,0,0,0-.71,1.1c-.2.36-.42.71-.57,1.05a17.54,17.54,0,0,0-.76,1.91,26,26,0,0,0-1,4.4c-.12.79-.22.79-.34.22a12.12,12.12,0,0,1-.21-2.51,18.78,18.78,0,0,1,.43-3.64c.24-1.22.64-2.29.78-3s.07-.91-.52-.43A9.11,9.11,0,0,0,30.73,370a14.63,14.63,0,0,0-1.51,3l.29-1.06.38-1,.39-1,.48-.92a12.48,12.48,0,0,1,1-1.66l.27-.38s0,0,.05,0l.08-.08a2.66,2.66,0,0,1,.79-.45l.21-.08c.1,0,0-.09,0-.13l-.09-.33a7.31,7.31,0,0,0-.28-.82l-.1-.25-.07-.15-.27-.49-1.2-2.12c-.88-1.52-1.9-3.26-3.13-5.33,1.14,2.57,2.39,5.16,3.73,7.76l.26.49c.06.11,0,.07,0,.11v.05l0,.21.08.37.08.32,0,.15s-.11.06-.16.09a1.71,1.71,0,0,0-.49.31s-.06.09-.08.06a15.62,15.62,0,0,0-.88,1.3,18.32,18.32,0,0,0-1.32,2.76,19.1,19.1,0,0,0-1.23,5.56c0,.44-.08.9-.07,1.34v.77a7.63,7.63,0,0,0,0,.84l.14,1.64.25,1.61c.12.53.22,1.06.37,1.57l.22.77c.08.24.09.55.3.7l2,2.2,2.62,2.9c.67.7,1.25,1.51,1.88,2.25s1.17,1.57,1.75,2.35a69.87,69.87,0,0,1,5.58,9.65c.75,1.56,1.41,3.08,2,4.52.28.71.54,1.41.77,2.07,0,.15.12.37.15.43l.08.19a1.24,1.24,0,0,1,.09.38,1.85,1.85,0,0,0,0-.56.47.47,0,0,0,0-.17l0-.3-.08-.58c-.09-.77-.2-1.51-.35-2.37a29.35,29.35,0,0,0-2.61-7.38,70.78,70.78,0,0,1,3.1,6.66c.46,1.13.9,2.28,1.28,3.42.11.33.15.41.22.6a1.61,1.61,0,0,1,.11.52l0,.14,0,.23,0,.49.1,1a22.32,22.32,0,0,1,.25-2.23c0-.13,0-.26,0-.4a3.47,3.47,0,0,0-.05-.46q-.07-.6-.18-1.2c-.27-1.61-.61-3.23-1-4.86a55.53,55.53,0,0,0-3.76-10.12c-.45-.87-.91-1.76-1.41-2.66s-1-1.8-1.66-2.7-1.21-1.84-2-2.72l-1.1-1.38c-.4-.48-.91-1-1.38-1.55l-.72-.8a3.44,3.44,0,0,1-.35-.41l-.12-.55a18.68,18.68,0,0,1-.34-2.28l-.06-1.17,0-1.18.09-1.14.19-1.17a12.73,12.73,0,0,1,1.9-4.59l.33-.47a3.79,3.79,0,0,1,.31-.39l.7-.73a9.82,9.82,0,0,1,1.67-1.22l.49-.29.13-.07s.12,0,.06-.09l-.16-.26L39.35,366l-1.47-2.36Z"/><path class="cls-2" d="M24.47,311.2l.81,1.5a11.67,11.67,0,0,1,.69,1.43c.37.95.76,1.8,1,2.63l.67,2.25c.18.68.29,1.31.41,1.85a10.72,10.72,0,0,1,.35,3.78,20.52,20.52,0,0,0,.11-2.19,21.55,21.55,0,0,0-.35-2.82A23.3,23.3,0,0,0,27,315.87c-.31-.7-.65-1.45-1-2.26S25,312.06,24.47,311.2Z"/><path class="cls-2" d="M46.72,420.54a32.28,32.28,0,0,0,0-3.34L46.53,415l-.1-1.25-.06-.66,0-.33v-.17l0-.07v1.43c0,.55,0,1.15,0,1.81C46.42,417.05,46.53,418.62,46.72,420.54Z"/><path class="cls-2" d="M47.89,406c.48,1.45.94,2.92,1.32,4.39l.25,1a2.44,2.44,0,0,1,.09.85l.06,2.3.24,9.47,1-7.47-.25-3-.16-1.81a4.3,4.3,0,0,0-.22-.8l-.3-.89C49.08,407.64,48.13,405.67,47.89,406Z"/><path class="cls-2" d="M555.73,747.67c.15-1-.38-3.2-1.67-6.89L553,737.66a32.21,32.21,0,0,1-1.3-4.48,6.67,6.67,0,0,1-.14-.8l-.07-.8c0-.46,0-.9-.05-1.33,0-.78,0-1.58,0-2.42s0-1.51-.07-2.17a6,6,0,0,0-.25-1.56c.4,0,.88.77,1.1,2.77.12,1,.16,2.2.28,3.75,0,.41.06.77.13,1.27a11.06,11.06,0,0,0,.31,1.52,10.17,10.17,0,0,0,.42,1.34c.14.42.29.82.44,1.19,1.22,3,2.61,6,4,8.75s2.7,5.3,3.84,7.22c-7.21-18,1.7-.4,1-5.48-2.18-4.91-4.2-9.08-5.68-13.11a10.53,10.53,0,0,1-.42-1.53c-.08-.53-.13-1-.17-1.57,0-1-.1-2.05-.16-3.06a21.68,21.68,0,0,0-.31-2.94,7,7,0,0,0-.95-2.6,2.77,2.77,0,0,0-.88-.89,1.93,1.93,0,0,0-.55-.29l-.68-.26a9.17,9.17,0,0,1-2.69-2,46.39,46.39,0,0,1-4.28-5,114.86,114.86,0,0,1-8.29-12.83c1,.79,1.32.12.27-2.73-2.75-4.43-5.74-9.52-8.63-15.15a48.09,48.09,0,0,0-11.78-15.76,71.79,71.79,0,0,0-8.13-6.35c-.73-.46-1.45-.95-2.19-1.4s-1.51-.91-2.15-1.28-1.33-.88-2.15-.71l-2.45,0-10.33.05h-9c-.09,0-.19,0-.21.08-.42.83-.87,1.63-1.32,2.43l-.69,1.18-.79,1.31c-1.09,1.76-2.23,3.44-3.41,5-2.4,3.13-4.89,5.93-8,7.77a7.77,7.77,0,0,1-4.82,1.37,14.45,14.45,0,0,1-4.59-1.7,67.17,67.17,0,0,1-7.62-5c-4.79-3.53-9.23-7.21-13.69-11-2.22-1.9-4.44-3.83-6.68-5.83l-3.55-3.21-.94-.86s-.09-.06-.1-.11v-1.1c0-.85,0-1.7,0-2.56,0-3.05,0-6.17.05-9.41v-.53a2.69,2.69,0,0,0-.31-.44l-.66-.87-1.45-1.89c-1.05-1.35-2.13-2.73-3.25-4.1a130.06,130.06,0,0,0-8.52-10.3,30.3,30.3,0,0,0-4.8-4.29l-1.37-.76-.88-.49a9.09,9.09,0,0,1-.75-.55,29.58,29.58,0,0,1-2.68-2.37,111.36,111.36,0,0,1-8.9-10.59c-1.38-1.84-2.75-3.69-4.08-5.57L385,589.93l-1.7-2.48-36.4-4.59-3.17,12-45-6.08-22.14-3-5.55-.76-2.78-.38-1.51-.2-.8-.11c-.27-.06-.56,0-.77-.21L255.46,578q-19.07-12-38.17-24.5-9.54-6.24-19-12.67c-3.16-2.14-6.32-4.31-9.45-6.53s-6.28-4.46-9.25-6.92a15.64,15.64,0,0,1-1.19-1.12c-.1-.09-.17-.25-.3-.27l-.41-.05-.84-.09-4.61-.53-14.59,1.46c-4.72-1.93-24-2.41-20.91-4,5.42.92,10.75,1.14,17.35,1.77-4.07-.9-8.66-1.65-13.62-2.31-2.48-.33-5.05-.64-7.69-.93l-4.24-.44-4.45-.44c-.35-2.4-.7-4.84-1-7.3-.34-2.27-.68-4.56-1-6.85l-1-6.89L120.4,496a3,3,0,0,0-.15-.74l-.3-.69c-.2-.46-.46-1-.7-1.48a36.83,36.83,0,0,0-7.79-10.4,28.5,28.5,0,0,0-5-3.63l-1.34-.67-.33-.17-.43-.2c-.29-.13-.55-.22-.83-.33L102,477l-.4-.15a1.25,1.25,0,0,1-.17-.39l-.31-.81c.12.42.18.94.31,1.39a12.05,12.05,0,0,1,1,.79,4.14,4.14,0,0,1,1.18,1.56c.16.49-.21.72-1.25.67a13,13,0,0,1-2.21-.37c-1.24.06-1.49-1.28-2.16-2.58.59.14.58-.77.19-2.32l-.62-2.23c-.13-.52-.32-1.12-.56-1.79-.44-.27-.94-.55-1.47-.85L93,468.64l-6.23-3.3-1.07-1-.53-.47c-.1-.2-.17-.42-.26-.63a14.24,14.24,0,0,0-.77-1.57l-.46-.76-.24-.48a14.32,14.32,0,0,0-1.16-1.89,23.85,23.85,0,0,0-2.91-3.31c-.49-.51-1-1-1.51-1.41l-.71-.67-.7-.6c-.45-.39-.84-.79-1.2-1.16a8.9,8.9,0,0,1-1-1,38,38,0,0,0-3.82-1.76c-1.15-.45-2.17-.76-3-1.05a39,39,0,0,0-3.88-1.08c-1.72-.47-2-.21-2.36.07s-.71.62-2.67-.12a15.73,15.73,0,0,1-4.24-2.34,14.55,14.55,0,0,1-3-3A10.56,10.56,0,0,1,49,435.24c-.26-.52-.47-.32-.55.53a8.83,8.83,0,0,0,.84,4,13.37,13.37,0,0,0,1.45,2.49,15.2,15.2,0,0,0,1,1.16,9.8,9.8,0,0,0,1.11,1.12l1.23,1.05c.42.34.86.61,1.3.92s.91.63,1.37.88l1.41.77a31.94,31.94,0,0,0,2.91,1.37c1,.45,2,.79,2.92,1.13l2.68,1c.77.29,1.53.56,2.23.84a27.32,27.32,0,0,1,3.53,1.79c.46.3.89.55,1.21.81a6.69,6.69,0,0,1,.75.71c-1.69-.59-3.81-1.32-6-2.13L66.66,453l-1.8-.61-2.09-.73-1-.35-1-.43-1.89-.82c-.61-.25-1.2-.61-1.75-.88s-1.07-.54-1.56-.82l-1.35-.8-1.1-.6a6.51,6.51,0,0,0-.82-.45c-.45-.19-.69-.15-.68.18a32.75,32.75,0,0,0,9.31,5.3c.8.35,1.6.57,2.41.86l2.31.77c1.28.42,2.61.83,3.85,1.37a29,29,0,0,1,7,3.78,14.48,14.48,0,0,1,2.56,2.4,9.89,9.89,0,0,1,.86,1.22,2.93,2.93,0,0,0,.2.32l.75.89a21.45,21.45,0,0,1,1.24,1.86l.45.71.58.74,1.19,1.5,3.84,1.95,2.68,1.33L93.44,473l.7.29.2.38.1.19.06.1.15.35,2.29,5.27.3.72.16.35.08.18c0,.07,0,.13.12.13l1.49.53,3,1.08c.82.31.77.31,1,.42l.62.27a9.33,9.33,0,0,1,1.21.64,25.43,25.43,0,0,1,8.59,8.43c.6.89,1.14,1.85,1.65,2.8.61,1.26.67,1.15.79,1.91l1.27,7.68,1.27,7.76q.9,5.82,1.81,11.67l10.2.82,6.78.48,13.18.93,25.6,1.87.58,0H177c.09,0,.14.12.21.17a8.51,8.51,0,0,0,.86.73c.64.48,1.45,1.12,2.18,1.63s1.48,1.07,2.22,1.57c1.48,1,3,2,4.43,3,2.93,1.95,5.84,3.84,8.72,5.71l-6.84-2.47c14.51,9.12,33.4,20.86,51.37,32.53,4.5,2.91,8.93,5.81,13.22,8.66l6.33,4.23,1.54,1,1.95,1.29,1.15.76,1.35.23,2.28.38c9.36,1.68,17.75,3.38,24.38,5-3.05-1.28,9.35.65,21.94,2.34,6.29.84,12.64,1.62,17.13,1.91,1.12.07,2.13.11,3,.12a30.82,30.82,0,0,0,3.14,0c1.54-.09,1.86-.44.9-1.06,2.64.56,5,1,7.15,1.44l1.19-3.75.29-1,.14-.47.3-1.06c.15-.55.31-1.1.47-1.66l.21-.69.43-1.42.11-.37c0-.08.11-.4,0-.07l-.14.57-.08.29,0-.1c.17-.53.35-1.12.56-1.77l3.15.56a4.72,4.72,0,0,1,1-.5l1.73-.4a116.13,116.13,0,0,1,14.83,2.68c1.73.43,3.41.86,5.52,1.3,1.05.22,2.21.45,3.54.68l2.32.45c.19.31.39.61.64,1l.49.71.88,1.25-.54-1-.12-.24-.06-.15-.1-.27a6,6,0,0,1-.3-.92,3.14,3.14,0,0,1-.14-1c.07-.45.45-.34,1.14.21.16.13.39.34.61.55s.42.39.76.77l2,2.14a51.4,51.4,0,0,0,4,3.86c1.56,2.44,3.18,4.9,5,7.35.43.61.9,1.22,1.37,1.83s.94,1.22,1.46,1.82,1,1.21,1.58,1.8l.84.89c.29.3.65.58,1,.88l.51.43.25.22.33.22c.45.29.9.57,1.37.84.22.16.38.29.58.42a6.59,6.59,0,0,1,.66.55c.23.22.46.39.69.64l.71.73c.48.46.94,1,1.4,1.56,1.86,2.17,3.63,4.55,5.33,7s3.35,4.85,4.92,7.3c.4.61.79,1.22,1.18,1.83l.57.91.22.44.2.41.1.2a.22.22,0,0,1,0,.22l-.17.91-.05.21-.05.51-.1,1.06-.22,2.11c-.07.7-.14,1.39-.2,2.08l-.11,1.05-.12,1.71q-.12,1.73-.24,3.42l-.05.85c0,.28-.15.62.14.78l1.14,1.2c.77.81,1.54,1.61,2.29,2.41l1.12,1.14.66.72-.32-.58a5.14,5.14,0,0,0-.51-.76c-.52-.69-1.14-1.48-1.91-2.44L420.67,651l-.37-.44a1,1,0,0,1-.17-.23l0-.32.16-1.37c.1-.94.22-2,.34-3.11l.09-.86c0-.29.07-.63.09-.78.06-.4.12-.81.18-1.24l-.09,1.25c0,.57-.06,1.13-.09,1.66-.06,1.14-.1,2.19-.13,3.16l0,1.4c.31.31.62.6.92.89l1.65,1.53c.5.46,1,.86,1.4,1.23l.59.49.39.29a10.68,10.68,0,0,0,1.27.83c1.46.8,2.06.62,3.62,1.66,5,4.47,7,6.79,7.52,8.13s-.36,1.62-1,1.83a84.77,84.77,0,0,0,13.36,9.89c1.11.65,2.22,1.25,3.4,1.81.57.28,1.17.54,1.8.8a25.6,25.6,0,0,0,2.42.87,13.11,13.11,0,0,0,4.9.49,12.26,12.26,0,0,0,4.42-1.59,17.7,17.7,0,0,0,1.9-1.3c.29-.23.61-.47.86-.71l.7-.65a31.33,31.33,0,0,0,2.3-2.55,63.55,63.55,0,0,0,3.71-5.17c1.13-1.75,2.22-3.51,3.33-5.34.26-.44.53-.88.8-1.32l.49-.78.95-1.46c0-.05.06-.05.12,0l.14,0,.3,0-.35-.14-.17-.06c-.07,0-.13,0-.15,0a13.65,13.65,0,0,0-1.27.86l-.73.57a8.05,8.05,0,0,0-.89.81l.58-1,.49-.9c.32-.59.63-1.19.92-1.78,0-.08.08-.08.15-.08h3l3.92,0,8.32.18,4.12.12,1.62.06c.23,0,.49,0,.7.09l.61.38c.67.42,2,1.26,3,2s2.14,1.57,3.18,2.4a60.59,60.59,0,0,1,11.24,11.54l1.18,1.68c.35.58.71,1.16,1.06,1.75a17.7,17.7,0,0,1,1,1.81c.31.63.62,1.18.95,1.9,1.32,2.84,2.77,5.68,4.34,8.55,1.07,3.29.84,3.71-.26,2.34a65.35,65.35,0,0,1-5.13-8.61l-.79-1.56c-.27-.54-.5-.9-.75-1.36l-.75-1.34-.88-1.32a42.57,42.57,0,0,0-4-5.07,45.51,45.51,0,0,0-8.41-7,70.57,70.57,0,0,1,7.11,7.35,31.42,31.42,0,0,1,2.87,4.12,12.28,12.28,0,0,1,.9,1.76c.23.53.42,1,.54,1.36,1.21,1.61,3.18,5.24,5.22,8.47s4.36,6.83,6.78,10.35,5,7.06,7.56,10.44a84.81,84.81,0,0,0,8.26,9.52,15.83,15.83,0,0,0-2.94-2c-.44-.15-.44.21-.07,1a15.14,15.14,0,0,0,2.53,3.48c.2.21.37.4.63.63s.51.46.84.71l.6.42a5.32,5.32,0,0,0,.77.46c.34.17.7.32,1.06.46l.57-1.76c.34-.82.46-.22-1.38.61l-.36.16-.19.07h0s0,0,0,.05,0,.07,0,.21,0,.51.07.86c0,.74,0,1.72,0,2.87,0,.62,0,1.24,0,1.87,0,.31,0,.71,0,1.07s0,.79.1,1.32a22.44,22.44,0,0,0,1.22,4.62c.83,2.35,1.66,4.35,2.41,6.12S555.25,746.54,555.73,747.67Z"/><path class="cls-2" d="M520.17,681.38a36.81,36.81,0,0,0-2.47-2.87,19.86,19.86,0,0,0-2-1.93,21.84,21.84,0,0,1,4.3,6.07C520.38,682.78,520.38,682.27,520.17,681.38Z"/><path class="cls-2" d="M555.73,747.67c0,.12.07.56,0,.64C557.05,750.8,556.71,749.93,555.73,747.67Z"/><path class="cls-2" d="M462.94,676.12a8.87,8.87,0,0,0,3.58-1.29,20.37,20.37,0,0,0,3.67-3,22.1,22.1,0,0,1-3.27,2.69A9.31,9.31,0,0,1,462.94,676.12Z"/><path class="cls-2" d="M439.91,672c-4-4-9.39-9.41-15.22-15.71a20.06,20.06,0,0,0,3.15,4.32A128.48,128.48,0,0,0,439.91,672Z"/><path class="cls-2" d="M326.94,597.64c-5.22-.41-2.31.51-6,.56C331.58,599.74,335.25,599.68,326.94,597.64Z"/><path class="cls-2" d="M534.44,708.8c2,3.08,4.1,6.12,6.45,9.18a57.72,57.72,0,0,0,4,4.72l.64.65.33.32.4.35a10.31,10.31,0,0,0,.86.74,13.5,13.5,0,0,0,1.15.84l.75.46a4.81,4.81,0,0,0,.56.28l.62.28.64.24,0,0,1-3.16v-.11l.1-.25a1.36,1.36,0,0,1,.13-.24v0a.09.09,0,0,1,0-.05l0,0-.07.08-.22.17a3.54,3.54,0,0,1-.53.36l-.27.12a4.77,4.77,0,0,1-.44.24,5.77,5.77,0,0,1-.92.35c-.15,0-.43.17-.63.23l-.34.12h0s0,0,0,0,.08.12.11.31a16.85,16.85,0,0,1,.33,2.89,20.91,20.91,0,0,0-.21-2.77,2,2,0,0,0-.09-.36l0-.13h0l.08,0,.31-.11a4.06,4.06,0,0,1,.55-.19,6,6,0,0,0,.85-.34c.14-.07.28-.14.41-.22l.26-.12a3,3,0,0,0,.49-.33l.14-.1.1-.08.1-.09,0-.06h0l0,.05s0,0,0,0a1,1,0,0,0-.1.17,1.81,1.81,0,0,0-.13.34v.06c.22-.65-1.86,5.67-1,3h-.09l-.43-.17-.84-.36-.4-.2-.25-.15-.51-.31-.49-.33-.35-.26-.69-.54-.54-.47c-.38-.33-.65-.61-1-.9-.58-.58-1.1-1.14-1.58-1.67-1.92-2.16-3.47-4.21-5-6.29S535.83,710.89,534.44,708.8Z"/><path class="cls-2" d="M831.72,670.73l-2.36.75-2.27.75c-1.1-.79-2.16-1.54-3.26-2.3l-4.06-2.68c-2.78-1.8-5.7-3.63-8.7-5.48l-3.41-2.09.45,4.13a5.3,5.3,0,0,1,0,.92,6.66,6.66,0,0,1-.12,1,3.85,3.85,0,0,1-.73,1.64,4.27,4.27,0,0,1-1.39,1.1,7.7,7.7,0,0,1-1,.33,4.26,4.26,0,0,1-1,.17,12.76,12.76,0,0,1-4.62-.82c-1.67-.55-3.36-1.23-5-1.94-6.76-2.91-13.57-6-20.09-8.67a106.6,106.6,0,0,0-16.54-4.84l-1.18-.23-.14.95c-.56,3.71-.46,5.32-.23,6.43a10.46,10.46,0,0,1,.12,4.88,60.92,60.92,0,0,1-7.33-.76l-5.9-.89c-2.11-.34-4.54-.75-7.36-1.25l7.51-2.91L726,655.84l-38.39,8.44-.87.28-.43.14a.58.58,0,0,0-.39.21c-.4.44-.83.88-1.26,1.31l-.91,1-.82.89c-.56.59-1.13,1.16-1.7,1.74-1.16,1.14-2.35,2.24-3.55,3.33-2.42,2.16-4.94,4.21-7.47,6.18-5.09,3.93-10.33,7.47-15.49,10.74-2.6,1.6-5.17,3.16-7.64,4.76a83,83,0,0,0-6.94,5,72,72,0,0,0-10.94,10.83c-1.25.86-3.15,2.48-3.92,2.91s-.55-.47,2.91-4.38c-4.72,4.76-6.92,8.45-8.19,11.28a25.4,25.4,0,0,0-1.92,7.12c-.16,1.1-.32,2.25-.47,3.55a33.17,33.17,0,0,0-.3,4.32,8.06,8.06,0,0,0,.09,1.12,4.21,4.21,0,0,0,.08.53l.06.24,0,.12.05.19c.27,1,.63,2.27,1.07,3.66.87,2.79,2,6.22,3.44,10.41-3.56-7.49-4.88-10.52-5.44-11s-.34,1.51.28,4.3c1.23,5.58,3.9,14,1,10.2l-2.13-4.79c1,2.65,2.12,5.38,3.26,8.17l1.7,4.19c.53,1.31,1.06,2.66,1.57,4a18.12,18.12,0,0,1,1.18,4.33,2.55,2.55,0,0,1-.32,1.07,3.83,3.83,0,0,1-.61.93,4.13,4.13,0,0,1-1.87,1.17,11.88,11.88,0,0,1-4.41.26,37.38,37.38,0,0,1-4.44-.74c-3-.66-5.83-1.57-8.57-2.44s-5.38-1.77-7.87-2.63c-5-1.74-9.33-3.39-12.78-4.8-1,.76,10.55,7.12-8.13-.13,7.44,3.2,4,3.13,2.89,3.88,9.92,3.28,17.47,6,24.21,8.25,1.69.55,3.31,1.07,5,1.54.84.23,1.64.47,2.49.66l.79.19.89.22c.6.14,1.19.22,1.78.33a23.43,23.43,0,0,0,6.69.4,11,11,0,0,0,5.48-2,8.18,8.18,0,0,0,2.93-2.64c.49-.66.57-.91.64-.86s-.26,1.33-1,2.43-1.87,1.88-1.78,2,.38-.06,1.1-.52a8.59,8.59,0,0,0,2.75-3.23,13.43,13.43,0,0,0,.29-2.69,11.11,11.11,0,0,0-.35-2.94,45,45,0,0,0-2.2-6.27l-.65-1.53-.32-.77-.24-.52L625,758l-1.8-3.77c-4-11.42,5.76,11.16-.63-6.55a18.09,18.09,0,0,1-1.84-3.36,45.92,45.92,0,0,1-2.46-6.48c0-.13-.1-.34-.1-.4l-.07-.27c0-.17,0-.41-.09-.63a9.25,9.25,0,0,1,0-1.64,17.68,17.68,0,0,1,1-4,36,36,0,0,1,4.7-8.7c-.61,1.18-1.2,2.36-1.7,3.55,2.3-4.6,6.56-9.52,9.63-12.77s4.82-5.18,2-4.34a89.77,89.77,0,0,1,11.61-6c-.9,0-1.83-.07-2.73-.07a76.1,76.1,0,0,1,6.64-4c1.07-.59,2.15-1.1,3.2-1.63l3.27-1.62c2.15-1,4.18-2.13,6.19-3.14s3.95-2.1,5.85-3.21A120.2,120.2,0,0,0,679,681.73c1.9-1.34,3.79-2.83,5.72-4.45,1-.83,1.94-1.67,2.91-2.61.49-.45,1-.93,1.47-1.43l.93-1,.26-.26a1.27,1.27,0,0,1,.36-.08l.29-.06,1.17-.25,2.68-.59,5.67-1.32c3.93-.94,8.17-2,12.79-3.27-9.58,1.59-1.11-1.13,3.88-2.53a108.47,108.47,0,0,0-15.37,3.32c-2,.59-3.95,1.22-5.95,1.86l-3.11,1-1.65.5-.21.07-.15.05-.15.07-.3.13a1.72,1.72,0,0,0-.49.24q-.13.24-.3.48l-.33.44-.82.92c-.57.64-1.19,1.26-1.83,1.92-.49.11-.35-.41.14-1.3.24-.44.57-1,.94-1.57.18-.29.42-.64.57-.91l.31-.65.36-.89c.17-.25.47-.34.71-.52l.8-.47c.44-.19.84-.37,1.19-.54a4.75,4.75,0,0,0,1.34-.84c.14-.21-.06-.33-.74-.33a11.72,11.72,0,0,0-1.41.08l-1.93.21-.53,0-.38,0c-.12,0-.32,0-.4.14l-.52.55.54-.52c.06-.11.19-.1.3-.12l.34,0,.66-.08,1.14-.14,1.4-.21,2.78-.45c1.84-.3,3.65-.63,5.43-1,3.54-.66,7-1.34,10.18-2s6.28-1.26,9.13-1.75q2.14-.37,4.11-.66l1.94-.24c.46,0,.8,0,1.18,0l.67.28.3.15.49.18c.68.25,1.32.51,1.93.78a20.59,20.59,0,0,1,3.25,1.76c4.2.81,8,1.48,11.47,2.06l14.26,2.34c1.15-4.6,2.25-9,3.35-13.37l-5.86,3.2a148.24,148.24,0,0,1,28,10.58L783,669c2.29-.22,5.81,1.49,11,3.85.63.29,1.33.58,2.06.88s1.5.59,2.33.88a10,10,0,0,0,1.33.4l1.45.36c.56.08,1.14.15,1.72.21a4.29,4.29,0,0,0,1,0l1,0,.52,0,.46-.09.93-.21a14.92,14.92,0,0,0,1.94-.67,10.92,10.92,0,0,0,3.72-2.9,10.32,10.32,0,0,0,2-4.33,11.06,11.06,0,0,0,.24-2.2,10,10,0,0,0,0-1.09c0-.18,0-.38-.05-.57l0-.3-.07-.42-6.71,4.62c2.61,1.39,5.38,2.75,8.31,4l-7.66-5.07,4.83-3.33c.06.45.06.64.08.93s0,.54,0,.8a10.61,10.61,0,0,1-.17,1.57,9.72,9.72,0,0,1-1.13,3.12,7.83,7.83,0,0,1,.19-2.08,11.91,11.91,0,0,0,.12-1.79c0-.34,0-.7,0-1.07a11.28,11.28,0,0,0-.18-1.27L809,665.24c2.53,1.29,6.18,3.42,10.52,5.91-1.11-.18-1.11-.18,1.21,1.82a5.64,5.64,0,0,1,2.2.61c1.12.46,2.48,1.09,4,1.82l3-1.6,3.05-1.58c2-1,4.07-2.07,6.17-3.1l1-.53-.89-.66-8.68-6.44c-2.42-1.79-4.37-3.22-5.23-3.75,2,1.71,4.26,3.52,6.53,5.26s4.65,3.5,7.1,5.27l.33.24-.39.2-12,6.11-5.68-3L816.07,669a31.16,31.16,0,0,0,5.7,1.76,19.7,19.7,0,0,1,5.28,2.06c.56-.28,1.22-.58,2-.92S830.59,671.19,831.72,670.73Z"/><path class="cls-2" d="M619.86,732.41a30.85,30.85,0,0,1,2.13-6.75A16,16,0,0,0,619.86,732.41Z"/><path class="cls-2" d="M895.14,627.63c3.73.86,5.27,1.66,5.74,2s-.12.39-.74.43-1.26.1-.92.45,1.64.94,4.84,2.48c3.68,1.21,4.58,1.37,4.09.72a23.38,23.38,0,0,0-4.42-3.12A47.8,47.8,0,0,1,899,627.7c-.31-.32-.25-.53.39-.58a13.36,13.36,0,0,1,3.84.51c4.48,2.21,10.37,4.92,15.76,7.89,2.69,1.47,5.26,3,7.46,4.41,1.11.72,2.11,1.42,3,2.08.45.32.86.57,1.25.84l1.14.6c-.41-.14-.79-.27-1.15-.37s-.65-.27-.94-.36a5.86,5.86,0,0,0-1.38-.36c-.71-.05-1,.26-1.09.74a2.57,2.57,0,0,0,.07.85,3.16,3.16,0,0,0,.44,1,9.42,9.42,0,0,0,.91,1.19,12.24,12.24,0,0,0,1.2,1c.51.2,1.07.36,1.66.55s1.24.3,1.91.41a16.83,16.83,0,0,0,4.32,0,25.41,25.41,0,0,0,8.77-3,48.21,48.21,0,0,0,7.8-5.45l.89-.77.72-.64.84-.75a21.09,21.09,0,0,0,1.48-1.53c-.67.61-1.28,1.11-1.78,1.5-.25.19-.48.36-.68.49l-.29.2-.4.31c-1,.7-1,.58-.53,0l1.79-2.14c.69-.84,1.47-1.83,2.14-2.78,0-.13.11,0,.17,0l.18.14.35.26c.22.17.43.32.61.44a2,2,0,0,0,.75.37c.1,0,0-.2-.3-.62-.16-.22-.39-.49-.7-.85l-.52-.59-.31-.34-.16-.19-.09-.09s0,0-.08,0l-1.5,1.43a11,11,0,0,1,1.42-2.73c.05-.15.13-.07.2,0l.23.14.51.33,1.17.8,3,2.12,7.6,5.44c5.34,3.82,11,7.52,14.38,10-.29.14-1,0-1.87-.4a36,36,0,0,1-3.35-1.77c-2.57-1.54-5.65-3.67-8.4-5.65-2.79-.82.39,2,4.78,5.23,2.2,1.6,4.68,3.32,6.82,4.79a24.63,24.63,0,0,1,4.56,3.62c1,.41,1.83.81,2.89,1.29.5.25,1,.59,1.46.89a9.46,9.46,0,0,1,1.48,1l1.45,1.23,1.29,1.5a16.93,16.93,0,0,1,2.14,3.65,22,22,0,0,1,1.57,9.53,39.87,39.87,0,0,1-.57,5.35c-.14.91-.36,1.81-.54,2.73s-.41,1.79-.7,2.88c-.72,2.09,0,4.44.77,6.24a42.46,42.46,0,0,0,2.52,5c1.84,3.13,3.82,6,5.78,8.71a159.07,159.07,0,0,0,10.81,13.28c3.08,3.37,5.43,5.53,6.53,6s.94-.63-.8-4a108.11,108.11,0,0,0-7.31-9.83c-2.53-3.14-5.18-6.32-7.71-10.13,3.27,5.52,5,8.29,5.49,9.43s-.28.63-1.53-.62-3-3.23-4.51-5-2.81-3.4-3.27-3.77c-1.1-2.11-2.43-4.5-3.61-7a28.4,28.4,0,0,1-1.55-3.93,10.54,10.54,0,0,1-.39-2.06,5.2,5.2,0,0,1,.29-2c2.06-6.86,2.14-12.12,2.88-9.5,0,.83-.09,1.67-.13,2.51s-.17,1.66-.27,2.5-.23,1.67-.38,2.49l-.42,2.37a4.93,4.93,0,0,0,.39,3.14c.2.45.44,1,.73,1.54s.57,1.08.89,1.61c-.23-.52-.45-1-.65-1.58s-.39-1.1-.5-1.52a4.56,4.56,0,0,1,0-3l.29-.91.31-1.09c.22-.73.41-1.48.6-2.23.38-1.5.7-3.05.94-4.63a32.64,32.64,0,0,0,.12-9.93,23,23,0,0,0-3.88-9.8l-.81-1.1-.4-.54c-.15-.17-.31-.33-.47-.49-.63-.65-1.26-1.3-1.91-1.93a30.23,30.23,0,0,0-4.37-3.12c-1.59-1-2.95-1.68-4.38-2.46s-2.82-1.61-4.21-2.48c-2.81-1.7-5.56-3.57-8.31-5.5s-5.43-4-8.09-6.11l-2.13-1.74-2.61-2.21-2.59-2.31-1.29-1.17-.64-.59-.32-.29c-.11-.1-.21-.23-.31-.17-2,2.41-4,4.93-6.19,7.11l-.81.8-.61.59c-.42.38-.83.78-1.26,1.14-.84.76-1.71,1.47-2.59,2.16a30.19,30.19,0,0,1-5.56,3.44,16.69,16.69,0,0,1-2.89,1,10.91,10.91,0,0,1-2.8.28,7.81,7.81,0,0,1-2.53-.61c-.2-.09-.39-.22-.59-.32a2.43,2.43,0,0,1-.57-.35l-.56-.4-.72-.58c-1.93-1.55-3.93-3-6-4.39a102.65,102.65,0,0,0-12.77-7.4,63.79,63.79,0,0,0-14-5,33.62,33.62,0,0,0-7.61-.83,19.21,19.21,0,0,0-7.8,1.62,16.67,16.67,0,0,0-1.82,1l-1.45.83c-.47.25-.91.54-1.41.77l-1.52.69c-1,.48-2,.88-3.1,1.27l-1.58.61-1.61.53c-4.28,1.45-8.65,2.64-13,3.71,4.54-1.06,9.06-2.22,13.44-3.66,1.11-.34,2.18-.75,3.25-1.14.54-.2,1.08-.39,1.61-.6l1.55-.68c.5-.23,1-.43,1.53-.69l1.43-.79.71-.39.87-.49a14.43,14.43,0,0,1,1.82-.87c-.36.35-.92.67-1.53,1.19l-1,.75-1,.74c-.37.26-.76.54-1.18.81l-1.4.75-1.53.79-1.67.72a154.91,154.91,0,0,1-15.23,5.22c4.7-.12,9.43-.32,14.23-.89-8,2.43-15.56,4.51-15.12,3.32-4.74,1.76-6,2.51-5.24,2.86s3.43.24,6.5,0c-5.61,1.47-10,2.38-13.69,3.07l-2.66.49-2.37.42-1.76.3c-.59.11-1.14.23-1.65.37l-.1,0h0a1.11,1.11,0,0,1,.26,0,1.91,1.91,0,0,1,.52.07,1,1,0,0,1,.67.79,3,3,0,0,1,0,.67l0,.17a.87.87,0,0,1-.06.23l-.1.31c-.14.44-.29.85-.44,1.23-.61,1.59-1.29,3-2,4.57a34.77,34.77,0,0,0,2.68-4.18c.2-.38.41-.77.6-1.22l.26-.58.06-.11a1.23,1.23,0,0,0,.16-.33.2.2,0,0,0-.19-.28.38.38,0,0,0-.18,0l-.07,0h.13a6.42,6.42,0,0,0,.84,0,3.69,3.69,0,0,0,.52-.1l.24-.06,1.29-.27c1.82-.38,3.49-.79,5.1-1.2,3.22-.81,6.2-1.7,9.63-2.66l12.34-3.51c2.53-.74,5.34-1.59,8.59-2.74.8-.24,1.67-.65,2.54-1a24.48,24.48,0,0,0,2.77-1.23l1.48-.76.73-.37.33-.14a3.3,3.3,0,0,1,.69-.26,4.12,4.12,0,0,1,.77-.2C888.24,629.77,891.56,628.33,895.14,627.63Z"/><path class="cls-2" d="M835.69,647.7c.11-.37.22-.72.32-1.13l.15-.59c0-.15,0-.21,0-.32a5.49,5.49,0,0,0-.11-1.24,1.94,1.94,0,0,0-1.15-1.42,4,4,0,0,0-1-.26,4.36,4.36,0,0,0-.52,0H833l.07,0-.09,0,.11,0,.22,0h.43a2.78,2.78,0,0,1,.86.15,1.41,1.41,0,0,1,.68.52,1.75,1.75,0,0,1,.25.79,4.4,4.4,0,0,1-.16,1.4l0,.18-.1.3-.21.6-.46,1.12a41.21,41.21,0,0,1-2.11,4A34.6,34.6,0,0,0,835.69,647.7Z"/><path class="cls-2" d="M832.91,637.5s0,0-.07,0c.17.07.13.42-.05.85a3,3,0,0,1-.37.67c-.16.15-.35.31-.54.46-.42.27-.65.68-1.48.44-.61-.07-.84,0-.57.06l.85.07.42,0c.15,0,.19,0,.29-.06l1-.32a12.72,12.72,0,0,0,1.68-.69c3.12-.47,5.32-.89,6.48-1.18s1.69-.51,1.52-.64a7,7,0,0,0-2.34-.16c-.36,0-.65,0-1.16,0l-1.6.1Z"/><path class="cls-2" d="M998.27,669a26.78,26.78,0,0,1,.12,7.71c-.15,1.34-.38,2.69-.66,4-.15.68-.29,1.36-.47,2l-.26,1-.35,1.31a8.87,8.87,0,0,0-.35,2.28,11.93,11.93,0,0,0,.27,2.3,11.81,11.81,0,0,1-.16-2.3,8.51,8.51,0,0,1,.46-2.23l.86-2.65c.26-.79.48-1.58.71-2.38a41.86,41.86,0,0,0,1-4.75c-.38.12-.42-1-.6-2.36l-.09-1.07c0-.36-.1-.72-.16-1.08s-.09-.7-.13-1S998.33,669.27,998.27,669Z"/><path class="cls-2" d="M1078.91,743.2a57,57,0,0,1-2.56,7.88,31.31,31.31,0,0,1-1.6,3.28,16.49,16.49,0,0,1-.88,1.43l-.45.64c-.15.21-.25.32-.38.48a5.16,5.16,0,0,1-3.91,2.15,4.55,4.55,0,0,1-2.16-.6,3.43,3.43,0,0,1-.49-.28c-.16-.11-.29-.18-.52-.35l-1.23-.9c-3.63-2.7-7.3-5.6-11.16-8.7-2-1.55-4-3.17-6.14-4.85a59.92,59.92,0,0,0-7.38-5.09,5.33,5.33,0,0,1-.8-.57c-.3-.26-.63-.56-1-.88-.68-.66-1.38-1.39-2.08-2.16-1.41-1.55-2.85-3.26-4.32-5.09-3-2.67-4.36-3.57-4.82-3.39s0,1.41.61,2.86c1.28,2.9,3.49,6.63.47,4.62a48.78,48.78,0,0,0,5.26,5.43,23.61,23.61,0,0,0,2.28,1.75,9.17,9.17,0,0,0,2.35,1.2,49.86,49.86,0,0,1,6.93,2.6,57.12,57.12,0,0,1,9.92,6.25,29.34,29.34,0,0,0,4.86,4.77c1.1.92,2.36,1.9,3.67,2.89.65.46,1.34,1,2,1.43a8.14,8.14,0,0,0,2.16,1,6.12,6.12,0,0,0,2.45.16,6.53,6.53,0,0,0,2.34-1,9.94,9.94,0,0,0,1.91-1.7,18.46,18.46,0,0,0,1.61-2.22,49.7,49.7,0,0,0,4.66-10.94c-.61.84-1.13,1.17-1.41.86S1078.77,745,1078.91,743.2Z"/><path class="cls-2" d="M1059.17,649.51c-1.25-1.47-2.3-2.53-3.37-3.77s-2.09-2.46-3.1-3.73c-2-2.53-4-5.13-5.88-7.68a124.87,124.87,0,0,1-9.53-14.8c1.72.69,6.23,7.24,10.48,14-.44-2.82-2.53-5.8-5.3-9.76-1.39-2-2.92-4.2-4.52-6.73-.42-.65-.7-1.24-1.06-1.89s-.7-1.28-1-2a27.12,27.12,0,0,1-1.48-4.46c0,.28.14.78.25,1.33s.31,1.09.4,1.53c.18.87.09,1.22-.94-.37a46.34,46.34,0,0,1-3.52-17.09c0-1,0-1.92,0-2.78s.08-1.68.12-2.45.11-1.53.17-2.27.12-1.48.26-2.23a48,48,0,0,1,3.15-11.46,69.16,69.16,0,0,1,4.41-9,101.53,101.53,0,0,1,8.16-11.93c3.4-5.7,7.88-10.57,5.92-10.81a105.42,105.42,0,0,1,10.41-8.85c1.19-.88,2.16-1.52,3-2.13l2.58-1.92c.86-.63,1.61-1.39,2.59-2.27s2-2,3.29-3.39a164.26,164.26,0,0,0,10.51-13.49c-.71.25-3,2.31-5.24,4.12s-4.61,3.34-5.37,2.65c3.48-4.42,6.34-8.47,8.88-12.07l6.7-9.56c3.95-5.62,7.08-9.8,10-13.48l2.2-2.68c.71-.88,1.5-1.68,2.25-2.52s1.5-1.68,2.33-2.47l2.57-2.41c.45-.4.89-.83,1.36-1.23l1.51-1.18c1-.8,2.09-1.63,3.24-2.48l3.71-2.67c1.31-.95,2.63-2,4.09-3.14-.6.56-1.2,1.17-1.87,1.85s-1.4,1.43-2.3,2.19-1.9,1.64-3.08,2.6-2.44,2-4,3.15c1.19-.05,2.82-1,5-2.6,1.1-.82,2.32-1.81,3.61-2.9s2.59-2.45,4-3.84a54.89,54.89,0,0,0,7.58-10.15,36.27,36.27,0,0,0,4.13-12.38c.7.64,1.41,1.32,2.1,2a47.78,47.78,0,0,0-.12-13.06c-.56-4.63-1.47-9.42-2.22-14.33-.1-.62-.19-1.23-.29-1.85l-.35-1.95c-.23-1.29-.43-2.59-.79-3.9a35.66,35.66,0,0,0-1.09-3.91c-.22-.65-.41-1.3-.66-1.95l-.86-1.93a16.15,16.15,0,0,0-5.79-6.94,11.15,11.15,0,0,0-2.29-1.07c-.4-.14-.83-.21-1.24-.31a6.06,6.06,0,0,0-1.26-.17,11.05,11.05,0,0,0-3.73.33,9.62,9.62,0,0,0-1.38.48l4.69,1.5c-.34-.85-.67-1.7-1-2.51.62.69,1.27,1.42,1.88,2.05l-6.09-1.94.69-.43.55-.31c.35-.18.72-.37,1.08-.52a10.52,10.52,0,0,0-1.13.36c-.18.06-.38.14-.59.23l-.3.14-.46.22,6.55,2.09a135.15,135.15,0,0,1-7.41-15.66,85,85,0,0,1-2.82-8.28,35.55,35.55,0,0,1-1.42-8.13,9.48,9.48,0,0,1,.34-3.23c.07-.2.16-.32.21-.5s.16-.2.21-.33.16-.11.21-.21a.64.64,0,0,0,.28-.17l.68-.25c.18,0,.42-.13.54-.12a1.74,1.74,0,0,1,.58,0,1.85,1.85,0,0,1,.49.34,5.4,5.4,0,0,1,.75,1.11,10.34,10.34,0,0,1,.73,1.63c.12.29.22.62.33.92s.18.6.35,1.17c.55,2.07,1,4.19,1.38,6.3.8,4.25,1.62,8.34,2.55,11.82a32,32,0,0,0,1.9,5.06c.67,1.41,1.33,2.63,2,3.76a18.32,18.32,0,0,0,1.07,1.63,1.66,1.66,0,0,0,.94.63,1.69,1.69,0,0,0,1.21-.34,12.16,12.16,0,0,0,2.74-3.17,39.71,39.71,0,0,0,2.26-3.95,43.29,43.29,0,0,0,2.09-5.06c1.29-3.78,2.4-7.92,3.39-11.8l1.86-5.49,1.48-4.19,2.88-8.23c4.52-21.72,1.64-11.1-1.84.92-.88,3-1.8,6.1-2.65,8.79-.49,1.48-.94,2.86-1.33,4.07s-.86,2.48-1.2,3.29c-.68,1.63-1.06,2-1.08.89a73,73,0,0,1,.91-7.81c2.77-1.8,3.85-7.44,5.19-15.63s2.94-18.93,7-30.91c2.39-5.52.94.7-.36,6.78s-2.49,12,.11,5.88c-.8-5.94,2.64-13.19,5.68-26.19.64,1.69,2.61-5,4.7-10.9a52.21,52.21,0,0,1,2.93-7.08c.81-1.42,1.25-1.59,1,.44.48-1.54,1-3.05,1.55-4.43.28-.68.58-1.33.87-1.88a7.27,7.27,0,0,1,.38-.67,3.47,3.47,0,0,1,.44-.57,90.18,90.18,0,0,0,15.51-18.76l.4-.74a3.61,3.61,0,0,1,.63-.53L1192,244c7.13-2.94,18.73-10.27,27.19-15.8-21.8,13.3,4.31-6.39-20.63,7.71l-8.19,5.27-9.72,6.19a9.37,9.37,0,0,0-1,.81l-.79,1-.47.69-.38.54-.79,1.08c-.54.71-1.11,1.43-1.69,2.14-1.17,1.43-2.42,2.84-3.74,4.25a94.48,94.48,0,0,1-8.92,8.25,11.79,11.79,0,0,0-2.57,3.14,34,34,0,0,0-1.69,3.28c-1,2.21-1.87,4.46-2.68,6.75-1.61,4.56-3,9.24-4.4,14-2.72,9.5-5.22,19.26-7.71,29s-4.93,19.44-7.44,28.84l-1.82,6.64q-.77,2.76-1.56,5.37c-1,3.47-2.1,6.74-3.3,9.66a24.46,24.46,0,0,1-.92,5.09,11.88,11.88,0,0,1-1,2.61c-.24.39-.55.84-1,.92s-.69-.32-.87-.64c-1.25-2.8-2.18-7.23-2.92-11.46-.66-3.72-1.2-7.33-2-10.41-.21-.78-.44-1.49-.72-2.24a17.65,17.65,0,0,0-.94-2.14,7.38,7.38,0,0,0-2.34-2.83,2.82,2.82,0,0,0-.52-1.43,3.9,3.9,0,0,0-.7-.79l-.46-.38-.53-.3a7.67,7.67,0,0,0-2.32-.72c-.72-.1-1.41-.18-1.83-.26l-.9.34c-.31.14-.64.34-1,.52a7.17,7.17,0,0,0-1.62,1.3,11,11,0,0,0-1.08,1.52,12.87,12.87,0,0,0-.64,1.47,14,14,0,0,0-.64,4.54c0,.58.06,1.09.08,1.54s.11.82.15,1.15a7,7,0,0,0,.28,1.33c.35,1,.19-.89.42-3.62a14,14,0,0,1,1-4.45,6.13,6.13,0,0,1,3-3.17,6.37,6.37,0,0,1,.79-.31l.66-.14a2.55,2.55,0,0,1,.84,0c.16,0,.18.09,0,.19s-.42.23-.86.48a5.63,5.63,0,0,0-2.15,1.39,8.7,8.7,0,0,0-.71,1,7.28,7.28,0,0,0-.5,1.15,15.48,15.48,0,0,0-.67,4.81,67.61,67.61,0,0,0,.71,8.29c.65,4.64.94,7.38.19,6.9a85.65,85.65,0,0,0,4,10.17c.71,1.43.84,1.33.87.87.07-.93-.26-3.24,2.93,2.05.44,1.94.89,3.88,1.42,5.83l.16.62,1.21-.18a6.13,6.13,0,0,1,2,0,5.59,5.59,0,0,1,1.82.62,6.58,6.58,0,0,1,2.39,2.65,15.48,15.48,0,0,1,3,5.06,42,42,0,0,1,1.81,6.47c.2,1.15.4,2.3.61,3.46l.54,3.67q.54,3.66,1.08,7.38a65.47,65.47,0,0,1,.77,14.67,27.82,27.82,0,0,1-5.18,13.41,61.72,61.72,0,0,1-10.77,11.12l-3.1,2.55-3.19,2.69c-1.09.87-2.05,1.88-3.07,2.84s-2,1.9-3,2.95l-2.85,3.08c-.92,1-1.8,2.14-2.7,3.21l-1.34,1.62-1.27,1.66c-.85,1.12-1.73,2.22-2.54,3.36-3.31,4.54-6.36,9.25-9.38,14s-5.94,9.55-9.07,14.2A73.51,73.51,0,0,1,1064.75,527a147.22,147.22,0,0,0-22.87,25.17c-6.5,9.25-12,19.38-14.57,30.36a51.72,51.72,0,0,0-1.37,16.71,47.27,47.27,0,0,0,4.29,16.07c-.16-1.17-.35-2.3-.45-3.44l-.18-3.4a44.47,44.47,0,0,0,4.5,10c1.9,3,3.78,5.95,5.7,8.74,3.81,5.6,7.64,10.8,11.61,15.61,1,1.2,2,2.37,3,3.49s2.07,2.17,3.18,3.3a16.39,16.39,0,0,1,1.63,1.94,11.39,11.39,0,0,1,.7,1.06c.22.35.43.71.61,1.06a27.73,27.73,0,0,1,2,4.46,48,48,0,0,1,2,9.29c.19,1.56.31,3.13.4,4.71l0,1.18,0,.93c0,.6,0,1.19,0,1.79.45.47.88,1,1.31,1.46l.75.88.84,1q1.67,2.07,3.18,4.29a64.41,64.41,0,0,1,5.44,9.55,75,75,0,0,1,7,9.73c-1.77-2.81-1.75-.89-2,.53-.13.72-.34,1.32-.82,1.2s-1.22-1-2.58-3a43.82,43.82,0,0,1,5.1,14.64,41.86,41.86,0,0,1,.46,7.82c-.09,2.62-.32,5.37-.51,8,.29-1.56.54-3.13.77-4.7l.32-2.37c.06-.77.16-1.54.2-2.32a41.36,41.36,0,0,0-.58-9.41,29.91,29.91,0,0,1,1.86,10,55.46,55.46,0,0,1-.91,9.59c-1,5.91-2.88,10.48-4.23,12.38-.73,3.47-1.44,5.75-1.81,7.19s-.46,2-.18,2c.56-.09,2.48-2.84,4.19-7a84.71,84.71,0,0,0,4.34-14.25c.54-2.38,1-4.61,1.33-6.44.1-.46.19-.9.27-1.31s.14-.83.21-1.2c.15-.74.27-1.34.36-1.77a53.87,53.87,0,0,0-1.94-10.18,76.29,76.29,0,0,0-2.84-8.06c-2-4.8-4-8.67-5.83-12.17s-3.6-6.61-5.5-9.67c-.94-1.53-1.93-3.05-3-4.59l-.83-1.15-.41-.57a2.34,2.34,0,0,1-.19-.26l-.08-.13c-.2-.36-.39-.69-.59-1,.09-.41.16-.73.22-1.16l0-.34c0-.25,0-.5,0-.76,0-.51,0-1,0-1.55a58.57,58.57,0,0,0-.46-6.83,41.37,41.37,0,0,0-1.84-8.12,29.79,29.79,0,0,0-2-4.57,21.76,21.76,0,0,0-1.53-2.47c-.3-.43-.64-.84-1-1.26s-.66-.74-.94-1c-1.16-1.16-1.92-1.91-2.67-2.7s-1.33-1.4-1.84-2a25,25,0,0,0-2-2.05c-.73-.56-.33.38.5,1.86s2.11,3.43,3.15,4.94S1059.67,649.68,1059.17,649.51Z"/><path class="cls-2" d="M1074.94,696.89c1.35,2,2.34,3.57,3.17,4.79A39.38,39.38,0,0,0,1074.94,696.89Z"/><path class="cls-2" d="M1219.22,228.19l4.46-2.76c.93-.57,1.88-1.18,2.88-1.83l.76-.5.1-.06v-.36l0-.48c0-.64-.06-1.3-.1-2-.4-2.23-.37-1.56-.2.88,0,.31,0,.64.06,1l0,.56c0,.09,0,.22,0,.28l-.24.17-2.27,1.52Z"/><path class="cls-2" d="M1080.54,745.39s0,0,0-.08a1.85,1.85,0,0,1,.05-.28Z"/><path class="cls-2" d="M1073.17,765.13a12.45,12.45,0,0,0,3.16-1.91,18.38,18.38,0,0,0,1.37-1.27l.64-.7.31-.35.24-.32a29.77,29.77,0,0,0,3.25-5.22c-.58.49-1.19.95-1.78,1.39-.35.74-.7,1.48-1.12,2.21-.19.37-.44.74-.67,1.1l-.36.55-.45.6A13.6,13.6,0,0,1,1073.17,765.13Z"/><path class="cls-2" d="M1219.46,156l-.63-.86C1218.33,156,1218.24,156.52,1219.46,156Z"/><path class="cls-2" d="M1129.15,135.09l6.61-1.27A56.12,56.12,0,0,0,1129.15,135.09Z"/><path class="cls-2" d="M831.06,189.78c1.22-2.82,2.54-5.85,3.9-9,1.95-4.47,3.95-9.08,5.88-13.5l8.63-1.31c3-.48,5.8-.91,8.61-1.42,1.72-1.3,3.2-2.38,4.64-3.42s2.76-2,4-2.82L866,160c.94-.58,2.11-1.29,3.45-2a37.72,37.72,0,0,1,4.5-2.25,10.78,10.78,0,0,1,5.49-.52,14.09,14.09,0,0,1,2.73.73,13.45,13.45,0,0,1,1.29.54c.21.09.41.2.61.3s.36.18.53.28a15.92,15.92,0,0,1,1.74,1.11c.26.37.67.09,1,0l1-.36c.67-.26,1.27-.5,1.79-.73s1.14-.49,1.58-.71c1-.46,1.27-.75,1.34-1s-.24-.34-1-.34c-.46,0-1.06.09-1.82.18-.17,0-.44.07-.55.07l-.43,0-.93.07a3.65,3.65,0,0,0-.86,0l-.27.14-.22-.1c-.38-.17-.81-.35-1.29-.51l-.34-.11-.59-.25c-.42-.16-.83-.31-1.25-.45a18.74,18.74,0,0,0-3.72-1.12,14.21,14.21,0,0,0-3.54-.14,10.27,10.27,0,0,0-1.6.24,9.3,9.3,0,0,0-1.47.39c-.45.17-.92.33-1.31.49l-1,.47c-2.68,1.22-4.64,2.16-6.32,2.88s-3.06,1.25-4.43,1.76l-2.1.8a4.68,4.68,0,0,1-.8.25l-.64.16-1.16-.2c-.75,0-1.64,0-2.59,0-1.91,0-4.19.09-7,.28l-9,1.13c-1.14,2.51-2.2,4.9-3.21,7.21l-2.89,6.73c-1.8,4.25-3.31,8-4.63,11.37a15.86,15.86,0,0,1,0,5,27.35,27.35,0,0,1-.55,2.85c-.12.49-.26,1-.41,1.51l-.11.39,0,.09c0,.05,0,0,0,0l.12-.17.47-.67c1.27-1.81,2.73-3.74,4.29-5.67a29.91,29.91,0,0,1,5-5.23,6.18,6.18,0,0,1,1.73-.91,2.87,2.87,0,0,1,1.17-.09l.31.05.31.12.16.06.6-.62,1.21-1.25.07-.08,0,0c.28-.41-.59.9.63-.92h0l0,0,0,.06-.12.09a1.09,1.09,0,0,1-.41.27l-.29.16,0,0V182a1.55,1.55,0,0,1,0,.21c-.05.59-.21,1-.38,1s-.36-.1-.56-.38a3.43,3.43,0,0,0-.32-.43.44.44,0,0,0-.16-.15l0,0s0,0,0,0h.06a5.64,5.64,0,0,0,.94-.29,7.21,7.21,0,0,1-1,.31h-.09v0s0,.12,0,.19,0,.4,0,.64c0,.48,0,1-.07,1.57-.09,1.09-.21,2.2-.35,3.28-.29,2.19-.57,4.23-.82,6.15-.54,3.88-1,7.32-1.35,10.56a156.4,156.4,0,0,1-3,19.11l-.09.84c-1.78,1-3.11,4.31-3.94,9.3a90.09,90.09,0,0,0-.77,19.16A83.81,83.81,0,0,0,829.71,265a46.26,46.26,0,0,0,1.68,6.24,24.24,24.24,0,0,0,3.1,6.16c.18.24.35.5.54.72l.58.64,1.16,1.26a14.22,14.22,0,0,0,1.29,1.16,12,12,0,0,0,1.36,1.09,17.13,17.13,0,0,0,6.39,2.85,16.87,16.87,0,0,0,6.86,0,20.57,20.57,0,0,0,3.3-.94,14,14,0,0,0,3.19-1.58c.62-.88,1.18-1.81,1.72-2.74s.92-1.68,1.34-2.53.79-1.66,1.18-2.48.72-1.65,1-2.48a73.68,73.68,0,0,0,3.07-9.68c.1-1.34.09-2.72.11-4.11l-.11-2.11,0-1.07-.13-1.07c-.08-.72-.17-1.44-.26-2.17s-.27-1.45-.41-2.18-.28-1.49-.45-2.18l-.51-2.08c-1.38-5.6-2.88-11.41-4.16-17.39A102.18,102.18,0,0,1,859,210.14a39.52,39.52,0,0,1,.76-9l.61-2.12a5.64,5.64,0,0,1,.38-1l.43-1a15.2,15.2,0,0,1,1-2c.18-.34.36-.68.55-1l.61-.95a12.2,12.2,0,0,0-.92,2.1c-.14.44-.14.63,0,.62s.8-.93,1.77-2.09a14.57,14.57,0,0,1,3.73-3.6,4,4,0,0,1,2-.66,1.94,1.94,0,0,1,.75.11,2.09,2.09,0,0,1,.3.14l.11.08s0,0,0,0l.29-.35,0,0c.32-.39-.39.5-.33.4h0l0,0,0,0,4.7-1.5a23.69,23.69,0,0,1,1.59-4.47c.47-.9.8-1.06.9-.1-.31-1-.16-2.79.46-5.13a30.59,30.59,0,0,1,3.55-8.1,19,19,0,0,1,3.29-4,8.8,8.8,0,0,1,4.39-2.3,6.85,6.85,0,0,1,2.43,0l1.29.34,1.61.52,6.48,2a44,44,0,0,1,5.93,2.15,13,13,0,0,1,4.31,3.16c2.26,2.59,3.63,6.14,4.75,9.26,2,6,2,10.9,3.47,12.14a63.53,63.53,0,0,1-3.33,12.9c-.91,2.46-1.34,3.51-1.54,4.12s-.23.77-.42,1.41c-.1.31-.25.75-.52,1.4s-.62,1.46-1.3,2.8a14,14,0,0,0-.41,2.84,8.65,8.65,0,0,0,.08,1.87,3.56,3.56,0,0,0,.35,1.15,2.25,2.25,0,0,0,1.17,1.12,2.74,2.74,0,0,0,1.65,0,5.8,5.8,0,0,0,1.29-.57,14.54,14.54,0,0,0,2.26-1.66c1.48-1.27,2.85-2.81,4.52-4.37.2.26-.84,1.57-2.13,3.11A18.25,18.25,0,0,1,917,224a12,12,0,0,0,2.92-1.86,24.6,24.6,0,0,0,2.14-2c1.22-1.28,2.32-2.5,3.39-3.68l2.94-3.17a15.72,15.72,0,0,1,2.74-2.39,3.72,3.72,0,0,1,3.46-.55,4.51,4.51,0,0,1,1.48,1,13.63,13.63,0,0,1,1.22,1.39,19.27,19.27,0,0,1,3.39,7.76,41.89,41.89,0,0,1,3,13.42c.19,2.17.43,2.45.75,2.33s.74-.64,1.13,0a6.81,6.81,0,0,1,.42,2.19,13.46,13.46,0,0,1,.06,2.19c-.07.87-.17,1.9-.31,3.12a9.67,9.67,0,0,1-.4,1.45c-.16.46-.31.92-.46,1.37-.32.88-.55,1.77-.91,2.56-.73,1.57-1.38,3-2,4.34-1.34,2.55-2.45,4.67-3.36,6.48l-4,7.78a41.38,41.38,0,0,0-2.63,5.77,12.26,12.26,0,0,0-.48,1.9,5.12,5.12,0,0,0,.06,2.23,1.22,1.22,0,0,0,.29.51l.43.35,1,.76a12.34,12.34,0,0,0,2.84,1.56c.47.3,1.3.75,2.22,1.24a3.4,3.4,0,0,1,.49-.07,3.65,3.65,0,0,1,.49-.06,6.87,6.87,0,0,1,1.18,0,20.75,20.75,0,0,1,3.21.61c.62.15,1.28.33,2,.54s1.37.41,2.27.7l2.64.88c.23.08.45.17.68.23l.67-.35,1.34-.71,5.31-2.83c1.77-.95,3.59-1.95,5.42-3,3.67-2.07,7.36-4.28,10.75-6.58-1.81.94-7.76,4-11.72,5.73s-5.87,2.28.46-1.63c8.58-4.41,14.43-7.8,18.89-10.59s7.54-5,10.49-7.22,5.78-4.48,9.57-7.55c1.89-1.55,4-3.3,6.41-5.43a54.5,54.5,0,0,0,7.42-7.72,13.64,13.64,0,0,1,2.26-1.93c.15,0,.22,0,.23.16a1.53,1.53,0,0,1-.2.78,13.21,13.21,0,0,1-2.05,3.1,38.13,38.13,0,0,1-3.64,3.68c-2.61,2.36-5.18,4.24-5.37,4.55-.1.14.39-.11,1.71-1a60.17,60.17,0,0,0,6.39-4.78,84.5,84.5,0,0,1-11.75,10.73c-4,3.09-7.8,5.81-11.39,8.3-7.2,5-13.4,9.1-18.24,13.07,6.78-3.69,13.84-7.76,20.94-12.29S1009.47,252,1016,246a43.58,43.58,0,0,0,4.57-5,19.68,19.68,0,0,0,1.91-2.93,10.66,10.66,0,0,0,1.21-3.52,7.32,7.32,0,0,0,0-1.87l-.18-1.7c-.13-1.11-.28-2.2-.44-3.29-.31-2.17-.68-4.33-.94-6.46-.13-1-.23-2.15-.25-3.13a11.28,11.28,0,0,1,.28-2.95,5.63,5.63,0,0,1,1.39-2.6,7.24,7.24,0,0,1,2.49-1.62,21,21,0,0,1,6.06-1.23c2.1-.17,4.23-.18,6.33-.28,4.67.1,6.41.17,6.63.33s-1.1.38-2.54.57c-2.89.38-6.31.75,1.08.81a67.1,67.1,0,0,0,17.11-1.43,22,22,0,0,0,7.52-3.23,11.16,11.16,0,0,0,3-3.06,10,10,0,0,0,1.43-3.86c.63-4.35-.1-8.27-.15-11.94a24.53,24.53,0,0,1,2.26-10.73,51.09,51.09,0,0,1,5.91-9.73,87.23,87.23,0,0,1,7.93-9.2q-1.23,2.6-2.36,5.2a75.53,75.53,0,0,1,9.46-11.58c1.07-1.09,2.18-2.21,3.37-3.33l1.71-1.58.43-.39c.15-.12.37-.1.55-.15l1.15-.23,10.64-2,23.13-4.29,11.69-2.27,5.72-1.17,5.92-1.27,1.49-.52.73-.26.36-.12.09,0,0-.09,0-.18c.28-1,.63-2,1-2.93.13-.44.23-.85.35-1.25l-.6,1.1c-.76,1.18-1.16,2.05-1.4,2.39-.09.08-.08.21-.22.15a.57.57,0,0,1-.23-.09c-.11-.11.08-.09,0-.52a5.71,5.71,0,0,1,.06-1.65c.34.32.69.15,1.16-.64.91-1.38,1.9-4.38,4.23-7.82a14.86,14.86,0,0,1,5-4.71l7.3-4.06c.07-3.59.15-7.42.23-11.37s.25-8.06.46-12.17.48-8.23.85-12.25l.15-1.51a10.29,10.29,0,0,1,.29-1.56c.22-1,.46-1.94.71-2.89.49-1.91,1-3.77,1.62-5.56-1,.64-1.18-2.58-.37-7.87a50.77,50.77,0,0,1,2.34-9.34,20.33,20.33,0,0,1,1.26-2.8,7.81,7.81,0,0,1,.46-.77l.25-.39.33-.41.33-.42c.12-.14.3-.3.45-.45l.5-.44c.2-.15.47-.31.71-.46a3.76,3.76,0,0,1,.85-.39,6.68,6.68,0,0,1,1.09-.27l.26,0h1a4.51,4.51,0,0,1,1.16.09,8.52,8.52,0,0,1,1.14.23l1.09.37c.35.15.67.32,1,.49a5.62,5.62,0,0,1,.69.4,3.67,3.67,0,0,1,.43.3,5.83,5.83,0,0,1,1.24,1.24c.16.23.32.46.46.69s.13.24.19.36l.09.18c0,.06.06.16.09,0a7.2,7.2,0,0,1,2.17-2.7l.14-.11.07,0h0l-.1,0-.08,0h0l.06,0,.84-.47a14.3,14.3,0,0,1,1.75-.77,14.79,14.79,0,0,1,3.62-.79,9.75,9.75,0,0,1,1.59.1,8.92,8.92,0,0,1,1.31.22,15.58,15.58,0,0,1,1.84.59,3.52,3.52,0,0,1,1.3.94c.36.52-.1.87-.22,1.18l-1.41-.37c-.52-.12-1.08-.22-1.6-.32a13.13,13.13,0,0,0-3.19-.08,7.88,7.88,0,0,0-1.53.25,8.56,8.56,0,0,0-1.44.43l-.69.26-.64.33-.5.26-.36.23a9,9,0,0,0-3.12,3.66c-.06.21-.09,0-.14-.08l-.14-.28-.3-.55a10.08,10.08,0,0,0-.69-1,7,7,0,0,0-1.69-1.58,8.79,8.79,0,0,0-1.62-.84,6.3,6.3,0,0,0-2.07-.48,3.49,3.49,0,0,0-1,0,3.79,3.79,0,0,0-1.11.2,3.19,3.19,0,0,0-1,.62,6.11,6.11,0,0,0-.63.75,10.75,10.75,0,0,0-1.37,3.08c-.31,1-.57,2.09-.79,3.2-.88,4.41-1.57,9.52-2.83,17.12a100.33,100.33,0,0,1,3-13.82,33.79,33.79,0,0,1,2.85-7,6,6,0,0,1,1-1.27.88.88,0,0,1,.23-.17c.06,0,.13-.1.15-.07s.34,0,.58,0a4.33,4.33,0,0,1,1.52.36,7.45,7.45,0,0,1,.75.43,5.68,5.68,0,0,1,.83.75,10.27,10.27,0,0,1,2.64,2.15,10.56,10.56,0,0,1,.94,1.23c.15.2.27.42.4.63l.18.32.08.17,0,0,0,0,.05-.08a10.87,10.87,0,0,1,4.77-4.09l.45-.35a1,1,0,0,1,.17-.12l.1-.06.19-.1c.26-.12.5-.29.77-.39l.8-.32.83-.22a4.6,4.6,0,0,1,.84-.14c.28,0,.56-.09.85-.1a10.88,10.88,0,0,1,1.71.08c1.1.11,2.39.41,3.57.63l3.5.69a23.15,23.15,0,0,1,6.12,1.9,9.83,9.83,0,0,1,2.28,1.74,8.06,8.06,0,0,1,1.41,2.32,6.84,6.84,0,0,0-5.21-3.17,7.42,7.42,0,0,1,2.74,2.4,12.56,12.56,0,0,1,.67,1.57c.23.64.44,1.26.65,1.86.82,2.45,1.53,4.61,2.23,6.53,1.38,3.84,2.65,6.73,3.94,9.64s2.54,5.86,4.13,9.74c.41,1,.83,2,1.32,3.05a26.67,26.67,0,0,0,1.72,3.24,6,6,0,0,0,1.28,1.45,7.4,7.4,0,0,0,.84.59l1,.65c1.32.89,2.72,1.86,4.21,3l-3.24-.3a121.64,121.64,0,0,1,11.2,7.58l1.31,1.07.65.55.56.51a21.09,21.09,0,0,1,2.14,2.19,7.58,7.58,0,0,1,1.54,2.61,2.51,2.51,0,0,1,0,1.51,4.13,4.13,0,0,1-.83,1.29,36,36,0,0,1-2.51,2.58l-1.4,1.3-1.52,1.39q-3.07,2.74-6.24,5.44c-4.22,3.6-8.5,7.17-12.78,10.72-8.56,7.15-17.19,14.15-25.37,21.53-1,.94-2,1.89-3,2.88-.51.52-1,1-1.52,1.63-.27.31-.5.64-.74,1a9.21,9.21,0,0,0-.56,1.08,23.75,23.75,0,0,0-1.27,4.27c-.29,1.37-.53,2.72-.74,4.06-.83,5.36-1.31,10.63-1.7,15.81s-.64,10.25-.81,15.22c0,1.39-.08,2.78-.13,4.17,0,.7,0,1.41,0,2.11l1.71,1.25,6.82,4.9c1,.52,2,1,3,1.58l1.48.81.37.21s.13.1.16.07l0-.2.1-.84a22.66,22.66,0,0,1,1.86-6.44,9.77,9.77,0,0,1,.65-1.47,4.58,4.58,0,0,1,.86-1.06,2.92,2.92,0,0,1,2.44-.74c.43,0,.61-.06.55-.28a.72.72,0,0,0-.32-.36,2.27,2.27,0,0,0-.78-.38,3.84,3.84,0,0,0-2.87.36,5.44,5.44,0,0,0-.79.49c-.23.17-.53.45-.67.57a6.42,6.42,0,0,0-.86.87,12.26,12.26,0,0,0-1.84,3.22l-.15.41-.61-.68-1-1.23a19.53,19.53,0,0,1-1.32-1.77,1.42,1.42,0,0,1-.2-.61l-.52-.26-.42-.26-.51-.32-1-.66a8,8,0,0,1-.1-1.13l-.06-1.26c0-.75,0-1.49,0-2.23v-4.43c0-5.8,0-11.12.15-16.22.07-2.55.16-5.05.32-7.51a57.61,57.61,0,0,1,.84-7.2,12.83,12.83,0,0,1,.4-1.57,5.44,5.44,0,0,1,.76-1.4c.64-.89,1.53-1.87,2.35-2.8,1.72-1.87,3.56-3.72,5.48-5.61l1.3,1.93c2.51-4.44,21.69-21.9,10-13.57,6.31-6.14,9.17-7.9,12.27-9.89s6.46-4.19,13.56-11.36c.39,2.94-8.56,11-7.41,12.65,4.2-4.13,8.4-8.25,12.52-12.57-.89,1.13-.81,1.28-.23.94.28-.17.69-.46,1.16-.82l.74-.58.85-.7,2.13-1.89c.65-.59,1.17-1.12,1.57-1.46s.6-.51.61-.37-.23.56-.8,1.4a15.8,15.8,0,0,0,1.17-1.6c.3-.52.61-1,.85-1.47l.38-.9c.11-.3.19-.62.28-.93a6.26,6.26,0,0,0,.1-2,9.37,9.37,0,0,0-1.24-3.64,22.56,22.56,0,0,0-5-5.68l-.71-.59-.53-.42-1-.81c-.7-.53-1.39-1-2.06-1.51-1.36-1-2.68-1.88-4-2.75-2.59-1.73-5.06-3.34-7.46-4.9l-1.67-1.1a2.79,2.79,0,0,1-.8-.73c-.11-.14-.2-.3-.3-.44s-.13-.26-.27-.51l-.36-.75-.34-.81a63.7,63.7,0,0,1-2.39-7.5c-.73-2.7-1.41-5.54-2.14-8.56s-1.5-6.22-2.44-9.69c-.47-1.75-1-3.54-1.63-5.51l-.27-.76-.32-.88a14.55,14.55,0,0,0-1-2.08c-.18-.34-.42-.65-.62-1l-.76-.88a14.75,14.75,0,0,0-1.74-1.61,14.63,14.63,0,0,1,2.44,2.66,13.62,13.62,0,0,1,1.52,3.28c.57,1.73,1,3.27,1.35,4.83.77,3.11,1.45,6.14,2.17,9.15-.67.1-1.63-2.43-2.74-6-.57-1.79-1.16-3.82-1.88-5.95-.2-.56-.36-1-.62-1.69a12.52,12.52,0,0,0-.92-2,10.64,10.64,0,0,0-2.88-3,12.65,12.65,0,0,0-2.68-2.14,24.74,24.74,0,0,0-2.59-1.34,46.8,46.8,0,0,0-5-1.79c-.84-.26-1.7-.51-2.59-.76l-.68-.18a3.29,3.29,0,0,0-.37-.1l-.47-.1a20.07,20.07,0,0,0-2-.33,15.05,15.05,0,0,0-4.67.25,14.83,14.83,0,0,0-2.53.76c-.42.16-.82.38-1.25.59l-.31.15-.08,0,0,0s-.06,0,0,0l.17-.08h0l0,0-.19.1a4.82,4.82,0,0,0-1.83,1.7c0,.1,0-.08-.08-.15l-.12-.3c-.08-.21-.18-.43-.28-.65a3.78,3.78,0,0,0-1.09-.86l-.77-.43a11.77,11.77,0,0,0-1.85-.81l-1-.3c-.34-.08-.69-.12-1-.17a8.83,8.83,0,0,0-2-.06l-.54,0a9.15,9.15,0,0,0-1,.22,6.14,6.14,0,0,0-.93.34l-.69.4a7.29,7.29,0,0,0-.62.43l-.44.41a6.3,6.3,0,0,0-.73.79l-.54.74-.4.67c-.28.47-.43.86-.64,1.29a30.51,30.51,0,0,0-1.52,4.64c-.38,1.51-.7,3-1,4.53-.59,3-1.13,6.24-1.74,9.8-.3,1.78-.63,3.65-1,5.65-.18,1-.36,2-.54,3.1,0,.27-.1.54-.14.81a6.67,6.67,0,0,0-.13,1c0,.56-.07,1.13-.1,1.72-1.07-2.09-1.9,5.14-2.73,13.7-.42,4.29-.83,8.91-1.27,12.87-.12,1-.23,1.94-.34,2.83,0,.22,0,.44-.08.66a5.07,5.07,0,0,1-.08.51c0,.2-.09.39-.14.57a3.18,3.18,0,0,1-.61,1.41,1.46,1.46,0,0,1-.79,0c.08.34-.15.75-.68,1.25-.08.06-.12.11-.23.19l-.52.34-1.13.7-1.25.74c-.53.32-1.16.73-1.74,1.12a21,21,0,0,0-5.74,6.45,31.57,31.57,0,0,0-2,3.84c-.27.66-.53,1.32-.77,2l-.22.64-.16.51c-.15.53-.29,1.06-.39,1.59,0,.19-.16.17-.29.21l-.41.09-.8.17-3.32.73c-1.38.3-2.63.59-3.71.86a15.42,15.42,0,0,0-4.1,1.36c-10.43,2.61-24.91,5.21-25.08,3.87,1.51-.37,4.59-1.24,7.84-2l-10.5,2c.94-.49.52-.62,1.74-.92a67.13,67.13,0,0,0-9.6,2.65,41.93,41.93,0,0,1-4.61,1.17c-.93.19-2,.36-3.17.53l-2.58.38-1.6.24c-.27.06-.45.31-.69.46l-.68.53c0-.08.06-.26.26-.53s.23-.29.39-.46l.25-.28c.05,0,.09-.1.14-.14l.2-.06c.54-.16,1.2-.35,2-.54l2.18-.54,7.94-1.89c-1.57.28-3.11.58-4.62.89l-4.77,1-1.79.39-.88.21-.44.1-.34.3c-.9.82-1.78,1.64-2.56,2.41l-.29.28-.2.21-.4.4-.78.82-1.52,1.63a150.25,150.25,0,0,0-10.64,13.18c-1.6,2.22-3.14,4.43-4.63,6.66-.74,1.11-1.48,2.22-2.21,3.4s-1.43,2.35-2.13,3.55a45.14,45.14,0,0,0-3.49,7.86,41.27,41.27,0,0,0-1.68,8.73,13.66,13.66,0,0,1,.27,1.46c.08.59.17,1.34.24,2.1a25.06,25.06,0,0,1,0,5.26,5.18,5.18,0,0,1-.73,2.27,7,7,0,0,1-1.79,1.93,21.65,21.65,0,0,1-5.23,2.69c-3.37,1.27-5.41,2-3.11,2.67-4,.1-5.25-.62-8.14-1a56.75,56.75,0,0,0-6.13-.52c-1.41-.06-3.07-.1-5-.13l-3.22,0c-1.22,0-2.54,0-4,.19-.41.1-.83.2-1.24.32s-.81.22-1.26.36a23.18,23.18,0,0,0-2.68.94,13.43,13.43,0,0,0-2.47,1.35,9.43,9.43,0,0,0-2,2,10.66,10.66,0,0,0-1.83,5.29,34.81,34.81,0,0,0,0,5.3c.2,3.35.54,6.66.79,10.13l0,.56a3.85,3.85,0,0,1,0,.48,5.09,5.09,0,0,1-.09.95,7.86,7.86,0,0,1-.67,1.88,28.43,28.43,0,0,1-2.91,4.44,18.17,18.17,0,0,0,2.71-4.84,4.59,4.59,0,0,0,.21-2.06c-.18-.83-.31-.75-.36-.67s-.14.22-.38-.31c-.27-.95-.77-2.92-2-7.58.12,1.86.31,3.74.51,5.68.08.79.16,1.59.24,2.41a3.06,3.06,0,0,1-.22,1.29,1.72,1.72,0,0,1-.14.36l-.24.5c-.21.35-.41.72-.67,1.1a26.37,26.37,0,0,1-1.8,2.41,57.22,57.22,0,0,1-4.82,5.05,146,146,0,0,1-27.83,19.86c-2.51.84-2.76.21-5.29,1-3.87,2.66-8,5.67-12.26,8.31a66.58,66.58,0,0,1-6.53,3.61c-1.1.52-2.21,1-3.33,1.42a5.8,5.8,0,0,1-2.34.57,6.69,6.69,0,0,0,1,1.28l-1.22.51-.3.12-.15.07-.16-.07-.64-.29-1.27-.55-1.83-.76-7.52-3-1.51-.62-.75-.31c-.12-.07-.27-.08-.36-.2a1,1,0,0,1-.15-.38,8.17,8.17,0,0,1,.54-3.28c.19-.53.34-1,.57-1.58.29-.77.6-1.61,1-2.42.66-1.63,1.43-3.25,2.17-4.86s1.56-3.21,2.41-4.77c.42-.78.83-1.56,1.25-2.33.2-.37.41-.79.62-1.23l.64-1.3,1.26-2.57c.36-.87.68-1.77,1-2.64s.72-1.74.95-2.64.51-1.78.75-2.66c0-.51.08-1,.09-1.53l0-1.53c-.05-1-.05-2-.14-3a44.53,44.53,0,0,0-1-5.93,39.92,39.92,0,0,0-4.36-10.81c-.26-.88-.6-1.75-.91-2.64s-.76-1.73-1.15-2.62c-.21-.45-.45-.84-.7-1.3s-.58-1-.92-1.53a22.32,22.32,0,0,0-2.2-2.85,9.51,9.51,0,0,0-1.3-1.24,3.46,3.46,0,0,0-.71-.55,5.35,5.35,0,0,0-.78-.43,6.51,6.51,0,0,0-3.56-.58,14,14,0,0,0-6.66,3.37l-1.49,1.26-1.13,1c-.74.71-1.47,1.41-2.17,2.14-1.41,1.41-2.81,3-4,4.21a14.49,14.49,0,0,1-1.76,1.52l-.31.2s-.1.07-.1,0h0l.11.43a2.43,2.43,0,0,1,.16.81,1.58,1.58,0,0,1,0,.53.69.69,0,0,1,0,.13l0,.07h0a.76.76,0,0,1,.08-.11,2.15,2.15,0,0,1,.35-.27,3.24,3.24,0,0,1,.67-.36l.45-.19.1,0s0,0,0,0,0,0,0-.08a4.82,4.82,0,0,1-.11-.91,9,9,0,0,1,.12-1.93c.2-.48.72-1.72,1.09-2.71s.76-2,1.09-3.09c.69-2.06,1.23-4.15,1.73-6.22a55.27,55.27,0,0,0,1.44-12.29A32.19,32.19,0,0,0,920,182a33.43,33.43,0,0,0-4.59-8.58c-.17-.27-.32-.57-.5-.85l-.59-.81a13.34,13.34,0,0,0-1.33-1.59,6.74,6.74,0,0,0-.78-.73c-.27-.22-.52-.49-.82-.69a18.41,18.41,0,0,0-1.83-1.18,46.37,46.37,0,0,0-8-3.17c-2.53-.83-4.74-1.58-6.27-2.2s-2.56-1-2.5-1.16c1.37.16,3,.5,4.91.85s4.18.72,6.63,1.23l-5.79-1.75c-1-.3-1.93-.62-2.9-.94-.49-.16-.91-.32-1.55-.49a10.18,10.18,0,0,0-1.84-.38,11.48,11.48,0,0,0-3.83.12,12.92,12.92,0,0,0-3.51,1.35,18.43,18.43,0,0,0-5.21,4.51,33.71,33.71,0,0,0-5.55,10.17,26.59,26.59,0,0,0-1.65,8.51c-.29,1.24-.53,2.34-.69,3.19l1.76-.56a5,5,0,0,0-1.25-.75,6.2,6.2,0,0,0-1.19-.36,7.87,7.87,0,0,0-1.14-.14c-.36,0-.72,0-1,.06a10.44,10.44,0,0,0-3.16,1,33.7,33.7,0,0,0-3.75,2.28c-.49.37-1,.71-1.52,1.14s-1,.91-1.61,1.5-1.12,1.3-1.77,2.19c-.3.49-.63,1-1,1.63a10.8,10.8,0,0,0-1,2A37.79,37.79,0,0,0,854,207.44a71.55,71.55,0,0,0,.77,10.71c.47,3.65,1.16,7.36,1.92,11.1s1.6,7.52,2.45,11.28c.42,1.88.83,3.76,1.25,5.64.2.93.41,1.87.61,2.8s.3,1.79.46,2.69a40.77,40.77,0,0,1,.2,10.51,42.79,42.79,0,0,1-2.26,9.65,40,40,0,0,1-3.44,7.39,9.78,9.78,0,0,1-2.24,1.12l-.67.22c-.23.09-.47.13-.71.2a10,10,0,0,1-1.38.3,14.83,14.83,0,0,1-5,0c-3-.55-5.19-1.77-6.78-2.18a14.89,14.89,0,0,0,7.66,4.3,15.72,15.72,0,0,0,11-1.87,42.57,42.57,0,0,0,6.76-19,41.46,41.46,0,0,0-.39-11.26c-.32-1.9-.77-3.76-1.22-5.63l-1.38-5.61c1.11,3.19,1.62,3.44,2.14,4a4.78,4.78,0,0,1,.86,1.57,17,17,0,0,1,.58,1.75l.35,1.26c.11.5.22,1,.35,1.65a41,41,0,0,1-.37,18,47,47,0,0,1-2.57,7.51c-.53,1.18-1.09,2.33-1.71,3.44-.29.53-.68,1.2-1,1.79s-.78,1.2-1.19,1.77a15.8,15.8,0,0,1-3.8,1.69c-.69.18-1.27.36-1.92.47a18,18,0,0,1-2,.28,16.07,16.07,0,0,1-7.94-1.24,18.92,18.92,0,0,1-6.76-5.2,17.2,17.2,0,0,1-2.64-3.81,29.8,29.8,0,0,1-1.8-4.47,28.29,28.29,0,0,0,4.24,1.68,55.84,55.84,0,0,1-1.76-11.85c-.24-4-.27-8.09-.24-12.12s.17-8,.36-12c.1-2,.21-4,.34-5.92.06-1,.13-2,.2-2.94s.15-1.84.22-2.75q.64-2.93,1.28-5.82t1.23-5.91q1.18-5.88,2.24-11.64c.69-3.84,1.36-7.64,1.89-11.41a56.7,56.7,0,0,0,.57-5.7,14.45,14.45,0,0,0,0-1.47,4.79,4.79,0,0,0-.32-1.61,1.81,1.81,0,0,0-.27-.48,1.54,1.54,0,0,0-.26-.25c-.11-.1-.11-.07-.18-.11a1.17,1.17,0,0,0-.61-.12,3.16,3.16,0,0,0-1.17.38,16.92,16.92,0,0,0-3.72,3c-1.06,1.07-2,2.14-2.78,3.09s-1.44,1.83-1.93,2.54c-.24.36-.44.67-.6.94s-.15.26-.2.37l-.07.16c-.05.09.08-.12.14-.21Z"/><path class="cls-2" d="M922.38,184.23a6.72,6.72,0,0,0-.12-1.26l-.19-1.25-.19-1.27c-.08-.41-.18-.79-.27-1.19a44.79,44.79,0,0,0-1.33-4.8,26.17,26.17,0,0,0-2.24-4.84l-.76-1.2c-.29-.39-.6-.76-.91-1.14a19.69,19.69,0,0,0-2.06-2.13,20.22,20.22,0,0,1,.83,2.7,21.38,21.38,0,0,1,5.21,8A37.74,37.74,0,0,1,921.7,180c.19.68.29,1.44.42,2.13A12.82,12.82,0,0,1,922.38,184.23Z"/><path class="cls-2" d="M915.14,167.85a17.56,17.56,0,0,0-5.43-3.29,35.27,35.27,0,0,0-5.35-1.49,45.65,45.65,0,0,1,5.86,2.14,19.4,19.4,0,0,1,5.08,3.35Z"/><path class="cls-2" d="M877.83,157.07a11.35,11.35,0,0,1,2.4.67,13.52,13.52,0,0,1,1.41.66,15.09,15.09,0,0,1,1.65,1,25.47,25.47,0,0,1,2.34,1.41l.27.19.13.09s.1,0,.16,0l.67,0,1.45-.06c.8-.19,1.62-.4,2.45-.63l1.1-.31,1-.31c.63-.2,1.6-.5,2.42-.78s1.68-.59,2.49-.91c-1.3.35-2.89.78-4.53,1.19l-5,1.19-1.35.11-.66.05-.16,0-.13-.1-.26-.19a19.35,19.35,0,0,0-2.22-1.4,12.18,12.18,0,0,0-1.7-1,11.67,11.67,0,0,0-1.52-.58,9.14,9.14,0,0,0-1.36-.3C878.53,157.08,878.15,157.07,877.83,157.07Z"/><path class="cls-2" d="M898.53,156.73c-1.64.49-3.27.91-4.86,1.28s-3,.67-4.61,1l-.75.42-.62.3.62-.1,2.59-.63,2.45-.65C895.08,157.84,896.81,157.32,898.53,156.73Z"/><path class="cls-2" d="M577.86,79.62c-5,.3-9.94.39-14.91.55l-7.47.21-3.73.11-3.73,0c-2.59-.71-12.32-1.2-20-1.8s-13.36-1.25-7.85-1.74a131.71,131.71,0,0,1-16.07-.21c-5.87-.37-11.88-.9-16.89-1.3-10-.91-16.06-1.29-9.12,1.3,26.46,2.44,56,5,87.35,6.2,7.82.41,15.77.44,23.79.63,4,.13,8,0,12.09,0s8.12,0,12.2-.12L625.8,83c2.05-.09,4.11-.12,6.17-.26l6.19-.46,6.2-.47c2.07-.18,4.14-.25,6.21-.54l14.24-1.7,1.9-1.53,1-.77c.2-.26.35-.53.56-.82.75-1.07,1.74-2.34,2.9-3.7v.07h0l0,0,0-.06s0,0,0-.07,0,0,.05,0a1,1,0,0,1,.51-.1.9.9,0,0,1,.33,0l.39,0h0c0,.15.18-1.35.1-.72h0v0l0-.11a.83.83,0,0,1,0-.2v0l0,.06-.08.13s-.11.18-.16.24-.13.15-.22.26l-.17.2c-.05.06,0,0,0,0a1.39,1.39,0,0,1,.2.24,12.19,12.19,0,0,1,1.27,4.16c.14.9.24,1.85.31,2.83l0,.83c0,.45,0,.93,0,1.39,0,.93,0,1.87-.06,2.82,1,1.73,1.66,3.13,2.2,4.34a2.4,2.4,0,0,0,.11.23l.22.21.44.42.89.85,1.77,1.68,15.92,3.54,1.81-.3,1.33-.2,2.1-.27c1.4-.17,2.8-.3,4.19-.4a56.66,56.66,0,0,1,8.12-.07,27,27,0,0,1,3.62.5,9.45,9.45,0,0,1,2.58.89,2.26,2.26,0,0,1,.38.25l.17.13.4.37,1.71,1.54c1.16,1,2.34,2,3.58,3s2.53,1.93,3.91,2.83a29.35,29.35,0,0,0,4.56,2.51c.43.2.84.34,1.38.54a14.12,14.12,0,0,0,1.62.47,12.24,12.24,0,0,0,3.3.36,12.38,12.38,0,0,0,3.24-.62,16.61,16.61,0,0,0,2.83-1.23c1.55-.83,2.83-1.71,4-2.42a17.24,17.24,0,0,1,2.91-1.57,4.93,4.93,0,0,1,2.35-.33,4.53,4.53,0,0,1,.69.09l.14.06.14.08.2.12a10.58,10.58,0,0,0,1.5.82,14.63,14.63,0,0,1-1.49-.74,1.27,1.27,0,0,0-.53-.23,2.56,2.56,0,0,1-.56,0,5.76,5.76,0,0,0-1.16.14,1.53,1.53,0,0,0-.46.14,2.42,2.42,0,0,0-.45.19,14.85,14.85,0,0,0-2.38,1.49c-1,.69-2,1.53-3.36,2.42,1.68-1,2.94-2,4-2.66a8.24,8.24,0,0,1,2.43-1.12c.17,0,.3,0,.5,0h.65c.39,0,.46,0,.45,0a2.27,2.27,0,0,1,.51.29,10.86,10.86,0,0,0,1.82,1,8.21,8.21,0,0,0,1.13.36c.37.09.7.14,1.05.2a12.4,12.4,0,0,0,1.75.1c5.94,0,10.81,0,16,.12h.56a11.36,11.36,0,0,1,1.88.12,2.66,2.66,0,0,1,.59.13l.06,0s0,0,0,0,.14-.34.22-.51a5.38,5.38,0,0,1,.4-.84,5.16,5.16,0,0,1,.4-.67c.51-.8,1-.89.75-.82a1.88,1.88,0,0,1-.29,0l-.19,0-.31,0a7.45,7.45,0,0,1-1.42-.57,3.46,3.46,0,0,0-.44-.23l-.49-.27-.07,0h0a.65.65,0,0,0-.13.16c-.16.15-.3.31-.53.51a26.71,26.71,0,0,1-3.3,2.43c-1.3.87-2.83,1.84-4.13,2.76-5.36,3.75-10.21,7.46-15,11.38l-1.78,1.48-2.37,2c-1.92,1.63-3.81,3.29-5.7,5-3.77,3.33-7.43,6.71-10.88,10s-6.69,6.55-9.62,9.63c-.7.75-1.42,1.5-2.13,2.27l-.26.28-.13.14,0,0,0,0,.08-.05.66-.35,1.32-.67a49.81,49.81,0,0,1,5.6-2.37c-4.64,1.88-8.73,3.64-12.57,5.44a2.13,2.13,0,0,1,.88-.4c.14,0,.12.07.18.12s0,.15,0,.21l0,.12v0l-.07.12-.29.45a1.78,1.78,0,0,1-.17.26l-.33.4-.63.81-1.27,1.39-.64.72-.32.35-.67.68-2.68,2.7-.65.66-.33.33-.59.58-3,2.87L702.24,169l32.13-16.82,7.25-3.71,3.58-1.83a4.3,4.3,0,0,1,.6-.27l.46-.18.92-.36,1.82-.72.91-.36.45-.18.23-.09.15,0,2.45-.58,2-.51.24-.06h.09l.57-.84h0l0,0,.07-.09h0l-.8.82h0l0,0-.06,0c.2.42.38.87.6,1.27a14.21,14.21,0,0,0,1.32,2.15,8.21,8.21,0,0,0,1.44,1.6,3.31,3.31,0,0,0,.45.34,2.29,2.29,0,0,0,.51.3,5.87,5.87,0,0,0,1.14.38c3.17.59,6.54-.43,9.61-1.87l1.14-.56c.37-.18.8-.41,1-.54.54-.29,1.05-.59,1.56-.88l3-1.8,12-7.27,12.67-7.52q-1.37.3-2.73.54c2.44-1.8,4.25-3.11,6-4.46.87-.68,1.73-1.36,2.62-2.15l1-.89a10.26,10.26,0,0,0,.74-.73,4.29,4.29,0,0,1,1-.16,4.94,4.94,0,0,0-1.21-.2l-.33.17.24-.34a6.52,6.52,0,0,1,1.56-.43c.42-.1,1.42-.24,2.18-.32s1.57-.14,2.29-.15a10,10,0,0,1,1.81.11l.2,0h0c0-.12.17-.31.21-.4a4.42,4.42,0,0,1,.39-.62,1.18,1.18,0,0,1,.18-.21l.1-.1,0-.06.14-.11h0l.27-.17h0l0,0,0,0-.12,0a1.14,1.14,0,0,1-.24.05,5.54,5.54,0,0,1-.69,0c-.2,0-.62-.08-.94-.16,0,0,0,0,0,0v0a1,1,0,0,1-.08.25,7.56,7.56,0,0,1-.37.78,32.88,32.88,0,0,1-2.44,3.56c-1,1.23-1.9,2.45-2.85,3.69-.49.65-1,1.31-1.5,2.13a8.06,8.06,0,0,0-.8,1.66l-.1.37,0,.18a2.19,2.19,0,0,0,0,.28,3.31,3.31,0,0,0,.07,1.24,2.6,2.6,0,0,0,.19.56,2.92,2.92,0,0,0,.23.47,4.92,4.92,0,0,0,.45.65,7,7,0,0,0,1.56,1.33c.46.29.9.53,1.32.75.85.43,1.68.78,2.51,1.11s1.66.63,2.51.91l1.28.43,1.2.37.27.08.25.14,4.07,2.15c.17.36-.26.31-1.09,0-.41-.15-.93-.37-1.51-.62l-1.77-.8-.23-.1-.23-.06-.86-.23-1-.29c-.69-.21-1.39-.42-2.08-.65a39.68,39.68,0,0,1-4.1-1.55,20.29,20.29,0,0,0,3.8,1.79c.68.24,1.37.46,2.09.67l1.1.3.57.14.28.07.14,0,.22,0,.22.08,10.46,4.23c.94.39,1.91.79,2.82,1.19l.37.17.49.23c.32.15.64.33,1,.45a6,6,0,0,0,2.14.45,17.79,17.79,0,0,0,2.19,0c.63,0,1.2-.08,1.79-.14l1.73-.2,2.18-.28.9-.29a2.35,2.35,0,0,0,.84-.36l.49-.34a6.06,6.06,0,0,1,1.13-.62l.62-.46a5,5,0,0,1,.44-.3c.26-.17.49-.31.7-.42a6,6,0,0,1,.94-.46c.44-.17.54-.1.44.11a6.61,6.61,0,0,1-.82,1c-.41.43-.73.8-1.58,1.65-.71.5-1.27.92-1.69,1.25a2.13,2.13,0,0,1-.53.31l-.42.2c-.23.11-.39.2-.51.27a8.15,8.15,0,0,0,1.5-.68l1.79-1.15L850,145l.61-.51c.39-.32.79-.64,1.19-.93a28.14,28.14,0,0,1,2.44-1.64,23.23,23.23,0,0,1,4.93-2.26,10.79,10.79,0,0,1,1.2-.34l.62-.15.72-.15,2.87-.56c1.9-.36,3.76-.68,5.57-1l2.69-.43,1.8-.27,2.47-.34.29,0c.08,0,0-.1,0-.14l-.11-.31-.12-.31.54,1.69c.77,2.34,1.47,4.71,2.27,6.92,2.55.15,5.08.27,7.54.49l4.26.4c1.53.15,3.1.3,4.92.59a21.79,21.79,0,0,1,2.94.64,9.3,9.3,0,0,1,1.57.62,3.14,3.14,0,0,1,1.27,1.12,1.86,1.86,0,0,1,.17,1.42,3.69,3.69,0,0,1-.55,1.19,10.74,10.74,0,0,1-2,2.12c-.19.32.28.35,1,.23s1.72-.38,2.42-.55,1.13-.2.64.25a20.37,20.37,0,0,1-5.16,2.64,45.94,45.94,0,0,0,5.59-2.09,18.47,18.47,0,0,0,2.6-1.39,10.54,10.54,0,0,0,2.23-1.8,3.71,3.71,0,0,0,1.1-2.52,3.28,3.28,0,0,0-1.3-2.35,14.85,14.85,0,0,0-4.84-2.41,54.69,54.69,0,0,0-10.61-2.08c-1.75-.19-3.46-.33-5.21-.43s-3.57-.17-5.42-.2c-.1,0-.12-.06-.14-.13l-.08-.22-.16-.42-.33-.86-.65-1.74c-.43-1.13-.95-2.51-1.25-3.26l-.51-1.26c0-.08-.09-.05-.16,0l-.21.05-.41.08-.82.18-3.21.7-6.79,1.54c-2.37.54-4.75,1.1-7.14,1.71,2.18-.44,4.38-.84,6.58-1.23-2.9,1.2-5.21,2.09-7.17,2.76-1.71.63-3.07,1.23-4.37,1.78s-2.52,1.07-3.84,1.71c-.66.32-1.35.67-2.07,1.07-.36.2-.72.42-1.1.66l-.59.38-.78.58c-.51.3-1,.62-1.55,1a2,2,0,0,1-.8.29l-.92.21-2.21.18-2,.09-1.09,0c-.37,0-.87,0-1.31,0a8.27,8.27,0,0,1-2.82-.5c-.47-.19-.9-.45-1.37-.69l-1.15-.56c-.77-.37-1.6-.75-2.47-1.13-1.73-.77-3.65-1.57-5.75-2.42a66.76,66.76,0,0,1,9.09,3l.59.24.68.3a4.75,4.75,0,0,0,1.38.5,12.72,12.72,0,0,0,2.89,0c1.75-.15,3.35-.42,5-.73l.77-.19c.24-.08.52-.07.66-.3l1.12-1.06c1.4-1.38,2.5-2.35,3.38-3.18a33,33,0,0,0-3.89,2.44c-.37.28-.73.55-1.07.83-.15.21-.43.13-.65.17l-.69,0a37.5,37.5,0,0,1-6.45,0,3.12,3.12,0,0,1-1.37-.48c-.41-.26-.82-.48-1.3-.74-.93-.5-1.85-1-2.76-1.42-3.64-1.8-7-3.31-10.33-4.74l-.45-.18-.47-.11c-1.81-.4-3.46-.82-5.09-1.33a23.83,23.83,0,0,1-2.33-.87,4.25,4.25,0,0,1-1.81-1.25c-.15-.19,0-.52.1-.88a7.45,7.45,0,0,1,.54-1c.41-.69.86-1.35,1.32-2,.93-1.3,1.88-2.56,2.82-3.83a35.54,35.54,0,0,0,2.62-3.91,7.62,7.62,0,0,0,.47-1.09,1.52,1.52,0,0,0-.05-1.2,3.47,3.47,0,0,0-2.14-1.11,29,29,0,0,0-4.87-.49c-.82,0-1.66-.06-2.61-.06H807c-.06,0-.1.06-.15.08l-1.15,1-1.25,1,1-1.14,1-1.22c-1.08,1.1-2.5,2.53-3.62,3.6s-2.63,2.44-4.13,3.75c-3,2.6-6.4,5.34-9.67,7.68,2.53-.95,9.29-5.19,13.6-8.44a91.28,91.28,0,0,0-6.79,7c-1.63,1.91-2.72,3.43-3.67,4.53a42.34,42.34,0,0,0-10,5.7c-1.55,1.09-3.22,2.27-5.39,3.57-1.08.64-2.29,1.31-3.69,2l-1.1.51c-.46.22-1,.44-1.53.65a23,23,0,0,1-3.35,1.09c-.85,0-1.2-.13-1.2-.3s.35-.38.93-.67,1.4-.67,2.34-1.16,2.1-1.11,3-1.64A98.47,98.47,0,0,0,783,136.47c-2.43,1.66-4.87,3.27-7.36,4.85-1.25.79-2.51,1.56-3.81,2.3-.6.36-1.43.8-2.21,1.19s-1.61.75-2.45,1.07a11.79,11.79,0,0,1-4.44.61,4.94,4.94,0,0,1-1-.13l-.47-.13c-.14-.07-.27-.16-.4-.24a3.74,3.74,0,0,1-1-1.37c-.8-1.87-1.56-4.3-2-4.59l-.06-.07-.13,0-.28-.08-.53-.17c-.37-.09-.74-.16-1.07-.25a1.55,1.55,0,0,0-.54-.06l-.54,0-.48-.05a.62.62,0,0,0-.24,0l-.33.05a6.05,6.05,0,0,1-1,.08,2.17,2.17,0,0,1-.38,0,.33.33,0,0,0-.24,0l-.29,0c-.74.12-.93-.07-.73-.46l.74-.76c.34-.3,0-.19-.1-.23a8,8,0,0,0-.85,0,8,8,0,0,0-.94.08,8.49,8.49,0,0,0-1.09.2c-3.57,1.15-5.24,1.91-5.71,2.1-.12.05-.17.08-.16.08s0,0,0,0l.51-.09c.2,0,.37,0,.36.07s-.23.29-.72.56a50.39,50.39,0,0,1-6.59,2.45c-.12-.15-.83.06-2,.6-.59.26-1.29.61-2.08,1.05l-.3.17c-.11.07,0,0,.09-.1l.24-.19c.3-.25.62-.51.93-.78l1.91-1.59L752,128.52l9.12-7.55c3-2.49,6.19-5,9.44-7.57,1.62-1.27,3.28-2.52,5-3.76l2.56-1.82c.84-.59,1.68-1.19,2.47-1.85a15.89,15.89,0,0,0,2.18-2.07c.63-.71,1.11-1.67.84-2.08a1.47,1.47,0,0,0-.82-.62,5.61,5.61,0,0,0-1.34-.35,15.28,15.28,0,0,0-2.95-.14h-.4l-12.48,0-3,0a10.82,10.82,0,0,1-1.69-.06,5.47,5.47,0,0,1-1.78-.54A8,8,0,0,0,756.7,99a8.53,8.53,0,0,0-2.48-.13,10.64,10.64,0,0,0-4.6,1.73c-1.48.89-2.92,2-4.53,2.85a15.45,15.45,0,0,1-2.66,1.21,8.2,8.2,0,0,1-1.44.36,6.4,6.4,0,0,1-1.45.11,13.57,13.57,0,0,1-5.24-1.35,13.25,13.25,0,0,0,4.11,1.27l.83.08.73,0a4.83,4.83,0,0,0,1.19-.23,7.26,7.26,0,0,0,2.59-1.42c.61-.48,1.23-1,2.5-1.88.63-.44,1.4-1,2.43-1.59a13.15,13.15,0,0,1,4-1.72,9.06,9.06,0,0,0-2.33.75,25.34,25.34,0,0,0-3,1.68c-1.06.67-2.18,1.42-3.43,2.08a9.92,9.92,0,0,1-4.15,1.28,12.51,12.51,0,0,1-4.13-.73c-1.2-.42-2.28-.88-3.17-1.29-1.8-.81-3-1.34-3.2-1.09A69.8,69.8,0,0,1,722,95.11l-.44-.4c-.13-.12-.22-.18-.33-.27a5,5,0,0,0-.67-.46,8.56,8.56,0,0,0-1.63-.72,21.09,21.09,0,0,0-4.08-.9,57.21,57.21,0,0,0-9.22-.25c-1.58.07-3.17.17-4.76.32l-2.38.25-1.3.16-1.61.23-2.09-.5-1.6-.4-3.14-.8-7.22-1.84-1.78-1-.88-.5-.44-.24-.22-.13a1.6,1.6,0,0,1,0-.23,39.45,39.45,0,0,0-.7-4c.06-1.08.09-2.14.07-3.17,0-.88,0-1.59-.07-2.38a26.13,26.13,0,0,0-.58-4.44,10.18,10.18,0,0,0-1.46-3.64,3.71,3.71,0,0,0-1.14-1.13,3.18,3.18,0,0,0-1.5-.52,2.91,2.91,0,0,1,1.75,1.35,6.62,6.62,0,0,1,.77,2.21,4.63,4.63,0,0,0-1.44-1.46,1.57,1.57,0,0,0-.6-.2c-.08,0-.21,0-.3,0h-.6a8.28,8.28,0,0,0-1.16.09,2.69,2.69,0,0,1-.46.14c-.17,0-.27.14-.41.18A3.77,3.77,0,0,0,669,71.59,22.08,22.08,0,0,0,666.86,75c-.15.27-.25.56-.39.8l-.91.48-1.85,1-4.26.42-3.3.28-6.87.55-14.7.57-3.86.16-3.92.06q-4,.06-8,.2c-2.72.06-5.48.26-8.27.29s-5.63.16-8.5.29l.7,0a80.62,80.62,0,0,0-8,.72c-2.71.38-5.51.67-8.6,1a117.94,117.94,0,0,1-23.43.4,69.77,69.77,0,0,1,10.11-1.12C576,80.76,578.38,80.44,577.86,79.62Z"/><path class="cls-2" d="M459.58,73.6c3.7-.16,7.4-.39,11.1-.61a121.49,121.49,0,0,0-17.76-1.09c-5,.1-8.21.62-7,1.38,8.14.58,18.6,2.72,20.15,1.77C464.78,74.64,465,74,459.58,73.6Z"/><path class="cls-2" d="M237.3,37.31c-4.41-.44-3.36.48-5.32.62,23.39,4.66,49.59,9.47,72.27,13.54s41.86,7.49,51.12,9.75a94.09,94.09,0,0,0,18,1.88,181.42,181.42,0,0,1,21.22,1.31c2.91,1.09,5.83,2.12,8.75,3.19,10.95.47,43.77,6.82,32.44,2.2-1.16-.43-9.61.22-18.77-1.58l1.64-.85-21.35-2.69,7-.34a135.24,135.24,0,0,0-16-2.56,79.17,79.17,0,0,0-9.74-.14,86.41,86.41,0,0,1-11-.26,174,174,0,0,1-19.71-3l.69-2.61c-5.93-1-11.13-1.9-15.93-2.67l-13.45-2.27c-8.57-1.49-16.74-3.19-27-5.91,0,0-.44,1.3,3.71,1.51,3.87.86,8.75,2.85,5.92,3.14-36.19-4.55,5.85-.5-18.94-6.26-15.4-1.93-37.67-5.47-58.11-9.33s-39.07-8-47.2-11c13.9,4.71-7.63,1.8-24.57-2.23-7.54-2.69,5.72-.34,8.66-.51-7.83-2-14.1-4.18-22-5.62,9.85,3.79,2.74,4.28-15.87.76,20,5.68,38.23,8.93,56.56,12S217,33,237.3,37.31Z"/><path class="cls-2" d="M224.83,37.08a33.09,33.09,0,0,0,7.15.85l-16.2-3.28Z"/></svg>