<svg width="259" height="199" viewBox="0 0 259 199" fill="none" xmlns="http://www.w3.org/2000/svg">
<path d="M205.941 197.456C196.367 194.531 195.497 196.176 185.358 195.944C181.114 195.944 173.284 196.539 169.244 196.742C165.842 196.913 162.377 196.742 158.971 196.742C136.648 196.742 113.476 198.78 91.5883 193.897L91.3819 193.851C74.7719 190.146 59.7508 186.795 44.6327 178.566C26.896 168.913 11.4301 150.036 3.30544 131.627C0.0182134 124.178 0.873921 114.169 2.04594 106.26C3.30396 97.7707 5.82598 89.9753 9.13062 82.0789C19.2364 57.9311 36.8841 36.9026 58.3297 21.9817C87.7698 1.49869 122.548 0.246446 157.122 1.23809C171.681 1.65569 187.177 4.76481 200.181 11.5901C213.322 18.4878 223.057 28.8584 231.589 40.8288C241.38 54.5651 250.891 70.2974 256.15 86.4647C259.485 96.7187 257.95 108.927 254.418 118.904C249.434 132.981 239.413 144.219 229.543 155.096C222.689 162.65 218.501 170.181 209.957 175.786C206.443 178.092 204.435 179.314 200.921 181.834C200.11 182.415 198.913 183.345 197.909 184.353C195.685 186.586 194.83 189.591 198.411 191.913C201.817 194.122 204.284 194.995 207.437 197.456C208.817 198.534 206.809 197.722 205.941 197.456Z" stroke="black" stroke-width="2" stroke-linecap="round" stroke-linejoin="round"/>
</svg>
