<svg width="196" height="41" viewBox="0 0 196 41" fill="none" xmlns="http://www.w3.org/2000/svg">
<path d="M40.1025 1.92076C49.8148 1.91166 63.3845 1.73525 78.4611 1.53926C94.9323 1.32513 113.202 1.08761 130.206 1.01935C146.51 0.953892 161.669 1.04364 173.025 1.45701C178.705 1.66376 183.419 1.95103 186.844 2.33821C188.559 2.53204 189.932 2.74889 190.933 2.98807C191.435 3.1078 191.826 3.22906 192.113 3.34812C192.417 3.47436 192.535 3.57016 192.561 3.5996C193.007 4.09772 193.412 4.90389 193.755 6.01627C194.095 7.1178 194.356 8.46144 194.549 9.97988C194.936 13.0164 195.04 16.6754 194.987 20.3361C194.883 27.6572 194.155 34.8836 193.862 36.9354C193.727 37.8812 193.459 38.4908 193.133 38.8979C192.812 39.3 192.389 39.5621 191.844 39.731C191.288 39.9036 190.624 39.9726 189.849 39.9928C189.363 40.0054 188.871 39.999 188.351 39.9922C188.028 39.9879 187.694 39.9836 187.343 39.9836C186.938 39.9836 184.259 39.9828 179.84 39.9813C146.285 39.9708 12.3721 39.9288 10.6448 39.984C9.68813 40.0145 7.43444 40.0227 5.44267 39.2365C4.45582 38.8469 3.57259 38.2772 2.93726 37.4565C2.31066 36.6471 1.88559 35.5433 1.88559 34.0002C1.88559 31.886 1.69373 29.2035 1.48918 26.3436C1.36252 24.5728 1.231 22.734 1.13714 20.9199C0.887545 16.0955 0.899813 11.4136 1.85343 8.18009C2.02623 7.59419 2.1621 7.03788 2.28089 6.55155C2.33593 6.32623 2.38729 6.11592 2.43695 5.92467C2.60166 5.29042 2.75616 4.82605 2.98005 4.4496C3.38413 3.77014 4.12434 3.19641 6.24994 2.78611C8.3836 2.37424 11.7367 2.15928 17.1445 2.04822C22.5388 1.93745 29.9264 1.93028 40.1025 1.92076Z" fill="white" stroke="#333531" stroke-width="1.5"/>
</svg>
