<svg width="24" height="24" viewBox="0 0 24 24" fill="none" xmlns="http://www.w3.org/2000/svg">
<path fill-rule="evenodd" clip-rule="evenodd" d="M23.7902 8.4836L23.7084 8.05974C21.4244 -2.7526 5.24441 -1.59136 1.88203 5.10999C-1.48034 11.8113 -1.32815 21.535 10.7027 23.7637C21.1676 25.7023 24.9808 15.2737 23.7902 8.4836ZM3.66971 6.00691C4.89569 3.56349 8.9042 1.8173 13.1057 2.01502C17.6208 2.22749 20.9131 4.50334 21.7517 8.47311C22.4014 11.5486 21.7723 15.4011 20.0563 18.127C18.1411 21.1694 15.1572 22.5549 11.0671 21.7972C2.07085 20.1306 -0.0505477 13.4215 3.66971 6.00691Z" fill="white"/>
<path fill-rule="evenodd" clip-rule="evenodd" d="M13.3324 7.76665C13.1026 7.9847 12.8404 8.10845 12.5457 8.13792C12.4966 8.14283 12.448 8.14471 12.3998 8.14357C12.1592 8.13784 11.9308 8.0564 11.7148 7.89924C11.4555 7.71066 11.2963 7.41011 11.2374 6.99759L11.2197 6.87383C11.2669 6.43773 11.4171 6.11656 11.6706 5.91029C11.924 5.70403 12.1921 5.60385 12.475 5.60974C12.7578 5.61564 13.0201 5.72466 13.2617 5.93681C13.5033 6.14897 13.63 6.44952 13.6418 6.83847C13.6654 7.23921 13.5623 7.5486 13.3324 7.76665ZM12.8198 17.9589C12.6371 18.0414 12.4397 18.0591 12.2275 18.0119C12.0154 17.9648 11.8268 17.8351 11.6618 17.623C11.5675 17.5051 11.4997 17.3725 11.4585 17.2252C11.4172 17.0779 11.3907 16.9246 11.3789 16.7655C11.3671 16.6064 11.3642 16.4473 11.3701 16.2882C11.3759 16.129 11.3789 15.9847 11.3789 15.855C11.3671 15.1596 11.3642 14.4701 11.3701 13.7865C11.3759 13.1029 11.373 12.4134 11.3612 11.718C11.3612 11.4351 11.3435 11.1493 11.3082 10.8605C11.2728 10.5718 11.2905 10.286 11.3612 10.0031C11.4201 9.79093 11.5233 9.60824 11.6706 9.45502C11.8179 9.30179 11.9829 9.19571 12.1656 9.13678C12.3483 9.07785 12.5369 9.07196 12.7314 9.1191C12.9259 9.16625 13.0938 9.29001 13.2352 9.49037C13.4238 9.7261 13.5181 9.95888 13.5181 10.1887V12.2307C13.5181 12.6314 13.524 13.0263 13.5358 13.4152C13.5476 13.981 13.5535 14.5467 13.5535 15.1125V16.9335C13.5299 17.1692 13.4474 17.3784 13.306 17.5611C13.1645 17.7438 13.0025 17.8764 12.8198 17.9589Z" fill="white"/>
</svg>
