<svg width="523" height="416" viewBox="0 0 523 416" fill="none" xmlns="http://www.w3.org/2000/svg">
<path d="M521.407 208.157C521.407 322.324 405.095 414.872 261.629 414.872C118.164 414.872 1.85155 322.324 1.85154 208.157C1.85153 93.9892 118.164 1.4414 261.629 1.44138C304.555 1.23703 347.061 9.88806 386.493 26.8541L437.975 1.44137L437.975 56.439C489.267 94.1409 521.407 148.152 521.407 208.157Z" fill="white"/>
<path d="M522.357 208.157C522.224 208.953 521.976 208.498 521.938 206.26L522.357 204.667L522.357 208.157Z" fill="#202020"/>
<path d="M520.743 193.307C520.743 190.709 520.743 187.618 521.407 189.287C521.217 191.923 521.407 192.53 521.198 195.336C521.426 197.536 521.559 199.129 521.748 198.807C521.832 200.355 521.832 201.906 521.748 203.453C521.348 200.022 521.12 196.572 521.066 193.118C520.857 192.321 520.8 193.118 520.743 193.307Z" fill="#202020"/>
<path d="M437.312 5.29111L437.312 6.67554C437.35 6.29624 437.331 5.82212 437.312 5.29111Z" fill="#202020"/>
<path d="M316.979 7.09201C317.48 7.14709 317.97 7.26852 318.439 7.45312C317.567 7.26307 316.752 7.11102 316.979 7.09201Z" fill="#202020"/>
<path d="M294.377 4.5134L295.704 4.62744C295.26 4.61761 294.817 4.57953 294.377 4.5134Z" fill="#202020"/>
<path d="M437.312 5.29126L437.16 2.92067C437.331 2.52241 437.274 3.98269 437.312 5.29126Z" fill="#202020"/>
<path d="M516.667 163.703C516.827 164.327 516.948 164.961 517.028 165.6C516.895 164.993 516.8 164.386 516.629 163.703C516.642 163.704 516.654 163.704 516.667 163.703Z" fill="#202020"/>
<path d="M443.568 62.0335L444.422 62.6972C444.649 62.9248 444.839 63.1714 445.028 63.3989L443.568 62.0335Z" fill="#202020"/>
<path d="M475.994 93.2115C475.588 92.7277 475.337 92.133 475.273 91.5047C475.61 92.1864 476.031 92.8234 476.525 93.4012C476.525 93.4012 476.316 93.4201 475.994 93.2115Z" fill="#202020"/>
<path d="M512.097 154.449L512.42 155.681L512.097 154.449Z" fill="#202020"/>
<path d="M437.16 31.6521C437.113 31.509 437.074 31.363 437.046 31.215C437.046 31.215 437.122 31.386 437.16 31.6521Z" fill="#202020"/>
<path d="M515.018 260.31C515.018 260.31 515.113 260.042 515.018 260.31V260.31Z" fill="#202020"/>
<path d="M521.313 208.157L521.313 208.877C521.313 208.877 521.161 209.048 521.085 209.048L521.313 208.157Z" fill="#202020"/>
<path d="M5.47373 233.038C4.43082 228.828 6.11843 240.036 4.69629 233.683C4.94279 234.252 4.3929 227.766 5.47373 233.038Z" fill="#202020"/>
<path d="M516.232 162.584L515.681 160.802C515.947 161.693 516.118 162.167 516.232 162.584Z" fill="#202020"/>
<path d="M4.69651 233.759L4.56348 233.095L4.69651 233.759Z" fill="#202020"/>
<path d="M158.837 20.1025C159.107 19.9134 159.392 19.7481 159.69 19.6084C159.69 19.6084 159.482 19.7794 158.837 20.1025Z" fill="#202020"/>
<path d="M228.446 4.28537L226.683 4.53247L228.446 4.28537Z" fill="#202020"/>
<path d="M124.44 33.928C123.69 34.366 122.918 34.7648 122.127 35.1228L122.468 34.9142C123.152 34.6415 123.812 34.3117 124.44 33.928Z" fill="#202020"/>
<path d="M91.2383 53.5942L91.7692 53.1391L92.7932 52.4564L91.2383 53.5942Z" fill="#202020"/>
<path d="M446.508 355.551C446.934 355.104 447.321 354.622 447.664 354.109C447.361 354.716 451.836 351.113 446.508 355.551Z" fill="#202020"/>
<path d="M516.402 163.741C516.417 163.349 516.359 162.956 516.23 162.585L516.592 163.836C516.668 163.969 516.516 164.007 516.402 163.741Z" fill="#202020"/>
<path d="M121.615 31.8229L116.116 34.6296L121.615 31.8229Z" fill="#202020"/>
<path d="M181.042 406.337L182.407 406.755C181.942 406.652 181.486 406.512 181.042 406.337Z" fill="#202020"/>
<path d="M100.17 43.9032C99.2974 44.6238 98.2735 45.3066 97.3443 46.0083L96.6807 46.2927L100.17 43.9032Z" fill="#202020"/>
<path d="M477.719 326.383C473.775 330.82 475.463 328.127 474.401 328.867C469.584 334.026 472.505 331.579 471.101 333.532C467.878 336.567 465.185 338.653 462.872 340.986C462.739 341.213 462.303 341.668 462.872 341.232C460.976 342.654 458.454 345.025 455.837 347.377C453.359 349.57 450.763 351.627 448.063 353.54C447.887 353.702 447.734 353.887 447.608 354.09C448.101 353.332 448.044 353.028 447.778 353.009C446.172 354.139 444.634 355.361 443.171 356.669C443.833 356.138 444.559 355.692 445.332 355.342L443.038 356.897C441.331 358.793 446.148 354.773 446.356 355L433.386 364.085C433.178 364.54 435.188 363.193 436.724 362.188C438.259 361.183 439.227 360.292 437.16 362.188L442.147 358.168C438.715 361.733 445.218 355.778 442.147 359.135C439.84 361.035 437.421 362.796 434.903 364.407C432.912 365.697 430.959 367.005 427.508 369.414C425.745 370.191 427.811 368.75 426.067 369.527C423.03 371.127 420.164 373.033 417.515 375.217C415.441 376.873 413.159 378.251 410.727 379.313C407.715 380.226 404.825 381.5 402.118 383.106L404.261 382.632C402.396 383.752 400.435 384.704 398.402 385.477C396.284 386.267 394.225 387.205 392.239 388.284C393.718 387.828 398.155 385.761 397.055 386.387C392.201 389.099 393.358 387.753 389.471 389.516L388.883 390.332C386.892 391.242 384.825 392.077 382.701 392.873L376.349 395.263C371.931 396.856 367.361 398.316 362.81 399.89C363.379 399.89 364.972 399.454 362.81 400.326C351.206 403.948 337.951 407.703 326.536 410.396L322.042 410.795C321.018 410.984 320.146 411.326 321.303 411.212C316.828 412.179 321.018 410.984 318.838 411.212C316.278 411.667 315.5 412.084 317.131 411.895C315.235 412.217 312.713 412.483 310.077 412.767L301.696 413.753C296.008 414.227 290.129 414.948 285.901 415.403L287.569 415.403C280.971 415.934 280.08 415.024 273.993 415.707L275.168 415.707C260.833 416.484 245.019 415.498 234.078 415.251C232.068 414.417 219.913 414.17 219.117 413.052C215.04 412.691 213.58 412.615 211.684 412.483C209.788 412.35 207.531 412.065 201.824 411.155C198.79 410.605 197.387 409.884 193.708 408.917L193.519 409.334L188.588 407.741L185.782 407.741C184.625 407.457 183.469 407.135 182.331 406.774C183.231 407.092 184.186 407.221 185.137 407.153C180.736 405.841 176.251 404.828 171.712 404.119C167.541 402.678 163.369 401.293 159.236 399.776C160.488 400.45 161.803 401.002 163.161 401.426C159.861 400.174 159.539 400.156 159.254 400.174C158.97 400.193 158.78 400.174 155.803 398.98C156.657 399.188 155.462 398.581 155.348 398.449C153.793 398.031 151.29 397.197 148.541 396.23C145.792 395.263 142.852 393.916 140.387 392.835L141.241 393.518C136.633 391.792 132.006 389.459 127.171 387.241C124.763 386.103 122.412 384.794 119.984 383.561C117.557 382.329 115.092 381.058 112.779 379.655C116.287 381.551 115.737 380.565 112.95 378.934L111.603 378.706C109.935 377.436 114.618 380.205 111.072 377.796C107.489 375.9 108.418 376.905 110.39 378.194L106.123 375.596C105.801 375.596 106.787 376.203 106.958 376.507C105.289 375.331 99.3729 372.372 97.0974 370.4L96.7751 370.4C92.1484 367.422 88.9438 365.014 85.853 362.814L76.5807 355.645C76.6945 355.209 73.945 353.047 72.1057 351.075L68.0858 347.927L64.0658 344.418L59.8753 340.625L55.7416 336.491C51.9492 332.376 54.8504 335.088 53.2576 333.134C52.6508 333.134 47.4363 327.16 49.9772 330.422C46.8105 326.838 44.7627 324.6 42.7337 321.907C40.7048 319.214 38.3346 316.502 35.0352 311.514C35.9264 312.482 36.8366 313.638 36.4953 312.956C35.2628 311.059 33.4614 309.011 33.4993 309.371L33.8027 309.846C30.1051 304.156 25.7439 297.727 21.9326 291.279C20.9276 289.705 20.0364 288.055 19.24 286.462C18.4436 284.869 17.5903 283.295 16.7939 281.797C15.4387 279.03 14.2607 276.179 13.267 273.263L13.4756 273.832C12.0345 270.38 11.0105 266.777 9.8728 263.23C7.97661 258.394 10.6502 266.227 9.15225 262.718C8.20416 259.836 7.67322 257.181 6.95267 254.772C6.23212 252.363 5.56845 250.145 5.05648 247.926L3.5585 241.345C3.02756 239.164 2.81898 236.85 2.47767 234.385C1.0364 228.594 0.260268 222.658 0.164318 216.691L0.0505471 211.286C0.0505469 209.389 -0.0632245 207.721 0.0505466 205.995C0.164318 202.581 0.164318 199.395 0.145356 196.778L0.353936 197.385C0.611686 195.653 0.706909 193.9 0.638363 192.151C0.809019 192.454 0.638363 195.09 0.884867 193.44C3.06083 170.007 9.69653 147.207 20.4346 126.267C21.5102 124.185 22.8276 122.237 24.3597 120.464C24.9746 119.73 25.5324 118.95 26.0283 118.131C26.7299 117.031 27.697 115.533 29.0053 113.2L26.9574 115.514C36.5332 101.196 47.6069 86.8774 60.0649 75.5175C59.3148 76.0153 58.6217 76.5941 57.998 77.2433C59.744 75.249 61.6462 73.3973 63.6866 71.7056C64.9679 70.482 66.3579 69.3775 67.8392 68.4057C69.7354 66.661 68.1237 67.8178 69.2614 66.661C71.8971 64.2335 76.3721 61.2181 77.6804 59.8147C77.908 59.5872 76.8082 60.3268 76.2962 60.725C78.1924 59.4165 84.886 54.1443 83.35 55.7942C85.7008 53.9136 88.1503 52.16 90.6883 50.541L97.3439 46.0084C100.378 44.6429 106.37 40.0535 107.659 40.1673C106.939 39.8449 116.988 34.1934 120.743 32.79C119.472 33.2262 123.739 31.0263 122.241 31.5004C126.261 29.3764 130.167 27.8402 129.56 28.4471C136.823 24.1421 145.261 22.3404 149.28 19.6854C161.302 15.525 173.537 12.0116 185.934 9.15996C185.308 8.51518 172.945 12.5546 173.267 11.7392C178.956 10.4116 183.279 9.25478 187.754 8.4962C192.229 7.73759 196.609 6.59971 202.222 5.65147C205.123 5.02565 200.515 5.6515 199.51 5.74632L207.892 4.32396C210.641 3.84984 213.372 3.52745 216.026 3.12916C221.374 2.27577 226.607 1.82063 231.708 1.47926C230.982 1.42445 230.253 1.42445 229.527 1.47926C231.537 1.30857 234.192 0.92927 234.002 1.23271L232.106 1.34648C230.513 1.72578 232.542 1.74476 234.988 1.68788C237.434 1.63096 240.335 1.68788 240.525 1.83958C237.055 1.21375 250.594 1.02409 245.114 0.284463C246.441 0.284463 248.11 0.284463 247.806 0.512033C249.703 0.379281 250.404 0.284463 248.394 0.0947964C255.619 0.0947958 253.059 0.474129 259.601 0.322396C258.932 0.170265 258.254 0.062569 257.572 7.99994e-06C260.89 0.170693 264.227 0.49308 269.745 0.455146C269.423 0.360328 270.068 0.265479 268.418 0.246528C277.899 0.549963 284.536 1.55509 294.965 2.29471C291.988 1.3844 298.51 2.4654 299.117 2.02921C301.013 2.31369 302.91 2.54126 304.673 2.86365L302.398 2.86365C307.271 3.50846 311.499 4.47565 315.671 5.02564L312.106 4.21018C315.121 4.77912 318.155 5.25321 321.151 5.86008C319.444 5.59458 317.719 5.38596 315.993 5.17737C320.829 6.27732 315.368 5.6894 321.796 6.73245C320.506 6.44797 326.612 7.60483 329.153 7.88928C331.466 8.60996 333.874 9.23578 337.42 9.99439C338.368 9.99439 336.832 9.25476 337.42 9.2927C338.539 9.80475 341.326 10.4685 344.152 11.284C346.579 11.9015 348.967 12.6678 351.3 13.5787C350.352 13.1805 350.39 12.896 350.712 12.9339L352.609 13.8632C354.827 14.4132 355.15 14.4701 354.865 14.1476C361.426 16.0441 352.609 14.1477 360.421 16.2907C359.814 16.0631 360.118 16.101 358.885 15.6459C366.697 17.9785 373.675 20.9939 380.672 23.6111C382.929 23.9335 374.642 21.0698 377.164 21.6008C378.719 22.2267 380.293 22.8525 381.867 23.4973L386.342 25.5075C386.645 25.773 386.873 25.5075 387.214 25.3558L388.143 24.9575C394.192 22.1508 400.165 19.2681 405.588 16.6131L403.882 17.5234C405.778 17.3906 410.575 13.7304 415.676 11.6822C414.462 12.2133 413.78 12.1374 414.197 12.0426C417.401 10.3926 420.777 8.78063 424.569 7.01693L438.278 0.644768L436.818 1.13784L438.999 -7.86093e-06C438.999 4.55151 439.094 10.9616 439.132 15.3804C438.942 16.7269 438.98 19.344 438.696 17.6941C439.102 23.9376 439.191 30.1977 438.961 36.4502C438.828 42.4051 438.601 48.0756 438.828 53.9925C438.828 54.6942 438.828 55.339 438.999 55.889L439.208 56.0218L439.018 55.87C439.018 54.9408 439.189 54.1063 439.189 54.7132L439.189 55.8131L439.454 56.0218L445.503 60.8767C444.39 60.3674 443.34 59.731 442.374 58.9802C444.041 60.5931 445.801 62.1065 447.646 63.5128C444.005 60.4595 448.063 63.0766 449.693 64.3283C449.371 64.1955 449.845 64.7266 449.693 64.6886C454.282 67.8557 449.978 65.8075 455.97 70.378L455.78 69.9798C457.866 71.8762 459.573 73.9244 461.791 75.9537C462.986 76.5605 459.743 73.7727 459.895 73.3934C463.024 76.3709 465.584 79.6897 468.447 82.2879C467.252 80.9224 465.527 78.9501 464.237 77.6794C466.277 79.3033 468.179 81.092 469.926 83.0275L469.698 82.7999C471.386 84.5447 473.206 86.1567 474.799 87.9963L473.491 86.6687C476.221 91.4289 480.62 94.9753 484.394 101.196C480.601 95.2598 483.977 100.058 483.995 99.2992C485.209 100.684 487.029 102.846 486.65 102.144C488.759 104.957 490.715 107.882 492.509 110.906C492.756 111.019 494.595 113.94 494.406 113.106C496.662 116.898 493.666 112.328 493.685 112.764C495.354 115.78 497.477 119.193 499.867 122.891C500.985 124.788 502.066 126.836 503.185 128.922C504.349 131.046 505.357 133.251 506.2 135.522C507.793 139.485 508.741 141.818 509.461 144.151C510.182 146.483 510.827 148.778 512.097 152.495C513.235 154.904 511.813 150.295 511.813 150.295C513.33 153.842 514.53 157.517 515.396 161.276C515.283 160.46 515.624 161.276 516.136 162.376C517.065 165.486 516.136 164.595 517.444 168.71C517.447 167.607 517.377 166.504 517.236 165.41C517.577 167.307 517.937 169.203 518.297 171.1C518.658 172.996 519.037 174.893 519.265 176.789C519.663 177.775 519.265 174.343 519.037 172.996C519.568 175.177 519.833 178.06 520.213 180.582C520.507 182.331 520.666 184.1 520.687 185.873L520.08 183.066C520.345 184.678 520.554 183.844 520.421 182.649C520.409 180.69 519.996 178.754 519.208 176.96L519.587 179.767C519.199 178.808 518.919 177.81 518.753 176.789C518.658 176.144 518.525 175.462 518.411 174.741C518.298 174.02 518.108 173.262 517.956 172.484C517.33 169.393 516.818 165.865 516.06 163.153C516.06 163.95 516.06 164.765 516.06 165.581C515.832 163.684 515.283 161.788 514.922 159.891C514.41 158.754 513.841 157.995 514.581 160.745C513.121 156.952 513.728 157.236 512.4 154.012C512.249 153.652 512.268 153.842 512.4 154.183C512.04 152.912 511.604 151.68 511.206 150.39C511.357 151.168 510.58 149.916 511.509 152.173C510.106 148.911 509.196 146.199 508.475 143.999C507.913 142.287 507.169 140.641 506.257 139.087L506.465 139.637C502.673 130.591 506.579 138.537 503.811 131.653L500.549 127.746L500.549 126.665C500.075 125.774 499.108 124.01 499.127 124.427C497.496 121.014 499.639 124.883 498.767 122.853C497.326 120.843 495.638 117.942 494.159 115.438C493.235 113.686 492.031 112.098 490.594 110.735C489.893 109.104 493.457 114.528 490.689 110.014C489.229 109.218 487.485 104.875 484.394 101.594C484.925 102.921 487.655 106.145 484.678 102.808C483.54 100.285 479.331 95.9425 476.904 93.0978C476.123 91.6247 475.118 90.2813 473.927 89.1152C472.125 86.9342 469.528 84.4688 467.442 82.0793C467.688 82.4017 458.852 73.8296 454.168 70.1504L454.168 70.3212C451.571 67.4355 448.708 64.8004 445.617 62.4508C445.617 62.8111 446.148 63.3421 447.873 64.9921C446.849 64.0817 445.73 63.2663 444.631 62.4128C443.446 61.231 442.178 60.1346 440.838 59.1319L441.426 60.0802L437.615 57.3872L437.861 56.42L437.311 56.1924C437.122 56.1924 436.894 56.0597 436.989 55.8511C436.971 55.5257 437.003 55.1995 437.084 54.8838L437.52 53.1581C437.52 50.0479 437.52 46.7101 437.52 42.8602C437.766 42.5568 438.07 48.8152 438.411 41.4569C438.316 41.2672 438.165 41.0396 438.07 41.1344C437.918 41.6054 437.86 42.1015 437.899 42.5947C437.899 41.9689 437.994 40.3379 437.899 39.0294L437.71 41.931C437.596 38.6691 437.88 40.319 437.842 37.7208C437.672 37.7208 437.71 35.8243 437.558 36.0709C437.558 36.7346 437.653 38.3656 437.558 39.3138C437.558 36.3933 437.368 32.8279 437.198 31.728C437.311 32.0124 437.463 31.728 437.482 29.6798C437.482 24.18 437.217 27.7833 437.065 24.5024C437.198 23.2128 437.065 19.6664 437.349 19.6284C437.354 18.7669 437.259 17.9077 437.065 17.0682C437.179 14.2425 436.97 3.7929 437.425 6.99795L437.425 7.71862L437.425 7.26348C437.425 5.23425 437.539 3.83086 437.539 2.18093C434.979 3.41363 431.13 5.38595 427.774 7.09277C424.417 8.79958 420.909 10.5633 417.553 12.1374L417.553 12.2322C412.49 14.5459 406.441 17.5424 402.687 19.1354C401.227 19.856 399.369 21.0319 400.108 20.7095C396.316 22.5111 395.709 22.6059 390.362 25.4127C391.743 24.8709 393.086 24.2374 394.382 23.5162L389.774 25.8489L388.029 27.1954C387.88 27.3328 387.706 27.442 387.517 27.5178C387.309 27.5178 387.119 27.8592 386.911 27.5178L386.588 27.1954L386.418 27.0437L385.792 27.7075L383.991 26.873L382.094 25.9437C383.801 27.0437 378.112 24.711 375.685 23.7249L379.383 24.8817C376.652 23.7628 374.244 22.8525 371.798 21.9422L372.955 22.8904C362.241 19.4388 353.993 15.3045 345.498 13.958C342.711 12.8391 351.452 15.3424 348.987 14.2804C346.484 13.6167 343.886 13.0667 341.706 12.6874C339.525 12.3081 337.78 12.0805 336.984 11.8908C334.723 11.4503 332.493 10.8612 330.31 10.1271C328.06 9.3187 325.735 8.74048 323.369 8.40134C324.337 8.40134 325.266 8.13584 319.862 6.92212C314.723 6.08765 313.452 6.56177 316.657 7.22556C317.236 7.38898 317.838 7.45938 318.439 7.43418C320.089 7.77552 322.232 8.28757 320.184 8.06L319.539 7.77552C316.979 7.49103 309.944 6.31525 311.556 6.86521C307.764 6.14457 309.944 6.29627 312.827 6.7135C306.209 5.91697 302.53 5.19632 295.761 4.6084C296.861 4.6084 297.866 4.60843 296.785 4.43775C286.773 3.66019 292.424 3.66016 285.635 3.03434C281.843 3.03434 286.982 3.71708 280.136 3.03434C275.946 3.03434 279.245 3.43259 280.876 3.67914C275.832 3.23899 270.763 3.15028 265.706 3.41364L268.968 3.58433C267.072 3.58433 265.403 3.47053 263.772 3.45158L265.668 3.12916C264.491 3.07102 263.31 3.12183 262.142 3.28089C260.151 3.07227 263.659 2.69297 259.714 2.4654C257.136 2.69297 251.864 2.4654 250.992 2.90159C259.089 2.5792 250.12 3.37571 256.965 3.29984C255.638 3.29984 254.026 3.29984 252.092 3.41364C251.807 3.41364 252.376 3.41364 252.888 3.50846C245.19 4.05845 249.323 3.09123 241.302 3.50846C242.345 3.6981 239.406 4.11534 238.174 4.13429C241.397 3.9257 239.691 3.62226 236.714 3.60328C231.594 4.21015 231.139 3.98258 228.446 4.24809L231.499 3.84983C229.091 3.85343 226.685 3.99906 224.294 4.28602C224.009 4.51359 227.555 4.09639 226.19 4.28602C222.151 4.15327 217.316 5.87907 211.76 6.33421C209.238 6.86522 211.589 6.82731 209.371 7.28245C203.208 8.09794 202.81 8.7996 196.344 9.78578C198.126 9.06511 198.449 9.0272 193.898 9.78578C197.406 9.00822 200.971 8.55308 204.497 7.88929L197.614 8.66688C200.8 8.06001 204.403 7.62382 206.299 7.22557C203.018 7.54796 203.36 7.56694 204.839 7.01695C200.553 8.30656 196.097 8.26863 191.148 9.80476L191.49 10.6013C187.697 11.6254 184.398 12.2322 180.795 13.1425C176.64 14.0066 172.537 15.1084 168.508 16.4424L171.523 15.3425C170.158 15.4373 165.607 17.2389 162.459 17.9975C162.838 18.1872 160.923 18.8509 159.691 19.5147C159.785 19.2681 152.807 22.018 151.746 21.7905C150.38 22.4163 149.034 23.0421 147.688 23.6869C140.274 26.892 138.795 26.3609 131.76 29.7367C134.016 29.0539 130.887 30.7039 135.723 28.7316C134.26 29.5152 132.723 30.1505 131.134 30.628C130.489 31.0263 128.802 31.6711 127.038 32.5245C125.469 33.2016 123.943 33.9743 122.468 34.8382C121.073 35.2427 119.731 35.8091 118.467 36.5261C118.202 36.7157 118.467 36.6398 118.467 36.6398C117.819 36.8411 117.185 37.0882 116.571 37.3794C115.813 37.7208 115.339 37.8915 116.382 37.1329C109.783 41.7603 96.8888 48.2652 91.7312 53.1012L88.1284 55.4908C86.877 56.3442 85.6444 57.3872 84.3361 58.2027C81.89 60.0992 79.4439 61.7681 77.4529 63.399C77.7563 63.2473 77.4529 63.3991 78.2872 62.8491C73.0158 67.6282 74.3621 64.9731 68.4271 70.435C65.6776 73.5452 71.7833 67.723 69.9819 69.5815C69.8682 70.3022 68.0857 71.9332 65.8103 73.8865L62.2834 76.9778C61.1932 78.0208 60.1674 79.1291 59.2116 80.2966L60.1786 79.3863C58.5168 81.2488 56.7505 83.0153 54.8883 84.6775C52.8404 86.6688 50.6408 88.9824 48.4033 91.5237C48.4033 91.5237 48.6688 91.3341 48.536 91.5237C43.8305 96.2306 39.5063 101.304 35.6041 106.695C37.102 105.254 37.5002 104.401 37.0831 105.633C35.3196 107.966 37.0831 104.59 33.5941 109.275C32.4212 111.194 31.4187 113.212 30.5981 115.305L33.5941 110.678C31.9762 113.604 30.1909 116.435 28.2468 119.155L28.6071 118.966C24.4355 126.267 23.677 126.002 19.7519 134.137L20.0174 133.208C17.2869 137.418 18.4436 137.001 16.1302 141.458L16.1302 143.07C15.4286 144.53 14.234 147.109 13.0205 150.106C11.8069 153.102 10.4416 156.307 9.64525 159.152C9.98656 158.374 10.3658 157.388 10.783 156.288L12.262 152.761C13.3239 150.314 14.2719 147.716 15.22 145.801C14.5564 147.28 13.7031 149.897 12.774 152.287C11.8448 154.676 10.9726 156.876 10.6692 157.654C11.0295 156.402 11.7879 154.923 12.1103 153.671C11.6931 154.562 11.2191 155.568 10.783 156.611C10.3468 157.654 9.9676 158.848 9.55044 160.1L8.28 164.064L7.61633 166.226L7.0854 168.539C7.76803 168.103 6.85786 172.219 5.87184 177.055C5.17025 181.929 4.16527 187.523 4.48762 189.913C2.80002 201.292 3.2551 212.5 4.6014 225.661C3.31199 221.072 4.94271 229.454 3.99462 228.828C4.43074 231.901 4.63932 233.057 4.73413 233.323C5.3978 236.395 6.00458 239.467 6.93371 242.464C7.67322 244.588 6.47862 239.562 6.74409 239.79C8.28 246.371 7.73011 242.483 8.92471 246.788C8.41274 245.972 8.92471 249.196 10.1952 252.838C9.60733 251.131 8.84886 249.462 8.29896 247.717C8.82882 250.735 9.68721 253.686 10.8588 256.517C11.2381 257.465 11.5604 258.413 12.0534 259.722C12.5464 261.03 13.0963 262.604 13.7979 264.88L13.0394 261.96C14.3857 266.663 19.4296 278.762 21.193 283.257C21.6671 283.978 22.3876 284.907 21.4964 282.954C26.673 293.384 33.6889 305.996 39.605 312.975L39.2637 312.121C40.3345 314.016 41.6059 315.79 43.0561 317.412C43.0561 317.242 42.6768 316.597 43.3216 317.412C44.9433 319.822 46.73 322.116 48.6688 324.278C48.1758 323.595 47.6638 322.95 47.2087 322.248C49.1049 324.373 50.8305 326.231 52.3474 327.938L54.547 330.479L56.6707 332.831C59.4578 336.105 62.4136 339.232 65.5259 342.199C65.7345 341.953 67.5169 343.318 69.6786 345.12L76.2773 350.335L76.2773 350.165C78.7992 352.327 81.2453 354.185 83.5586 355.987C85.872 357.788 88.0147 359.59 90.2712 361.183L96.9647 366.133C99.278 367.726 101.705 369.3 104.284 371.007L119.605 379.2C122.791 380.755 126.014 382.499 129.257 383.979C132.499 385.458 135.666 386.823 138.491 388.018C136.747 387.335 138.491 388.606 140.596 389.459C143.308 390.446 147.82 392.892 147.612 392.19L146.664 391.811C150.756 392.944 154.788 394.285 158.742 395.832L159.217 396.799C165.152 398.202 172.661 400.762 179.676 402.659L184.758 404.1L189.404 405.181C191.702 405.731 194.033 406.136 196.382 406.395C199.207 407.172 202.791 407.779 205.616 408.5L205.521 408.083C209.503 408.822 212.537 409.145 215.78 409.6C219.022 410.055 222.492 410.605 227.479 411.098L225.469 410.605C231.158 411.098 232.447 412.502 237.681 412.938L239.293 412.426C244.204 412.729 249.172 412.957 254.121 412.9C256.586 412.9 259.051 412.9 261.516 413.033C263.981 413.165 266.427 413.033 268.873 413.033C268.702 413.033 268.418 412.786 266.806 412.786C269.139 412.691 273.614 412.634 277.311 412.369C281.009 412.103 283.91 412.084 283 412.558C284.862 412.113 286.774 411.915 288.688 411.971C291.874 411.743 295.723 411.534 298.397 411.383L297.524 411.06C301.183 411.215 304.848 411.005 308.465 410.434C309.944 410.188 309.717 409.941 307.764 410.321C312.637 409.372 311.67 410.321 317.567 408.936L315.311 409.088C317.767 408.541 320.267 408.217 322.782 408.121C326.246 407.651 329.645 406.779 332.907 405.523C335.086 405.428 337.245 405.065 339.335 404.442C339.696 404.195 338.615 404.442 338.065 404.442C346.256 401.976 350.504 401.692 355.984 399.473C356.223 399.226 356.524 399.049 356.856 398.961C350.409 401.085 345.1 402.412 345.612 402.317C345.612 401.976 350.788 400.421 346.446 401.142L350.238 400.383L354.581 399.321C357.558 398.525 360.686 397.728 363.189 396.761C363.401 396.658 363.604 396.537 363.796 396.4L363.265 396.552C364.315 396.138 365.384 395.778 366.47 395.471C368.044 394.826 369.049 394.428 370.585 393.859C371.679 393.277 372.821 392.788 373.998 392.399L378.909 390.502C378.909 390.958 382.132 389.554 379.155 391.128C378.403 391.326 377.672 391.599 376.975 391.944C376.577 392.095 376.14 392.266 375.875 392.342L376.065 392.342C374.415 393.044 372.272 393.84 369.693 394.713C372.124 394.173 374.481 393.339 376.709 392.228L380.502 391.375C383.801 389.478 390.21 386.235 390.969 385.496C398.686 382.329 408.584 376.867 413.495 374.876C414.59 374.347 415.594 373.649 416.472 372.808C415.24 373.415 413.837 374.231 413.135 374.496C414.178 373.946 415.486 373.264 416.927 372.486L420.985 370.04C422.723 368.88 424.571 367.895 426.503 367.1C431.3 363.497 423.469 368.598 430.295 364.009L429.291 364.502C435.738 359.647 441.142 355.949 446.622 351.928C449.295 349.842 452.121 347.832 454.908 345.347C456.292 344.096 457.695 342.787 459.155 341.384C460.719 339.971 462.195 338.464 463.574 336.87C463.084 337.379 462.634 337.924 462.227 338.501C469.543 331.091 476.467 323.305 482.972 315.175C489.336 307.021 494.904 298.276 499.601 289.06C501.006 286.088 502.615 283.218 504.417 280.469L504.569 279.161C505.536 277.435 506.465 275.652 507.375 273.869C508.273 272.066 509.046 270.203 509.689 268.294L511.358 262.699L512.23 259.798L513.045 256.706C513.633 254.563 514.353 252.269 515.264 249.746L515.15 251.15C516.117 247.357 518.051 239.278 517.615 239.771C517.988 238.921 518.194 238.006 518.222 237.078L518.013 236.907C518.601 233.816 519.359 230.744 519.796 227.615C520.326 220.275 518.847 228.639 519.796 218.018C520.004 214.074 520.8 206.734 520.914 208.214C520.806 209.633 520.882 211.062 521.142 212.462L521.369 208.801C522.052 208.157 522.829 205.293 523 214.377C522.773 216.463 522.678 218.568 522.279 220.654L522.412 222.703C522.545 220.939 522.829 219.175 522.848 217.393C522.917 219.76 522.668 222.127 522.109 224.428C522.243 225.313 522.275 226.21 522.204 227.102C521.862 229.151 521.294 231.142 520.763 233.152C520.895 233.93 521.692 230.478 521.18 234.612C520.44 237.438 521.047 231.787 520.099 236.509C520.246 238.438 519.987 240.376 519.34 242.198C519.34 242.729 519.682 242.009 520.061 240.662C519.17 243.697 518.165 248.798 517.444 250.296C516.913 253.407 514.391 260.48 515.074 260.367C514.6 261.258 512.742 265.449 511.737 268.161C512.95 265.79 512.135 268.389 510.959 271.347C509.784 274.306 508.305 277.7 508.949 277.226C508.38 278.061 507.812 279.312 507.053 280.735C506.295 282.157 505.422 283.807 504.531 285.552C502.842 289.052 500.943 292.447 498.843 295.717C499.21 295.251 499.54 294.756 499.829 294.238C497.932 297.67 497.591 298.77 496.302 300.932C495.524 301.046 492.244 306.147 490.044 308.518C487.693 312.709 492.282 306.622 491.827 308.063C491.599 307.608 486.593 314.53 487.238 312.994C486.304 314.408 485.468 315.884 484.735 317.412C483.787 317.412 482.498 319.992 480.279 322.078C477.207 326.402 479.957 323.614 475.956 327.767C474.078 330.081 477.719 326.383 477.719 326.383ZM362.658 399.776C363.796 399.416 364.744 399.056 365.351 398.847C364.801 399.037 364.024 399.34 362.658 399.776ZM351.699 403.228L356.477 401.711C356.837 401.464 356.363 401.445 355.263 401.711C354.117 402.31 352.925 402.818 351.699 403.228ZM373.884 392.816C373.024 393.048 372.196 393.386 371.419 393.821C372.215 393.537 373.182 393.252 374.415 392.778L374.623 392.778C374.351 392.754 374.077 392.766 373.808 392.816L373.884 392.816Z" fill="#202020"/>
<path d="M377.031 392.076L377.733 391.829L376.766 392.323L376.121 392.437L377.031 392.076Z" fill="#202020"/>
<path d="M437.387 6.92143L437.387 6.67435C437.375 6.84517 437.375 7.01668 437.387 7.1875C437.395 7.09899 437.395 7.00994 437.387 6.92143Z" fill="#202020"/>
<path d="M193.462 409.505L193.5 409.41L194.467 409.714L193.462 409.505Z" fill="#202020"/>
<path d="M449.485 64.4411C449.731 64.5809 449.966 64.7398 450.187 64.9163C449.941 64.7771 449.706 64.6182 449.485 64.4411Z" fill="#202020"/>
<path d="M469.642 83.1792L472.429 85.8911L469.642 83.1792Z" fill="#202020"/>
<path d="M483.598 99.1087C483.661 99.2465 483.7 99.3945 483.712 99.5459L483.598 99.1087Z" fill="#202020"/>
<path d="M229.527 1.51697L228.712 1.51697C226.797 1.70705 228.105 1.61201 229.527 1.51697Z" fill="#202020"/>
<path d="M329.039 7.87036C328.016 7.56693 327.011 7.28246 325.93 7.03592C327.013 7.09781 328.071 7.38185 329.039 7.87036Z" fill="#202020"/>
<path d="M122.26 31.4997L121.634 31.8228L122.26 31.4997Z" fill="#202020"/>
<path d="M321.359 6.18253C323.123 6.42907 324.583 6.73253 325.929 7.05493C324.488 6.78942 322.782 6.50493 321.359 6.18253Z" fill="#202020"/>
<path d="M520.554 182.213L520.744 183.237C520.744 183.237 520.744 183.237 520.744 183.351L520.554 182.213Z" fill="#202020"/>
<path d="M520.706 183.351L520.839 184.489C520.766 184.113 520.722 183.733 520.706 183.351Z" fill="#202020"/>
<path d="M521.067 186.859C521.039 186.065 520.963 185.274 520.839 184.489C521.035 185.263 521.111 186.062 521.067 186.859Z" fill="#202020"/>
<path d="M513.804 154.98L513.804 154.619C513.831 154.675 513.845 154.737 513.845 154.799C513.845 154.862 513.831 154.923 513.804 154.98Z" fill="#202020"/>
<path d="M510.979 146.939C511.699 148.835 513.121 151.604 513.937 154.335L513.937 154.619C513.709 153.254 511.339 148.835 510.979 146.939Z" fill="#202020"/>
<path d="M493.438 116.178L497.231 122.19C496.472 121.203 495.448 119.914 497.079 122.702C492.016 115.23 498.274 124.048 493.438 116.178Z" fill="#202020"/>
<path d="M480.639 98.37C482.896 101.423 480.431 98.37 480.488 98.6924C479.047 96.6821 478.743 96.208 480.639 98.37Z" fill="#202020"/>
<path d="M398.856 21.3531L399.425 21.3531C396.752 22.6076 399.311 21.3531 398.856 21.3531Z" fill="#202020"/>
<path d="M370.831 19.4577C371.76 19.7232 372.727 19.9508 373.599 20.2543L374.756 21.0508C373.467 20.545 372.158 20.014 370.831 19.4577Z" fill="#202020"/>
<path d="M352.969 16.3096L354.183 16.7268L349.537 15.1907L352.969 16.3096Z" fill="#202020"/>
<path d="M97.0781 49.9719L97.5901 49.1375C99.3156 48.1513 99.9224 48.3409 97.0781 49.9719Z" fill="#202020"/>
<path d="M20.4722 133.663C19.7413 135.689 18.8668 137.66 17.8555 139.561C18.6195 137.549 19.493 135.58 20.4722 133.663Z" fill="#202020"/>
<path d="M164.811 398.126L162.668 397.292L166.783 398.714L164.811 398.126Z" fill="#202020"/>
</svg>
