<svg width="255" height="183" viewBox="0 0 255 183" fill="none" xmlns="http://www.w3.org/2000/svg">
<g clip-path="url(#clip0)">
<path fill-rule="evenodd" clip-rule="evenodd" d="M1.24243 1.46492C1.24243 1.46492 86.4624 0 127.721 0C168.981 0 246 1.46492 246 1.46492V183H1.24243V1.46492Z" fill="white"/>
<path d="M0 1L2 183" stroke="#061621" stroke-width="2"/>
<path d="M0 1.25C51.3891 1.17933 170.58 0.161205 245 1.25" stroke="#061621" stroke-width="2"/>
<path d="M245.5 179V1" stroke="#061621" stroke-width="5"/>
<path d="M1 181.377C81.8293 181.377 172.957 181.255 246 180" stroke="#061621" stroke-width="5"/>
</g>
<path d="M29.72 33L28.344 29.464H23.816L22.456 33H21L25.464 21.528H26.76L31.208 33H29.72ZM26.632 24.728C26.6 24.6427 26.5467 24.488 26.472 24.264C26.3973 24.04 26.3227 23.8107 26.248 23.576C26.184 23.3307 26.1307 23.144 26.088 23.016C26.0133 23.3467 25.928 23.672 25.832 23.992C25.736 24.3013 25.656 24.5467 25.592 24.728L24.296 28.184H27.912L26.632 24.728ZM33.9868 33H32.5788V20.84H33.9868V33ZM40.7838 24.264C41.8398 24.264 42.6878 24.632 43.3278 25.368C43.9784 26.104 44.3038 27.2133 44.3038 28.696C44.3038 30.1573 43.9784 31.2667 43.3278 32.024C42.6878 32.7813 41.8344 33.16 40.7678 33.16C40.1064 33.16 39.5571 33.0373 39.1198 32.792C38.6931 32.536 38.3571 32.2427 38.1118 31.912H38.0158C38.0371 32.0933 38.0584 32.3227 38.0798 32.6C38.1011 32.8773 38.1118 33.1173 38.1118 33.32V36.84H36.7038V24.424H37.8558L38.0478 25.592H38.1118C38.3678 25.2187 38.7038 24.904 39.1198 24.648C39.5358 24.392 40.0904 24.264 40.7838 24.264ZM40.5278 25.448C39.6531 25.448 39.0344 25.6933 38.6718 26.184C38.3198 26.6747 38.1331 27.4213 38.1118 28.424V28.696C38.1118 29.752 38.2824 30.568 38.6238 31.144C38.9758 31.7093 39.6211 31.992 40.5598 31.992C41.0824 31.992 41.5091 31.848 41.8398 31.56C42.1811 31.272 42.4318 30.8827 42.5918 30.392C42.7624 29.8907 42.8478 29.32 42.8478 28.68C42.8478 27.6987 42.6558 26.9147 42.2718 26.328C41.8984 25.7413 41.3171 25.448 40.5278 25.448ZM47.9555 24.408C47.9555 24.8347 47.9288 25.2347 47.8755 25.608H47.9715C48.2488 25.1707 48.6222 24.84 49.0915 24.616C49.5715 24.392 50.0888 24.28 50.6435 24.28C51.6888 24.28 52.4728 24.5307 52.9955 25.032C53.5182 25.5227 53.7795 26.3173 53.7795 27.416V33H52.3875V27.512C52.3875 26.136 51.7475 25.448 50.4675 25.448C49.5075 25.448 48.8462 25.72 48.4835 26.264C48.1315 26.7973 47.9555 27.5653 47.9555 28.568V33H46.5475V20.84H47.9555V24.408ZM59.6861 24.28C60.7315 24.28 61.5048 24.5093 62.0061 24.968C62.5075 25.4267 62.7581 26.1573 62.7581 27.16V33H61.7341L61.4621 31.784H61.3981C61.0248 32.2533 60.6301 32.6 60.2141 32.824C59.8088 33.048 59.2435 33.16 58.5181 33.16C57.7395 33.16 57.0941 32.9573 56.5821 32.552C56.0701 32.136 55.8141 31.4907 55.8141 30.616C55.8141 29.7627 56.1501 29.1067 56.8221 28.648C57.4941 28.1787 58.5288 27.9227 59.9261 27.88L61.3821 27.832V27.32C61.3821 26.6053 61.2275 26.1093 60.9181 25.832C60.6088 25.5547 60.1715 25.416 59.6061 25.416C59.1581 25.416 58.7315 25.4853 58.3261 25.624C57.9208 25.752 57.5421 25.9013 57.1901 26.072L56.7581 25.016C57.1315 24.8133 57.5741 24.6427 58.0861 24.504C58.5981 24.3547 59.1315 24.28 59.6861 24.28ZM60.1021 28.856C59.0355 28.8987 58.2941 29.0693 57.8781 29.368C57.4728 29.6667 57.2701 30.088 57.2701 30.632C57.2701 31.112 57.4141 31.464 57.7021 31.688C58.0008 31.912 58.3795 32.024 58.8381 32.024C59.5635 32.024 60.1661 31.8267 60.6461 31.432C61.1261 31.0267 61.3661 30.408 61.3661 29.576V28.808L60.1021 28.856ZM66.8149 23.8C66.8149 24.1627 66.8042 24.504 66.7829 24.824C66.7722 25.1333 66.7562 25.3787 66.7349 25.56H66.8149C67.0602 25.1973 67.3962 24.8933 67.8229 24.648C68.2495 24.4027 68.7989 24.28 69.4709 24.28C70.5375 24.28 71.3909 24.6533 72.0309 25.4C72.6815 26.136 73.0069 27.24 73.0069 28.712C73.0069 30.184 72.6815 31.2933 72.0309 32.04C71.3802 32.7867 70.5269 33.16 69.4709 33.16C68.7989 33.16 68.2495 33.0373 67.8229 32.792C67.3962 32.5467 67.0602 32.2533 66.8149 31.912H66.7029L66.4149 33H65.4069V20.84H66.8149V23.8ZM69.2309 25.448C68.3242 25.448 67.6949 25.7093 67.3429 26.232C66.9909 26.7547 66.8149 27.5653 66.8149 28.664V28.728C66.8149 29.784 66.9855 30.5947 67.3269 31.16C67.6789 31.7147 68.3242 31.992 69.2629 31.992C70.0309 31.992 70.6015 31.7093 70.9749 31.144C71.3589 30.5787 71.5509 29.7627 71.5509 28.696C71.5509 26.5307 70.7775 25.448 69.2309 25.448ZM78.5626 24.264C79.2986 24.264 79.928 24.424 80.4506 24.744C80.984 25.064 81.3893 25.5173 81.6666 26.104C81.9546 26.68 82.0986 27.3573 82.0986 28.136V28.984H76.2266C76.248 29.9547 76.4933 30.696 76.9626 31.208C77.4426 31.7093 78.1093 31.96 78.9626 31.96C79.5066 31.96 79.9866 31.912 80.4026 31.816C80.8293 31.7093 81.2666 31.56 81.7146 31.368V32.6C81.2773 32.792 80.8453 32.9307 80.4186 33.016C79.992 33.112 79.4853 33.16 78.8986 33.16C78.088 33.16 77.368 32.9947 76.7386 32.664C76.12 32.3333 75.6346 31.8427 75.2826 31.192C74.9413 30.5307 74.7706 29.7253 74.7706 28.776C74.7706 27.8373 74.9253 27.032 75.2346 26.36C75.5546 25.688 75.9973 25.1707 76.5626 24.808C77.1386 24.4453 77.8053 24.264 78.5626 24.264ZM78.5466 25.416C77.8746 25.416 77.3413 25.6347 76.9466 26.072C76.5626 26.4987 76.3333 27.096 76.2586 27.864H80.6266C80.616 27.1387 80.4453 26.552 80.1146 26.104C79.784 25.6453 79.2613 25.416 78.5466 25.416ZM87.1459 32.008C87.3592 32.008 87.5779 31.992 87.8019 31.96C88.0259 31.9173 88.2072 31.8747 88.3459 31.832V32.904C88.1965 32.9787 87.9832 33.0373 87.7059 33.08C87.4285 33.1333 87.1619 33.16 86.9059 33.16C86.4579 33.16 86.0419 33.0853 85.6579 32.936C85.2845 32.776 84.9805 32.504 84.7459 32.12C84.5112 31.736 84.3939 31.1973 84.3939 30.504V25.512H83.1779V24.84L84.4099 24.28L84.9699 22.456H85.8019V24.424H88.2819V25.512H85.8019V30.472C85.8019 30.9947 85.9245 31.384 86.1699 31.64C86.4259 31.8853 86.7512 32.008 87.1459 32.008ZM90.7831 21.208C90.9965 21.208 91.1831 21.2827 91.3431 21.432C91.5138 21.5707 91.5991 21.7947 91.5991 22.104C91.5991 22.4027 91.5138 22.6267 91.3431 22.776C91.1831 22.9253 90.9965 23 90.7831 23C90.5485 23 90.3511 22.9253 90.1911 22.776C90.0311 22.6267 89.9511 22.4027 89.9511 22.104C89.9511 21.7947 90.0311 21.5707 90.1911 21.432C90.3511 21.2827 90.5485 21.208 90.7831 21.208ZM91.4711 24.424V33H90.0631V24.424H91.4711ZM97.6281 33.16C96.8708 33.16 96.1935 33.0053 95.5961 32.696C95.0095 32.3867 94.5455 31.9067 94.2041 31.256C93.8735 30.6053 93.7081 29.7733 93.7081 28.76C93.7081 27.704 93.8841 26.8453 94.2361 26.184C94.5881 25.5227 95.0628 25.0373 95.6601 24.728C96.2681 24.4187 96.9561 24.264 97.7241 24.264C98.1615 24.264 98.5828 24.312 98.9881 24.408C99.3935 24.4933 99.7241 24.6 99.9801 24.728L99.5481 25.896C99.2921 25.8 98.9935 25.7093 98.6521 25.624C98.3108 25.5387 97.9908 25.496 97.6921 25.496C96.0068 25.496 95.1641 26.5787 95.1641 28.744C95.1641 29.7787 95.3668 30.5733 95.7721 31.128C96.1881 31.672 96.8015 31.944 97.6121 31.944C98.0815 31.944 98.4921 31.896 98.8441 31.8C99.2068 31.704 99.5375 31.5867 99.8361 31.448V32.696C99.5481 32.8453 99.2281 32.9573 98.8761 33.032C98.5348 33.1173 98.1188 33.16 97.6281 33.16ZM105.124 24.28C106.169 24.28 106.942 24.5093 107.444 24.968C107.945 25.4267 108.196 26.1573 108.196 27.16V33H107.172L106.9 31.784H106.836C106.462 32.2533 106.068 32.6 105.652 32.824C105.246 33.048 104.681 33.16 103.956 33.16C103.177 33.16 102.532 32.9573 102.02 32.552C101.508 32.136 101.252 31.4907 101.252 30.616C101.252 29.7627 101.588 29.1067 102.26 28.648C102.932 28.1787 103.966 27.9227 105.364 27.88L106.82 27.832V27.32C106.82 26.6053 106.665 26.1093 106.356 25.832C106.046 25.5547 105.609 25.416 105.044 25.416C104.596 25.416 104.169 25.4853 103.764 25.624C103.358 25.752 102.98 25.9013 102.628 26.072L102.196 25.016C102.569 24.8133 103.012 24.6427 103.524 24.504C104.036 24.3547 104.569 24.28 105.124 24.28ZM105.54 28.856C104.473 28.8987 103.732 29.0693 103.316 29.368C102.91 29.6667 102.708 30.088 102.708 30.632C102.708 31.112 102.852 31.464 103.14 31.688C103.438 31.912 103.817 32.024 104.276 32.024C105.001 32.024 105.604 31.8267 106.084 31.432C106.564 31.0267 106.804 30.408 106.804 29.576V28.808L105.54 28.856ZM112.252 33H110.844V20.84H112.252V33ZM118.406 28.616C118.406 27.3147 118.592 26.0613 118.966 24.856C119.35 23.64 119.947 22.5467 120.758 21.576H122.086C121.339 22.5787 120.774 23.6827 120.39 24.888C120.016 26.0933 119.83 27.3307 119.83 28.6C119.83 29.8373 120.016 31.0533 120.39 32.248C120.774 33.432 121.334 34.5253 122.07 35.528H120.758C119.947 34.5893 119.35 33.528 118.966 32.344C118.592 31.1493 118.406 29.9067 118.406 28.616ZM131.283 33L129.907 29.464H125.379L124.019 33H122.562L127.027 21.528H128.323L132.771 33H131.283ZM128.195 24.728C128.163 24.6427 128.109 24.488 128.035 24.264C127.96 24.04 127.885 23.8107 127.811 23.576C127.747 23.3307 127.693 23.144 127.651 23.016C127.576 23.3467 127.491 23.672 127.395 23.992C127.299 24.3013 127.219 24.5467 127.155 24.728L125.859 28.184H129.475L128.195 24.728ZM133.421 29.336V28.088H137.293V29.336H133.421ZM146.466 33H138.546V31.912L144.562 22.856H138.738V21.576H146.306V22.664L140.289 31.72H146.466V33ZM151.254 28.616C151.254 29.9067 151.062 31.1493 150.678 32.344C150.304 33.528 149.712 34.5893 148.902 35.528H147.59C148.326 34.5253 148.88 33.432 149.254 32.248C149.638 31.0533 149.83 29.8373 149.83 28.6C149.83 27.3307 149.638 26.0933 149.254 24.888C148.88 23.6827 148.32 22.5787 147.574 21.576H148.902C149.712 22.5467 150.304 23.64 150.678 24.856C151.062 26.0613 151.254 27.3147 151.254 28.616Z" fill="#061621"/>
<path d="M30.72 71L29.344 67.464H24.816L23.456 71H22L26.464 59.528H27.76L32.208 71H30.72ZM27.632 62.728C27.6 62.6427 27.5467 62.488 27.472 62.264C27.3973 62.04 27.3227 61.8107 27.248 61.576C27.184 61.3307 27.1307 61.144 27.088 61.016C27.0133 61.3467 26.928 61.672 26.832 61.992C26.736 62.3013 26.656 62.5467 26.592 62.728L25.296 66.184H28.912L27.632 62.728ZM34.9868 71H33.5788V58.84H34.9868V71ZM41.7838 62.264C42.8398 62.264 43.6878 62.632 44.3278 63.368C44.9784 64.104 45.3038 65.2133 45.3038 66.696C45.3038 68.1573 44.9784 69.2667 44.3278 70.024C43.6878 70.7813 42.8344 71.16 41.7678 71.16C41.1064 71.16 40.5571 71.0373 40.1198 70.792C39.6931 70.536 39.3571 70.2427 39.1118 69.912H39.0158C39.0371 70.0933 39.0584 70.3227 39.0798 70.6C39.1011 70.8773 39.1118 71.1173 39.1118 71.32V74.84H37.7038V62.424H38.8558L39.0478 63.592H39.1118C39.3678 63.2187 39.7038 62.904 40.1198 62.648C40.5358 62.392 41.0904 62.264 41.7838 62.264ZM41.5278 63.448C40.6531 63.448 40.0344 63.6933 39.6718 64.184C39.3198 64.6747 39.1331 65.4213 39.1118 66.424V66.696C39.1118 67.752 39.2824 68.568 39.6238 69.144C39.9758 69.7093 40.6211 69.992 41.5598 69.992C42.0824 69.992 42.5091 69.848 42.8398 69.56C43.1811 69.272 43.4318 68.8827 43.5918 68.392C43.7624 67.8907 43.8478 67.32 43.8478 66.68C43.8478 65.6987 43.6558 64.9147 43.2718 64.328C42.8984 63.7413 42.3171 63.448 41.5278 63.448ZM48.9555 62.408C48.9555 62.8347 48.9288 63.2347 48.8755 63.608H48.9715C49.2488 63.1707 49.6222 62.84 50.0915 62.616C50.5715 62.392 51.0888 62.28 51.6435 62.28C52.6888 62.28 53.4728 62.5307 53.9955 63.032C54.5182 63.5227 54.7795 64.3173 54.7795 65.416V71H53.3875V65.512C53.3875 64.136 52.7475 63.448 51.4675 63.448C50.5075 63.448 49.8462 63.72 49.4835 64.264C49.1315 64.7973 48.9555 65.5653 48.9555 66.568V71H47.5475V58.84H48.9555V62.408ZM60.6861 62.28C61.7315 62.28 62.5048 62.5093 63.0061 62.968C63.5075 63.4267 63.7581 64.1573 63.7581 65.16V71H62.7341L62.4621 69.784H62.3981C62.0248 70.2533 61.6301 70.6 61.2141 70.824C60.8088 71.048 60.2435 71.16 59.5181 71.16C58.7395 71.16 58.0941 70.9573 57.5821 70.552C57.0701 70.136 56.8141 69.4907 56.8141 68.616C56.8141 67.7627 57.1501 67.1067 57.8221 66.648C58.4941 66.1787 59.5288 65.9227 60.9261 65.88L62.3821 65.832V65.32C62.3821 64.6053 62.2275 64.1093 61.9181 63.832C61.6088 63.5547 61.1715 63.416 60.6061 63.416C60.1581 63.416 59.7315 63.4853 59.3261 63.624C58.9208 63.752 58.5421 63.9013 58.1901 64.072L57.7581 63.016C58.1315 62.8133 58.5741 62.6427 59.0861 62.504C59.5981 62.3547 60.1315 62.28 60.6861 62.28ZM61.1021 66.856C60.0355 66.8987 59.2941 67.0693 58.8781 67.368C58.4728 67.6667 58.2701 68.088 58.2701 68.632C58.2701 69.112 58.4141 69.464 58.7021 69.688C59.0008 69.912 59.3795 70.024 59.8381 70.024C60.5635 70.024 61.1661 69.8267 61.6461 69.432C62.1261 69.0267 62.3661 68.408 62.3661 67.576V66.808L61.1021 66.856ZM67.8149 61.8C67.8149 62.1627 67.8042 62.504 67.7829 62.824C67.7722 63.1333 67.7562 63.3787 67.7349 63.56H67.8149C68.0602 63.1973 68.3962 62.8933 68.8229 62.648C69.2495 62.4027 69.7989 62.28 70.4709 62.28C71.5375 62.28 72.3909 62.6533 73.0309 63.4C73.6815 64.136 74.0069 65.24 74.0069 66.712C74.0069 68.184 73.6815 69.2933 73.0309 70.04C72.3802 70.7867 71.5269 71.16 70.4709 71.16C69.7989 71.16 69.2495 71.0373 68.8229 70.792C68.3962 70.5467 68.0602 70.2533 67.8149 69.912H67.7029L67.4149 71H66.4069V58.84H67.8149V61.8ZM70.2309 63.448C69.3242 63.448 68.6949 63.7093 68.3429 64.232C67.9909 64.7547 67.8149 65.5653 67.8149 66.664V66.728C67.8149 67.784 67.9855 68.5947 68.3269 69.16C68.6789 69.7147 69.3242 69.992 70.2629 69.992C71.0309 69.992 71.6015 69.7093 71.9749 69.144C72.3589 68.5787 72.5509 67.7627 72.5509 66.696C72.5509 64.5307 71.7775 63.448 70.2309 63.448ZM79.5626 62.264C80.2986 62.264 80.928 62.424 81.4506 62.744C81.984 63.064 82.3893 63.5173 82.6666 64.104C82.9546 64.68 83.0986 65.3573 83.0986 66.136V66.984H77.2266C77.248 67.9547 77.4933 68.696 77.9626 69.208C78.4426 69.7093 79.1093 69.96 79.9626 69.96C80.5066 69.96 80.9866 69.912 81.4026 69.816C81.8293 69.7093 82.2666 69.56 82.7146 69.368V70.6C82.2773 70.792 81.8453 70.9307 81.4186 71.016C80.992 71.112 80.4853 71.16 79.8986 71.16C79.088 71.16 78.368 70.9947 77.7386 70.664C77.12 70.3333 76.6346 69.8427 76.2826 69.192C75.9413 68.5307 75.7706 67.7253 75.7706 66.776C75.7706 65.8373 75.9253 65.032 76.2346 64.36C76.5546 63.688 76.9973 63.1707 77.5626 62.808C78.1386 62.4453 78.8053 62.264 79.5626 62.264ZM79.5466 63.416C78.8746 63.416 78.3413 63.6347 77.9466 64.072C77.5626 64.4987 77.3333 65.096 77.2586 65.864H81.6266C81.616 65.1387 81.4453 64.552 81.1146 64.104C80.784 63.6453 80.2613 63.416 79.5466 63.416ZM88.1459 70.008C88.3592 70.008 88.5779 69.992 88.8019 69.96C89.0259 69.9173 89.2072 69.8747 89.3459 69.832V70.904C89.1965 70.9787 88.9832 71.0373 88.7059 71.08C88.4285 71.1333 88.1619 71.16 87.9059 71.16C87.4579 71.16 87.0419 71.0853 86.6579 70.936C86.2845 70.776 85.9805 70.504 85.7459 70.12C85.5112 69.736 85.3939 69.1973 85.3939 68.504V63.512H84.1779V62.84L85.4099 62.28L85.9699 60.456H86.8019V62.424H89.2819V63.512H86.8019V68.472C86.8019 68.9947 86.9245 69.384 87.1699 69.64C87.4259 69.8853 87.7512 70.008 88.1459 70.008ZM91.7831 59.208C91.9965 59.208 92.1831 59.2827 92.3431 59.432C92.5138 59.5707 92.5991 59.7947 92.5991 60.104C92.5991 60.4027 92.5138 60.6267 92.3431 60.776C92.1831 60.9253 91.9965 61 91.7831 61C91.5485 61 91.3511 60.9253 91.1911 60.776C91.0311 60.6267 90.9511 60.4027 90.9511 60.104C90.9511 59.7947 91.0311 59.5707 91.1911 59.432C91.3511 59.2827 91.5485 59.208 91.7831 59.208ZM92.4711 62.424V71H91.0631V62.424H92.4711ZM98.6281 71.16C97.8708 71.16 97.1935 71.0053 96.5961 70.696C96.0095 70.3867 95.5455 69.9067 95.2041 69.256C94.8735 68.6053 94.7081 67.7733 94.7081 66.76C94.7081 65.704 94.8841 64.8453 95.2361 64.184C95.5881 63.5227 96.0628 63.0373 96.6601 62.728C97.2681 62.4187 97.9561 62.264 98.7241 62.264C99.1615 62.264 99.5828 62.312 99.9881 62.408C100.393 62.4933 100.724 62.6 100.98 62.728L100.548 63.896C100.292 63.8 99.9935 63.7093 99.6521 63.624C99.3108 63.5387 98.9908 63.496 98.6921 63.496C97.0068 63.496 96.1641 64.5787 96.1641 66.744C96.1641 67.7787 96.3668 68.5733 96.7721 69.128C97.1881 69.672 97.8015 69.944 98.6121 69.944C99.0815 69.944 99.4921 69.896 99.8441 69.8C100.207 69.704 100.537 69.5867 100.836 69.448V70.696C100.548 70.8453 100.228 70.9573 99.8761 71.032C99.5348 71.1173 99.1188 71.16 98.6281 71.16ZM106.124 62.28C107.169 62.28 107.942 62.5093 108.444 62.968C108.945 63.4267 109.196 64.1573 109.196 65.16V71H108.172L107.9 69.784H107.836C107.462 70.2533 107.068 70.6 106.652 70.824C106.246 71.048 105.681 71.16 104.956 71.16C104.177 71.16 103.532 70.9573 103.02 70.552C102.508 70.136 102.252 69.4907 102.252 68.616C102.252 67.7627 102.588 67.1067 103.26 66.648C103.932 66.1787 104.966 65.9227 106.364 65.88L107.82 65.832V65.32C107.82 64.6053 107.665 64.1093 107.356 63.832C107.046 63.5547 106.609 63.416 106.044 63.416C105.596 63.416 105.169 63.4853 104.764 63.624C104.358 63.752 103.98 63.9013 103.628 64.072L103.196 63.016C103.569 62.8133 104.012 62.6427 104.524 62.504C105.036 62.3547 105.569 62.28 106.124 62.28ZM106.54 66.856C105.473 66.8987 104.732 67.0693 104.316 67.368C103.91 67.6667 103.708 68.088 103.708 68.632C103.708 69.112 103.852 69.464 104.14 69.688C104.438 69.912 104.817 70.024 105.276 70.024C106.001 70.024 106.604 69.8267 107.084 69.432C107.564 69.0267 107.804 68.408 107.804 67.576V66.808L106.54 66.856ZM113.252 71H111.844V58.84H113.252V71ZM119.406 66.616C119.406 65.3147 119.592 64.0613 119.966 62.856C120.35 61.64 120.947 60.5467 121.758 59.576H123.086C122.339 60.5787 121.774 61.6827 121.39 62.888C121.016 64.0933 120.83 65.3307 120.83 66.6C120.83 67.8373 121.016 69.0533 121.39 70.248C121.774 71.432 122.334 72.5253 123.07 73.528H121.758C120.947 72.5893 120.35 71.528 119.966 70.344C119.592 69.1493 119.406 67.9067 119.406 66.616ZM132.091 71H124.171V69.912L130.187 60.856H124.363V59.576H131.931V60.664L125.914 69.72H132.091V71ZM133.359 67.336V66.088H137.231V67.336H133.359ZM146.595 71L145.219 67.464H140.691L139.331 71H137.875L142.339 59.528H143.635L148.083 71H146.595ZM143.507 62.728C143.475 62.6427 143.422 62.488 143.347 62.264C143.272 62.04 143.198 61.8107 143.123 61.576C143.059 61.3307 143.006 61.144 142.963 61.016C142.888 61.3467 142.803 61.672 142.707 61.992C142.611 62.3013 142.531 62.5467 142.467 62.728L141.171 66.184H144.787L143.507 62.728ZM152.254 66.616C152.254 67.9067 152.062 69.1493 151.678 70.344C151.304 71.528 150.712 72.5893 149.902 73.528H148.59C149.326 72.5253 149.88 71.432 150.254 70.248C150.638 69.0533 150.83 67.8373 150.83 66.6C150.83 65.3307 150.638 64.0933 150.254 62.888C149.88 61.6827 149.32 60.5787 148.574 59.576H149.902C150.712 60.5467 151.304 61.64 151.678 62.856C152.062 64.0613 152.254 65.3147 152.254 66.616Z" fill="#061621"/>
<path d="M26.816 140.576C28.2453 140.576 29.3227 140.789 30.048 141.216C30.784 141.632 31.152 142.363 31.152 143.408C31.152 144.08 30.9653 144.64 30.592 145.088C30.2187 145.525 29.68 145.808 28.976 145.936V146.016C29.456 146.091 29.888 146.229 30.272 146.432C30.6667 146.635 30.976 146.923 31.2 147.296C31.424 147.669 31.536 148.155 31.536 148.752C31.536 149.787 31.1787 150.587 30.464 151.152C29.76 151.717 28.7947 152 27.568 152H23.552V140.576H26.816ZM27.104 145.44C28.0853 145.44 28.7573 145.285 29.12 144.976C29.4827 144.656 29.664 144.187 29.664 143.568C29.664 142.939 29.44 142.491 28.992 142.224C28.5547 141.947 27.8507 141.808 26.88 141.808H24.992V145.44H27.104ZM24.992 146.64V150.784H27.296C28.3093 150.784 29.0133 150.587 29.408 150.192C29.8027 149.797 30 149.28 30 148.64C30 148.043 29.792 147.563 29.376 147.2C28.9707 146.827 28.24 146.64 27.184 146.64H24.992ZM32.4223 143.424H33.9263L35.7823 148.304C35.9423 148.731 36.0863 149.141 36.2143 149.536C36.3423 149.92 36.4383 150.288 36.5023 150.64H36.5663C36.6303 150.373 36.7316 150.027 36.8703 149.6C37.0089 149.163 37.1529 148.725 37.3023 148.288L39.0463 143.424H40.5663L36.8703 153.184C36.5716 153.995 36.1823 154.64 35.7023 155.12C35.2329 155.6 34.5823 155.84 33.7503 155.84C33.4943 155.84 33.2703 155.824 33.0783 155.792C32.8863 155.771 32.7209 155.744 32.5823 155.712V154.592C32.6996 154.613 32.8383 154.635 32.9983 154.656C33.1689 154.677 33.3449 154.688 33.5263 154.688C34.0169 154.688 34.4116 154.549 34.7103 154.272C35.0196 153.995 35.2596 153.627 35.4303 153.168L35.8783 152.032L32.4223 143.424ZM49.2468 146.192L52.2228 140.576H53.7748L49.9668 147.568V152H48.5268V147.632L44.7188 140.576H46.2868L49.2468 146.192ZM57.6564 143.264C58.3924 143.264 59.0217 143.424 59.5444 143.744C60.0777 144.064 60.483 144.517 60.7604 145.104C61.0484 145.68 61.1924 146.357 61.1924 147.136V147.984H55.3204C55.3417 148.955 55.587 149.696 56.0564 150.208C56.5364 150.709 57.203 150.96 58.0564 150.96C58.6004 150.96 59.0804 150.912 59.4964 150.816C59.923 150.709 60.3604 150.56 60.8084 150.368V151.6C60.371 151.792 59.939 151.931 59.5124 152.016C59.0857 152.112 58.579 152.16 57.9924 152.16C57.1817 152.16 56.4617 151.995 55.8324 151.664C55.2137 151.333 54.7284 150.843 54.3764 150.192C54.035 149.531 53.8644 148.725 53.8644 147.776C53.8644 146.837 54.019 146.032 54.3284 145.36C54.6484 144.688 55.091 144.171 55.6564 143.808C56.2324 143.445 56.899 143.264 57.6564 143.264ZM57.6404 144.416C56.9684 144.416 56.435 144.635 56.0404 145.072C55.6564 145.499 55.427 146.096 55.3524 146.864H59.7204C59.7097 146.139 59.539 145.552 59.2084 145.104C58.8777 144.645 58.355 144.416 57.6404 144.416ZM66.6236 143.28C67.669 143.28 68.4423 143.509 68.9436 143.968C69.445 144.427 69.6956 145.157 69.6956 146.16V152H68.6716L68.3996 150.784H68.3356C67.9623 151.253 67.5676 151.6 67.1516 151.824C66.7463 152.048 66.181 152.16 65.4556 152.16C64.677 152.16 64.0316 151.957 63.5196 151.552C63.0076 151.136 62.7516 150.491 62.7516 149.616C62.7516 148.763 63.0876 148.107 63.7596 147.648C64.4316 147.179 65.4663 146.923 66.8636 146.88L68.3196 146.832V146.32C68.3196 145.605 68.165 145.109 67.8556 144.832C67.5463 144.555 67.109 144.416 66.5436 144.416C66.0956 144.416 65.669 144.485 65.2636 144.624C64.8583 144.752 64.4796 144.901 64.1276 145.072L63.6956 144.016C64.069 143.813 64.5116 143.643 65.0236 143.504C65.5356 143.355 66.069 143.28 66.6236 143.28ZM67.0396 147.856C65.973 147.899 65.2316 148.069 64.8156 148.368C64.4103 148.667 64.2076 149.088 64.2076 149.632C64.2076 150.112 64.3516 150.464 64.6396 150.688C64.9383 150.912 65.317 151.024 65.7756 151.024C66.501 151.024 67.1036 150.827 67.5836 150.432C68.0636 150.027 68.3036 149.408 68.3036 148.576V147.808L67.0396 147.856ZM76.3444 143.264C76.5044 143.264 76.675 143.275 76.8564 143.296C77.0484 143.307 77.2137 143.328 77.3524 143.36L77.1764 144.656C77.0377 144.624 76.883 144.597 76.7124 144.576C76.5524 144.555 76.3977 144.544 76.2484 144.544C75.811 144.544 75.4004 144.667 75.0164 144.912C74.6324 145.147 74.323 145.483 74.0884 145.92C73.8644 146.347 73.7524 146.848 73.7524 147.424V152H72.3444V143.424H73.4964L73.6564 144.992H73.7204C73.9977 144.523 74.355 144.117 74.7924 143.776C75.2297 143.435 75.747 143.264 76.3444 143.264ZM82.39 147.616C82.39 146.315 82.5767 145.061 82.95 143.856C83.334 142.64 83.9313 141.547 84.742 140.576H86.07C85.3233 141.579 84.758 142.683 84.374 143.888C84.0007 145.093 83.814 146.331 83.814 147.6C83.814 148.837 84.0007 150.053 84.374 151.248C84.758 152.432 85.318 153.525 86.054 154.528H84.742C83.9313 153.589 83.334 152.528 82.95 151.344C82.5767 150.149 82.39 148.907 82.39 147.616ZM92.0349 143.264C93.0589 143.264 93.8322 143.515 94.3549 144.016C94.8775 144.507 95.1389 145.307 95.1389 146.416V152H93.7469V146.512C93.7469 145.136 93.1069 144.448 91.8269 144.448C90.8775 144.448 90.2215 144.715 89.8589 145.248C89.4962 145.781 89.3149 146.549 89.3149 147.552V152H87.9069V143.424H89.0429L89.2509 144.592H89.3309C89.6082 144.144 89.9922 143.813 90.4829 143.6C90.9735 143.376 91.4909 143.264 92.0349 143.264ZM101.11 143.264C101.846 143.264 102.475 143.424 102.998 143.744C103.531 144.064 103.936 144.517 104.214 145.104C104.502 145.68 104.646 146.357 104.646 147.136V147.984H98.7735C98.7948 148.955 99.0402 149.696 99.5095 150.208C99.9895 150.709 100.656 150.96 101.51 150.96C102.054 150.96 102.534 150.912 102.95 150.816C103.376 150.709 103.814 150.56 104.262 150.368V151.6C103.824 151.792 103.392 151.931 102.966 152.016C102.539 152.112 102.032 152.16 101.446 152.16C100.635 152.16 99.9148 151.995 99.2855 151.664C98.6668 151.333 98.1815 150.843 97.8295 150.192C97.4882 149.531 97.3175 148.725 97.3175 147.776C97.3175 146.837 97.4722 146.032 97.7815 145.36C98.1015 144.688 98.5442 144.171 99.1095 143.808C99.6855 143.445 100.352 143.264 101.11 143.264ZM101.094 144.416C100.422 144.416 99.8882 144.635 99.4935 145.072C99.1095 145.499 98.8802 146.096 98.8055 146.864H103.174C103.163 146.139 102.992 145.552 102.662 145.104C102.331 144.645 101.808 144.416 101.094 144.416ZM112.052 147.152C111.914 146.715 111.791 146.288 111.684 145.872C111.588 145.445 111.514 145.115 111.46 144.88H111.396C111.354 145.115 111.284 145.445 111.188 145.872C111.092 146.288 110.97 146.72 110.82 147.168L109.284 151.984H107.684L105.332 143.408H106.788L107.972 147.984C108.09 148.443 108.202 148.907 108.308 149.376C108.415 149.845 108.49 150.235 108.532 150.544H108.596C108.639 150.363 108.687 150.139 108.74 149.872C108.804 149.605 108.874 149.328 108.948 149.04C109.023 148.741 109.098 148.475 109.172 148.24L110.692 143.408H112.228L113.7 148.24C113.818 148.603 113.93 148.997 114.036 149.424C114.154 149.851 114.234 150.219 114.276 150.528H114.34C114.372 150.261 114.442 149.893 114.548 149.424C114.666 148.955 114.788 148.475 114.916 147.984L116.116 143.408H117.556L115.172 151.984H113.524L112.052 147.152ZM122.406 143.264C123.142 143.264 123.772 143.424 124.294 143.744C124.828 144.064 125.233 144.517 125.51 145.104C125.798 145.68 125.942 146.357 125.942 147.136V147.984H120.07C120.092 148.955 120.337 149.696 120.806 150.208C121.286 150.709 121.953 150.96 122.806 150.96C123.35 150.96 123.83 150.912 124.246 150.816C124.673 150.709 125.11 150.56 125.558 150.368V151.6C125.121 151.792 124.689 151.931 124.262 152.016C123.836 152.112 123.329 152.16 122.742 152.16C121.932 152.16 121.212 151.995 120.582 151.664C119.964 151.333 119.478 150.843 119.126 150.192C118.785 149.531 118.614 148.725 118.614 147.776C118.614 146.837 118.769 146.032 119.078 145.36C119.398 144.688 119.841 144.171 120.406 143.808C120.982 143.445 121.649 143.264 122.406 143.264ZM122.39 144.416C121.718 144.416 121.185 144.635 120.79 145.072C120.406 145.499 120.177 146.096 120.102 146.864H124.47C124.46 146.139 124.289 145.552 123.958 145.104C123.628 144.645 123.105 144.416 122.39 144.416ZM133.71 149.632C133.71 150.464 133.4 151.093 132.782 151.52C132.163 151.947 131.331 152.16 130.286 152.16C129.688 152.16 129.171 152.112 128.734 152.016C128.307 151.92 127.928 151.787 127.598 151.616V150.336C127.939 150.507 128.35 150.667 128.83 150.816C129.32 150.955 129.816 151.024 130.318 151.024C131.032 151.024 131.55 150.912 131.87 150.688C132.19 150.453 132.35 150.144 132.35 149.76C132.35 149.547 132.291 149.355 132.174 149.184C132.056 149.013 131.843 148.843 131.534 148.672C131.235 148.501 130.803 148.309 130.238 148.096C129.683 147.883 129.208 147.669 128.814 147.456C128.419 147.243 128.115 146.987 127.902 146.688C127.688 146.389 127.582 146.005 127.582 145.536C127.582 144.811 127.875 144.251 128.462 143.856C129.059 143.461 129.838 143.264 130.798 143.264C131.32 143.264 131.806 143.317 132.254 143.424C132.712 143.52 133.139 143.659 133.534 143.84L133.054 144.96C132.691 144.811 132.312 144.683 131.918 144.576C131.523 144.469 131.118 144.416 130.702 144.416C130.126 144.416 129.683 144.512 129.374 144.704C129.075 144.885 128.926 145.136 128.926 145.456C128.926 145.691 128.995 145.893 129.134 146.064C129.272 146.224 129.502 146.384 129.822 146.544C130.152 146.693 130.59 146.875 131.134 147.088C131.678 147.291 132.142 147.499 132.526 147.712C132.91 147.925 133.203 148.187 133.406 148.496C133.608 148.795 133.71 149.173 133.71 149.632ZM138.646 151.008C138.859 151.008 139.078 150.992 139.302 150.96C139.526 150.917 139.707 150.875 139.846 150.832V151.904C139.697 151.979 139.483 152.037 139.206 152.08C138.929 152.133 138.662 152.16 138.406 152.16C137.958 152.16 137.542 152.085 137.158 151.936C136.785 151.776 136.481 151.504 136.246 151.12C136.011 150.736 135.894 150.197 135.894 149.504V144.512H134.678V143.84L135.91 143.28L136.47 141.456H137.302V143.424H139.782V144.512H137.302V149.472C137.302 149.995 137.425 150.384 137.67 150.64C137.926 150.885 138.251 151.008 138.646 151.008ZM144.363 147.616C144.363 148.907 144.171 150.149 143.787 151.344C143.414 152.528 142.822 153.589 142.011 154.528H140.699C141.435 153.525 141.99 152.432 142.363 151.248C142.747 150.053 142.939 148.837 142.939 147.6C142.939 146.331 142.747 145.093 142.363 143.888C141.99 142.683 141.43 141.579 140.683 140.576H142.011C142.822 141.547 143.414 142.64 143.787 143.856C144.171 145.061 144.363 146.315 144.363 147.616Z" fill="#061621"/>
<path d="M26.816 100.576C28.2453 100.576 29.3227 100.789 30.048 101.216C30.784 101.632 31.152 102.363 31.152 103.408C31.152 104.08 30.9653 104.64 30.592 105.088C30.2187 105.525 29.68 105.808 28.976 105.936V106.016C29.456 106.091 29.888 106.229 30.272 106.432C30.6667 106.635 30.976 106.923 31.2 107.296C31.424 107.669 31.536 108.155 31.536 108.752C31.536 109.787 31.1787 110.587 30.464 111.152C29.76 111.717 28.7947 112 27.568 112H23.552V100.576H26.816ZM27.104 105.44C28.0853 105.44 28.7573 105.285 29.12 104.976C29.4827 104.656 29.664 104.187 29.664 103.568C29.664 102.939 29.44 102.491 28.992 102.224C28.5547 101.947 27.8507 101.808 26.88 101.808H24.992V105.44H27.104ZM24.992 106.64V110.784H27.296C28.3093 110.784 29.0133 110.587 29.408 110.192C29.8027 109.797 30 109.28 30 108.64C30 108.043 29.792 107.563 29.376 107.2C28.9707 106.827 28.24 106.64 27.184 106.64H24.992ZM32.4223 103.424H33.9263L35.7823 108.304C35.9423 108.731 36.0863 109.141 36.2143 109.536C36.3423 109.92 36.4383 110.288 36.5023 110.64H36.5663C36.6303 110.373 36.7316 110.027 36.8703 109.6C37.0089 109.163 37.1529 108.725 37.3023 108.288L39.0463 103.424H40.5663L36.8703 113.184C36.5716 113.995 36.1823 114.64 35.7023 115.12C35.2329 115.6 34.5823 115.84 33.7503 115.84C33.4943 115.84 33.2703 115.824 33.0783 115.792C32.8863 115.771 32.7209 115.744 32.5823 115.712V114.592C32.6996 114.613 32.8383 114.635 32.9983 114.656C33.1689 114.677 33.3449 114.688 33.5263 114.688C34.0169 114.688 34.4116 114.549 34.7103 114.272C35.0196 113.995 35.2596 113.627 35.4303 113.168L35.8783 112.032L32.4223 103.424ZM49.2468 106.192L52.2228 100.576H53.7748L49.9668 107.568V112H48.5268V107.632L44.7188 100.576H46.2868L49.2468 106.192ZM57.6564 103.264C58.3924 103.264 59.0217 103.424 59.5444 103.744C60.0777 104.064 60.483 104.517 60.7604 105.104C61.0484 105.68 61.1924 106.357 61.1924 107.136V107.984H55.3204C55.3417 108.955 55.587 109.696 56.0564 110.208C56.5364 110.709 57.203 110.96 58.0564 110.96C58.6004 110.96 59.0804 110.912 59.4964 110.816C59.923 110.709 60.3604 110.56 60.8084 110.368V111.6C60.371 111.792 59.939 111.931 59.5124 112.016C59.0857 112.112 58.579 112.16 57.9924 112.16C57.1817 112.16 56.4617 111.995 55.8324 111.664C55.2137 111.333 54.7284 110.843 54.3764 110.192C54.035 109.531 53.8644 108.725 53.8644 107.776C53.8644 106.837 54.019 106.032 54.3284 105.36C54.6484 104.688 55.091 104.171 55.6564 103.808C56.2324 103.445 56.899 103.264 57.6564 103.264ZM57.6404 104.416C56.9684 104.416 56.435 104.635 56.0404 105.072C55.6564 105.499 55.427 106.096 55.3524 106.864H59.7204C59.7097 106.139 59.539 105.552 59.2084 105.104C58.8777 104.645 58.355 104.416 57.6404 104.416ZM66.6236 103.28C67.669 103.28 68.4423 103.509 68.9436 103.968C69.445 104.427 69.6956 105.157 69.6956 106.16V112H68.6716L68.3996 110.784H68.3356C67.9623 111.253 67.5676 111.6 67.1516 111.824C66.7463 112.048 66.181 112.16 65.4556 112.16C64.677 112.16 64.0316 111.957 63.5196 111.552C63.0076 111.136 62.7516 110.491 62.7516 109.616C62.7516 108.763 63.0876 108.107 63.7596 107.648C64.4316 107.179 65.4663 106.923 66.8636 106.88L68.3196 106.832V106.32C68.3196 105.605 68.165 105.109 67.8556 104.832C67.5463 104.555 67.109 104.416 66.5436 104.416C66.0956 104.416 65.669 104.485 65.2636 104.624C64.8583 104.752 64.4796 104.901 64.1276 105.072L63.6956 104.016C64.069 103.813 64.5116 103.643 65.0236 103.504C65.5356 103.355 66.069 103.28 66.6236 103.28ZM67.0396 107.856C65.973 107.899 65.2316 108.069 64.8156 108.368C64.4103 108.667 64.2076 109.088 64.2076 109.632C64.2076 110.112 64.3516 110.464 64.6396 110.688C64.9383 110.912 65.317 111.024 65.7756 111.024C66.501 111.024 67.1036 110.827 67.5836 110.432C68.0636 110.027 68.3036 109.408 68.3036 108.576V107.808L67.0396 107.856ZM76.3444 103.264C76.5044 103.264 76.675 103.275 76.8564 103.296C77.0484 103.307 77.2137 103.328 77.3524 103.36L77.1764 104.656C77.0377 104.624 76.883 104.597 76.7124 104.576C76.5524 104.555 76.3977 104.544 76.2484 104.544C75.811 104.544 75.4004 104.667 75.0164 104.912C74.6324 105.147 74.323 105.483 74.0884 105.92C73.8644 106.347 73.7524 106.848 73.7524 107.424V112H72.3444V103.424H73.4964L73.6564 104.992H73.7204C73.9977 104.523 74.355 104.117 74.7924 103.776C75.2297 103.435 75.747 103.264 76.3444 103.264ZM82.39 107.616C82.39 106.315 82.5767 105.061 82.95 103.856C83.334 102.64 83.9313 101.547 84.742 100.576H86.07C85.3233 101.579 84.758 102.683 84.374 103.888C84.0007 105.093 83.814 106.331 83.814 107.6C83.814 108.837 84.0007 110.053 84.374 111.248C84.758 112.432 85.318 113.525 86.054 114.528H84.742C83.9313 113.589 83.334 112.528 82.95 111.344C82.5767 110.149 82.39 108.907 82.39 107.616ZM95.3629 107.696C95.3629 109.115 95.0002 110.213 94.2749 110.992C93.5602 111.771 92.5895 112.16 91.3629 112.16C90.6055 112.16 89.9282 111.989 89.3309 111.648C88.7442 111.296 88.2802 110.789 87.9389 110.128C87.5975 109.456 87.4269 108.645 87.4269 107.696C87.4269 106.277 87.7842 105.184 88.4989 104.416C89.2135 103.648 90.1842 103.264 91.4109 103.264C92.1895 103.264 92.8722 103.44 93.4589 103.792C94.0562 104.133 94.5202 104.635 94.8509 105.296C95.1922 105.947 95.3629 106.747 95.3629 107.696ZM88.8829 107.696C88.8829 108.709 89.0802 109.515 89.4749 110.112C89.8802 110.699 90.5202 110.992 91.3949 110.992C92.2589 110.992 92.8935 110.699 93.2989 110.112C93.7042 109.515 93.9069 108.709 93.9069 107.696C93.9069 106.683 93.7042 105.888 93.2989 105.312C92.8935 104.736 92.2535 104.448 91.3789 104.448C90.5042 104.448 89.8695 104.736 89.4749 105.312C89.0802 105.888 88.8829 106.683 88.8829 107.696ZM99.0024 112H97.5944V99.84H99.0024V112ZM104.759 112.16C103.693 112.16 102.839 111.792 102.199 111.056C101.559 110.309 101.239 109.2 101.239 107.728C101.239 106.256 101.559 105.147 102.199 104.4C102.85 103.643 103.709 103.264 104.775 103.264C105.437 103.264 105.975 103.387 106.391 103.632C106.818 103.877 107.165 104.176 107.431 104.528H107.527C107.517 104.389 107.495 104.187 107.463 103.92C107.442 103.643 107.431 103.424 107.431 103.264V99.84H108.839V112H107.703L107.495 110.848H107.431C107.175 111.211 106.834 111.52 106.407 111.776C105.981 112.032 105.431 112.16 104.759 112.16ZM104.983 110.992C105.89 110.992 106.525 110.747 106.887 110.256C107.261 109.755 107.447 109.003 107.447 108V107.744C107.447 106.677 107.271 105.861 106.919 105.296C106.567 104.72 105.917 104.432 104.967 104.432C104.21 104.432 103.639 104.736 103.255 105.344C102.882 105.941 102.695 106.747 102.695 107.76C102.695 108.784 102.882 109.579 103.255 110.144C103.639 110.709 104.215 110.992 104.983 110.992ZM114.875 103.264C115.611 103.264 116.24 103.424 116.763 103.744C117.296 104.064 117.702 104.517 117.979 105.104C118.267 105.68 118.411 106.357 118.411 107.136V107.984H112.539C112.56 108.955 112.806 109.696 113.275 110.208C113.755 110.709 114.422 110.96 115.275 110.96C115.819 110.96 116.299 110.912 116.715 110.816C117.142 110.709 117.579 110.56 118.027 110.368V111.6C117.59 111.792 117.158 111.931 116.731 112.016C116.304 112.112 115.798 112.16 115.211 112.16C114.4 112.16 113.68 111.995 113.051 111.664C112.432 111.333 111.947 110.843 111.595 110.192C111.254 109.531 111.083 108.725 111.083 107.776C111.083 106.837 111.238 106.032 111.547 105.36C111.867 104.688 112.31 104.171 112.875 103.808C113.451 103.445 114.118 103.264 114.875 103.264ZM114.859 104.416C114.187 104.416 113.654 104.635 113.259 105.072C112.875 105.499 112.646 106.096 112.571 106.864H116.939C116.928 106.139 116.758 105.552 116.427 105.104C116.096 104.645 115.574 104.416 114.859 104.416ZM126.178 109.632C126.178 110.464 125.869 111.093 125.25 111.52C124.632 111.947 123.8 112.16 122.754 112.16C122.157 112.16 121.64 112.112 121.202 112.016C120.776 111.92 120.397 111.787 120.066 111.616V110.336C120.408 110.507 120.818 110.667 121.298 110.816C121.789 110.955 122.285 111.024 122.786 111.024C123.501 111.024 124.018 110.912 124.338 110.688C124.658 110.453 124.818 110.144 124.818 109.76C124.818 109.547 124.76 109.355 124.642 109.184C124.525 109.013 124.312 108.843 124.002 108.672C123.704 108.501 123.272 108.309 122.706 108.096C122.152 107.883 121.677 107.669 121.282 107.456C120.888 107.243 120.584 106.987 120.37 106.688C120.157 106.389 120.05 106.005 120.05 105.536C120.05 104.811 120.344 104.251 120.93 103.856C121.528 103.461 122.306 103.264 123.266 103.264C123.789 103.264 124.274 103.317 124.722 103.424C125.181 103.52 125.608 103.659 126.002 103.84L125.522 104.96C125.16 104.811 124.781 104.683 124.386 104.576C123.992 104.469 123.586 104.416 123.17 104.416C122.594 104.416 122.152 104.512 121.842 104.704C121.544 104.885 121.394 105.136 121.394 105.456C121.394 105.691 121.464 105.893 121.602 106.064C121.741 106.224 121.97 106.384 122.29 106.544C122.621 106.693 123.058 106.875 123.602 107.088C124.146 107.291 124.61 107.499 124.994 107.712C125.378 107.925 125.672 108.187 125.874 108.496C126.077 108.795 126.178 109.173 126.178 109.632ZM131.115 111.008C131.328 111.008 131.547 110.992 131.771 110.96C131.995 110.917 132.176 110.875 132.315 110.832V111.904C132.165 111.979 131.952 112.037 131.675 112.08C131.397 112.133 131.131 112.16 130.875 112.16C130.427 112.16 130.011 112.085 129.627 111.936C129.253 111.776 128.949 111.504 128.715 111.12C128.48 110.736 128.363 110.197 128.363 109.504V104.512H127.147V103.84L128.379 103.28L128.939 101.456H129.771V103.424H132.251V104.512H129.771V109.472C129.771 109.995 129.893 110.384 130.139 110.64C130.395 110.885 130.72 111.008 131.115 111.008ZM136.832 107.616C136.832 108.907 136.64 110.149 136.256 111.344C135.883 112.528 135.291 113.589 134.48 114.528H133.168C133.904 113.525 134.459 112.432 134.832 111.248C135.216 110.053 135.408 108.837 135.408 107.6C135.408 106.331 135.216 105.093 134.832 103.888C134.459 102.683 133.899 101.579 133.152 100.576H134.48C135.291 101.547 135.883 102.64 136.256 103.856C136.64 105.061 136.832 106.315 136.832 107.616Z" fill="#061621"/>
<defs>
<clipPath id="clip0">
<rect width="246" height="183" fill="white"/>
</clipPath>
</defs>
</svg>
