<svg width="1144" height="3" viewBox="0 0 1144 3" fill="none" xmlns="http://www.w3.org/2000/svg">
<path d="M0.276655 0.869261C-0.320569 0.953373 0.0112326 1.14029 1.67019 1.10291L2.85352 0.794495L0.276655 0.869261Z" fill="#333531"/>
<path d="M11.4322 1.44843C13.3788 1.2989 15.635 1.03722 14.3742 0.747498C12.4387 1.04656 11.9742 0.925067 9.95023 1.28021C8.28019 1.28021 7.05255 1.1774 7.32905 1.06525C6.16966 1.05023 5.01018 1.09079 3.85623 1.18675C6.4279 1.42785 9.02196 1.44664 11.5981 1.24282C12.1733 1.30824 11.576 1.39236 11.4322 1.44843Z" fill="#333531"/>
<path d="M173.614 1.96271L172.504 1.96271C172.874 1.98199 173.244 1.98199 173.614 1.96271Z" fill="#333531"/>
<path d="M274.093 2.10289C273.721 2.08161 273.347 2.10362 272.982 2.16831C273.354 2.17712 273.726 2.15521 274.093 2.10289Z" fill="#333531"/>
<path d="M291.248 2.43915C290.882 2.43915 290.571 2.43915 290.237 2.43915C290.573 2.46614 290.912 2.46614 291.248 2.43915Z" fill="#333531"/>
<path d="M173.616 1.9625L176.292 2.0653C175.407 1.95144 174.509 1.91698 173.616 1.9625Z" fill="#333531"/>
<path d="M33.7969 0.700928C33.2328 0.700928 32.7683 0.747657 32.3369 0.78504C32.8015 0.78504 33.2439 0.78504 33.7084 0.78504C33.7303 0.751912 33.7605 0.723211 33.7969 0.700928Z" fill="#333531"/>
<path d="M129.311 2.17761L128.503 2.17761C128.26 2.17761 128.039 2.26173 127.818 2.30845L129.311 2.17761Z" fill="#333531"/>
<path d="M95.3241 2.22453C95.8015 2.22723 96.2671 2.09937 96.6514 1.86005C96.1057 1.9783 95.5445 2.03797 94.9812 2.03762C94.9591 2.09369 95.0697 2.14977 95.3241 2.22453Z" fill="#333531"/>
<path d="M41.416 1.76648L40.4609 1.76648C40.7052 1.79452 41.1272 1.77583 41.416 1.76648Z" fill="#333531"/>
<path d="M153.639 2.23376C153.736 2.2806 153.842 2.31227 153.952 2.32722C153.952 2.32722 153.829 2.2618 153.639 2.23376Z" fill="#333531"/>
<path d="M1104.45 0.261536C1104.45 0.261536 1104.45 0.261535 1104.45 0.308264C1104.66 0.280227 1104.72 0.261536 1104.45 0.261536Z" fill="#333531"/>
<path d="M1143.86 1.56073L1143.32 1.56073C1143.25 1.60746 1143.19 1.65419 1143.19 1.71026L1143.86 1.56073Z" fill="#333531"/>
<path d="M322.646 2.77588C322.598 2.78086 322.549 2.78086 322.501 2.77588C321.679 2.80392 322.112 2.79457 322.646 2.77588Z" fill="#333531"/>
<path d="M610.874 2.57961C607.611 2.34596 616.183 2.28054 611.272 2.01886C611.726 2.12166 606.804 2.43007 610.874 2.57961Z" fill="#333531"/>
<path d="M34.677 0.739181C35.132 0.739181 35.598 0.739181 36.0752 0.739182C35.4316 0.719182 35.0099 0.719182 34.677 0.739181Z" fill="#333531"/>
<path d="M611.274 2.01859L610.762 2.01859C610.974 1.96251 611.096 2.00924 611.274 2.01859Z" fill="#333531"/>
<path d="M394.991 2.61697C394.748 2.5588 394.499 2.52123 394.247 2.50482C394.486 2.57537 394.738 2.61323 394.991 2.61697Z" fill="#333531"/>
<path d="M341.091 2.24292L342.434 2.24292C341.901 2.25292 341.468 2.24292 341.091 2.24292Z" fill="#333531"/>
<path d="M422.971 2.24278C423.623 2.27291 424.277 2.27291 424.929 2.24278C424.829 2.23621 424.729 2.23621 424.63 2.24278C424.078 2.28829 423.523 2.28829 422.971 2.24278Z" fill="#333531"/>
<path d="M452.092 2.24285C451.937 2.24285 451.738 2.24285 451.561 2.19612C451.384 2.14939 450.931 2.19612 450.632 2.19612L452.092 2.24285Z" fill="#333531"/>
<path d="M1015.94 0.392409C1016.4 0.432195 1016.85 0.51047 1017.28 0.626054C1016.84 0.439138 1021.1 0.373718 1015.94 0.392409Z" fill="#333531"/>
<path d="M33.8042 0.850706C34.0855 0.766638 34.3833 0.728574 34.6816 0.738558C34.3484 0.738558 34.0152 0.738558 33.7042 0.738558C33.6264 0.785287 33.6042 0.822669 33.8042 0.850706Z" fill="#333531"/>
<path d="M424.153 0.17749L428.776 0.17749C427.482 0.187489 425.801 0.17749 424.153 0.17749Z" fill="#333531"/>
<path d="M806.986 0.429765L808.097 0.429765C807.727 0.406794 807.356 0.406794 806.986 0.429765Z" fill="#333531"/>
<path d="M442.513 0.17749C443.343 0.270948 444.216 0.317678 445.123 0.355061C445.302 0.341914 445.479 0.32007 445.654 0.289639L442.513 0.17749Z" fill="#333531"/>
<path d="M1047.77 -4.20617e-06C1043.35 -4.39955e-06 1045.71 0.34579 1044.77 0.542052C1039.51 0.635509 1042.33 0.289716 1040.54 0.112146C1037.22 0.196258 1034.73 0.514015 1032.29 0.504669C1032.1 0.448594 1031.63 0.429902 1032.19 0.355136C1028.71 0.626164 1021.87 0.355135 1017.81 0.710275C1017.63 0.700668 1017.45 0.67242 1017.28 0.626163C1017.95 0.803733 1018.05 0.971957 1017.91 1.1028C1016.44 1.22209 1014.96 1.22209 1013.49 1.1028C1014.12 1.12246 1014.75 1.06901 1015.37 0.94392L1013.36 1.02803C1011.5 0.700929 1016.19 0.915883 1016.19 0.672893C1012.15 0.785042 1007.44 1.04672 1004.34 0.953265C1003.7 0.635508 1011.59 0.850462 1007.45 0.570088L1012.24 0.691583C1008.58 0.18691 1015.15 0.691584 1011.79 0.186911C1005.49 0.0934526 1004.74 0.355135 998.513 0.261676C997.098 0.429901 998.978 0.523358 997.562 0.691582C988.626 1.00934 990.528 -0.10281 983.959 0.31775C981.657 0.781277 979.28 0.917097 976.925 0.719619L978.517 0.36448C972.412 0.36448 975.033 0.878497 968.641 0.635506C969.747 0.49532 973.441 0.514011 972.523 0.476628C968.375 0.186908 969.592 0.682235 966.407 0.682235L965.754 0.364479C959.251 0.411208 952.095 0.635505 944.906 0.700926C945.305 0.607468 946.532 0.504665 944.851 0.411207C935.782 0.570085 925.485 0.364477 916.737 0.177561L913.419 0.457933C912.645 0.457933 911.981 0.327094 912.822 0.280365C909.404 0.168215 912.645 0.448588 911.008 0.560738C909.062 0.560738 908.442 0.401859 909.67 0.317747C903.653 0.551391 892.527 0.822418 886.179 0.523353L887.274 0.457932C882.341 0.345783 881.744 1.01868 877.121 0.756997L878.006 0.710269C867.289 0.588773 855.444 0.84111 847.259 0.429894C845.711 0.822418 836.653 0.252324 835.967 0.803725C829.851 0.532697 831.599 0.429893 822.983 0.252323C820.682 0.252323 819.554 0.598117 816.701 0.654192L816.635 0.364473L812.775 0.663538L810.718 0.317742L808.041 0.392509C809.147 0.392509 810.308 0.523349 810.142 0.607461C806.716 0.715666 803.284 0.600059 799.879 0.261668L790.014 0.504658C791.063 0.35982 792.124 0.28172 793.188 0.271013C787.923 0.570079 792.237 -0.0280519 787.403 0.271013C788.056 0.336434 787.061 0.439237 786.95 0.495312C784.539 0.317742 779.064 0.317741 775.016 0.392507L775.791 0.196246C768.48 0.196246 760.373 0.289702 752.156 0.289702C755.109 0.38316 754.423 0.719608 752.023 0.756991L751.061 0.44858C749.501 0.644842 753.571 0.570077 750.375 0.794375C747.312 0.794375 748.318 0.448582 750.077 0.355124L746.349 0.457926C746.128 0.364468 747.002 0.317741 747.234 0.205591C745.708 0.392507 740.797 -0.10282 738.585 0.205591L738.375 0.121479C730.169 0.121478 726.442 0.214935 719.761 0.233626C719.629 0.495308 717.019 0.439234 715.017 0.654187C710.106 0.570075 704.654 0.364467 698.737 0.383158C694.567 0.513999 697.52 0.607457 695.651 0.766335C695.341 0.523344 689.424 0.542036 692.499 0.373812C685.388 0.373811 683.419 0.42054 674.427 0.616802C675.412 0.71026 676.506 0.756988 675.931 0.8411C674.768 0.925805 673.595 0.853245 672.459 0.626147L672.89 0.626147C662.803 0.981287 649.609 -0.074787 641.568 0.429885L642.022 0.429885L633.694 0.691566C629.856 0.644837 635.994 0.513998 633.152 0.364465C624.171 0.756988 618.962 0.308389 611.563 0.570071C605.834 -0.14021 591.235 0.570069 583.504 0.1682L583.947 0.336425C582.647 0.400902 581.343 0.357077 580.054 0.205584C580.264 0.327079 582.266 0.355117 580.983 0.439229C564.05 0.644835 546.045 0.196237 528.692 0.0467031C522.344 -2.61046e-05 525.086 0.906516 517.09 0.513992L519.357 0.205581C506.55 0.570067 493.168 0.20558 480.648 0.504645C481.302 0.388917 481.97 0.335624 482.639 0.345766C479.358 0.16499 476.065 0.221269 472.795 0.51399C470.849 0.51399 472.353 0.345765 471.148 0.252307C468.493 0.121466 464.512 0.542026 463.063 0.317727C462.819 0.317727 463.815 0.242961 464.301 0.224269C462.565 0.336418 456.228 0.224269 457.887 0.457914C453.186 0.336418 448.884 0.579408 445.135 0.457913C442.679 0.747632 437.072 0.317727 436.287 0.728941C436.619 0.308381 428.036 0.392493 425.061 0.588754C426.057 0.457913 422.473 0.457913 423.634 0.280343C420.239 0.280343 417.131 0.364455 417.717 0.579408C411.469 0.0747351 405.142 0.990622 401.625 0.336417C391.539 0.560715 382.204 0.719594 373.124 0.822397C373.456 0.392491 383.156 0.775668 382.768 0.336416C374.164 0.50464 369.198 0.869124 360.649 0.76632C358.437 0.710246 361.898 0.588752 362.651 0.513985C354.046 0.682209 346.061 0.513984 338.319 0.700899C338.857 0.62906 339.4 0.591572 339.945 0.588751C338.441 0.588751 336.439 0.523329 336.627 0.719591L338.098 0.663517C340.498 0.943891 332.103 1.2523 331.838 1.39249C334.393 0.841086 324.273 1.2523 328.343 0.560712C327.348 0.560712 326.131 0.691554 326.33 0.822395C324.859 0.822395 324.395 0.710245 325.888 0.560712C320.479 0.663516 322.404 0.869123 317.504 0.859777C318.003 0.753127 318.509 0.675067 319.02 0.626132C315.995 0.8786 312.955 0.972239 309.917 0.906506C310.161 0.850432 309.685 0.78501 310.913 0.78501C303.812 0.78501 298.813 1.26164 291.005 1.09342C293.305 0.682206 288.351 0.953233 287.941 0.607439L283.75 0.710243L285.431 0.878467C281.759 0.878467 278.518 1.1308 275.366 1.01865L278.087 0.869121L271.208 0.934541L275.101 1.06538C271.385 1.2523 275.499 1.51398 270.611 1.41118C271.606 1.41118 266.939 1.41118 265.025 1.20557C262.896 1.36118 260.758 1.40799 258.622 1.34576C257.914 1.23361 259.186 0.962579 258.732 0.887812C256.941 1.17753 250.139 0.962578 247.861 1.28033C248.624 1.20557 248.657 1.01865 248.414 0.98127L246.909 1.21491C245.206 1.14015 244.963 1.10276 245.239 0.962578C240.119 0.915849 246.865 1.40183 240.815 1.21491C241.291 1.21491 241.059 1.15884 242.054 1.12146C235.96 1.01865 230.275 1.27099 224.668 1.12146C223.02 0.766315 229.568 1.028 227.676 0.738278C219.592 0.803698 210.943 1.15884 203.135 1.07472L204.583 1.07472C203.477 1.57005 198.766 0.831734 194.818 1.07472C195.78 1.07472 196.078 0.794351 195.824 0.850425C190.471 0.775659 184.875 0.971921 176.768 1.1308L177.774 0.999957C174.611 0.887807 169.457 0.934537 166.051 0.878462C165.045 1.0093 163.098 0.990611 164.281 1.16818C153.775 0.448555 144.23 1.5607 134.918 0.953227C136.023 0.953227 137.572 0.850423 136.687 0.841077L128.746 0.962573C129.633 1.14888 130.542 1.24922 131.456 1.26164C129.723 1.42385 127.979 1.49875 126.236 1.48594C129.808 1.34575 126.236 1.14014 124.665 1.01865C124.919 1.08407 124.389 1.15883 124.521 1.22425C120.374 0.841076 123.825 1.66351 118.162 1.40182L118.46 1.28968C116.348 1.34575 114.391 1.49528 112.101 1.46724C111.161 1.21491 114.313 1.34575 114.512 1.14014C111.294 1.14014 108.175 1.61678 105.266 1.36444C106.626 1.29902 108.584 1.29902 109.955 1.22425C108.003 1.03272 106.037 0.94532 104.072 0.962572L104.304 0.962572L98.8735 0.831731L100.256 0.906497C96.2302 1.5607 92.0718 1.02799 86.6635 1.44855C91.9169 1.04668 87.5261 1.21491 87.9354 0.934533C86.5529 0.859767 84.4515 0.766308 85.0488 0.691542C82.4939 0.915841 80.7797 0.513972 77.1631 0.841074C77.0083 0.747616 74.4313 0.841074 74.9512 0.607429C71.6332 0.67285 75.7363 0.766309 75.4598 0.878458C70.3281 1.18687 63.4047 0.504625 56.0388 0.925186C49.6794 1.10276 48.5071 1.41117 42.6011 1.5607C40.6104 1.42051 44.2269 1.2336 44.2269 1.2336C41.0195 1.10275 38.5974 1.12145 35.5781 1.2336C36.1864 1.15883 35.5781 1.09341 34.627 0.990605C32.2048 0.990605 33.0122 1.31771 29.8049 1.18687C30.6014 1.01874 31.4108 0.896955 32.2271 0.822382C29.3625 0.906494 26.5422 1.07472 23.5782 1.15883C22.793 0.99995 25.3589 0.915839 26.4095 0.813036C23.1852 0.799343 19.9623 0.930369 16.7543 1.20556L18.8888 1.29902C17.6722 1.29902 18.2583 1.08406 19.1542 1.03733C22.0077 0.841073 23.2795 1.12145 23.4343 1.2149L21.322 1.27098C23.5339 1.80369 29.8048 1.18687 34.0519 1.21491L32.2823 1.60743L36.6399 1.28033C37.5688 1.38313 38.1993 1.59808 36.0979 1.65416C39.1505 1.85042 38.7965 1.52332 41.4177 1.73827C41.7053 1.73827 41.5725 1.785 41.3071 1.80369L44.2822 1.6822C43.696 1.76631 44.7799 1.96257 42.9551 1.90649C48.297 2.13079 51.5707 1.61677 53.5725 1.90649L53.13 1.90649C60.5402 1.77565 53.8489 1.61678 59.412 1.28033L63.1503 1.99061L63.8802 1.70089C64.6433 1.70089 66.1586 1.70089 65.871 1.85042C68.7245 1.65416 65.3954 1.71958 67.0433 1.54201C70.7263 1.80369 77.1852 1.42051 78.0258 1.86911C79.3419 1.65416 74.4977 1.70089 78.4349 1.55135C79.5409 2.04668 82.9695 1.46724 86.3317 1.69154C85.3031 1.94388 82.1179 1.81304 85.4801 2.03734C87.515 1.60743 92.0276 2.13079 94.8699 2.03734C95.0027 1.70089 101.03 1.89715 105.786 1.785C105.487 1.89715 114.744 1.97192 119.179 2.09341L119.047 2.14949C119.898 1.81304 124.466 1.87846 127.795 1.80369C127.662 2.0093 127.065 2.09341 125.262 2.17752L128.392 2.17752C129.631 2.03144 130.88 1.96272 132.13 1.97192L131.345 2.2336C135.504 2.2336 139.717 1.92519 145.07 2.10276C145.38 1.85977 140.812 1.42986 146.475 1.27098C146.685 1.40183 146.895 1.62612 145.369 1.67285C146.271 1.61496 147.175 1.59936 148.079 1.62612L145.867 1.84108C148.3 1.93454 147.139 1.66351 149.085 1.6822C149.085 1.85977 150.534 1.81304 150.246 1.95323C149.749 1.95323 148.554 1.87846 147.802 1.95323C149.716 1.96047 151.629 2.05406 153.531 2.2336C153.343 2.1308 153.531 1.99061 155.146 1.96257C159.305 1.96257 156.573 2.18687 158.995 2.28033C160.001 2.14949 162.656 2.28033 162.733 2.0093C163.38 1.99494 164.025 2.06428 164.646 2.21491C166.792 2.09342 174.7 2.21491 172.278 1.88781L171.725 1.88781C171.824 1.88781 171.946 1.88781 172.068 1.88781C179.135 1.61678 186.733 2.04669 193.734 1.93454L193.734 1.96258C197.914 1.85977 203.046 1.9065 206.021 1.70089C207.26 1.70089 208.941 1.87846 208.421 1.98127C211.606 1.91585 211.971 1.81304 216.583 1.98127C213.376 2.14015 217.689 2.12145 213.265 2.10276C216.444 2.26596 219.631 2.26596 222.81 2.10276C221.295 2.33641 225.94 2.40183 227.909 2.32706L225 2.15884C227.212 2.15884 229.158 2.15884 231.127 2.15884L230.021 2.46725C238.515 2.85043 245.35 1.82239 251.809 2.46725C254.021 2.2523 247.197 2.31772 249.21 2.05604C253.114 2.10276 257.195 2.55136 258.412 2.55136C263.765 2.71959 263.411 2.09342 269.007 2.21492C268.299 2.10277 267.613 1.8037 271.805 1.7009C275.72 1.7009 276.616 2.16819 274.139 2.2523C273.688 2.29392 273.233 2.275 272.789 2.19622C271.529 2.19622 269.87 2.28033 271.418 2.40183L271.927 2.28968C273.862 2.40183 279.248 2.39248 277.987 2.57005C280.94 2.46725 279.248 2.39248 277.059 2.33641C282.08 2.49529 284.9 2.33641 290.065 2.44856C289.235 2.38314 288.483 2.2523 289.302 2.2523C296.878 2.39249 292.62 2.04669 297.763 1.99996C300.682 2.16819 296.723 2.40183 301.888 2.26164C305.04 2.37379 302.551 2.55136 301.302 2.64482C306.013 2.42987 310.094 2.78501 312.782 2.82239L310.304 2.91585C311.786 2.85978 313.003 2.85978 314.242 2.85978L312.826 2.63548C313.714 2.60699 314.603 2.65395 315.48 2.77567C316.984 2.62613 314.374 2.40183 317.316 2.20557C319.252 2.31772 323.222 2.08408 323.897 2.3738C317.792 2.28034 324.572 2.67286 319.407 2.71959C320.402 2.71959 321.619 2.71959 323.078 2.71959C323.289 2.71959 322.868 2.77566 322.47 2.79436C328.31 3.05604 325.158 2.45791 331.207 2.46725C330.433 2.63548 332.612 2.78501 333.596 2.74763C331.152 2.74763 332.424 2.46725 334.702 2.34576C338.584 2.4766 338.916 2.2523 340.951 2.26165L338.629 2.20557C340.489 2.01566 342.362 1.93447 344.236 1.96258C344.468 2.08408 341.781 2.04669 342.754 2.10277C345.751 1.81305 349.534 2.41118 353.725 2.21492C355.661 2.32707 353.913 2.52333 355.616 2.5981C360.306 2.38314 360.704 2.82239 365.637 2.64482C364.21 2.42053 363.967 2.4766 367.439 2.26165L359.333 2.42053L364.531 2.09342C362.086 2.09342 359.366 2.23361 357.895 2.19623C360.372 2.01866 360.107 2.07473 358.945 1.88782C362.263 2.22426 365.581 1.69155 369.452 1.88782L369.342 2.43922C375.159 2.68221 379.683 2.15885 387.237 2.29903L384.814 2.19623C385.821 1.98127 389.482 2.19623 391.926 2.08408C391.694 2.26165 393.231 2.33642 394.271 2.44857C394.149 2.30838 399.801 2.44856 400.497 2.09342L403.815 2.33642C409.92 2.42987 410.772 1.80371 416.645 1.86913C414.875 2.07473 417.54 2.20558 413.614 2.34576C414.865 2.41943 416.12 2.38812 417.364 2.2523C418.47 2.36445 422.794 2.00931 424.597 2.17754C425.687 1.98363 426.801 1.89893 427.915 1.9252C428.158 1.9252 427.915 2.00931 427.915 2.00931C427.915 2.00931 431.365 1.88782 429.441 1.68221C435.468 2.26165 446.307 1.68221 451.56 2.14016C455.83 2.07474 460.984 2.01866 464.832 1.99997C464.589 2.05605 464.832 2.09343 464.091 2.07474C469.444 2.24296 467.409 1.54203 473.47 1.73829C476.578 2.03735 470.23 1.89717 472.176 2.00932C473.017 2.61679 479.531 1.9252 483.623 2.28034L482.639 2.28034C485.769 2.48595 490.281 2.0467 495.402 2.09343C495.402 2.09343 495.147 2.1495 495.402 2.18689C498.908 1.87848 505.533 1.77567 510.465 1.69156C508.928 1.9252 508.253 1.81306 509.16 2.05605C511.372 2.05605 508.508 1.66352 512.921 1.5981C514.347 1.72894 517.532 1.84109 517.953 2.10278L513.794 2.10278C515.929 2.43922 519.18 2.10278 521.37 2.10278L521.083 2.25231C527.453 2.25231 527.542 1.84109 534.354 1.85979L533.647 1.75698C537.385 1.3925 536.776 1.95324 540.515 1.68222L541.621 2.05605C544.087 1.96259 550.27 1.70091 554.693 1.62614C552.183 1.90652 546.952 2.0467 543.8 2.20558C546.244 2.20558 552.117 2.20558 553.388 1.99997C552.404 1.99997 551.176 2.12147 550.192 2.06539C554.157 1.78781 558.137 1.69421 562.115 1.78502C561.252 2.50465 574.833 1.97194 578.373 2.52334C586.999 2.26166 595.482 2.63549 605.536 2.59811C601.974 2.03736 608.466 2.59811 607.858 2.00932C609.004 1.95808 610.152 1.95808 611.298 2.00932L618.398 2.34577C620.079 2.514 616.186 2.47661 616.385 2.60745C621.506 2.60745 618.531 2.85044 621.915 2.99998C621.218 2.79437 623.696 2.70091 626.616 2.78502L622.501 2.52334C629.668 2.21493 628.695 2.99998 635.917 2.70091L633.628 2.87848C637.333 2.77568 647.297 2.87848 650.936 2.42054C651.589 2.48596 652.451 2.64484 650.826 2.68222C659.673 2.75699 670.534 2.19624 677.369 2.47661L676.706 2.6168C678.348 2.48212 680 2.44153 681.649 2.49531C681.539 2.55138 680.986 2.63549 681.749 2.64484C682.512 2.65418 686.173 2.40185 688.318 2.48596L686.449 2.63549C695.087 2.82241 699.721 2.25232 706.954 2.15886C706.954 2.57007 713.734 2.71026 717.118 2.77568L717.008 2.83176C727.061 2.83176 734.084 2.48596 743.407 2.32708C749.181 2.77568 762.983 2.514 772.274 2.76634C770.858 2.69157 772.506 2.44858 774.165 2.40185C776.377 2.48596 780.192 2.12148 779.85 2.49531L779.064 2.49531C780.712 2.86914 785.191 2.76634 788.686 2.77569L789.273 2.2897C798.419 2.99998 813.25 2.01868 818.249 2.66354C820.461 2.54204 823.193 2.54204 825.383 2.42055L825.261 2.68223C831.377 2.74765 834.43 2.78503 841.995 2.68223L840.457 2.87849C844.727 2.87849 845.844 2.11214 849.781 2.09344L850.964 2.48597C858.408 2.48597 865.939 2.83176 873.294 2.48597C873.172 2.54204 872.951 2.65419 871.746 2.67288C875.252 2.67289 885.305 2.93457 884.033 2.39251C884.122 2.74765 891.709 2.39251 895.734 2.27102L895.104 2.5327C897.833 2.20158 900.586 2.02983 903.344 2.01868C904.45 2.01868 904.328 2.22429 902.835 2.15887C906.584 2.29905 905.755 1.91588 910.289 2.05606L908.597 2.21494C910.49 2.28801 912.387 2.20035 914.26 1.95326C916.89 1.84039 919.527 1.94368 922.134 2.26167C923.749 2.00493 925.394 1.91392 927.034 1.99065C927.332 2.07476 926.514 2.13083 926.094 2.15887C932.531 2.33644 935.672 1.8598 940.095 2.15887C940.321 2.26825 940.577 2.32321 940.836 2.31775C935.727 2.31775 931.613 2.31775 931.989 2.31775C931.989 2.55139 936.114 2.59812 932.829 2.92522C936.147 2.74765 941.81 2.35513 945.835 2.46728C946.019 2.48287 946.2 2.51099 946.377 2.55139L945.957 2.55139C946.886 2.55139 947.716 2.55139 948.501 2.55139C949.784 2.55139 950.602 2.61681 951.819 2.61681C954.078 2.76819 956.345 2.80876 958.61 2.73831C958.444 2.47663 961.131 2.51401 958.61 2.29906C958.025 2.34708 957.436 2.34708 956.851 2.29906C956.541 2.29906 956.176 2.29906 955.977 2.29906C956.021 2.30281 956.066 2.30281 956.11 2.29906C954.761 2.29906 953.002 2.29906 950.989 2.29906C952.85 2.11311 954.728 2.07868 956.597 2.19625C957.703 2.02803 958.809 1.85046 959.472 1.77569C962.293 2.14018 967.723 2.33644 968.486 2.56074C974.768 2.42055 983.295 2.46728 987.288 1.97196C988.203 1.91401 989.124 1.98989 990.008 2.19625C988.98 2.24298 987.797 2.19626 987.188 2.3084C990.772 2.17756 997.784 2.25233 998.635 1.90654C1003.15 2.06541 996.102 2.22429 1002.3 2.16822L1001.47 2.28037C1013.63 2.83177 1021.26 1.39252 1034.77 2.1028C1034.23 2.10471 1033.7 2.06403 1033.17 1.9813C1048.57 2.29906 1064.91 1.69158 1080.1 2.18691C1082.58 2.25824 1085.06 2.16136 1087.52 1.89719L1088.45 2.17757L1092.99 1.85046C1099.37 1.61682 1104.05 2.54205 1112.14 2.09346L1111.04 1.90654C1113.94 1.90654 1120.25 1.79439 1119.76 2.00934C1120.45 1.88593 1121.15 1.85439 1121.84 1.91589L1121.93 2.06542L1129.07 1.80374C1134.6 1.91589 1128.21 2.39252 1136.29 2.42056C1139.28 2.36449 1144.82 1.99065 1143.7 1.8972C1142.64 1.93318 1141.58 1.85148 1140.54 1.65421L1143.3 1.57944C1143.8 1.14019 1145.9 0.700934 1139.16 0.392523L1134.47 0.654206L1132.96 0.448597L1136.91 0.448597C1135.17 0.31294 1133.42 0.341152 1131.7 0.532709C1131.05 0.388153 1130.39 0.309704 1129.73 0.299064L1125.06 0.719626C1124.51 0.542055 1127.13 0.373832 1124.04 0.280374C1121.83 0.476635 1126.11 0.663551 1122.54 0.794392C1121.15 0.537469 1119.72 0.471202 1118.3 0.598131C1117.94 0.485981 1118.49 0.420559 1119.54 0.37383C1117.2 0.504671 1113.33 0.429906 1112.12 0.654205C1109.78 0.411214 1104.19 0.719624 1104.38 0.308409C1103.65 0.411213 1100.25 0.635512 1098.1 0.644858C1102.03 0.158877 1090.02 0.644858 1091.06 0.093456C1088.15 0.532708 1080.53 0.289716 1075.38 0.532707C1075.81 0.471246 1076.25 0.443092 1076.68 0.448595C1073.78 0.448594 1072.94 0.280372 1071.07 0.196259C1070.69 0.560745 1066.17 0.644857 1063.73 0.869155C1060.17 0.523361 1065.89 0.439249 1064.77 0.102801C1064.95 0.401866 1058.59 0.401866 1059.8 0.644856C1058.53 0.633362 1057.27 0.495328 1056.05 0.233641C1055.57 0.691585 1053.51 0.317754 1051.26 0.598128C1047.31 0.373829 1050.24 0.16822 1045.9 0.308407C1043.93 0.16822 1047.77 -4.20617e-06 1047.77 -4.20617e-06ZM944.785 0.794384C945.67 0.794384 946.422 0.794384 946.908 0.794384C946.477 0.775692 945.891 0.785038 944.785 0.794384ZM936.125 0.794384C937.176 0.794384 938.492 0.794384 939.885 0.794384C940.184 0.878496 939.885 0.971954 938.989 0.971954C938.045 0.850248 937.091 0.793986 936.136 0.80373L936.125 0.794384ZM954.429 2.60747C953.758 2.66725 953.08 2.64522 952.416 2.54205C953.058 2.54205 953.821 2.54205 954.816 2.54205L954.971 2.54205C954.801 2.59335 954.621 2.61866 954.44 2.61681L954.429 2.60747Z" fill="#333531"/>
<path d="M956.951 2.27116C957.15 2.27116 957.261 2.27116 957.517 2.27116L956.695 2.21509L956.207 2.2992C956.418 2.28051 956.673 2.28051 956.951 2.27116Z" fill="#333531"/>
<path d="M172.388 1.88768L172.566 1.88768C172.436 1.89498 172.306 1.89498 172.176 1.88768C172.299 1.86899 172.299 1.87834 172.388 1.88768Z" fill="#333531"/>
<path d="M816.63 0.298889L816.641 0.364311L817.396 0.308235L816.63 0.298889Z" fill="#333531"/>
<path d="M124.722 1.02782C124.513 0.991032 124.301 0.969147 124.089 0.962402C124.297 1.00154 124.509 1.02345 124.722 1.02782Z" fill="#333531"/>
<path d="M104.128 0.925366L101.219 0.831909C102.48 0.887984 103.398 0.906674 104.128 0.925366Z" fill="#333531"/>
<path d="M88.2998 0.794495C88.1874 0.813583 88.0808 0.851754 87.9868 0.906645L88.2998 0.794495Z" fill="#333531"/>
<path d="M339.995 0.485887C340.217 0.485887 340.428 0.485887 340.617 0.485887C342.026 0.420466 341.072 0.439158 339.995 0.485887Z" fill="#333531"/>
<path d="M265.102 1.10265C265.887 1.10265 266.672 1.00919 267.502 0.971807C266.175 0.953116 265.135 0.953115 265.102 1.10265Z" fill="#333531"/>
<path d="M270.987 1.02797C269.66 0.971899 268.543 1.02797 267.503 1.02797C268.598 1.02797 269.892 1.02797 270.987 1.02797Z" fill="#333531"/>
<path d="M19.6855 0.673096L18.919 0.673096C18.919 0.673096 18.9191 0.673095 18.8302 0.719824L19.6855 0.673096Z" fill="#333531"/>
<path d="M18.833 0.710083L17.9777 0.710083C18.2623 0.729475 18.5484 0.729475 18.833 0.710083Z" fill="#333531"/>
<path d="M16.2029 0.803647L17.9834 0.738227C17.3888 0.71826 16.7932 0.740142 16.2029 0.803647Z" fill="#333531"/>
<path d="M40.6422 0.794386L40.876 0.700928C40.7865 0.705427 40.7027 0.738941 40.6422 0.794386Z" fill="#333531"/>
<path d="M47.0137 0.766291C45.4874 0.766291 43.198 0.570029 41.0745 0.626104L40.8754 0.70087C41.8819 0.560683 45.5648 0.934516 47.0137 0.766291Z" fill="#333531"/>
<path d="M73.5889 1.96264L68.2579 1.88788C69.1869 1.99068 70.4146 2.13087 67.9814 2.14956C74.717 2.43928 66.6321 1.90657 73.5889 1.96264Z" fill="#333531"/>
<path d="M90.1357 2.09369C87.2712 2.14042 90.1357 2.24322 90.0141 2.2993C91.839 2.20584 92.2813 2.18715 90.1357 2.09369Z" fill="#333531"/>
<path d="M209.711 2.09369L209.422 2.33668C211.644 2.2993 209.445 2.24322 209.711 2.09369Z" fill="#333531"/>
<path d="M232.576 0.859616L230.431 0.710083L229.402 0.934382L232.576 0.859616Z" fill="#333531"/>
<path d="M246.078 2.56071L245.116 2.59809L248.799 2.51398L246.078 2.56071Z" fill="#333531"/>
<path d="M446.915 2.47649L446.251 2.18677C444.758 2.2335 444.438 2.56994 446.915 2.47649Z" fill="#333531"/>
<path d="M533.613 2.17744C535.234 2.36428 536.874 2.39564 538.502 2.2709C536.555 2.2522 534.609 2.14005 533.613 2.17744Z" fill="#333531"/>
<path d="M793.641 2.65405L791.894 2.75686L795.179 2.67274L793.641 2.65405Z" fill="#333531"/>
</svg>
