<svg width="248" height="96" viewBox="0 0 248 96" fill="none" xmlns="http://www.w3.org/2000/svg">
<g clip-path="url(#clip0)">
<path fill-rule="evenodd" clip-rule="evenodd" d="M1.24243 0.768481C1.24243 0.768481 86.4624 0 127.721 0C168.981 0 246 0.768481 246 0.768481V96H1.24243V0.768481Z" fill="white"/>
<path d="M0 1L2 96" stroke="#061621" stroke-width="2"/>
<path d="M0 1.25C51.3891 1.17933 170.58 0.161205 245 1.25" stroke="#061621" stroke-width="2"/>
<path d="M245.5 92V1" stroke="#061621" stroke-width="5"/>
<path d="M1 94.3774C81.8293 94.3774 172.957 94.2548 246 93" stroke="#061621" stroke-width="5"/>
</g>
<path d="M20.768 27H16.64V26.168L17.984 25.864V16.728L16.64 16.408V15.576H20.768V16.408L19.424 16.728V25.864L20.768 26.168V27ZM26.9099 18.264C27.9339 18.264 28.7072 18.5147 29.2299 19.016C29.7525 19.5067 30.0139 20.3067 30.0139 21.416V27H28.6219V21.512C28.6219 20.136 27.9819 19.448 26.7019 19.448C25.7525 19.448 25.0965 19.7147 24.7339 20.248C24.3712 20.7813 24.1899 21.5493 24.1899 22.552V27H22.7819V18.424H23.9179L24.1259 19.592H24.2059C24.4832 19.144 24.8672 18.8133 25.3579 18.6C25.8485 18.376 26.3659 18.264 26.9099 18.264ZM35.7125 27.16C34.6458 27.16 33.7925 26.792 33.1525 26.056C32.5125 25.3093 32.1925 24.2 32.1925 22.728C32.1925 21.256 32.5125 20.1467 33.1525 19.4C33.8032 18.6427 34.6618 18.264 35.7285 18.264C36.3898 18.264 36.9285 18.3867 37.3445 18.632C37.7712 18.8773 38.1178 19.176 38.3845 19.528H38.4805C38.4698 19.3893 38.4485 19.1867 38.4165 18.92C38.3952 18.6427 38.3845 18.424 38.3845 18.264V14.84H39.7925V27H38.6565L38.4485 25.848H38.3845C38.1285 26.2107 37.7872 26.52 37.3605 26.776C36.9338 27.032 36.3845 27.16 35.7125 27.16ZM35.9365 25.992C36.8432 25.992 37.4778 25.7467 37.8405 25.256C38.2138 24.7547 38.4005 24.0027 38.4005 23V22.744C38.4005 21.6773 38.2245 20.8613 37.8725 20.296C37.5205 19.72 36.8698 19.432 35.9205 19.432C35.1632 19.432 34.5925 19.736 34.2085 20.344C33.8352 20.9413 33.6485 21.7467 33.6485 22.76C33.6485 23.784 33.8352 24.5787 34.2085 25.144C34.5925 25.7093 35.1685 25.992 35.9365 25.992ZM43.2363 15.208C43.4496 15.208 43.6363 15.2827 43.7963 15.432C43.9669 15.5707 44.0523 15.7947 44.0523 16.104C44.0523 16.4027 43.9669 16.6267 43.7963 16.776C43.6363 16.9253 43.4496 17 43.2363 17C43.0016 17 42.8043 16.9253 42.6443 16.776C42.4843 16.6267 42.4043 16.4027 42.4043 16.104C42.4043 15.7947 42.4843 15.5707 42.6443 15.432C42.8043 15.2827 43.0016 15.208 43.2363 15.208ZM43.9243 18.424V27H42.5163V18.424H43.9243ZM48.5293 27L45.2812 18.424H46.7853L48.6093 23.48C48.6946 23.7147 48.7853 23.976 48.8813 24.264C48.9773 24.552 49.0626 24.8293 49.1373 25.096C49.2119 25.352 49.2653 25.5707 49.2973 25.752H49.3613C49.4039 25.5707 49.4626 25.3467 49.5373 25.08C49.6226 24.8133 49.7133 24.536 49.8093 24.248C49.9159 23.96 50.0066 23.704 50.0813 23.48L51.9053 18.424H53.4093L50.1453 27H48.5293ZM55.4863 15.208C55.6996 15.208 55.8863 15.2827 56.0463 15.432C56.2169 15.5707 56.3023 15.7947 56.3023 16.104C56.3023 16.4027 56.2169 16.6267 56.0463 16.776C55.8863 16.9253 55.6996 17 55.4863 17C55.2516 17 55.0543 16.9253 54.8943 16.776C54.7343 16.6267 54.6543 16.4027 54.6543 16.104C54.6543 15.7947 54.7343 15.5707 54.8943 15.432C55.0543 15.2827 55.2516 15.208 55.4863 15.208ZM56.1743 18.424V27H54.7663V18.424H56.1743ZM61.9313 27.16C60.8646 27.16 60.0113 26.792 59.3713 26.056C58.7313 25.3093 58.4113 24.2 58.4113 22.728C58.4113 21.256 58.7313 20.1467 59.3713 19.4C60.0219 18.6427 60.8806 18.264 61.9473 18.264C62.6086 18.264 63.1473 18.3867 63.5633 18.632C63.9899 18.8773 64.3366 19.176 64.6033 19.528H64.6993C64.6886 19.3893 64.6673 19.1867 64.6353 18.92C64.6139 18.6427 64.6033 18.424 64.6033 18.264V14.84H66.0113V27H64.8753L64.6673 25.848H64.6033C64.3473 26.2107 64.0059 26.52 63.5793 26.776C63.1526 27.032 62.6033 27.16 61.9313 27.16ZM62.1553 25.992C63.0619 25.992 63.6966 25.7467 64.0593 25.256C64.4326 24.7547 64.6193 24.0027 64.6193 23V22.744C64.6193 21.6773 64.4433 20.8613 64.0913 20.296C63.7393 19.72 63.0886 19.432 62.1393 19.432C61.3819 19.432 60.8113 19.736 60.4273 20.344C60.0539 20.9413 59.8673 21.7467 59.8673 22.76C59.8673 23.784 60.0539 24.5787 60.4273 25.144C60.8113 25.7093 61.3873 25.992 62.1553 25.992ZM75.903 18.424V27H74.751L74.543 25.864H74.479C74.2017 26.312 73.8177 26.6427 73.327 26.856C72.8363 27.0587 72.3137 27.16 71.759 27.16C70.7243 27.16 69.9457 26.9147 69.423 26.424C68.9003 25.9227 68.639 25.128 68.639 24.04V18.424H70.063V23.944C70.063 25.3093 70.6977 25.992 71.967 25.992C72.9163 25.992 73.5723 25.7253 73.935 25.192C74.3083 24.6587 74.495 23.8907 74.495 22.888V18.424H75.903ZM81.8736 18.28C82.919 18.28 83.6923 18.5093 84.1936 18.968C84.695 19.4267 84.9456 20.1573 84.9456 21.16V27H83.9216L83.6496 25.784H83.5856C83.2123 26.2533 82.8176 26.6 82.4016 26.824C81.9963 27.048 81.431 27.16 80.7056 27.16C79.927 27.16 79.2816 26.9573 78.7696 26.552C78.2576 26.136 78.0016 25.4907 78.0016 24.616C78.0016 23.7627 78.3376 23.1067 79.0096 22.648C79.6816 22.1787 80.7163 21.9227 82.1136 21.88L83.5696 21.832V21.32C83.5696 20.6053 83.415 20.1093 83.1056 19.832C82.7963 19.5547 82.359 19.416 81.7936 19.416C81.3456 19.416 80.919 19.4853 80.5136 19.624C80.1083 19.752 79.7296 19.9013 79.3776 20.072L78.9456 19.016C79.319 18.8133 79.7616 18.6427 80.2736 18.504C80.7856 18.3547 81.319 18.28 81.8736 18.28ZM82.2896 22.856C81.223 22.8987 80.4816 23.0693 80.0656 23.368C79.6603 23.6667 79.4576 24.088 79.4576 24.632C79.4576 25.112 79.6016 25.464 79.8896 25.688C80.1883 25.912 80.567 26.024 81.0256 26.024C81.751 26.024 82.3536 25.8267 82.8336 25.432C83.3136 25.0267 83.5536 24.408 83.5536 23.576V22.808L82.2896 22.856ZM89.0024 27H87.5944V14.84H89.0024V27ZM100.964 16.68C99.737 16.68 98.7716 17.0907 98.0676 17.912C97.3636 18.7333 97.0116 19.8587 97.0116 21.288C97.0116 22.7067 97.337 23.832 97.9876 24.664C98.649 25.4853 99.6356 25.896 100.948 25.896C101.449 25.896 101.924 25.8533 102.372 25.768C102.82 25.6827 103.257 25.576 103.684 25.448V26.696C103.257 26.856 102.814 26.9733 102.356 27.048C101.908 27.1227 101.369 27.16 100.74 27.16C99.577 27.16 98.6063 26.92 97.8276 26.44C97.049 25.96 96.4623 25.2773 96.0676 24.392C95.6836 23.5067 95.4916 22.4667 95.4916 21.272C95.4916 20.12 95.6996 19.1067 96.1156 18.232C96.5423 17.3467 97.1663 16.6587 97.9876 16.168C98.809 15.6667 99.8063 15.416 100.98 15.416C102.185 15.416 103.236 15.64 104.132 16.088L103.556 17.304C103.204 17.144 102.809 17 102.372 16.872C101.945 16.744 101.476 16.68 100.964 16.68ZM109.233 18.28C110.278 18.28 111.052 18.5093 111.553 18.968C112.054 19.4267 112.305 20.1573 112.305 21.16V27H111.281L111.009 25.784H110.945C110.572 26.2533 110.177 26.6 109.761 26.824C109.356 27.048 108.79 27.16 108.065 27.16C107.286 27.16 106.641 26.9573 106.129 26.552C105.617 26.136 105.361 25.4907 105.361 24.616C105.361 23.7627 105.697 23.1067 106.369 22.648C107.041 22.1787 108.076 21.9227 109.473 21.88L110.929 21.832V21.32C110.929 20.6053 110.774 20.1093 110.465 19.832C110.156 19.5547 109.718 19.416 109.153 19.416C108.705 19.416 108.278 19.4853 107.873 19.624C107.468 19.752 107.089 19.9013 106.737 20.072L106.305 19.016C106.678 18.8133 107.121 18.6427 107.633 18.504C108.145 18.3547 108.678 18.28 109.233 18.28ZM109.649 22.856C108.582 22.8987 107.841 23.0693 107.425 23.368C107.02 23.6667 106.817 24.088 106.817 24.632C106.817 25.112 106.961 25.464 107.249 25.688C107.548 25.912 107.926 26.024 108.385 26.024C109.11 26.024 109.713 25.8267 110.193 25.432C110.673 25.0267 110.913 24.408 110.913 23.576V22.808L109.649 22.856ZM120.538 24.632C120.538 25.464 120.228 26.0933 119.61 26.52C118.991 26.9467 118.159 27.16 117.114 27.16C116.516 27.16 115.999 27.112 115.562 27.016C115.135 26.92 114.756 26.7867 114.426 26.616V25.336C114.767 25.5067 115.178 25.6667 115.658 25.816C116.148 25.9547 116.644 26.024 117.146 26.024C117.86 26.024 118.378 25.912 118.698 25.688C119.018 25.4533 119.178 25.144 119.178 24.76C119.178 24.5467 119.119 24.3547 119.002 24.184C118.884 24.0133 118.671 23.8427 118.362 23.672C118.063 23.5013 117.631 23.3093 117.066 23.096C116.511 22.8827 116.036 22.6693 115.642 22.456C115.247 22.2427 114.943 21.9867 114.73 21.688C114.516 21.3893 114.41 21.0053 114.41 20.536C114.41 19.8107 114.703 19.2507 115.29 18.856C115.887 18.4613 116.666 18.264 117.626 18.264C118.148 18.264 118.634 18.3173 119.082 18.424C119.54 18.52 119.967 18.6587 120.362 18.84L119.882 19.96C119.519 19.8107 119.14 19.6827 118.746 19.576C118.351 19.4693 117.946 19.416 117.53 19.416C116.954 19.416 116.511 19.512 116.202 19.704C115.903 19.8853 115.754 20.136 115.754 20.456C115.754 20.6907 115.823 20.8933 115.962 21.064C116.1 21.224 116.33 21.384 116.65 21.544C116.98 21.6933 117.418 21.8747 117.962 22.088C118.506 22.2907 118.97 22.4987 119.354 22.712C119.738 22.9253 120.031 23.1867 120.234 23.496C120.436 23.7947 120.538 24.1733 120.538 24.632ZM125.922 18.264C126.658 18.264 127.287 18.424 127.81 18.744C128.343 19.064 128.749 19.5173 129.026 20.104C129.314 20.68 129.458 21.3573 129.458 22.136V22.984H123.586C123.607 23.9547 123.853 24.696 124.322 25.208C124.802 25.7093 125.469 25.96 126.322 25.96C126.866 25.96 127.346 25.912 127.762 25.816C128.189 25.7093 128.626 25.56 129.074 25.368V26.6C128.637 26.792 128.205 26.9307 127.778 27.016C127.351 27.112 126.845 27.16 126.258 27.16C125.447 27.16 124.727 26.9947 124.098 26.664C123.479 26.3333 122.994 25.8427 122.642 25.192C122.301 24.5307 122.13 23.7253 122.13 22.776C122.13 21.8373 122.285 21.032 122.594 20.36C122.914 19.688 123.357 19.1707 123.922 18.808C124.498 18.4453 125.165 18.264 125.922 18.264ZM125.906 19.416C125.234 19.416 124.701 19.6347 124.306 20.072C123.922 20.4987 123.693 21.096 123.618 21.864H127.986C127.975 21.1387 127.805 20.552 127.474 20.104C127.143 19.6453 126.621 19.416 125.906 19.416ZM137.225 24.632C137.225 25.464 136.916 26.0933 136.297 26.52C135.679 26.9467 134.847 27.16 133.801 27.16C133.204 27.16 132.687 27.112 132.249 27.016C131.823 26.92 131.444 26.7867 131.113 26.616V25.336C131.455 25.5067 131.865 25.6667 132.345 25.816C132.836 25.9547 133.332 26.024 133.833 26.024C134.548 26.024 135.065 25.912 135.385 25.688C135.705 25.4533 135.865 25.144 135.865 24.76C135.865 24.5467 135.807 24.3547 135.689 24.184C135.572 24.0133 135.359 23.8427 135.049 23.672C134.751 23.5013 134.319 23.3093 133.753 23.096C133.199 22.8827 132.724 22.6693 132.329 22.456C131.935 22.2427 131.631 21.9867 131.417 21.688C131.204 21.3893 131.097 21.0053 131.097 20.536C131.097 19.8107 131.391 19.2507 131.977 18.856C132.575 18.4613 133.353 18.264 134.313 18.264C134.836 18.264 135.321 18.3173 135.769 18.424C136.228 18.52 136.655 18.6587 137.049 18.84L136.569 19.96C136.207 19.8107 135.828 19.6827 135.433 19.576C135.039 19.4693 134.633 19.416 134.217 19.416C133.641 19.416 133.199 19.512 132.889 19.704C132.591 19.8853 132.441 20.136 132.441 20.456C132.441 20.6907 132.511 20.8933 132.649 21.064C132.788 21.224 133.017 21.384 133.337 21.544C133.668 21.6933 134.105 21.8747 134.649 22.088C135.193 22.2907 135.657 22.4987 136.041 22.712C136.425 22.9253 136.719 23.1867 136.921 23.496C137.124 23.7947 137.225 24.1733 137.225 24.632Z" fill="#061621"/>
<path d="M214.071 28.8467C214.469 28.8467 215.152 28.4522 216.119 27.663C217.086 26.8738 218.258 25.7564 219.634 24.3108L226.108 17.4912L226.223 17.376C226.963 16.6008 227.333 15.8046 227.333 14.9875V14.6418C227.333 14.2298 227.284 13.9365 227.187 13.7619C227.089 13.5873 226.925 13.5 226.694 13.5C226.387 13.5 226.013 13.6432 225.573 13.9295C225.133 14.2158 224.634 14.6383 224.075 15.197L217.423 21.7862C217.025 22.1773 216.683 22.4863 216.397 22.7133C216.111 22.9403 215.915 23.0537 215.81 23.0537C215.559 23.0537 215.36 22.8617 215.213 22.4776C215.066 22.0935 214.937 21.4161 214.825 20.4453C214.819 20.3755 214.808 20.2672 214.794 20.1206C214.661 18.8565 214.249 18.2245 213.558 18.2245C212.832 18.2245 212.168 18.53 211.568 19.1411C210.967 19.7522 210.667 20.4174 210.667 21.1367C210.667 22.4566 210.735 23.6823 210.871 24.8136C211.007 25.945 211.152 26.6853 211.306 27.0345C211.487 27.4535 211.889 27.8603 212.51 28.2549C213.132 28.6495 213.652 28.8467 214.071 28.8467Z" fill="#061621"/>
<path d="M25.6 59.576L21.52 71H20.08L16 59.576H17.504L20.08 66.904C20.2507 67.3733 20.3947 67.816 20.512 68.232C20.6293 68.6373 20.7253 69.0267 20.8 69.4C20.8747 69.0267 20.9707 68.632 21.088 68.216C21.2053 67.8 21.3493 67.352 21.52 66.872L24.08 59.576H25.6ZM27.6738 59.208C27.8871 59.208 28.0738 59.2827 28.2338 59.432C28.4044 59.5707 28.4898 59.7947 28.4898 60.104C28.4898 60.4027 28.4044 60.6267 28.2338 60.776C28.0738 60.9253 27.8871 61 27.6738 61C27.4391 61 27.2418 60.9253 27.0818 60.776C26.9218 60.6267 26.8418 60.4027 26.8418 60.104C26.8418 59.7947 26.9218 59.5707 27.0818 59.432C27.2418 59.2827 27.4391 59.208 27.6738 59.208ZM28.3618 62.424V71H26.9538V62.424H28.3618ZM36.6628 68.632C36.6628 69.464 36.3534 70.0933 35.7348 70.52C35.1161 70.9467 34.2841 71.16 33.2388 71.16C32.6414 71.16 32.1241 71.112 31.6868 71.016C31.2601 70.92 30.8814 70.7867 30.5508 70.616V69.336C30.8921 69.5067 31.3028 69.6667 31.7828 69.816C32.2734 69.9547 32.7694 70.024 33.2708 70.024C33.9854 70.024 34.5028 69.912 34.8228 69.688C35.1428 69.4533 35.3028 69.144 35.3028 68.76C35.3028 68.5467 35.2441 68.3547 35.1268 68.184C35.0094 68.0133 34.7961 67.8427 34.4868 67.672C34.1881 67.5013 33.7561 67.3093 33.1908 67.096C32.6361 66.8827 32.1614 66.6693 31.7668 66.456C31.3721 66.2427 31.0681 65.9867 30.8548 65.688C30.6414 65.3893 30.5348 65.0053 30.5348 64.536C30.5348 63.8107 30.8281 63.2507 31.4148 62.856C32.0121 62.4613 32.7908 62.264 33.7508 62.264C34.2734 62.264 34.7588 62.3173 35.2068 62.424C35.6654 62.52 36.0921 62.6587 36.4868 62.84L36.0068 63.96C35.6441 63.8107 35.2654 63.6827 34.8708 63.576C34.4761 63.4693 34.0708 63.416 33.6548 63.416C33.0788 63.416 32.6361 63.512 32.3268 63.704C32.0281 63.8853 31.8788 64.136 31.8788 64.456C31.8788 64.6907 31.9481 64.8933 32.0868 65.064C32.2254 65.224 32.4548 65.384 32.7748 65.544C33.1054 65.6933 33.5428 65.8747 34.0868 66.088C34.6308 66.2907 35.0948 66.4987 35.4788 66.712C35.8628 66.9253 36.1561 67.1867 36.3588 67.496C36.5614 67.7947 36.6628 68.1733 36.6628 68.632ZM45.903 62.424V71H44.751L44.543 69.864H44.479C44.2017 70.312 43.8177 70.6427 43.327 70.856C42.8363 71.0587 42.3137 71.16 41.759 71.16C40.7243 71.16 39.9457 70.9147 39.423 70.424C38.9003 69.9227 38.639 69.128 38.639 68.04V62.424H40.063V67.944C40.063 69.3093 40.6977 69.992 41.967 69.992C42.9163 69.992 43.5723 69.7253 43.935 69.192C44.3083 68.6587 44.495 67.8907 44.495 66.888V62.424H45.903ZM51.8736 62.28C52.919 62.28 53.6923 62.5093 54.1936 62.968C54.695 63.4267 54.9456 64.1573 54.9456 65.16V71H53.9216L53.6496 69.784H53.5856C53.2123 70.2533 52.8176 70.6 52.4016 70.824C51.9963 71.048 51.431 71.16 50.7056 71.16C49.927 71.16 49.2816 70.9573 48.7696 70.552C48.2576 70.136 48.0016 69.4907 48.0016 68.616C48.0016 67.7627 48.3376 67.1067 49.0096 66.648C49.6816 66.1787 50.7163 65.9227 52.1136 65.88L53.5696 65.832V65.32C53.5696 64.6053 53.415 64.1093 53.1056 63.832C52.7963 63.5547 52.359 63.416 51.7936 63.416C51.3456 63.416 50.919 63.4853 50.5136 63.624C50.1083 63.752 49.7296 63.9013 49.3776 64.072L48.9456 63.016C49.319 62.8133 49.7616 62.6427 50.2736 62.504C50.7856 62.3547 51.319 62.28 51.8736 62.28ZM52.2896 66.856C51.223 66.8987 50.4816 67.0693 50.0656 67.368C49.6603 67.6667 49.4576 68.088 49.4576 68.632C49.4576 69.112 49.6016 69.464 49.8896 69.688C50.1883 69.912 50.567 70.024 51.0256 70.024C51.751 70.024 52.3536 69.8267 52.8336 69.432C53.3136 69.0267 53.5536 68.408 53.5536 67.576V66.808L52.2896 66.856ZM59.0024 71H57.5944V58.84H59.0024V71ZM62.4394 59.208C62.6527 59.208 62.8394 59.2827 62.9994 59.432C63.17 59.5707 63.2554 59.7947 63.2554 60.104C63.2554 60.4027 63.17 60.6267 62.9994 60.776C62.8394 60.9253 62.6527 61 62.4394 61C62.2047 61 62.0074 60.9253 61.8474 60.776C61.6874 60.6267 61.6074 60.4027 61.6074 60.104C61.6074 59.7947 61.6874 59.5707 61.8474 59.432C62.0074 59.2827 62.2047 59.208 62.4394 59.208ZM63.1274 62.424V71H61.7194V62.424H63.1274ZM71.3804 71H65.1084V70.072L69.7164 63.512H65.3804V62.424H71.2684V63.48L66.7244 69.912H71.3804V71ZM76.608 62.28C77.6533 62.28 78.4267 62.5093 78.928 62.968C79.4293 63.4267 79.68 64.1573 79.68 65.16V71H78.656L78.384 69.784H78.32C77.9467 70.2533 77.552 70.6 77.136 70.824C76.7307 71.048 76.1653 71.16 75.44 71.16C74.6613 71.16 74.016 70.9573 73.504 70.552C72.992 70.136 72.736 69.4907 72.736 68.616C72.736 67.7627 73.072 67.1067 73.744 66.648C74.416 66.1787 75.4507 65.9227 76.848 65.88L78.304 65.832V65.32C78.304 64.6053 78.1493 64.1093 77.84 63.832C77.5307 63.5547 77.0933 63.416 76.528 63.416C76.08 63.416 75.6533 63.4853 75.248 63.624C74.8427 63.752 74.464 63.9013 74.112 64.072L73.68 63.016C74.0533 62.8133 74.496 62.6427 75.008 62.504C75.52 62.3547 76.0533 62.28 76.608 62.28ZM77.024 66.856C75.9573 66.8987 75.216 67.0693 74.8 67.368C74.3947 67.6667 74.192 68.088 74.192 68.632C74.192 69.112 74.336 69.464 74.624 69.688C74.9227 69.912 75.3013 70.024 75.76 70.024C76.4853 70.024 77.088 69.8267 77.568 69.432C78.048 69.0267 78.288 68.408 78.288 67.576V66.808L77.024 66.856ZM85.1927 70.008C85.4061 70.008 85.6248 69.992 85.8488 69.96C86.0728 69.9173 86.2541 69.8747 86.3928 69.832V70.904C86.2434 70.9787 86.0301 71.0373 85.7528 71.08C85.4754 71.1333 85.2088 71.16 84.9528 71.16C84.5048 71.16 84.0888 71.0853 83.7048 70.936C83.3314 70.776 83.0274 70.504 82.7928 70.12C82.5581 69.736 82.4408 69.1973 82.4408 68.504V63.512H81.2248V62.84L82.4568 62.28L83.0168 60.456H83.8488V62.424H86.3288V63.512H83.8488V68.472C83.8488 68.9947 83.9714 69.384 84.2168 69.64C84.4728 69.8853 84.7981 70.008 85.1927 70.008ZM88.83 59.208C89.0433 59.208 89.23 59.2827 89.39 59.432C89.5607 59.5707 89.646 59.7947 89.646 60.104C89.646 60.4027 89.5607 60.6267 89.39 60.776C89.23 60.9253 89.0433 61 88.83 61C88.5953 61 88.398 60.9253 88.238 60.776C88.078 60.6267 87.998 60.4027 87.998 60.104C87.998 59.7947 88.078 59.5707 88.238 59.432C88.398 59.2827 88.5953 59.208 88.83 59.208ZM89.518 62.424V71H88.11V62.424H89.518ZM99.691 66.696C99.691 68.1147 99.3283 69.2133 98.603 69.992C97.8883 70.7707 96.9177 71.16 95.691 71.16C94.9337 71.16 94.2563 70.9893 93.659 70.648C93.0723 70.296 92.6083 69.7893 92.267 69.128C91.9257 68.456 91.755 67.6453 91.755 66.696C91.755 65.2773 92.1123 64.184 92.827 63.416C93.5417 62.648 94.5123 62.264 95.739 62.264C96.5177 62.264 97.2003 62.44 97.787 62.792C98.3843 63.1333 98.8483 63.6347 99.179 64.296C99.5203 64.9467 99.691 65.7467 99.691 66.696ZM93.211 66.696C93.211 67.7093 93.4083 68.5147 93.803 69.112C94.2083 69.6987 94.8483 69.992 95.723 69.992C96.587 69.992 97.2217 69.6987 97.627 69.112C98.0323 68.5147 98.235 67.7093 98.235 66.696C98.235 65.6827 98.0323 64.888 97.627 64.312C97.2217 63.736 96.5817 63.448 95.707 63.448C94.8323 63.448 94.1977 63.736 93.803 64.312C93.4083 64.888 93.211 65.6827 93.211 66.696ZM106.051 62.264C107.075 62.264 107.848 62.5147 108.371 63.016C108.893 63.5067 109.155 64.3067 109.155 65.416V71H107.763V65.512C107.763 64.136 107.123 63.448 105.843 63.448C104.893 63.448 104.237 63.7147 103.875 64.248C103.512 64.7813 103.331 65.5493 103.331 66.552V71H101.923V62.424H103.059L103.267 63.592H103.347C103.624 63.144 104.008 62.8133 104.499 62.6C104.989 62.376 105.507 62.264 106.051 62.264ZM117.397 68.632C117.397 69.464 117.088 70.0933 116.469 70.52C115.85 70.9467 115.018 71.16 113.973 71.16C113.376 71.16 112.858 71.112 112.421 71.016C111.994 70.92 111.616 70.7867 111.285 70.616V69.336C111.626 69.5067 112.037 69.6667 112.517 69.816C113.008 69.9547 113.504 70.024 114.005 70.024C114.72 70.024 115.237 69.912 115.557 69.688C115.877 69.4533 116.037 69.144 116.037 68.76C116.037 68.5467 115.978 68.3547 115.861 68.184C115.744 68.0133 115.53 67.8427 115.221 67.672C114.922 67.5013 114.49 67.3093 113.925 67.096C113.37 66.8827 112.896 66.6693 112.501 66.456C112.106 66.2427 111.802 65.9867 111.589 65.688C111.376 65.3893 111.269 65.0053 111.269 64.536C111.269 63.8107 111.562 63.2507 112.149 62.856C112.746 62.4613 113.525 62.264 114.485 62.264C115.008 62.264 115.493 62.3173 115.941 62.424C116.4 62.52 116.826 62.6587 117.221 62.84L116.741 63.96C116.378 63.8107 116 63.6827 115.605 63.576C115.21 63.4693 114.805 63.416 114.389 63.416C113.813 63.416 113.37 63.512 113.061 63.704C112.762 63.8853 112.613 64.136 112.613 64.456C112.613 64.6907 112.682 64.8933 112.821 65.064C112.96 65.224 113.189 65.384 113.509 65.544C113.84 65.6933 114.277 65.8747 114.821 66.088C115.365 66.2907 115.829 66.4987 116.213 66.712C116.597 66.9253 116.89 67.1867 117.093 67.496C117.296 67.7947 117.397 68.1733 117.397 68.632Z" fill="#061621"/>
<defs>
<clipPath id="clip0">
<rect width="246" height="96" fill="white"/>
</clipPath>
</defs>
</svg>
