<svg width="172" height="153" viewBox="0 0 172 153" fill="none" xmlns="http://www.w3.org/2000/svg">
<path d="M0 134.224C0 131.462 2.23858 129.224 5 129.224H93.13C95.8914 129.224 98.13 131.462 98.13 134.224V143.248H0V134.224Z" fill="#DA9459"/>
<rect x="4.00537" y="126.219" width="90.1194" height="7.01215" rx="1" fill="#DA9459"/>
<path d="M8.01057 121.201C8.01057 118.44 10.2492 116.201 13.0106 116.201H85.1194C87.8808 116.201 90.1194 118.44 90.1194 121.201V123.213H8.01057V121.201Z" fill="#DA9459"/>
<rect width="54.0827" height="36.0551" rx="3" transform="matrix(0.706963 -0.707251 0.706963 0.707251 64.0554 55.25)" fill="#DA9459"/>
<rect width="16.0245" height="47.0719" rx="6" transform="matrix(0.706963 -0.707251 0.706963 0.707251 99.4576 11.3333)" fill="#DA9459"/>
<rect width="16.0245" height="81.124" rx="6" transform="matrix(0.706963 -0.707251 0.706963 0.707251 105.122 69.4167)" fill="#DA9459"/>
<rect width="16.0245" height="47.0719" rx="6" transform="matrix(0.706963 -0.707251 0.706963 0.707251 47.0623 63.75)" fill="#DA9459"/>
<circle r="5.50842" transform="matrix(0.706963 -0.707251 0.706963 0.707251 80.7429 55.6528)" fill="#8F2D06"/>
<circle r="2.50383" transform="matrix(0.706963 -0.707251 0.706963 0.707251 79.3268 55.6528)" fill="white"/>
<circle r="5.50842" transform="matrix(0.706963 -0.707251 0.706963 0.707251 102.692 33.6944)" fill="#8F2D06"/>
<circle r="2.50383" transform="matrix(0.706962 -0.707251 0.706962 0.707251 101.276 33.6944)" fill="white"/>
<path d="M105.122 58.0833C108.159 55.0447 108.575 50.3767 106.37 46.8918C105.779 45.9584 104.489 45.9666 103.708 46.7478L93.7909 56.6688C93.0101 57.45 93.0018 58.7409 93.9349 59.3318C97.4184 61.5381 102.084 61.1219 105.122 58.0833Z" fill="#8F2D06"/>
</svg>
