<svg width="247" height="3" viewBox="0 0 247 3" fill="none" xmlns="http://www.w3.org/2000/svg">
<path d="M0.0598436 0.869261C-0.0691024 0.953373 0.00253664 1.14029 0.36072 1.10291L0.616211 0.794495L0.0598436 0.869261Z" fill="#333531"/>
<path d="M2.4686 1.44843C2.88887 1.2989 3.37602 1.03722 3.10379 0.747498C2.68591 1.04656 2.58561 0.925067 2.14862 1.28021C1.78805 1.28021 1.52299 1.1774 1.58269 1.06525C1.33236 1.05023 1.08202 1.09079 0.832874 1.18675C1.38812 1.42785 1.9482 1.44664 2.50442 1.24282C2.62859 1.30824 2.49964 1.39236 2.4686 1.44843Z" fill="#333531"/>
<path d="M37.4854 1.96272L37.2458 1.96272C37.3256 1.98201 37.4056 1.98201 37.4854 1.96272Z" fill="#333531"/>
<path d="M59.1787 2.10292C59.0985 2.08164 59.0178 2.10365 58.9391 2.16834C59.0193 2.17715 59.0996 2.15524 59.1787 2.10292Z" fill="#333531"/>
<path d="M62.8828 2.43913C62.8038 2.43913 62.7367 2.43913 62.6648 2.43913C62.7373 2.46612 62.8103 2.46612 62.8828 2.43913Z" fill="#333531"/>
<path d="M37.4846 1.96255L38.0625 2.06535C37.8713 1.95148 37.6776 1.91702 37.4846 1.96255Z" fill="#333531"/>
<path d="M7.29688 0.700943C7.17509 0.700943 7.07479 0.747672 6.98166 0.785055C7.08196 0.785055 7.17747 0.785055 7.27777 0.785055C7.2825 0.751927 7.28902 0.723226 7.29688 0.700943Z" fill="#333531"/>
<path d="M27.9189 2.17766L27.7446 2.17766C27.6921 2.17766 27.6444 2.26177 27.5966 2.3085L27.9189 2.17766Z" fill="#333531"/>
<path d="M20.5816 2.22453C20.6847 2.22723 20.7852 2.09937 20.8682 1.86005C20.7503 1.9783 20.6292 2.03797 20.5076 2.03762C20.5028 2.09369 20.5267 2.14977 20.5816 2.22453Z" fill="#333531"/>
<path d="M8.94238 1.76649L8.73636 1.76649C8.78907 1.79453 8.8801 1.77584 8.94238 1.76649Z" fill="#333531"/>
<path d="M33.172 2.23378C33.1928 2.28062 33.2156 2.31229 33.2393 2.32724C33.2393 2.32724 33.2128 2.26182 33.172 2.23378Z" fill="#333531"/>
<path d="M238.462 0.26149C238.462 0.26149 238.462 0.261489 238.462 0.308218C238.505 0.280181 238.52 0.26149 238.462 0.26149Z" fill="#333531"/>
<path d="M246.971 1.56068L246.853 1.56068C246.839 1.60741 246.827 1.65414 246.827 1.71022L246.971 1.56068Z" fill="#333531"/>
<path d="M69.6621 2.77591C69.6518 2.7809 69.6413 2.7809 69.631 2.77591C69.4537 2.80395 69.5471 2.7946 69.6621 2.77591Z" fill="#333531"/>
<path d="M131.893 2.57959C131.189 2.34595 133.04 2.28053 131.979 2.01884C132.077 2.12165 131.015 2.43006 131.893 2.57959Z" fill="#333531"/>
<path d="M7.48719 0.739227C7.58541 0.739227 7.68604 0.739227 7.78906 0.739227C7.6501 0.719228 7.55906 0.719228 7.48719 0.739227Z" fill="#333531"/>
<path d="M131.979 2.0186L131.869 2.0186C131.915 1.96253 131.941 2.00926 131.979 2.0186Z" fill="#333531"/>
<path d="M85.2822 2.617C85.2298 2.55883 85.176 2.52126 85.1217 2.50485C85.1733 2.5754 85.2275 2.61327 85.2822 2.617Z" fill="#333531"/>
<path d="M73.6447 2.24292L73.9346 2.24292C73.8196 2.25292 73.7261 2.24292 73.6447 2.24292Z" fill="#333531"/>
<path d="M91.3234 2.24283C91.4642 2.27296 91.6053 2.27296 91.7461 2.24283C91.7246 2.23626 91.7031 2.23626 91.6816 2.24283C91.5625 2.28834 91.4425 2.28834 91.3234 2.24283Z" fill="#333531"/>
<path d="M97.6104 2.24287C97.5769 2.24287 97.5339 2.24287 97.4957 2.19614C97.4575 2.14941 97.3596 2.19614 97.2952 2.19614L97.6104 2.24287Z" fill="#333531"/>
<path d="M219.351 0.392333C219.449 0.432119 219.546 0.510394 219.64 0.625978C219.544 0.439062 220.464 0.373641 219.351 0.392333Z" fill="#333531"/>
<path d="M7.29901 0.850706C7.3597 0.766638 7.42394 0.728574 7.48828 0.738558C7.41641 0.738558 7.34453 0.738558 7.27744 0.738558C7.26067 0.785287 7.25589 0.822669 7.29901 0.850706Z" fill="#333531"/>
<path d="M91.578 0.177536L92.5762 0.177536C92.2968 0.187535 91.9338 0.177536 91.578 0.177536Z" fill="#333531"/>
<path d="M174.236 0.429765L174.476 0.429765C174.396 0.406794 174.316 0.406794 174.236 0.429765Z" fill="#333531"/>
<path d="M95.5425 0.177536C95.7216 0.270994 95.9103 0.317723 96.1061 0.355107C96.1446 0.34196 96.1829 0.320115 96.2207 0.289685L95.5425 0.177536Z" fill="#333531"/>
<path d="M226.224 1.43506e-05C225.269 1.43089e-05 225.777 0.345809 225.574 0.54207C224.44 0.635528 225.049 0.289735 224.662 0.112165C223.946 0.196277 223.409 0.514034 222.881 0.504688C222.84 0.448613 222.738 0.429922 222.859 0.355155C222.107 0.626183 220.631 0.355154 219.755 0.710294C219.716 0.700687 219.678 0.672439 219.64 0.626182C219.784 0.803752 219.805 0.971977 219.777 1.10282C219.459 1.22211 219.139 1.22211 218.821 1.10282C218.958 1.12248 219.095 1.06903 219.227 0.943939L218.793 1.02805C218.392 0.700949 219.404 0.915903 219.404 0.672912C218.532 0.785062 217.515 1.04674 216.847 0.953285C216.708 0.635528 218.411 0.850482 217.518 0.570108L218.552 0.691602C217.761 0.18693 219.18 0.691603 218.454 0.186931C217.095 0.0934726 216.933 0.355155 215.588 0.261697C215.283 0.429921 215.688 0.523378 215.383 0.691602C213.453 1.00936 213.864 -0.10279 212.446 0.317771C211.949 0.781298 211.435 0.917118 210.927 0.71964L211.271 0.364501C209.953 0.364501 210.519 0.878518 209.138 0.635528C209.377 0.495341 210.175 0.514032 209.977 0.476649C209.081 0.18693 209.344 0.682256 208.656 0.682256L208.515 0.364501C207.111 0.41123 205.566 0.635527 204.014 0.700948C204.1 0.60749 204.365 0.504687 204.002 0.411229C202.044 0.570107 199.821 0.3645 197.932 0.177584L197.216 0.457957C197.048 0.457957 196.905 0.327117 197.087 0.280388C196.349 0.168238 197.048 0.448611 196.695 0.560761C196.275 0.560761 196.141 0.401882 196.406 0.31777C195.107 0.551415 192.705 0.822442 191.334 0.523377L191.57 0.457956C190.505 0.345807 190.377 1.0187 189.378 0.757021L189.569 0.710293C187.256 0.588798 184.698 0.841135 182.931 0.42992C182.597 0.822443 180.641 0.252349 180.493 0.803751C179.172 0.532723 179.55 0.429919 177.69 0.252349C177.193 0.252349 176.949 0.598144 176.333 0.654218L176.319 0.364499L175.485 0.663564L175.041 0.317769L174.463 0.392535C174.702 0.392535 174.953 0.523376 174.917 0.607488C174.177 0.715693 173.436 0.600085 172.701 0.261695L170.571 0.504686C170.798 0.359848 171.027 0.281747 171.256 0.271041C170.12 0.570106 171.051 -0.0280246 170.008 0.271041C170.148 0.336461 169.934 0.439265 169.91 0.495339C169.389 0.317769 168.207 0.317769 167.333 0.392535L167.5 0.196274C165.922 0.196274 164.172 0.289731 162.397 0.289731C163.035 0.383189 162.887 0.719637 162.369 0.75702L162.161 0.448609C161.824 0.644871 162.703 0.570105 162.013 0.794404C161.351 0.794404 161.569 0.448611 161.948 0.355153L161.144 0.457955C161.096 0.364497 161.285 0.31777 161.335 0.20562C161.005 0.392536 159.945 -0.102791 159.467 0.20562L159.422 0.121508C157.65 0.121508 156.845 0.214965 155.403 0.233656C155.374 0.495338 154.811 0.439264 154.379 0.654217C153.318 0.570105 152.141 0.364497 150.864 0.383188C149.963 0.514029 150.601 0.607487 150.197 0.766366C150.131 0.523375 148.853 0.542067 149.517 0.373842C147.981 0.373842 147.556 0.420571 145.615 0.616833C145.828 0.710291 146.064 0.75702 145.94 0.841132C145.689 0.925837 145.435 0.853276 145.19 0.626179L145.283 0.626179C143.105 0.981319 140.257 -0.0747548 138.521 0.429918L138.618 0.429918L136.82 0.691599C135.992 0.64487 137.317 0.51403 136.703 0.364498C134.764 0.757021 133.64 0.308422 132.042 0.570104C130.805 -0.140176 127.653 0.570104 125.984 0.168234L126.079 0.336459C125.799 0.400936 125.517 0.357112 125.239 0.205618C125.284 0.327114 125.717 0.355151 125.44 0.439263C121.784 0.644871 117.896 0.196272 114.149 0.0467395C112.779 1.04606e-05 113.371 0.906552 111.645 0.514029L112.134 0.205618C109.369 0.570104 106.479 0.205617 103.776 0.504683C103.918 0.388955 104.062 0.335662 104.206 0.345804C103.498 0.165028 102.787 0.221307 102.081 0.514029C101.661 0.514029 101.985 0.345804 101.725 0.252346C101.152 0.121505 100.292 0.542065 99.9796 0.317766C99.927 0.317766 100.142 0.242999 100.247 0.224308C99.8721 0.336457 98.5038 0.224308 98.862 0.457952C97.8472 0.336457 96.9182 0.579448 96.1087 0.457952C95.5786 0.747672 94.368 0.317766 94.1984 0.728981C94.2701 0.30842 92.417 0.392533 91.7747 0.588794C91.9896 0.457953 91.2159 0.457953 91.4666 0.280383C90.7336 0.280383 90.0625 0.364495 90.1891 0.579448C88.8399 0.0747754 87.474 0.990663 86.7147 0.336457C84.5369 0.560756 82.5215 0.719635 80.561 0.822439C80.6327 0.392532 82.7269 0.775709 82.6433 0.336457C80.7855 0.504681 79.7133 0.869166 77.8675 0.766362C77.3899 0.710288 78.1373 0.588794 78.2997 0.514027C76.4419 0.682252 74.7178 0.514026 73.0462 0.700942C73.1624 0.629103 73.2797 0.591615 73.3973 0.588793C73.0725 0.588793 72.6403 0.523372 72.6809 0.719634L72.9985 0.66356C73.5167 0.943934 71.7042 1.25234 71.6469 1.39253C72.1985 0.841129 70.0136 1.25234 70.8923 0.560755C70.6774 0.560755 70.4148 0.691597 70.4577 0.822438C70.1402 0.822438 70.0399 0.710288 70.3622 0.560755C69.1945 0.663559 69.61 0.869166 68.5522 0.85982C68.6598 0.75317 68.7691 0.675111 68.8793 0.626176C68.2264 0.878644 67.57 0.972283 66.9141 0.90655C66.9666 0.850476 66.8639 0.785054 67.129 0.785054C65.5959 0.785054 64.5166 1.26169 62.8307 1.09346C63.3274 0.68225 62.2576 0.953278 62.1693 0.607483L61.2643 0.710287L61.6272 0.878512C60.8344 0.878512 60.1348 1.13085 59.4542 1.0187L60.0417 0.869166L58.5564 0.934586L59.3969 1.06543C58.5946 1.25234 59.4829 1.51403 58.4274 1.41122C58.6423 1.41122 57.6346 1.41122 57.2215 1.20561C56.7618 1.36122 56.3001 1.40804 55.8389 1.3458C55.6861 1.23365 55.9607 0.962624 55.8628 0.887858C55.476 1.17758 54.0074 0.962624 53.5155 1.28038C53.6802 1.20561 53.6874 1.0187 53.6349 0.981316L53.3101 1.21496C52.9424 1.14019 52.8898 1.10281 52.9495 0.962624C51.8439 0.915895 53.3006 1.40188 51.9944 1.21496C52.0971 1.21496 52.0469 1.15889 52.2618 1.1215C50.9461 1.0187 49.7187 1.27103 48.508 1.1215C48.1522 0.766362 49.5659 1.02804 49.1575 0.738325C47.412 0.803745 45.5446 1.15888 43.8587 1.07477L44.1716 1.07477C43.9328 1.5701 42.9155 0.831781 42.063 1.07477C42.2708 1.07477 42.3353 0.794398 42.2803 0.850473C41.1246 0.775707 39.9163 0.971969 38.166 1.13085L38.3833 1.00001C37.7003 0.887856 36.5875 0.934586 35.8521 0.878511C35.6348 1.00935 35.2145 0.99066 35.47 1.16823C33.2015 0.448604 31.1407 1.56075 29.1301 0.953277C29.3689 0.953277 29.7032 0.850472 29.5121 0.841127L27.7976 0.962623C27.9891 1.14893 28.1854 1.24927 28.3826 1.26169C28.0084 1.4239 27.6321 1.4988 27.2556 1.48599C28.0269 1.3458 27.2556 1.14019 26.9165 1.0187C26.9714 1.08412 26.8568 1.15888 26.8854 1.2243C25.99 0.841126 26.735 1.66356 25.5124 1.40187L25.5768 1.28973C25.1208 1.3458 24.6981 1.49533 24.2038 1.46729C24.0008 1.21496 24.6814 1.3458 24.7244 1.14019C24.0295 1.14019 23.3561 1.61683 22.7281 1.36449C23.0218 1.29907 23.4444 1.29907 23.7405 1.2243C23.3189 1.03277 22.8946 0.945371 22.4702 0.962623L22.5203 0.962623L21.3479 0.831782L21.6463 0.906548C20.7771 1.56075 19.8793 1.02804 18.7116 1.4486C19.8459 1.04674 18.8979 1.21496 18.9862 0.934584C18.6877 0.859818 18.234 0.76636 18.363 0.691594C17.8114 0.915893 17.4412 0.514023 16.6604 0.841126C16.6269 0.747668 16.0706 0.841126 16.1828 0.607481C15.4664 0.672902 16.3523 0.766361 16.2926 0.87851C15.1846 1.18692 13.6898 0.504678 12.0994 0.925238C10.7264 1.10281 10.4733 1.41122 9.19814 1.56075C8.76831 1.42057 9.54915 1.23365 9.54915 1.23365C8.85666 1.10281 8.33369 1.1215 7.68179 1.23365C7.81314 1.15888 7.68181 1.09346 7.47644 0.990658C6.95349 0.990658 7.12781 1.31776 6.43532 1.18692C6.6073 1.01879 6.78203 0.897008 6.95827 0.822435C6.3398 0.906548 5.73088 1.07477 5.09091 1.15888C4.92137 1 5.47537 0.915893 5.70222 0.813089C5.00606 0.799397 4.3102 0.930423 3.61757 1.20561L4.07843 1.29907C3.81575 1.29907 3.94231 1.08412 4.13574 1.03739C4.75182 0.841126 5.02643 1.1215 5.05986 1.21496L4.60379 1.27103C5.08138 1.80374 6.4353 1.18692 7.35226 1.21496L6.9702 1.60748L7.91104 1.28038C8.11163 1.38318 8.24774 1.59814 7.79404 1.65421C8.45311 1.85047 8.37669 1.52337 8.94263 1.73832C9.00471 1.73832 8.97604 1.78505 8.91875 1.80374L9.5611 1.68225C9.43452 1.76636 9.66856 1.96262 9.27455 1.90655C10.4279 2.13085 11.1347 1.61683 11.5669 1.90655L11.4714 1.90655C13.0713 1.77571 11.6266 1.61683 12.8278 1.28038L13.6349 1.99066L13.7925 1.70094C13.9572 1.70094 14.2844 1.70094 14.2223 1.85047C14.8384 1.65421 14.1196 1.71963 14.4754 1.54206C15.2706 1.80374 16.6651 1.42057 16.8466 1.86916C17.1308 1.65421 16.0849 1.70094 16.935 1.55141C17.1738 2.04673 17.914 1.46729 18.64 1.69159C18.4179 1.94393 17.7301 1.81309 18.4561 2.03739C18.8955 1.60748 19.8697 2.13085 20.4834 2.03739C20.5121 1.70094 21.8135 1.8972 22.8403 1.78505C22.7758 1.8972 24.7745 1.97197 25.7321 2.09346L25.7034 2.14954C25.8873 1.81309 26.8735 1.87851 27.5923 1.80374C27.5636 2.00935 27.4346 2.09346 27.0454 2.17758L27.7212 2.17758C27.9886 2.03149 28.2583 1.96277 28.5283 1.97197L28.3588 2.23365C29.2566 2.23365 30.1664 1.92524 31.3222 2.10281C31.389 1.85982 30.4028 1.42991 31.6254 1.27103C31.6708 1.40188 31.7162 1.62617 31.3867 1.6729C31.5813 1.61501 31.7766 1.59941 31.9717 1.62617L31.4941 1.84113C32.0195 1.93459 31.7687 1.66356 32.189 1.68225C32.189 1.85982 32.5018 1.81309 32.4397 1.95328C32.3323 1.95328 32.0744 1.87851 31.912 1.95328C32.3253 1.96052 32.7382 2.05411 33.1489 2.23365C33.1083 2.13085 33.1489 1.99066 33.4976 1.96262C34.3954 1.96262 33.8056 2.18692 34.3286 2.28038C34.5459 2.14954 35.119 2.28038 35.1357 2.00935C35.2753 1.99499 35.4146 2.06433 35.5488 2.21496C36.0121 2.09346 37.7194 2.21496 37.1965 1.88786L37.0771 1.88786C37.0986 1.88786 37.1248 1.88786 37.1511 1.88786C38.677 1.61683 40.3175 2.04673 41.829 1.93458L41.829 1.96262C42.7316 1.85982 43.8396 1.90655 44.482 1.70094C44.7495 1.70094 45.1124 1.87851 45.0002 1.98132C45.6879 1.91589 45.7667 1.81309 46.7625 1.98132C46.07 2.14019 47.0013 2.1215 46.0461 2.10281C46.7324 2.26601 47.4206 2.26601 48.1069 2.10281C47.7797 2.33645 48.7826 2.40187 49.2077 2.32711L48.5797 2.15888C49.0572 2.15888 49.4775 2.15888 49.9026 2.15888L49.6638 2.4673C51.4977 2.85047 52.9734 1.82244 54.368 2.4673C54.8456 2.25234 53.3722 2.31776 53.8068 2.05608C54.6497 2.10281 55.5309 2.55141 55.7936 2.55141C56.9493 2.71963 56.8729 2.09346 58.0812 2.21496C57.9283 2.10281 57.7803 1.80374 58.6853 1.70094C59.5306 1.70094 59.7241 2.16823 59.1892 2.25234C59.0919 2.29397 58.9936 2.27504 58.8978 2.19627C58.6256 2.19627 58.2674 2.28038 58.6017 2.40188L58.7116 2.28973C59.1295 2.40188 60.2924 2.39253 60.0202 2.5701C60.6577 2.4673 60.2924 2.39253 59.8196 2.33645C60.9037 2.49533 61.5126 2.33646 62.6278 2.44861C62.4487 2.38318 62.2863 2.25234 62.463 2.25234C64.0987 2.39253 63.1794 2.04674 64.2897 2.00001C64.9202 2.16823 64.0653 2.40188 65.1805 2.26169C65.861 2.37384 65.3237 2.55141 65.0539 2.64487C66.0711 2.42991 66.9523 2.78505 67.5325 2.82244L66.9977 2.91589C67.3176 2.85982 67.5803 2.85982 67.8478 2.85982L67.5421 2.63552C67.7338 2.60703 67.9258 2.654 68.1152 2.77571C68.44 2.62618 67.8764 2.40188 68.5116 2.20561C68.9295 2.31776 69.7867 2.08412 69.9324 2.37384C68.6143 2.28038 70.0781 2.6729 68.9629 2.71963C69.1778 2.71963 69.4405 2.71963 69.7557 2.71963C69.8011 2.71963 69.7103 2.77571 69.6244 2.7944C70.8852 3.05608 70.2046 2.45795 71.5108 2.4673C71.3437 2.63552 71.8141 2.78505 72.0266 2.74767C71.4989 2.74767 71.7735 2.4673 72.2654 2.3458C73.1036 2.47664 73.1752 2.25234 73.6146 2.26169L73.1131 2.20562C73.5148 2.0157 73.9193 1.93451 74.3238 1.96262C74.3739 2.08412 73.7937 2.04674 74.0038 2.10281C74.6509 1.81309 75.4676 2.41122 76.3726 2.21496C76.7905 2.32711 76.4132 2.52337 76.7809 2.59814C77.7934 2.38319 77.8794 2.82244 78.9444 2.64487C78.6364 2.42057 78.5838 2.47664 79.3336 2.26169L77.5833 2.42057L78.7056 2.09346C78.1779 2.09346 77.5905 2.23365 77.2729 2.19627C77.8078 2.0187 77.7504 2.07477 77.4997 1.88786C78.2161 2.22431 78.9325 1.6916 79.7682 1.88786L79.7444 2.43926C81.0004 2.68225 81.9771 2.15889 83.608 2.29907L83.0851 2.19627C83.3024 1.98132 84.0928 2.19627 84.6205 2.08412C84.5703 2.26169 84.9023 2.33646 85.1267 2.44861C85.1004 2.30842 86.3207 2.44861 86.4711 2.09347L87.1875 2.33646C88.5056 2.42991 88.6895 1.80375 89.9575 1.86917C89.5754 2.07477 90.1509 2.20562 89.3032 2.3458C89.5731 2.41947 89.8443 2.38816 90.1127 2.25234C90.3515 2.36449 91.2852 2.00935 91.6744 2.17758C91.9098 1.98367 92.1503 1.89897 92.3908 1.92524C92.4433 1.92524 92.3908 2.00935 92.3908 2.00935C92.3908 2.00935 93.1358 1.88786 92.7203 1.68225C94.0217 2.26169 96.3619 1.68225 97.4961 2.1402C98.4179 2.07478 99.5306 2.0187 100.362 2.00001C100.309 2.05608 100.362 2.09347 100.202 2.07478C101.357 2.243 100.918 1.54207 102.227 1.73833C102.898 2.03739 101.527 1.8972 101.947 2.00935C102.129 2.61683 103.535 1.92524 104.419 2.28038L104.206 2.28038C104.882 2.48599 105.856 2.04674 106.962 2.09347C106.962 2.09347 106.907 2.14954 106.962 2.18692C107.719 1.87851 109.149 1.77571 110.214 1.6916C109.882 1.92524 109.737 1.81309 109.932 2.05608C110.41 2.05608 109.792 1.66356 110.744 1.59814C111.052 1.72898 111.74 1.84113 111.831 2.10281L110.933 2.10281C111.394 2.43926 112.096 2.10281 112.569 2.10281L112.507 2.25234C113.882 2.25234 113.901 1.84113 115.372 1.85982L115.219 1.75702C116.026 1.39253 115.895 1.95328 116.702 1.68225L116.941 2.05608C117.473 1.96263 118.808 1.70094 119.763 1.62618C119.221 1.90655 118.092 2.04674 117.411 2.20562C117.939 2.20562 119.207 2.20562 119.482 2.00001C119.269 2.00001 119.004 2.12151 118.792 2.06543C119.648 1.78784 120.507 1.69424 121.366 1.78506C121.179 2.50468 124.112 1.97197 124.876 2.52337C126.739 2.26169 128.57 2.63552 130.741 2.59814C129.972 2.03739 131.373 2.59814 131.242 2.00936C131.49 1.95811 131.737 1.95811 131.985 2.00936L133.518 2.3458C133.881 2.51403 133.04 2.47665 133.083 2.60749C134.189 2.60749 133.547 2.85048 134.277 3.00001C134.127 2.7944 134.662 2.70094 135.292 2.78506L134.404 2.52337C135.951 2.21496 135.741 3.00001 137.3 2.70095L136.806 2.87851C137.606 2.77571 139.757 2.87851 140.543 2.42057C140.684 2.48599 140.87 2.64487 140.519 2.68225C142.43 2.75702 144.774 2.19627 146.25 2.47665L146.107 2.61683C146.462 2.48215 146.818 2.44156 147.174 2.49534C147.15 2.55141 147.031 2.63552 147.196 2.64487C147.361 2.65422 148.151 2.40188 148.614 2.48599L148.211 2.63552C150.076 2.82244 151.076 2.25235 152.638 2.15889C152.638 2.5701 154.102 2.71029 154.832 2.77571L154.809 2.83179C156.979 2.83179 158.495 2.48599 160.508 2.32711C161.755 2.77571 164.735 2.51403 166.741 2.76637C166.435 2.6916 166.791 2.44861 167.149 2.40188C167.627 2.48599 168.451 2.12151 168.377 2.49534L168.207 2.49534C168.563 2.86917 169.53 2.76637 170.285 2.77571L170.411 2.28973C172.386 3.00001 175.588 2.0187 176.668 2.66356C177.145 2.54207 177.735 2.54207 178.208 2.42057L178.181 2.68226C179.502 2.74768 180.161 2.78506 181.794 2.68226L181.462 2.87852C182.384 2.87852 182.625 2.11216 183.475 2.09347L183.731 2.48599C185.338 2.48599 186.964 2.83179 188.552 2.48599C188.526 2.54207 188.478 2.65422 188.218 2.67291C188.975 2.67291 191.145 2.93459 190.871 2.39253C190.89 2.74767 192.528 2.39254 193.397 2.27104L193.261 2.53272C193.85 2.2016 194.445 2.02986 195.04 2.0187C195.279 2.0187 195.253 2.22431 194.93 2.15889C195.74 2.29908 195.561 1.9159 196.54 2.05609L196.174 2.21497C196.583 2.28804 196.993 2.20037 197.397 1.95328C197.965 1.84042 198.534 1.94371 199.097 2.26169C199.446 2.00495 199.801 1.91395 200.155 1.99067C200.22 2.07478 200.043 2.13085 199.952 2.15889C201.342 2.33646 202.02 1.85983 202.975 2.15889C203.024 2.26827 203.079 2.32324 203.135 2.31777C202.032 2.31777 201.144 2.31777 201.225 2.31777C201.225 2.55141 202.116 2.59814 201.406 2.92525C202.123 2.74768 203.345 2.35515 204.215 2.4673C204.254 2.48289 204.293 2.51102 204.332 2.55141L204.241 2.55141C204.441 2.55141 204.62 2.55141 204.79 2.55141C205.067 2.55141 205.244 2.61684 205.506 2.61684C205.994 2.76821 206.484 2.80878 206.973 2.73833C206.937 2.47665 207.517 2.51403 206.973 2.29908C206.846 2.3471 206.719 2.3471 206.593 2.29908C206.526 2.29908 206.447 2.29908 206.404 2.29908C206.414 2.30283 206.423 2.30283 206.433 2.29908C206.142 2.29908 205.762 2.29908 205.327 2.29908C205.729 2.11313 206.134 2.0787 206.538 2.19627C206.777 2.02805 207.016 1.85048 207.159 1.77571C207.768 2.1402 208.94 2.33646 209.105 2.56076C210.461 2.42057 212.302 2.4673 213.164 1.97198C213.362 1.91404 213.561 1.98991 213.752 2.19628C213.53 2.243 213.274 2.19628 213.143 2.30843C213.917 2.17758 215.431 2.25235 215.614 1.90656C216.589 2.06543 215.068 2.22431 216.405 2.16824L216.226 2.28039C218.852 2.83179 220.5 1.39254 223.416 2.10282C223.3 2.10473 223.185 2.06405 223.072 1.98132C226.396 2.29908 229.923 1.6916 233.204 2.18693C233.739 2.25826 234.275 2.16137 234.806 1.89721L235.007 2.17758L235.986 1.85048C237.364 1.61684 238.374 2.54207 240.122 2.09347L239.883 1.90656C240.511 1.90656 241.872 1.79441 241.767 2.00936C241.914 1.88594 242.066 1.8544 242.216 1.9159L242.235 2.06544L243.778 1.80375C244.971 1.9159 243.591 2.39254 245.334 2.42058C245.982 2.3645 247.178 1.99067 246.934 1.89721C246.706 1.93319 246.477 1.8515 246.254 1.65422L246.848 1.57945C246.956 1.1402 247.41 0.70095 245.955 0.392539L244.943 0.654221L244.616 0.448613L245.468 0.448613C245.094 0.312956 244.716 0.341167 244.343 0.532725C244.205 0.388169 244.062 0.309719 243.918 0.29908L242.911 0.719641C242.791 0.542071 243.357 0.373848 242.691 0.28039C242.213 0.476651 243.138 0.663567 242.366 0.794408C242.066 0.537485 241.757 0.471218 241.452 0.598147C241.373 0.485997 241.492 0.420575 241.719 0.373846C241.213 0.504687 240.377 0.429922 240.117 0.654221C239.611 0.41123 238.405 0.719641 238.445 0.308426C238.288 0.41123 237.555 0.635529 237.089 0.644875C237.939 0.158894 235.346 0.644875 235.57 0.093473C234.942 0.532725 233.297 0.289734 232.184 0.532724C232.277 0.471264 232.372 0.44311 232.466 0.448612C231.838 0.448612 231.656 0.280389 231.253 0.196277C231.172 0.560763 230.195 0.644874 229.67 0.869173C228.901 0.523379 230.135 0.439267 229.894 0.102819C229.932 0.401884 228.559 0.401884 228.82 0.644875C228.547 0.63338 228.275 0.495346 228.01 0.233659C227.907 0.691603 227.463 0.317773 226.976 0.598146C226.124 0.373847 226.756 0.168239 225.82 0.308425C225.393 0.168238 226.224 1.43506e-05 226.224 1.43506e-05ZM203.988 0.794406C204.179 0.794406 204.341 0.794406 204.446 0.794406C204.353 0.775714 204.226 0.78506 203.988 0.794406ZM202.118 0.794406C202.345 0.794406 202.629 0.794406 202.93 0.794406C202.994 0.878518 202.93 0.971976 202.736 0.971976C202.533 0.850271 202.326 0.794008 202.12 0.803752L202.118 0.794406ZM206.07 2.60749C205.925 2.66727 205.779 2.64524 205.635 2.54207C205.774 2.54207 205.939 2.54207 206.154 2.54207L206.187 2.54207C206.15 2.59337 206.111 2.61868 206.072 2.61684L206.07 2.60749Z" fill="#333531"/>
<path d="M206.614 2.27115C206.657 2.27115 206.681 2.27115 206.736 2.27115L206.559 2.21507L206.454 2.29918C206.499 2.28049 206.554 2.28049 206.614 2.27115Z" fill="#333531"/>
<path d="M37.2204 1.88773L37.2588 1.88773C37.2308 1.89502 37.2027 1.89502 37.1747 1.88773C37.2012 1.86904 37.2012 1.87838 37.2204 1.88773Z" fill="#333531"/>
<path d="M176.318 0.29892L176.32 0.364342L176.483 0.308266L176.318 0.29892Z" fill="#333531"/>
<path d="M26.9287 1.02785C26.8837 0.991062 26.8381 0.969177 26.7921 0.962433C26.837 1.00157 26.8827 1.02348 26.9287 1.02785Z" fill="#333531"/>
<path d="M22.4824 0.925381L21.8544 0.831924C22.1266 0.887999 22.3248 0.906689 22.4824 0.925381Z" fill="#333531"/>
<path d="M19.0645 0.794495C19.0403 0.813583 19.0174 0.851754 18.9972 0.906645L19.0645 0.794495Z" fill="#333531"/>
<path d="M73.4084 0.485918C73.4563 0.485918 73.5018 0.485918 73.5425 0.485918C73.8468 0.420496 73.6408 0.439188 73.4084 0.485918Z" fill="#333531"/>
<path d="M57.2377 1.10268C57.4072 1.10268 57.5768 1.00922 57.7559 0.971838C57.4693 0.953146 57.2449 0.953146 57.2377 1.10268Z" fill="#333531"/>
<path d="M58.5088 1.02797C58.2222 0.971899 57.9811 1.02797 57.7566 1.02797C57.993 1.02797 58.2724 1.02797 58.5088 1.02797Z" fill="#333531"/>
<path d="M4.25 0.673111L4.08467 0.673111C4.08467 0.673111 4.08468 0.67311 4.06551 0.719839L4.25 0.673111Z" fill="#333531"/>
<path d="M4.06641 0.710083L3.88192 0.710083C3.94331 0.729475 4.00501 0.729475 4.06641 0.710083Z" fill="#333531"/>
<path d="M3.49838 0.803632L3.88281 0.738212C3.75443 0.718245 3.62584 0.740127 3.49838 0.803632Z" fill="#333531"/>
<path d="M8.77471 0.794401L8.8252 0.700943C8.80589 0.705442 8.78778 0.738957 8.77471 0.794401Z" fill="#333531"/>
<path d="M10.1504 0.766337C9.82086 0.766337 9.32655 0.570075 8.86807 0.62615L8.82509 0.700916C9.04239 0.560729 9.83757 0.934562 10.1504 0.766337Z" fill="#333531"/>
<path d="M15.8887 1.96264L14.7377 1.88788C14.9383 1.99068 15.2033 2.13087 14.678 2.14956C16.1322 2.43928 14.3866 1.90657 15.8887 1.96264Z" fill="#333531"/>
<path d="M19.4615 2.09369C18.8431 2.14042 19.4615 2.24322 19.4353 2.2993C19.8293 2.20584 19.9248 2.18715 19.4615 2.09369Z" fill="#333531"/>
<path d="M45.2785 2.09369L45.2162 2.33668C45.6953 2.2993 45.221 2.24322 45.2785 2.09369Z" fill="#333531"/>
<path d="M50.2148 0.859616L49.7516 0.710083L49.5295 0.934382L50.2148 0.859616Z" fill="#333531"/>
<path d="M53.1303 2.56071L52.9226 2.59809L53.7178 2.51398L53.1303 2.56071Z" fill="#333531"/>
<path d="M96.4932 2.4765L96.3499 2.18678C96.0275 2.23351 95.9583 2.56996 96.4932 2.4765Z" fill="#333531"/>
<path d="M115.212 2.17748C115.562 2.36433 115.916 2.39568 116.268 2.27094C115.847 2.25225 115.427 2.1401 115.212 2.17748Z" fill="#333531"/>
<path d="M171.355 2.65407L170.977 2.75687L171.687 2.67276L171.355 2.65407Z" fill="#333531"/>
</svg>
