<svg width="247" height="40" viewBox="0 0 247 40" fill="none" xmlns="http://www.w3.org/2000/svg">
<path fill-rule="evenodd" clip-rule="evenodd" d="M1.2348 0.3202C1.2348 0.3202 85.9455 0 126.958 0C167.971 0 244.53 0.3202 244.53 0.3202V40H1.2348V0.3202Z" fill="white"/>
<g clip-path="url(#clip0)">
<path fill-rule="evenodd" clip-rule="evenodd" d="M1 38.9178C52.6416 38.8793 171.489 37.0572 246 38.9178H1Z" stroke="black" stroke-width="1.5"/>
<path d="M0.295455 1L0 40" stroke="black" stroke-width="1.5"/>
<path d="M0 0.476498C51.8029 0.43806 172.256 -0.860572 247 1" stroke="black" stroke-width="1.5"/>
<path d="M246 39.4905V1" stroke="black" stroke-width="1.5"/>
<path d="M219 17L225 23L231 17" stroke="black" stroke-width="2" stroke-linejoin="round"/>
</g>
<path d="M21.6 12.576L17.52 24H16.08L12 12.576H13.504L16.08 19.904C16.2507 20.3733 16.3947 20.816 16.512 21.232C16.6293 21.6373 16.7253 22.0267 16.8 22.4C16.8747 22.0267 16.9707 21.632 17.088 21.216C17.2053 20.8 17.3493 20.352 17.52 19.872L20.08 12.576H21.6ZM23.6738 12.208C23.8871 12.208 24.0738 12.2827 24.2338 12.432C24.4044 12.5707 24.4898 12.7947 24.4898 13.104C24.4898 13.4027 24.4044 13.6267 24.2338 13.776C24.0738 13.9253 23.8871 14 23.6738 14C23.4391 14 23.2418 13.9253 23.0818 13.776C22.9218 13.6267 22.8418 13.4027 22.8418 13.104C22.8418 12.7947 22.9218 12.5707 23.0818 12.432C23.2418 12.2827 23.4391 12.208 23.6738 12.208ZM24.3618 15.424V24H22.9538V15.424H24.3618ZM30.3908 15.264C31.1268 15.264 31.7561 15.424 32.2788 15.744C32.8121 16.064 33.2174 16.5173 33.4948 17.104C33.7828 17.68 33.9268 18.3573 33.9268 19.136V19.984H28.0548C28.0761 20.9547 28.3214 21.696 28.7908 22.208C29.2708 22.7093 29.9374 22.96 30.7908 22.96C31.3348 22.96 31.8148 22.912 32.2308 22.816C32.6574 22.7093 33.0948 22.56 33.5428 22.368V23.6C33.1054 23.792 32.6734 23.9307 32.2468 24.016C31.8201 24.112 31.3134 24.16 30.7268 24.16C29.9161 24.16 29.1961 23.9947 28.5668 23.664C27.9481 23.3333 27.4628 22.8427 27.1108 22.192C26.7694 21.5307 26.5988 20.7253 26.5988 19.776C26.5988 18.8373 26.7534 18.032 27.0628 17.36C27.3828 16.688 27.8254 16.1707 28.3908 15.808C28.9668 15.4453 29.6334 15.264 30.3908 15.264ZM30.3748 16.416C29.7028 16.416 29.1694 16.6347 28.7748 17.072C28.3908 17.4987 28.1614 18.096 28.0868 18.864H32.4548C32.4441 18.1387 32.2734 17.552 31.9428 17.104C31.6121 16.6453 31.0894 16.416 30.3748 16.416ZM41.3335 19.152C41.1948 18.7147 41.0722 18.288 40.9655 17.872C40.8695 17.4453 40.7948 17.1147 40.7415 16.88H40.6775C40.6348 17.1147 40.5655 17.4453 40.4695 17.872C40.3735 18.288 40.2508 18.72 40.1015 19.168L38.5655 23.984H36.9655L34.6135 15.408H36.0695L37.2535 19.984C37.3708 20.4427 37.4828 20.9067 37.5895 21.376C37.6962 21.8453 37.7708 22.2347 37.8135 22.544H37.8775C37.9202 22.3627 37.9682 22.1387 38.0215 21.872C38.0855 21.6053 38.1548 21.328 38.2295 21.04C38.3042 20.7413 38.3788 20.4747 38.4535 20.24L39.9735 15.408H41.5095L42.9815 20.24C43.0988 20.6027 43.2108 20.9973 43.3175 21.424C43.4348 21.8507 43.5148 22.2187 43.5575 22.528H43.6215C43.6535 22.2613 43.7228 21.8933 43.8295 21.424C43.9468 20.9547 44.0695 20.4747 44.1975 19.984L45.3975 15.408H46.8375L44.4535 23.984H42.8055L41.3335 19.152ZM55.7799 15.28C56.8252 15.28 57.5985 15.5093 58.0999 15.968C58.6012 16.4267 58.8519 17.1573 58.8519 18.16V24H57.8279L57.5559 22.784H57.4919C57.1185 23.2533 56.7239 23.6 56.3079 23.824C55.9025 24.048 55.3372 24.16 54.6119 24.16C53.8332 24.16 53.1879 23.9573 52.6759 23.552C52.1639 23.136 51.9079 22.4907 51.9079 21.616C51.9079 20.7627 52.2439 20.1067 52.9159 19.648C53.5879 19.1787 54.6225 18.9227 56.0199 18.88L57.4759 18.832V18.32C57.4759 17.6053 57.3212 17.1093 57.0119 16.832C56.7025 16.5547 56.2652 16.416 55.6999 16.416C55.2519 16.416 54.8252 16.4853 54.4199 16.624C54.0145 16.752 53.6359 16.9013 53.2839 17.072L52.8519 16.016C53.2252 15.8133 53.6679 15.6427 54.1799 15.504C54.6919 15.3547 55.2252 15.28 55.7799 15.28ZM56.1959 19.856C55.1292 19.8987 54.3879 20.0693 53.9719 20.368C53.5665 20.6667 53.3639 21.088 53.3639 21.632C53.3639 22.112 53.5079 22.464 53.7959 22.688C54.0945 22.912 54.4732 23.024 54.9319 23.024C55.6572 23.024 56.2599 22.8267 56.7399 22.432C57.2199 22.0267 57.4599 21.408 57.4599 20.576V19.808L56.1959 19.856ZM67.0846 21.632C67.0846 22.464 66.7753 23.0933 66.1566 23.52C65.538 23.9467 64.706 24.16 63.6606 24.16C63.0633 24.16 62.546 24.112 62.1086 24.016C61.682 23.92 61.3033 23.7867 60.9726 23.616V22.336C61.314 22.5067 61.7246 22.6667 62.2046 22.816C62.6953 22.9547 63.1913 23.024 63.6926 23.024C64.4073 23.024 64.9246 22.912 65.2446 22.688C65.5646 22.4533 65.7246 22.144 65.7246 21.76C65.7246 21.5467 65.666 21.3547 65.5486 21.184C65.4313 21.0133 65.218 20.8427 64.9086 20.672C64.61 20.5013 64.178 20.3093 63.6126 20.096C63.058 19.8827 62.5833 19.6693 62.1886 19.456C61.794 19.2427 61.49 18.9867 61.2766 18.688C61.0633 18.3893 60.9566 18.0053 60.9566 17.536C60.9566 16.8107 61.25 16.2507 61.8366 15.856C62.434 15.4613 63.2126 15.264 64.1726 15.264C64.6953 15.264 65.1806 15.3173 65.6286 15.424C66.0873 15.52 66.514 15.6587 66.9086 15.84L66.4286 16.96C66.066 16.8107 65.6873 16.6827 65.2926 16.576C64.898 16.4693 64.4926 16.416 64.0766 16.416C63.5006 16.416 63.058 16.512 62.7486 16.704C62.45 16.8853 62.3006 17.136 62.3006 17.456C62.3006 17.6907 62.37 17.8933 62.5086 18.064C62.6473 18.224 62.8766 18.384 63.1966 18.544C63.5273 18.6933 63.9646 18.8747 64.5086 19.088C65.0526 19.2907 65.5166 19.4987 65.9006 19.712C66.2846 19.9253 66.578 20.1867 66.7806 20.496C66.9833 20.7947 67.0846 21.1733 67.0846 21.632ZM68.9489 16.288C68.9489 15.8827 69.0449 15.6 69.2369 15.44C69.4289 15.28 69.6582 15.2 69.9249 15.2C70.2022 15.2 70.4369 15.28 70.6289 15.44C70.8315 15.6 70.9329 15.8827 70.9329 16.288C70.9329 16.672 70.8315 16.9493 70.6289 17.12C70.4369 17.2907 70.2022 17.376 69.9249 17.376C69.6582 17.376 69.4289 17.2907 69.2369 17.12C69.0449 16.9493 68.9489 16.672 68.9489 16.288ZM68.9489 23.136C68.9489 22.7413 69.0449 22.464 69.2369 22.304C69.4289 22.144 69.6582 22.064 69.9249 22.064C70.2022 22.064 70.4369 22.144 70.6289 22.304C70.8315 22.464 70.9329 22.7413 70.9329 23.136C70.9329 23.52 70.8315 23.7973 70.6289 23.968C70.4369 24.1387 70.2022 24.224 69.9249 24.224C69.6582 24.224 69.4289 24.1387 69.2369 23.968C69.0449 23.7973 68.9489 23.52 68.9489 23.136ZM81.0024 24H76.8744V23.168L78.2184 22.864V13.728L76.8744 13.408V12.576H81.0024V13.408L79.6584 13.728V22.864L81.0024 23.168V24ZM87.1443 15.264C88.1683 15.264 88.9416 15.5147 89.4643 16.016C89.9869 16.5067 90.2483 17.3067 90.2483 18.416V24H88.8563V18.512C88.8563 17.136 88.2163 16.448 86.9363 16.448C85.9869 16.448 85.3309 16.7147 84.9683 17.248C84.6056 17.7813 84.4243 18.5493 84.4243 19.552V24H83.0163V15.424H84.1523L84.3603 16.592H84.4403C84.7176 16.144 85.1016 15.8133 85.5923 15.6C86.0829 15.376 86.6003 15.264 87.1443 15.264ZM95.9469 24.16C94.8802 24.16 94.0269 23.792 93.3869 23.056C92.7469 22.3093 92.4269 21.2 92.4269 19.728C92.4269 18.256 92.7469 17.1467 93.3869 16.4C94.0375 15.6427 94.8962 15.264 95.9629 15.264C96.6242 15.264 97.1629 15.3867 97.5789 15.632C98.0055 15.8773 98.3522 16.176 98.6189 16.528H98.7149C98.7042 16.3893 98.6829 16.1867 98.6509 15.92C98.6295 15.6427 98.6189 15.424 98.6189 15.264V11.84H100.027V24H98.8909L98.6829 22.848H98.6189C98.3629 23.2107 98.0215 23.52 97.5949 23.776C97.1682 24.032 96.6189 24.16 95.9469 24.16ZM96.1709 22.992C97.0775 22.992 97.7122 22.7467 98.0749 22.256C98.4482 21.7547 98.6349 21.0027 98.6349 20V19.744C98.6349 18.6773 98.4589 17.8613 98.1069 17.296C97.7549 16.72 97.1042 16.432 96.1549 16.432C95.3975 16.432 94.8269 16.736 94.4429 17.344C94.0695 17.9413 93.8829 18.7467 93.8829 19.76C93.8829 20.784 94.0695 21.5787 94.4429 22.144C94.8269 22.7093 95.4029 22.992 96.1709 22.992ZM103.471 12.208C103.684 12.208 103.871 12.2827 104.031 12.432C104.201 12.5707 104.287 12.7947 104.287 13.104C104.287 13.4027 104.201 13.6267 104.031 13.776C103.871 13.9253 103.684 14 103.471 14C103.236 14 103.039 13.9253 102.879 13.776C102.719 13.6267 102.639 13.4027 102.639 13.104C102.639 12.7947 102.719 12.5707 102.879 12.432C103.039 12.2827 103.236 12.208 103.471 12.208ZM104.159 15.424V24H102.751V15.424H104.159ZM108.764 24L105.516 15.424H107.02L108.844 20.48C108.929 20.7147 109.02 20.976 109.116 21.264C109.212 21.552 109.297 21.8293 109.372 22.096C109.446 22.352 109.5 22.5707 109.532 22.752H109.596C109.638 22.5707 109.697 22.3467 109.772 22.08C109.857 21.8133 109.948 21.536 110.044 21.248C110.15 20.96 110.241 20.704 110.316 20.48L112.14 15.424H113.644L110.38 24H108.764ZM115.721 12.208C115.934 12.208 116.121 12.2827 116.281 12.432C116.451 12.5707 116.537 12.7947 116.537 13.104C116.537 13.4027 116.451 13.6267 116.281 13.776C116.121 13.9253 115.934 14 115.721 14C115.486 14 115.289 13.9253 115.129 13.776C114.969 13.6267 114.889 13.4027 114.889 13.104C114.889 12.7947 114.969 12.5707 115.129 12.432C115.289 12.2827 115.486 12.208 115.721 12.208ZM116.409 15.424V24H115.001V15.424H116.409ZM122.166 24.16C121.099 24.16 120.246 23.792 119.606 23.056C118.966 22.3093 118.646 21.2 118.646 19.728C118.646 18.256 118.966 17.1467 119.606 16.4C120.256 15.6427 121.115 15.264 122.182 15.264C122.843 15.264 123.382 15.3867 123.798 15.632C124.224 15.8773 124.571 16.176 124.838 16.528H124.934C124.923 16.3893 124.902 16.1867 124.87 15.92C124.848 15.6427 124.838 15.424 124.838 15.264V11.84H126.246V24H125.11L124.902 22.848H124.838C124.582 23.2107 124.24 23.52 123.814 23.776C123.387 24.032 122.838 24.16 122.166 24.16ZM122.39 22.992C123.296 22.992 123.931 22.7467 124.294 22.256C124.667 21.7547 124.854 21.0027 124.854 20V19.744C124.854 18.6773 124.678 17.8613 124.326 17.296C123.974 16.72 123.323 16.432 122.374 16.432C121.616 16.432 121.046 16.736 120.662 17.344C120.288 17.9413 120.102 18.7467 120.102 19.76C120.102 20.784 120.288 21.5787 120.662 22.144C121.046 22.7093 121.622 22.992 122.39 22.992ZM136.137 15.424V24H134.985L134.777 22.864H134.713C134.436 23.312 134.052 23.6427 133.561 23.856C133.071 24.0587 132.548 24.16 131.993 24.16C130.959 24.16 130.18 23.9147 129.657 23.424C129.135 22.9227 128.873 22.128 128.873 21.04V15.424H130.297V20.944C130.297 22.3093 130.932 22.992 132.201 22.992C133.151 22.992 133.807 22.7253 134.169 22.192C134.543 21.6587 134.729 20.8907 134.729 19.888V15.424H136.137ZM142.108 15.28C143.153 15.28 143.927 15.5093 144.428 15.968C144.929 16.4267 145.18 17.1573 145.18 18.16V24H144.156L143.884 22.784H143.82C143.447 23.2533 143.052 23.6 142.636 23.824C142.231 24.048 141.665 24.16 140.94 24.16C140.161 24.16 139.516 23.9573 139.004 23.552C138.492 23.136 138.236 22.4907 138.236 21.616C138.236 20.7627 138.572 20.1067 139.244 19.648C139.916 19.1787 140.951 18.9227 142.348 18.88L143.804 18.832V18.32C143.804 17.6053 143.649 17.1093 143.34 16.832C143.031 16.5547 142.593 16.416 142.028 16.416C141.58 16.416 141.153 16.4853 140.748 16.624C140.343 16.752 139.964 16.9013 139.612 17.072L139.18 16.016C139.553 15.8133 139.996 15.6427 140.508 15.504C141.02 15.3547 141.553 15.28 142.108 15.28ZM142.524 19.856C141.457 19.8987 140.716 20.0693 140.3 20.368C139.895 20.6667 139.692 21.088 139.692 21.632C139.692 22.112 139.836 22.464 140.124 22.688C140.423 22.912 140.801 23.024 141.26 23.024C141.985 23.024 142.588 22.8267 143.068 22.432C143.548 22.0267 143.788 21.408 143.788 20.576V19.808L142.524 19.856ZM149.237 24H147.829V11.84H149.237V24ZM161.198 13.68C159.971 13.68 159.006 14.0907 158.302 14.912C157.598 15.7333 157.246 16.8587 157.246 18.288C157.246 19.7067 157.571 20.832 158.222 21.664C158.883 22.4853 159.87 22.896 161.182 22.896C161.683 22.896 162.158 22.8533 162.606 22.768C163.054 22.6827 163.491 22.576 163.918 22.448V23.696C163.491 23.856 163.049 23.9733 162.59 24.048C162.142 24.1227 161.603 24.16 160.974 24.16C159.811 24.16 158.841 23.92 158.062 23.44C157.283 22.96 156.697 22.2773 156.302 21.392C155.918 20.5067 155.726 19.4667 155.726 18.272C155.726 17.12 155.934 16.1067 156.35 15.232C156.777 14.3467 157.401 13.6587 158.222 13.168C159.043 12.6667 160.041 12.416 161.214 12.416C162.419 12.416 163.47 12.64 164.366 13.088L163.79 14.304C163.438 14.144 163.043 14 162.606 13.872C162.179 13.744 161.71 13.68 161.198 13.68ZM169.467 15.28C170.513 15.28 171.286 15.5093 171.787 15.968C172.289 16.4267 172.539 17.1573 172.539 18.16V24H171.515L171.243 22.784H171.179C170.806 23.2533 170.411 23.6 169.995 23.824C169.59 24.048 169.025 24.16 168.299 24.16C167.521 24.16 166.875 23.9573 166.363 23.552C165.851 23.136 165.595 22.4907 165.595 21.616C165.595 20.7627 165.931 20.1067 166.603 19.648C167.275 19.1787 168.31 18.9227 169.707 18.88L171.163 18.832V18.32C171.163 17.6053 171.009 17.1093 170.699 16.832C170.39 16.5547 169.953 16.416 169.387 16.416C168.939 16.416 168.513 16.4853 168.107 16.624C167.702 16.752 167.323 16.9013 166.971 17.072L166.539 16.016C166.913 15.8133 167.355 15.6427 167.867 15.504C168.379 15.3547 168.913 15.28 169.467 15.28ZM169.883 19.856C168.817 19.8987 168.075 20.0693 167.659 20.368C167.254 20.6667 167.051 21.088 167.051 21.632C167.051 22.112 167.195 22.464 167.483 22.688C167.782 22.912 168.161 23.024 168.619 23.024C169.345 23.024 169.947 22.8267 170.427 22.432C170.907 22.0267 171.147 21.408 171.147 20.576V19.808L169.883 19.856ZM180.772 21.632C180.772 22.464 180.463 23.0933 179.844 23.52C179.225 23.9467 178.393 24.16 177.348 24.16C176.751 24.16 176.233 24.112 175.796 24.016C175.369 23.92 174.991 23.7867 174.66 23.616V22.336C175.001 22.5067 175.412 22.6667 175.892 22.816C176.383 22.9547 176.879 23.024 177.38 23.024C178.095 23.024 178.612 22.912 178.932 22.688C179.252 22.4533 179.412 22.144 179.412 21.76C179.412 21.5467 179.353 21.3547 179.236 21.184C179.119 21.0133 178.905 20.8427 178.596 20.672C178.297 20.5013 177.865 20.3093 177.3 20.096C176.745 19.8827 176.271 19.6693 175.876 19.456C175.481 19.2427 175.177 18.9867 174.964 18.688C174.751 18.3893 174.644 18.0053 174.644 17.536C174.644 16.8107 174.937 16.2507 175.524 15.856C176.121 15.4613 176.9 15.264 177.86 15.264C178.383 15.264 178.868 15.3173 179.316 15.424C179.775 15.52 180.201 15.6587 180.596 15.84L180.116 16.96C179.753 16.8107 179.375 16.6827 178.98 16.576C178.585 16.4693 178.18 16.416 177.764 16.416C177.188 16.416 176.745 16.512 176.436 16.704C176.137 16.8853 175.988 17.136 175.988 17.456C175.988 17.6907 176.057 17.8933 176.196 18.064C176.335 18.224 176.564 18.384 176.884 18.544C177.215 18.6933 177.652 18.8747 178.196 19.088C178.74 19.2907 179.204 19.4987 179.588 19.712C179.972 19.9253 180.265 20.1867 180.468 20.496C180.671 20.7947 180.772 21.1733 180.772 21.632ZM186.156 15.264C186.892 15.264 187.522 15.424 188.044 15.744C188.578 16.064 188.983 16.5173 189.26 17.104C189.548 17.68 189.692 18.3573 189.692 19.136V19.984H183.82C183.842 20.9547 184.087 21.696 184.556 22.208C185.036 22.7093 185.703 22.96 186.556 22.96C187.1 22.96 187.58 22.912 187.996 22.816C188.423 22.7093 188.86 22.56 189.308 22.368V23.6C188.871 23.792 188.439 23.9307 188.012 24.016C187.586 24.112 187.079 24.16 186.492 24.16C185.682 24.16 184.962 23.9947 184.332 23.664C183.714 23.3333 183.228 22.8427 182.876 22.192C182.535 21.5307 182.364 20.7253 182.364 19.776C182.364 18.8373 182.519 18.032 182.828 17.36C183.148 16.688 183.591 16.1707 184.156 15.808C184.732 15.4453 185.399 15.264 186.156 15.264ZM186.14 16.416C185.468 16.416 184.935 16.6347 184.54 17.072C184.156 17.4987 183.927 18.096 183.852 18.864H188.22C188.21 18.1387 188.039 17.552 187.708 17.104C187.378 16.6453 186.855 16.416 186.14 16.416ZM197.46 21.632C197.46 22.464 197.15 23.0933 196.532 23.52C195.913 23.9467 195.081 24.16 194.036 24.16C193.438 24.16 192.921 24.112 192.484 24.016C192.057 23.92 191.678 23.7867 191.348 23.616V22.336C191.689 22.5067 192.1 22.6667 192.58 22.816C193.07 22.9547 193.566 23.024 194.068 23.024C194.782 23.024 195.3 22.912 195.62 22.688C195.94 22.4533 196.1 22.144 196.1 21.76C196.1 21.5467 196.041 21.3547 195.924 21.184C195.806 21.0133 195.593 20.8427 195.284 20.672C194.985 20.5013 194.553 20.3093 193.988 20.096C193.433 19.8827 192.958 19.6693 192.564 19.456C192.169 19.2427 191.865 18.9867 191.652 18.688C191.438 18.3893 191.332 18.0053 191.332 17.536C191.332 16.8107 191.625 16.2507 192.212 15.856C192.809 15.4613 193.588 15.264 194.548 15.264C195.07 15.264 195.556 15.3173 196.004 15.424C196.462 15.52 196.889 15.6587 197.284 15.84L196.804 16.96C196.441 16.8107 196.062 16.6827 195.668 16.576C195.273 16.4693 194.868 16.416 194.452 16.416C193.876 16.416 193.433 16.512 193.124 16.704C192.825 16.8853 192.676 17.136 192.676 17.456C192.676 17.6907 192.745 17.8933 192.884 18.064C193.022 18.224 193.252 18.384 193.572 18.544C193.902 18.6933 194.34 18.8747 194.884 19.088C195.428 19.2907 195.892 19.4987 196.276 19.712C196.66 19.9253 196.953 20.1867 197.156 20.496C197.358 20.7947 197.46 21.1733 197.46 21.632Z" fill="black"/>
<defs>
<clipPath id="clip0">
<rect width="247" height="40" fill="white"/>
</clipPath>
</defs>
</svg>
